<svg width="128" height="128" viewBox="0 0 128 128" fill="none" xmlns="http://www.w3.org/2000/svg">
<path d="M64 119.137C96.1057 119.137 122.132 104.111 122.132 85.5757C122.132 67.0401 96.1057 52.0141 64 52.0141C31.8943 52.0141 5.86752 67.0401 5.86752 85.5757C5.86752 104.111 31.8943 119.137 64 119.137Z" fill="#F5F5F5"/>
<path d="M53.3734 108.833C63.761 108.833 72.1818 103.971 72.1818 97.9738C72.1818 91.9762 63.761 87.1143 53.3734 87.1143C42.9859 87.1143 34.5651 91.9762 34.5651 97.9738C34.5651 103.971 42.9859 108.833 53.3734 108.833Z" fill="#E0E0E0"/>
<path d="M81.0496 106.24C88.9573 106.24 95.3677 102.539 95.3677 97.9738C95.3677 93.4085 88.9573 89.7076 81.0496 89.7076C73.142 89.7076 66.7315 93.4085 66.7315 97.9738C66.7315 102.539 73.142 106.24 81.0496 106.24Z" fill="#E0E0E0"/>
<path d="M108.71 79.6493L106.45 78.3437C106.45 78.3437 105.106 72.7578 105.641 67.7325C106.394 60.6643 111.048 58.0045 112.809 58.6138C114.57 59.223 115.09 61.2813 112.161 65.4899C110.444 67.9731 108.321 73.1469 108.71 79.6493Z" fill="#7E57C2"/>
<g opacity="0.15">
<path d="M108.71 79.6493L106.45 78.3437C106.45 78.3437 105.106 72.7578 105.641 67.7325C106.394 60.6643 111.048 58.0045 112.809 58.6138C114.57 59.223 115.09 61.2813 112.161 65.4899C110.444 67.9731 108.321 73.1469 108.71 79.6493Z" fill="black"/>
</g>
<path d="M107.776 76.905H107.796C107.817 76.9016 107.836 76.8942 107.854 76.8831C107.871 76.8721 107.886 76.8576 107.898 76.8407C107.909 76.8237 107.918 76.8046 107.922 76.7844C107.926 76.7642 107.926 76.7434 107.922 76.7232C106.683 70.2029 108.961 62.8787 111.78 59.8272C111.795 59.8129 111.806 59.7958 111.814 59.7769C111.822 59.758 111.826 59.7376 111.826 59.7171C111.826 59.6966 111.822 59.6763 111.814 59.6574C111.806 59.6385 111.795 59.6214 111.78 59.607C111.75 59.5784 111.71 59.5624 111.668 59.5624C111.627 59.5624 111.587 59.5784 111.557 59.607C108.687 62.7123 106.365 70.1568 107.622 76.7718C107.628 76.8087 107.646 76.8424 107.675 76.8668C107.703 76.8912 107.739 76.9048 107.776 76.905Z" fill="white"/>
<path d="M114.627 83.0669C114.982 83.2486 115.932 82.4371 116.198 82.24C116.655 81.8971 117.016 81.4433 117.248 80.9216C117.501 80.3289 117.564 79.6727 117.43 79.0426C117.356 78.7107 117.26 78.384 117.143 78.0646L116.818 77.1174C116.69 76.8128 116.625 76.4853 116.628 76.1549C116.68 75.4918 117.24 75.0029 117.75 74.5779C118.316 74.1094 118.897 73.4976 118.853 72.7066C118.779 72.0949 118.505 71.525 118.072 71.0861C117.67 70.6253 117.199 70.2234 116.831 69.7344C116.544 69.3957 116.382 68.9695 116.37 68.5261C116.394 68.2522 116.472 67.9859 116.6 67.7427C116.856 67.2128 117.199 66.7187 117.368 66.1581C117.537 65.5974 117.471 64.9088 117.02 64.535C116.649 64.2253 116.119 64.2074 115.64 64.2637C115.193 64.3416 114.769 64.5164 114.396 64.7757C113.175 65.5437 112.532 67.0617 111.224 67.6685C110.712 67.9014 110.159 67.9757 109.632 68.1446C109.105 68.3136 108.57 68.6131 108.352 69.1226C107.914 70.1261 108.882 71.2857 108.59 72.3405C108.334 73.2749 107.459 73.6691 106.998 74.5241C106.812 74.8999 106.751 75.3249 106.824 75.7376C106.904 76.4379 107.11 77.1179 107.433 77.7446C107.798 78.3861 108.202 79.005 108.641 79.5981C108.641 79.5981 114.573 83.0387 114.627 83.0669Z" fill="#7E57C2"/>
<path d="M111.168 81.2646C111.189 81.263 111.209 81.2574 111.227 81.248C111.245 81.2386 111.262 81.2257 111.275 81.21C111.288 81.1943 111.298 81.1761 111.305 81.1565C111.311 81.1369 111.313 81.1162 111.311 81.0957C110.74 74.8954 113.321 67.8886 115.351 65.7869C115.38 65.7576 115.396 65.7181 115.396 65.6768C115.396 65.6356 115.38 65.596 115.351 65.5667C115.337 65.552 115.32 65.5403 115.301 65.5323C115.282 65.5244 115.262 65.5202 115.241 65.5202C115.22 65.5202 115.2 65.5244 115.181 65.5323C115.162 65.5403 115.145 65.552 115.131 65.5667C113.06 67.7094 110.426 74.8339 111.004 81.1213C111.007 81.1618 111.026 81.1995 111.057 81.2262C111.088 81.253 111.127 81.2668 111.168 81.2646Z" fill="white"/>
<path d="M111.785 73.6205C111.8 73.6241 111.816 73.6241 111.831 73.6205C113.283 73.1415 114.782 72.8222 116.303 72.6682C116.324 72.6662 116.344 72.6603 116.362 72.6506C116.38 72.6409 116.396 72.6277 116.41 72.6118C116.423 72.5958 116.432 72.5774 116.438 72.5577C116.444 72.5379 116.446 72.5172 116.444 72.4966C116.443 72.4759 116.438 72.4557 116.429 72.4371C116.42 72.4185 116.407 72.4021 116.391 72.3888C116.375 72.3756 116.356 72.3658 116.337 72.3601C116.317 72.3544 116.296 72.353 116.275 72.3558C114.727 72.5138 113.201 72.8391 111.724 73.3261C111.686 73.3375 111.655 73.3622 111.635 73.3955C111.615 73.4288 111.609 73.4682 111.616 73.5062C111.624 73.5442 111.646 73.5779 111.677 73.6009C111.708 73.6239 111.746 73.6346 111.785 73.6307V73.6205Z" fill="white"/>
<path d="M24.9062 18.857L22.8403 20.0474C22.8513 19.9565 22.8573 19.865 22.8582 19.7734V19.177C22.8582 18.112 22.1107 17.6794 21.1865 18.2118C20.7904 18.4557 20.4516 18.7823 20.1933 19.1693C20.0422 17.8304 18.9901 17.3312 17.7152 18.0685C16.3353 18.8646 15.2166 20.8026 15.2166 22.3949V23.296C15.2099 23.6489 15.2825 23.9989 15.4291 24.32L13.7139 25.3082C13.4455 25.4862 13.2228 25.725 13.064 26.0052C12.9052 26.2855 12.8148 26.5992 12.8 26.921C12.8 27.5123 13.2147 27.7504 13.7267 27.456L24.9062 20.992C25.1755 20.8159 25.3996 20.5788 25.5601 20.2999C25.7207 20.021 25.8133 19.7082 25.8304 19.3869C25.8304 18.8006 25.4157 18.56 24.9062 18.857Z" fill="#EBEBEB"/>
<path d="M38.8531 21.5373L37.7139 21.975V19.456C37.7139 17.4669 36.1267 16.9907 34.4038 17.9866C32.6809 18.9798 31.2857 21.399 31.2857 23.3882V23.7542C30.8941 23.5981 30.3897 23.657 29.8368 23.977C28.5977 24.6912 27.5917 26.432 27.5917 27.8656V28.0294L26.0045 28.9485C25.574 29.2289 25.2157 29.6068 24.9586 30.0516C24.7016 30.4964 24.5529 30.9955 24.5248 31.5085C24.5248 32.4506 25.1878 32.832 26.0045 32.361L38.8531 24.937C39.2835 24.6565 39.6418 24.2786 39.8989 23.8338C40.156 23.389 40.3046 22.8899 40.3328 22.377C40.3328 21.4477 39.68 21.0662 38.8531 21.5373Z" fill="#EBEBEB"/>
<path d="M88.4659 64.1843C90.3706 60.7565 84.0755 28.8563 84.0755 28.8563L82.432 28.2957C82.432 28.2957 74.8058 58.56 75.5456 61.3555C76.2854 64.151 83.2128 67.1795 88.4659 64.1843Z" fill="#7E57C2"/>
<path opacity="0.1" d="M88.4659 64.1843C90.3706 60.7565 84.0755 28.8563 84.0755 28.8563L82.432 28.2957C82.432 28.2957 74.8058 58.56 75.5456 61.3555C76.2854 64.151 83.2128 67.1795 88.4659 64.1843Z" fill="black"/>
<path opacity="0.1" d="M80.064 56.8601L88.3686 55.1475C88.0947 52.7104 87.7184 49.9993 87.3011 47.2704C86.3744 47.1245 84.5901 45.7344 84.1139 44.9869C82.4397 42.3629 82.4858 37.0509 82.647 34.6675C82.8826 31.2499 83.1923 29.5117 83.1923 29.5117L84.2496 29.7677C84.1395 29.1968 84.0755 28.8793 84.0755 28.8793L82.432 28.2957C82.432 28.2957 78.9504 42.0992 76.9178 51.9245L80.064 56.8601Z" fill="black"/>
<path opacity="0.1" d="M84.3443 36.1651C84.3443 36.1651 83.9962 31.104 83.6378 28.713L82.8698 28.457C82.8698 28.457 81.6794 32.9907 81.6128 34.1094L83.1795 28.9894C83.1795 28.9894 84.1549 34.7853 84.3443 36.1651Z" fill="black"/>
<path d="M83.6531 24.9702C84.1651 25.3517 84.6771 25.6128 85.2915 25.4822C85.9059 25.3517 87.0989 23.7978 87.4573 23.6134C87.8157 23.4291 87.3907 23.0349 86.8378 22.8122C86.2848 22.5894 84.0858 22.377 83.4662 24.3046C83.4402 24.4224 83.4436 24.5448 83.4762 24.6609C83.5088 24.777 83.5696 24.8833 83.6531 24.9702Z" fill="#7E57C2"/>
<path opacity="0.15" d="M85.2813 24.576C85.3197 24.553 85.3658 24.5171 85.353 24.471C85.3402 24.425 85.2864 24.4198 85.2403 24.4173L84.3494 24.3738L85.4323 23.4906C85.4784 23.4522 85.5271 23.4061 85.5219 23.3472C85.5167 23.3223 85.5037 23.2998 85.4848 23.2828C85.466 23.2658 85.4422 23.2552 85.417 23.2525C85.3655 23.2461 85.3132 23.2541 85.2659 23.2755C84.785 23.4624 84.3352 23.7213 83.9322 24.0435C83.799 24.1382 83.584 24.2995 83.6506 24.4941C83.7171 24.6886 83.9655 24.7066 84.1063 24.7373C84.5044 24.8302 84.9229 24.7727 85.2813 24.576Z" fill="black"/>
<path d="M81.7971 24.0921C81.1827 23.9232 80.6554 23.6646 80.3866 23.1091C80.1178 22.5536 80.6119 20.6489 80.5351 20.2521C80.4583 19.8553 81.0471 19.9501 81.5591 20.2521C82.0711 20.5542 83.5891 22.1593 82.4474 23.8361C82.3685 23.9291 82.2678 24.0011 82.1544 24.0458C82.0409 24.0904 81.9182 24.1064 81.7971 24.0921Z" fill="#7E57C2"/>
<path opacity="0.15" d="M81.1059 22.5664C81.1059 22.5203 81.1059 22.4614 81.1443 22.4461C81.1827 22.4307 81.2262 22.464 81.257 22.4998L81.8381 23.1757L81.8714 21.7805C81.8714 21.7216 81.8714 21.655 81.9302 21.6243C81.953 21.6122 81.9791 21.6079 82.0045 21.6121C82.03 21.6162 82.0533 21.6286 82.071 21.6473C82.105 21.6859 82.1304 21.7313 82.1453 21.7805C82.2906 22.2741 82.3622 22.7865 82.3578 23.3011C82.3578 23.4649 82.3578 23.7337 82.1734 23.8131C81.9891 23.8925 81.815 23.6928 81.7024 23.6032C81.3814 23.344 81.1687 22.9742 81.1059 22.5664Z" fill="black"/>
<path d="M84.0294 24.8781C84.0294 25.1515 83.9484 25.4188 83.7965 25.6461C83.6446 25.8734 83.4287 26.0506 83.1761 26.1552C82.9235 26.2599 82.6455 26.2872 82.3774 26.2339C82.1092 26.1806 81.8629 26.0489 81.6695 25.8556C81.4762 25.6622 81.3446 25.4159 81.2912 25.1478C81.2379 24.8796 81.2652 24.6016 81.3699 24.349C81.4745 24.0964 81.6517 23.8805 81.879 23.7286C82.1064 23.5767 82.3736 23.4957 82.647 23.4957C82.8287 23.4953 83.0086 23.5309 83.1765 23.6002C83.3443 23.6696 83.4969 23.7714 83.6253 23.8998C83.7537 24.0282 83.8556 24.1808 83.9249 24.3486C83.9943 24.5165 84.0298 24.6964 84.0294 24.8781Z" fill="#7E57C2"/>
<path opacity="0.1" d="M81.8048 24.8781C81.5488 24.2227 82.0967 23.6723 82.7136 23.4982H82.6471C82.3831 23.4978 82.1245 23.5729 81.9018 23.7148C81.6792 23.8566 81.5018 24.0593 81.3907 24.2987C81.2795 24.5382 81.2393 24.8045 81.2747 25.0661C81.3102 25.3277 81.4197 25.5737 81.5905 25.775C81.7613 25.9763 81.9862 26.1245 82.2386 26.202C82.4909 26.2796 82.7602 26.2833 83.0146 26.2126C83.2689 26.142 83.4978 26 83.674 25.8034C83.8502 25.6068 83.9664 25.3639 84.009 25.1034C83.5559 25.792 82.0557 25.5232 81.8048 24.8781Z" fill="black"/>
<path d="M61.1098 54.4768C60.777 55.1321 60.4263 55.7824 60.055 56.4173C58.5472 58.9901 56.6042 61.0483 54.4768 63.1065C52.4288 65.0803 50.153 66.9465 47.401 67.8067C46.6867 68.032 45.8189 68.1523 45.2659 67.6505C44.713 67.1488 44.7539 66.2605 44.841 65.5078C44.2875 66.7342 43.4702 67.8234 42.4474 68.6976C42.161 68.9659 41.8231 69.1732 41.4541 69.3069C41.269 69.3724 41.0711 69.3935 40.8764 69.3686C40.6816 69.3438 40.4955 69.2735 40.3328 69.1635C39.8439 68.7897 39.8208 68.0729 39.8951 67.4637C39.4496 68.0576 39.1808 68.7616 38.8557 69.4297C38.5306 70.0979 38.1235 70.7584 37.5015 71.1629C36.8794 71.5673 35.9911 71.6416 35.4227 71.1629C34.5114 70.3949 35.0643 69.1968 35.2205 68.2368C35.418 67.0382 35.6968 65.8545 36.0551 64.6937C36.772 62.3987 37.7576 60.1963 38.9914 58.1325C40.3388 55.8904 41.9166 53.7952 43.6992 51.8809C44.5696 50.9389 45.4759 50.0147 46.4333 49.1622C47.4664 48.2667 48.5642 47.4487 49.7178 46.7149C57.216 42.5037 60.3418 42.8569 62.0493 43.8579C63.1143 44.4851 63.8771 49.0368 61.1098 54.4768Z" fill="#7E57C2"/>
<path opacity="0.7" d="M61.1098 54.4768C60.777 55.1321 60.4263 55.7824 60.055 56.4173C58.5472 58.9901 56.6042 61.0483 54.4768 63.1065C52.4288 65.0803 50.153 66.9465 47.401 67.8067C46.6867 68.032 45.8189 68.1523 45.2659 67.6505C44.713 67.1488 44.7539 66.2605 44.841 65.5078C44.2875 66.7342 43.4702 67.8234 42.4474 68.6976C42.161 68.9659 41.8231 69.1732 41.4541 69.3069C41.269 69.3724 41.0711 69.3935 40.8764 69.3686C40.6816 69.3438 40.4955 69.2735 40.3328 69.1635C39.8439 68.7897 39.8208 68.0729 39.8951 67.4637C39.4496 68.0576 39.1808 68.7616 38.8557 69.4297C38.5306 70.0979 38.1235 70.7584 37.5015 71.1629C36.8794 71.5673 35.9911 71.6416 35.4227 71.1629C34.5114 70.3949 35.0643 69.1968 35.2205 68.2368C35.418 67.0382 35.6968 65.8545 36.0551 64.6937C36.772 62.3987 37.7576 60.1963 38.9914 58.1325C40.3388 55.8904 41.9166 53.7952 43.6992 51.8809C44.5696 50.9389 45.4759 50.0147 46.4333 49.1622C47.4664 48.2667 48.5642 47.4487 49.7178 46.7149C57.216 42.5037 60.3418 42.8569 62.0493 43.8579C63.1143 44.4851 63.8771 49.0368 61.1098 54.4768Z" fill="#FAFAFA"/>
<path d="M57.3056 92.6131C55.9642 92.4006 55.7824 92.3955 55.2576 92.4851C54.7328 92.5747 54.6125 92.8461 54.9888 92.9818C55.3651 93.1174 56.5248 93.2378 56.9575 93.719C57.3901 94.2003 58.6086 95.8029 58.9747 96.1715C59.3408 96.5402 60.0755 98.1965 60.2803 98.6266C60.4851 99.0566 61.033 98.8314 60.9536 98.1478C60.8359 97.1238 60.0781 95.6365 60.0781 95.6365C60.8072 95.9963 61.4977 96.4295 62.1389 96.9293C62.5715 97.2979 62.9299 97.6845 63.3242 97.6333C63.7184 97.5821 63.5802 97.0931 63.0682 96.5197C62.5127 95.9644 61.9236 95.4438 61.3043 94.9606C62.2994 95.165 63.2616 95.5052 64.1638 95.9718C64.8525 96.3302 65.2314 96.1331 65.0906 95.785C64.9498 95.4368 64.4301 94.9197 62.9939 94.3514C61.6499 93.824 59.5968 92.9792 57.3056 92.6131Z" fill="#F0997A"/>
<path opacity="0.15" d="M63.4522 97.5769C63.1962 97.6025 63.0246 97.5334 62.551 96.9907C62.0403 96.3603 61.3993 95.8477 60.672 95.488C59.8144 95.063 59.7658 95.232 60.0678 95.6441C60.7925 96.0047 61.4787 96.4379 62.1158 96.9369C62.5485 97.3056 62.9069 97.6921 63.3011 97.6409C63.3568 97.6355 63.4095 97.6132 63.4522 97.5769Z" fill="black"/>
<path opacity="0.15" d="M65.0906 95.9693C65.0394 96.0768 64.896 96.1433 64.6963 96.0205C64.4967 95.8976 64.169 95.7286 63.5443 95.4189C62.9478 95.1128 62.3205 94.8709 61.673 94.6969C61.161 94.5792 61.0253 94.807 61.2864 94.9529C62.2809 95.1591 63.2429 95.4993 64.1459 95.9641C64.6989 96.256 65.0471 96.1869 65.0906 95.9693Z" fill="black"/>
<path opacity="0.15" d="M60.265 98.6291C60.2834 98.6861 60.3181 98.7366 60.3647 98.7743C60.4112 98.812 60.4678 98.8354 60.5274 98.8417C60.587 98.8479 60.6472 98.8367 60.7006 98.8094C60.7539 98.7821 60.7983 98.74 60.8281 98.688C60.6157 98.8467 60.5261 98.688 60.4339 98.432C60.2927 97.9758 60.1216 97.5294 59.9219 97.0957C59.6658 96.5208 59.3381 95.9807 58.9465 95.488C58.6061 95.1091 57.7536 94.016 57.3005 93.5321C56.8474 93.0483 56.2918 92.9715 55.6109 92.9152C54.9299 92.8589 54.7891 92.6873 54.8429 92.6208C54.6841 92.7385 54.7174 92.8768 54.9658 92.9766C55.3421 93.1123 56.5017 93.2326 56.9344 93.7114C57.367 94.1901 58.5856 95.7977 58.9517 96.1664C59.3177 96.535 60.0602 98.199 60.265 98.6291Z" fill="black"/>
<path d="M59.1078 93.5705L57.7946 93.6601L56.4506 72.0768L57.7638 71.9846L59.1078 93.5705Z" fill="#F0997A"/>
<path opacity="0.15" d="M57.7638 71.9846L56.4506 72.0768L56.5453 73.5974C56.7493 73.7132 56.9832 73.7655 57.2171 73.7477C57.4511 73.73 57.6744 73.6429 57.8586 73.4976L57.7638 71.9846Z" fill="black"/>
<path d="M57.7613 72.041L56.4506 71.9258L58.0659 54.8147L59.3766 54.9299L57.7613 72.041Z" fill="#F0997A"/>
<path opacity="0.15" d="M58.1786 67.6326L59.3766 54.9299L58.3526 54.8403L58.0608 54.8147L56.7808 68.5338C57.2651 68.2628 57.7319 67.9619 58.1786 67.6326Z" fill="black"/>
<path d="M57.0675 73.2493C57.7391 73.2493 58.2835 72.7048 58.2835 72.0333C58.2835 71.3617 57.7391 70.8173 57.0675 70.8173C56.396 70.8173 55.8515 71.3617 55.8515 72.0333C55.8515 72.7048 56.396 73.2493 57.0675 73.2493Z" fill="#F0997A"/>
<path d="M73.5258 19.2C73.5247 17.8206 73.0036 16.4924 72.0665 15.4803C71.1293 14.4682 69.845 13.8467 68.4698 13.7397C67.0946 13.6328 65.7296 14.0483 64.6473 14.9033C63.5649 15.7583 62.8447 16.99 62.6304 18.3526C61.9469 20.3034 61.4758 23.1424 61.9674 27.0848C62.8147 33.8637 66.5037 40.2893 62.5587 44.0858C61.6934 44.9203 59.8963 44.2291 58.8928 44.16C57.2954 44.0499 55.6877 43.927 54.08 44.0627C50.6627 44.374 47.3587 45.4474 44.4109 47.2038C40.1178 49.7331 36.631 53.4886 33.984 57.6998C32.3686 60.2726 30.912 63.3318 27.9373 64.489C27.6403 64.6042 27.2717 64.8038 27.3306 65.1162C27.354 65.1933 27.3928 65.2648 27.4448 65.3264C27.4967 65.388 27.5606 65.4384 27.6326 65.4746C28.1061 65.7701 28.6648 65.8989 29.2198 65.8406C29.2005 65.9747 29.1479 66.1018 29.067 66.2104C28.9861 66.319 28.8794 66.4058 28.7565 66.4627C28.5109 66.5756 28.2754 66.7092 28.0525 66.8621C27.9435 66.9424 27.8641 67.0564 27.8266 67.1865C27.7891 67.3166 27.7956 67.4554 27.8451 67.5814C27.9507 67.7296 28.1046 67.8364 28.2803 67.8835C30.0979 68.5773 32.233 68.4544 34.0813 67.968C36.3008 67.3869 38.4051 66.3962 40.6554 65.9456C43.2768 65.4182 45.9827 65.6435 48.6579 65.5949C53.0236 65.4496 57.2751 64.1636 60.9894 61.865C64.9798 59.3614 67.8864 55.4528 69.1354 50.9107C71.2858 43.0413 68.7795 38.8787 66.5037 31.168C65.5616 27.9731 65.1085 25.6333 64.9805 23.744C65.8052 24.2991 66.7653 24.6195 67.7581 24.671C68.7509 24.7225 69.739 24.5032 70.6168 24.0364C71.4945 23.5697 72.2289 22.8731 72.7413 22.0212C73.2537 21.1693 73.5248 20.1941 73.5258 19.2Z" fill="#7E57C2"/>
<path opacity="0.9" d="M73.5258 19.2C73.5247 17.8206 73.0036 16.4924 72.0665 15.4803C71.1293 14.4682 69.845 13.8467 68.4698 13.7397C67.0946 13.6328 65.7296 14.0483 64.6473 14.9033C63.5649 15.7583 62.8447 16.99 62.6304 18.3526C61.9469 20.3034 61.4758 23.1424 61.9674 27.0848C62.8147 33.8637 66.5037 40.2893 62.5587 44.0858C61.6934 44.9203 59.8963 44.2291 58.8928 44.16C57.2954 44.0499 55.6877 43.927 54.08 44.0627C50.6627 44.374 47.3587 45.4474 44.4109 47.2038C40.1178 49.7331 36.631 53.4886 33.984 57.6998C32.3686 60.2726 30.912 63.3318 27.9373 64.489C27.6403 64.6042 27.2717 64.8038 27.3306 65.1162C27.354 65.1933 27.3928 65.2648 27.4448 65.3264C27.4967 65.388 27.5606 65.4384 27.6326 65.4746C28.1061 65.7701 28.6648 65.8989 29.2198 65.8406C29.2005 65.9747 29.1479 66.1018 29.067 66.2104C28.9861 66.319 28.8794 66.4058 28.7565 66.4627C28.5109 66.5756 28.2754 66.7092 28.0525 66.8621C27.9435 66.9424 27.8641 67.0564 27.8266 67.1865C27.7891 67.3166 27.7956 67.4554 27.8451 67.5814C27.9507 67.7296 28.1046 67.8364 28.2803 67.8835C30.0979 68.5773 32.233 68.4544 34.0813 67.968C36.3008 67.3869 38.4051 66.3962 40.6554 65.9456C43.2768 65.4182 45.9827 65.6435 48.6579 65.5949C53.0236 65.4496 57.2751 64.1636 60.9894 61.865C64.9798 59.3614 67.8864 55.4528 69.1354 50.9107C71.2858 43.0413 68.7795 38.8787 66.5037 31.168C65.5616 27.9731 65.1085 25.6333 64.9805 23.744C65.8052 24.2991 66.7653 24.6195 67.7581 24.671C68.7509 24.7225 69.739 24.5032 70.6168 24.0364C71.4945 23.5697 72.2289 22.8731 72.7413 22.0212C73.2537 21.1693 73.5248 20.1941 73.5258 19.2Z" fill="#FAFAFA"/>
<path opacity="0.03" d="M69.9059 46.5178C69.5475 50.3168 67.2307 55.0989 64.2893 57.2698C61.0227 59.6685 56.2662 60.4365 56.6861 58.5139C57.303 55.8696 57.3327 53.1223 56.7731 50.4653C56.7731 50.4653 54.8941 56.6886 48.4122 61.3658C41.9302 66.0429 29.9315 68.3008 29.9315 68.3008C31.3186 68.4557 32.7226 68.3453 34.0685 67.9757C36.288 67.3946 38.3923 66.4038 40.6426 65.9533C43.264 65.4259 45.9699 65.6512 48.6451 65.6026C53.0108 65.4573 57.2623 64.1713 60.9766 61.8726C64.967 59.3691 67.8736 55.4604 69.1226 50.9184C69.5297 49.4813 69.7921 48.0071 69.9059 46.5178Z" fill="#7E57C2"/>
<path opacity="0.03" d="M69.9059 46.5178C69.5475 50.3168 67.2307 55.0989 64.2893 57.2698C61.0227 59.6685 56.2662 60.4365 56.6861 58.5139C57.303 55.8696 57.3327 53.1223 56.7731 50.4653C56.7731 50.4653 54.8941 56.6886 48.4122 61.3658C41.9302 66.0429 29.9315 68.3008 29.9315 68.3008C31.3186 68.4557 32.7226 68.3453 34.0685 67.9757C36.288 67.3946 38.3923 66.4038 40.6426 65.9533C43.264 65.4259 45.9699 65.6512 48.6451 65.6026C53.0108 65.4573 57.2623 64.1713 60.9766 61.8726C64.967 59.3691 67.8736 55.4604 69.1226 50.9184C69.5297 49.4813 69.7921 48.0071 69.9059 46.5178Z" fill="black"/>
<path d="M30.9965 66.6726C30.5382 65.9046 33.3978 63.2473 33.3978 63.2473C33.3978 63.2473 30.6534 64.7296 30.2362 64.4249C29.8189 64.1203 30.464 63.168 31.1194 62.0697C30.2836 63.1356 29.1878 63.9687 27.9373 64.4889C27.6403 64.6041 27.2717 64.8038 27.3306 65.1161C27.354 65.1933 27.3928 65.2648 27.4448 65.3264C27.4967 65.388 27.5606 65.4384 27.6326 65.4745C28.1061 65.7701 28.6648 65.8989 29.2198 65.8406C29.2005 65.9747 29.1479 66.1018 29.067 66.2104C28.9861 66.319 28.8794 66.4057 28.7565 66.4627C28.5109 66.5756 28.2754 66.7092 28.0525 66.8621C27.9435 66.9424 27.8641 67.0564 27.8266 67.1865C27.7891 67.3166 27.7956 67.4554 27.8451 67.5814C27.9507 67.7296 28.1046 67.8364 28.2803 67.8835C30.0979 68.5773 32.233 68.4544 34.0813 67.968C34.9235 67.7478 35.7478 67.4688 36.5722 67.1821C34.4704 67.2153 31.3011 67.1795 30.9965 66.6726Z" fill="#37474F"/>
<path d="M47.36 98.6265C46.016 98.4115 45.824 98.4064 45.312 98.496C44.8 98.5856 44.6643 98.8569 45.0407 98.9926C45.417 99.1283 46.5767 99.2486 47.0093 99.7299C47.4419 100.211 48.6605 101.816 49.0266 102.182C49.3927 102.548 50.1274 104.207 50.3322 104.637C50.537 105.068 51.1002 104.842 51.008 104.159C50.8877 103.135 50.1299 101.647 50.1299 101.647C50.859 102.007 51.5495 102.44 52.1907 102.94C52.6234 103.311 52.9843 103.708 53.376 103.647C53.7677 103.585 53.632 103.104 53.12 102.531C52.5645 101.975 51.9755 101.455 51.3562 100.972C52.3508 101.177 53.3128 101.517 54.2157 101.983C54.9043 102.341 55.2832 102.144 55.1424 101.796C55.0016 101.448 54.4819 100.931 53.0458 100.362C51.712 99.84 49.664 98.9901 47.36 98.6265Z" fill="#F0997A"/>
<path opacity="0.15" d="M53.504 103.585C53.248 103.611 53.0739 103.542 52.6003 102.999C52.0886 102.366 51.4458 101.852 50.7162 101.491C49.8611 101.069 49.8125 101.235 50.112 101.647C50.8411 102.007 51.5316 102.44 52.1728 102.94C52.6054 103.311 52.9664 103.708 53.3581 103.647C53.4111 103.639 53.4613 103.618 53.504 103.585Z" fill="black"/>
<path opacity="0.15" d="M55.1475 101.978C55.0989 102.085 54.953 102.152 54.7533 102.031C54.5536 101.911 54.2259 101.74 53.6038 101.427C53.0067 101.121 52.3785 100.88 51.7299 100.708C51.2179 100.59 51.0822 100.815 51.3434 100.964C52.338 101.17 53.3 101.51 54.2029 101.975C54.7558 102.272 55.104 102.198 55.1475 101.978Z" fill="black"/>
<path opacity="0.15" d="M50.3219 104.637C50.3401 104.695 50.3745 104.745 50.421 104.783C50.4674 104.821 50.5239 104.845 50.5835 104.852C50.6432 104.858 50.7034 104.847 50.757 104.82C50.8105 104.793 50.855 104.751 50.8851 104.699C50.6726 104.855 50.583 104.699 50.4909 104.443C50.3502 103.986 50.1791 103.538 49.9789 103.104C49.7222 102.53 49.3945 101.991 49.0035 101.499C48.6656 101.117 47.8106 100.027 47.3574 99.543C46.9043 99.0592 46.3488 98.9824 45.6678 98.9235C44.9869 98.8646 44.8461 98.6957 44.8998 98.6317C44.7437 98.7469 44.7744 98.8877 45.0227 98.985C45.399 99.1232 46.5587 99.241 46.9914 99.7222C47.424 100.204 48.6426 101.809 49.0086 102.175C49.3747 102.541 50.1171 104.207 50.3219 104.637Z" fill="black"/>
<path d="M49.1623 99.5814L47.8515 99.6736L46.5075 78.0877L47.8183 77.9955L49.1623 99.5814Z" fill="#F0997A"/>
<path opacity="0.15" d="M47.8183 77.9955L46.5075 78.0877L46.592 79.616C46.7956 79.7312 47.0288 79.7835 47.2621 79.7662C47.4954 79.7489 47.7184 79.6627 47.9027 79.5187L47.8183 77.9955Z" fill="black"/>
<path d="M47.7312 78.3974L46.4461 78.1133L50.2554 61.3555L51.5405 61.6397L47.7312 78.3974Z" fill="#F0997A"/>
<path opacity="0.15" d="M51.5405 61.6397L50.2605 61.3555L48.1152 70.7994C48.5606 70.7994 49.0189 70.7661 49.4797 70.7226L51.5405 61.6397Z" fill="black"/>
<path d="M47.1219 79.2602C47.7935 79.2602 48.3379 78.7157 48.3379 78.0442C48.3379 77.3726 47.7935 76.8282 47.1219 76.8282C46.4503 76.8282 45.9059 77.3726 45.9059 78.0442C45.9059 78.7157 46.4503 79.2602 47.1219 79.2602Z" fill="#F0997A"/>
<path d="M54.8838 57.856C52.9203 61.8624 50.4064 65.449 46.4128 67.5328C46.1159 67.6848 45.79 67.7721 45.4568 67.7889C45.1237 67.8057 44.7907 67.7515 44.48 67.6301C43.8707 67.3741 44.0141 65.9814 44.3418 65.4106C43.433 66.9466 41.8202 68.8768 39.9744 69.8189C39.511 70.057 38.5715 70.1261 38.2566 69.6653C37.9418 69.2045 38.08 68.1114 38.2336 67.6173C37.8701 68.8154 36.6464 71.0246 35.7069 71.8541C35.3613 72.1562 34.9389 72.4403 34.4883 72.4198C33.4643 72.3763 33.5616 70.8685 33.7203 70.4384C32.9523 71.6979 31.8515 73.7101 30.825 74.7648C30.4666 75.1309 29.9622 75.5123 29.4912 75.3075C29.0202 75.1027 28.9562 74.4474 28.9792 73.9226C29.2762 69.6704 30.6893 65.5334 32.8192 61.8394C34.1314 59.5789 35.6757 57.4614 37.4272 55.5213C38.2822 54.5664 39.1757 53.6269 40.1229 52.7616C40.8243 52.1216 43.3075 50.2016 44.137 49.7203C50.7136 45.9802 53.9366 46.2541 55.657 47.2294C56.7424 47.8438 57.5718 52.3827 54.8838 57.856Z" fill="#7E57C2"/>
<path opacity="0.85" d="M54.8838 57.856C52.9203 61.8624 50.4064 65.449 46.4128 67.5328C46.1159 67.6848 45.79 67.7721 45.4568 67.7889C45.1237 67.8057 44.7907 67.7515 44.48 67.6301C43.8707 67.3741 44.0141 65.9814 44.3418 65.4106C43.433 66.9466 41.8202 68.8768 39.9744 69.8189C39.511 70.057 38.5715 70.1261 38.2566 69.6653C37.9418 69.2045 38.08 68.1114 38.2336 67.6173C37.8701 68.8154 36.6464 71.0246 35.7069 71.8541C35.3613 72.1562 34.9389 72.4403 34.4883 72.4198C33.4643 72.3763 33.5616 70.8685 33.7203 70.4384C32.9523 71.6979 31.8515 73.7101 30.825 74.7648C30.4666 75.1309 29.9622 75.5123 29.4912 75.3075C29.0202 75.1027 28.9562 74.4474 28.9792 73.9226C29.2762 69.6704 30.6893 65.5334 32.8192 61.8394C34.1314 59.5789 35.6757 57.4614 37.4272 55.5213C38.2822 54.5664 39.1757 53.6269 40.1229 52.7616C40.8243 52.1216 43.3075 50.2016 44.137 49.7203C50.7136 45.9802 53.9366 46.2541 55.657 47.2294C56.7424 47.8438 57.5718 52.3827 54.8838 57.856Z" fill="#FAFAFA"/>
<path opacity="0.2" d="M54.8838 57.856C55.0502 57.5181 55.2038 57.1827 55.3421 56.8525C53.7716 59.0393 51.7672 60.879 49.4541 62.2566C48.7578 62.6662 47.8618 63.0246 47.1808 62.5971C46.9775 62.4469 46.8132 62.2503 46.7014 62.0236C46.5896 61.7969 46.5337 61.5468 46.5382 61.2941C46.5491 60.689 46.7101 60.0961 47.0067 59.5686C45.9827 60.8486 44.7616 62.697 43.561 63.9974C43.0771 64.5094 42.3501 64.9728 41.6486 64.8627C40.9472 64.7526 40.8166 64.1664 40.8269 63.4496C40.8941 62.6408 41.1323 61.8555 41.5258 61.1456C40.4608 62.2797 39.4163 63.936 38.2848 65.0752C37.8931 65.4694 37.417 65.8765 36.864 65.8432C36.1651 65.7894 36.096 65.111 36.1421 64.4122C36.1882 63.7133 36.6822 62.8122 36.9766 62.1619C36.3927 62.791 35.8522 63.459 35.3587 64.1613C34.9047 64.7518 34.3983 65.3002 33.8458 65.7997C33.3158 66.2938 32.7091 66.6522 32.0077 66.4704C31.776 66.4052 31.5644 66.2829 31.3922 66.1148C31.22 65.9466 31.0927 65.7379 31.0221 65.5078C29.8997 68.1851 29.2151 71.0254 28.9946 73.92C28.9587 74.4448 29.0125 75.0976 29.5066 75.305C30.0006 75.5123 30.4819 75.1283 30.8403 74.7622C31.8643 73.7075 32.9779 71.6902 33.7357 70.4358C33.5821 70.8659 33.4797 72.3738 34.5037 72.4173C34.9619 72.4378 35.3766 72.1613 35.7222 71.8515C36.6618 71.0221 37.8854 68.8128 38.249 67.6147C38.0954 68.1114 37.9776 69.2352 38.272 69.6627C38.5664 70.0902 39.5264 70.0544 39.9898 69.8163C41.8355 68.8742 43.4483 66.9466 44.3571 65.408C44.0294 65.9789 43.8861 67.3818 44.4954 67.6275C44.8061 67.749 45.139 67.8031 45.4722 67.7863C45.8054 67.7695 46.1312 67.6823 46.4282 67.5302C50.4064 65.4566 52.9203 61.8701 54.8838 57.856Z" fill="#7E57C2"/>
<path d="M53.1328 61.0253C51.8784 62.4461 50.5165 63.7261 48.7526 64.4633C48.2074 64.6937 47.2832 65.0445 46.4486 64.855C46.1116 64.767 45.8146 64.567 45.6062 64.2879C45.3978 64.0088 45.2904 63.6672 45.3018 63.319C44.5338 64.6477 43.2538 66.0864 41.9917 66.5267C41.4643 66.711 40.5683 66.8441 40.0538 66.4166C39.6237 66.0582 39.6134 65.4464 39.6365 64.7398C39.1324 65.812 38.2882 66.6877 37.2352 67.2307C35.9296 67.8835 34.8774 67.4867 35.1437 66.2809C34.6836 67.0301 34.0735 67.676 33.3517 68.1779C32.6067 68.6592 31.4266 68.9254 30.8326 68.2649C30.4307 67.8221 30.4845 67.1181 30.6509 66.4448C29.7407 68.8428 29.1811 71.3596 28.9894 73.9174C28.9536 74.4422 29.0074 75.095 29.5014 75.3024C29.9955 75.5097 30.4768 75.1257 30.8352 74.7597C31.8592 73.7049 32.9728 71.6877 33.7306 70.4333C33.577 70.8633 33.4746 72.3712 34.4986 72.4147C34.9568 72.4352 35.3715 72.1587 35.7171 71.8489C36.6566 71.0195 37.8803 68.8102 38.2438 67.6121C38.0902 68.1088 37.9725 69.2326 38.2669 69.6601C38.5613 70.0877 39.5213 70.0518 39.9846 69.8137C41.8304 68.8717 43.4432 66.944 44.352 65.4054C44.0243 65.9763 43.881 67.3792 44.4902 67.6249C44.8009 67.7464 45.1339 67.8005 45.4671 67.7838C45.8003 67.767 46.1261 67.6797 46.423 67.5277C49.3158 66.0249 51.4714 63.7209 53.1328 61.0253Z" fill="#455A64"/>
<path opacity="0.2" d="M64.9805 23.7414C64.3287 23.3016 63.7788 22.7272 63.3677 22.0569C63.4167 22.5747 63.5925 23.0723 63.8797 23.5059C64.1937 23.9464 64.5966 24.3162 65.0624 24.5913C65.024 24.32 65.001 24.0333 64.9805 23.7414Z" fill="#7E57C2"/>
<path d="M69.3606 20.0755C69.3606 20.2274 69.3156 20.3759 69.2312 20.5022C69.1468 20.6285 69.0269 20.7269 68.8865 20.785C68.7462 20.8432 68.5918 20.8584 68.4428 20.8288C68.2938 20.7991 68.157 20.726 68.0496 20.6186C67.9422 20.5112 67.869 20.3743 67.8394 20.2253C67.8098 20.0764 67.825 19.9219 67.8831 19.7816C67.9412 19.6413 68.0397 19.5213 68.166 19.4369C68.2923 19.3526 68.4407 19.3075 68.5926 19.3075C68.7963 19.3075 68.9917 19.3884 69.1357 19.5325C69.2797 19.6765 69.3606 19.8718 69.3606 20.0755Z" fill="#37474F"/>
<path d="M86.4333 28.8922L88.9933 30.2438C89.0187 30.2537 89.0392 30.2732 89.0503 30.2982C89.0613 30.3232 89.062 30.3515 89.0522 30.377C89.0423 30.4024 89.0228 30.4229 88.9978 30.434C88.9728 30.445 88.9445 30.4457 88.919 30.4358C85.0509 29.3734 70.8736 24.1178 70.5126 24.0128C69.8588 23.7575 69.3183 23.276 68.9894 22.656C68.8128 22.2464 68.9894 22.1952 69.2326 22.1875C70.178 22.1657 71.1018 21.9012 71.9155 21.4195C72.6528 20.9946 73.2237 20.5696 73.4771 19.8835L89.961 29.6115C89.9845 29.6228 90.0028 29.6426 90.0122 29.6669C90.0216 29.6912 90.0214 29.7182 90.0116 29.7424C90.0018 29.7665 89.9832 29.786 89.9595 29.7969C89.9358 29.8078 89.9089 29.8093 89.8841 29.801L86.4333 28.8922Z" fill="#F0997A"/>
<path opacity="0.3" d="M86.4333 28.8922L87.4419 29.5014C88 29.8368 87.3933 29.7395 86.9171 29.5219L71.1194 23.2678L86.4333 28.8922Z" fill="black"/>
<path opacity="0.3" d="M73.6282 22.0723C73.6 22.1747 73.4285 22.2131 73.2442 22.1593C73.0598 22.1056 72.937 21.9827 72.9677 21.8829C72.9984 21.783 73.1674 21.7421 73.3491 21.7958C73.5309 21.8496 73.6563 21.9725 73.6282 22.0723Z" fill="black"/>
<path d="M94.3693 53.2045C94.9811 54.1414 95.5264 57.5744 92.1242 61.0534C88.7219 64.5325 84.352 67.4125 77.9494 67.7248C71.5469 68.0371 65.1853 65.2493 65.8406 60.9382C66.496 56.6272 72.1126 55.5955 74.6394 54.6304C77.1661 53.6653 80.8243 48.8525 85.6166 49.0368C90.409 49.2211 94.3693 53.2045 94.3693 53.2045Z" fill="#7E57C2"/>
<path opacity="0.4" d="M94.3693 53.2045C94.9811 54.1414 95.5264 57.5744 92.1242 61.0534C88.7219 64.5325 84.352 67.4125 77.9494 67.7248C71.5469 68.0371 65.1853 65.2493 65.8406 60.9382C66.496 56.6272 72.1126 55.5955 74.6394 54.6304C77.1661 53.6653 80.8243 48.8525 85.6166 49.0368C90.409 49.2211 94.3693 53.2045 94.3693 53.2045Z" fill="white"/>
<path opacity="0.1" d="M94.3693 53.2045C94.3693 53.2045 94.0339 52.8691 93.4426 52.3853L91.223 53.8291C91.223 53.8291 93.3965 54.272 92.695 56.4531C91.9936 58.6342 88.192 60.6848 86.039 59.1206C83.1744 57.047 82.2784 49.7101 82.2733 49.6845C82.2451 49.751 75.5431 64.832 72.6835 64.5709C68.0909 64.151 66.2528 60.3059 67.5174 57.8995C66.6213 58.6817 66.0279 59.7534 65.8406 60.928C65.1853 65.239 71.5469 68.0269 77.9494 67.7146C84.352 67.4022 88.7219 64.5248 92.1242 61.0432C95.5264 57.5616 94.976 54.1414 94.3693 53.2045Z" fill="black"/>
<path d="M97.024 48.279C97.024 50.0864 96.6042 51.3203 95.232 52.2829C94.208 53.0022 92.8359 54.0749 90.8186 54.2541C88.0768 54.5101 85.6448 53.5603 84.4954 51.3434C84.1086 50.5942 84.0172 49.7272 84.2394 48.9139C84.4391 48.2022 84.9178 47.6186 85.2915 46.9939C85.6653 46.3693 85.8266 45.6474 86.1671 44.9971C86.4874 44.4124 86.9076 43.8882 87.4087 43.4483C87.8737 42.9924 88.4268 42.6361 89.0343 42.4013C89.6437 42.2009 90.282 42.1023 90.9235 42.1094C94.4077 42.1094 97.024 44.8 97.024 48.279Z" fill="#FFA8A7"/>
<path d="M87.721 48.32C87.3933 48.2048 86.9094 48.4915 87.209 48.7142C87.5085 48.937 88.32 49.3722 88.3456 49.1674C88.3159 48.9868 88.2438 48.8158 88.1352 48.6685C88.0266 48.5212 87.8847 48.4018 87.721 48.32Z" fill="#F28F8F"/>
<path d="M87.831 50.601L89.1494 50.8851C89.1022 51.0499 88.9941 51.1906 88.8471 51.2788C88.7 51.3669 88.5249 51.3958 88.3573 51.3597C88.1897 51.3236 88.0421 51.2251 87.9444 51.0842C87.8467 50.9433 87.8062 50.7706 87.831 50.601Z" fill="#B16668"/>
<path d="M97.9584 48.896C97.8703 49.3354 97.7364 49.7644 97.559 50.176C97.1604 51.0816 96.5031 51.8493 95.6698 52.3827C94.8405 52.9565 93.9242 53.393 92.9562 53.6755C93.3363 53.1784 93.5989 52.6016 93.7242 51.9885C93.9802 52.4211 94.8403 52.1907 95.1578 51.8426C95.5494 51.4176 95.7645 50.9005 95.5827 50.4115C95.5121 50.2552 95.3991 50.1218 95.2566 50.0263C95.1141 49.9308 94.9477 49.8772 94.7763 49.8714C94.6027 49.8542 94.4285 49.8966 94.2822 49.9917C94.1133 50.112 93.9213 50.2938 93.6883 50.1837C93.6267 50.1482 93.5751 50.0976 93.5384 50.0367C93.5017 49.9758 93.481 49.9066 93.4784 49.8355C93.4746 49.6941 93.4901 49.5529 93.5245 49.4157C93.5883 49.0217 93.5682 48.6187 93.4656 48.233C93.3466 47.8922 93.2709 47.5379 93.2403 47.1782C93.2646 46.8527 93.2646 46.5258 93.2403 46.2003C93.2278 46.0376 93.1793 45.8797 93.0983 45.738C93.0173 45.5963 92.9058 45.4744 92.7718 45.3811C92.4701 45.2526 92.1403 45.2042 91.8144 45.2403C91.3292 45.2337 90.8489 45.141 90.3962 44.9664C89.7482 44.7389 89.1601 44.3678 88.6758 43.881C88.5731 43.7612 88.4409 43.6703 88.2923 43.6174C88.1437 43.5644 87.9838 43.5511 87.8285 43.5789C87.5354 43.6426 87.2637 43.781 87.04 43.9808C86.7157 44.2512 86.4327 44.5678 86.2003 44.9203C86.4 43.8963 87.1347 42.9722 87.9616 42.3603C88.8883 41.6742 90.3808 41.4131 90.8902 41.3824C92.2912 41.2991 93.6876 41.6085 94.9222 42.2758C96.0729 42.9061 96.9897 43.8906 97.5366 45.0831C98.0836 46.2757 98.2315 47.6128 97.9584 48.896Z" fill="#37474F"/>
<path opacity="0.7" d="M92.2906 50.688C92.2906 51.2 91.7786 51.6121 91.1539 51.6121C90.5293 51.6121 90.0173 51.1974 90.0173 50.688C90.0173 50.1785 90.5293 49.7664 91.1539 49.7664C91.7786 49.7664 92.2906 50.176 92.2906 50.688Z" fill="#F28F8F"/>
<path opacity="0.7" d="M85.8342 48.6221C85.545 49.0419 84.8922 49.0931 84.375 48.7373C83.8579 48.3814 83.6736 47.7517 83.9629 47.3318C84.2522 46.912 84.9075 46.8608 85.4221 47.2192C85.9366 47.5776 86.1235 48.2048 85.8342 48.6221Z" fill="#F28F8F"/>
<path d="M87.3446 46.9811C87.3452 47.1113 87.307 47.2388 87.235 47.3473C87.163 47.4559 87.0605 47.5406 86.9403 47.5908C86.8201 47.641 86.6877 47.6544 86.56 47.6293C86.4322 47.6042 86.3147 47.5417 86.2224 47.4498C86.1302 47.3579 86.0672 47.2407 86.0416 47.113C86.016 46.9853 86.0289 46.8529 86.0786 46.7325C86.1284 46.6121 86.2127 46.5092 86.3209 46.4368C86.4292 46.3644 86.5565 46.3258 86.6867 46.3257C86.773 46.3254 86.8585 46.3421 86.9383 46.3749C87.0181 46.4077 87.0907 46.4559 87.1518 46.5168C87.2129 46.5777 87.2614 46.65 87.2945 46.7297C87.3276 46.8094 87.3446 46.8948 87.3446 46.9811Z" fill="#263238"/>
<path d="M87.1091 46.8813C87.1096 46.9235 87.0975 46.9649 87.0744 47.0003C87.0512 47.0356 87.0181 47.0632 86.9791 47.0796C86.9402 47.096 86.8973 47.1005 86.8558 47.0923C86.8144 47.0842 86.7763 47.0639 86.7464 47.0341C86.7165 47.0042 86.6963 46.9661 86.6881 46.9246C86.68 46.8832 86.6844 46.8403 86.7008 46.8013C86.7172 46.7624 86.7449 46.7292 86.7802 46.7061C86.8155 46.6829 86.857 46.6709 86.8992 46.6714C86.9547 46.672 87.0077 46.6944 87.0469 46.7336C87.0861 46.7728 87.1085 46.8258 87.1091 46.8813Z" fill="#FAFAFA"/>
<path d="M91.392 48.5248C91.3925 48.655 91.3544 48.7825 91.2824 48.891C91.2104 48.9995 91.1078 49.0843 90.9876 49.1344C90.8675 49.1846 90.7351 49.198 90.6073 49.1729C90.4795 49.1478 90.3621 49.0854 90.2698 48.9935C90.1775 48.9016 90.1146 48.7843 90.089 48.6566C90.0634 48.529 90.0763 48.3965 90.126 48.2762C90.1757 48.1558 90.2601 48.0529 90.3683 47.9805C90.4766 47.9081 90.6039 47.8694 90.7341 47.8694C90.9081 47.8694 91.0751 47.9384 91.1984 48.0612C91.3217 48.1841 91.3913 48.3507 91.392 48.5248Z" fill="#263238"/>
<path d="M91.2666 48.4249C91.2671 48.4671 91.255 48.5084 91.232 48.5437C91.209 48.579 91.176 48.6066 91.1372 48.6231C91.0984 48.6395 91.0556 48.6441 91.0142 48.6362C90.9728 48.6283 90.9347 48.6083 90.9048 48.5787C90.8748 48.5491 90.8543 48.5112 90.8459 48.4699C90.8375 48.4286 90.8415 48.3858 90.8575 48.3468C90.8735 48.3078 90.9008 48.2745 90.9358 48.251C90.9708 48.2276 91.0119 48.215 91.0541 48.215C91.11 48.215 91.1637 48.2371 91.2034 48.2764C91.2432 48.3157 91.2659 48.369 91.2666 48.4249Z" fill="#FAFAFA"/>
<path d="M91.0157 42.1453C90.9698 42.0994 90.9279 42.0497 90.8903 41.9968C90.7755 41.7865 90.7265 41.5466 90.7494 41.3082C90.7619 40.7603 90.9306 40.2273 91.2359 39.7722C91.7811 38.9274 92.7923 38.505 93.5783 38.9274C93.7773 39.032 93.9397 39.195 94.0435 39.3945C94.1474 39.594 94.1878 39.8204 94.1594 40.0435C94.135 40.1806 94.0811 40.3108 94.0014 40.425C93.9216 40.5392 93.818 40.6347 93.6977 40.7049C93.5774 40.775 93.4432 40.8181 93.3046 40.8312C93.1659 40.8444 93.0261 40.8271 92.8947 40.7808C92.827 40.763 92.7645 40.729 92.7128 40.6817C92.6611 40.6345 92.6216 40.5753 92.5978 40.5094C92.5619 40.3738 92.6823 40.2048 92.8179 40.2381C92.8751 40.262 92.93 40.2911 92.9818 40.3251C93.0166 40.339 93.054 40.345 93.0914 40.3428C93.1288 40.3407 93.1653 40.3303 93.1983 40.3125C93.2312 40.2946 93.2599 40.2698 93.2822 40.2397C93.3045 40.2096 93.3199 40.175 93.3274 40.1382C93.3411 40.065 93.3308 39.9894 93.2981 39.9225C93.2653 39.8556 93.2119 39.8011 93.1456 39.767C93.0787 39.7342 93.0051 39.7172 92.9306 39.7172C92.856 39.7172 92.7825 39.7342 92.7155 39.767C92.582 39.8354 92.469 39.9378 92.3879 40.064C92.2065 40.3308 92.1208 40.6511 92.1447 40.9728C92.1626 41.1802 92.2061 41.3875 92.2419 41.5923C92.2826 41.7423 92.3374 41.888 92.4058 42.0275C92.3913 42.0951 92.3554 42.1561 92.3034 42.2016C92.1223 42.3587 91.8878 42.4405 91.6483 42.43C91.4088 42.4195 91.1824 42.3176 91.0157 42.1453Z" fill="#37474F"/>
<path d="M90.9389 42.0505C90.8083 41.1545 89.5258 39.5469 88.9267 39.8361C88.3277 40.1254 88.6963 40.7245 88.4634 41.0496C88.2662 41.3286 87.5648 41.6512 87.8054 42.1273C88.0461 42.6035 90.1811 42.7597 90.6931 42.5625L90.9389 42.0505Z" fill="#7E57C2"/>
<path opacity="0.15" d="M90.9184 42.1478C90.7213 41.792 90.1504 41.0752 90.0224 41.1622C89.8944 41.2493 90.4934 41.9968 90.4934 41.9968C90.4934 41.9968 89.6282 41.8662 89.6333 42.0685C89.6384 42.2707 90.8211 42.2963 90.8211 42.2963L90.9184 42.1478Z" fill="black"/>
<path d="M91.6838 42.2989C92.3622 41.6973 94.377 41.2928 94.6509 41.897C94.9248 42.5011 94.2541 42.7264 94.2234 43.1258C94.1952 43.4662 94.5357 44.1907 94.0339 44.3725C93.5322 44.5542 91.9142 43.4458 91.543 42.8365L91.6838 42.2989Z" fill="#7E57C2"/>
<path opacity="0.15" d="M91.7325 42.3859C92.055 42.2605 92.951 42.0582 92.9562 42.1939C92.9613 42.3296 91.8963 42.5242 91.8963 42.5242C91.8963 42.5242 92.7309 42.9978 92.6259 43.1514C92.521 43.305 91.7914 42.8211 91.625 42.519L91.7325 42.3859Z" fill="black"/>
<path d="M91.4201 41.9251C91.0336 41.833 90.8774 41.8586 90.7136 42.1811C90.5497 42.5037 90.5242 42.7494 90.9389 42.903C91.3536 43.0566 91.5456 43.0592 91.6147 42.9594C91.6232 42.6876 91.7027 42.4229 91.8451 42.1914C91.7385 42.0562 91.5883 41.9621 91.4201 41.9251Z" fill="#7E57C2"/>
<path opacity="0.15" d="M91.648 42.665C91.6122 42.8109 91.5584 42.8544 91.4714 42.8672C91.2775 42.8606 91.0879 42.808 90.9184 42.7136C90.6752 42.5958 90.6342 42.4576 90.6317 42.3629C90.56 42.5881 90.6138 42.7725 90.9389 42.8928C91.3536 43.0438 91.5456 43.049 91.6147 42.9491C91.6172 42.8536 91.6284 42.7585 91.648 42.665Z" fill="black"/>
<path d="M88.4864 64.151L88.4659 64.1843C85.375 66.3536 81.7229 67.5831 77.9494 67.7248C75.8029 67.8373 73.6527 67.5898 71.5878 66.9926C70.1158 64.1357 69.8189 58.8518 70.871 51.7171C72.4454 41.0368 78.9427 26.1427 78.9427 26.1427L80.8755 26.8518C80.8755 26.8518 81.4131 37.5066 81.8304 44.8538C81.9149 46.336 82.0557 47.9872 82.263 49.6845C83.0873 56.3994 84.951 63.8157 88.4864 64.151Z" fill="#7E57C2"/>
<path d="M77.0893 58.4243L76.3213 58.0966C74.4883 57.3286 74.0327 56.3277 73.9226 55.936C73.8709 55.7501 73.8563 55.5558 73.8798 55.3643C73.9034 55.1727 73.9644 54.9877 74.0595 54.8198C74.1547 54.6519 74.282 54.5045 74.4342 54.3859C74.5864 54.2672 74.7605 54.1798 74.9466 54.1286C75.6403 53.9341 76.3853 54.4742 76.6874 55.1014C76.8231 54.4179 77.4093 53.7088 78.1312 53.7267C78.3236 53.7304 78.5134 53.772 78.6897 53.8492C78.866 53.9264 79.0253 54.0376 79.1585 54.1765C79.2917 54.3154 79.3962 54.4792 79.4659 54.6586C79.5356 54.838 79.5692 55.0294 79.5648 55.2218C79.5648 55.6314 79.3651 56.7091 77.7728 57.9123L77.0893 58.4243Z" fill="#FAFAFA"/>
<path opacity="0.1" d="M77.9494 67.7248C81.7229 67.583 85.375 66.3535 88.4659 64.1843C88.4659 64.1843 82.0378 66.7443 76.8947 64.151C71.7517 61.5577 70.6688 53.1865 71.1168 50.2169C71.0246 50.7289 70.9393 51.229 70.8608 51.7171C69.8086 58.8518 70.1056 64.1357 71.5776 66.9926C73.6457 67.5909 75.7995 67.8384 77.9494 67.7248Z" fill="black"/>
<path opacity="0.1" d="M79.4675 26.3347C78.5024 28.8538 75.7299 37.5091 75.4944 39.2832C75.4944 39.2832 79.0784 28.1856 79.7133 26.903L80.1741 42.1094V26.5933L79.4675 26.3347Z" fill="black"/>
<path d="M95.9002 33.4054L95.2883 33.1494C93.8471 32.5453 93.4963 31.7594 93.4016 31.4522C93.3605 31.3057 93.3487 31.1526 93.367 31.0017C93.3853 30.8507 93.4333 30.7048 93.5083 30.5725C93.5833 30.4402 93.6837 30.324 93.8038 30.2307C93.9239 30.1374 94.0613 30.0687 94.208 30.0288C94.7559 29.8752 95.3395 30.2848 95.5776 30.7968C95.6851 30.2592 96.1459 29.7037 96.7117 29.7165C96.863 29.7195 97.0122 29.7522 97.1508 29.8129C97.2894 29.8736 97.4148 29.961 97.5196 30.0701C97.6244 30.1792 97.7068 30.3079 97.7618 30.4489C97.8169 30.5898 97.8437 30.7402 97.8407 30.8915C97.8407 31.2141 97.6845 32.0614 96.4378 33.0086L95.9002 33.4054Z" fill="#7E57C2"/>
<path d="M100.465 29.8957L99.8963 29.2582C98.5626 27.7658 98.5805 26.6624 98.6496 26.2579C98.716 25.8725 98.9324 25.5292 99.2516 25.3031C99.5707 25.0771 99.9664 24.9868 100.352 25.0522C101.069 25.175 101.512 25.9891 101.517 26.6906C101.937 26.1274 102.776 25.7357 103.424 26.0634C103.597 26.1501 103.752 26.2702 103.879 26.4168C104.006 26.5633 104.103 26.7335 104.164 26.9176C104.225 27.1016 104.249 27.2959 104.235 27.4894C104.221 27.6828 104.169 27.8715 104.082 28.0448C103.898 28.4109 103.258 29.3248 101.297 29.719L100.465 29.8957Z" fill="#7E57C2"/>
</svg>
