<svg width="24" height="25" viewBox="0 0 24 25" fill="none" xmlns="http://www.w3.org/2000/svg">
<path d="M9 12.8057H9.01M15 12.8057H15.01M10 16.8057C10.5 17.1057 11.2 17.3057 12 17.3057C12.8 17.3057 13.5 17.1057 14 16.8057M19 7.10566C19.906 8.24133 20.5236 9.57944 20.8 11.0057C21.1381 11.1694 21.4233 11.4251 21.6229 11.7435C21.8224 12.0618 21.9282 12.43 21.9282 12.8057C21.9282 13.1814 21.8224 13.5495 21.6229 13.8678C21.4233 14.1862 21.1381 14.4419 20.8 14.6057C20.3683 16.6191 19.2592 18.4237 17.6577 19.7182C16.0562 21.0127 14.0592 21.7189 12 21.7189C9.94076 21.7189 7.94379 21.0127 6.34231 19.7182C4.74084 18.4237 3.63171 16.6191 3.2 14.6057C2.86186 14.4419 2.57669 14.1862 2.37715 13.8678C2.17761 13.5495 2.07178 13.1814 2.07178 12.8057C2.07178 12.43 2.17761 12.0618 2.37715 11.7435C2.57669 11.4251 2.86186 11.1694 3.2 11.0057C3.61427 8.97617 4.7159 7.15168 6.31903 5.84003C7.92216 4.52838 9.92866 3.80985 12 3.80566C14 3.80566 15.5 4.90566 15.5 6.30566C15.5 7.70566 14.6 8.80566 13.5 8.80566C12.7 8.80566 12 8.40566 12 7.80566" stroke="#EC407A" stroke-width="2" stroke-linecap="round" stroke-linejoin="round"/>
</svg>
