<svg width="24" height="25" viewBox="0 0 24 25" fill="none" xmlns="http://www.w3.org/2000/svg">
<path d="M4 20.3057V5.30566C4 4.64262 4.26339 4.00674 4.73223 3.5379C5.20107 3.06906 5.83696 2.80566 6.5 2.80566H20V22.8057H6.5C5.83696 22.8057 5.20107 22.5423 4.73223 22.0734C4.26339 21.6046 4 20.9687 4 20.3057ZM4 20.3057C4 19.6426 4.26339 19.0067 4.73223 18.5379C5.20107 18.0691 5.83696 17.8057 6.5 17.8057H20M16 9.00566C16 7.80566 15 6.80566 13.8 6.80566C13 6.80566 12.4 7.10566 12 7.70566C11.6 7.10566 11 6.80566 10.2 6.80566C9 6.80566 8 7.80566 8 9.00566C8 9.60566 8.3 10.2057 8.7 10.6057C10 11.9057 12 13.8057 12 13.8057C12 13.8057 14 11.9057 15.3 10.7057C15.7 10.3057 16 9.70566 16 9.00566Z" stroke="#EC407A" stroke-width="2" stroke-linecap="round" stroke-linejoin="round"/>
</svg>
