<svg width="16" height="16" viewBox="0 0 16 16" fill="none" xmlns="http://www.w3.org/2000/svg">
<path d="M7.99992 7.33334V10M9.33325 8.66668H6.66659M10.6666 4.00001V2.66668C10.6666 2.31305 10.5261 1.97392 10.2761 1.72387C10.026 1.47382 9.68687 1.33334 9.33325 1.33334H6.66659C6.31296 1.33334 5.97382 1.47382 5.72378 1.72387C5.47373 1.97392 5.33325 2.31305 5.33325 2.66668V4.00001M11.9999 4.00001V13.3333M3.99992 4.00001V13.3333M2.66659 4.00001H13.3333C14.0696 4.00001 14.6666 4.59696 14.6666 5.33334V12C14.6666 12.7364 14.0696 13.3333 13.3333 13.3333H2.66659C1.93021 13.3333 1.33325 12.7364 1.33325 12V5.33334C1.33325 4.59696 1.93021 4.00001 2.66659 4.00001Z" stroke="#EC407A" stroke-width="1.33333" stroke-linecap="round" stroke-linejoin="round"/>
</svg>
