<svg width="23" height="22" viewBox="0 0 23 22" fill="none" xmlns="http://www.w3.org/2000/svg">
<path d="M4.3418 21.1836C4.00326 21.1836 3.74609 21.1022 3.57031 20.9395C3.39453 20.7832 3.30339 20.5846 3.29688 20.3438C3.29036 20.1094 3.37174 19.8783 3.54102 19.6504C3.69076 19.4616 3.86979 19.2174 4.07812 18.918C4.28646 18.625 4.49479 18.3158 4.70312 17.9902C4.91146 17.6647 5.09049 17.3587 5.24023 17.0723C4.21159 16.597 3.3099 15.9785 2.53516 15.2168C1.76693 14.4551 1.16797 13.5957 0.738281 12.6387C0.315104 11.6816 0.103516 10.6693 0.103516 9.60156C0.103516 8.37109 0.386719 7.21875 0.953125 6.14453C1.52604 5.07031 2.31706 4.12956 3.32617 3.32227C4.3418 2.50846 5.52018 1.8737 6.86133 1.41797C8.20247 0.955729 9.64128 0.724609 11.1777 0.724609C12.7142 0.724609 14.153 0.955729 15.4941 1.41797C16.8353 1.8737 18.0104 2.50846 19.0195 3.32227C20.0352 4.12956 20.8262 5.07031 21.3926 6.14453C21.9655 7.21875 22.252 8.37109 22.252 9.60156C22.252 10.6237 22.0566 11.5905 21.666 12.502C21.2819 13.4069 20.7318 14.2305 20.0156 14.9727C19.306 15.7148 18.4564 16.3529 17.4668 16.8867C16.4837 17.4141 15.39 17.8145 14.1855 18.0879C12.9811 18.3613 11.6986 18.4785 10.3379 18.4395C9.68034 18.9147 8.9707 19.3607 8.20898 19.7773C7.44727 20.194 6.72135 20.5326 6.03125 20.793C5.34115 21.0534 4.77799 21.1836 4.3418 21.1836ZM5.36719 19.5625C5.66016 19.4388 6.03125 19.25 6.48047 18.9961C6.92969 18.7422 7.39518 18.459 7.87695 18.1465C8.35872 17.8405 8.79818 17.5443 9.19531 17.2578C9.3776 17.1146 9.55339 17.0104 9.72266 16.9453C9.89844 16.8737 10.0872 16.8379 10.2891 16.8379C10.4844 16.8444 10.6569 16.8509 10.8066 16.8574C10.9564 16.8574 11.0801 16.8574 11.1777 16.8574C12.4928 16.8574 13.7233 16.6686 14.8691 16.291C16.015 15.9134 17.0176 15.3926 17.877 14.7285C18.7428 14.0645 19.4199 13.293 19.9082 12.4141C20.3965 11.5352 20.6406 10.5977 20.6406 9.60156C20.6406 8.59896 20.3965 7.66146 19.9082 6.78906C19.4199 5.91016 18.7428 5.13867 17.877 4.47461C17.0176 3.80404 16.015 3.27995 14.8691 2.90234C13.7233 2.52474 12.4928 2.33594 11.1777 2.33594C9.86263 2.33594 8.63216 2.52474 7.48633 2.90234C6.34049 3.27995 5.33464 3.80404 4.46875 4.47461C3.60938 5.13867 2.93555 5.91016 2.44727 6.78906C1.96549 7.66146 1.72461 8.59896 1.72461 9.60156C1.72461 10.4674 1.91341 11.291 2.29102 12.0723C2.66862 12.8535 3.21549 13.5697 3.93164 14.2207C4.6543 14.8652 5.52669 15.4251 6.54883 15.9004C6.86133 16.0501 7.04362 16.2324 7.0957 16.4473C7.14779 16.6621 7.10547 16.8965 6.96875 17.1504C6.79948 17.4629 6.54883 17.8405 6.2168 18.2832C5.88477 18.7324 5.58203 19.1263 5.30859 19.4648C5.28255 19.4974 5.27604 19.5234 5.28906 19.543C5.30208 19.569 5.32812 19.5755 5.36719 19.5625Z" fill="#757575"/>
</svg>
