<svg width="100" height="112" viewBox="0 0 100 112" fill="none" xmlns="http://www.w3.org/2000/svg">
<g clip-path="url(#clip0_84_1184)">
<path d="M87.1345 58.6687C87.2214 58.1047 87.1959 57.5291 87.0594 56.9751C86.923 56.421 86.6784 55.8993 86.3397 55.4401C86.0009 54.9809 85.5747 54.5932 85.0856 54.2993C84.5965 54.0054 84.0541 53.8111 83.4896 53.7276C83.3854 53.6999 83.2746 53.7128 83.1794 53.7636C83.126 53.817 83.0873 53.8833 83.0669 53.9561C83.0465 54.0288 83.0452 54.1056 83.0631 54.179C83.167 55.2793 83.6167 56.3184 84.3476 57.1474C85.0785 57.9763 86.0532 58.5525 87.1318 58.7933" fill="#B39DDB"/>
<path d="M81.0717 66.6536C82.1629 68.9026 83.7333 70.4204 85.6749 70.4924C86.0654 70.5063 86.359 70.2515 86.7302 70.2293C86.9465 70.2785 87.1552 70.3568 87.3506 70.462C87.4527 70.5076 87.5628 70.533 87.6746 70.5367C89.6827 70.4287 91.3943 69.0162 92.5465 66.6592C94.1529 63.3494 93.6544 59.7959 91.4386 58.7157C91.1472 58.5702 90.8431 58.4516 90.5302 58.3612C90.1694 58.2631 89.7959 58.2201 89.4223 58.2338C88.5583 58.2904 87.7086 58.4829 86.9046 58.8043L86.7966 58.8431C84.9963 58.0482 83.5561 58.0427 82.1629 58.7157C79.9583 59.7903 79.4653 63.3438 81.0717 66.6536Z" fill="#EF5350"/>
<path d="M81.1049 63.3024C80.9988 63.0958 80.9366 62.8695 80.9221 62.6377C80.8538 62.076 80.9213 61.5062 81.1187 60.9759C81.3146 60.4483 81.6314 59.974 82.0438 59.591C82.2063 59.4245 82.4015 59.2935 82.6171 59.2061C82.6337 59.2282 82.4122 59.3695 82.1213 59.6686C81.7431 60.0571 81.4506 60.5206 81.2626 61.0291C81.0747 61.5377 80.9955 62.08 81.0301 62.6211C81.0633 63.0421 81.1381 63.2941 81.1049 63.3024Z" fill="#FAFAFA"/>
<path d="M81.5176 64.8756C81.476 64.8756 81.404 64.7288 81.3597 64.5266C81.3154 64.3244 81.3071 64.1527 81.3597 64.1444C81.4123 64.1361 81.4733 64.2912 81.5176 64.4933C81.5619 64.6955 81.5591 64.8645 81.5176 64.8756Z" fill="#FAFAFA"/>
<path d="M91.7128 53.2568C91.7266 53.2845 91.3001 53.4424 90.6742 53.8108C90.31 54.031 89.9628 54.2782 89.6355 54.5503C89.2403 54.8881 88.8743 55.2587 88.5415 55.6582C88.2152 56.0637 87.9243 56.4964 87.6718 56.9516C87.4695 57.3258 87.2954 57.7147 87.1511 58.1149C86.9101 58.8018 86.8381 59.2505 86.8077 59.2449C86.8059 59.1385 86.818 59.0324 86.8437 58.9292C86.8606 58.8051 86.8846 58.6821 86.9157 58.5608C86.9545 58.4195 86.9877 58.2561 87.0486 58.0816C87.1802 57.6693 87.347 57.269 87.5472 56.8851C87.7974 56.4178 88.0904 55.9746 88.4224 55.5612C88.7616 55.1574 89.1381 54.7865 89.5469 54.4533C89.8828 54.1799 90.2424 53.9371 90.6215 53.7277C90.7794 53.6335 90.9317 53.567 91.0647 53.5033C91.1766 53.4487 91.2913 53.3997 91.4081 53.3565C91.5051 53.3107 91.6075 53.2772 91.7128 53.2568Z" fill="#263238"/>
<path d="M79.2991 45.2883C79.8475 46.0312 80.3569 46.8022 80.8252 47.5982C81.3359 48.3687 81.8055 49.1656 82.2322 49.9857C81.6826 49.2419 81.1723 48.47 80.7033 47.673C80.1945 46.9028 79.7258 46.1068 79.2991 45.2883Z" fill="#263238"/>
<path d="M77.7813 41.757C77.7813 41.7155 77.9946 41.757 78.0749 41.9897C78.1552 42.2223 78.0389 42.3802 78.0057 42.3553C77.9724 42.3303 78.0057 42.1946 77.9392 42.0395C77.8727 41.8844 77.7564 41.7958 77.7813 41.757Z" fill="#263238"/>
<path d="M83.8137 38.5663C83.8524 38.5663 84.1986 40.9344 84.5892 43.8675C84.9797 46.8006 85.2594 49.1853 85.2207 49.1909C85.1819 49.1964 84.8329 46.8228 84.4451 43.8869C84.0574 40.9511 83.7721 38.5691 83.8137 38.5663Z" fill="#263238"/>
<path d="M92.588 43.463C92.624 43.4796 92.0563 44.906 91.3167 46.6509C90.5772 48.3958 89.9513 49.7945 89.9125 49.7807C89.8737 49.7668 90.4443 48.3377 91.1838 46.5927C91.9233 44.8478 92.552 43.4491 92.588 43.463Z" fill="#263238"/>
<path d="M93.7596 40.9429C93.7956 40.9595 93.7596 41.1063 93.7042 41.2697C93.6488 41.4331 93.5491 41.5467 93.5131 41.5467C93.4771 41.5467 93.5131 41.3861 93.5685 41.2226C93.6239 41.0592 93.7209 40.9291 93.7596 40.9429Z" fill="#263238"/>
<path d="M99.9998 47.061C100.022 47.0942 98.4183 48.2215 96.4213 49.5814C94.4244 50.9413 92.7847 52.016 92.7626 51.9855C92.7404 51.955 94.3413 50.8222 96.341 49.4623C98.3407 48.1024 99.9776 47.0278 99.9998 47.061Z" fill="#263238"/>
<path d="M97.0002 53.4784C96.4878 53.5643 95.9687 53.6041 95.4491 53.5975C94.9306 53.6375 94.4094 53.6282 93.8926 53.5698C94.405 53.484 94.9241 53.4451 95.4436 53.4535C95.9621 53.4134 96.4832 53.4217 97.0002 53.4784Z" fill="#263238"/>
<path d="M80.3986 52.5284C80.3764 52.5616 78.7368 51.523 76.7287 50.2074C74.7207 48.8918 73.1143 47.7977 73.1281 47.7645C73.142 47.7313 74.79 48.7699 76.798 50.0855C78.806 51.4011 80.4207 52.4951 80.3986 52.5284Z" fill="#263238"/>
<path d="M78.5956 54.5613C78.0923 54.5769 77.5887 54.5445 77.0916 54.4643C76.5895 54.4303 76.0915 54.3497 75.6043 54.2233C76.1076 54.2076 76.6112 54.2401 77.1083 54.3203C77.6105 54.3539 78.1084 54.4346 78.5956 54.5613Z" fill="#263238"/>
<path d="M20.7255 63.0421C20.5344 62.7652 20.2575 62.5076 20.1854 62.1724C20.1698 61.8899 20.1763 61.6065 20.2048 61.3249C20.1906 61.1697 20.1459 61.0189 20.0733 60.881C20.0007 60.7432 19.9016 60.6209 19.7817 60.5214C19.6618 60.4218 19.5235 60.3469 19.3747 60.3008C19.2258 60.2548 19.0693 60.2386 18.9142 60.2531C19.3047 59.893 19.2299 59.195 18.8394 58.835C18.6327 58.6661 18.3859 58.5534 18.123 58.5078C17.86 58.4621 17.5897 58.4852 17.3382 58.5746C17.6144 58.2143 17.779 57.7811 17.8117 57.3283C17.8444 56.8755 17.7438 56.4231 17.5222 56.0268C17.3007 55.6306 16.968 55.308 16.5651 55.0987C16.1623 54.8894 15.7069 54.8028 15.2554 54.8494C15.3674 55.1228 15.3956 55.4233 15.3365 55.7128C15.2773 56.0023 15.1334 56.2677 14.923 56.4752C14.5486 56.781 14.0991 56.9808 13.6213 57.054C13.1432 57.1241 12.6821 57.2818 12.2613 57.5194C12.0544 57.6424 11.8902 57.8261 11.7911 58.0456C11.692 58.2651 11.6628 58.5097 11.7074 58.7463C10.9125 58.9568 10.0871 59.2199 9.52489 59.821C8.96264 60.422 8.79369 61.4634 9.3781 62.0367C9.06243 62.1446 8.78347 62.3391 8.57308 62.5979C8.3627 62.8568 8.22938 63.1697 8.18836 63.5007C8.14734 63.8318 8.20027 64.1677 8.34111 64.4701C8.48195 64.7725 8.70501 65.0292 8.9848 65.2108L19.6315 66.8726C20.2168 66.4249 20.668 65.8252 20.936 65.1388C21.0637 64.7965 21.1111 64.4295 21.0746 64.066C21.0381 63.7025 20.9187 63.3522 20.7255 63.0421Z" fill="#EF5350"/>
<path d="M9.24806 70.4622L7.68872 64.1584L8.46977 64.5129L9.24806 63.7734L9.88509 64.5129L10.8185 63.7734L11.6438 64.5129L12.6326 63.7734L13.5134 64.5129L14.8318 63.7734L15.5463 64.5129L16.7539 63.7734L17.4131 64.5129L18.7343 63.7734L19.5125 64.5129L20.7091 63.7734L21.1938 64.5129L22.3044 64.103L20.1053 71.2267L9.24806 70.4622Z" fill="#EF5350"/>
<path opacity="0.3" d="M9.24806 70.4622L7.68872 64.1584L8.46977 64.5129L9.24806 63.7734L9.88509 64.5129L10.8185 63.7734L11.6438 64.5129L12.6326 63.7734L13.5134 64.5129L14.8318 63.7734L15.5463 64.5129L16.7539 63.7734L17.4131 64.5129L18.7343 63.7734L19.5125 64.5129L20.7091 63.7734L21.1938 64.5129L22.3044 64.103L20.1053 71.2267L9.24806 70.4622Z" fill="black"/>
<path d="M9.51936 70.5038C9.48058 70.5038 9.21469 69.1744 8.92388 67.5208C8.63306 65.8673 8.4281 64.5185 8.46965 64.513C8.51119 64.5074 8.77431 65.8396 9.06513 67.4959C9.35595 69.1522 9.55814 70.4955 9.51936 70.5038Z" fill="#263238"/>
<path d="M10.4306 70.5479C10.3513 70.2586 10.2976 69.963 10.27 69.6643C10.1952 69.1104 10.1066 68.357 10.0346 67.5151C9.96255 66.6731 9.92378 65.9086 9.90993 65.3547C9.88273 65.0571 9.88273 64.7577 9.90993 64.4601C9.96229 64.7538 9.99284 65.051 10.0013 65.3492C10.0456 65.9446 10.1038 66.6842 10.1675 67.504C10.2312 68.3238 10.3088 69.0605 10.3614 69.6533C10.4057 69.9494 10.4288 70.2484 10.4306 70.5479Z" fill="#263238"/>
<path d="M11.6188 70.6283C11.5857 70.3332 11.5737 70.0361 11.5828 69.7393C11.5828 69.1466 11.5607 68.4098 11.5468 67.5955C11.533 66.7812 11.5468 65.9974 11.5468 65.4462C11.5428 65.1494 11.565 64.8528 11.6133 64.5599C11.6465 64.8551 11.6585 65.1522 11.6493 65.449C11.6493 66.039 11.6714 66.7757 11.6853 67.5928C11.6991 68.4098 11.6853 69.1909 11.6853 69.7393C11.6892 70.037 11.667 70.3345 11.6188 70.6283Z" fill="#263238"/>
<path d="M12.9041 70.7778C12.8653 70.7778 12.9539 69.393 13.1035 67.6951C13.253 65.9973 13.4054 64.6208 13.4469 64.6235C13.4885 64.6263 13.3971 66.0084 13.2475 67.709C13.0979 69.4096 12.9428 70.7833 12.9041 70.7778Z" fill="#263238"/>
<path d="M14.3831 70.7777C14.3443 70.7777 14.5437 69.3679 14.8317 67.6396C15.1198 65.9114 15.3857 64.521 15.4217 64.5265C15.4577 64.532 15.261 65.939 14.973 67.6646C14.685 69.3901 14.4218 70.786 14.3831 70.7777Z" fill="#263238"/>
<path d="M15.6266 70.8777C15.5878 70.8777 15.9728 69.4209 16.4852 67.6483C16.9976 65.8757 17.4407 64.4465 17.4795 64.4576C17.5183 64.4687 17.125 65.9144 16.6237 67.6926C16.1224 69.4707 15.6654 70.8888 15.6266 70.8777Z" fill="#263238"/>
<path d="M17.0918 71.0162C17.0557 71.0023 17.5681 69.5372 18.2384 67.7452C18.9087 65.9532 19.482 64.5102 19.518 64.524C19.554 64.5379 19.0444 66.003 18.3741 67.795C17.7039 69.587 17.125 71.03 17.0918 71.0162Z" fill="#263238"/>
<path d="M18.5763 71.0162C18.5403 70.9996 19.0998 69.5593 19.8282 67.7951C20.5566 66.0308 21.1743 64.6127 21.213 64.6293C21.2518 64.6459 20.6923 66.0862 19.9639 67.8505C19.2355 69.6147 18.6151 71.0301 18.5763 71.0162Z" fill="#263238"/>
<g opacity="0.6">
<path d="M18.9225 60.2531C19.313 59.893 19.2382 59.195 18.8477 58.835C18.641 58.6661 18.3943 58.5534 18.1313 58.5078C17.8683 58.4622 17.598 58.4852 17.3465 58.5746C17.6227 58.2143 17.7873 57.7811 17.82 57.3283C17.8527 56.8755 17.7521 56.4231 17.5305 56.0268C17.309 55.6306 16.9763 55.308 16.5734 55.0987C16.1706 54.8894 15.7153 54.8028 15.2637 54.8494C15.3757 55.1228 15.404 55.4233 15.3448 55.7128C15.2856 56.0023 15.1417 56.2677 14.9313 56.4752C14.5569 56.781 14.1074 56.9808 13.6296 57.0541C13.1515 57.1241 12.6904 57.2818 12.2697 57.5194C12.0627 57.6424 11.8985 57.8261 11.7994 58.0456C11.7003 58.2651 11.6711 58.5097 11.7157 58.7463C11.2776 58.8527 10.8502 58.9991 10.4389 59.1839C10.5075 59.4576 10.6551 59.705 10.8635 59.8951C11.0719 60.0853 11.3317 60.2098 11.6105 60.2531C11.9151 60.3058 12.2275 60.292 12.5263 60.2126C12.8251 60.1332 13.1032 59.9902 13.3415 59.7933C13.3415 59.7933 12.6048 61.5382 14.3913 61.9813C14.8774 62.1212 15.394 62.114 15.876 61.9608C16.3581 61.8075 16.784 61.5149 17.1 61.12C17.1 61.12 18.6261 61.5243 18.9225 60.2531Z" fill="white"/>
</g>
<path d="M13.4164 58.3501H13.3167C13.2442 58.3626 13.1791 58.4018 13.1341 58.46C13.0892 58.5182 13.0677 58.5912 13.074 58.6644C13.0803 58.7377 13.1138 58.806 13.168 58.8557C13.2221 58.9054 13.293 58.933 13.3665 58.933C13.4401 58.933 13.5109 58.9054 13.5651 58.8557C13.6192 58.806 13.6528 58.7377 13.659 58.6644C13.6653 58.5912 13.6439 58.5182 13.5989 58.46C13.554 58.4018 13.4888 58.3626 13.4164 58.3501Z" fill="#EF5350"/>
<path d="M16.4631 59.4304H16.3634C16.2902 59.4429 16.2243 59.4824 16.1789 59.5412C16.1334 59.5999 16.1117 59.6736 16.1179 59.7476C16.1242 59.8216 16.158 59.8905 16.2127 59.9408C16.2674 59.991 16.339 60.0189 16.4132 60.0189C16.4875 60.0189 16.5591 59.991 16.6138 59.9408C16.6684 59.8905 16.7023 59.8216 16.7085 59.7476C16.7148 59.6736 16.6931 59.5999 16.6476 59.5412C16.6022 59.4824 16.5363 59.4429 16.4631 59.4304Z" fill="#EF5350"/>
<path d="M15.4633 57.8351H15.3635C15.2911 57.8476 15.2259 57.8869 15.181 57.9451C15.1361 58.0033 15.1146 58.0762 15.1209 58.1495C15.1271 58.2227 15.1607 58.291 15.2148 58.3407C15.269 58.3905 15.3399 58.4181 15.4134 58.4181C15.4869 58.4181 15.5578 58.3905 15.612 58.3407C15.6661 58.291 15.6997 58.2227 15.7059 58.1495C15.7122 58.0762 15.6907 58.0033 15.6458 57.9451C15.6009 57.8869 15.5357 57.8476 15.4633 57.8351Z" fill="#EF5350"/>
<path d="M14.7043 59.9208H14.6074C14.534 59.9329 14.4679 59.9723 14.4221 60.0309C14.3764 60.0896 14.3544 60.1633 14.3605 60.2375C14.3666 60.3116 14.4004 60.3807 14.4551 60.4311C14.5098 60.4815 14.5815 60.5095 14.6559 60.5095C14.7302 60.5095 14.8019 60.4815 14.8566 60.4311C14.9113 60.3807 14.9451 60.3116 14.9512 60.2375C14.9573 60.1633 14.9353 60.0896 14.8896 60.0309C14.8438 59.9723 14.7777 59.9329 14.7043 59.9208Z" fill="#B39DDB"/>
<path d="M17.0253 56.7355H16.9256C16.8516 56.748 16.7851 56.7879 16.7391 56.8471C16.6931 56.9064 16.6711 56.9808 16.6774 57.0555C16.6837 57.1302 16.7178 57.1999 16.773 57.2507C16.8282 57.3014 16.9005 57.3296 16.9755 57.3296C17.0505 57.3296 17.1227 57.3014 17.1779 57.2507C17.2331 57.1999 17.2673 57.1302 17.2735 57.0555C17.2798 56.9808 17.2578 56.9064 17.2118 56.8471C17.1658 56.7879 17.0993 56.748 17.0253 56.7355Z" fill="#B39DDB"/>
<path d="M18.1498 59.641H18.0501C17.9776 59.6535 17.9125 59.6927 17.8675 59.7509C17.8226 59.8091 17.8011 59.8821 17.8074 59.9553C17.8137 60.0286 17.8472 60.0969 17.9014 60.1466C17.9555 60.1963 18.0264 60.2239 18.0999 60.2239C18.1735 60.2239 18.2443 60.1963 18.2985 60.1466C18.3526 60.0969 18.3862 60.0286 18.3924 59.9553C18.3987 59.8821 18.3773 59.8091 18.3323 59.7509C18.2874 59.6927 18.2222 59.6535 18.1498 59.641Z" fill="#B39DDB"/>
<path d="M11.3612 59.2974C11.3612 59.3224 11.148 59.3113 10.8294 59.3999C10.4166 59.5154 10.0511 59.7588 9.78527 60.0951C9.52828 60.4378 9.38494 60.8523 9.37536 61.2805C9.37536 61.6129 9.43075 61.8151 9.40859 61.8206C9.31391 61.6578 9.26689 61.4716 9.27288 61.2833C9.25014 60.8238 9.3915 60.3713 9.67171 60.0065C9.95627 59.6458 10.358 59.396 10.8073 59.3002C10.9881 59.2476 11.1799 59.2466 11.3612 59.2974Z" fill="white"/>
<path d="M15.6875 55.5056C15.7407 55.5611 15.7796 55.6285 15.8011 55.7023C15.8745 55.8994 15.8982 56.1115 15.8703 56.3199C15.8322 56.6349 15.6887 56.9277 15.4632 57.1508C15.172 57.4038 14.8065 57.5554 14.4218 57.5829C14.0257 57.6355 13.6518 57.63 13.3139 57.6826C13.0233 57.7144 12.7462 57.8224 12.5107 57.9956C12.3541 58.1138 12.2318 58.2715 12.1562 58.4526C12.1063 58.5827 12.1035 58.6631 12.0897 58.6631C12.0674 58.589 12.0674 58.51 12.0897 58.4359C12.1497 58.232 12.2693 58.0507 12.4331 57.9153C12.6769 57.7187 12.9702 57.5932 13.2807 57.5524C13.6213 57.4887 14.0008 57.4915 14.3885 57.4416C14.7438 57.415 15.0823 57.2797 15.3579 57.0539C15.5678 56.8539 15.7076 56.5917 15.7568 56.3061C15.7983 56.0376 15.7745 55.763 15.6875 55.5056Z" fill="white"/>
<path d="M15.1446 61.3692C15.1446 61.3831 15.02 61.4717 14.7707 61.4828C14.6068 61.4896 14.4435 61.4576 14.2942 61.3893C14.145 61.321 14.014 61.2185 13.9119 61.0899C13.8098 60.9614 13.7396 60.8106 13.7069 60.6497C13.6742 60.4889 13.68 60.3226 13.7238 60.1644C13.7903 59.9235 13.9094 59.8127 13.9204 59.8238C13.9315 59.8348 13.8595 59.9622 13.8235 60.1838C13.7963 60.326 13.8001 60.4725 13.8346 60.6131C13.869 60.7537 13.9334 60.8853 14.0233 60.9988C14.1132 61.1124 14.2265 61.2052 14.3554 61.271C14.4844 61.3369 14.6261 61.3741 14.7707 61.3803C14.9978 61.3969 15.1363 61.3471 15.1446 61.3692Z" fill="white"/>
<path d="M17.6789 60.8265C17.6789 60.8625 17.4324 60.9345 17.125 60.8459C16.8175 60.7573 16.6486 60.5689 16.6763 60.5329C16.704 60.4969 16.8979 60.6299 17.1638 60.7074C17.4296 60.785 17.6789 60.785 17.6789 60.8265Z" fill="white"/>
<path d="M9.67452 62.5768C9.44078 62.6867 9.21739 62.8174 9.00702 62.9673C8.82611 63.1527 8.66205 63.3538 8.51678 63.5683C8.56027 63.2924 8.70072 63.0409 8.91292 62.8592C9.12511 62.6775 9.39514 62.5773 9.67452 62.5768Z" fill="white"/>
<path d="M11.5468 61.8954C11.5745 61.9258 11.4831 62.0532 11.4166 62.225C11.3501 62.3967 11.3224 62.5518 11.2837 62.5546C11.2449 62.5573 11.1978 62.3773 11.2837 62.1723C11.3695 61.9674 11.5246 61.876 11.5468 61.8954Z" fill="white"/>
<path d="M6.98517 48.8947C7.53324 49.6385 8.04351 50.4095 8.51404 51.2046C9.02259 51.976 9.49128 52.7728 9.91828 53.5921C9.36942 52.8488 8.85912 52.0778 8.3894 51.2822C7.88016 50.5113 7.41145 49.7144 6.98517 48.8947Z" fill="#263238"/>
<path d="M5.45909 45.3631C5.45909 45.3244 5.66959 45.377 5.74991 45.5958C5.83023 45.8146 5.7139 45.9863 5.68067 45.9614C5.64743 45.9365 5.68067 45.8035 5.61419 45.6456C5.54772 45.4878 5.44247 45.4019 5.45909 45.3631Z" fill="#263238"/>
<path d="M11.4998 42.1725C11.5386 42.1725 11.8848 44.5406 12.2753 47.4765C12.6658 50.4124 12.9456 52.7915 12.9068 52.7971C12.868 52.8026 12.5218 50.429 12.1313 47.4931C11.7407 44.5573 11.4582 42.1781 11.4998 42.1725Z" fill="#263238"/>
<path d="M20.2742 47.072C20.3102 47.072 19.7424 48.5122 19.0029 50.2571C18.2634 52.002 17.6374 53.4035 17.5987 53.3869C17.5599 53.3703 18.1332 51.9439 18.8699 50.2017C19.6067 48.4596 20.2382 47.0554 20.2742 47.072Z" fill="#263238"/>
<path d="M21.4458 44.5515C21.4818 44.5654 21.4458 44.7122 21.3904 44.8756C21.335 45.039 21.2381 45.1526 21.1993 45.1526C21.1605 45.1526 21.1993 44.9919 21.2575 44.8257C21.3156 44.6596 21.4098 44.5349 21.4458 44.5515Z" fill="#263238"/>
<path d="M27.6858 50.6671C27.708 50.7003 26.1071 51.8303 24.1074 53.1875C22.1076 54.5446 20.4707 55.6248 20.4486 55.5916C20.4264 55.5583 22.0273 54.4283 24.027 53.0684C26.0268 51.7085 27.6636 50.6338 27.6858 50.6671Z" fill="#263238"/>
<path d="M24.6863 57.0847C24.1743 57.1739 23.6549 57.2137 23.1352 57.2037C22.6167 57.2421 22.0957 57.2338 21.5787 57.1788C22.0907 57.0898 22.6101 57.0499 23.1297 57.0597C23.6483 57.0213 24.1692 57.0297 24.6863 57.0847Z" fill="#263238"/>
<path d="M8.08472 56.1345C8.06256 56.1678 6.4229 55.1291 4.41487 53.8135C2.40684 52.4979 0.81427 51.4039 0.81427 51.3706C0.81427 51.3374 2.47609 52.376 4.48411 53.6944C6.49214 55.0128 8.10687 56.1013 8.08472 56.1345Z" fill="#263238"/>
<path d="M6.28165 58.1673C5.77929 58.1846 5.27644 58.1522 4.78048 58.0703C4.27785 58.0403 3.77955 57.9596 3.29315 57.8294C3.79556 57.8156 4.29816 57.849 4.79433 57.9291C5.29658 57.9607 5.79464 58.0405 6.28165 58.1673Z" fill="#263238"/>
<path d="M66.096 51.6033L64.797 27.0943C64.6918 25.1029 64.581 23.0838 63.9661 21.1865C63.3512 19.2893 62.1686 17.4918 60.3988 16.5722C58.6289 15.6527 56.2442 15.8106 54.8594 17.2702L55.8204 18.5941C55.0375 33.6003 54.7052 48.6185 54.8234 63.6487C54.8234 64.7732 54.8677 65.978 55.5269 66.8893C56.6347 68.4181 58.8782 68.4015 60.7616 68.2326C62.3708 68.0858 64.1988 67.8143 65.0989 66.471C65.4425 65.8944 65.664 65.2534 65.7498 64.5876C66.553 60.3223 66.3259 55.9379 66.096 51.6033Z" fill="#263238"/>
<path d="M52.5937 18.6911C53.1033 17.5832 54.5851 17.1179 55.7567 17.4973C56.9283 17.8768 57.8007 18.9043 58.3186 20.0233C58.5485 20.4782 58.6734 20.9789 58.6842 21.4885C58.6874 21.7428 58.6312 21.9944 58.5201 22.2233C58.4091 22.4521 58.2462 22.6519 58.0444 22.8068C57.8173 22.9485 57.558 23.0304 57.2907 23.045C57.0234 23.0595 56.7567 23.0062 56.5156 22.8899C56.0356 22.6508 55.6353 22.2775 55.3634 21.8153" fill="#EF5350"/>
<path d="M62.9745 33.0713C62.4981 27.7812 59.7007 22.6351 55.2193 19.7768C50.738 16.9185 44.6114 16.636 40.1273 19.4832C37.2745 21.2946 35.2249 24.1917 34.0478 27.3658C32.8707 30.5398 33.3803 33.1517 33.408 36.5279C33.408 38.2784 33.6434 42.9813 35.1529 43.8648L58.7202 48.0942C61.742 43.7153 63.4509 38.3476 62.9745 33.0713Z" fill="#263238"/>
<path d="M47.1706 20.6076C40.396 20.6768 34.9452 26.2024 34.6211 32.8496C34.3442 38.666 34.1808 44.546 34.4273 46.6455C35.1695 52.9798 40.7976 55.719 42.5563 55.8741C42.7364 55.8907 42.6643 55.8741 42.5757 55.8741C42.5822 55.8784 42.5875 55.8841 42.5914 55.8909C42.5952 55.8976 42.5974 55.9051 42.5979 55.9129L41.9193 63.3384C41.767 68.1771 46.42 95.7438 51.3362 95.9322C56.2525 96.1205 58.1968 68.4679 58.4433 63.6182L59.9168 33.2623C60.0802 26.3076 54.3552 20.5439 47.1706 20.6076Z" fill="#FFBE9D"/>
<path d="M42.5758 55.8936C42.5758 55.8936 42.5758 55.8936 42.5564 55.8936C42.3459 55.877 42.4706 55.8881 42.5758 55.8936Z" fill="#FFBE9D"/>
<path d="M36.4908 37.3977C36.4793 37.6635 36.5723 37.9233 36.7498 38.1215C36.9273 38.3197 37.1753 38.4406 37.4408 38.4584C37.571 38.4754 37.7034 38.4662 37.83 38.4313C37.9567 38.3965 38.0751 38.3366 38.1783 38.2554C38.2815 38.1741 38.3674 38.073 38.431 37.9581C38.4946 37.8431 38.5346 37.7166 38.5486 37.586C38.5615 37.3202 38.4695 37.0601 38.2922 36.8616C38.115 36.6632 37.8669 36.5423 37.6014 36.5252C37.471 36.5082 37.3385 36.5174 37.2117 36.5522C37.0848 36.5871 36.9662 36.6469 36.8628 36.7281C36.7594 36.8094 36.6732 36.9104 36.6093 37.0254C36.5454 37.1404 36.5051 37.2669 36.4908 37.3977Z" fill="#263238"/>
<path d="M36.2636 34.5974C36.3245 34.7664 37.2634 34.6279 38.2578 35.1154C39.2521 35.6028 39.7617 36.4227 39.9196 36.3617C39.9971 36.3368 39.9777 36.0848 39.7645 35.7081C39.4623 35.2143 39.0223 34.8195 38.4987 34.5725C37.9857 34.3138 37.4061 34.2172 36.8369 34.2955C36.4353 34.3703 36.2359 34.5199 36.2636 34.5974Z" fill="#263238"/>
<path d="M47.1402 37.7493C47.1273 38.0151 47.2193 38.2753 47.3966 38.4737C47.5738 38.6722 47.8219 38.793 48.0874 38.8101C48.2176 38.8267 48.3498 38.8172 48.4763 38.7822C48.6028 38.7472 48.7211 38.6873 48.8242 38.6061C48.9273 38.5249 49.0133 38.424 49.077 38.3092C49.1407 38.1944 49.1809 38.0681 49.1953 37.9377C49.2067 37.6718 49.1138 37.4121 48.9363 37.2139C48.7587 37.0156 48.5108 36.8947 48.2453 36.8769C48.1152 36.8603 47.9832 36.8698 47.8568 36.9049C47.7305 36.9399 47.6124 36.9998 47.5095 37.0811C47.4066 37.1623 47.321 37.2632 47.2575 37.378C47.1941 37.4927 47.1542 37.619 47.1402 37.7493Z" fill="#263238"/>
<path d="M47.1706 36.2923C47.3396 36.3699 48.0015 35.622 49.1399 35.2786C50.2782 34.9352 51.2808 35.1678 51.3556 35.0016C51.3999 34.9296 51.2005 34.7579 50.7629 34.6443C50.1587 34.5015 49.5271 34.5245 48.9349 34.7108C48.3493 34.8825 47.8222 35.2122 47.4116 35.6636C47.1429 36.0098 47.0903 36.2591 47.1706 36.2923Z" fill="#263238"/>
<path d="M42.8056 42.9786C42.8056 42.9176 42.1298 42.7736 41.0191 42.5908C40.7421 42.5492 40.4652 42.4855 40.4319 42.2917C40.3987 42.0978 40.504 41.7931 40.6563 41.4746L41.5869 39.389C42.8831 36.4144 43.8331 33.966 43.7113 33.9161C43.5894 33.8663 42.44 36.2371 41.1438 39.209C40.8308 39.943 40.5316 40.6409 40.2491 41.3084C40.1273 41.6214 39.9279 41.9732 40.0525 42.3969C40.0903 42.4969 40.1504 42.587 40.2281 42.6604C40.3058 42.7338 40.3992 42.7886 40.5012 42.8207C40.6568 42.8687 40.8177 42.8976 40.9803 42.9065C42.1021 43.009 42.8 43.0423 42.8056 42.9786Z" fill="#263238"/>
<path d="M42.6062 55.8881C42.6062 55.8881 46.8743 56.3977 52.3694 53.4397C52.3694 53.4397 50.4306 58.9375 42.4234 57.8878L42.6062 55.8881Z" fill="#EB996E"/>
<path d="M47.0738 30.7225C47.2067 30.9995 48.3007 30.7779 49.608 30.825C50.9153 30.8721 51.9955 31.1325 52.1478 30.8527C52.2143 30.7198 52.0094 30.4567 51.5662 30.2046C50.9685 29.8986 50.3097 29.7311 49.6385 29.7143C48.9672 29.6975 48.3008 29.832 47.6886 30.1077C47.2372 30.3348 47.0156 30.5785 47.0738 30.7225Z" fill="#263238"/>
<path d="M36.2359 32.9023C36.4215 33.1571 37.197 32.93 38.1165 32.9549C39.0361 32.9799 39.8061 33.1848 39.9972 32.9328C40.0803 32.8109 39.9695 32.5589 39.6371 32.3124C39.1894 32.0149 38.6647 31.8541 38.1272 31.8497C37.5896 31.8453 37.0624 31.9974 36.6098 32.2874C36.2719 32.5173 36.1528 32.7943 36.2359 32.9023Z" fill="#263238"/>
<path d="M54.0838 36.093C54.1171 36.1096 53.9675 36.4115 53.6213 36.6109C53.5245 36.6822 53.414 36.7328 53.2968 36.7594C53.1795 36.7861 53.0581 36.7884 52.9399 36.766C52.9399 36.7217 53.2363 36.6746 53.5465 36.4891C53.8567 36.3035 54.0506 36.0681 54.0838 36.093Z" fill="#EB996E"/>
<path d="M54.2527 37.3505C54.2361 37.3865 53.9758 37.284 53.6268 37.2563C53.4165 37.2679 53.2056 37.2679 52.9953 37.2563C53.184 37.1299 53.4149 37.0831 53.6379 37.1261C54.0145 37.1427 54.2749 37.3172 54.2527 37.3505Z" fill="#EB996E"/>
<path d="M35.8176 36.9157C35.8176 36.9545 35.5961 36.9489 35.3385 36.9157C35.0809 36.8824 34.8815 36.8021 34.887 36.7633C34.8926 36.7246 35.1086 36.7273 35.3634 36.7633C35.6182 36.7993 35.8232 36.8769 35.8176 36.9157Z" fill="#EB996E"/>
<path d="M35.5934 36.9654C35.6183 36.9958 35.502 37.1205 35.3358 37.2423C35.1696 37.3642 35.0145 37.4362 34.9924 37.403C34.9702 37.3698 35.0838 37.2479 35.25 37.126C35.4161 37.0042 35.5712 36.9321 35.5934 36.9654Z" fill="#EB996E"/>
<path d="M48.8545 45.812C48.899 45.4953 48.8551 45.1725 48.7275 44.8792C48.5999 44.5859 48.3937 44.3336 48.1317 44.1502C48.1317 44.1364 48.2535 44.1502 48.4086 44.2638C48.6067 44.404 48.7627 44.5955 48.8601 44.8177C48.9585 45.0412 48.993 45.2876 48.9598 45.5295C48.9321 45.7068 48.8712 45.812 48.8545 45.812Z" fill="#EB996E"/>
<path d="M39.4294 21.1423C38.0159 22.1122 36.8196 23.3656 35.9165 24.8228C35.0134 26.2799 34.4233 27.909 34.1836 29.6065L34.6489 32.4482C34.8206 31.1436 34.9037 29.6785 36.2609 28.2576C37.1721 27.3076 38.8588 26.4158 40.6481 25.9615C45.7692 24.657 47.4947 22.7985 49.7548 19.4528C46.4395 18.6218 42.26 19.2229 39.4294 21.1423Z" fill="#263238"/>
<path d="M61.5343 28.6537C60.1079 23.5214 55.4409 19.4472 50.1785 18.716L49.7603 19.4527L45.8827 24.0006C45.5587 24.3773 45.2208 24.7844 45.1487 25.2746C45.0518 25.9338 45.459 26.5736 45.9797 26.9974C47.2122 28.0056 48.9405 28.0693 50.533 28.1053C52.1256 28.1413 53.8567 28.2798 55.0283 29.371C56.474 30.7309 56.4436 33.0381 55.9561 34.963C55.456 37.2602 55.2955 39.6183 55.4797 41.962C55.657 43.7319 57.9974 39.4333 59.5345 40.3252C59.9638 40.5744 58.8061 47.5264 59.2576 47.3048C59.709 47.0832 59.6564 44.596 59.8115 44.1307C60.6009 41.6158 61.393 39.0899 61.814 36.4891C62.235 33.8884 62.2405 31.1935 61.5343 28.6537Z" fill="#263238"/>
<path d="M57.172 42.0035C57.2911 40.3417 59.1385 39.2532 60.5704 40.1229C61.357 40.5993 61.9553 41.5382 61.8334 43.3136C61.5371 48.0442 56.848 46.7702 56.848 46.6372C56.848 46.5514 57.0335 43.9589 57.172 42.0035Z" fill="#FFBE9D"/>
<path d="M58.3935 44.9284C58.4157 44.9146 58.4738 44.9921 58.6068 45.0669C58.7974 45.1627 59.0175 45.1816 59.2216 45.1195C59.734 44.97 60.2076 44.2028 60.288 43.3525C60.3274 42.9482 60.2754 42.5402 60.1356 42.1587C60.1012 42.0076 60.0305 41.8671 59.9297 41.7493C59.8288 41.6316 59.7008 41.5402 59.5568 41.4829C59.4637 41.4517 59.3627 41.4541 59.2711 41.4895C59.1796 41.5249 59.1033 41.5911 59.0555 41.6768C58.9834 41.8042 59.0084 41.9012 58.9834 41.9067C58.9585 41.9122 58.8865 41.8208 58.9364 41.6297C58.9724 41.5166 59.0456 41.419 59.1441 41.3528C59.281 41.2644 59.4468 41.2326 59.6066 41.2641C59.798 41.3155 59.9731 41.415 60.1152 41.5531C60.2572 41.6913 60.3615 41.8636 60.4181 42.0535C60.5923 42.4766 60.6607 42.9357 60.6176 43.3912C60.5234 44.344 59.975 45.2026 59.2798 45.355C59.1504 45.3828 59.0165 45.3816 58.8877 45.3514C58.7588 45.3212 58.6383 45.2628 58.5348 45.1805C58.3935 45.0448 58.3935 44.9367 58.3935 44.9284Z" fill="#EB996E"/>
<path d="M58.3685 22.4413C59.0048 23.1822 59.5695 23.9816 60.0553 24.8288C60.5924 25.7422 61.0555 26.6971 61.4401 27.6844C61.9103 28.8952 62.2636 30.1482 62.4954 31.4262C62.9249 33.7531 62.8995 36.1412 62.4206 38.4585C62.3815 38.6695 62.3315 38.8785 62.271 39.0844C62.2156 39.2811 62.1658 39.4667 62.1187 39.6384C62.0402 39.9359 61.9431 40.2282 61.8279 40.5136C61.7448 40.7407 61.6755 40.9207 61.6229 41.0675C61.6023 41.1319 61.5754 41.194 61.5426 41.2531C61.5555 41.1861 61.574 41.1203 61.598 41.0565C61.6423 40.9152 61.7005 40.7324 61.7753 40.5025C61.8827 40.2148 61.9751 39.9218 62.0522 39.6245C62.0965 39.45 62.1409 39.2645 62.1907 39.0706C62.25 38.8649 62.2971 38.6559 62.332 38.4446C62.7789 36.1397 62.7901 33.7714 62.3652 31.4622C62.1342 30.1933 61.7874 28.9482 61.3293 27.7425C60.9515 26.7589 60.4996 25.8052 59.9777 24.8898C59.8669 24.6931 59.7589 24.5075 59.6592 24.3358C59.5595 24.1641 59.4432 24.0062 59.3462 23.8539L59.0693 23.4357C58.9862 23.3083 58.8975 23.1975 58.8255 23.095L58.4849 22.6241C58.4403 22.5671 58.4014 22.5059 58.3685 22.4413Z" fill="#B39DDB"/>
<path d="M58.8256 23.8815C58.8247 23.9305 58.8163 23.979 58.8007 24.0255C58.7602 24.1627 58.6965 24.292 58.6123 24.4077C58.2735 24.8086 57.8218 25.0982 57.3161 25.2386C56.6901 25.4436 55.9312 25.6291 55.1003 25.8147C54.1878 26.015 53.2623 26.151 52.3306 26.2219C51.3932 26.2919 50.4511 26.2641 49.5194 26.1388C48.7574 26.0357 48.0088 25.85 47.287 25.5848C46.8013 25.408 46.333 25.1864 45.8883 24.9229C45.7305 24.8315 45.6114 24.7511 45.5338 24.6958C45.4563 24.6404 45.4147 24.6099 45.4175 24.6044C45.4203 24.5988 45.5947 24.7041 45.916 24.8813C46.3682 25.1237 46.8386 25.3302 47.323 25.499C48.042 25.7467 48.7845 25.9202 49.5388 26.0169C50.4621 26.1316 51.3945 26.1548 52.3223 26.0861C54.0113 25.9421 55.6816 25.6285 57.3078 25.15C57.8011 25.0222 58.2466 24.7537 58.5902 24.3772C58.6932 24.2248 58.7725 24.0576 58.8256 23.8815Z" fill="#B39DDB"/>
<path d="M57.9725 22.2472C57.9725 22.2472 57.9504 22.286 57.895 22.3441C57.8164 22.4325 57.7331 22.5166 57.6457 22.5962C57.326 22.8909 56.9739 23.1483 56.596 23.3634C55.3308 24.0568 53.909 24.4144 52.4664 24.402C51.0356 24.3817 49.6129 24.1825 48.2315 23.8093C47.6997 23.6764 47.2732 23.5573 46.9796 23.4714C46.8257 23.4336 46.6748 23.3846 46.5281 23.3246C46.6852 23.3444 46.8406 23.3749 46.9934 23.416L48.2537 23.7096C49.6326 24.052 51.0458 24.2378 52.4664 24.2635C53.8861 24.2732 55.2866 23.9356 56.5461 23.2803C57.0562 22.9865 57.5343 22.6402 57.9725 22.2472Z" fill="#B39DDB"/>
<path d="M57.0086 21.7155C56.9011 21.7648 56.7888 21.8028 56.6735 21.8291C56.4547 21.8983 56.1334 21.9786 55.7345 22.0617C53.6431 22.4948 51.4839 22.4826 49.3975 22.0257C48.9987 21.9371 48.6801 21.854 48.4641 21.782C48.348 21.7559 48.2355 21.7159 48.129 21.6629C48.2473 21.673 48.3642 21.6953 48.4779 21.7294C48.6995 21.782 49.0319 21.8512 49.4196 21.926C51.4982 22.3239 53.6322 22.3361 55.7152 21.962C56.114 21.8928 56.438 21.8263 56.6596 21.7765C56.773 21.7419 56.8902 21.7215 57.0086 21.7155Z" fill="#B39DDB"/>
<path d="M50.691 17.6912C50.6638 17.8075 50.6248 17.9207 50.5747 18.0291C50.4566 18.3301 50.3235 18.625 50.1759 18.9126C49.2049 20.8308 47.7784 22.4818 46.0213 23.7208C45.7579 23.9088 45.4852 24.0835 45.2043 24.2443C45.1039 24.3086 44.9972 24.3625 44.8857 24.4049C44.9704 24.3251 45.0632 24.2546 45.1627 24.1944C45.3538 24.0698 45.6253 23.8814 45.9493 23.6405C47.6593 22.3693 49.0707 20.7396 50.0845 18.8655C50.2811 18.5082 50.4279 18.2146 50.5248 18.0069C50.5674 17.8954 50.6232 17.7894 50.691 17.6912Z" fill="#B39DDB"/>
<path d="M33.8789 27.8503C33.8789 27.8503 33.9011 27.806 33.9592 27.7284C34.0174 27.6509 34.1005 27.5373 34.2168 27.3961C34.5416 26.9949 34.8864 26.6103 35.2499 26.2439C35.7881 25.6958 36.3759 25.1988 37.0059 24.7593C37.3814 24.5032 37.7727 24.271 38.1775 24.0641C38.6137 23.8463 39.0655 23.6611 39.5291 23.5102C41.1606 22.9835 42.8825 22.795 44.5893 22.9562C45.104 23.0044 45.6148 23.0877 46.1182 23.2055C46.2954 23.2443 46.4312 23.2858 46.5253 23.3108C46.5735 23.3211 46.6201 23.3379 46.6638 23.3606C46.6638 23.3606 46.4644 23.3274 46.1099 23.2609C45.6054 23.1645 45.0959 23.097 44.5838 23.0587C42.8908 22.9311 41.1892 23.1333 39.5734 23.6542C37.9682 24.2021 36.5126 25.1162 35.3219 26.3242C34.8566 26.7784 34.491 27.1551 34.2611 27.4321L33.9842 27.7478C33.9177 27.8087 33.8817 27.8558 33.8789 27.8503Z" fill="#B39DDB"/>
<path d="M37.4296 22.7681C37.5433 22.6773 37.6647 22.5967 37.7925 22.5271C37.9347 22.4362 38.0817 22.353 38.2328 22.2778C38.4101 22.1864 38.6067 22.0756 38.8394 21.9815C39.0857 21.8646 39.3381 21.7611 39.5955 21.6713C39.8725 21.5605 40.1716 21.4746 40.4874 21.3777C41.8731 20.9863 43.3174 20.8447 44.7527 20.9594C45.0823 20.9927 45.3953 21.0204 45.6833 21.073C45.9714 21.1256 46.2373 21.1727 46.4865 21.2309C46.7358 21.289 46.9463 21.35 47.1374 21.4054C47.301 21.4497 47.4619 21.5033 47.6193 21.566C47.7574 21.6094 47.8917 21.6641 48.0209 21.7294C47.8783 21.7058 47.7383 21.6687 47.6027 21.6186C47.4698 21.5771 47.3091 21.5272 47.1152 21.4829C46.9214 21.4386 46.7081 21.3721 46.4644 21.3306C46.2206 21.289 45.9547 21.2281 45.6667 21.1921C45.3786 21.1561 45.0684 21.1229 44.7416 21.0924C44.0329 21.0478 43.3217 21.058 42.6145 21.1229C41.9087 21.1968 41.2097 21.3246 40.5234 21.5051C40.2104 21.5992 39.9085 21.6796 39.6371 21.782C39.3656 21.8845 39.1081 21.9787 38.8809 22.059C38.6538 22.1393 38.4489 22.2529 38.2716 22.336C38.0944 22.4191 37.942 22.4966 37.8202 22.5631C37.6959 22.6422 37.5653 22.7108 37.4296 22.7681Z" fill="#B39DDB"/>
<path d="M60.9167 46.1195C61.0053 46.0724 61.1438 46.1195 61.3044 46.2912C61.5265 46.5422 61.6742 46.8501 61.731 47.1803C61.7759 47.4257 61.7759 47.6772 61.731 47.9226C61.6788 48.2297 61.5565 48.5207 61.3737 48.7729C61.1657 49.0603 60.8872 49.2892 60.5649 49.4376C60.1821 49.6188 59.7476 49.659 59.338 49.5512C58.9385 49.441 58.5868 49.2013 58.3381 48.8698C58.1255 48.5898 57.9856 48.2615 57.931 47.9143C57.8898 47.6398 57.9036 47.3598 57.9716 47.0907C58.0396 46.8215 58.1604 46.5686 58.327 46.3466C58.5197 46.0754 58.7818 45.8611 59.0859 45.7262C59.2992 45.6403 59.4487 45.6514 59.5097 45.7262C59.6399 45.8841 59.3767 46.2801 59.2327 46.8341C59.1517 47.0985 59.1517 47.3812 59.2327 47.6456C59.2677 47.7635 59.329 47.8718 59.412 47.9625C59.495 48.0532 59.5976 48.1238 59.7119 48.1691C59.811 48.1935 59.9152 48.1877 60.011 48.1525C60.1351 48.1056 60.249 48.0351 60.3461 47.9447C60.539 47.7523 60.6644 47.5026 60.7034 47.2329C60.8142 46.6734 60.7339 46.2109 60.9167 46.1195Z" fill="#EF5350"/>
<path d="M46.4091 46.0889C46.272 45.715 46.0272 45.3902 45.7056 45.1555C45.4248 44.9592 45.0911 44.8529 44.7486 44.8506C44.4061 44.8484 44.0709 44.9503 43.7877 45.1428C43.5044 45.3354 43.2863 45.6095 43.1624 45.9288C43.0385 46.2482 43.0145 46.5976 43.0937 46.9308L43.0273 47.0084C42.9879 47.0935 42.9758 47.1887 42.9926 47.2809C43.0095 47.3731 43.0545 47.4579 43.1214 47.5236C43.2583 47.6522 43.4233 47.747 43.6034 47.8005C44.1084 48.0218 44.6598 48.1169 45.2098 48.0775C45.4838 48.0538 45.746 47.9556 45.9682 47.7935C46.1903 47.6314 46.3639 47.4116 46.47 47.158C46.5751 46.8054 46.5535 46.4272 46.4091 46.0889Z" fill="#EF5350"/>
<path d="M46.8162 45.6542C46.8162 45.7816 45.8717 45.8923 44.7943 46.3133C43.7169 46.7343 42.9359 47.2772 42.8555 47.1803C42.8195 47.1359 42.9719 46.9338 43.2821 46.6817C44.1098 46.0307 45.1146 45.6446 46.1653 45.5738C46.5669 45.5517 46.8134 45.5988 46.8162 45.6542Z" fill="#263238"/>
<path d="M42.0522 61.8762L27.298 64.8924C25.3897 65.0863 21.3764 67.9585 20.3073 69.551C13.7515 79.3031 15.8481 104.405 15.8481 104.726L34.3885 92.8719L42.0522 61.8762Z" fill="#B39DDB"/>
<path d="M26.8327 65.1306L42.0522 61.8763C42.0522 61.8763 47.4475 93.1101 51.3362 93.0353C55.2248 92.9605 61.0301 59.8378 61.0301 59.8378L74.7983 64.3053C74.7983 64.3053 72.1089 87.3131 71.4746 91.415C70.8404 95.5169 69.8876 115.963 69.8876 115.963L35.0393 115.885C35.0393 115.885 34.4604 99.8848 32.1477 91.9994C29.8351 84.1141 26.8327 65.1306 26.8327 65.1306Z" fill="#B39DDB"/>
<path d="M60.0553 60.2753L74.7042 63.7623C76.607 64.0171 80.5206 67.0167 81.5454 68.6425C87.7855 78.5968 84.8884 103.621 84.869 103.942L66.7247 91.5119L60.0553 60.2753Z" fill="#B39DDB"/>
<path d="M54.9535 97.4305C54.9213 97.4794 54.8831 97.5241 54.8399 97.5635L54.4909 97.9291C54.1863 98.2448 53.7348 98.688 53.167 99.2281C52.0314 100.311 50.4139 101.754 48.5361 103.236C46.6582 104.718 44.8718 105.95 43.5506 106.8C42.8914 107.224 42.3514 107.559 41.9747 107.781L41.5398 108.036C41.4909 108.069 41.4378 108.096 41.382 108.116C41.4263 108.077 41.4735 108.042 41.5232 108.011L41.9442 107.734C42.3126 107.498 42.8444 107.149 43.4925 106.715C44.7942 105.845 46.5641 104.599 48.4391 103.114C50.3142 101.629 51.94 100.209 53.0922 99.1478C53.6683 98.616 54.1281 98.1839 54.4466 97.8792L54.815 97.5358C54.8575 97.4962 54.9039 97.461 54.9535 97.4305Z" fill="#263238"/>
<path d="M55.5158 88.9056C55.5109 88.9435 55.5016 88.9807 55.4881 89.0164C55.4632 89.0939 55.4299 89.202 55.3856 89.3349C55.2942 89.6119 55.153 90.0273 54.9619 90.5536C54.7707 91.0798 54.5298 91.7224 54.2362 92.4619C54.0894 92.8303 53.926 93.2236 53.7487 93.639C53.5758 94.0858 53.3626 94.516 53.1117 94.9241C53.0444 95.0341 52.9674 95.1379 52.8818 95.2344C52.7993 95.336 52.7065 95.4288 52.6048 95.5113C52.3974 95.6974 52.1423 95.8221 51.8681 95.8714C51.5751 95.9019 51.2793 95.856 51.0093 95.738C50.7394 95.62 50.5047 95.4341 50.3282 95.1983C49.4733 94.2705 48.7662 93.2168 48.2315 92.0741C47.6449 90.8166 47.1434 89.5212 46.7303 88.1966C46.2816 86.8256 45.8246 85.4075 45.3898 83.9423C43.6227 78.0899 42.3625 72.6946 41.5732 68.7672C41.1743 66.8062 40.8974 65.2081 40.7035 64.1058C40.6176 63.5518 40.5484 63.1308 40.4985 62.8345C40.48 62.6941 40.4634 62.5834 40.4487 62.5021C40.4444 62.4644 40.4444 62.4263 40.4487 62.3885C40.4606 62.4246 40.4689 62.4617 40.4736 62.4993L40.5401 62.8289C40.5927 63.1253 40.6702 63.5518 40.7699 64.0974C40.9804 65.2053 41.274 66.7896 41.6839 68.7478C42.4982 72.6669 43.7723 78.0512 45.5366 83.9008C45.9742 85.3632 46.4312 86.7812 46.8743 88.1522C47.2856 89.4711 47.7824 90.7618 48.3617 92.016C48.8853 93.146 49.5773 94.19 50.414 95.1125C50.5768 95.3351 50.7946 95.5115 51.0461 95.6247C51.2976 95.7378 51.5742 95.7837 51.8487 95.7578C52.1046 95.7144 52.3428 95.5991 52.5356 95.4255C52.638 95.3437 52.7309 95.2508 52.8126 95.1485C52.8952 95.0559 52.9702 94.9568 53.0369 94.8521C53.287 94.4503 53.5002 94.0266 53.6739 93.5864C53.8586 93.1728 54.0239 92.7823 54.1697 92.4148C54.4716 91.6781 54.7237 91.03 54.9175 90.5176C55.1114 90.0052 55.261 89.5925 55.3662 89.31L55.4826 88.9942C55.4992 88.9416 55.5158 88.9056 55.5158 88.9056Z" fill="#263238"/>
<path d="M38.6844 70.0828C38.5287 69.6467 38.2855 69.2471 37.9698 68.9084C37.8102 68.7412 37.6112 68.6166 37.3911 68.5459C37.171 68.4753 36.9367 68.4609 36.7096 68.5041C36.2637 68.6204 35.8787 69.0303 35.4355 68.986C34.8262 68.925 34.5741 68.1385 34.0285 67.8643C33.8948 67.8081 33.7502 67.7824 33.6053 67.789C33.4603 67.7956 33.3187 67.8344 33.1906 67.9025C33.0626 67.9707 32.9513 68.0665 32.8648 68.183C32.7783 68.2995 32.7189 68.4337 32.6908 68.5761L32.76 68.5955C32.4842 68.7333 32.2713 68.971 32.1645 69.2602C32.1418 69.3318 32.1334 69.4073 32.1399 69.4821C32.1464 69.557 32.1676 69.6299 32.2024 69.6966C32.2371 69.7632 32.2847 69.8224 32.3424 69.8706C32.4 69.9188 32.4667 69.9551 32.5384 69.9775C32.9234 70.0468 33.253 69.6008 33.6463 69.6535C34.0784 69.7144 34.2002 70.3071 34.5437 70.5564C34.9591 70.8528 35.5297 70.5924 35.9673 70.3348C36.4049 70.0772 36.9893 69.8307 37.3909 70.1409C37.5795 70.3355 37.7249 70.5676 37.8175 70.8223C37.9449 71.0605 38.1748 71.2931 38.4406 71.2544C38.5532 71.2257 38.6534 71.1614 38.7263 71.071C38.7992 70.9806 38.8408 70.8691 38.845 70.753C38.8455 70.52 38.7905 70.2902 38.6844 70.0828Z" fill="white"/>
<path d="M82.2488 88.3599C82.093 87.9246 81.8509 87.5251 81.537 87.1856C81.3771 87.0189 81.1781 86.8948 80.9579 86.8246C80.7378 86.7545 80.5037 86.7405 80.2768 86.784C79.8309 86.9003 79.4597 87.3075 79 87.2631C78.3906 87.205 78.1414 86.4156 77.593 86.1553C77.4596 86.0985 77.3153 86.0723 77.1705 86.0785C77.0258 86.0848 76.8842 86.1233 76.7563 86.1912C76.6283 86.2592 76.5171 86.3549 76.4309 86.4714C76.3447 86.5878 76.2856 86.7221 76.258 86.8643L76.3244 86.8865C76.0484 87.0225 75.8352 87.2595 75.729 87.5484C75.6838 87.6939 75.6981 87.8513 75.7687 87.9862C75.8393 88.1212 75.9604 88.2227 76.1056 88.2685C76.4879 88.3378 76.8175 87.8891 77.2135 87.9445C77.6096 87.9999 77.7536 88.5954 78.1109 88.8474C78.5264 89.141 79.0941 88.8807 79.5345 88.6231C79.9749 88.3655 80.5538 88.119 80.9554 88.432C81.1443 88.6257 81.2905 88.8569 81.3847 89.1105C81.5121 89.3487 81.7392 89.5842 82.0079 89.5426C82.1206 89.5144 82.2211 89.4502 82.294 89.3597C82.367 89.2692 82.4085 89.1574 82.4122 89.0413C82.4132 88.8044 82.3572 88.5707 82.2488 88.3599Z" fill="white"/>
<path d="M31.3751 79.5689C31.713 79.8459 32.2475 79.6327 32.5023 79.292C32.7571 78.9513 32.8375 78.4943 33.0036 78.0927C33.1698 77.6911 33.4911 77.2895 33.9259 77.2756C34.0977 77.2756 34.2666 77.3283 34.4356 77.3061C34.8787 77.2535 35.0837 76.7522 35.3302 76.381C35.7373 75.7634 36.571 75.3839 37.2523 75.6803C37.9337 75.9767 38.1553 77.0651 37.5432 77.4834C37.0031 77.8517 36.1168 77.6108 35.7539 78.1536C35.3911 78.6965 35.873 79.4914 35.4493 79.9484C35.0255 80.4054 34.1752 80.0066 33.6684 80.3777C33.2252 80.7017 33.336 81.4136 33.649 81.865C33.962 82.3165 34.43 82.6682 34.6378 83.1779C35.0283 84.1279 34.3608 85.1942 33.5742 85.8506C33.3337 86.0805 33.0298 86.233 32.7017 86.2882C32.0232 86.3464 31.5025 85.701 31.2255 85.0779C30.8609 84.2437 30.6857 83.3392 30.7125 82.4293C30.7393 81.5193 30.9675 80.6266 31.3806 79.8154" fill="white"/>
<path d="M68.5389 71.9275C68.9626 71.8333 69.1288 71.2849 69.0152 70.8639C68.9017 70.4429 68.597 70.1078 68.3865 69.7284C68.176 69.3489 68.0625 68.8448 68.3228 68.4986C68.4253 68.3601 68.5749 68.2632 68.6635 68.1164C68.8961 67.7369 68.633 67.2661 68.4973 66.8423C68.2674 66.1361 68.4973 65.247 69.1454 64.9035C69.7935 64.5601 70.7906 65.0586 70.738 65.7982C70.6881 66.449 69.9486 66.9919 70.148 67.6151C70.3475 68.2383 71.2559 68.3546 71.3639 68.9722C71.472 69.5899 70.6134 70.0053 70.5884 70.634C70.569 71.188 71.1922 71.5397 71.7406 71.5757C72.289 71.6117 72.8485 71.4677 73.3858 71.6201C74.3718 71.897 74.7956 73.088 74.8122 74.1128C74.8434 74.4444 74.7729 74.7777 74.61 75.0683C74.2361 75.6361 73.4052 75.6416 72.746 75.4727C71.8667 75.2383 71.0503 74.8119 70.3554 74.2243C69.6605 73.6367 69.1044 72.9024 68.7272 72.0743" fill="white"/>
<path d="M45.3758 93.7109C45.0135 93.3325 44.5704 93.0409 44.0796 92.8578C43.5783 92.7138 42.9551 92.8578 42.6948 93.3092C42.5674 93.5419 42.5507 93.8244 42.4178 94.0515C42.0439 94.6886 41.0828 94.539 40.4264 94.8824C39.5955 95.3173 39.4985 96.7077 40.2824 97.2422C39.9417 97.9402 39.6259 98.6935 39.6896 99.458C39.7533 100.222 40.3101 101.023 41.0745 101.089C41.465 101.123 41.8583 100.973 42.2461 101.042C42.692 101.12 43.0327 101.466 43.401 101.732C43.7694 101.998 44.2818 102.186 44.6612 101.937C45.2152 101.56 45.1044 100.45 45.7691 100.322C46.3535 100.209 46.9822 101.051 47.4309 100.657C47.7079 100.416 47.55 99.9565 47.6913 99.6214C47.9129 99.1035 48.6496 99.1478 49.1565 98.8985C49.4262 98.7622 49.6357 98.5306 49.7442 98.2486C49.8528 97.9666 49.8527 97.6543 49.744 97.3723C49.6353 97.0904 49.4257 96.8589 49.1559 96.7227C48.8861 96.5866 48.5754 96.5556 48.284 96.6357C47.3562 96.9126 46.9324 98.1811 45.9741 98.2975C45.337 98.3695 44.6252 97.882 44.099 98.2476C43.7943 98.4581 43.6946 98.8819 43.3872 99.0785C43.1984 99.1754 42.9803 99.1984 42.7754 99.1431C42.5706 99.0878 42.3937 98.9581 42.2793 98.7794C42.1731 98.5921 42.1104 98.3833 42.096 98.1685C42.0816 97.9536 42.1159 97.7383 42.1962 97.5386C42.4178 96.8932 42.9191 96.3892 43.4038 95.91C43.6281 95.6884 43.919 95.4502 44.2153 95.5472C44.3898 95.5998 44.5089 95.7549 44.6668 95.8463C45.1487 96.1233 45.7747 95.6275 45.8522 95.0791C45.9298 94.5307 45.6417 93.9989 45.3592 93.5197" fill="white"/>
<path d="M21.4651 85.8174C21.1027 85.439 20.6596 85.1474 20.1688 84.9643C19.6675 84.8175 19.0443 84.9643 18.784 85.4158C18.6566 85.6484 18.64 85.9282 18.507 86.158C18.1331 86.7923 17.172 86.6455 16.5156 86.989C15.6847 87.4238 15.5878 88.8142 16.3716 89.3487C16.0309 90.0467 15.7152 90.8 15.7789 91.5645C15.8426 92.3289 16.3993 93.1294 17.1637 93.1931C17.5542 93.2263 17.9475 93.0795 18.3353 93.1487C18.7812 93.2263 19.1219 93.5725 19.4903 93.8384C19.8586 94.1043 20.371 94.2926 20.7477 94.0406C21.3016 93.6667 21.1936 92.556 21.8556 92.4259C22.44 92.3123 23.0687 93.1571 23.5174 92.761C23.7944 92.5228 23.6365 92.063 23.7778 91.7279C23.9993 91.21 24.7361 91.2515 25.2429 91.005C25.5126 90.8687 25.7221 90.6371 25.8307 90.3551C25.9393 90.0731 25.9392 89.7608 25.8305 89.4789C25.7218 89.1969 25.5122 88.9654 25.2424 88.8293C24.9726 88.6931 24.6619 88.6621 24.3705 88.7422C23.4426 89.0191 23.0189 90.2877 22.0605 90.404C21.4235 90.476 20.7117 89.9885 20.1855 90.3541C19.8808 90.5619 19.7811 90.9856 19.4736 91.185C19.2839 91.2869 19.0626 91.3129 18.8544 91.2579C18.6462 91.2029 18.4666 91.0709 18.3519 90.8887C18.2456 90.7009 18.183 90.4916 18.1686 90.2764C18.1542 90.0611 18.1885 89.8453 18.2688 89.6451C18.4904 88.9997 18.9917 88.4984 19.4764 88.0165C19.7008 87.7977 19.9916 87.5595 20.2879 87.6537C20.4624 87.7091 20.5815 87.8642 20.7394 87.9528C21.2213 88.2298 21.8473 87.7368 21.9248 87.1856C22.0024 86.6344 21.7143 86.1082 21.4318 85.629" fill="white"/>
<path d="M68.3256 81.5048C67.963 81.128 67.5212 80.8367 67.0322 80.6517C66.5308 80.5077 65.9049 80.6517 65.6473 81.1032C65.5199 81.3358 65.5033 81.6184 65.3703 81.8455C64.9937 82.4825 64.0326 82.3329 63.3789 82.6764C62.548 83.1084 62.4511 84.5016 63.2321 85.0362C62.8915 85.7341 62.5785 86.4875 62.6394 87.2519C62.7004 88.0163 63.2598 88.814 64.0243 88.8805C64.4148 88.9137 64.8109 88.7669 65.1959 88.8334C65.6418 88.9137 65.9824 89.2599 66.3508 89.5231C66.7192 89.7862 67.2343 89.9773 67.611 89.728C68.165 89.3513 68.0542 88.2435 68.7189 88.1133C69.3061 87.9997 69.932 88.8417 70.3807 88.4484C70.6577 88.2075 70.497 87.7477 70.6411 87.4153C70.8599 86.8974 71.5994 86.9389 72.1035 86.6897C72.381 86.5585 72.5987 86.3271 72.7127 86.0421C72.8267 85.7571 72.8287 85.4394 72.7183 85.153C72.6079 84.8666 72.3931 84.6325 72.1173 84.4978C71.8414 84.3631 71.5248 84.3378 71.231 84.4268C70.3032 84.7038 69.8794 85.9723 68.9211 86.0886C68.2841 86.1579 67.575 85.6732 67.046 86.036C66.7441 86.2465 66.6444 86.6703 66.337 86.8669C66.1469 86.9685 65.9253 86.9941 65.7171 86.9386C65.5089 86.8831 65.3295 86.7505 65.2152 86.5678C65.1091 86.3805 65.0463 86.1719 65.0315 85.9571C65.0166 85.7424 65.0501 85.5271 65.1294 85.327C65.3537 84.6816 65.8523 84.1776 66.3397 83.6984C66.5613 83.4796 66.8521 83.2414 67.1513 83.3356C67.323 83.391 67.4421 83.5461 67.5999 83.6347C68.0846 83.9117 68.7078 83.4187 68.7881 82.8675C68.8685 82.3163 68.5749 81.7873 68.2924 81.3081" fill="white"/>
<path d="M47.2371 113.522C47.4046 113.523 47.5707 113.49 47.7251 113.425C47.8796 113.36 48.0194 113.265 48.1361 113.145C48.2527 113.024 48.3439 112.882 48.4041 112.725C48.4642 112.569 48.4922 112.402 48.4862 112.235C48.4363 111.639 47.9572 111.016 48.2729 110.512C48.5305 110.102 49.1482 110.094 49.475 109.739C49.9597 109.216 49.5802 108.235 50.0954 107.742C50.3724 107.465 50.7906 107.465 51.1728 107.465C51.6187 107.465 52.1533 107.523 52.3638 107.919C52.5466 108.266 52.3638 108.709 52.0729 108.975C51.7606 109.213 51.4257 109.419 51.0731 109.592C50.8976 109.682 50.7454 109.812 50.6281 109.97C50.5109 110.129 50.4319 110.312 50.3973 110.506C50.3724 110.88 50.6078 111.212 50.749 111.561C50.8903 111.91 50.8737 112.392 50.5302 112.553C50.3828 112.586 50.2383 112.63 50.0982 112.686C49.9181 112.802 49.8904 113.043 49.8212 113.24C49.5636 113.869 48.7659 114.038 48.0901 114.121C47.9256 114.154 47.7561 114.154 47.5916 114.121C47.5103 114.1 47.4371 114.055 47.3813 113.993C47.3256 113.93 47.2898 113.852 47.2786 113.769C47.2786 113.603 47.4586 113.442 47.611 113.517" fill="white"/>
<path d="M25.6861 67.1856C25.5476 66.8367 25.3094 66.5043 25.3371 66.1276L25.5836 65.4629L23.3512 66.7951L23.426 67.8531C23.3408 68.2464 23.2126 68.629 23.0438 68.9942C22.8859 69.1854 22.5369 69.1327 22.5369 69.1327C22.3874 69.058 22.199 69.2186 22.2074 69.3848C22.2182 69.468 22.2538 69.5461 22.3096 69.6089C22.3655 69.6716 22.4389 69.7161 22.5203 69.7365C22.6839 69.7698 22.8525 69.7698 23.0161 69.7365C23.6947 69.6534 24.4924 69.4845 24.7499 68.8558C24.8303 68.6591 24.858 68.4182 25.0269 68.3018C25.1543 68.2187 25.3233 68.2298 25.4617 68.1689C25.8135 68.0249 25.8246 67.5319 25.6861 67.1856Z" fill="white"/>
<path d="M66.9933 106.266C67.0133 106.101 66.9998 105.933 66.9536 105.773C66.9075 105.613 66.8296 105.464 66.7247 105.335C66.6198 105.206 66.49 105.099 66.3429 105.021C66.1959 104.943 66.0347 104.895 65.8688 104.881C65.2734 104.856 64.5948 105.255 64.135 104.881C63.7611 104.576 63.8304 103.962 63.5202 103.593C63.0604 103.039 62.0411 103.302 61.6146 102.729C61.3875 102.424 61.429 102.003 61.4789 101.621C61.5398 101.178 61.6617 100.654 62.0799 100.494C62.4483 100.355 62.8637 100.594 63.0908 100.915C63.2876 101.255 63.4517 101.613 63.5811 101.984C63.6481 102.171 63.7582 102.339 63.9026 102.475C64.047 102.612 64.2215 102.712 64.412 102.768C64.7776 102.843 65.1404 102.649 65.5033 102.555C65.8661 102.46 66.3508 102.532 66.4588 102.892C66.4732 103.044 66.4991 103.194 66.5363 103.341C66.6305 103.529 66.8659 103.59 67.0487 103.693C67.6442 104.028 67.7107 104.842 67.7079 105.521C67.7179 105.688 67.6934 105.856 67.6359 106.014C67.6077 106.094 67.5556 106.163 67.4868 106.213C67.418 106.262 67.3357 106.289 67.2509 106.291C67.0847 106.274 66.949 106.069 67.0404 105.931" fill="white"/>
<path d="M30.0179 76.3534L22.5896 80.1562C22.9995 86.7148 22.4732 96.9101 22.1547 100.707L19.8947 102.145C19.4238 106.28 23.5894 115.6 27.7052 116.76C31.821 117.921 35.7705 116.708 36.8452 114.326C39.6149 108.166 33.6185 87.2217 33.6185 87.2217L30.0179 76.3534Z" fill="#FFBE9D"/>
<path d="M30.0179 76.3534L22.5896 80.1562C22.9995 86.7148 22.4732 96.9101 22.1547 100.707L19.8947 102.145C19.4238 106.28 23.5894 115.6 27.7052 116.76C31.821 117.921 35.7705 116.708 36.8452 114.326C39.6149 108.166 33.6185 87.2217 33.6185 87.2217L30.0179 76.3534Z" fill="#FFBE9D"/>
<path d="M30.0179 76.3533C30.0179 76.3533 29.3837 73.6113 28.1179 72.4508C28.1179 72.4508 26.2595 71.7639 24.5589 71.2211C22.8583 70.6782 20.1274 71.2986 17.7925 71.2211C15.4577 71.1435 5.25134 70.2572 5.25134 70.2572C5.25134 70.2572 4.17116 70.2572 3.66984 70.7197C3.66984 70.7197 0.900151 70.0245 0 72.4203V72.8441L0.733969 73.3066C0.733969 73.3066 4.13238 73.2651 4.86635 73.3066C5.60032 73.3482 12.976 76.3533 12.976 76.3533C12.976 76.3533 15.1004 77.5941 16.3357 77.6329C17.5709 77.6717 17.1832 77.5553 19.7728 78.0179C22.3625 78.4804 22.5896 80.1561 22.5896 80.1561L30.0179 76.3533Z" fill="#FFBE9D"/>
<path d="M19.3076 74.5058C19.2605 74.5194 19.2123 74.5287 19.1635 74.5335C19.0666 74.5335 18.9254 74.5612 18.7426 74.5751C18.2256 74.6145 17.707 74.6265 17.1888 74.6111C16.8288 74.6057 16.4698 74.5752 16.1141 74.5197C15.7319 74.4532 15.3303 74.3507 14.9121 74.2427C14.0812 74.0073 13.1699 73.7081 12.2282 73.373C11.8405 73.2345 11.461 73.096 11.0954 72.9576H11.1204L8.53901 72.9548H8.47253V72.8883C8.50881 72.4019 8.70337 71.9408 9.02647 71.5755C9.28096 71.3026 9.6044 71.1036 9.96263 70.9994C10.1883 70.9307 10.4221 70.8925 10.6578 70.8858C10.7402 70.8773 10.8234 70.882 10.9043 70.8997C10.592 70.9155 10.2829 70.9713 9.98479 71.0659C9.645 71.1774 9.34038 71.376 9.10125 71.642C8.80326 71.9965 8.62661 72.4372 8.59717 72.8994L8.53624 72.8329H11.1231H11.137L12.2642 73.2456C13.2059 73.578 14.1089 73.8799 14.937 74.1236C15.3525 74.2427 15.7485 74.3479 16.1224 74.42C16.4725 74.4773 16.8259 74.5124 17.1804 74.5252C17.8341 74.5584 18.3631 74.5474 18.7287 74.5252L19.1497 74.5086C19.2019 74.5001 19.2551 74.4992 19.3076 74.5058Z" fill="#EB996E"/>
<path d="M17.089 76.2396C17.034 76.2393 16.9791 76.2328 16.9256 76.2202C16.8176 76.2036 16.6486 76.1759 16.4603 76.1344C16.0587 76.0513 15.4798 75.9211 14.7708 75.73C13.3471 75.3533 11.4471 74.647 9.356 73.8494C8.76052 73.6167 8.18165 73.3896 7.63049 73.157C7.35352 73.0406 7.07655 72.9298 6.82727 72.7997C6.58201 72.6887 6.32156 72.6149 6.05453 72.5809C5.56392 72.5075 5.06878 72.4686 4.57274 72.4645C4.11574 72.4645 3.70029 72.4645 3.34023 72.4645H3.29869V72.423C3.21052 71.979 3.24012 71.5197 3.38455 71.0908C3.50641 70.7944 3.66151 70.7002 3.66151 70.7113C3.63188 70.74 3.60413 70.7705 3.57842 70.8027C3.50869 70.8953 3.45357 70.9981 3.41501 71.1074C3.29358 71.5312 3.2793 71.9785 3.37347 72.4091L3.32638 72.3731C3.69198 72.351 4.10744 72.3371 4.56721 72.3427C5.06849 72.3407 5.56926 72.3749 6.06561 72.4451C6.34641 72.4808 6.6201 72.5592 6.87713 72.6778C7.12917 72.7997 7.4006 72.9105 7.67203 73.0268C8.22597 73.2539 8.80206 73.481 9.39755 73.7109C11.4831 74.5086 13.3776 75.2315 14.7874 75.6303C15.4909 75.8325 16.0642 75.9793 16.463 76.0762L16.92 76.1898C16.9787 76.1973 17.0357 76.2141 17.089 76.2396Z" fill="#EB996E"/>
<path d="M22.6644 79.3528C22.6736 79.3777 22.6792 79.4038 22.681 79.4303C22.681 79.4885 22.7004 79.5633 22.7114 79.6575C22.7364 79.8596 22.7807 80.156 22.8167 80.541C22.9025 81.3082 22.9884 82.4216 23.0355 83.8009C23.0826 85.1802 23.0798 86.8254 23.0023 88.6479C22.9247 90.4703 22.7751 92.47 22.5674 94.5639C22.3317 96.5251 22.2207 98.4992 22.235 100.474C22.2648 102.087 22.5451 103.685 23.066 105.211C23.4193 106.238 23.9294 107.204 24.5782 108.074C24.6918 108.232 24.8026 108.351 24.8967 108.473C24.9743 108.57 25.0565 108.662 25.1432 108.75L25.2983 108.922L25.3482 108.983C25.0497 108.716 24.777 108.421 24.5339 108.102C23.8614 107.238 23.333 106.271 22.969 105.238C22.4331 103.706 22.1442 102.098 22.1132 100.474C22.0873 98.4978 22.191 96.5215 22.4234 94.5584C22.6311 92.4673 22.7862 90.4703 22.8693 88.6506C22.9524 86.831 22.969 85.1885 22.933 83.812C22.897 82.4355 22.8278 81.3193 22.7613 80.5548C22.7336 80.1698 22.6976 79.8707 22.6837 79.6685C22.6837 79.5744 22.6837 79.4996 22.6644 79.4386C22.6599 79.4102 22.6599 79.3812 22.6644 79.3528Z" fill="#EB996E"/>
<path d="M69.9071 76.2784L77.5736 79.5522C77.6124 86.1219 78.8338 96.259 79.4071 100.029L81.7697 101.322C82.5203 105.413 79 114.996 74.9728 116.436C70.9457 117.876 66.9213 116.932 65.6944 114.628C62.5175 108.667 67.0792 87.3655 67.0792 87.3655L69.9071 76.2784Z" fill="#FFBE9D"/>
<path d="M69.907 76.2783C69.907 76.2783 70.3502 73.5086 71.5356 72.254C71.5356 72.254 73.3442 71.4424 75.0005 70.7888C76.6568 70.1351 79.432 70.5644 81.753 70.3263C84.074 70.0881 94.2 68.5232 94.2 68.5232C94.2 68.5232 95.2774 68.4484 95.8092 68.8777C95.8092 68.8777 98.5374 67.9942 99.5871 70.3235L99.6148 70.7472L98.914 71.2569C98.914 71.2569 95.5212 71.448 94.7927 71.5338C94.0643 71.6197 86.9074 75.1344 86.9074 75.1344C86.9074 75.1344 84.8745 76.5193 83.6447 76.6384C82.415 76.7575 82.7917 76.619 80.2408 77.2588C77.6899 77.8986 77.5736 79.5687 77.5736 79.5687L69.907 76.2783Z" fill="#FFBE9D"/>
<path d="M80.4651 73.7137C80.5139 73.7072 80.5632 73.7072 80.6119 73.7137L81.0329 73.6999C81.3985 73.6999 81.9275 73.6611 82.5757 73.5863C82.9281 73.5485 83.2778 73.4884 83.6226 73.4063C83.9937 73.3094 84.3815 73.1764 84.7886 73.0296C85.5974 72.7333 86.4782 72.3704 87.3922 71.9716L88.5 71.4841H88.5139L91.0952 71.3179L91.0398 71.3872C90.98 70.9277 90.7742 70.4995 90.4527 70.1658C90.1953 69.9187 89.8786 69.7423 89.5331 69.6534C89.2287 69.5791 88.9158 69.5446 88.6025 69.5509C88.6822 69.5257 88.7655 69.5145 88.849 69.5176C89.0845 69.5084 89.3202 69.5308 89.5497 69.5841C89.913 69.6654 90.2484 69.8412 90.5219 70.0937C90.8672 70.4382 91.0917 70.8851 91.1617 71.3678V71.4343H91.0925L88.5139 71.6198H88.5388C88.1815 71.7833 87.8131 71.9467 87.4309 72.1101C86.5142 72.5089 85.6306 72.869 84.8136 73.1598C84.4037 73.3038 84.0104 73.4368 83.6337 73.5282C83.2824 73.6069 82.9261 73.6615 82.5673 73.6916C82.051 73.742 81.5323 73.7651 81.0136 73.7608C80.8308 73.7608 80.6895 73.7608 80.5926 73.747C80.5488 73.7414 80.506 73.7303 80.4651 73.7137Z" fill="#EB996E"/>
<path d="M82.7944 75.2926C82.8437 75.2672 82.8957 75.2477 82.9495 75.2345L83.401 75.0904C83.7888 74.9658 84.3538 74.783 85.0407 74.5365C86.4255 74.0435 88.259 73.196 90.3031 72.257C90.8792 71.9801 91.4414 71.7197 91.9649 71.4538C92.228 71.3209 92.4911 71.1935 92.7321 71.0522C92.983 70.9214 93.2518 70.8281 93.5298 70.7753C94.0211 70.6731 94.519 70.6055 95.0199 70.5731C95.4769 70.5371 95.8923 70.5204 96.2607 70.5177L96.2164 70.5592C96.2789 70.1228 96.2332 69.6777 96.0834 69.263C96.039 69.1558 95.9772 69.0566 95.9006 68.9694C95.8726 68.9393 95.843 68.9106 95.812 68.8835C95.812 68.8835 95.9865 68.9528 96.1277 69.2408C96.3014 69.6601 96.3625 70.1174 96.305 70.5675V70.6063H96.2635C95.9006 70.6063 95.4852 70.6395 95.0309 70.6811C94.5374 70.7218 94.047 70.7948 93.563 70.8999C93.2976 70.9537 93.0418 71.0471 92.8041 71.1769C92.5548 71.3236 92.2945 71.4538 92.0286 71.5895C91.4968 71.8665 90.9346 72.1241 90.3668 72.3955C88.3366 73.3344 86.4892 74.1681 85.1044 74.6417C84.4092 74.8799 83.8386 75.0489 83.4425 75.1597C83.2459 75.2123 83.0908 75.2538 82.9855 75.276C82.923 75.2912 82.8586 75.2968 82.7944 75.2926Z" fill="#EB996E"/>
<path d="M77.4462 78.7712C77.4486 78.798 77.4486 78.8248 77.4462 78.8516C77.4462 78.9125 77.4462 78.9873 77.4462 79.0814C77.4462 79.2864 77.4296 79.5855 77.4268 79.9705C77.413 80.7405 77.4268 81.8567 77.4767 83.2332C77.5265 84.6097 77.665 86.2439 77.8728 88.0552C78.0805 89.8666 78.3713 91.847 78.7175 93.9187C79.0881 95.8681 79.3305 97.8398 79.4432 99.8209C79.522 101.443 79.3435 103.068 78.9142 104.635C78.6205 105.689 78.1595 106.69 77.5487 107.598C77.3262 107.931 77.074 108.244 76.7953 108.532C76.8081 108.508 76.8229 108.486 76.8397 108.465L76.9837 108.285C77.0474 108.208 77.1249 108.108 77.2108 107.986C77.2967 107.864 77.3991 107.731 77.5016 107.565C78.09 106.652 78.5337 105.653 78.8172 104.604C79.2292 103.045 79.3964 101.431 79.313 99.8209C79.1935 97.8491 78.9484 95.887 78.579 93.9464C78.2301 91.8719 77.942 89.886 77.7481 88.0719C77.5542 86.2577 77.4296 84.6181 77.3853 83.2388C77.341 81.8594 77.3493 80.746 77.3853 79.9705C77.3853 79.5855 77.4185 79.2864 77.4296 79.0842C77.4296 78.99 77.4435 78.9125 77.4462 78.8543C77.4432 78.8267 77.4432 78.7989 77.4462 78.7712Z" fill="#EB996E"/>
<path d="M62.4621 71.5368C62.2904 69.4679 63.3484 67.5291 64.0214 65.5681C65.3841 61.6075 65.2872 59.4028 65.5337 51.6033L59.1855 50.1326C58.975 52.7334 59.349 51.7169 59.1025 54.5309C58.8559 57.3449 58.1414 60.1645 56.6347 62.563C55.56 64.2719 54.0478 65.8562 53.8456 67.8642C53.5492 70.7696 56.1029 73.2762 56.2663 76.1927C56.4906 80.242 52.1117 83.5794 52.6408 87.5983C52.7599 88.4873 53.1781 89.4013 53.973 89.814C54.5463 90.1131 55.2221 90.1131 55.8675 90.1048L60.1272 90.0467C60.5842 90.0467 61.0883 90.0162 61.4151 89.6949C61.9442 89.1798 61.6644 88.3101 61.5564 87.5761C61.0772 84.4159 64.4618 81.8235 64.5421 78.6272C64.6058 76.1428 62.667 74.0074 62.4621 71.5368Z" fill="#263238"/>
<path d="M60.6092 25.665C60.5724 25.706 60.5316 25.7431 60.4873 25.7758C60.4014 25.845 60.2823 25.953 60.1161 26.0749C59.6488 26.4276 59.1553 26.7443 58.6399 27.0221C56.9351 27.9525 55.0357 28.4696 53.0946 28.5316C51.1535 28.5937 49.2249 28.199 47.4642 27.3794C46.9331 27.1347 46.4211 26.8505 45.9325 26.5291C45.7581 26.4183 45.6334 26.3186 45.5448 26.2522C45.4966 26.2234 45.4528 26.188 45.4146 26.1469C45.466 26.17 45.5152 26.1978 45.5614 26.23C45.6528 26.2826 45.7857 26.3768 45.963 26.4793C46.46 26.7815 46.9762 27.0507 47.5085 27.2853C49.2613 28.0695 51.1694 28.4451 53.0887 28.3836C55.008 28.3222 56.8882 27.8254 58.5873 26.9307C59.102 26.6605 59.5996 26.3589 60.0774 26.0278C60.2491 25.9143 60.3737 25.8118 60.4624 25.7508C60.5074 25.7161 60.5568 25.6872 60.6092 25.665Z" fill="white"/>
</g>
<defs>
<clipPath id="clip0_84_1184">
<rect width="100" height="112" fill="white"/>
</clipPath>
</defs>
</svg>
