<svg width="383" height="87" viewBox="0 0 383 87" fill="none" xmlns="http://www.w3.org/2000/svg">
<path d="M380.26 25.9069C378.793 25.3699 377.246 25.0842 375.684 25.0619C374.193 24.9479 373.728 24.6536 373.443 24.3308C372.022 22.285 369.945 20.7852 367.556 20.0792C365.167 19.3731 362.608 19.5031 360.303 20.4476C359.43 16.8967 355.129 13.8015 350.4 14.8554C350.562 10.2317 344.704 5.27559 339.368 4.14576C334.288 3.0634 329.874 3.51913 326.959 6.86115C323.854 0.794239 311.692 -0.914751 305.122 2.29435C301.324 4.13626 298.124 6.03514 296.577 9.50059C295.542 11.646 295.053 14.0137 295.153 16.3935C292.589 14.1338 287.453 13.5452 284.025 14.8459C280.332 16.2796 280.047 19.0614 279.867 21.8908C277.676 21.2535 275.355 21.2142 273.145 21.7768C270.809 22.4604 269.47 24.2928 269.793 25.7645C267.951 25.66 263.565 27.1506 264.097 29.097C264.666 31.2807 269.67 31.0623 271.54 30.9959C273.305 30.8577 275.057 30.5848 276.781 30.1793C277.653 30.5047 278.575 30.6781 279.506 30.692C282.696 30.692 284.044 29.3059 284.557 28.1191C286.114 31.3946 291.659 33.8917 295.57 34.8981C302.948 36.7969 313.382 35.6291 317.93 30.1509C318.463 31.1885 319.211 32.1011 320.123 32.8283C322.079 34.3972 324.453 35.3578 326.949 35.5912C329.978 35.876 338.105 36.2653 340.393 31.4421C342.017 34.6512 349.252 36.1038 354.758 35.3253C356.892 34.9896 358.967 34.3502 360.92 33.4264C362.141 32.7873 363.324 32.0771 364.462 31.2997C365.544 30.6541 366.038 30.6636 367.481 31.1003C371.279 32.2301 375.646 32.6954 379.501 31.1003C382.51 29.7901 383.147 27.2171 380.26 25.9069Z" fill="white"/>
<path d="M106.081 39.7781C104.745 39.2783 103.331 39.018 101.904 39.0091C100.546 38.8952 100.119 38.6293 99.8627 38.335C98.5641 36.4695 96.6687 35.1022 94.4889 34.4584C92.3091 33.8146 89.9749 33.9328 87.8713 34.7936C87.0737 31.556 83.1241 28.7362 78.8326 29.6856C78.9845 25.4701 73.6012 20.9508 68.7686 19.9159C64.1353 18.9664 60.0907 19.3462 57.4513 22.3939C54.6029 16.8682 43.523 15.3111 37.513 18.2354C34.0666 19.9159 31.1328 21.6439 29.6992 24.8055C28.7571 26.7657 28.3105 28.9272 28.3984 31.1003C26.0628 29.0305 21.3726 28.4798 18.2489 29.6856C14.8784 30.9863 14.6221 33.4833 14.4512 36.1133C12.4525 35.5353 10.3366 35.496 8.31781 35.9994C6.20057 36.6355 4.97579 38.297 5.26062 39.6452C3.58012 39.5503 -0.436009 40.908 0.0387104 42.6834C0.560901 44.6772 5.09922 44.4589 6.83669 44.4589C8.43573 44.3288 10.0226 44.0781 11.5839 43.7088C12.3807 44.0051 13.2215 44.1656 14.0714 44.1835C16.9862 44.1835 18.211 42.9113 18.6857 41.8289C20.1003 44.8196 25.1609 47.0983 28.7307 48.0098C35.4812 49.6903 44.9756 48.6364 49.1532 43.6044C49.6399 44.5536 50.3227 45.3885 51.1565 46.0539C52.9405 47.4859 55.1067 48.361 57.3848 48.5699C60.1477 48.8358 67.5628 49.1871 69.6515 44.7722C71.1327 47.6964 77.7312 49.0257 82.7538 48.3136C84.699 48.0191 86.5919 47.4468 88.3745 46.6141C89.4887 46.0428 90.5696 45.4088 91.612 44.7152C92.5615 44.1171 93.0457 44.1266 94.3654 44.5253C97.8119 45.5602 101.809 45.9875 105.322 44.5253C108.132 43.3195 108.711 40.9649 106.081 39.7781Z" fill="white"/>
<path d="M355.11 80.1673C354.198 79.8278 353.234 79.6511 352.261 79.6451C351.312 79.5691 351.046 79.3888 350.866 79.1799C349.98 77.9088 348.688 76.9774 347.202 76.5391C345.716 76.1007 344.125 76.1816 342.691 76.7683C342.289 75.5198 341.432 74.4682 340.291 73.8226C339.149 73.1771 337.806 72.9847 336.529 73.2839C336.624 70.4356 332.959 67.3214 329.655 66.6378C326.494 65.9637 323.74 66.2485 321.936 68.3278C320.037 64.53 312.442 63.4952 308.331 65.4795C305.976 66.6283 303.982 67.8056 303.004 69.9608C302.36 71.2968 302.054 72.7703 302.112 74.2523C300.517 72.8471 297.317 72.4673 295.191 73.3029C292.893 74.1858 292.713 75.9233 292.599 77.6893C291.234 77.2951 289.789 77.2689 288.412 77.6133C286.968 78.0405 286.133 79.1799 286.332 80.1008C285.183 80.0344 282.459 80.9553 282.772 82.1706C283.123 83.5283 286.237 83.3859 287.405 83.3479C288.502 83.2587 289.591 83.0874 290.662 82.8352C291.205 83.0396 291.78 83.1488 292.361 83.158C294.346 83.158 295.21 82.294 295.504 81.5535C296.453 83.5948 299.919 85.1518 302.359 85.769C306.954 86.9463 313.448 86.2342 316.278 82.7972C316.608 83.4461 317.074 84.0161 317.645 84.4682C318.86 85.445 320.336 86.0427 321.889 86.1867C323.788 86.3671 328.829 86.6045 330.263 83.6043C331.269 85.5981 335.77 86.5095 339.197 86.0253C340.511 85.8184 341.789 85.4286 342.995 84.867C343.756 84.4705 344.492 84.0265 345.197 83.5378C345.473 83.3463 345.795 83.2336 346.13 83.2119C346.464 83.1901 346.799 83.2601 347.096 83.4144C349.516 84.274 352.158 84.274 354.578 83.4144C356.505 82.5884 356.904 80.9838 355.11 80.1673Z" fill="white"/>
<path opacity="0.8" d="M380.26 25.9069C378.793 25.3699 377.246 25.0842 375.684 25.0619C374.193 24.9479 373.728 24.6536 373.443 24.3308C372.022 22.285 369.945 20.7852 367.556 20.0792C365.167 19.3731 362.608 19.5031 360.303 20.4476C359.43 16.8967 355.129 13.8015 350.4 14.8554C350.562 10.2317 344.704 5.27559 339.368 4.14576C334.288 3.0634 329.874 3.51913 326.959 6.86115C323.854 0.794239 311.692 -0.914751 305.122 2.29435C301.324 4.13626 298.124 6.03514 296.577 9.50059C295.542 11.646 295.053 14.0137 295.153 16.3935C292.589 14.1338 287.453 13.5452 284.025 14.8459C280.332 16.2796 280.047 19.0614 279.867 21.8908C277.676 21.2535 275.355 21.2142 273.145 21.7768C270.809 22.4604 269.47 24.2928 269.793 25.7645C267.951 25.66 263.565 27.1506 264.097 29.097C264.666 31.2807 269.67 31.0623 271.54 30.9959C273.305 30.8577 275.057 30.5848 276.781 30.1793C277.653 30.5047 278.575 30.6781 279.506 30.692C282.696 30.692 284.044 29.3059 284.557 28.1191C286.114 31.3946 291.659 33.8917 295.57 34.8981C302.948 36.7969 313.382 35.6291 317.93 30.1509C318.463 31.1885 319.211 32.1011 320.123 32.8283C322.079 34.3972 324.453 35.3578 326.949 35.5912C329.978 35.876 338.105 36.2653 340.393 31.4421C342.017 34.6512 349.252 36.1038 354.758 35.3253C356.892 34.9896 358.967 34.3502 360.92 33.4264C362.141 32.7873 363.324 32.0771 364.462 31.2997C365.544 30.6541 366.038 30.6636 367.481 31.1003C371.279 32.2301 375.646 32.6954 379.501 31.1003C382.51 29.7901 383.147 27.2171 380.26 25.9069Z" fill="white"/>
<path opacity="0.8" d="M106.081 39.7781C104.745 39.2783 103.331 39.018 101.904 39.0091C100.546 38.8952 100.119 38.6293 99.8627 38.335C98.5641 36.4695 96.6687 35.1022 94.4889 34.4584C92.309 33.8146 89.9749 33.9328 87.8713 34.7936C87.0737 31.556 83.1241 28.7362 78.8326 29.6856C78.9845 25.4701 73.6012 20.9508 68.7686 19.9159C64.1353 18.9664 60.0907 19.3462 57.4513 22.3939C54.6029 16.8682 43.523 15.3111 37.513 18.2354C34.0666 19.9159 31.1328 21.6439 29.6992 24.8055C28.7571 26.7657 28.3105 28.9272 28.3984 31.1003C26.0628 29.0305 21.3726 28.4798 18.2489 29.6856C14.8784 30.9863 14.6221 33.4834 14.4512 36.1133C12.4525 35.5353 10.3366 35.496 8.31781 35.9994C6.20057 36.6355 4.97579 38.297 5.26062 39.6452C3.58012 39.5503 -0.436009 40.908 0.0387104 42.6834C0.560901 44.6772 5.09922 44.4589 6.83669 44.4589C8.43573 44.3288 10.0226 44.0781 11.5839 43.7088C12.3807 44.0051 13.2215 44.1656 14.0714 44.1835C16.9862 44.1835 18.211 42.9113 18.6857 41.8289C20.1003 44.8197 25.1609 47.0983 28.7307 48.0098C35.4812 49.6903 44.9756 48.6364 49.1532 43.6044C49.6399 44.5536 50.3227 45.3885 51.1565 46.0539C52.9405 47.4859 55.1067 48.361 57.3848 48.5699C60.1477 48.8358 67.5628 49.1871 69.6515 44.7722C71.1327 47.6964 77.7312 49.0257 82.7538 48.3136C84.699 48.0191 86.5919 47.4468 88.3745 46.6141C89.4887 46.0428 90.5696 45.4088 91.612 44.7152C92.5615 44.1171 93.0457 44.1266 94.3654 44.5253C97.8119 45.5602 101.809 45.9875 105.322 44.5253C108.132 43.3195 108.711 40.9649 106.081 39.7781Z" fill="white"/>
<path opacity="0.8" d="M355.11 80.1673C354.198 79.8278 353.234 79.6511 352.261 79.6451C351.312 79.5691 351.046 79.3888 350.866 79.1799C349.98 77.9088 348.688 76.9774 347.202 76.5391C345.716 76.1007 344.125 76.1816 342.691 76.7683C342.289 75.5198 341.432 74.4682 340.291 73.8226C339.149 73.1771 337.806 72.9847 336.529 73.2839C336.624 70.4356 332.959 67.3214 329.655 66.6378C326.494 65.9637 323.74 66.2485 321.936 68.3278C320.037 64.53 312.442 63.4952 308.331 65.4795C305.976 66.6283 303.982 67.8056 303.004 69.9608C302.36 71.2968 302.054 72.7703 302.112 74.2523C300.517 72.8471 297.317 72.4673 295.191 73.3029C292.893 74.1858 292.713 75.9233 292.599 77.6893C291.234 77.2951 289.789 77.2689 288.412 77.6133C286.968 78.0405 286.133 79.1799 286.332 80.1008C285.183 80.0344 282.459 80.9553 282.772 82.1706C283.123 83.5283 286.237 83.3859 287.405 83.3479C288.502 83.2587 289.591 83.0874 290.662 82.8352C291.205 83.0396 291.78 83.1488 292.361 83.158C294.346 83.158 295.21 82.294 295.504 81.5535C296.453 83.5948 299.919 85.1518 302.359 85.769C306.954 86.9463 313.448 86.2342 316.278 82.7972C316.608 83.4461 317.074 84.0161 317.645 84.4682C318.86 85.445 320.336 86.0427 321.889 86.1867C323.788 86.3671 328.829 86.6045 330.263 83.6043C331.269 85.5981 335.77 86.5095 339.197 86.0253C340.511 85.8184 341.789 85.4286 342.995 84.867C343.756 84.4705 344.492 84.0265 345.197 83.5378C345.473 83.3463 345.795 83.2336 346.13 83.2119C346.464 83.1901 346.799 83.2601 347.096 83.4144C349.516 84.274 352.158 84.274 354.578 83.4144C356.505 82.5884 356.904 80.9838 355.11 80.1673Z" fill="white"/>
</svg>
