<svg width="61" height="32" viewBox="0 0 61 32" fill="none" xmlns="http://www.w3.org/2000/svg">
<path d="M37.0474 24.4736C35.8908 24.4736 34.8006 24.2523 33.7769 23.8096C32.7586 23.3669 31.8594 22.7554 31.0791 21.9751C30.2988 21.1948 29.6873 20.2956 29.2446 19.2773C28.8019 18.2536 28.5806 17.1634 28.5806 16.0068C28.5806 14.8503 28.8019 13.7629 29.2446 12.7446C29.6873 11.7209 30.2961 10.8188 31.0708 10.0386C31.8511 9.2583 32.7503 8.64681 33.7686 8.2041C34.7923 7.76139 35.8825 7.54004 37.0391 7.54004C38.1956 7.54004 39.2858 7.76139 40.3096 8.2041C41.3333 8.64681 42.2354 9.2583 43.0156 10.0386C43.7959 10.8188 44.4074 11.7209 44.8501 12.7446C45.2928 13.7629 45.5142 14.8503 45.5142 16.0068C45.5142 17.1634 45.2928 18.2536 44.8501 19.2773C44.4074 20.2956 43.7959 21.1948 43.0156 21.9751C42.2354 22.7554 41.3333 23.3669 40.3096 23.8096C39.2913 24.2523 38.2039 24.4736 37.0474 24.4736ZM37.0474 23.0625C38.0269 23.0625 38.9427 22.8799 39.7949 22.5146C40.6471 22.1494 41.397 21.6458 42.0444 21.0039C42.6919 20.3564 43.1955 19.6066 43.5552 18.7544C43.9204 17.9022 44.103 16.9863 44.103 16.0068C44.103 15.0273 43.9204 14.1115 43.5552 13.2593C43.1899 12.4071 42.6836 11.6572 42.0361 11.0098C41.3942 10.3623 40.6444 9.85872 39.7866 9.49902C38.9344 9.13379 38.0186 8.95117 37.0391 8.95117C36.0596 8.95117 35.1437 9.13379 34.2915 9.49902C33.4393 9.85872 32.6922 10.3623 32.0503 11.0098C31.4084 11.6572 30.9048 12.4071 30.5396 13.2593C30.1799 14.1115 30 15.0273 30 16.0068C30 16.9863 30.1799 17.9022 30.5396 18.7544C30.9048 19.6066 31.4084 20.3564 32.0503 21.0039C32.6978 21.6458 33.4476 22.1494 34.2998 22.5146C35.152 22.8799 36.0679 23.0625 37.0474 23.0625ZM37.0391 17.501C36.613 17.501 36.3944 17.2824 36.3833 16.8452L36.2754 12.4541C36.2699 12.2438 36.3363 12.0695 36.4746 11.9312C36.6185 11.7928 36.8039 11.7236 37.0308 11.7236C37.2521 11.7236 37.4347 11.7956 37.5786 11.9395C37.728 12.0778 37.8 12.2521 37.7944 12.4624L37.6699 16.8452C37.6644 17.2824 37.4541 17.501 37.0391 17.501ZM37.0391 20.1987C36.7956 20.1987 36.5853 20.1157 36.4082 19.9497C36.2311 19.7782 36.1426 19.5734 36.1426 19.3354C36.1426 19.0975 36.2311 18.8955 36.4082 18.7295C36.5853 18.5579 36.7956 18.4722 37.0391 18.4722C37.2826 18.4722 37.4928 18.5552 37.6699 18.7212C37.847 18.8872 37.9355 19.092 37.9355 19.3354C37.9355 19.5789 37.8442 19.7837 37.6616 19.9497C37.4845 20.1157 37.277 20.1987 37.0391 20.1987Z" fill="#BDBDBD"/>
</svg>
