<svg width="100" height="112" viewBox="0 0 100 112" fill="none" xmlns="http://www.w3.org/2000/svg">
<g clip-path="url(#clip0_147_9963)">
<path d="M57.6722 22.2511C51.8765 20.0217 45.9996 25.5971 46.4671 35.9483C46.8187 43.6759 39.4272 42.8336 43.2911 49.7151C47.1549 56.5965 44.2918 61.2524 40.2 60.0005C43.2911 63.8952 52.4212 60.8892 52.4483 54.5371C52.4753 48.185 68.1045 57.4543 68.1045 57.4543C68.1045 57.4543 64.9323 63.0336 73.7881 61.7392C82.644 60.4449 90.3291 42.6366 90.36 34.7273C90.3832 29.4841 84.7807 27.0615 81.9485 27.5754C81.8442 20.8794 54.9675 8.43023 57.6722 22.2511Z" fill="#263238"/>
<path d="M42.1396 59.6915C41.3265 59.6922 40.5232 59.5141 39.7866 59.1699L39.9604 58.826C39.9604 58.826 41.7378 59.7147 43.4379 59.1003C44.4656 58.714 45.2654 57.8794 45.818 56.5773L46.1734 56.728C45.5784 58.1344 44.7013 59.0462 43.5654 59.4635C43.107 59.6219 42.6245 59.6991 42.1396 59.6915Z" fill="#263238"/>
<path d="M43.8011 44.6496L43.4997 44.4101C45.6364 41.7479 45.4046 39.3214 45.1341 36.5124C44.8907 33.9546 44.6125 31.0529 46.1773 27.5136C47.9353 23.5416 50.3116 21.1808 53.051 20.6863C55.3384 20.269 57.7649 21.2349 59.8861 23.3909L59.6118 23.6614C57.5833 21.5904 55.2766 20.6631 53.1206 21.0533C50.5125 21.5247 48.2329 23.8121 46.5521 27.6605C45.0066 31.107 45.3002 33.9507 45.5398 36.4622C45.7832 39.248 46.0344 41.8677 43.8011 44.6496Z" fill="#263238"/>
<path d="M12.0792 87.2094L10.6457 82.7892C10.267 81.6192 9.56021 80.5825 8.60948 79.8025L6.94804 78.4347C6.39304 78.1716 5.77106 78.084 5.16499 78.1834C4.55891 78.2828 3.99752 78.5645 3.55561 78.9911L0.932085 81.5103C0.382139 82.0385 0.0513118 82.7544 0.00548626 83.5156C-0.0403393 84.2767 0.2022 85.0272 0.684802 85.6175L1.80917 86.9892C1.80917 86.9892 5.19387 92.2285 9.51361 93.8899L10.3791 92.9356C11.0719 92.1685 11.5842 91.2561 11.8784 90.2652C12.1726 89.2744 12.2412 88.2302 12.0792 87.2094Z" fill="#EB996E"/>
<path d="M52.2281 84.1648L52.0117 84.8023L51.8146 85.3664L51.4283 86.4676C51.1616 87.1979 50.8719 87.905 50.5859 88.612C50.0102 90.0301 49.3843 91.4133 48.7352 92.7888C48.0861 94.1643 47.3983 95.5205 46.6758 96.8651C45.9532 98.2097 45.2152 99.5389 44.4077 100.845C42.8104 103.487 41.057 106.031 39.1568 108.464C37.2205 110.961 35.0886 113.299 32.7815 115.458C32.4878 115.728 32.1981 116.003 31.8967 116.269L30.981 117.061L30.753 117.258L30.6371 117.359L30.355 117.594C29.8355 118.013 29.2672 118.367 28.6627 118.649C27.9875 118.963 27.2704 119.176 26.5337 119.283C25.8397 119.384 25.1353 119.39 24.4395 119.302C23.3968 119.168 22.3873 118.845 21.4605 118.348C20.8274 118.008 20.2306 117.604 19.6793 117.142C18.8638 116.463 18.117 115.704 17.4499 114.878C16.3839 113.556 15.4252 112.15 14.5829 110.674C13.7909 109.295 13.0915 107.927 12.4308 106.563C11.1326 103.824 10.0121 101.088 9.01132 98.3218C8.0106 95.5553 7.11419 92.7927 6.36075 89.8987C6.17846 89.142 6.27086 88.3451 6.62147 87.6502C6.97208 86.9553 7.55811 86.4074 8.27507 86.1044C8.99202 85.8014 9.7933 85.7628 10.536 85.9957C11.2788 86.2285 11.9147 86.7175 12.3303 87.3756L12.369 87.4413C15.263 92.217 18.1299 97.1317 21.1785 101.575C21.9319 102.688 22.7047 103.766 23.4968 104.759C24.1973 105.685 24.9644 106.56 25.7919 107.375C26.0529 107.635 26.3464 107.861 26.6651 108.047C26.7501 108.09 26.7849 108.047 26.6651 107.997C26.3743 107.826 26.0502 107.719 25.7146 107.684C25.3736 107.637 25.0278 107.637 24.6868 107.684C24.3028 107.736 23.9281 107.843 23.574 108.001C23.2909 108.127 23.0237 108.287 22.7781 108.476L22.7085 108.534L22.6776 108.557L22.6969 108.538L22.7781 108.453L22.9442 108.287L23.5972 107.622L24.2309 106.934C25.9393 105.038 27.5217 103.033 28.9679 100.93C30.4246 98.7854 31.8271 96.5715 33.1022 94.2532C34.3772 91.9349 35.5866 89.5703 36.7149 87.1592C37.279 85.9499 37.8122 84.7328 38.3338 83.5157L39.1066 81.692L39.4659 80.7917L39.775 79.9841L39.8755 79.7214C40.4647 78.0818 41.6811 76.7434 43.2571 76.0007C44.8331 75.258 46.6396 75.1718 48.2792 75.761C49.9188 76.3502 51.2572 77.5667 51.9999 79.1427C52.7426 80.7187 52.8289 82.5252 52.2397 84.1648H52.2281Z" fill="#EB996E"/>
<path d="M38.1831 85.749C38.3492 89.5587 32.3371 98.3643 39.7595 103.468C40.6327 111.161 41.7262 118.734 43.7779 131.35H82.5087C80.9168 120.438 81.2646 108.005 86.3726 83.4384C86.6536 82.0948 86.649 80.7072 86.3588 79.3655C86.0687 78.0239 85.4996 76.7583 84.6884 75.6509C83.8773 74.5436 82.8423 73.6192 81.6507 72.9379C80.4591 72.2566 79.1375 71.8336 77.7717 71.6963C76.2262 71.5417 74.5879 71.4104 72.911 71.3099C66.3966 70.9969 61.053 70.7883 55.323 71.3099C53.4258 71.4838 51.4591 71.7233 49.5891 71.9861C46.3175 72.4523 43.3368 74.1203 41.2281 76.6647C39.1194 79.2091 38.0338 82.4477 38.1831 85.749Z" fill="#263238"/>
<mask id="mask0_147_9963" style="mask-type:luminance" maskUnits="userSpaceOnUse" x="36" y="70" width="51" height="62">
<path d="M38.1831 85.749C38.3492 89.5587 32.3371 98.3643 39.7595 103.468C40.6327 111.161 41.7262 118.734 43.7779 131.35H82.5087C80.9168 120.438 81.2646 108.005 86.3726 83.4384C86.6536 82.0948 86.649 80.7072 86.3588 79.3655C86.0687 78.0239 85.4996 76.7583 84.6884 75.6509C83.8773 74.5436 82.8423 73.6192 81.6507 72.9379C80.4591 72.2566 79.1375 71.8336 77.7717 71.6963C76.2262 71.5417 74.5879 71.4104 72.911 71.3099C66.3966 70.9969 61.053 70.7883 55.323 71.3099C53.4258 71.4838 51.4591 71.7233 49.5891 71.9861C46.3175 72.4523 43.3368 74.1203 41.2281 76.6647C39.1194 79.2091 38.0338 82.4477 38.1831 85.749Z" fill="white"/>
</mask>
<g mask="url(#mask0_147_9963)">
<path opacity="0.2" d="M38.0517 80.6255C39.8483 82.5033 42.526 83.2104 43.8474 82.6269C45.1688 82.0435 43.5692 81.433 42.1434 81.3596C40.7177 81.2862 42.9742 80.7452 45.3813 81.008C47.7885 81.2707 47.5798 79.5707 44.9949 79.1263C42.41 78.682 45.0336 78.4811 47.178 78.6356C49.3224 78.7902 49.562 77.2562 46.9732 76.7037C44.3845 76.1512 51.7373 76.5414 49.2915 73.999C46.8457 71.4567 45.5706 77.4108 45.5591 75.2355C45.5475 73.0601 43.6658 72.8708 43.3219 74.6057C42.978 76.3405 42.0971 78.3536 42.2014 76.2053C42.3057 74.057 40.3352 73.4813 40.057 75.4325C39.7788 77.3837 38.581 79.049 38.8438 77.9015C39.1065 76.7539 38.7742 75.3514 37.7542 76.2478C36.7341 77.1442 36.2589 78.7477 38.0517 80.6255Z" fill="white"/>
<path opacity="0.2" d="M58.5376 82.994C56.7216 81.1355 54.0362 80.4555 52.7418 81.0621C51.4475 81.6688 53.0278 82.2483 54.4574 82.3101C55.887 82.372 53.6305 82.9322 51.2234 82.6965C48.8162 82.4608 49.0364 84.157 51.6097 84.5705C54.183 84.9839 51.5788 85.2196 49.4306 85.0882C47.2823 84.9568 47.062 86.4908 49.6546 87.0201C52.2473 87.5495 44.8944 87.2326 47.3634 89.7634C49.8324 92.2942 51.0495 86.3092 51.0804 88.4845C51.1113 90.6598 53.0123 90.8299 53.3253 89.0911C53.6382 87.3524 54.5115 85.3316 54.4303 87.4799C54.3492 89.6282 56.3275 90.1846 56.5825 88.2179C56.8375 86.2512 58.0198 84.5859 57.7725 85.7335C57.5252 86.881 57.8653 88.2875 58.8776 87.3795C59.8899 86.4715 60.3497 84.8525 58.5376 82.994Z" fill="white"/>
<path opacity="0.2" d="M32.7544 92.8159C34.5511 94.6937 37.2326 95.4046 38.5501 94.8173C39.8677 94.23 38.2758 93.6273 36.8462 93.5539C35.4166 93.4805 37.6769 92.9395 40.0841 93.2023C42.4912 93.465 42.2865 91.7611 39.6977 91.3206C37.1089 90.8801 39.7325 90.6715 41.8808 90.826C44.029 90.9806 44.2609 89.4466 41.676 88.8941C39.0911 88.3416 46.4362 88.7357 43.9943 86.1894C41.5523 83.6432 40.2734 89.6051 40.2618 87.4297C40.2502 85.2544 38.3685 85.0651 38.0247 86.7961C37.6808 88.5271 36.7998 90.544 36.9042 88.3995C37.0085 86.2551 35.0379 85.6717 34.7597 87.6268C34.4816 89.5819 33.2838 91.2395 33.5465 90.0958C33.8093 88.9521 33.477 87.5418 32.4569 88.4421C31.4369 89.3423 30.9616 90.9419 32.7544 92.8159Z" fill="white"/>
<path opacity="0.2" d="M53.2403 95.1845C51.4243 93.326 48.739 92.6459 47.4446 93.2526C46.1502 93.8592 47.7344 94.4426 49.1601 94.5006C50.5859 94.5585 48.3372 95.1227 45.9261 94.887C43.5151 94.6513 43.7431 96.3475 46.3125 96.7648C48.882 97.1821 46.2816 97.41 44.1333 97.2787C41.985 97.1473 41.7687 98.6851 44.3574 99.2106C46.9462 99.736 39.5972 99.4192 42.0701 101.95C44.5429 104.481 45.7523 98.4996 45.787 100.671C45.8218 102.843 47.7189 103.016 48.0319 101.282C48.3449 99.5467 49.2181 97.5182 49.1331 99.6665C49.0481 101.815 51.0302 102.371 51.2891 100.404C51.548 98.4378 52.7226 96.7764 52.4753 97.9239C52.228 99.0715 52.568 100.474 53.5803 99.566C54.5927 98.658 55.0563 97.0352 53.2403 95.1845Z" fill="white"/>
<path opacity="0.2" d="M64.9283 84.1455C66.7212 86.0233 69.4026 86.7304 70.7241 86.147C72.0455 85.5635 70.4497 84.953 69.024 84.8796C67.5982 84.8062 69.8547 84.2653 72.258 84.528C74.6613 84.7908 74.4604 83.0907 71.8716 82.6463C69.2829 82.202 71.9064 82.0011 74.0547 82.1556C76.2029 82.3102 76.4348 80.7763 73.8499 80.2237C71.265 79.6712 78.614 80.0614 76.1682 77.5191C73.7224 74.9767 72.4512 80.9308 72.4396 78.7555C72.428 76.5802 70.5425 76.3908 70.2024 78.1257C69.8624 79.8605 68.9738 81.8736 69.0781 79.7253C69.1824 77.577 67.2119 77.0013 66.9337 78.9525C66.6555 80.9038 65.4577 82.5691 65.7204 81.4215C65.9832 80.274 65.6547 78.8714 64.6308 79.7678C63.6069 80.6642 63.1317 82.2677 64.9283 84.1455Z" fill="white"/>
<path opacity="0.2" d="M85.4104 86.5139C83.5982 84.6554 80.909 83.9754 79.5953 84.582C78.2816 85.1886 79.8851 85.7682 81.3109 85.83C82.7366 85.8919 80.4879 86.4521 78.0769 86.2164C75.6658 85.9807 75.8938 87.6769 78.4632 88.0942C81.0327 88.5115 78.4323 88.7395 76.2879 88.6081C74.1435 88.4768 73.9194 90.0107 76.512 90.54C79.1046 91.0694 71.7518 90.7487 74.2208 93.2795C76.6897 95.8103 77.903 89.8252 77.9378 92.0006C77.9725 94.1759 79.8697 94.3459 80.1826 92.6072C80.4956 90.8685 81.3688 88.8477 81.2877 90.996C81.2065 93.1442 83.181 93.7006 83.4398 91.734C83.6987 89.7673 84.8772 88.1058 84.626 89.2534C84.3749 90.4009 84.7226 91.8035 85.7311 90.8955C86.7395 89.9875 87.2264 88.3724 85.4104 86.5139Z" fill="white"/>
<path opacity="0.2" d="M59.631 96.3396C61.4277 98.2136 64.1053 98.9245 65.4267 98.3372C66.7482 97.7499 65.1485 97.1472 63.7228 97.0738C62.2971 97.0004 64.5535 96.4594 66.9607 96.7222C69.3678 96.9849 69.1592 95.2848 66.5743 94.8405C63.9894 94.3961 66.6129 94.1914 68.7573 94.3459C70.9018 94.5005 71.1413 92.9704 68.5526 92.414C65.9638 91.8576 73.3166 92.2556 70.8709 89.7093C68.4251 87.1631 67.15 93.1249 67.1384 90.9496C67.1268 88.7743 65.2451 88.585 64.9013 90.316C64.5574 92.0469 63.6764 94.0639 63.7808 91.9194C63.8851 89.775 61.9145 89.1916 61.6325 91.1467C61.3504 93.1018 60.1604 94.7593 60.4192 93.6157C60.6781 92.472 60.3536 91.0617 59.3335 91.9619C58.3135 92.8622 57.8382 94.4618 59.631 96.3396Z" fill="white"/>
<path opacity="0.2" d="M47.6532 108.302C45.8372 106.444 43.1519 105.763 41.8382 106.37C40.5245 106.977 42.128 107.556 43.5537 107.618C44.9795 107.68 42.7307 108.24 40.3197 108.005C37.9087 107.769 38.1366 109.465 40.7061 109.878C43.2755 110.292 40.6752 110.528 38.5269 110.396C36.3786 110.265 36.1622 111.799 38.751 112.328C41.3397 112.857 33.9908 112.541 36.4636 115.071C38.9364 117.602 40.1458 111.617 40.1806 113.792C40.2154 115.968 42.1125 116.138 42.4216 114.399C42.7307 112.66 43.6117 110.64 43.5267 112.788C43.4417 114.936 45.4238 115.493 45.6827 113.526C45.9415 111.559 47.1161 109.894 46.8689 111.041C46.6216 112.189 46.9616 113.595 47.9739 112.687C48.9862 111.779 49.4692 110.172 47.6532 108.302Z" fill="white"/>
<path opacity="0.2" d="M54.044 109.453C55.8368 111.331 58.5183 112.038 59.8397 111.455C61.1611 110.872 59.5615 110.261 58.1358 110.188C56.71 110.114 58.9665 109.573 61.3737 109.836C63.7808 110.099 63.5722 108.399 60.9873 107.954C58.4024 107.51 61.0259 107.309 63.1703 107.464C65.3147 107.618 65.5543 106.084 62.9655 105.532C60.3768 104.979 67.7296 105.369 65.2838 102.827C62.838 100.285 61.563 106.239 61.5514 104.063C61.5398 101.888 59.6581 101.699 59.3142 103.434C58.9704 105.169 58.0856 107.182 58.1937 105.033C58.3019 102.885 56.3275 102.309 56.0455 104.261C55.7634 106.212 54.5734 107.877 54.8322 106.729C55.0911 105.582 54.7665 104.179 53.7465 105.076C52.7264 105.972 52.2473 107.576 54.044 109.453Z" fill="white"/>
<path opacity="0.2" d="M74.5917 112.293C72.7796 110.435 70.0904 109.755 68.7767 110.361C67.463 110.968 69.0665 111.552 70.4922 111.609C71.9179 111.667 69.6692 112.232 67.2582 111.996C64.8472 111.76 65.0751 113.456 67.6446 113.874C70.214 114.291 67.6175 114.519 65.4692 114.388C63.321 114.256 63.1007 115.79 65.6933 116.319C68.286 116.849 60.9331 116.528 63.4021 119.059C65.8711 121.59 67.0843 115.605 67.1191 117.78C67.1539 119.955 69.051 120.125 69.364 118.39C69.6769 116.656 70.5502 114.627 70.469 116.775C70.3879 118.924 72.3623 119.48 72.6212 117.513C72.88 115.547 74.0585 113.885 73.8073 115.033C73.5562 116.18 73.904 117.583 74.9163 116.675C75.9286 115.767 76.4077 114.152 74.5917 112.293Z" fill="white"/>
<path opacity="0.2" d="M80.9825 113.445C82.7792 115.323 85.4568 116.033 86.7782 115.446C88.0997 114.859 86.5039 114.256 85.0743 114.183C83.6447 114.109 85.905 113.568 88.3122 113.827C90.7193 114.086 90.5107 112.39 87.9258 111.949C85.3409 111.509 87.9606 111.3 90.1088 111.455C92.2571 111.609 92.489 110.075 89.9041 109.523C87.3192 108.97 94.6643 109.365 92.2224 106.818C89.7804 104.272 88.5015 110.23 88.4899 108.059C88.4783 105.887 86.5966 105.694 86.2528 107.425C85.9089 109.156 85.0279 111.173 85.1323 109.028C85.2366 106.884 83.266 106.301 82.9878 108.256C82.7096 110.211 81.5119 111.868 81.7746 110.725C82.0373 109.581 81.7051 108.171 80.685 109.071C79.665 109.971 79.1974 111.567 80.9825 113.445Z" fill="white"/>
<path opacity="0.2" d="M80.117 98.7044C78.301 96.8459 75.6156 96.1658 74.3019 96.7725C72.9882 97.3791 74.5878 97.9587 76.0175 98.0166C77.4471 98.0746 75.1906 98.6387 72.7835 98.403C70.3763 98.1673 70.5965 99.8635 73.1698 100.281C75.7431 100.698 73.1428 100.93 70.9945 100.795C68.8462 100.659 68.626 102.201 71.2186 102.727C73.8112 103.252 66.4584 102.935 68.9274 105.466C71.3964 107.997 72.6134 102.016 72.6444 104.187C72.6753 106.359 74.5763 106.532 74.8892 104.798C75.2022 103.063 76.0754 101.038 75.9943 103.183C75.9131 105.327 77.8875 105.887 78.1464 103.924C78.4053 101.962 79.5838 100.292 79.3365 101.44C79.0892 102.587 79.4292 103.994 80.4415 103.082C81.4538 102.17 81.9291 100.563 80.117 98.7044Z" fill="white"/>
<path opacity="0.2" d="M81.2104 66.0281C79.3944 64.1696 76.7091 63.4896 75.4147 64.0962C74.1203 64.7028 75.7006 65.2824 77.1302 65.3442C78.5599 65.406 76.3073 65.9663 73.8962 65.7306C71.4852 65.4949 71.7132 67.1911 74.2826 67.6084C76.8521 68.0257 74.2517 68.2537 72.1034 68.1223C69.9552 67.9909 69.7388 69.5248 72.3275 70.0542C74.9163 70.5835 67.5673 70.2628 70.0401 72.7936C72.513 75.3244 73.7224 69.3394 73.7571 71.5147C73.7919 73.69 75.689 73.86 75.9981 72.1213C76.3073 70.3826 77.1882 68.3618 77.1032 70.5101C77.0182 72.6584 79.0003 73.2148 79.2592 71.2481C79.5181 69.2814 80.6927 67.62 80.4454 68.7675C80.1981 69.9151 80.5381 71.3177 81.5504 70.4097C82.5628 69.5017 83.0226 67.8866 81.2104 66.0281Z" fill="white"/>
</g>
<path opacity="0.2" d="M77.5438 81.5336C76.8521 87.2559 79.2902 97.4757 82.6556 105.122C83.2429 100.343 84.12 94.9255 85.3371 88.6507L77.5438 81.5336Z" fill="black"/>
<path d="M74.7154 71.4489C74.1281 71.4103 73.5292 71.3755 72.9265 71.3446C66.4121 71.0278 61.0684 70.823 55.3384 71.3446L53.8392 71.4953C52.5358 73.567 51.8124 75.9506 51.7444 78.3973C51.6764 80.844 52.2665 83.2641 53.4529 85.405L54.2256 86.8501L55.3268 85.633C63.2013 76.9433 73.0656 72.3067 73.166 72.2487L74.7116 71.4489H74.7154Z" fill="white"/>
<path d="M71.1839 51.5427C70.075 57.1993 68.9699 67.5698 72.9265 71.3448C72.9265 71.3448 62.6139 75.85 54.469 84.8488C50.4893 77.465 55.3384 71.3448 55.3384 71.3448C61.6519 69.8379 61.4857 65.1627 60.3884 60.7579L71.1839 51.5427Z" fill="#EB996E"/>
<path opacity="0.2" d="M66.783 55.306L60.3923 60.754C60.6656 61.7765 60.8479 62.8213 60.9371 63.876C63.3481 63.5282 66.6594 60.8815 66.9144 58.3584C67.0553 57.3414 67.0108 56.3072 66.783 55.306Z" fill="black"/>
<path d="M77.1535 41.1606C74.9473 50.3642 74.2054 54.2975 68.7497 58.2657C60.5469 64.2198 49.9523 59.5214 49.4307 49.8503C48.9516 41.1451 52.6415 27.5561 62.2276 25.4349C71.6592 23.3445 79.3636 31.957 77.1535 41.1606Z" fill="#EB996E"/>
<path d="M77.9533 29.5884C68.7652 37.4474 59.8127 24.465 54.4691 30.8596C51.378 28.1086 60.0871 21.0262 65.3264 20.7673C70.5657 20.5085 81.9215 24.1173 77.9533 29.5884Z" fill="#263238"/>
<path d="M56.0532 29.546C56.0532 29.546 55.0718 26.822 55.6282 25.118C54.1676 25.7247 53.6615 30.6394 54.469 30.8597C55.5973 31.1688 56.0532 29.546 56.0532 29.546Z" fill="white"/>
<path d="M76.5353 28.8389C66.9183 32.3588 71.1801 50.8626 79.4525 49.7382C87.7249 48.6139 86.3687 30.5544 76.5353 28.8389Z" fill="#263238"/>
<path d="M63.5104 41.2611C63.379 42.0338 62.869 42.5632 62.3744 42.4743C61.8798 42.3854 61.6017 41.7015 61.7176 40.9288C61.8335 40.156 62.3628 39.6267 62.8574 39.7155C63.352 39.8044 63.6456 40.5038 63.5104 41.2611Z" fill="#263238"/>
<path d="M54.1715 39.7464C54.0401 40.5191 53.5301 41.0446 53.0356 40.9558C52.541 40.8669 52.2628 40.183 52.3787 39.4102C52.4946 38.6375 53.024 38.112 53.5185 38.197C54.0131 38.282 54.3067 38.9891 54.1715 39.7464Z" fill="#263238"/>
<path d="M53.7311 38.3052L52.004 37.459C52.004 37.459 52.6879 39.0354 53.7311 38.3052Z" fill="#263238"/>
<path d="M56.5517 41.4465C56.5517 41.4465 54.6855 44.4796 52.9931 45.8049C53.8277 46.9138 55.605 46.7863 55.605 46.7863L56.5517 41.4465Z" fill="#FF5652"/>
<path d="M59.465 50.3603C59.0323 50.3578 58.6006 50.3191 58.1745 50.2444C58.1452 50.2393 58.1172 50.2284 58.0922 50.2124C58.0671 50.1963 58.0455 50.1755 58.0286 50.151C58.0117 50.1266 57.9999 50.099 57.9937 50.0699C57.9876 50.0409 57.9873 50.0108 57.9929 49.9816C57.9975 49.9525 58.008 49.9246 58.0236 49.8996C58.0392 49.8746 58.0597 49.853 58.0839 49.8361C58.108 49.8191 58.1353 49.8072 58.1642 49.801C58.193 49.7948 58.2228 49.7945 58.2517 49.8C59.1907 49.9872 60.1605 49.9508 61.0828 49.6937C62.0051 49.4367 62.8539 48.9661 63.5606 48.3202C63.6033 48.278 63.6609 48.2543 63.721 48.2543C63.781 48.2543 63.8386 48.278 63.8813 48.3202C63.9235 48.3629 63.9472 48.4205 63.9472 48.4805C63.9472 48.5406 63.9235 48.5982 63.8813 48.6409C62.6883 49.7658 61.1045 50.3824 59.465 50.3603Z" fill="#263238"/>
<path d="M77.7949 50.1092C77.1919 50.7668 76.456 51.2887 75.636 51.6404C74.816 51.9921 73.9306 52.1656 73.0386 52.1493C70.7821 52.0295 70.5232 49.4214 71.8794 47.3234C73.0965 45.434 75.7432 43.22 77.652 44.3676C79.5607 45.5151 79.4293 48.4014 77.7949 50.1092Z" fill="#EB996E"/>
<path d="M64.0745 49.6802C64.0099 48.9067 64.1094 48.1283 64.3664 47.3959C64.6234 46.6635 65.0322 45.9936 65.5659 45.4301C65.2034 45.4701 64.8667 45.6371 64.6154 45.9014C64.1498 46.3865 63.7923 46.9648 63.5665 47.5982C63.3407 48.2316 63.2518 48.9057 63.3056 49.5759C63.3906 50.9437 64.3295 52.1801 65.4848 52.4583C65.0726 52.116 64.7348 51.693 64.4923 51.2152C64.2497 50.7374 64.1075 50.215 64.0745 49.6802Z" fill="#EB996E"/>
<path opacity="0.2" d="M64.0745 49.6802C64.0099 48.9067 64.1094 48.1283 64.3664 47.3959C64.6234 46.6635 65.0322 45.9936 65.5659 45.4301C65.2034 45.4701 64.8667 45.6371 64.6154 45.9014C64.1498 46.3865 63.7923 46.9648 63.5665 47.5982C63.3407 48.2316 63.2518 48.9057 63.3056 49.5759C63.3906 50.9437 64.3295 52.1801 65.4848 52.4583C65.0726 52.116 64.7348 51.693 64.4923 51.2152C64.2497 50.7374 64.1075 50.215 64.0745 49.6802Z" fill="black"/>
<path d="M66.6014 38.2047C66.5433 38.1845 66.4898 38.1529 66.4441 38.1118C66.3983 38.0706 66.3612 38.0208 66.3348 37.9652C66.1148 37.443 65.7743 36.9803 65.3412 36.615C64.908 36.2496 64.3945 35.992 63.8427 35.8633C63.7838 35.8544 63.7273 35.834 63.6763 35.8033C63.6253 35.7725 63.5809 35.7321 63.5456 35.6842C63.5102 35.6363 63.4847 35.5819 63.4703 35.5241C63.456 35.4663 63.4532 35.4063 63.4621 35.3474C63.471 35.2886 63.4914 35.2321 63.5221 35.1811C63.5528 35.1301 63.5933 35.0857 63.6412 35.0503C63.6891 35.015 63.7435 34.9894 63.8013 34.9751C63.859 34.9608 63.9191 34.958 63.9779 34.9669C64.6791 35.1181 65.3338 35.4352 65.8871 35.8917C66.4404 36.3482 66.8762 36.9307 67.1578 37.5904C67.194 37.6706 67.206 37.7596 67.1924 37.8466C67.1787 37.9335 67.1399 38.0146 67.0809 38.0798C67.0218 38.145 66.945 38.1916 66.8598 38.2138C66.7746 38.236 66.6848 38.2328 66.6014 38.2047Z" fill="#263238"/>
<path d="M51.1153 35.5348C50.999 35.5419 50.8844 35.5046 50.7946 35.4305C50.7492 35.3925 50.7119 35.346 50.6846 35.2936C50.6573 35.2411 50.6407 35.1838 50.6357 35.1249C50.6306 35.066 50.6373 35.0067 50.6553 34.9504C50.6733 34.8941 50.7022 34.8419 50.7405 34.7968C51.1857 34.2344 51.7597 33.7874 52.414 33.4935C53.0684 33.1996 53.7838 33.0675 54.5 33.1083C54.6166 33.1247 54.7223 33.1859 54.7944 33.279C54.8666 33.3721 54.8996 33.4897 54.8863 33.6067C54.8691 33.7237 54.807 33.8294 54.7133 33.9015C54.6196 33.9736 54.5015 34.0064 54.384 33.9931C53.8169 33.9694 53.2524 34.0811 52.737 34.319C52.2217 34.5568 51.7704 34.914 51.4205 35.3609C51.3843 35.4093 51.3385 35.4497 51.286 35.4796C51.2334 35.5095 51.1753 35.5283 51.1153 35.5348Z" fill="#263238"/>
<path d="M63.07 39.8121L61.3428 38.9659C61.3428 38.9659 62.0267 40.5501 63.07 39.8121Z" fill="#263238"/>
<path d="M84.943 76.105L85.3294 76.6343L85.681 77.1096L86.3533 78.0407C86.7976 78.659 87.2111 79.2849 87.6283 79.9108C88.4591 81.1588 89.2357 82.43 89.993 83.7205C90.7503 85.0111 91.4651 86.3132 92.1529 87.6423C92.8406 88.9715 93.5052 90.3122 94.1195 91.6839C96.7005 97.2461 98.52 103.131 99.5289 109.179C99.6293 109.952 99.7607 110.725 99.8303 111.525L99.95 112.707L99.9694 112.927L99.9887 113.313C100.004 113.571 100.004 113.829 99.9887 114.086C99.9887 114.341 99.9578 114.604 99.9269 114.859C99.8959 115.114 99.8457 115.342 99.7994 115.582C99.6137 116.423 99.3188 117.236 98.9223 118C98.6024 118.611 98.2273 119.192 97.8018 119.735C97.1202 120.586 96.3509 121.363 95.5066 122.053C94.1528 123.144 92.6971 124.101 91.1599 124.913C89.738 125.662 88.3354 126.296 86.9367 126.879C85.538 127.463 84.1393 127.953 82.7445 128.425C81.3496 128.896 79.9471 129.31 78.5484 129.696C77.1497 130.082 75.7394 130.426 74.3291 130.751C73.622 130.905 72.9149 131.048 72.204 131.191C71.4931 131.334 70.7898 131.442 70.0325 131.578C69.2516 131.72 68.4454 131.575 67.7636 131.168C67.0818 130.761 66.5706 130.121 66.3248 129.366C66.079 128.611 66.1153 127.793 66.4269 127.063C66.7385 126.333 67.3044 125.74 68.0195 125.396L68.1431 125.338C72.9922 122.927 77.9959 120.492 82.4006 117.796C83.5018 117.127 84.5566 116.432 85.511 115.721C86.3835 115.112 87.1949 114.419 87.9336 113.654C88.1523 113.433 88.3337 113.179 88.4707 112.9C88.5518 112.749 88.3934 112.796 88.2543 113.286C88.2333 113.353 88.2178 113.422 88.2079 113.491C88.2079 113.568 88.1809 113.653 88.177 113.735C88.1731 113.816 88.177 113.905 88.177 113.994C88.177 114.082 88.177 114.082 88.177 114.125V114.16V114.102L88.0109 113.209C87.9104 112.614 87.7558 112.015 87.6245 111.42C86.391 106.516 84.6048 101.768 82.3001 97.2671C81.1642 94.9488 79.893 92.6769 78.5754 90.4359C77.9109 89.3154 77.2192 88.2142 76.5276 87.1207L75.4689 85.5095L74.9434 84.7367L74.4643 84.0451L74.302 83.8133C73.7946 83.1156 73.4296 82.3248 73.2278 81.4861C73.0261 80.6473 72.9915 79.777 73.126 78.9249C73.3977 77.204 74.342 75.6615 75.751 74.6367C77.16 73.612 78.9184 73.1889 80.6393 73.4607C81.4915 73.5952 82.3087 73.8963 83.0445 74.3467C83.7803 74.7971 84.4201 75.388 84.9275 76.0857L84.943 76.105Z" fill="#EB996E"/>
<path d="M10.5452 65.2437C10.4373 65.2404 10.3323 65.2786 10.2517 65.3505C10.1712 65.4224 10.1214 65.5225 10.1125 65.6301L9.90385 70.4444C9.90063 70.5186 9.87964 70.5909 9.84264 70.6553C9.80564 70.7197 9.75372 70.7743 9.69123 70.8144C9.62875 70.8545 9.55754 70.8791 9.4836 70.886C9.40965 70.8928 9.33514 70.8819 9.26632 70.8539L8.49356 70.5332C8.40601 70.4964 8.33177 70.4338 8.28069 70.3537C8.22961 70.2737 8.20413 70.18 8.20764 70.085L8.42015 65.1432C8.42768 65.086 8.42324 65.0278 8.40711 64.9723C8.39099 64.9168 8.36352 64.8653 8.32645 64.821C8.28939 64.7767 8.24352 64.7406 8.19177 64.7149C8.14002 64.6893 8.08351 64.6746 8.02581 64.672C7.96811 64.6693 7.91048 64.6786 7.85657 64.6993C7.80266 64.7201 7.75364 64.7518 7.71262 64.7925C7.6716 64.8331 7.63947 64.8819 7.61827 64.9356C7.59706 64.9893 7.58724 65.0469 7.58943 65.1046L7.37692 70.0503C7.37255 70.1453 7.33906 70.2367 7.281 70.312C7.22294 70.3873 7.14312 70.443 7.05236 70.4714L6.25255 70.7226C6.18167 70.7449 6.10646 70.7499 6.03326 70.7371C5.96005 70.7243 5.89099 70.6941 5.83191 70.649C5.77282 70.604 5.72543 70.5453 5.69374 70.4781C5.66204 70.4109 5.64697 70.337 5.64979 70.2628L5.85844 65.4485C5.86072 65.3937 5.85219 65.339 5.83333 65.2875C5.81447 65.236 5.78565 65.1887 5.74851 65.1483C5.71138 65.1079 5.66666 65.0753 5.6169 65.0522C5.56715 65.0291 5.51333 65.0161 5.45853 65.0138C5.40373 65.0115 5.34902 65.02 5.29752 65.0389C5.24602 65.0578 5.19874 65.0866 5.15837 65.1237C5.11801 65.1609 5.08535 65.2056 5.06227 65.2553C5.03919 65.3051 5.02614 65.3589 5.02385 65.4137L4.78816 70.8849C4.76571 71.4299 4.89372 71.9705 5.15816 72.4476C5.42259 72.9247 5.81325 73.3197 6.28732 73.5895C6.52466 73.7256 6.71742 73.9277 6.84224 74.1711C6.96705 74.4146 7.01857 74.689 6.99054 74.9612C6.68143 78.0136 5.93572 85.3162 5.34842 90.2464C4.57565 96.6101 5.55706 97.7577 6.59643 97.804C7.63579 97.8504 8.70607 96.7878 8.49356 90.3816C8.33128 85.4205 8.21536 78.0793 8.169 75.0114C8.16455 74.7378 8.23957 74.4688 8.38496 74.237C8.53036 74.0052 8.73988 73.8205 8.98812 73.7054C9.48379 73.4776 9.90715 73.1176 10.2118 72.6651C10.5165 72.2125 10.6906 71.6848 10.7152 71.1399L10.9509 65.6687C10.952 65.559 10.9102 65.4531 10.8345 65.3738C10.7587 65.2944 10.6549 65.2477 10.5452 65.2437Z" fill="#263238"/>
<path d="M3.62899 59.8113C2.19938 64.2778 8.83741 70.6995 14.2892 67.1255C10.2632 63.8837 3.62899 59.8113 3.62899 59.8113Z" fill="white"/>
<path opacity="0.5" d="M4.86547 60.584C4.09271 63.9764 8.91861 68.5628 13.0143 66.1363C10.1898 64.0035 6.68919 61.7393 4.86547 60.584Z" fill="white"/>
</g>
<defs>
<clipPath id="clip0_147_9963">
<rect width="100" height="112" fill="white"/>
</clipPath>
</defs>
</svg>
