<svg width="112" height="112" viewBox="0 0 112 112" fill="none" xmlns="http://www.w3.org/2000/svg">
<g clip-path="url(#clip0_84_1048)">
<path d="M28.2816 18.5834C28.152 18.4679 28.012 18.3646 27.8634 18.2747C27.3307 17.9611 24.9408 16.5919 24.8213 16.5122C23.5567 15.7106 21.5552 15.8849 19.7677 16.791C17.2185 18.0756 15.0925 20.804 13.4694 25.3348C13.4694 25.3348 11.8264 24.1548 11.2887 23.8411C9.96926 23.1192 8.43078 23.4727 6.69315 24.6029C4.73146 25.8725 3.39712 27.5255 2.18227 30.0299V30.0747C1.12762 32.1961 0.549833 34.5225 0.489441 36.8908C0.489441 42.1386 2.64032 44.638 5.42851 46.515C6.22513 47.0478 8.33619 48.178 8.5453 48.3224C10.2309 49.4353 12.0953 50.2505 14.0569 50.7322L16.8053 51.3744L19.5586 47.5506C21.5642 44.7356 23.4045 41.8064 25.0702 38.7778C27.8634 33.6794 30.0492 28.6756 30.0093 23.4528C29.9595 21.1924 29.3222 19.5344 28.2816 18.5834Z" fill="#90CAF9"/>
<path opacity="0.3" d="M28.2816 18.5834C28.152 18.4679 28.012 18.3646 27.8634 18.2747C27.3307 17.9611 24.9408 16.5919 24.8213 16.5122C23.5567 15.7106 21.5552 15.8849 19.7677 16.791C17.2185 18.0756 15.0925 20.804 13.4694 25.3348C13.4694 25.3348 11.8264 24.1548 11.2887 23.8411C9.96926 23.1192 8.43078 23.4727 6.69315 24.6029C4.73146 25.8725 3.39712 27.5255 2.18227 30.0299V30.0747C1.12762 32.1961 0.549833 34.5225 0.489441 36.8908C0.489441 42.1386 2.64032 44.638 5.42851 46.515C6.22513 47.0478 8.33619 48.178 8.5453 48.3224C10.2309 49.4353 12.0953 50.2505 14.0569 50.7322L16.8053 51.3744L19.5586 47.5506C21.5642 44.7356 23.4045 41.8064 25.0702 38.7778C27.8634 33.6794 30.0492 28.6756 30.0093 23.4528C29.9595 21.1924 29.3222 19.5344 28.2816 18.5834Z" fill="black"/>
<path d="M28.2816 18.5834C28.152 18.4679 28.012 18.3646 27.8634 18.2747C27.3307 17.9611 24.9408 16.5919 24.8213 16.5122C23.5567 15.7106 21.5551 15.8849 19.7677 16.791C17.2185 18.0756 15.0925 20.804 13.4694 25.3348C13.4694 25.3348 11.8264 24.1548 11.2887 23.8411C9.96926 23.1192 8.43078 23.4727 6.69314 24.6029C4.73146 25.8725 3.39712 27.5255 2.18227 30.0299V30.0747L2.0329 30.3983L22.9443 42.4572C23.6811 41.2573 24.4031 40.0375 25.0902 38.7778C27.8833 33.6794 30.0691 28.6756 30.0292 23.4528C29.9595 21.1924 29.3222 19.5344 28.2816 18.5834Z" fill="#90CAF9"/>
<path opacity="0.15" d="M28.2816 18.5834C28.152 18.4679 28.012 18.3646 27.8634 18.2747C27.3307 17.9611 24.9408 16.5919 24.8213 16.5122C23.5567 15.7106 21.5551 15.8849 19.7677 16.791C17.2185 18.0756 15.0925 20.804 13.4694 25.3348C13.4694 25.3348 11.8264 24.1548 11.2887 23.8411C9.96926 23.1192 8.43078 23.4727 6.69314 24.6029C4.73146 25.8725 3.39712 27.5255 2.18227 30.0299V30.0747L2.0329 30.3983L22.9443 42.4572C23.6811 41.2573 24.4031 40.0375 25.0902 38.7778C27.8833 33.6794 30.0691 28.6756 30.0292 23.4528C29.9595 21.1924 29.3222 19.5344 28.2816 18.5834Z" fill="black"/>
<path d="M13.4495 25.3049L16.2377 28.9544L20.7486 23.622L15.6602 20.6945C14.7501 22.1421 14.0084 23.6889 13.4495 25.3049Z" fill="#90CAF9"/>
<path opacity="0.3" d="M13.4495 25.3049L16.2377 28.9544L20.7486 23.622L15.6602 20.6945C14.7501 22.1421 14.0084 23.6889 13.4495 25.3049Z" fill="black"/>
<path d="M28.2817 18.5834C27.0618 17.4881 24.8413 17.5877 22.8845 18.5834C20.2059 19.9377 17.9953 22.8653 16.3423 27.8093C14.6943 24.7722 12.4836 24.6776 9.80499 26.4153C7.84828 27.6899 6.51394 29.3428 5.29411 31.8422V31.892C4.23865 34.0147 3.66245 36.3432 3.60626 38.7131C3.60626 43.9609 5.75217 46.4603 8.54533 48.3373C10.231 49.4503 12.0953 50.2654 14.057 50.7471L16.8053 51.3894L19.5586 47.5656C21.5643 44.7506 23.4046 41.8214 25.0703 38.7928C27.8634 33.6944 30.0492 28.6906 30.0093 23.4677C29.9596 21.1924 29.3223 19.5344 28.2817 18.5834Z" fill="#90CAF9"/>
<path d="M20.7585 44.4488C22.6406 45.813 27.8883 46.3806 30.1836 42.3327C28.7945 43.4331 25.1101 43.1941 24.3035 39.0666L20.7585 44.4488Z" fill="#90CAF9"/>
<path d="M27.9829 32.6787L22.6156 35.7755L20.6241 28.5362C20.6241 28.4042 20.5716 28.2775 20.4782 28.1842C20.3849 28.0908 20.2582 28.0383 20.1262 28.0383C19.9941 28.0383 19.8675 28.0908 19.7741 28.1842C19.6807 28.2775 19.6283 28.4042 19.6283 28.5362L16.5215 42.7012L13.9125 35.5664C13.8819 35.4595 13.8164 35.3659 13.7263 35.3006C13.6363 35.2353 13.5271 35.202 13.4159 35.206C13.3048 35.21 13.1982 35.2511 13.1131 35.3227C13.0281 35.3944 12.9695 35.4924 12.9466 35.6013L11.209 41.8896L5.31396 45.2902C5.50797 45.575 5.71914 45.8477 5.94629 46.1067L11.921 42.6663C11.9781 42.6337 12.0282 42.59 12.0684 42.5379C12.1085 42.4858 12.138 42.4262 12.155 42.3626L13.5491 37.4186L16.2178 44.7226C16.2533 44.8247 16.3211 44.9125 16.4109 44.9727C16.5007 45.0329 16.6077 45.0622 16.7156 45.0562C16.8261 45.0507 16.9316 45.0085 17.0154 44.9364C17.0993 44.8643 17.1567 44.7663 17.1787 44.6579L20.2208 30.8066L21.824 36.6817C21.8436 36.7577 21.8808 36.828 21.9328 36.8868C21.9847 36.9456 22.0498 36.9914 22.1227 37.0203C22.1945 37.0507 22.2725 37.0639 22.3503 37.0587C22.4282 37.0535 22.5037 37.0301 22.5708 36.9904L27.3257 34.242C27.5447 33.7242 27.7787 33.2064 27.9829 32.6787Z" fill="white"/>
<path d="M75.9926 85.1151C80.5334 98.8817 87.0657 126.176 85.4525 133.614C84.2377 139.191 81.3649 150.687 81.3649 150.687C78.97 151.125 71.905 151.832 69.8337 147.7C69.0769 140.869 43.2415 85.6279 43.2415 85.6279L75.9926 85.1151Z" fill="#90CAF9"/>
<path opacity="0.25" d="M75.3355 150.886C75.7537 145.011 76.1171 139.081 76.0574 137.13C75.918 132.444 67.6829 103.422 67.6829 103.422C72.0544 98.6975 72.4825 94.9185 72.4825 94.9185C70.2646 97.9116 67.8123 100.724 65.1486 103.328L70.5706 148.77C71.7855 150.428 73.9613 150.822 75.3355 150.886Z" fill="black"/>
<path d="M65.1486 103.328C70.6652 98.6427 74.8226 92.902 75.9926 85.115L42.7734 84.7715C41.8025 89.2525 40.0998 94.0372 41.0159 100.246C41.2449 101.789 41.7229 105.558 42.883 107.973C47.3341 117.264 53.722 128.476 58.9748 137.847C58.9001 139.649 57.725 141.073 58.91 148.422C59.4826 151.957 60.8269 157.209 61.9721 161.461C64.7901 163.453 72.2933 162.129 73.314 160.675C73.4982 154.312 74.2201 145.295 73.767 137.617C73.4633 131.976 65.1486 103.328 65.1486 103.328Z" fill="#90CAF9"/>
<path d="M47.6976 22.0424C44.4862 23.1228 43.3211 26.8818 42.8083 33.4142C42.41 38.5076 40.1247 56.6756 38.7804 62.4013C37.4361 68.127 50.3912 69.2672 59.4179 69.2672C68.4446 69.2672 73.2045 66.6831 71.9896 60.4545C70.7748 54.2259 64.7105 22.7046 64.7105 22.7046L47.6976 22.0424Z" fill="#37474F"/>
<path d="M89.5452 50.6063C89.8838 49.8694 89.7593 47.9575 89.7643 46.424C89.7693 44.8905 89.9883 43.2475 89.6747 42.2467C89.2863 41.0119 88.898 40.0162 90.297 40.5987C91.6961 41.1812 92.1591 43.2027 92.5624 44.1885C92.7914 44.7511 92.9856 45.249 93.5333 44.766C94.4253 43.7822 95.1821 42.6838 95.7838 41.4999C96.446 40.2452 96.4061 38.8461 96.9538 38.1889C97.5015 37.5317 97.6807 37.6562 97.8251 37.7856C97.9695 37.9151 98.2633 39.5631 97.9346 41.1065C97.606 42.65 96.7098 43.7155 96.9389 43.8101C97.0633 43.8518 97.1979 43.8518 97.3223 43.8101C97.621 43.7254 98.6018 41.7588 99.1893 40.5738C99.8515 39.1598 100.349 37.8404 100.847 37.4371C101.345 37.0338 101.978 36.8496 101.978 37.3176C101.835 38.4426 101.573 39.5492 101.196 40.6186C100.857 41.5049 99.2341 43.835 99.4532 43.9495C99.5227 43.9693 99.5956 43.9738 99.667 43.9626C99.7383 43.9515 99.8064 43.9249 99.8665 43.8848C100.364 43.5163 101.061 42.2318 101.619 41.5098C102.321 40.6037 102.819 39.7324 103.247 39.2743C103.869 38.6022 104.243 39.1299 104.193 39.3988C104.059 40.6335 102.938 42.7396 101.978 44.0391C101.171 45.1245 101.375 45.5328 101.644 45.6324C101.913 45.7319 98.2832 47.9675 98.2832 47.9675L89.5452 50.6063Z" fill="#EB996E"/>
<path d="M105.513 41.236C104.427 41.5496 102.709 44.771 100.982 45.6075C98.9902 46.2995 94.5092 46.0356 92.1392 47.1758C89.7693 48.316 89.9236 49.1674 89.1071 51.373C88.0814 53.9272 85.4625 58.931 83.5058 63.0734C83.5058 63.0734 72.9257 51.0693 70.7748 49.2271C68.6239 47.3849 66.722 46.5833 64.108 47.0414L67.6331 63.5713C67.6331 63.5713 74.8226 69.4862 80.8869 74.1564C86.0002 78.0947 88.5295 77.2185 90.4763 72.7275C90.6729 72.2901 90.8474 71.8431 90.9991 71.3882C92.7765 66.1952 93.8022 60.8628 95.4203 54.5047C95.4203 54.5047 95.958 51.9456 96.8493 50.9349C97.845 49.7947 101.987 48.2961 102.928 47.4198C103.869 46.5435 104.701 45.0896 105.632 43.5064C106.155 42.6151 106.628 41.9828 106.628 41.4799C106.603 41.1713 105.991 41.1015 105.513 41.236Z" fill="#FFBE9D"/>
<path d="M83.5058 63.0734C82.6159 65.327 82.0834 67.7057 81.9275 70.1236C81.9275 70.1236 80.9865 67.4499 82.6046 62.0826L83.5058 63.0734Z" fill="#EB996E"/>
<path d="M86.8218 32.6474C86.8218 31.0591 87.9121 29.4758 90.0929 28.261C94.4594 25.8313 101.544 25.8263 105.916 28.261C108.102 29.4659 109.197 31.0492 109.202 32.6374H110.198C110.198 30.8351 109.003 29.0327 106.623 27.6585C101.858 24.9152 94.1357 24.9251 89.3759 27.6585C86.996 29.0327 85.811 30.84 85.811 32.6374H86.8068L86.8218 32.6474Z" fill="#FAFAFA"/>
<path d="M105.916 28.2411C101.544 25.8263 94.4644 25.8313 90.0929 28.2411C87.9122 29.4559 86.8218 31.0392 86.8218 32.6275C86.8218 34.2158 87.9171 35.7991 90.1079 37.0089C94.4793 39.4187 101.559 39.4137 105.931 36.984C108.112 35.7692 109.202 34.1859 109.202 32.5976C109.202 31.0094 108.102 29.4709 105.916 28.2411Z" fill="#E0E0E0"/>
<path d="M103.87 29.2816C106.125 29.3464 105.652 26.9814 106.937 26.0802C106.937 26.0802 106 25.662 104.731 26.4984C104.258 26.7637 103.905 27.2003 103.745 27.7182C103.585 28.2361 103.629 28.7957 103.87 29.2816Z" fill="#90CAF9"/>
<path opacity="0.4" d="M103.87 29.2816C106.125 29.3464 105.652 26.9814 106.937 26.0802C106.937 26.0802 106 25.662 104.731 26.4984C104.258 26.7637 103.905 27.2003 103.745 27.7182C103.585 28.2361 103.629 28.7957 103.87 29.2816Z" fill="black"/>
<path d="M103.989 29.4011C105.323 27.5789 103.108 26.6279 103.093 25.0546C103.093 25.0546 102.221 25.5923 102.187 27.1109C102.138 27.6506 102.297 28.1887 102.632 28.6146C102.967 29.0405 103.453 29.3219 103.989 29.4011Z" fill="#90CAF9"/>
<path opacity="0.3" d="M103.989 29.4011C105.323 27.5789 103.108 26.6279 103.093 25.0546C103.093 25.0546 102.221 25.5923 102.187 27.1109C102.138 27.6506 102.297 28.1887 102.632 28.6146C102.967 29.0405 103.453 29.3219 103.989 29.4011Z" fill="black"/>
<path d="M110.108 30.8002C110.247 31.0752 110.299 31.3861 110.257 31.6914C110.146 31.9439 109.948 32.1486 109.7 32.269C109.395 32.41 109.118 32.6058 108.883 32.8465C108.565 33.2648 108.639 33.8423 108.52 34.3402C108.427 34.6905 108.238 35.0078 107.974 35.256C107.71 35.5042 107.382 35.6734 107.026 35.7443C106.628 35.8446 106.217 35.8882 105.806 35.8737C105.308 35.8737 104.865 35.9783 104.392 36.028C104.213 36.0336 104.04 36.0911 103.893 36.1937C103.746 36.2963 103.632 36.4394 103.566 36.6056C103.566 36.5608 103.158 36.1077 103.118 35.9882C102.943 35.6578 102.864 35.2855 102.889 34.9128C102.977 34.5411 103.014 34.1592 102.998 33.7776C102.938 33.4092 102.704 33.0805 102.645 32.7121C102.608 32.4774 102.64 32.2372 102.736 32.0201C102.833 31.803 102.989 31.618 103.187 31.4873C103.496 31.2931 103.889 31.2334 104.138 30.9894C104.354 30.7052 104.451 30.3479 104.407 29.9936C104.364 29.6452 104.389 29.2917 104.482 28.953C104.578 28.7486 104.717 28.567 104.888 28.4203C105.06 28.2735 105.261 28.1649 105.478 28.1016C105.896 27.9473 106.344 27.8925 106.777 27.773C107.175 27.6787 107.536 27.4712 107.818 27.1756C108.021 26.8706 108.308 26.6304 108.644 26.4835C108.795 26.4355 108.954 26.4185 109.112 26.4333C109.27 26.4481 109.423 26.4945 109.562 26.5698C109.702 26.6451 109.824 26.7476 109.923 26.8714C110.022 26.9951 110.095 27.1375 110.138 27.2901C110.26 27.7028 110.24 28.1442 110.083 28.5448C109.892 28.8458 109.771 29.1862 109.73 29.5405C109.771 29.9813 109.9 30.4094 110.108 30.8002Z" fill="#90CAF9"/>
<path opacity="0.15" d="M110.108 30.8002C110.247 31.0752 110.299 31.3861 110.257 31.6914C110.146 31.9439 109.948 32.1486 109.7 32.269C109.395 32.41 109.118 32.6058 108.883 32.8465C108.565 33.2648 108.639 33.8423 108.52 34.3402C108.427 34.6905 108.238 35.0078 107.974 35.256C107.71 35.5042 107.382 35.6734 107.026 35.7443C106.628 35.8446 106.217 35.8882 105.806 35.8737C105.308 35.8737 104.865 35.9783 104.392 36.028C104.213 36.0336 104.04 36.0911 103.893 36.1937C103.746 36.2963 103.632 36.4394 103.566 36.6056C103.566 36.5608 103.158 36.1077 103.118 35.9882C102.943 35.6578 102.864 35.2855 102.889 34.9128C102.977 34.5411 103.014 34.1592 102.998 33.7776C102.938 33.4092 102.704 33.0805 102.645 32.7121C102.608 32.4774 102.64 32.2372 102.736 32.0201C102.833 31.803 102.989 31.618 103.187 31.4873C103.496 31.2931 103.889 31.2334 104.138 30.9894C104.354 30.7052 104.451 30.3479 104.407 29.9936C104.364 29.6452 104.389 29.2917 104.482 28.953C104.578 28.7486 104.717 28.567 104.888 28.4203C105.06 28.2735 105.261 28.1649 105.478 28.1016C105.896 27.9473 106.344 27.8925 106.777 27.773C107.175 27.6787 107.536 27.4712 107.818 27.1756C108.021 26.8706 108.308 26.6304 108.644 26.4835C108.795 26.4355 108.954 26.4185 109.112 26.4333C109.27 26.4481 109.423 26.4945 109.562 26.5698C109.702 26.6451 109.824 26.7476 109.923 26.8714C110.022 26.9951 110.095 27.1375 110.138 27.2901C110.26 27.7028 110.24 28.1442 110.083 28.5448C109.892 28.8458 109.771 29.1862 109.73 29.5405C109.771 29.9813 109.9 30.4094 110.108 30.8002Z" fill="black"/>
<path d="M108.973 27.564C108.156 28.4353 103.406 34.2905 103.591 36.6206C103.591 36.6206 103.093 35.351 105.179 32.1794C106.287 30.5188 107.558 28.9727 108.973 27.564Z" fill="#FAFAFA"/>
<path d="M104.83 36.297C105.687 35.575 105.612 34.2108 105.015 33.3395C104.702 33.0233 104.468 32.6378 104.333 32.2143C104.263 31.7164 104.616 31.2533 104.746 30.7604C104.842 30.3163 104.765 29.852 104.53 29.463C104.295 29.0741 103.919 28.7901 103.481 28.6693C102.983 28.5597 102.446 28.6344 102.082 28.3158C101.719 27.9971 101.724 27.6138 101.554 27.2553C101.415 26.9553 101.192 26.7019 100.912 26.5255C100.633 26.3492 100.308 26.2573 99.9772 26.261C99.6465 26.2647 99.3239 26.3637 99.0481 26.5463C98.7724 26.7288 98.5552 26.9871 98.4226 27.2901C98.2626 27.7719 98.1803 28.2761 98.1786 28.7838C98.1393 29.3104 97.9335 29.8108 97.5911 30.2127C97.4284 30.3633 97.2998 30.5469 97.2139 30.7513C97.128 30.9557 97.0869 31.1761 97.0932 31.3977C97.1528 31.8706 97.3873 32.304 97.7505 32.6126C98.1488 32.9561 98.6964 33.0457 99.05 33.4689C99.4035 33.8921 99.4931 34.5494 99.8814 34.9626C100.109 35.1629 100.377 35.3111 100.668 35.3971C100.959 35.4831 101.264 35.5047 101.564 35.4605C102.164 35.3718 102.77 35.3252 103.377 35.3211C103.688 35.3246 103.991 35.4189 104.249 35.5922C104.507 35.7655 104.709 36.0105 104.83 36.297Z" fill="#90CAF9"/>
<path d="M99.8067 27.2303C100.842 28.4701 100.618 30.2774 101.266 31.7661C101.913 33.2548 105.01 34.4199 104.81 36.2969C105.308 34.0415 102.555 33.4888 101.609 31.5271C100.992 30.2525 101.007 28.256 99.8067 27.2303Z" fill="#FAFAFA"/>
<path d="M99.1694 38.4628C98.811 37.4072 99.5777 36.272 100.539 35.8339C100.962 35.7151 101.352 35.5004 101.679 35.2066C101.997 34.8082 101.933 34.2108 102.077 33.7477C102.221 33.3161 102.526 32.9566 102.929 32.7442C103.331 32.5318 103.8 32.4829 104.238 32.6076C104.701 32.7569 105.139 33.1055 105.617 33.0208C106.01 32.9511 106.284 32.6026 106.613 32.3835C106.887 32.1997 107.209 32.0985 107.539 32.0922C107.869 32.0858 108.194 32.1745 108.475 32.3476C108.756 32.5207 108.982 32.771 109.125 33.0687C109.268 33.3664 109.322 33.6989 109.282 34.0266C109.17 34.527 108.978 35.0062 108.714 35.4455C108.479 35.9182 108.397 36.4526 108.48 36.9741C108.547 37.1867 108.567 37.4116 108.538 37.6327C108.508 37.8538 108.431 38.0658 108.311 38.2536C108.016 38.6285 107.591 38.8791 107.121 38.9557C106.623 39.0453 106.085 38.8412 105.567 39.0204C105.05 39.1996 104.631 39.7174 104.074 39.8817C103.775 39.9416 103.467 39.9352 103.171 39.863C102.875 39.7907 102.598 39.6543 102.361 39.4635C101.889 39.078 101.39 38.7269 100.867 38.413C100.608 38.262 100.311 38.1866 100.011 38.1954C99.7112 38.2042 99.4196 38.2968 99.1694 38.4628Z" fill="#90CAF9"/>
<path d="M99.1694 38.4628C98.811 37.4072 99.5777 36.272 100.539 35.8339C100.962 35.7151 101.352 35.5004 101.679 35.2066C101.997 34.8082 101.933 34.2108 102.077 33.7477C102.221 33.3161 102.526 32.9566 102.929 32.7442C103.331 32.5318 103.8 32.4829 104.238 32.6076C104.701 32.7569 105.139 33.1055 105.617 33.0208C106.01 32.9511 106.284 32.6026 106.613 32.3835C106.887 32.1997 107.209 32.0985 107.539 32.0922C107.869 32.0858 108.194 32.1745 108.475 32.3476C108.756 32.5207 108.982 32.771 109.125 33.0687C109.268 33.3664 109.322 33.6989 109.282 34.0266C109.17 34.527 108.978 35.0062 108.714 35.4455C108.479 35.9182 108.397 36.4526 108.48 36.9741C108.547 37.1867 108.567 37.4116 108.538 37.6327C108.508 37.8538 108.431 38.0658 108.311 38.2536C108.016 38.6285 107.591 38.8791 107.121 38.9557C106.623 39.0453 106.085 38.8412 105.567 39.0204C105.05 39.1996 104.631 39.7174 104.074 39.8817C103.775 39.9416 103.467 39.9352 103.171 39.863C102.875 39.7907 102.598 39.6543 102.361 39.4635C101.889 39.078 101.39 38.7269 100.867 38.413C100.608 38.262 100.311 38.1866 100.011 38.1954C99.7112 38.2042 99.4196 38.2968 99.1694 38.4628Z" fill="#90CAF9"/>
<path opacity="0.35" d="M99.1694 38.4628C98.811 37.4072 99.5777 36.272 100.539 35.8339C100.962 35.7151 101.352 35.5004 101.679 35.2066C101.997 34.8082 101.933 34.2108 102.077 33.7477C102.221 33.3161 102.526 32.9566 102.929 32.7442C103.331 32.5318 103.8 32.4829 104.238 32.6076C104.701 32.7569 105.139 33.1055 105.617 33.0208C106.01 32.9511 106.284 32.6026 106.613 32.3835C106.887 32.1997 107.209 32.0985 107.539 32.0922C107.869 32.0858 108.194 32.1745 108.475 32.3476C108.756 32.5207 108.982 32.771 109.125 33.0687C109.268 33.3664 109.322 33.6989 109.282 34.0266C109.17 34.527 108.978 35.0062 108.714 35.4455C108.479 35.9182 108.397 36.4526 108.48 36.9741C108.547 37.1867 108.567 37.4116 108.538 37.6327C108.508 37.8538 108.431 38.0658 108.311 38.2536C108.016 38.6285 107.591 38.8791 107.121 38.9557C106.623 39.0453 106.085 38.8412 105.567 39.0204C105.05 39.1996 104.631 39.7174 104.074 39.8817C103.775 39.9416 103.467 39.9352 103.171 39.863C102.875 39.7907 102.598 39.6543 102.361 39.4635C101.889 39.078 101.39 38.7269 100.867 38.413C100.608 38.262 100.311 38.1866 100.011 38.1954C99.7112 38.2042 99.4196 38.2968 99.1694 38.4628Z" fill="white"/>
<path d="M108.131 33.2648C106.603 33.7925 105.866 35.4605 104.547 36.4015C103.227 37.3425 99.971 36.75 99.1694 38.4627C99.8914 36.2621 102.555 37.213 104.372 36.0231C105.557 35.2464 106.573 33.5287 108.131 33.2648Z" fill="#FAFAFA"/>
<path d="M94.9025 34.7286C95.485 34.5742 96.1522 34.6638 96.6501 34.2755C96.9409 34.0351 97.1382 33.7003 97.2077 33.3295C97.2178 32.9594 97.2713 32.5918 97.367 32.2341C97.5463 31.8607 97.9396 31.796 98.2483 31.572C98.5541 31.3491 98.799 31.0529 98.9603 30.7106C99.0922 30.3504 99.1414 29.9652 99.1044 29.5834C99.0673 29.2016 98.9449 28.833 98.7462 28.505C98.5303 28.1006 98.4369 27.6421 98.4773 27.1855C98.5269 26.8009 98.5469 26.4131 98.5371 26.0255C98.4375 24.8753 97.1878 24.3526 96.1572 24.5318C95.7184 24.6216 95.312 24.8281 94.9808 25.1295C94.6496 25.431 94.4058 25.8162 94.2751 26.2445C94.2236 26.6706 94.0718 27.0785 93.832 27.4345C93.5482 27.7332 93.0902 27.788 92.7267 27.9971C92.4313 28.173 92.2057 28.4453 92.0877 28.7682C91.9698 29.0911 91.9669 29.4448 92.0795 29.7696C92.2786 30.3023 92.7865 30.7305 92.8014 31.2981C92.7595 31.6679 92.6389 32.0244 92.4479 32.3437C92.1691 32.966 92.418 33.4938 92.7267 34.0514C93.0413 34.5689 93.4286 35.0384 93.8768 35.4455C93.9875 35.2604 94.1362 35.1008 94.3129 34.9773C94.4897 34.8537 94.6906 34.769 94.9025 34.7286Z" fill="#90CAF9"/>
<path opacity="0.2" d="M94.9025 34.7286C95.485 34.5742 96.1522 34.6638 96.6501 34.2755C96.9409 34.0351 97.1382 33.7003 97.2077 33.3295C97.2178 32.9594 97.2713 32.5918 97.367 32.2341C97.5463 31.8607 97.9396 31.796 98.2483 31.572C98.5541 31.3491 98.799 31.0529 98.9603 30.7106C99.0922 30.3504 99.1414 29.9652 99.1044 29.5834C99.0673 29.2016 98.9449 28.833 98.7462 28.505C98.5303 28.1006 98.4369 27.6421 98.4773 27.1855C98.5269 26.8009 98.5469 26.4131 98.5371 26.0255C98.4375 24.8753 97.1878 24.3526 96.1572 24.5318C95.7184 24.6216 95.312 24.8281 94.9808 25.1295C94.6496 25.431 94.4058 25.8162 94.2751 26.2445C94.2236 26.6706 94.0718 27.0785 93.832 27.4345C93.5482 27.7332 93.0902 27.788 92.7267 27.9971C92.4313 28.173 92.2057 28.4453 92.0877 28.7682C91.9698 29.0911 91.9669 29.4448 92.0795 29.7696C92.2786 30.3023 92.7865 30.7305 92.8014 31.2981C92.7595 31.6679 92.6389 32.0244 92.4479 32.3437C92.1691 32.966 92.418 33.4938 92.7267 34.0514C93.0413 34.5689 93.4286 35.0384 93.8768 35.4455C93.9875 35.2604 94.1362 35.1008 94.3129 34.9773C94.4897 34.8537 94.6906 34.769 94.9025 34.7286Z" fill="black"/>
<path d="M96.7348 25.3433C95.1465 26.6229 93.0105 31.8159 93.8619 35.4355C93.6877 33.3992 94.2105 28.7987 96.7348 25.3433Z" fill="#FAFAFA"/>
<path d="M85.9754 30.7604C85.8506 31.0417 85.8158 31.3547 85.8758 31.6566C85.9991 31.9041 86.2077 32.0986 86.4633 32.2043C86.7757 32.3285 87.0626 32.5091 87.3097 32.737C87.6483 33.1353 87.6035 33.7328 87.7528 34.2307C87.8613 34.5728 88.0626 34.8782 88.3341 35.1128C88.6057 35.3475 88.937 35.5023 89.2913 35.5601C89.6967 35.6348 90.1103 35.6548 90.5211 35.6198C91.019 35.6198 91.4621 35.6746 91.9401 35.6995C92.1193 35.6947 92.2959 35.7427 92.4482 35.8374C92.6004 35.9321 92.7215 36.0694 92.7964 36.2322C92.7964 36.1874 93.1748 35.6895 93.2097 35.5899C93.3662 35.2509 93.4265 34.8755 93.3839 34.5045C93.274 34.1395 93.217 33.7605 93.2147 33.3793C93.2545 33.0059 93.4636 32.6673 93.5084 32.2939C93.5319 32.0569 93.4866 31.8183 93.378 31.6063C93.2694 31.3944 93.1021 31.2183 92.896 31.099C92.5823 30.9197 92.184 30.8849 91.9002 30.631C91.667 30.354 91.5525 29.9961 91.5816 29.6352C91.6045 29.2865 91.5605 28.9367 91.4521 28.6045C91.3459 28.4068 91.1992 28.2337 91.0217 28.0965C90.8441 27.9592 90.6396 27.8609 90.4215 27.8079C89.9983 27.6785 89.5452 27.6486 89.112 27.549C88.7126 27.4742 88.3438 27.2838 88.0515 27.0013C87.8267 26.7179 87.529 26.501 87.1902 26.374C87.0355 26.3325 86.874 26.3227 86.7154 26.3451C86.5568 26.3675 86.4043 26.4217 86.2672 26.5045C86.13 26.5872 86.011 26.6968 85.9172 26.8267C85.8234 26.9566 85.7568 27.104 85.7214 27.2602C85.6222 27.679 85.666 28.119 85.8459 28.5099C86.053 28.8081 86.1923 29.148 86.2542 29.5057C86.2418 29.9379 86.1472 30.3637 85.9754 30.7604Z" fill="#90CAF9"/>
<path opacity="0.35" d="M85.9754 30.7604C85.8506 31.0417 85.8158 31.3547 85.8758 31.6566C85.9991 31.9041 86.2077 32.0986 86.4633 32.2043C86.7757 32.3285 87.0626 32.5091 87.3097 32.737C87.6483 33.1353 87.6035 33.7328 87.7528 34.2307C87.8613 34.5728 88.0626 34.8782 88.3341 35.1128C88.6057 35.3475 88.937 35.5023 89.2913 35.5601C89.6967 35.6348 90.1103 35.6548 90.5211 35.6198C91.019 35.6198 91.4621 35.6746 91.9401 35.6995C92.1193 35.6947 92.2959 35.7427 92.4482 35.8374C92.6004 35.9321 92.7215 36.0694 92.7964 36.2322C92.7964 36.1874 93.1748 35.6895 93.2097 35.5899C93.3662 35.2509 93.4265 34.8755 93.3839 34.5045C93.274 34.1395 93.217 33.7605 93.2147 33.3793C93.2545 33.0059 93.4636 32.6673 93.5084 32.2939C93.5319 32.0569 93.4866 31.8183 93.378 31.6063C93.2694 31.3944 93.1021 31.2183 92.896 31.099C92.5823 30.9197 92.184 30.8849 91.9002 30.631C91.667 30.354 91.5525 29.9961 91.5816 29.6352C91.6045 29.2865 91.5605 28.9367 91.4521 28.6045C91.3459 28.4068 91.1992 28.2337 91.0217 28.0965C90.8441 27.9592 90.6396 27.8609 90.4215 27.8079C89.9983 27.6785 89.5452 27.6486 89.112 27.549C88.7126 27.4742 88.3438 27.2838 88.0515 27.0013C87.8267 26.7179 87.529 26.501 87.1902 26.374C87.0355 26.3325 86.874 26.3227 86.7154 26.3451C86.5568 26.3675 86.4043 26.4217 86.2672 26.5045C86.13 26.5872 86.011 26.6968 85.9172 26.8267C85.8234 26.9566 85.7568 27.104 85.7214 27.2602C85.6222 27.679 85.666 28.119 85.8459 28.5099C86.053 28.8081 86.1923 29.148 86.2542 29.5057C86.2418 29.9379 86.1472 30.3637 85.9754 30.7604Z" fill="white"/>
<path d="M86.9363 27.4793C87.8325 28.2311 92.8562 33.9021 92.7964 36.2372C92.7964 36.2372 93.2047 34.9427 90.9742 31.8906C89.7772 30.2904 88.4246 28.8128 86.9363 27.4793Z" fill="#FAFAFA"/>
<path d="M87.703 37.2031C88.0714 37.4819 88.3054 37.9051 88.6988 38.1988C88.8861 38.3324 89.1007 38.4226 89.3272 38.4631C89.5536 38.5036 89.7863 38.4932 90.0082 38.4328C90.3269 38.2912 90.6611 38.1876 91.004 38.1242C91.5517 38.1242 91.9998 38.5673 92.4628 38.8212C92.7355 38.9632 93.0361 39.0436 93.3432 39.0565C93.6504 39.0694 93.9567 39.0145 94.2403 38.8959C94.4942 38.7863 94.7382 38.627 94.9821 38.4976C95.2254 38.3534 95.5065 38.2857 95.7887 38.3034C95.9816 38.3232 96.1596 38.4158 96.2866 38.5623C96.2866 38.5872 96.5754 38.9556 96.5704 38.9656C96.7958 38.4819 96.8325 37.9314 96.6731 37.4221C96.5138 36.9127 96.17 36.4813 95.7091 36.2123C95.4754 36.1191 95.2518 36.0023 95.0419 35.8637C94.8416 35.6859 94.6849 35.4645 94.5838 35.2165C94.4415 34.7958 94.2752 34.3835 94.0859 33.9817C93.9871 33.7818 93.8325 33.6147 93.6407 33.5008C93.449 33.3868 93.2284 33.3307 93.0055 33.3394C92.5724 33.4091 92.2736 33.8373 91.8604 33.9518C91.4932 34.0412 91.1057 33.984 90.78 33.7925C90.4513 33.6232 90.1526 33.3942 89.819 33.2249C89.4909 33.0392 89.1031 32.9891 88.7386 33.0855C88.2407 33.2598 87.9968 33.7776 87.5984 34.1112C87.2001 34.4447 86.8168 34.5344 86.5479 34.8829C86.4062 35.0829 86.333 35.3233 86.3393 35.5683C86.3456 35.8133 86.431 36.0497 86.5827 36.2421C86.899 36.6236 87.2778 36.9486 87.703 37.2031Z" fill="#90CAF9"/>
<path d="M88.7038 35.57C90.3966 34.9028 96.0078 35.8538 96.5306 38.9407C96.8094 36.0928 90.541 34.3352 88.7038 35.57Z" fill="#FAFAFA"/>
<path d="M100.414 39.2444C99.5777 39.7871 98.2981 39.7672 97.8102 40.7381C97.3123 39.9365 96.3763 39.6925 95.7041 39.0901C95.4658 38.9106 95.3011 38.6504 95.2411 38.3582C95.1813 37.7806 95.8435 37.3176 95.7888 36.74C95.734 36.1625 95.0469 35.8687 94.9324 35.3161C94.9103 35.1538 94.9257 34.9886 94.9775 34.8332C95.0293 34.6779 95.1161 34.5365 95.2311 34.4199C95.4634 34.191 95.7206 33.9889 95.9979 33.8174C96.2744 33.6447 96.5064 33.4094 96.675 33.1303C96.8028 32.7537 96.9076 32.3696 96.9887 31.9802C97.3521 30.9844 99.1993 30.2874 99.8067 31.4475C100.105 32.0051 99.7071 32.742 100.364 33.0656C100.634 33.1539 100.893 33.2724 101.136 33.4191C101.298 33.5822 101.414 33.7848 101.472 34.0068C101.531 34.2288 101.53 34.4622 101.47 34.6838C101.383 35.1875 101.169 35.6607 100.847 36.0579C100.663 36.287 100.434 36.5558 100.514 36.8247C100.568 37.0139 100.748 37.1334 100.882 37.2778C101.47 37.8951 101.027 38.8461 100.414 39.2444Z" fill="#90CAF9"/>
<path opacity="0.1" d="M100.414 39.2444C99.5777 39.7871 98.2981 39.7672 97.8102 40.7381C97.3123 39.9365 96.3763 39.6925 95.7041 39.0901C95.4658 38.9106 95.3011 38.6504 95.2411 38.3582C95.1813 37.7806 95.8435 37.3176 95.7888 36.74C95.734 36.1625 95.0469 35.8687 94.9324 35.3161C94.9103 35.1538 94.9257 34.9886 94.9775 34.8332C95.0293 34.6779 95.1161 34.5365 95.2311 34.4199C95.4634 34.191 95.7206 33.9889 95.9979 33.8174C96.2744 33.6447 96.5064 33.4094 96.675 33.1303C96.8028 32.7537 96.9076 32.3696 96.9887 31.9802C97.3521 30.9844 99.1993 30.2874 99.8067 31.4475C100.105 32.0051 99.7071 32.742 100.364 33.0656C100.634 33.1539 100.893 33.2724 101.136 33.4191C101.298 33.5822 101.414 33.7848 101.472 34.0068C101.531 34.2288 101.53 34.4622 101.47 34.6838C101.383 35.1875 101.169 35.6607 100.847 36.0579C100.663 36.287 100.434 36.5558 100.514 36.8247C100.568 37.0139 100.748 37.1334 100.882 37.2778C101.47 37.8951 101.027 38.8461 100.414 39.2444Z" fill="black"/>
<path d="M98.6566 31.2832C97.9844 32.3338 96.5057 37.9798 97.8102 40.7431C97.392 38.1391 97.5712 34.9975 98.6566 31.2832Z" fill="#FAFAFA"/>
<path d="M110.203 32.6175C110.203 34.4149 109.018 36.2222 106.638 37.5964C101.883 40.3547 94.1607 40.3647 89.3959 37.6213C87.016 36.2521 85.821 34.4497 85.816 32.6424C85.816 39.3739 91.2928 43.2425 98.0293 43.2325C104.766 43.2225 110.213 39.339 110.203 32.6075V32.6175Z" fill="#EBEBEB"/>
<path d="M89.3959 37.6213C94.1607 40.3647 101.883 40.3547 106.638 37.5964C109.018 36.2222 110.208 34.4149 110.203 32.6175H109.207C109.207 34.2058 108.117 35.789 105.936 37.0039C101.569 39.4336 94.4843 39.4386 90.1128 37.0288C87.9221 35.8189 86.8318 34.2356 86.8268 32.6474H85.831C85.821 34.4497 87.016 36.2521 89.3959 37.6213Z" fill="#FAFAFA"/>
<path d="M96.1621 34.4498C96.2297 34.6413 96.2405 34.8483 96.1933 35.0458C96.1462 35.2434 96.043 35.4231 95.8963 35.5635C95.7495 35.7039 95.5653 35.799 95.3659 35.8373C95.1664 35.8756 94.9602 35.8556 94.7718 35.7796C94.5835 35.7037 94.421 35.5749 94.304 35.409C94.187 35.243 94.1203 35.0467 94.112 34.8438C94.1037 34.6409 94.1542 34.4398 94.2573 34.2649C94.3604 34.0899 94.5118 33.9484 94.6934 33.8573C94.967 33.7439 95.2742 33.7424 95.5489 33.8532C95.8236 33.9641 96.0438 34.1783 96.1621 34.4498Z" fill="#455A64"/>
<path d="M95.7639 35.9733C95.96 35.8574 96.1141 35.6819 96.2037 35.4723C96.2932 35.2628 96.3136 35.0301 96.2617 34.8082C96.271 34.92 96.2556 35.0324 96.2167 35.1375C96.1778 35.2427 96.1163 35.338 96.0365 35.4168C95.9568 35.4956 95.8607 35.556 95.7551 35.5936C95.6495 35.6313 95.5369 35.6453 95.4253 35.6347C95.1243 35.6276 94.8347 35.519 94.6033 35.3265C94.3719 35.134 94.2124 34.8688 94.1507 34.5742C94.1026 34.8489 94.1445 35.1318 94.2702 35.3808C94.3287 35.5183 94.4139 35.6428 94.5209 35.7472C94.6279 35.8515 94.7545 35.9336 94.8934 35.9887C95.0323 36.0438 95.1807 36.0708 95.3302 36.0682C95.4796 36.0655 95.627 36.0333 95.7639 35.9733Z" fill="#37474F"/>
<path opacity="0.1" d="M94.8278 33.9519C94.7927 33.9676 94.7615 33.9909 94.7365 34.0202C94.7116 34.0495 94.6934 34.084 94.6834 34.1211C94.6797 34.1642 94.6879 34.2075 94.7073 34.2461C94.7266 34.2848 94.7563 34.3174 94.793 34.3402C94.8709 34.3798 94.9527 34.4115 95.0369 34.4348C95.3023 34.5143 95.5482 34.6482 95.7589 34.8281C95.7951 34.8671 95.8452 34.8903 95.8983 34.8929C95.973 34.8929 95.9929 34.7784 95.9879 34.7037C95.9768 34.5555 95.9336 34.4116 95.8614 34.2818C95.7892 34.152 95.6897 34.0394 95.5697 33.9519C95.4588 33.8814 95.3301 33.8441 95.1988 33.8441C95.0674 33.8441 94.9387 33.8814 94.8278 33.9519Z" fill="white"/>
<path opacity="0.15" d="M94.8228 34.1212C94.8228 34.156 94.8627 34.1759 94.8926 34.1909C95.0227 34.2559 95.1654 34.2915 95.3108 34.2954C95.3328 34.3006 95.3559 34.2994 95.3773 34.292C95.3987 34.2845 95.4176 34.2712 95.4317 34.2534C95.4458 34.2357 95.4545 34.2143 95.4569 34.1918C95.4593 34.1692 95.4552 34.1465 95.4452 34.1262C95.4185 34.0674 95.3748 34.0181 95.3198 33.9843C95.2648 33.9506 95.201 33.9341 95.1365 33.937C95.0519 33.9519 94.8029 34.0017 94.8228 34.1212Z" fill="white"/>
<path d="M105.249 32.2142C105.152 32.392 105.006 32.5381 104.828 32.6353C104.651 32.7325 104.449 32.7765 104.247 32.7622C104.045 32.7479 103.852 32.6759 103.69 32.5546C103.527 32.4334 103.404 32.2681 103.333 32.0785C103.262 31.8889 103.247 31.6829 103.29 31.4851C103.333 31.2873 103.432 31.106 103.575 30.9629C103.719 30.8198 103.9 30.7208 104.098 30.6779C104.295 30.6349 104.501 30.6497 104.691 30.7205C104.963 30.8452 105.174 31.0724 105.278 31.3523C105.383 31.6322 105.372 31.9421 105.249 32.2142Z" fill="#455A64"/>
<path d="M103.835 32.9561C104.053 33.0283 104.289 33.0281 104.507 32.9554C104.725 32.8827 104.913 32.7415 105.044 32.5528C104.969 32.6354 104.875 32.7003 104.772 32.743C104.668 32.7857 104.556 32.8051 104.444 32.7999C104.332 32.7947 104.223 32.7649 104.123 32.7128C104.024 32.6606 103.937 32.5873 103.869 32.498C103.67 32.2715 103.554 31.9837 103.54 31.6822C103.527 31.3806 103.616 31.0835 103.795 30.84C103.566 30.9923 103.391 31.2139 103.297 31.4723C103.175 31.7409 103.163 32.0464 103.264 32.3236C103.364 32.6008 103.569 32.8277 103.835 32.9561Z" fill="#37474F"/>
<path opacity="0.1" d="M104.716 30.8948C104.682 30.8788 104.644 30.8705 104.606 30.8705C104.569 30.8705 104.531 30.8788 104.497 30.8948C104.462 30.9209 104.435 30.9561 104.42 30.9966C104.404 31.037 104.399 31.0811 104.407 31.1238C104.426 31.2079 104.458 31.2886 104.502 31.3628C104.621 31.6157 104.687 31.8901 104.696 32.1694C104.694 32.2206 104.711 32.2707 104.746 32.3088C104.806 32.3586 104.89 32.3088 104.945 32.2491C105.038 32.1412 105.108 32.0151 105.15 31.8788C105.192 31.7426 105.205 31.5991 105.189 31.4574C105.171 31.3287 105.117 31.2076 105.033 31.1081C104.95 31.0086 104.84 30.9347 104.716 30.8948Z" fill="white"/>
<path opacity="0.15" d="M104.577 31.0094C104.569 31.0258 104.565 31.0436 104.565 31.0616C104.565 31.0796 104.569 31.0974 104.577 31.1139C104.616 31.2534 104.686 31.3826 104.781 31.4923C104.799 31.5158 104.823 31.5346 104.85 31.5471C104.879 31.554 104.91 31.5503 104.936 31.5366C104.963 31.5229 104.984 31.5001 104.995 31.4724C105.021 31.4139 105.03 31.3487 105.018 31.2855C105.006 31.2222 104.976 31.1641 104.93 31.1189C104.87 31.0542 104.651 30.9148 104.577 31.0094Z" fill="white"/>
<path d="M88.4349 34.2108C86.289 34.9078 86.0749 32.508 84.5862 32.0001C84.5862 32.0001 85.3679 31.3379 86.8218 31.7811C87.3504 31.903 87.8122 32.2227 88.1122 32.6747C88.4123 33.1266 88.5278 33.6763 88.4349 34.2108Z" fill="#90CAF9"/>
<path opacity="0.3" d="M88.4349 34.2108C86.289 34.9078 86.0749 32.508 84.5862 32.0001C84.5862 32.0001 85.3679 31.3379 86.8218 31.7811C87.3504 31.903 87.8122 32.2227 88.1122 32.6747C88.4123 33.1266 88.5278 33.6763 88.4349 34.2108Z" fill="black"/>
<path d="M108.515 34.6688C110.74 35.0423 110.601 32.6374 112 31.9205C112 31.9205 111.129 31.3778 109.755 32.03C109.25 32.228 108.84 32.6119 108.609 33.1027C108.379 33.5934 108.345 34.1539 108.515 34.6688Z" fill="#90CAF9"/>
<path opacity="0.3" d="M108.515 34.6688C110.74 35.0423 110.601 32.6374 112 31.9205C112 31.9205 111.129 31.3778 109.755 32.03C109.25 32.228 108.84 32.6119 108.609 33.1027C108.379 33.5934 108.345 34.1539 108.515 34.6688Z" fill="black"/>
<path d="M101.27 34.9078C99.4482 34.6738 100.13 32.8316 99.2092 31.9205C99.5248 31.8782 99.8459 31.9122 100.146 32.0196C100.445 32.127 100.715 32.3047 100.932 32.5379C101.284 32.8127 101.515 33.2129 101.578 33.6547C101.641 34.0965 101.531 34.5455 101.27 34.9078Z" fill="#90CAF9"/>
<path opacity="0.3" d="M101.27 34.9078C99.4482 34.6738 100.13 32.8316 99.2092 31.9205C99.5248 31.8782 99.8459 31.9122 100.146 32.0196C100.445 32.127 100.715 32.3047 100.932 32.5379C101.284 32.8127 101.515 33.2129 101.578 33.6547C101.641 34.0965 101.531 34.5455 101.27 34.9078Z" fill="black"/>
<path d="M92.0645 29.909C90.2074 29.192 91.3974 27.4195 90.6555 26.2595C90.9986 26.2943 91.3282 26.4116 91.616 26.6015C91.9039 26.7914 92.1415 27.0482 92.3085 27.3498C92.6034 27.7265 92.7425 28.2019 92.6971 28.6781C92.6517 29.1543 92.4253 29.5949 92.0645 29.909Z" fill="#90CAF9"/>
<path opacity="0.3" d="M92.0645 29.909C90.2074 29.192 91.3974 27.4195 90.6555 26.2595C90.9986 26.2943 91.3282 26.4116 91.616 26.6015C91.9039 26.7914 92.1415 27.0482 92.3085 27.3498C92.6034 27.7265 92.7425 28.2019 92.6971 28.6781C92.6517 29.1543 92.4253 29.5949 92.0645 29.909Z" fill="black"/>
<path d="M95.953 38.2586C94.7581 40.1755 93.0503 38.4777 91.5865 39.0552C91.5865 39.0552 91.7558 38.0595 93.1549 37.4421C93.6375 37.1961 94.1959 37.1436 94.7159 37.2953C95.236 37.4471 95.6785 37.7916 95.953 38.2586Z" fill="#90CAF9"/>
<path opacity="0.4" d="M95.953 38.2586C94.7581 40.1755 93.0503 38.4777 91.5865 39.0552C91.5865 39.0552 91.7558 38.0595 93.1549 37.4421C93.6375 37.1961 94.1959 37.1436 94.7159 37.2953C95.236 37.4471 95.6785 37.7916 95.953 38.2586Z" fill="black"/>
<path d="M96.0925 38.7416C93.837 38.8461 94.2602 36.4762 92.9608 35.5949C92.9608 35.5949 93.8868 35.1617 95.1764 35.9733C95.6531 36.231 96.0135 36.6611 96.1838 37.1756C96.3541 37.6902 96.3214 38.2503 96.0925 38.7416Z" fill="#90CAF9"/>
<path opacity="0.3" d="M96.0925 38.7416C93.837 38.8461 94.2602 36.4762 92.9608 35.5949C92.9608 35.5949 93.8868 35.1617 95.1764 35.9733C95.6531 36.231 96.0135 36.6611 96.1838 37.1756C96.3541 37.6902 96.3214 38.2503 96.0925 38.7416Z" fill="black"/>
<path d="M102.446 35.3161C102.372 35.4521 102.261 35.5641 102.125 35.6387C101.99 35.7132 101.835 35.7472 101.681 35.7366C101.527 35.726 101.379 35.6713 101.255 35.5789C101.131 35.4865 101.036 35.3603 100.981 35.2155C100.927 35.0707 100.915 34.9133 100.948 34.762C100.98 34.6108 101.056 34.4721 101.165 34.3626C101.274 34.253 101.413 34.1771 101.564 34.144C101.715 34.1109 101.872 34.122 102.017 34.1759C102.224 34.2714 102.385 34.4446 102.466 34.6581C102.546 34.8715 102.539 35.1079 102.446 35.3161Z" fill="#455A64"/>
<path d="M101.37 35.8837C101.537 35.938 101.717 35.9374 101.884 35.8818C102.051 35.8262 102.195 35.7187 102.296 35.575C102.238 35.6374 102.167 35.6863 102.087 35.7184C102.008 35.7504 101.923 35.7648 101.838 35.7605C101.752 35.7563 101.669 35.7334 101.593 35.6937C101.518 35.6539 101.452 35.5981 101.4 35.5302C101.244 35.3587 101.152 35.138 101.141 34.9061C101.13 34.6743 101.201 34.446 101.34 34.2606C101.158 34.3792 101.02 34.554 100.947 34.7584C100.858 34.9643 100.853 35.1966 100.932 35.4064C101.01 35.6163 101.168 35.7873 101.37 35.8837Z" fill="#37474F"/>
<path opacity="0.1" d="M102.037 34.3054C102.011 34.2919 101.982 34.2848 101.953 34.2848C101.923 34.2848 101.894 34.2919 101.868 34.3054C101.842 34.3254 101.822 34.3523 101.81 34.3832C101.799 34.414 101.797 34.4475 101.803 34.4796C101.817 34.5443 101.84 34.6064 101.873 34.6639C101.965 34.8555 102.015 35.064 102.022 35.2763C102.022 35.3161 102.022 35.3659 102.062 35.3858C102.102 35.4057 102.172 35.3858 102.212 35.341C102.284 35.2585 102.338 35.1619 102.37 35.0573C102.403 34.9527 102.413 34.8424 102.401 34.7336C102.386 34.6354 102.344 34.5433 102.28 34.4677C102.216 34.392 102.132 34.3358 102.037 34.3054Z" fill="white"/>
<path opacity="0.15" d="M101.933 34.395C101.926 34.4062 101.922 34.4191 101.922 34.4323C101.922 34.4456 101.926 34.4585 101.933 34.4697C101.963 34.5774 102.015 34.6775 102.087 34.7634C102.102 34.781 102.121 34.7947 102.142 34.8033C102.164 34.808 102.188 34.8052 102.208 34.7953C102.229 34.7854 102.246 34.7689 102.256 34.7485C102.276 34.7026 102.281 34.652 102.271 34.6032C102.261 34.5544 102.237 34.5096 102.202 34.4747C102.152 34.4498 101.987 34.3203 101.933 34.395Z" fill="white"/>
<path d="M92.6471 29.6252C92.7856 29.7173 92.8946 29.8474 92.9611 29.9998C93.0276 30.1523 93.0489 30.3206 93.0223 30.4848C92.9957 30.649 92.9224 30.8021 92.8112 30.9257C92.7 31.0494 92.5555 31.1384 92.395 31.1822C92.2346 31.2259 92.0649 31.2226 91.9063 31.1725C91.7477 31.1225 91.6069 31.0278 91.5006 30.8998C91.3943 30.7719 91.3272 30.616 91.3071 30.4509C91.287 30.2858 91.3149 30.1184 91.3874 29.9687C91.4474 29.8632 91.5276 29.7706 91.6234 29.6963C91.7192 29.6219 91.8288 29.5671 91.9459 29.5352C92.0629 29.5033 92.1851 29.4948 92.3055 29.5102C92.4258 29.5257 92.5419 29.5647 92.6471 29.6252Z" fill="#455A64"/>
<path d="M93.1201 30.8351C93.1926 30.6675 93.2109 30.4814 93.1726 30.3029C93.1342 30.1244 93.041 29.9623 92.906 29.8393C92.9651 29.9094 93.0084 29.9915 93.0326 30.08C93.0569 30.1685 93.0616 30.2612 93.0464 30.3517C93.0313 30.4421 92.9966 30.5282 92.9448 30.604C92.8931 30.6797 92.8254 30.7433 92.7467 30.7903C92.5443 30.9315 92.3 30.9995 92.0538 30.9832C91.8076 30.9669 91.5743 30.8673 91.3924 30.7006C91.4904 30.9129 91.6547 31.0876 91.8604 31.1985C91.967 31.2575 92.0841 31.2949 92.2051 31.3085C92.3261 31.3222 92.4486 31.3118 92.5656 31.2781C92.6826 31.2443 92.7918 31.1878 92.887 31.1118C92.9821 31.0358 93.0613 30.9417 93.1201 30.8351Z" fill="#37474F"/>
<path opacity="0.1" d="M91.5218 29.9339C91.5096 29.9631 91.5034 29.9944 91.5034 30.026C91.5034 30.0576 91.5096 30.0889 91.5218 30.1181C91.5399 30.1487 91.5664 30.1735 91.5982 30.1894C91.63 30.2053 91.6657 30.2117 91.7011 30.2077C91.7712 30.2012 91.84 30.1844 91.9052 30.1579C92.121 30.0833 92.3496 30.0528 92.5774 30.0683C92.5961 30.0768 92.6165 30.0813 92.6371 30.0813C92.6577 30.0813 92.6781 30.0768 92.6968 30.0683C92.7417 30.0235 92.6968 29.9488 92.667 29.904C92.588 29.8176 92.4918 29.7486 92.3847 29.7014C92.2775 29.6543 92.1617 29.63 92.0446 29.6302C91.9376 29.6258 91.8316 29.652 91.7389 29.7058C91.6463 29.7596 91.571 29.8388 91.5218 29.9339Z" fill="white"/>
<path opacity="0.15" d="M91.6065 30.0634C91.6189 30.0695 91.6325 30.0727 91.6463 30.0727C91.6601 30.0727 91.6738 30.0695 91.6862 30.0634C91.8035 30.0435 91.9154 29.9994 92.0148 29.9339C92.0362 29.9207 92.0534 29.9017 92.0646 29.8791C92.0717 29.8564 92.0712 29.8319 92.0631 29.8094C92.055 29.7869 92.0398 29.7677 92.0197 29.7547C91.9768 29.7242 91.9255 29.7079 91.8729 29.7079C91.8203 29.7079 91.7689 29.7242 91.726 29.7547C91.6662 29.8294 91.5368 29.9937 91.6065 30.0634Z" fill="white"/>
<path d="M45.7608 48.7989L53.8216 47.3053L64.108 47.0314C65.6017 46.9667 71.0436 51.2734 74.8027 56.4913C76.8888 59.399 77.3867 63.8252 73.1596 68.4407C73.2642 69.536 72.6966 75.9439 72.5423 77.1537L76.844 87.1713C73.787 94.8936 49.9132 97.9257 40.762 91.3187C41.6631 86.2352 45.243 79.2548 46.5076 75.6402C46.1591 74.1465 44.9094 69.3667 44.3169 67.3005C43.0473 62.8593 42.5793 54.9279 42.7933 53.5936C43.2663 50.6461 45.7608 48.7989 45.7608 48.7989Z" fill="#90CAF9"/>
<path opacity="0.65" d="M45.7608 48.7989L53.8216 47.3053L64.108 47.0314C65.6017 46.9667 71.0436 51.2734 74.8027 56.4913C76.8888 59.399 77.3867 63.8252 73.1596 68.4407C73.2642 69.536 72.6966 75.9439 72.5423 77.1537L76.844 87.1713C73.787 94.8936 49.9132 97.9257 40.762 91.3187C41.6631 86.2352 45.243 79.2548 46.5076 75.6402C46.1591 74.1465 44.9094 69.3667 44.3169 67.3005C43.0473 62.8593 42.5793 54.9279 42.7933 53.5936C43.2663 50.6461 45.7608 48.7989 45.7608 48.7989Z" fill="white"/>
<path d="M51.9296 42.5554C52.0889 41.8683 50.7646 39.2693 49.9978 38.2039C47.7075 35.0323 46.5524 34.161 45.6662 30.2077C45.3365 28.7833 45.3482 27.3011 45.7004 25.8821C46.0526 24.4631 46.7352 23.1474 47.6926 22.0424C49.4153 15.9681 56.3907 15.3507 61.7131 16.4361C66.0896 17.3323 70.9888 20.9769 70.4611 26.3939L51.9296 42.5554Z" fill="#37474F"/>
<path d="M65.3428 21.1063C67.892 22.3909 70.1474 24.2331 69.9781 33.5038C69.8487 40.6485 67.7426 42.4658 66.5925 43.0185C65.4423 43.5711 63.6051 43.7504 61.3945 43.4467V47.8032C61.3945 47.8032 67.9268 53.9023 65.7162 58.1244C54.9319 54.7637 52.1238 47.9625 52.1238 47.9625L51.7603 37.5068C51.351 37.8267 50.8504 38.0078 50.3311 38.0239C49.8119 38.04 49.301 37.8903 48.8726 37.5965C46.3831 36.1028 46.3533 32.9213 47.7125 31.4625C47.9968 31.1332 48.359 30.8803 48.7661 30.7267C49.1731 30.5731 49.6121 30.5238 50.0431 30.5831C50.4741 30.6425 50.8834 30.8087 51.2337 31.0667C51.5841 31.3246 51.8644 31.666 52.0491 32.0599C52.0491 32.0599 51.0135 25.2488 54.8174 22.4307C59.2735 19.1198 62.3554 19.5977 65.3428 21.1063Z" fill="#FFBE9D"/>
<path d="M60.9166 37.4371C60.8588 37.8946 60.9791 38.3568 61.2526 38.7281C61.526 39.0993 61.9317 39.3513 62.3857 39.4319C62.8397 39.5125 63.3074 39.4155 63.6919 39.1609C64.0764 38.9064 64.3484 38.5139 64.4516 38.0645L60.9166 37.4371Z" fill="#B16668"/>
<path d="M62.9181 39.5034C62.9102 39.1045 62.7463 38.7246 62.4614 38.4453C62.1765 38.166 61.7935 38.0096 61.3945 38.0097C61.235 38.0127 61.077 38.0413 60.9265 38.0943C60.9964 38.4482 61.1717 38.7726 61.4294 39.025C61.6871 39.2774 62.0152 39.4459 62.3704 39.5084C62.552 39.5365 62.737 39.5348 62.9181 39.5034Z" fill="#EB996E"/>
<path d="M59.861 32.3088C60.3917 32.3088 60.8219 31.8786 60.8219 31.3479C60.8219 30.8172 60.3917 30.387 59.861 30.387C59.3303 30.387 58.9001 30.8172 58.9001 31.3479C58.9001 31.8786 59.3303 32.3088 59.861 32.3088Z" fill="#263238"/>
<path d="M67.9318 30.8749C67.9327 31.066 67.8767 31.2531 67.7708 31.4121C67.6649 31.5712 67.514 31.6951 67.3373 31.768C67.1607 31.8409 66.9663 31.8594 66.779 31.8213C66.5918 31.7831 66.4201 31.69 66.2861 31.5538C66.152 31.4176 66.0616 31.2445 66.0264 31.0567C65.9912 30.8689 66.0128 30.6748 66.0884 30.4993C66.1641 30.3238 66.2903 30.1749 66.4511 30.0715C66.6118 29.9681 66.7997 29.915 66.9908 29.919C67.2417 29.9229 67.481 30.0253 67.6571 30.2042C67.8332 30.383 67.9318 30.6239 67.9318 30.8749Z" fill="#263238"/>
<path d="M63.3811 29.9189L63.9288 35.4953L67.2597 34.7186L63.3811 29.9189Z" fill="#EB996E"/>
<path d="M61.3945 43.4466C59.403 43.1031 55.0016 42.0376 53.1146 38.6271C53.3334 39.8931 53.8869 41.0776 54.7178 42.0575C56.6247 44.0491 61.3945 45.1245 61.3945 45.1245V43.4466Z" fill="#EB996E"/>
<path d="M59.8211 28.0021L57.73 29.6302C57.5187 29.3412 57.4267 28.982 57.473 28.6269C57.5194 28.2719 57.7005 27.9484 57.979 27.7233C58.1168 27.6169 58.2748 27.5396 58.4433 27.496C58.6118 27.4523 58.7875 27.4432 58.9596 27.4693C59.1317 27.4953 59.2968 27.556 59.4449 27.6476C59.5929 27.7391 59.7209 27.8597 59.8211 28.0021Z" fill="#263238"/>
<path d="M68.4546 28.5398L65.9651 27.5441C66.0215 27.3792 66.1108 27.2276 66.2278 27.0986C66.3447 26.9695 66.4868 26.8656 66.6452 26.7934C66.8037 26.7211 66.9753 26.682 67.1494 26.6784C67.3236 26.6748 67.4966 26.7067 67.658 26.7723C67.9933 26.907 68.2636 27.1663 68.4121 27.4957C68.5606 27.8252 68.5758 28.1994 68.4546 28.5398Z" fill="#263238"/>
<path d="M62.9529 23.7949C61.8326 23.9891 60.5082 22.132 58.2777 22.9236C55.8779 23.775 56.6396 26.4736 54.9169 27.9573C53.6125 29.0825 54.917 32.1893 53.5079 32.8167C52.8806 33.0955 52.0441 32.0549 52.0441 32.0549C52.0441 32.0549 50.8392 30.2476 51.128 26.0802C51.4168 21.9129 56.9433 19.1745 60.9314 19.0152C64.9195 18.8558 68.3998 22.3759 69.052 25.2139C69.052 25.2139 68.0563 22.9136 66.1842 22.6249C64.3121 22.3361 63.9586 23.6206 62.9529 23.7949Z" fill="#37474F"/>
<path d="M62.9529 23.7949C61.3447 21.8034 57.5209 21.2457 55.0315 24.8206C52.542 28.3954 53.3137 32.8665 51.7753 37.9997C50.2368 43.133 46.2089 43.7205 46.2089 43.7205C46.2089 43.7205 50.0924 41.1862 49.9978 35.4057C49.9032 29.6252 49.9181 25.0994 53.6872 22.0424C57.4562 18.9853 62.3504 20.011 62.9529 23.7949Z" fill="#455A64"/>
<path d="M62.9529 23.7949C63.0176 22.6498 64.3918 19.8118 67.2596 20.3695C70.5009 20.9769 72.8011 27.3748 69.9184 31.3728C69.9184 31.3728 70.2071 24.8355 66.9708 22.595C64.7104 21.0068 62.9529 23.7949 62.9529 23.7949Z" fill="#455A64"/>
<path d="M45.7608 48.799C42.3303 49.0927 39.6567 49.4661 38.0933 54.5147C36.5299 59.5633 32.4273 76.397 32.6912 80.1859C32.9551 83.9748 43.7045 74.5299 43.7045 74.5299C43.7045 74.5299 47.5382 60.813 47.5382 60.6238C47.5382 60.4346 48.5191 53.0211 45.7608 48.799Z" fill="#EB996E"/>
<path d="M49.7887 60.8031C50.421 59.8421 50.2318 54.6093 49.9132 53.519C49.5856 52.3116 49.4001 51.07 49.3605 49.8196C49.3207 48.6197 48.8079 47.5642 48.2502 47.4397C47.6926 47.3152 47.2544 47.4049 47.1698 48.2214C47.1024 49.3882 46.8206 50.5325 46.3383 51.5971C45.6214 53.2551 44.8447 54.9628 45.8056 56.9693C46.7665 58.9758 49.7887 60.8031 49.7887 60.8031Z" fill="#EB996E"/>
<path d="M56.809 52.7472L57.6902 54.2956C58.2538 54.2623 58.8126 54.1722 59.3582 54.0268C61.8476 53.5289 61.997 53.1505 61.997 53.1505C60.5631 53.4841 57.8944 53.8077 56.809 52.7472Z" fill="#EBEBEB"/>
<path d="M56.2314 52.319L57.1176 53.8675C57.6796 53.834 58.2367 53.744 58.7806 53.5986C61.27 53.1007 61.4244 52.7223 61.4244 52.7223C59.9904 53.0559 57.3168 53.3696 56.2314 52.319Z" fill="#EBEBEB"/>
<path d="M55.6588 51.8759L56.5401 53.4244C57.1023 53.3938 57.6598 53.3036 58.203 53.1555C60.6925 52.6576 60.8468 52.2792 60.8468 52.2792C59.4129 52.6277 56.7442 52.9514 55.6588 51.8759Z" fill="#EBEBEB"/>
<path d="M39.109 50.2528C42.186 50.0486 53.1993 50.6411 54.7029 51.0743C56.2065 51.5074 56.3758 52.1248 57.4313 53.1505C58.4869 54.1761 61.1854 53.8824 62.6193 53.5488C62.6193 53.5488 62.5247 54.0467 60.0204 54.5446C57.7052 54.9827 57.1874 54.5047 56.3858 53.733C55.5842 52.9613 55.4597 51.9456 54.0556 51.6518C52.6516 51.3581 40.7172 50.7955 38.9895 50.8552C37.2618 50.915 38.0485 50.2876 39.109 50.2528Z" fill="#FAFAFA"/>
<path d="M46.5773 54.4749C46.5773 54.4749 48.315 52.8319 49.0668 52.2643C49.8186 51.6967 51.4716 51.4079 52.0541 50.9051C52.6366 50.4022 52.7512 49.5408 52.0541 49.3068C51.3571 49.0728 48.9722 49.5607 48.2403 49.8495C47.2782 50.2292 46.3914 50.7771 45.6214 51.4677C44.5708 52.3738 43.3012 53.3348 43.1319 53.8725C42.8929 54.5297 43.2265 55.6649 43.4008 56.2823C43.575 56.8996 44.058 59.0754 44.3169 60.3102C44.526 61.306 44.6704 61.8287 44.0182 62.8345C43.2265 64.0394 39.8857 68.7693 37.6302 71.6372C35.9573 73.7681 33.0148 76.5314 32.3576 79.8524C31.7004 83.1733 33.0198 86.066 34.394 86.9224C35.7681 87.7788 40.2043 87.8435 42.5892 84.5325C46.0744 79.6681 46.3483 76.3323 47.6129 73.1259C48.8776 69.9195 50.1671 66.1554 50.7098 65.4335C51.4716 64.4377 52.3379 63.2029 52.2035 61.8238C52.0441 60.0314 52.3379 59.3343 53.2839 57.9801C53.8039 57.3463 54.2624 56.6644 54.6531 55.9437C54.9966 55.172 54.9867 54.5048 54.6531 54.226C54.3195 53.9472 53.9212 54.3355 53.9212 54.3355C53.8901 54.17 53.8163 54.0156 53.7071 53.8874C53.5644 53.6997 53.3969 53.5322 53.2092 53.3895C53.3822 53.2642 53.535 53.1131 53.6623 52.9414C53.8664 52.6626 53.6274 52.0353 53.4233 51.7614C53.2192 51.4876 52.1885 51.4975 51.7305 51.6618C51.2724 51.8261 49.8335 52.2742 49.4501 52.4734C49.0668 52.6726 46.5773 54.4749 46.5773 54.4749Z" fill="#FFBE9D"/>
<path d="M53.6673 52.9613C53.7082 52.8858 53.7337 52.8029 53.7422 52.7174C53.7508 52.6319 53.7422 52.5456 53.717 52.4634C53.5548 52.7447 53.3212 52.9783 53.0399 53.1406C52.4773 53.5289 50.7347 54.2807 49.8733 55.0077C49.012 55.7346 48.1506 56.6457 47.6378 56.7951C48.0212 56.7453 49.0568 56.0482 50.0974 55.2317C51.0853 54.5424 52.1277 53.9346 53.2142 53.4144C53.3876 53.2876 53.5404 53.1347 53.6673 52.9613Z" fill="#EB996E"/>
<path d="M53.0897 55.4209C52.8209 55.7495 51.3322 56.9544 50.7995 57.4124C50.2667 57.8705 49.3058 58.5427 49.3058 58.5427C49.7793 58.3325 50.2298 58.0738 50.6501 57.7709C51.5156 57.0929 52.3465 56.3717 53.1395 55.6101C53.5029 55.2659 53.7573 54.8228 53.8714 54.3355C53.8403 54.17 53.7665 54.0155 53.6573 53.8874C53.8167 54.4649 53.3586 55.0973 53.0897 55.4209Z" fill="#EB996E"/>
</g>
<defs>
<clipPath id="clip0_84_1048">
<rect width="111.511" height="112" fill="white" transform="translate(0.489441)"/>
</clipPath>
</defs>
</svg>
