<svg width="64" height="64" viewBox="0 0 64 64" fill="none" xmlns="http://www.w3.org/2000/svg">
<path d="M0 8C0 3.58172 3.58172 0 8 0H56C60.4183 0 64 3.58172 64 8V56C64 60.4183 60.4183 64 56 64H8C3.58172 64 0 60.4183 0 56V8Z" fill="#E3F2FD"/>
<path d="M32.0001 18.6667V29.3334M32.0001 18.6667L26.6667 24.0001M32.0001 18.6667L37.3334 24.0001M22.5734 30.5734L24.4534 32.4534M18.6667 40.0001H21.3334M42.6667 40.0001H45.3334M41.4267 30.5734L39.5467 32.4534M45.3334 45.3334H18.6667M37.3334 40.0001C37.3334 38.5856 36.7715 37.229 35.7713 36.2288C34.7711 35.2287 33.4146 34.6667 32.0001 34.6667C30.5856 34.6667 29.229 35.2287 28.2288 36.2288C27.2287 37.229 26.6667 38.5856 26.6667 40.0001" stroke="#42A5F5" stroke-width="2.66667" stroke-linecap="round" stroke-linejoin="round"/>
</svg>
