<svg width="64" height="64" viewBox="0 0 64 64" fill="none" xmlns="http://www.w3.org/2000/svg">
<path d="M0 8C0 3.58172 3.58172 0 8 0H56C60.4183 0 64 3.58172 64 8V56C64 60.4183 60.4183 64 56 64H8C3.58172 64 0 60.4183 0 56V8Z" fill="#E0F2F1"/>
<path d="M20 18.6667V28.0001C20 29.4667 21.2 30.6667 22.6667 30.6667H28C28.7072 30.6667 29.3855 30.3858 29.8856 29.8857C30.3857 29.3856 30.6667 28.7073 30.6667 28.0001V18.6667M25.3333 18.6667V45.3334M44 36.0001V18.6667C42.2319 18.6667 40.5362 19.3691 39.286 20.6194C38.0357 21.8696 37.3333 23.5653 37.3333 25.3334V33.3334C37.3333 34.8001 38.5333 36.0001 40 36.0001H44ZM44 36.0001V45.3334" stroke="#26A69A" stroke-width="2.66667" stroke-linecap="round" stroke-linejoin="round"/>
</svg>
