<svg width="64" height="64" viewBox="0 0 64 64" fill="none" xmlns="http://www.w3.org/2000/svg">
<path d="M0 8C0 3.58172 3.58172 0 8 0H56C60.4183 0 64 3.58172 64 8V56C64 60.4183 60.4183 64 56 64H8C3.58172 64 0 60.4183 0 56V8Z" fill="#EDE7F6"/>
<path d="M32 20C30.4087 21.5913 29.5147 23.7496 29.5147 26C29.5147 28.2504 30.4087 30.4087 32 32C33.5913 33.5913 35.7496 34.4853 38 34.4853C40.2504 34.4853 42.4087 33.5913 44 32C44 34.3734 43.2962 36.6935 41.9776 38.6668C40.6591 40.6402 38.7849 42.1783 36.5922 43.0866C34.3995 43.9948 31.9867 44.2324 29.6589 43.7694C27.3312 43.3064 25.193 42.1635 23.5147 40.4853C21.8365 38.8071 20.6936 36.6689 20.2306 34.3411C19.7676 32.0133 20.0052 29.6005 20.9135 27.4078C21.8217 25.2151 23.3598 23.3409 25.3332 22.0224C27.3066 20.7038 29.6266 20 32 20Z" stroke="#7E57C2" stroke-width="2.66667" stroke-linecap="round" stroke-linejoin="round"/>
</svg>
