<svg width="40" height="40" viewBox="0 0 40 40" fill="none" xmlns="http://www.w3.org/2000/svg">
<rect width="40" height="40" rx="20" fill="#EEEEEE"/>
<path d="M20 11H13C12.4696 11 11.9609 11.2107 11.5858 11.5858C11.2107 11.9608 11 12.4695 11 13V27C11 27.5304 11.2107 28.0391 11.5858 28.4142C11.9609 28.7893 12.4696 29 13 29H27C27.5304 29 28.0391 28.7893 28.4142 28.4142C28.7893 28.0391 29 27.5304 29 27V20M26.375 10.625C26.7728 10.2272 27.3124 10.0037 27.875 10.0037C28.4376 10.0037 28.9772 10.2272 29.375 10.625C29.7728 11.0228 29.9963 11.5624 29.9963 12.125C29.9963 12.6876 29.7728 13.2272 29.375 13.625L20.362 22.639C20.1245 22.8762 19.8312 23.0499 19.509 23.144L16.636 23.984C16.55 24.0091 16.4587 24.0106 16.3719 23.9883C16.2851 23.9661 16.2058 23.9209 16.1424 23.8575C16.0791 23.7942 16.0339 23.7149 16.0116 23.6281C15.9894 23.5412 15.9909 23.45 16.016 23.364L16.856 20.491C16.9505 20.169 17.1245 19.876 17.362 19.639L26.375 10.625Z" stroke="#757575" stroke-width="2" stroke-linecap="round" stroke-linejoin="round"/>
</svg>
