<svg width="64" height="112" viewBox="0 0 64 112" fill="none" xmlns="http://www.w3.org/2000/svg">
<g clip-path="url(#clip0_84_576)">
<path d="M51.1774 93.2157C55.3223 99.7668 59.1242 106.727 59.5994 121.724C60.201 141.48 58.1316 159.021 58.3181 161.428C58.5046 163.834 59.5513 167.732 61.368 179.541C63.1848 191.35 61.1154 214.264 61.1154 214.264C61.1154 214.264 59.7739 216.977 55.0576 217.584C50.7022 218.144 48.6268 216.219 48.6268 216.219C48.6268 216.219 41.1914 184.66 39.2182 177.586C37.2451 170.511 34.2673 145.191 34.2673 145.191L33.5274 158.624C33.5274 158.624 35.1516 165.115 34.2914 175.571C33.4311 186.026 30.309 206.251 30.309 206.251C30.309 206.251 28.3659 208.284 23.7218 208.188C19.4807 208.098 17.303 205.884 17.303 205.884C17.303 205.884 12.5747 166.18 12.0453 154.407C11.5159 142.635 11.3715 113.152 14.4516 95.5317L51.1774 93.2157Z" fill="#37474F"/>
<path d="M47.8387 23.1088C52.6873 24.733 53.722 29.4914 53.8544 37.6427C53.8965 40.807 53.7762 43.6103 56.4532 45.7639C57.8789 46.9189 59.5753 47.7671 60.7905 49.1447C62.8057 51.4247 62.9802 55.3349 60.7243 57.3802C61.5646 57.7228 62.2954 58.2881 62.8382 59.0153C63.3809 59.7425 63.715 60.604 63.8044 61.507C63.957 63.328 63.4298 65.1411 62.3245 66.5963C60.1468 69.6402 55.9117 70.8073 52.3144 70.1215C51.43 72.5278 48.8553 74.0678 46.2987 74.2302C43.742 74.3927 41.2094 73.364 39.0798 71.9142C37.7263 74.4769 34.3334 75.307 31.6685 74.8859C30.3002 74.6772 28.9926 74.1778 27.8335 73.4213C26.6744 72.6649 25.6909 71.6689 24.9489 70.5005C24.8613 70.3309 24.7279 70.1892 24.5639 70.0914C24.4345 70.0375 24.2949 70.0128 24.1549 70.0192C22.3201 69.9771 20.5755 69.9711 18.9272 69.1169C17.4279 68.441 16.1407 67.3701 15.2035 66.0188C14.5929 65.0577 14.2407 63.9554 14.1808 62.8184C14.0785 61.8659 14.2431 60.9036 14.656 60.0392C13.104 58.836 12.9596 55.2266 13.4529 53.2896C13.9462 51.3525 15.2155 49.7463 16.5871 48.3146C17.9587 46.8828 19.4746 45.5714 20.6417 43.9652C21.62 42.6313 22.0991 40.9962 21.9952 39.3452C21.9952 38.3766 22.4464 36.602 21.7726 35.7658C21.7726 35.7658 18.8249 32.1083 18.9994 28.2041C19.0873 25.4869 20.0785 22.8765 21.8162 20.7857C23.554 18.695 25.9391 17.2432 28.5944 16.6599C34.5741 15.162 45.4204 15.7817 47.8387 23.1088Z" fill="#263238"/>
<path d="M24.203 55.4492C20.4853 55.7681 14.6621 56.2674 11.173 63.8171C7.02817 72.7805 3.46687 81.2205 0.459021 93.1857L9.3743 93.7512L17.297 81.052L24.203 55.4492Z" fill="#FFBE9D"/>
<path d="M7.56348 82.6643C9.02799 81.1774 10.3048 79.5167 11.3654 77.7193C9.39827 72.9068 11.1188 64.3585 18.6203 60.0151L20.1544 70.4524L17.2969 81.052L9.37421 93.7512C9.37421 93.7512 1.00034 99.7669 0.699556 95.604C0.699556 95.3995 0.699556 95.207 0.699556 95.0025C0.77776 94.0941 0.89809 93.1978 1.03645 92.2774C1.94482 87.6332 5.72267 84.4449 7.56348 82.6643Z" fill="#EB996E"/>
<path d="M56.1884 102.606C57.8849 98.9066 54.2153 95.3874 53.6318 89.883C53.2287 86.1172 55.6891 76.8831 55.6891 76.8831C55.6891 76.8831 49.2343 71.3486 51.4781 56.8688L39.17 54.7272C29.8156 54.1858 24.2029 55.4491 24.2029 55.4491C21.6824 57.3862 17.3992 60.37 14.5116 64.9419C10.1683 71.8118 11.967 77.3763 15.9554 82.0265C15.9915 82.9168 16.0938 87.6271 13.5912 97.162C13.2363 98.5155 12.3219 100.904 13.4348 102.173C19.6912 109.284 45.0955 111.888 56.1884 102.606Z" fill="#EC407A"/>
<path d="M49.3547 36.7945C48.314 35.5553 46.1543 34.9898 45.0535 36.6381C44.3737 37.6548 44.1631 39.3813 43.1705 39.0986C42.569 38.9301 42.3644 38.2022 42.6231 36.8848C42.6231 36.957 41.8351 36.4637 41.7809 36.4156C41.035 35.7538 41.2214 34.7853 40.9868 33.919C40.7282 32.9565 39.9762 32.2286 39.531 31.3624C38.8272 30.0028 39.128 28.3545 39.4288 26.8987C39.5611 26.2971 39.6514 25.5392 39.2062 25.094C38.8426 24.8047 38.3815 24.6668 37.9188 24.709C36.472 24.8194 35.0394 25.0712 33.6417 25.461C32.2347 25.8482 30.7435 25.8 29.3645 25.3226C28.7629 25.076 28.2877 24.721 27.7342 24.4263C27.1912 24.1039 26.5559 23.9726 25.9295 24.0533C25.4104 24.195 24.9389 24.4734 24.564 24.8594C22.669 26.61 22.0374 29.3952 21.5561 31.8436C21.2795 33.6911 21.1587 35.5585 21.1952 37.4262C20.9485 45.397 22.3321 47.3822 23.9804 48.7838C25.3941 49.987 27.5899 50.6487 30.2248 50.6788L30.1405 55.2086C30.1405 55.2086 26.2604 62.2831 28.035 66.458C28.035 66.458 34.1289 63.9975 37.8527 60.9897C42.4246 57.2961 43.2006 55.4913 43.2006 55.4913L43.3871 42.9306C43.3871 42.9306 45.2399 45.7279 48.0252 43.6224C50.3713 41.9199 50.9007 38.6474 49.3547 36.7945Z" fill="#FFBE9D"/>
<path d="M30.1826 50.6788C35.1876 50.763 40.0784 48.6876 41.9373 44.1999C41.9373 44.1999 41.7267 47.2077 39.8137 49.0125C35.9937 52.6219 30.1525 52.2609 30.1525 52.2609L30.1826 50.6788Z" fill="#EB996E"/>
<path d="M35.8915 34.5988C35.9107 34.8336 35.8607 35.0689 35.7474 35.2754C35.6342 35.482 35.4629 35.6508 35.2546 35.7608C35.0464 35.8709 34.8104 35.9175 34.5759 35.8947C34.3415 35.8718 34.1189 35.7807 33.9357 35.6326C33.7526 35.4844 33.6169 35.2858 33.5457 35.0613C33.4744 34.8368 33.4705 34.5963 33.5347 34.3696C33.5988 34.143 33.7281 33.9401 33.9064 33.7862C34.0847 33.6323 34.3043 33.5342 34.5379 33.504C34.6993 33.4831 34.8633 33.4952 35.0199 33.5395C35.1765 33.5838 35.3225 33.6594 35.449 33.7617C35.5756 33.8641 35.68 33.991 35.7561 34.1349C35.8321 34.2788 35.8782 34.4366 35.8915 34.5988Z" fill="#263238"/>
<path d="M26.3686 34.9177C26.2966 35.143 26.1598 35.3421 25.9753 35.4901C25.7908 35.6381 25.5668 35.7284 25.3312 35.7498C25.0957 35.7712 24.859 35.7226 24.6509 35.6103C24.4428 35.4979 24.2724 35.3267 24.161 35.118C24.0497 34.9093 24.0023 34.6724 24.0248 34.437C24.0474 34.2015 24.1388 33.9779 24.2877 33.7942C24.4366 33.6104 24.6364 33.4746 24.862 33.4037C25.0877 33.3329 25.3292 33.3301 25.5565 33.3957C25.711 33.4404 25.855 33.5155 25.9799 33.6168C26.1049 33.718 26.2083 33.8433 26.284 33.9852C26.3597 34.1271 26.4062 34.2827 26.4207 34.4429C26.4353 34.603 26.4175 34.7645 26.3686 34.9177Z" fill="#263238"/>
<path d="M36.2585 30.0269L33.413 28.6493C33.2353 29.039 33.2156 29.4824 33.3581 29.8863C33.5006 30.2902 33.7941 30.6231 34.1771 30.8149C34.3646 30.9055 34.5686 30.9569 34.7766 30.966C34.9846 30.9751 35.1923 30.9418 35.3871 30.8681C35.5818 30.7944 35.7595 30.6818 35.9093 30.5371C36.0591 30.3925 36.1779 30.2189 36.2585 30.0269Z" fill="#263238"/>
<path d="M23.7398 29.3411L26.7056 28.2462C26.8433 28.6511 26.8194 29.0935 26.639 29.4813C26.4586 29.8691 26.1355 30.1722 25.7371 30.3276C25.5414 30.399 25.3334 30.4299 25.1255 30.4185C24.9176 30.4072 24.7141 30.3538 24.5274 30.2616C24.3407 30.1693 24.1747 30.0402 24.0393 29.882C23.904 29.7238 23.8021 29.5398 23.7398 29.3411Z" fill="#263238"/>
<path d="M28.1734 42.6418L32.5889 41.4387C32.7362 42.0403 32.6459 42.6757 32.3366 43.2124C32.0273 43.7491 31.523 44.1459 30.9285 44.3202C30.6372 44.3979 30.3332 44.4157 30.0348 44.3727C29.7364 44.3297 29.4498 44.2266 29.1923 44.0698C28.9348 43.9129 28.7118 43.7055 28.5367 43.4601C28.3615 43.2147 28.2379 42.9363 28.1734 42.6418Z" fill="#B16668"/>
<path d="M29.5569 44.224C29.715 43.626 30.0766 43.1018 30.5795 42.7416C31.0824 42.3815 31.6951 42.2079 32.3121 42.2509C32.4234 42.2625 32.5338 42.2806 32.643 42.305C32.5841 42.768 32.3918 43.204 32.0895 43.5597C31.7873 43.9153 31.3881 44.1754 30.9406 44.3082C30.4823 44.4294 29.9971 44.3999 29.5569 44.224Z" fill="#EB996E"/>
<path d="M38.2076 32.1324L45.9138 35.8561C45.4555 36.0896 45.0874 36.4682 44.867 36.9329L37.7986 33.4438L38.2076 32.1324Z" fill="#263238"/>
<path d="M20.7501 30.9052L21.2434 30.8692C22.8435 30.7729 24.9189 30.827 26.1642 31.2722C27.7283 31.8377 28.2757 32.4152 29.172 32.4753C30.0684 32.5355 30.688 31.9881 32.3844 31.591C33.7259 31.2722 35.9638 31.4346 37.6782 31.6933L38.2136 31.7835C38.4012 31.8512 38.5615 31.9784 38.6701 32.1456C38.7787 32.3129 38.8297 32.5111 38.8152 32.71C38.7592 33.0933 38.587 33.4502 38.3219 33.7326C38.2376 33.8578 38.1803 33.9992 38.1535 34.1477C37.979 34.8696 37.8828 36.2773 37.5519 37.0533C37.3854 37.4356 37.1533 37.7858 36.8661 38.088C36.7582 38.1958 36.6415 38.2944 36.5172 38.3828L36.3127 38.5151C36.1235 38.6286 35.9216 38.7195 35.7111 38.7858H35.6088L35.4464 38.8279L35.278 38.864C35.1009 38.8946 34.9221 38.9147 34.7426 38.9242H34.1891C33.4034 38.9462 32.6296 38.7275 31.9716 38.2974C31.3136 37.8673 30.8028 37.2464 30.5075 36.5179C29.9721 35.3749 30.1346 33.8229 29.1299 33.7747H29.0337H28.9434C28.1915 33.9131 28.2577 35.3509 27.7403 36.3675C27.5521 36.7738 27.3003 37.1474 26.9944 37.4744C26.9392 37.5336 26.881 37.5898 26.8199 37.6428L26.7236 37.7271L26.6274 37.7992L26.5372 37.8654L26.4409 37.9256L26.3627 37.9737H26.3086C26.0297 38.1259 25.7296 38.2354 25.4183 38.2985H25.334C24.9769 38.363 24.6132 38.3832 24.2512 38.3587C23.5786 38.358 22.9239 38.1422 22.3827 37.7428C21.8415 37.3434 21.4423 36.7814 21.2434 36.1389C21.0007 35.1688 20.8337 34.1812 20.744 33.1852C20.7188 33.0455 20.6611 32.9136 20.5756 32.8002C20.3375 32.4863 20.1954 32.1102 20.1665 31.7174C20.1688 31.5385 20.226 31.3647 20.3304 31.2194C20.4347 31.0741 20.5813 30.9644 20.7501 30.9052ZM31.0971 35.5193C31.2079 36.106 31.4667 36.6547 31.849 37.1135C32.1546 37.4449 32.5272 37.7075 32.9421 37.8839C33.357 38.0602 33.8046 38.1462 34.2553 38.1361C34.7015 38.187 35.1532 38.1185 35.5643 37.9378C35.9754 37.7571 36.3312 37.4706 36.5954 37.1074L36.6556 37.0052C36.6798 36.9704 36.7019 36.9343 36.7217 36.8969L36.7759 36.7946C36.7943 36.7658 36.8104 36.7357 36.824 36.7044L36.8601 36.6322C36.869 36.6096 36.879 36.5875 36.8902 36.566L36.9323 36.4517C36.9774 36.3481 37.0156 36.2416 37.0466 36.1329L37.1007 35.9404C37.1007 35.8321 37.1549 35.7238 37.1729 35.6336C37.1696 35.6137 37.1696 35.5933 37.1729 35.5734C37.1729 35.5734 37.1729 35.5313 37.1729 35.5133C37.3353 34.7493 37.5158 33.2454 37.1368 32.8844C36.7578 32.5235 35.7653 32.1264 34.129 32.2107H33.9545C33.7061 32.2275 33.459 32.2597 33.2146 32.3069C33.1123 32.3069 33.0221 32.343 32.9258 32.361C32.6812 32.4141 32.4401 32.4825 32.204 32.5656L31.9814 32.6498L31.7407 32.7521H31.6926L31.6024 32.8002C31.4142 32.8867 31.2477 33.0141 31.1151 33.1732C30.8324 33.6424 30.9166 34.647 31.0971 35.5193ZM21.5562 34.7072C21.6584 35.3087 21.875 36.6442 23.0059 37.2819C23.3763 37.4838 23.7877 37.599 24.2091 37.6188C24.6809 37.6894 25.163 37.6285 25.6024 37.4427C26.0418 37.257 26.4215 36.9536 26.6996 36.566C26.7177 36.5434 26.7338 36.5193 26.7477 36.4938L26.8019 36.4156C26.8007 36.4016 26.8007 36.3875 26.8019 36.3735L26.868 36.2532C26.8925 36.2063 26.9146 36.1581 26.9342 36.1088L26.9703 36.0427C26.9703 36.0427 26.9703 36.0427 26.9703 36.0005C26.9726 35.9826 26.9726 35.9644 26.9703 35.9464V35.8983C27.0424 35.7026 27.0987 35.5014 27.1387 35.2967C27.3252 34.4425 27.4395 33.4499 27.1387 32.9686C26.8379 32.4874 25.6649 31.9099 24.5219 31.7113C24.277 31.6668 24.0301 31.6347 23.782 31.6151H23.1263H22.9217C22.7966 31.6241 22.6721 31.6401 22.5487 31.6632H22.4585H22.3984H22.3081H22.1998L22.0194 31.7234H21.9893C21.8396 31.7784 21.701 31.8599 21.5802 31.964C21.3216 32.4152 21.4539 33.9251 21.5562 34.7072Z" fill="#37474F"/>
<path d="M30.2187 35.6396L28.7208 40.4521L24.8527 38.5151C25.0031 38.2925 28.6727 34.1056 28.9674 33.8168C29.1079 33.787 29.2539 33.7991 29.3876 33.8515C29.5213 33.9039 29.6366 33.9943 29.7194 34.1116C29.9789 34.5856 30.1482 35.1038 30.2187 35.6396Z" fill="#EB996E"/>
<path d="M20.786 82.4477C21.8448 80.8277 23.4199 79.613 25.2557 79.0007C27.3195 78.1904 29.3289 77.248 31.2714 76.1793C32.09 75.8029 32.8596 75.3282 33.5634 74.7657C33.9271 74.4553 34.203 74.055 34.3635 73.6046C34.4634 73.1994 34.4121 72.7716 34.2191 72.4015C34.6879 72.18 35.0873 71.8347 35.3741 71.4029C35.6056 70.9807 35.672 70.4876 35.5606 70.0193C35.5169 69.8714 35.4438 69.7338 35.3456 69.6149C35.2474 69.496 35.1261 69.3982 34.9891 69.3275C35.2538 68.8823 36.0539 67.6009 35.2057 66.6505C34.9109 66.4279 34.4658 66.5302 34.0988 66.5482C33.7318 66.5662 32.8956 66.7106 32.7152 66.7467C32.6305 66.6245 32.5168 66.5253 32.3843 66.458C31.5668 66.0471 30.6388 65.91 29.7374 66.0669C28.7511 66.2678 27.7877 66.5681 26.8619 66.9633C25.8513 67.3242 24.7925 67.5649 23.7638 67.8717C23.5486 67.9394 23.3268 67.9837 23.1021 68.004C22.5908 68.004 22.0915 67.7995 21.5801 67.8596C21.1411 67.9281 20.7139 68.0577 20.3108 68.2446C19.4253 68.6514 18.6906 69.3272 18.2113 70.1757C16.8638 72.4917 16.0156 74.9882 14.4214 77.1599C13.0369 78.9875 11.495 80.6904 9.81341 82.2492C7.19056 84.7878 2.17947 87.0617 0.741714 92.0788C-0.220798 95.4055 -0.160645 100.068 2.13134 102.041C3.63527 103.34 9.25995 102.294 12.358 98.9367C15.9855 94.9724 19.4385 84.7036 20.786 82.4477Z" fill="#FFBE9D"/>
<path d="M32.5768 66.7286C29.4237 67.3416 26.3529 68.3208 23.4269 69.6462C26.1962 67.9484 29.3359 66.9473 32.5768 66.7286ZM29.3885 69.9651C31.1571 69.5139 33.034 69.0627 34.8628 69.3635C31.2052 69.3635 27.644 70.705 24.2812 72.0345C25.8858 71.1332 27.5978 70.4379 29.3765 69.9651H29.3885ZM33.5153 71.83C33.7569 71.8725 33.9742 72.003 34.1253 72.1963C34.2764 72.3896 34.3505 72.632 34.3334 72.8767C34.2552 71.7157 32.9257 71.9262 32.1257 72.1187C29.3917 72.7143 26.7295 73.6017 24.1849 74.7656C26.6188 73.3266 29.2994 72.3535 32.0896 71.8961C32.5583 71.799 33.0395 71.7766 33.5153 71.83Z" fill="#EB996E"/>
<path d="M51.4782 56.8569C55.9178 58.1924 61.5485 61.5853 60.1589 70.4464C58.8534 78.7842 53.4092 97.2103 51.5504 101.806C49.4449 107.028 47.2852 108.863 44.4879 109.476C42.0817 110 39.3926 108.436 37.3834 107.01C31.6324 102.937 27.8846 94.7619 23.818 86.2075C21.9189 82.1727 20.5228 77.9199 19.6611 73.5445C19.498 72.5325 19.4515 71.5051 19.5228 70.4825C19.6062 69.5157 19.8523 68.57 20.2507 67.6852C20.3163 67.5583 20.3745 67.4278 20.4251 67.2942C20.4752 67.0651 20.4954 66.8306 20.4853 66.5964C20.4718 66.019 20.6733 65.4573 21.0508 65.0202C21.2356 64.8447 21.4371 64.6876 21.6523 64.551C21.7196 64.5007 21.7803 64.4421 21.8328 64.3766C21.9832 64.16 21.905 63.8773 21.9291 63.6186C21.9824 63.3432 22.1337 63.0965 22.3548 62.924C22.576 62.7514 22.8521 62.6648 23.1322 62.6801C23.4451 62.7222 23.7443 62.8351 24.007 63.0102C24.2697 63.1853 24.489 63.4181 24.6482 63.6908C24.6749 63.7336 24.7122 63.7688 24.7564 63.793C24.8079 63.8051 24.8614 63.8051 24.9128 63.793C25.1669 63.759 25.4253 63.7795 25.6708 63.8532C25.899 63.923 26.1059 64.0492 26.2724 64.2202C26.627 64.6568 26.8521 65.184 26.9221 65.7421C27.1146 66.6445 27.2529 67.5468 27.4515 68.4612C27.8425 70.2659 27.9989 72.0707 28.9554 73.6768C29.0396 73.8212 29.178 73.9836 29.3464 73.9475C29.5149 73.9115 29.557 73.725 29.581 73.5686C29.8277 71.9503 28.8832 70.2539 30.1465 68.8402C31.2414 67.6371 31.4098 70.0434 31.5843 70.6449L32.2881 73.1715C32.7458 74.5516 33.0051 75.9897 33.0581 77.4427C33.0581 78.8143 32.6611 80.1618 32.7152 81.5333C32.7209 82.8955 33.2509 84.2031 34.1951 85.1849C37.9308 88.9627 39.6092 90.4607 39.6092 90.4607L42.5208 76.5102C42.5208 76.5102 42.96 68.5033 46.1302 62.1748C48.2839 58.0601 51.4782 56.8569 51.4782 56.8569Z" fill="#FFBE9D"/>
<path d="M24.5639 63.9734C24.1669 64.6532 24.3173 65.5074 24.3173 66.2654C24.4322 68.5808 24.8199 70.8746 25.4723 73.0992C25.2617 71.7818 25.0031 69.8628 24.8045 68.5213C24.6421 67.3903 24.5278 66.2293 24.4376 65.0863C24.3874 64.7075 24.4265 64.3223 24.5519 63.9614L24.5639 63.9734Z" fill="#EB996E"/>
<path d="M21.917 64.4847C21.7938 67.6264 22.2005 70.7664 23.1201 73.773C22.4704 70.7651 22.326 67.5407 21.917 64.4847Z" fill="#EB996E"/>
<path d="M20.4251 67.4024C20.2363 69.7515 20.4935 72.1151 21.183 74.3686C20.9484 72.3112 20.5815 69.4417 20.4251 67.4024Z" fill="#EB996E"/>
<path d="M37.3834 107.022C30.9345 102.101 27.8485 94.2325 24.3474 87.17C22.6001 83.5747 21.2272 79.8091 20.2506 75.9327C19.674 74.0223 19.4698 72.0188 19.6491 70.0313C19.819 69.0465 20.1163 68.088 20.5334 67.1799C20.5334 66.1512 20.6838 65.2007 21.6523 64.6533C21.7708 64.5744 21.8647 64.4637 21.9232 64.3339C21.9817 64.2041 22.0025 64.0604 21.9832 63.9193C21.9708 63.7478 22.0003 63.5758 22.0693 63.4183C22.1383 63.2608 22.2446 63.1224 22.3791 63.0152C22.5136 62.908 22.6722 62.8351 22.8411 62.8029C23.01 62.7708 23.1843 62.7802 23.3487 62.8305C23.8692 63.0082 24.3102 63.364 24.594 63.8351C24.6278 63.8658 24.668 63.8887 24.7116 63.9022C24.7553 63.9158 24.8014 63.9195 24.8467 63.9133C25.2 63.8544 25.563 63.9114 25.8814 64.0758C26.7596 64.5871 26.7657 65.7782 26.9882 66.6745C27.3732 68.4131 27.6981 70.8855 28.2937 72.5399C28.4646 73.021 28.6971 73.478 28.9855 73.8994C29.6532 74.4709 29.7073 73.2978 29.6833 72.8827C29.6291 71.445 29.1298 69.7425 30.3931 68.7078C31.2835 68.1063 31.3376 70.3802 31.5542 70.8795L31.9572 72.3233C32.4806 74.2363 33.1603 76.1793 32.9438 78.1826C32.7272 80.1858 32.27 82.2672 33.2987 84.084C33.8456 84.9279 34.51 85.6895 35.2719 86.3459C36.6916 87.7536 38.1233 89.1552 39.6092 90.4907C38.1353 89.1432 36.7156 87.7295 35.3079 86.3098C34.555 85.6548 33.9024 84.8926 33.3709 84.0479C32.9269 83.1569 32.7197 82.1666 32.7693 81.1724C32.7693 80.1798 32.9919 79.1932 33.0821 78.1946C33.2927 76.1733 32.631 74.2122 32.1076 72.2872L31.7106 70.8434C31.488 70.1336 31.5121 69.3215 31.109 68.6657C30.4653 67.9258 29.6833 69.3215 29.5389 69.8689C29.2742 70.8855 29.5389 71.8962 29.575 72.8767C29.575 74.892 28.8291 73.3821 28.4982 72.4737C27.8966 70.8494 27.5898 68.3409 27.2168 66.6324C27.0063 65.4594 26.7957 63.7329 25.2617 63.6907C25.1234 63.6607 24.8707 63.7509 24.7805 63.6907C24.4757 63.19 24.0021 62.8145 23.445 62.632C23.2501 62.5735 23.0439 62.5629 22.844 62.6012C22.6441 62.6395 22.4565 62.7255 22.297 62.8519C22.1375 62.9783 22.0109 63.1414 21.928 63.3272C21.8451 63.5131 21.8083 63.7162 21.8208 63.9193C21.8408 64.0266 21.828 64.1374 21.784 64.2372C21.74 64.3371 21.6668 64.4213 21.5741 64.4788C21.1242 64.7457 20.7752 65.1539 20.5815 65.6398C20.4385 66.1259 20.3716 66.6312 20.383 67.1377C19.9618 68.048 19.6663 69.0113 19.5047 70.0012C19.3239 72.0106 19.5281 74.036 20.1063 75.9688C21.0994 79.8525 22.4883 83.624 24.2511 87.2242C27.7583 94.2806 30.9105 102.155 37.4134 107.016L37.3834 107.022Z" fill="#EB996E"/>
<path d="M39.6032 90.4907C42.3524 91.7841 44.6865 94.3768 45.1377 95.8507C45.1377 95.8507 45.3843 91.4051 39.9822 88.8665L39.6032 90.4907Z" fill="#EB996E"/>
</g>
<defs>
<clipPath id="clip0_84_576">
<rect width="64" height="112" fill="white"/>
</clipPath>
</defs>
</svg>
