<svg width="64" height="64" viewBox="0 0 64 64" fill="none" xmlns="http://www.w3.org/2000/svg">
<path d="M0 8C0 3.58172 3.58172 0 8 0H56C60.4183 0 64 3.58172 64 8V56C64 60.4183 60.4183 64 56 64H8C3.58172 64 0 60.4183 0 56V8Z" fill="#FFF8E1"/>
<path d="M32.0001 18.6667V21.3334M32.0001 42.6667V45.3334M22.5734 22.5734L24.4534 24.4534M39.5467 39.5467L41.4267 41.4267M18.6667 32.0001H21.3334M42.6667 32.0001H45.3334M24.4534 39.5467L22.5734 41.4267M41.4267 22.5734L39.5467 24.4534M37.3334 32.0001C37.3334 34.9456 34.9456 37.3334 32.0001 37.3334C29.0546 37.3334 26.6667 34.9456 26.6667 32.0001C26.6667 29.0546 29.0546 26.6667 32.0001 26.6667C34.9456 26.6667 37.3334 29.0546 37.3334 32.0001Z" stroke="#FFCA28" stroke-width="2.66667" stroke-linecap="round" stroke-linejoin="round"/>
</svg>
