<svg width="398" height="240" viewBox="0 0 398 240" fill="none" xmlns="http://www.w3.org/2000/svg">
<g clip-path="url(#clip0_133_6683)">
<path d="M0 16C0 7.16344 7.16344 0 16 0H382C390.837 0 398 7.16344 398 16V224C398 232.837 390.837 240 382 240H16C7.16345 240 0 232.837 0 224V16Z" fill="url(#paint0_linear_133_6683)"/>
<path d="M355.716 167.495C354.558 167.037 353.337 166.794 352.104 166.774C350.927 166.677 350.56 166.426 350.335 166.151C349.213 164.406 347.573 163.127 345.687 162.525C343.801 161.923 341.781 162.034 339.962 162.839C339.272 159.811 335.877 157.171 332.144 158.07C332.272 154.126 327.647 149.899 323.435 148.936C319.425 148.012 315.94 148.401 313.639 151.251C311.189 146.077 301.587 144.62 296.401 147.357C293.403 148.927 290.877 150.547 289.656 153.503C288.839 155.332 288.452 157.352 288.531 159.381C286.508 157.454 282.453 156.952 279.747 158.061C276.832 159.284 276.607 161.657 276.464 164.07C274.735 163.526 272.903 163.493 271.158 163.973C269.314 164.556 268.257 166.119 268.512 167.374C267.058 167.285 263.596 168.556 264.015 170.216C264.465 172.078 268.415 171.892 269.891 171.835C271.285 171.718 272.668 171.485 274.029 171.139C274.717 171.417 275.445 171.564 276.18 171.576C278.698 171.576 279.762 170.394 280.167 169.382C281.396 172.176 285.773 174.305 288.861 175.164C294.685 176.783 302.922 175.787 306.512 171.115C306.933 172 307.523 172.778 308.243 173.398C309.787 174.736 311.661 175.556 313.632 175.755C316.023 175.998 322.438 176.33 324.245 172.216C325.526 174.953 331.238 176.192 335.585 175.528C337.269 175.242 338.907 174.696 340.449 173.908C341.413 173.363 342.346 172.758 343.244 172.095C344.099 171.544 344.489 171.552 345.628 171.925C348.626 172.888 352.074 173.285 355.116 171.925C357.492 170.807 357.995 168.613 355.716 167.495Z" fill="white"/>
<path d="M139.277 179.326C138.222 178.899 137.105 178.677 135.979 178.67C134.907 178.573 134.57 178.346 134.367 178.095C133.342 176.504 131.846 175.338 130.125 174.789C128.405 174.24 126.562 174.34 124.901 175.074C124.272 172.313 121.154 169.908 117.766 170.718C117.886 167.123 113.636 163.268 109.821 162.386C106.164 161.576 102.971 161.9 100.888 164.499C98.639 159.786 89.8924 158.458 85.1481 160.952C82.4274 162.386 80.1115 163.859 78.9797 166.556C78.2361 168.228 77.8835 170.071 77.9529 171.925C76.1092 170.159 72.4066 169.69 69.9408 170.718C67.2801 171.827 67.0777 173.957 66.9428 176.2C65.365 175.707 63.6947 175.674 62.1011 176.103C60.4297 176.645 59.4629 178.062 59.6877 179.212C58.3611 179.131 55.1907 180.289 55.5655 181.804C55.9777 183.504 59.5603 183.318 60.9319 183.318C62.1942 183.207 63.4469 182.993 64.6793 182.678C65.3083 182.931 65.9721 183.068 66.643 183.083C68.944 183.083 69.9108 181.998 70.2856 181.075C71.4023 183.626 75.3971 185.569 78.2152 186.346C83.5442 187.78 91.0391 186.881 94.3369 182.589C94.7211 183.399 95.2602 184.111 95.9183 184.678C97.3267 185.9 99.0367 186.646 100.835 186.824C103.016 187.051 108.87 187.35 110.519 183.585C111.688 186.079 116.897 187.213 120.862 186.605C122.397 186.354 123.891 185.866 125.299 185.156C126.178 184.669 127.031 184.128 127.854 183.536C128.604 183.026 128.986 183.034 130.028 183.375C132.749 184.257 135.904 184.622 138.677 183.375C140.896 182.346 141.353 180.338 139.277 179.326Z" fill="white"/>
<path d="M335.862 213.773C335.142 213.483 334.381 213.332 333.614 213.327C332.864 213.263 332.654 213.109 332.512 212.931C331.813 211.847 330.792 211.052 329.619 210.678C328.446 210.304 327.191 210.373 326.059 210.874C325.741 209.809 325.065 208.912 324.164 208.362C323.263 207.811 322.202 207.647 321.194 207.902C321.269 205.473 318.376 202.817 315.768 202.234C313.272 201.659 311.099 201.902 309.675 203.675C308.176 200.436 302.18 199.553 298.934 201.246C297.076 202.226 295.502 203.23 294.73 205.068C294.221 206.207 293.979 207.464 294.025 208.728C292.766 207.53 290.24 207.206 288.561 207.918C286.748 208.671 286.605 210.153 286.515 211.659C285.438 211.323 284.298 211.301 283.21 211.595C282.071 211.959 281.411 212.931 281.569 213.716C280.662 213.659 278.511 214.445 278.758 215.481C279.035 216.639 281.494 216.518 282.415 216.485C283.281 216.409 284.141 216.263 284.986 216.048C285.416 216.222 285.869 216.316 286.328 216.324C287.894 216.324 288.576 215.587 288.809 214.955C289.558 216.696 292.294 218.024 294.22 218.55C297.848 219.554 302.974 218.947 305.208 216.016C305.468 216.569 305.836 217.055 306.287 217.441C307.246 218.274 308.412 218.784 309.637 218.907C311.136 219.06 315.116 219.263 316.248 216.704C317.042 218.405 320.595 219.182 323.301 218.769C324.338 218.593 325.347 218.26 326.299 217.781C326.899 217.443 327.48 217.064 328.037 216.647C328.255 216.484 328.509 216.388 328.773 216.369C329.037 216.351 329.301 216.411 329.536 216.542C331.447 217.275 333.532 217.275 335.442 216.542C336.964 215.838 337.279 214.469 335.862 213.773Z" fill="white"/>
<path opacity="0.8" d="M355.716 167.495C354.558 167.037 353.337 166.794 352.104 166.774C350.927 166.677 350.56 166.426 350.335 166.151C349.213 164.406 347.573 163.127 345.687 162.525C343.801 161.923 341.781 162.034 339.962 162.839C339.272 159.811 335.877 157.171 332.144 158.07C332.272 154.126 327.647 149.899 323.435 148.936C319.425 148.012 315.94 148.401 313.639 151.251C311.189 146.077 301.587 144.62 296.401 147.357C293.403 148.927 290.877 150.547 289.656 153.503C288.839 155.332 288.452 157.352 288.531 159.381C286.508 157.454 282.453 156.952 279.747 158.061C276.832 159.284 276.607 161.657 276.464 164.07C274.735 163.526 272.903 163.493 271.158 163.973C269.314 164.556 268.257 166.119 268.512 167.374C267.058 167.285 263.596 168.556 264.015 170.216C264.465 172.078 268.415 171.892 269.891 171.835C271.285 171.718 272.668 171.485 274.029 171.139C274.717 171.417 275.445 171.564 276.18 171.576C278.698 171.576 279.762 170.394 280.167 169.382C281.396 172.176 285.773 174.305 288.861 175.164C294.685 176.783 302.922 175.787 306.512 171.115C306.933 172 307.523 172.778 308.243 173.398C309.787 174.736 311.661 175.556 313.632 175.755C316.023 175.998 322.438 176.33 324.245 172.216C325.526 174.953 331.238 176.192 335.585 175.528C337.269 175.242 338.907 174.696 340.449 173.908C341.413 173.363 342.346 172.758 343.244 172.095C344.099 171.544 344.489 171.552 345.628 171.925C348.626 172.888 352.074 173.285 355.116 171.925C357.492 170.807 357.995 168.613 355.716 167.495Z" fill="white"/>
<path opacity="0.8" d="M139.277 179.326C138.222 178.899 137.105 178.677 135.979 178.67C134.907 178.573 134.57 178.346 134.367 178.095C133.342 176.504 131.846 175.338 130.125 174.789C128.405 174.24 126.562 174.34 124.901 175.074C124.272 172.313 121.154 169.908 117.766 170.718C117.886 167.123 113.636 163.268 109.821 162.386C106.164 161.576 102.971 161.9 100.888 164.499C98.639 159.786 89.8924 158.458 85.1481 160.952C82.4274 162.386 80.1115 163.859 78.9797 166.556C78.2361 168.228 77.8835 170.071 77.9529 171.925C76.1092 170.159 72.4066 169.69 69.9408 170.718C67.2801 171.827 67.0777 173.957 66.9428 176.2C65.365 175.707 63.6947 175.674 62.1011 176.103C60.4297 176.645 59.4629 178.062 59.6877 179.212C58.3611 179.131 55.1907 180.289 55.5655 181.804C55.9777 183.504 59.5603 183.318 60.9319 183.318C62.1942 183.207 63.4469 182.993 64.6793 182.678C65.3083 182.931 65.9721 183.068 66.643 183.083C68.944 183.083 69.9108 181.998 70.2856 181.075C71.4023 183.626 75.3971 185.569 78.2152 186.346C83.5442 187.78 91.0391 186.881 94.3369 182.589C94.7211 183.399 95.2602 184.111 95.9183 184.678C97.3267 185.9 99.0367 186.646 100.835 186.824C103.016 187.051 108.87 187.35 110.519 183.585C111.688 186.079 116.897 187.213 120.862 186.605C122.397 186.354 123.891 185.866 125.299 185.156C126.178 184.669 127.031 184.128 127.854 183.536C128.604 183.026 128.986 183.034 130.028 183.375C132.749 184.257 135.904 184.622 138.677 183.375C140.896 182.346 141.353 180.338 139.277 179.326Z" fill="white"/>
<path opacity="0.8" d="M335.862 213.773C335.142 213.483 334.381 213.332 333.614 213.327C332.864 213.263 332.654 213.109 332.512 212.931C331.813 211.847 330.792 211.052 329.619 210.678C328.446 210.304 327.191 210.373 326.059 210.874C325.741 209.809 325.065 208.912 324.164 208.362C323.263 207.811 322.202 207.647 321.194 207.902C321.269 205.473 318.376 202.817 315.768 202.234C313.272 201.659 311.099 201.902 309.675 203.675C308.176 200.436 302.18 199.553 298.934 201.246C297.076 202.226 295.502 203.23 294.73 205.068C294.221 206.207 293.979 207.464 294.025 208.728C292.766 207.53 290.24 207.206 288.561 207.918C286.748 208.671 286.605 210.153 286.515 211.659C285.438 211.323 284.298 211.301 283.21 211.595C282.071 211.959 281.411 212.931 281.569 213.716C280.662 213.659 278.511 214.445 278.758 215.481C279.035 216.639 281.494 216.518 282.415 216.485C283.281 216.409 284.141 216.263 284.986 216.048C285.416 216.222 285.869 216.316 286.328 216.324C287.894 216.324 288.576 215.587 288.809 214.955C289.558 216.696 292.294 218.024 294.22 218.55C297.848 219.554 302.974 218.947 305.208 216.016C305.468 216.569 305.836 217.055 306.287 217.441C307.246 218.274 308.412 218.784 309.637 218.907C311.136 219.06 315.116 219.263 316.248 216.704C317.042 218.405 320.595 219.182 323.301 218.769C324.338 218.593 325.347 218.26 326.299 217.781C326.899 217.443 327.48 217.064 328.037 216.647C328.255 216.484 328.509 216.388 328.773 216.369C329.037 216.351 329.301 216.411 329.536 216.542C331.447 217.275 333.532 217.275 335.442 216.542C336.964 215.838 337.279 214.469 335.862 213.773Z" fill="white"/>
<path d="M156.528 114.998C154.887 118.932 151.432 117.219 150.735 120.672C150.038 124.126 147.365 122.217 145.965 126.943C144.565 131.669 147.767 129.722 147.479 133.746C147.19 137.771 151.042 139.121 154.142 138.193C157.243 137.265 162.068 139.699 165.294 142.088C168.521 144.477 176.11 141.283 174.842 136.784C173.574 132.286 171.561 130.942 173.64 128.514C175.719 126.086 177.918 119.426 173.442 117.628C168.701 115.739 169.837 112.934 166.231 111.383C162.626 109.831 158.168 111.065 156.528 114.998Z" fill="#263238"/>
<path d="M176.151 153.098L176.248 153.65L176.368 154.299C176.452 154.74 176.548 155.195 176.644 155.643C176.842 156.545 177.065 157.454 177.299 158.369C177.774 160.193 178.309 162.017 178.885 163.835C179.168 164.744 179.486 165.646 179.781 166.555L180.255 167.918L180.496 168.568C180.574 168.827 180.658 169.113 180.736 169.392C180.892 170.005 181.007 170.63 181.078 171.262C181.078 171.43 181.114 171.606 181.121 171.8C181.127 171.995 181.121 172.177 181.121 172.391C181.111 172.885 181.036 173.375 180.898 173.845C180.7 174.528 180.312 175.129 179.787 175.566C179.3 175.972 178.707 176.199 178.092 176.215C177.682 176.215 177.276 176.138 176.89 175.988C176.563 175.854 176.249 175.685 175.953 175.481C175.648 175.282 175.429 174.96 175.344 174.587C175.258 174.213 175.313 173.818 175.497 173.488C175.663 173.183 175.925 172.953 176.236 172.839L177.029 172.566C177.251 172.482 177.666 172.411 177.63 172.261C177.593 172.112 177.437 172.177 177.191 172.32C177.021 172.44 176.874 172.594 176.758 172.774C176.698 172.859 176.662 172.826 176.62 172.774L176.452 172.437C176.314 172.157 176.157 171.787 175.959 171.463C175.869 171.281 175.767 171.112 175.671 170.911L175.364 170.216L174.763 168.834C174.363 167.899 173.986 166.955 173.634 166.003C172.907 164.101 172.252 162.16 171.687 160.161C171.399 159.161 171.152 158.148 170.924 157.116C170.81 156.603 170.708 156.078 170.612 155.545C170.563 155.279 170.521 155.013 170.479 154.734C170.437 154.455 170.407 154.208 170.365 153.812C170.295 153.008 170.513 152.206 170.974 151.57C171.434 150.935 172.103 150.514 172.842 150.395C173.581 150.276 174.335 150.468 174.947 150.931C175.559 151.394 175.984 152.093 176.133 152.884L176.151 153.098Z" fill="#EB996E"/>
<path d="M173.4 146.029C175.803 146.327 178.735 156.467 178.735 156.467L172.895 162.128C172.895 162.128 165.426 152.559 166.886 149.528C168.382 146.366 169.873 145.587 173.4 146.029Z" fill="#263238"/>
<path opacity="0.2" d="M173.478 148.379L176.572 158.577L173.285 161.745L173.478 148.379Z" fill="black"/>
<path d="M175.755 150.047C175.851 154.5 175.28 163.803 172.354 183.252H149.149C149.504 173.897 149.546 167.834 146.073 150.793C145.939 150.141 145.932 149.465 146.052 148.809C146.172 148.153 146.416 147.531 146.77 146.983C147.123 146.434 147.578 145.97 148.105 145.62C148.632 145.271 149.221 145.043 149.834 144.951C151.36 144.73 153.115 144.529 154.887 144.432C158.396 144.162 161.918 144.162 165.426 144.432C167.722 144.659 170.179 145.081 172.036 145.405C173.057 145.596 173.985 146.162 174.663 147.008C175.341 147.854 175.727 148.928 175.755 150.047Z" fill="#263238"/>
<path d="M155.933 131.591C156.6 135.252 157.261 141.978 154.887 144.406C154.887 144.406 155.813 148.125 162.097 148.125C169.025 148.125 165.408 144.406 165.408 144.406C161.629 143.432 161.725 140.4 162.404 137.557L155.933 131.591Z" fill="#EB996E"/>
<path d="M175.365 149.761C175.383 148.723 175.057 147.711 174.447 146.908C173.837 146.105 172.982 145.563 172.036 145.379C170.173 145.035 167.728 144.633 165.426 144.412C161.918 144.136 158.396 144.136 154.887 144.412C154.437 144.412 153.998 144.471 153.56 144.503H153.493C156.191 146.204 155.35 151.436 154.99 154.325C163.402 158.934 169.837 162.115 169.837 162.115C174.577 160.745 175.298 154.805 175.365 149.761Z" fill="#EB996E"/>
<path opacity="0.2" d="M158.571 134.026L162.398 137.551C162.235 138.214 162.126 138.892 162.073 139.576C160.631 139.349 158.643 137.628 158.468 135.999C158.389 135.34 158.423 134.671 158.571 134.026Z" fill="black"/>
<path d="M156.69 120.718C155.038 126.56 154.22 129.02 155.891 133.052C158.39 139.102 165.414 140.011 168.653 134.798C171.567 130.111 173.778 121.308 169.374 116.939C168.408 115.97 167.229 115.284 165.948 114.946C164.667 114.608 163.328 114.629 162.057 115.008C160.786 115.386 159.626 116.11 158.687 117.109C157.747 118.108 157.06 119.351 156.69 120.718Z" fill="#EB996E"/>
<path d="M172.354 183.252C172.354 183.252 176.861 230.803 176.488 249.629C176.098 269.214 169.458 313.896 169.458 313.896H161.731C161.731 313.896 162.933 270.402 162.272 251.154C161.527 230.186 155.362 183.278 155.362 183.278L172.354 183.252Z" fill="#26A69A"/>
<path opacity="0.3" d="M172.354 183.252C172.354 183.252 176.861 230.803 176.488 249.629C176.098 269.214 169.458 313.896 169.458 313.896H161.731C161.731 313.896 162.933 270.402 162.272 251.154C161.527 230.186 155.362 183.278 155.362 183.278L172.354 183.252Z" fill="black"/>
<path opacity="0.2" d="M162.344 195.08C168.046 207.472 163.486 230.07 161.473 238.476C160.439 225.85 158.697 210.413 157.339 199.078C158.204 192.697 159.718 189.367 162.344 195.08Z" fill="black"/>
<path d="M165.937 183.252C165.937 183.252 161.13 230.803 158.498 249.629C155.759 269.214 143.753 313.896 143.753 313.896H136.026C136.026 313.896 142.474 270.402 144.102 251.154C145.875 230.186 148.939 183.278 148.939 183.278L165.937 183.252Z" fill="#26A69A"/>
<path opacity="0.3" d="M165.937 183.252C165.937 183.252 161.13 230.803 158.498 249.629C155.759 269.214 143.753 313.896 143.753 313.896H136.026C136.026 313.896 142.474 270.402 144.102 251.154C145.875 230.186 148.939 183.278 148.939 183.278L165.937 183.252Z" fill="black"/>
<path d="M164.645 125.645C164.483 126.112 164.585 126.58 164.867 126.696C165.15 126.813 165.51 126.521 165.667 126.047C165.823 125.573 165.733 125.112 165.45 124.996C165.168 124.879 164.783 125.184 164.645 125.645Z" fill="#263238"/>
<path d="M169.506 127.612C169.344 128.073 169.44 128.547 169.722 128.657C170.005 128.767 170.365 128.488 170.527 128.008C170.69 127.527 170.588 127.073 170.305 126.956C170.023 126.839 169.662 127.131 169.506 127.612Z" fill="#263238"/>
<path d="M170.173 126.943L171.321 127.041C171.321 127.041 170.486 127.703 170.173 126.943Z" fill="#263238"/>
<path d="M167.71 127.845C167.728 129.064 167.9 130.274 168.22 131.442C167.942 131.523 167.65 131.538 167.366 131.485C167.082 131.432 166.811 131.314 166.574 131.137L167.71 127.845Z" fill="#FF5652"/>
<path d="M163.588 132.013C163.781 132.129 163.982 132.231 164.189 132.318C164.205 132.326 164.223 132.331 164.241 132.331C164.259 132.331 164.277 132.327 164.294 132.319C164.31 132.311 164.325 132.299 164.337 132.285C164.349 132.27 164.358 132.253 164.363 132.234C164.37 132.216 164.373 132.197 164.373 132.178C164.372 132.158 164.368 132.139 164.361 132.122C164.354 132.104 164.343 132.088 164.33 132.075C164.317 132.062 164.302 132.052 164.285 132.046C163.742 131.846 163.251 131.509 162.853 131.063C162.455 130.617 162.161 130.075 161.996 129.481C161.987 129.444 161.965 129.411 161.935 129.391C161.905 129.37 161.868 129.363 161.833 129.371C161.816 129.375 161.799 129.382 161.784 129.393C161.769 129.404 161.757 129.419 161.747 129.435C161.738 129.451 161.731 129.47 161.729 129.489C161.726 129.508 161.727 129.528 161.731 129.546C161.873 130.071 162.11 130.559 162.428 130.983C162.747 131.406 163.142 131.757 163.588 132.013Z" fill="#263238"/>
<path d="M153.439 125.392C153.444 126.574 153.875 127.708 154.641 128.553C155.68 129.65 156.894 128.832 157.195 127.378C157.459 126.08 157.243 123.925 155.921 123.373C155.631 123.262 155.32 123.23 155.016 123.28C154.712 123.331 154.424 123.462 154.178 123.662C153.932 123.862 153.736 124.125 153.607 124.426C153.478 124.728 153.421 125.06 153.439 125.392Z" fill="#EB996E"/>
<path d="M160.866 113.823C163.407 114.219 163.594 118.725 162.59 120.237C161.587 121.75 159.051 122.256 159.718 124.476C160.728 127.832 158.781 127.852 159.069 131.234C159.28 133.714 159.61 136.317 155.813 135.902C150.141 135.252 148.206 136.414 150.309 127.813C151.45 123.139 152.165 119.562 154.142 119.27C156.119 118.978 158.036 113.382 160.866 113.823Z" fill="#263238"/>
<path d="M160.631 116.965C161.833 119.789 164.837 121.211 167.637 121.198C172.054 121.198 174.926 126.833 173.045 121.438C171.164 116.044 166.808 113.824 164.723 113.531C162.638 113.239 159.237 113.7 160.631 116.965Z" fill="#263238"/>
<path d="M163.035 123.782C163.084 123.811 163.141 123.823 163.197 123.816C163.253 123.809 163.306 123.784 163.347 123.743C164.267 122.821 165.847 123.171 165.865 123.178C165.935 123.193 166.008 123.178 166.068 123.135C166.127 123.093 166.169 123.026 166.183 122.951C166.198 122.876 166.184 122.798 166.146 122.734C166.108 122.669 166.048 122.624 165.979 122.607C165.901 122.607 164.104 122.191 162.975 123.308C162.925 123.363 162.897 123.438 162.897 123.516C162.897 123.593 162.925 123.668 162.975 123.723C162.991 123.747 163.011 123.767 163.035 123.782Z" fill="#263238"/>
<path d="M171.813 125.762C171.853 125.787 171.899 125.801 171.946 125.801C171.992 125.801 172.038 125.787 172.078 125.762C172.14 125.722 172.186 125.658 172.205 125.583C172.224 125.508 172.215 125.427 172.18 125.359C171.973 124.952 171.678 124.604 171.32 124.345C170.963 124.086 170.553 123.924 170.125 123.873C170.054 123.869 169.985 123.896 169.932 123.947C169.879 123.998 169.847 124.069 169.843 124.145C169.839 124.222 169.864 124.298 169.911 124.356C169.958 124.414 170.024 124.45 170.095 124.457C170.433 124.502 170.756 124.634 171.037 124.842C171.319 125.05 171.55 125.327 171.711 125.651C171.734 125.699 171.77 125.737 171.813 125.762Z" fill="#263238"/>
<path d="M165.294 124.983L166.442 125.074C166.442 125.074 165.607 125.736 165.294 124.983Z" fill="#263238"/>
<path d="M148.801 181.778L148.2 184.024C148.122 184.199 148.308 184.375 148.578 184.375H172.456C172.667 184.375 172.841 184.264 172.853 184.122L173.063 181.875C173.063 181.72 172.895 181.59 172.667 181.59H149.179C149.106 181.584 149.033 181.598 148.967 181.631C148.901 181.664 148.843 181.714 148.801 181.778Z" fill="#26A69A"/>
<path d="M151.955 184.615H151.354C151.234 184.615 151.138 184.55 151.144 184.459L151.438 181.544C151.438 181.46 151.559 181.389 151.685 181.389H152.316C152.436 181.389 152.532 181.46 152.526 181.544L152.231 184.459C152.189 184.55 152.081 184.615 151.955 184.615Z" fill="#26A69A"/>
<g opacity="0.3">
<path d="M151.955 184.615H151.354C151.234 184.615 151.138 184.55 151.144 184.459L151.438 181.544C151.438 181.46 151.559 181.389 151.685 181.389H152.316C152.436 181.389 152.532 181.46 152.526 181.544L152.231 184.459C152.189 184.55 152.081 184.615 151.955 184.615Z" fill="black"/>
</g>
<path d="M170.702 184.615H170.053C169.927 184.615 169.831 184.55 169.843 184.459L170.137 181.544C170.137 181.46 170.251 181.389 170.377 181.389H171.008C171.134 181.389 171.231 181.46 171.219 181.544L170.924 184.459C170.936 184.55 170.828 184.615 170.702 184.615Z" fill="#26A69A"/>
<path opacity="0.3" d="M170.702 184.615H170.053C169.927 184.615 169.831 184.55 169.843 184.459L170.137 181.544C170.137 181.46 170.251 181.389 170.377 181.389H171.008C171.134 181.389 171.231 181.46 171.219 181.544L170.924 184.459C170.936 184.55 170.828 184.615 170.702 184.615Z" fill="black"/>
<path d="M161.329 184.615H160.728C160.601 184.615 160.505 184.55 160.517 184.459L160.812 181.544C160.812 181.46 160.932 181.389 161.058 181.389H161.659C161.785 181.389 161.881 181.46 161.875 181.544L161.581 184.459C161.563 184.55 161.455 184.615 161.329 184.615Z" fill="#26A69A"/>
<path opacity="0.3" d="M161.329 184.615H160.728C160.601 184.615 160.505 184.55 160.517 184.459L160.812 181.544C160.812 181.46 160.932 181.389 161.058 181.389H161.659C161.785 181.389 161.881 181.46 161.875 181.544L161.581 184.459C161.563 184.55 161.455 184.615 161.329 184.615Z" fill="black"/>
<path d="M169.206 155.773C168.935 156.013 168.605 156.052 168.449 155.863C168.292 155.675 168.401 155.318 168.671 155.078C168.941 154.838 169.272 154.792 169.428 154.987C169.584 155.182 169.452 155.526 169.206 155.773Z" fill="#263238"/>
<path d="M167.992 155.922C167.487 156.102 166.961 156.205 166.43 156.227C166.433 156.541 166.503 156.849 166.634 157.129L167.992 155.922Z" fill="#FFBE9D"/>
<path d="M175.226 163.55C172.661 165.536 171.261 166.854 168.881 166.477C165.276 165.906 163.624 161.284 165.51 158.408C167.205 155.812 171.116 153.02 174.289 155.046C177.461 157.071 177.792 161.57 175.226 163.55Z" fill="#FFBE9D"/>
<path d="M161.641 155.422L163.443 153.63L165.246 156.149C165.246 156.149 163.87 157.954 162.608 157.324L161.641 155.422Z" fill="#FFBE9D"/>
<path d="M165.108 153.014L166.051 155.065L165.234 156.149L163.396 153.624L165.108 153.014Z" fill="#FFBE9D"/>
<path d="M166.994 167.776L166.604 167.873L166.291 167.938L165.691 168.016C165.291 168.045 164.889 168.045 164.489 168.016C163.625 167.967 162.774 167.763 161.971 167.412C161.087 167.029 160.29 166.445 159.634 165.698C159.014 164.974 158.532 164.124 158.216 163.199C157.881 162.25 157.747 161.232 157.825 160.219C157.918 159.207 158.253 158.238 158.799 157.408C159.262 156.711 159.843 156.114 160.511 155.649C160.813 155.442 161.129 155.257 161.455 155.097C161.792 154.935 162.139 154.798 162.494 154.688C162.767 154.598 163.058 154.6 163.33 154.694C163.602 154.787 163.84 154.969 164.014 155.213C164.188 155.457 164.288 155.753 164.302 156.06C164.316 156.368 164.243 156.673 164.092 156.935L163.774 157.493C163.69 157.636 163.497 157.856 163.371 158.038C163.231 158.223 163.103 158.419 162.987 158.622C162.79 158.946 162.648 159.304 162.566 159.68C162.523 159.899 162.546 160.127 162.632 160.33C162.716 160.53 162.823 160.717 162.951 160.888C163.072 161.095 163.242 161.263 163.443 161.375C163.608 161.458 163.782 161.52 163.96 161.557C164.221 161.615 164.487 161.646 164.753 161.647C164.909 161.647 165.072 161.647 165.24 161.647H165.48H165.588C165.963 161.541 166.354 161.516 166.738 161.574C167.122 161.633 167.492 161.773 167.825 161.987C168.158 162.201 168.449 162.485 168.679 162.822C168.91 163.159 169.076 163.542 169.168 163.949C169.261 164.355 169.277 164.778 169.216 165.192C169.155 165.606 169.019 166.002 168.815 166.359C168.611 166.715 168.343 167.024 168.028 167.267C167.712 167.51 167.355 167.683 166.976 167.776H166.994Z" fill="#FFBE9D"/>
<path d="M144.276 164.984C146.608 161.524 151.486 160.518 156.948 161.803C160.079 162.543 171.898 157.811 177.263 157.74C182.629 157.668 183.969 163.861 182.575 167.178C178.231 177.513 166.135 176.468 163.059 178.967C159.983 181.466 151.685 184.914 146.968 180.817C142.251 176.721 140.202 171.015 144.276 164.984Z" fill="#26A69A"/>
<path d="M180.352 165.237L177.9 169.567L178.753 171.989C178.808 172.148 178.901 172.288 179.024 172.394C179.147 172.5 179.293 172.568 179.449 172.59C179.605 172.613 179.763 172.59 179.907 172.523C180.051 172.455 180.176 172.347 180.268 172.209L182.635 168.697C182.735 168.552 182.793 168.377 182.801 168.196C182.81 168.014 182.769 167.834 182.683 167.678L180.352 165.237Z" fill="#EB996E"/>
<path d="M150.633 155.045L150.291 156.071C150.171 156.435 150.05 156.798 149.936 157.168C149.708 157.908 149.51 158.661 149.299 159.414C148.883 160.909 148.536 162.426 148.26 163.959C147.977 165.484 147.755 167.016 147.617 168.542L147.545 169.691V169.976V170.035C147.551 169.987 147.551 169.939 147.545 169.892C147.527 169.734 147.475 169.583 147.395 169.45C147.28 169.288 147.311 169.386 147.443 169.496C147.63 169.654 147.831 169.791 148.044 169.905C149.264 170.535 150.543 171.025 151.859 171.365C153.271 171.768 154.737 172.093 156.215 172.404C159.177 173.001 162.224 173.501 165.228 173.943L165.126 177.065C161.974 177.221 158.816 177.175 155.668 176.929C154.088 176.806 152.502 176.617 150.862 176.325C150.056 176.182 149.239 176.014 148.416 175.78C147.535 175.548 146.672 175.237 145.838 174.852C145.342 174.622 144.867 174.342 144.42 174.014C143.791 173.563 143.26 172.97 142.864 172.274C142.591 171.78 142.409 171.233 142.329 170.664C142.329 170.515 142.329 170.359 142.287 170.203V169.619V168.256C142.315 166.463 142.451 164.674 142.696 162.9C142.951 161.152 143.288 159.419 143.705 157.707C143.916 156.85 144.162 156.006 144.42 155.162C144.679 154.318 144.949 153.52 145.322 152.566L150.633 155.045Z" fill="#EB996E"/>
<path d="M147.749 146.042C145.424 146.801 142.63 155.454 142.63 155.454L148.296 159.83C148.711 160.151 149.19 160.362 149.694 160.446C150.198 160.53 150.714 160.484 151.199 160.313C151.684 160.141 152.125 159.849 152.486 159.46C152.847 159.07 153.118 158.594 153.277 158.071C153.926 155.935 154.425 153.526 153.962 151.955C152.947 148.554 150.399 145.165 147.749 146.042Z" fill="#263238"/>
<path d="M164.645 173.832L170.792 173.242L167.475 178.415C167.475 178.415 163.828 177.987 162.939 175.605L164.645 173.832Z" fill="#EB996E"/>
<path d="M174.842 176.065L170.822 179.22L167.475 178.383L170.81 173.242L174.842 176.065Z" fill="#EB996E"/>
<path d="M227.595 115.598C228.983 113.585 225.648 108.775 221.983 111.599C218.204 114.507 212.111 113.495 208.494 118.259C204.877 123.024 210.555 126.984 210.122 135.332C209.786 142.233 200.352 144.213 201.626 153.509C203.2 165.006 215.392 181.287 226.459 175.879C237.527 170.472 251.01 154.665 245.597 144.375C240.183 134.086 232.288 135.54 235.382 127.419C237.293 122.349 235.352 112.313 227.595 115.598Z" fill="#263238"/>
<path d="M207.388 184.539C207.388 184.539 199.181 218.737 195.053 242.789C191.772 261.92 221.971 294.677 221.971 294.677L228.352 288.672C228.352 288.672 213.12 263.789 206.661 246.625C216.389 220.743 230.894 196.718 226.291 185.247L207.388 184.539Z" fill="#263238"/>
<path d="M209.599 151.101C208.856 151.082 208.134 151.367 207.577 151.899C207.02 152.431 206.669 153.171 206.595 153.97C206.493 155.139 206.367 156.313 206.223 157.463C205.952 159.618 205.622 161.766 205.225 163.876C204.829 165.986 204.318 168.07 203.729 170.089C203.435 171.101 203.092 172.082 202.732 173.049C202.551 173.529 202.351 174.003 202.131 174.471C202.041 174.704 201.926 174.925 201.824 175.159V175.204L201.56 175.165C201.121 175.074 200.112 174.776 199.235 174.516C198.94 174.434 198.628 174.467 198.354 174.608C198.079 174.749 197.859 174.99 197.732 175.289L196.957 177.126C196.829 177.413 196.797 177.739 196.866 178.049C196.935 178.359 197.101 178.634 197.336 178.827C198.21 179.598 199.199 180.202 200.262 180.612C201.059 180.866 201.894 180.948 202.72 180.852C203.927 180.699 205.031 180.042 205.796 179.021C205.974 178.781 206.134 178.528 206.277 178.262L206.487 177.859C206.625 177.58 206.775 177.314 206.902 177.035C207.166 176.49 207.424 175.938 207.659 175.379C208.139 174.269 208.578 173.146 208.962 172.017C209.735 169.777 210.369 167.485 210.861 165.155C211.36 162.851 211.774 160.54 212.063 158.222C212.213 156.995 212.345 155.794 212.453 154.574C212.49 154.14 212.443 153.704 212.317 153.29C212.192 152.877 211.989 152.496 211.721 152.171C211.454 151.845 211.128 151.582 210.763 151.398C210.398 151.214 210.002 151.113 209.599 151.101Z" fill="#FFBE9D"/>
<path d="M212.513 184.844C212.513 184.844 214.466 225.677 213.829 250.033C216.052 270.242 216.611 308.458 216.611 308.458L224.603 308.01C224.603 308.01 228.574 263.633 226.597 249.125C230.972 222.165 237.701 197.237 230.894 185.604L212.513 184.844Z" fill="#263238"/>
<path d="M232.69 185.591C233.519 173.854 234.775 160.864 236.181 153.223C236.312 152.501 236.307 151.757 236.167 151.037C236.027 150.316 235.755 149.633 235.367 149.028C234.979 148.423 234.483 147.908 233.907 147.514C233.332 147.119 232.689 146.853 232.017 146.732C231.116 146.57 230.148 146.414 229.157 146.284C228.634 146.219 228.118 146.154 227.589 146.102C224.046 145.674 220.48 145.518 216.918 145.635C216.317 145.667 215.68 145.713 215.061 145.771C214.334 145.829 213.607 145.907 212.904 145.992C210.76 146.236 208.76 147.275 207.244 148.932C205.728 150.588 204.79 152.761 204.588 155.08C204.143 160.514 204.143 169.543 205.441 184.52C205.483 188.246 201.043 201.742 198.886 217.627C201.944 218.529 211.294 218.724 216.689 218.341C222.085 217.958 231.074 223.775 232.69 221.899C234.306 220.023 234.907 193.855 232.69 185.591Z" fill="#7E57C2"/>
<path opacity="0.3" d="M234.853 151.834C234.426 151.75 233.989 151.75 233.561 151.834L233.303 151.886C232.402 152.082 231.605 152.642 231.073 153.451C230.542 154.261 230.316 155.259 230.443 156.242C230.557 157.313 230.635 158.293 230.701 159.241C230.87 161.468 230.954 163.435 230.936 165.22C230.936 167.168 230.888 169.186 230.689 171.199C230.689 171.491 230.635 171.79 230.599 172.095C230.563 172.4 230.539 172.549 230.521 172.783C230.473 173.224 230.395 173.679 230.335 174.081C230.305 174.263 230.275 174.445 230.239 174.626C230.197 174.932 230.143 175.23 230.095 175.47L229.98 175.977L229.8 176.535C229.522 177.313 229.18 178.062 228.779 178.775C228.402 179.417 228.252 180.184 228.356 180.936C228.459 181.688 228.81 182.375 229.343 182.871L229.872 183.345C230.276 183.712 230.764 183.953 231.286 184.041C231.807 184.129 232.34 184.061 232.828 183.845C233.652 172.588 234.853 160.475 236.193 153.197C236.242 152.941 236.27 152.68 236.277 152.418C235.845 152.12 235.36 151.921 234.853 151.834Z" fill="black"/>
<path opacity="0.2" d="M203.344 200.548L201.728 201.995C201.458 203.19 201.193 204.436 200.929 205.715C203.194 207.734 211.029 210.175 212.495 208.792C209.443 204.865 203.344 200.548 203.344 200.548Z" fill="black"/>
<path d="M216.918 145.622C216.918 145.622 213.216 146.777 214.803 153.003C215 153.747 215.357 154.429 215.847 154.994C216.336 155.559 216.943 155.989 217.617 156.251C218.291 156.512 219.013 156.596 219.723 156.497C220.433 156.397 221.111 156.116 221.7 155.677C227.835 151.185 227.595 146.096 227.595 146.096L216.918 145.622Z" fill="#7E57C2"/>
<path d="M226.447 138.137C226.099 141.24 226.189 144.486 227.595 146.096C227.595 146.096 226.814 149.627 222.109 153.022C219.075 155.21 214.863 152.75 215.127 148.822C215.147 148.166 215.323 147.527 215.639 146.966C215.955 146.405 216.4 145.942 216.93 145.622C220.823 144.804 221.076 142.071 220.331 137.462L223.461 136.332C223.748 136.086 224.097 135.938 224.462 135.907C224.827 135.875 225.193 135.962 225.513 136.155C225.833 136.348 226.092 136.64 226.259 136.993C226.425 137.345 226.491 137.744 226.447 138.137Z" fill="#FFBE9D"/>
<path opacity="0.2" d="M223.449 136.332C223.719 136.1 224.043 135.953 224.386 135.91C224.728 135.866 225.075 135.926 225.388 136.084C225.7 136.242 225.965 136.491 226.154 136.804C226.342 137.116 226.446 137.479 226.453 137.851C224.95 139.99 222.873 141.577 220.505 142.395C220.727 140.746 220.664 139.067 220.319 137.442L223.449 136.332Z" fill="black"/>
<path d="M229.686 124.641C229.884 130.899 230.089 133.541 227.517 137.098C223.641 142.441 216.617 141.493 214.725 135.456C213.024 130.029 212.988 120.7 218.33 117.519C223.671 114.339 229.494 118.376 229.686 124.641Z" fill="#FFBE9D"/>
<path d="M224.542 117.299C220.877 119.798 226.531 127.439 229.764 129.509C232.997 131.58 233.597 122.128 232.167 120.116C230.737 118.104 228.064 114.903 224.542 117.299Z" fill="#263238"/>
<path d="M226.616 116.857C227.595 120.33 217.381 123.278 213.048 122.823C213.235 117.117 220.679 111.56 226.616 116.857Z" fill="#263238"/>
<path d="M231.501 130.866C231.044 131.976 230.209 132.853 229.169 133.314C227.793 133.911 226.988 132.625 227.271 131.139C227.523 129.795 228.544 127.893 229.974 127.893C231.404 127.893 232.047 129.49 231.501 130.866Z" fill="#FFBE9D"/>
<path d="M220.216 127.543C220.264 128.049 220.054 128.49 219.754 128.529C219.453 128.568 219.153 128.192 219.153 127.685C219.153 127.179 219.315 126.738 219.615 126.699C219.916 126.66 220.168 127.062 220.216 127.543Z" fill="#263238"/>
<path d="M215.019 128.231C215.061 128.737 214.857 129.178 214.55 129.217C214.244 129.256 213.949 128.88 213.949 128.373C213.949 127.867 214.112 127.426 214.412 127.387C214.713 127.348 214.971 127.731 215.019 128.231Z" fill="#263238"/>
<path d="M214.526 127.4L213.391 127.185C213.391 127.185 214.04 128.068 214.526 127.4Z" fill="#263238"/>
<path d="M217.278 129.087C216.832 130.249 216.244 131.341 215.53 132.333C215.761 132.522 216.028 132.652 216.312 132.713C216.596 132.775 216.889 132.767 217.17 132.69L217.278 129.087Z" fill="#FF5652"/>
<path d="M219.568 134.177C219.541 134.17 219.518 134.154 219.501 134.132C219.483 134.11 219.473 134.083 219.471 134.054C219.468 134.014 219.478 133.975 219.501 133.944C219.523 133.912 219.555 133.891 219.592 133.885C220.172 133.82 220.73 133.611 221.222 133.273C221.715 132.935 222.127 132.478 222.428 131.937C222.436 131.92 222.447 131.904 222.461 131.892C222.475 131.879 222.491 131.869 222.508 131.863C222.526 131.857 222.544 131.855 222.562 131.856C222.58 131.858 222.598 131.863 222.614 131.872C222.646 131.892 222.669 131.923 222.679 131.961C222.689 131.999 222.685 132.039 222.668 132.074C222.35 132.66 221.908 133.157 221.379 133.523C220.849 133.89 220.247 134.116 219.622 134.183L219.568 134.177Z" fill="#263238"/>
<path d="M222.932 124.907C222.888 124.891 222.848 124.862 222.818 124.823C222.596 124.549 222.317 124.336 222.003 124.201C221.69 124.067 221.351 124.015 221.016 124.05C220.981 124.057 220.945 124.057 220.91 124.05C220.876 124.042 220.843 124.027 220.814 124.005C220.784 123.983 220.76 123.955 220.741 123.923C220.722 123.89 220.709 123.854 220.703 123.816C220.692 123.738 220.709 123.659 220.75 123.594C220.792 123.529 220.854 123.483 220.925 123.466C221.353 123.405 221.787 123.46 222.19 123.625C222.592 123.791 222.951 124.062 223.233 124.414C223.283 124.47 223.311 124.546 223.311 124.625C223.311 124.703 223.283 124.779 223.233 124.836C223.194 124.877 223.145 124.905 223.092 124.918C223.039 124.931 222.984 124.927 222.932 124.907Z" fill="#263238"/>
<path d="M212.495 125.108L212.459 125.063C212.422 124.995 212.41 124.914 212.426 124.837C212.441 124.76 212.483 124.692 212.543 124.647C212.893 124.372 213.3 124.194 213.728 124.127C214.157 124.06 214.593 124.107 215.001 124.264C215.034 124.28 215.064 124.303 215.089 124.332C215.114 124.361 215.133 124.394 215.146 124.431C215.159 124.468 215.165 124.507 215.164 124.546C215.163 124.586 215.154 124.624 215.139 124.66C215.125 124.696 215.105 124.728 215.08 124.755C215.055 124.782 215.025 124.803 214.992 124.818C214.959 124.832 214.924 124.839 214.888 124.839C214.853 124.839 214.817 124.831 214.785 124.816C214.46 124.697 214.113 124.666 213.774 124.723C213.435 124.781 213.114 124.926 212.838 125.147C212.786 125.185 212.723 125.201 212.66 125.194C212.598 125.187 212.539 125.157 212.495 125.108Z" fill="#263238"/>
<path d="M219.73 126.738L218.594 126.523C218.594 126.523 219.243 127.4 219.73 126.738Z" fill="#263238"/>
<path d="M204.396 167.512C204.36 171.225 197.072 173.127 195.533 187.123C193.995 201.119 210.555 213.804 221.37 209.227C232.185 204.65 223.173 180.015 223.173 180.015C223.173 180.015 204.444 161.896 204.396 167.512Z" fill="#7E57C2"/>
<path d="M204.468 156.833C204.36 161.481 202.72 162.162 202.287 166.103C201.854 170.043 206.493 173.607 209.551 172.322C212.61 171.037 210.062 164.11 210.062 164.11C210.062 164.11 204.504 155.255 204.468 156.833Z" fill="#7E57C2"/>
<path d="M203.639 173.951L200.941 172.504L199.589 177.996C200.838 177.807 202.03 177.311 203.074 176.548L203.639 173.951Z" fill="#FFBE9D"/>
<path d="M198.387 174.607L197.336 178.054L199.607 177.996L200.959 172.504L198.387 174.607Z" fill="#FFBE9D"/>
<path d="M231.615 148.725C231.978 148.555 232.371 148.468 232.767 148.469C233.163 148.47 233.555 148.56 233.918 148.732C234.28 148.905 234.606 149.156 234.875 149.471C235.143 149.786 235.349 150.157 235.478 150.562C235.803 151.607 236.115 152.659 236.398 153.717C236.95 155.833 237.419 157.982 237.785 160.163C238.162 162.36 238.409 164.58 238.525 166.811C238.567 167.369 238.561 167.94 238.585 168.505C238.609 169.07 238.585 169.634 238.585 170.206C238.585 170.777 238.585 171.316 238.537 171.945L238.452 172.952L238.296 173.919C237.802 176.343 236.935 178.66 235.731 180.774C234.608 182.733 233.336 184.588 231.927 186.318C230.539 188.025 229.079 189.616 227.571 191.141C226.038 192.651 224.433 194.075 222.764 195.406L220.907 193.011C222.247 191.544 223.623 189.979 224.879 188.376C226.135 186.772 227.379 185.162 228.484 183.481C229.585 181.845 230.572 180.122 231.434 178.327C231.837 177.485 232.192 176.618 232.498 175.73C232.766 174.896 232.967 174.038 233.099 173.166L233.171 172.556V171.965C233.171 171.53 233.171 170.991 233.135 170.511C233.099 170.03 233.135 169.608 233.069 169.16C233.003 168.713 233.003 168.083 232.931 167.544C232.732 165.558 232.378 163.584 232.011 161.604C231.645 159.624 231.152 157.67 230.605 155.762C230.347 154.788 230.064 153.814 229.77 152.86V152.808C229.526 152.063 229.554 151.246 229.848 150.523C230.141 149.8 230.678 149.224 231.35 148.913L231.615 148.725Z" fill="#FFBE9D"/>
<path d="M238.506 160.059C238.146 157.93 237.677 155.736 237.1 153.529C236.824 152.509 236.301 151.224 235.899 150.075C235.678 149.329 235.228 148.687 234.624 148.254C234.02 147.821 233.298 147.623 232.576 147.693C232.143 147.717 231.718 147.825 231.32 148.011L231.08 148.128C230.237 148.52 229.565 149.245 229.2 150.154C228.835 151.064 228.805 152.089 229.115 153.022C229.434 154.048 229.716 154.97 229.95 155.898C230.551 158.047 231.002 159.942 231.338 161.702C231.687 163.61 232.047 165.597 232.246 167.596C232.288 167.895 232.306 168.193 232.324 168.492C232.342 168.79 232.36 168.953 232.384 169.186C232.426 169.628 232.438 170.082 232.444 170.485V171.03C232.444 171.335 232.444 171.647 232.444 171.893V172.413L232.378 172.997C232.251 173.82 232.06 174.63 231.807 175.418C231.516 176.288 231.173 177.136 230.779 177.957L236.319 181.151C237.57 178.977 238.474 176.592 238.993 174.094L239.155 173.062L239.239 172.036C239.239 171.608 239.239 171.231 239.275 170.848V170.283C239.275 169.634 239.275 169.037 239.275 168.518C239.275 168.33 239.275 168.141 239.275 167.947C239.275 167.564 239.276 167.174 239.227 166.817C239.12 164.55 238.879 162.293 238.506 160.059Z" fill="#7E57C2"/>
<path d="M213.733 196.322L216.822 199.866L220.589 197.841L217.398 192.394L213.733 196.322Z" fill="#FFBE9D"/>
<path d="M222.572 191.699L217.405 192.394L220.595 197.841C220.595 197.841 223.407 196.029 224.17 193.55L222.572 191.699Z" fill="#FFBE9D"/>
<path d="M107.992 121.712H140.28V103.405H107.992V121.712Z" fill="#FAFAFA"/>
<path d="M145.28 121.712H140.28V116.089L145.28 121.712Z" fill="#FAFAFA"/>
<path d="M137.19 106.57H111.082V106.919H137.19V106.57Z" fill="#BDBDBD"/>
<path d="M127.272 108.447H111.082V108.796H127.272V108.447Z" fill="#BDBDBD"/>
<path d="M133.261 112.204H111.082V112.553H133.261V112.204Z" fill="#BDBDBD"/>
<path d="M137.19 114.084H111.082V114.433H137.19V114.084Z" fill="#BDBDBD"/>
<path d="M137.19 115.961H111.082V116.309H137.19V115.961Z" fill="#BDBDBD"/>
<path d="M123.954 117.841H111.082V118.19H123.954V117.841Z" fill="#BDBDBD"/>
<path d="M267.367 141.377H235.076V157.524H267.367V141.377Z" fill="white"/>
<path d="M230.079 157.524H235.076V151.902L230.079 157.524Z" fill="white"/>
<path d="M261.681 149.809H238.23V150.158H261.681V149.809Z" fill="#BDBDBD"/>
<path d="M258.006 151.689H238.23V152.038H258.006V151.689Z" fill="#BDBDBD"/>
<path d="M259.077 146.052H238.23V146.401H259.077V146.052Z" fill="#BDBDBD"/>
<path d="M263.744 144.171H238.23V144.52H263.744V144.171Z" fill="#BDBDBD"/>
<path d="M259.478 153.565H238.23V153.914H259.478V153.565Z" fill="#BDBDBD"/>
<path d="M276 107.402H243.708V118.041H276V107.402Z" fill="white"/>
<path d="M238.712 118.037H243.708V112.415L238.712 118.037Z" fill="white"/>
<path d="M270.313 110.321H246.863V110.67H270.313V110.321Z" fill="#BDBDBD"/>
<path d="M266.639 112.202H246.863V112.55H266.639V112.202Z" fill="#BDBDBD"/>
<path d="M268.111 114.078H246.863V114.427H268.111V114.078Z" fill="#BDBDBD"/>
<path d="M32.9176 29.6562H29.1847C29.1165 29.1733 28.9773 28.7443 28.767 28.3693C28.5568 27.9886 28.2869 27.6648 27.9574 27.3977C27.6278 27.1307 27.2472 26.9261 26.8153 26.7841C26.3892 26.642 25.9261 26.571 25.4261 26.571C24.5227 26.571 23.7358 26.7955 23.0653 27.2443C22.3949 27.6875 21.875 28.3352 21.5057 29.1875C21.1364 30.0341 20.9517 31.0625 20.9517 32.2727C20.9517 33.517 21.1364 34.5625 21.5057 35.4091C21.8807 36.2557 22.4034 36.8949 23.0739 37.3267C23.7443 37.7585 24.5199 37.9744 25.4006 37.9744C25.8949 37.9744 26.3523 37.9091 26.7727 37.7784C27.1989 37.6477 27.5767 37.4574 27.9062 37.2074C28.2358 36.9517 28.5085 36.642 28.7244 36.2784C28.946 35.9148 29.0994 35.5 29.1847 35.0341L32.9176 35.0511C32.821 35.8523 32.5795 36.625 32.1932 37.3693C31.8125 38.108 31.2983 38.7699 30.6506 39.3551C30.0085 39.9347 29.2415 40.3949 28.3494 40.7358C27.4631 41.071 26.4602 41.2386 25.3409 41.2386C23.7841 41.2386 22.392 40.8864 21.1648 40.1818C19.9432 39.4773 18.9773 38.4574 18.267 37.1222C17.5625 35.7869 17.2102 34.1705 17.2102 32.2727C17.2102 30.3693 17.5682 28.75 18.2841 27.4148C19 26.0795 19.9716 25.0625 21.1989 24.3636C22.4261 23.6591 23.8068 23.3068 25.3409 23.3068C26.3523 23.3068 27.2898 23.4489 28.1534 23.733C29.0227 24.017 29.7926 24.4318 30.4631 24.9773C31.1335 25.517 31.679 26.179 32.0994 26.9631C32.5256 27.7472 32.7983 28.6449 32.9176 29.6562ZM43.8906 35.4261V27.9091H47.5213V41H44.0355V38.6222H43.8991C43.6037 39.3892 43.1122 40.0057 42.4247 40.4716C41.7429 40.9375 40.9105 41.1705 39.9276 41.1705C39.0526 41.1705 38.2827 40.9716 37.6179 40.5739C36.9531 40.1761 36.4332 39.6108 36.0582 38.8778C35.6889 38.1449 35.5014 37.267 35.4957 36.2443V27.9091H39.1264V35.5966C39.1321 36.3693 39.3395 36.9801 39.7486 37.429C40.1577 37.8778 40.706 38.1023 41.3935 38.1023C41.831 38.1023 42.2401 38.0028 42.6207 37.804C43.0014 37.5994 43.3082 37.2983 43.5412 36.9006C43.7798 36.5028 43.8963 36.0114 43.8906 35.4261ZM40.2685 26.2216L37.669 22.3438H41.0185L42.8338 26.2216H40.2685ZM54.0561 33.4318V41H50.4254V27.9091H53.8857V30.2188H54.0391C54.3288 29.4574 54.8146 28.8551 55.4964 28.4119C56.1783 27.9631 57.005 27.7386 57.9766 27.7386C58.8857 27.7386 59.6783 27.9375 60.3544 28.3352C61.0305 28.733 61.5561 29.3011 61.9311 30.0398C62.3061 30.7727 62.4936 31.6477 62.4936 32.6648V41H58.8629V33.3125C58.8686 32.5114 58.6641 31.8864 58.2493 31.4375C57.8345 30.983 57.2635 30.7557 56.5362 30.7557C56.0476 30.7557 55.6158 30.8608 55.2408 31.071C54.8714 31.2812 54.5817 31.5881 54.3714 31.9915C54.1669 32.3892 54.0618 32.8693 54.0561 33.4318ZM71.2528 46.1818C70.0767 46.1818 69.0682 46.0199 68.2273 45.696C67.392 45.3778 66.7273 44.9432 66.233 44.392C65.7386 43.8409 65.4176 43.2216 65.2699 42.5341L68.6278 42.0824C68.7301 42.3438 68.892 42.5881 69.1136 42.8153C69.3352 43.0426 69.6278 43.2244 69.9915 43.3608C70.3608 43.5028 70.8097 43.5739 71.3381 43.5739C72.1278 43.5739 72.7784 43.3807 73.2898 42.9943C73.8068 42.6136 74.0653 41.9744 74.0653 41.0767V38.6818H73.9119C73.7528 39.0455 73.5142 39.3892 73.196 39.7131C72.8778 40.0369 72.4688 40.3011 71.9688 40.5057C71.4688 40.7102 70.8722 40.8125 70.179 40.8125C69.196 40.8125 68.3011 40.5852 67.4943 40.1307C66.6932 39.6705 66.054 38.9687 65.5767 38.0256C65.1051 37.0767 64.8693 35.8778 64.8693 34.429C64.8693 32.946 65.1108 31.7074 65.5938 30.7131C66.0767 29.7187 66.7188 28.9744 67.5199 28.4801C68.3267 27.9858 69.2102 27.7386 70.1705 27.7386C70.9034 27.7386 71.517 27.8636 72.0114 28.1136C72.5057 28.358 72.9034 28.6648 73.2045 29.0341C73.5114 29.3977 73.7472 29.7557 73.9119 30.108H74.0483V27.9091H77.6534V41.1278C77.6534 42.2415 77.3807 43.1733 76.8352 43.9233C76.2898 44.6733 75.5341 45.2358 74.5682 45.6108C73.608 45.9915 72.5028 46.1818 71.2528 46.1818ZM71.3295 38.0852C71.9148 38.0852 72.4091 37.9403 72.8125 37.6506C73.2216 37.3551 73.5341 36.9347 73.75 36.3892C73.9716 35.8381 74.0824 35.179 74.0824 34.4119C74.0824 33.6449 73.9744 32.9801 73.7585 32.4176C73.5426 31.8494 73.2301 31.4091 72.821 31.0966C72.4119 30.7841 71.9148 30.6278 71.3295 30.6278C70.733 30.6278 70.2301 30.7898 69.821 31.1136C69.4119 31.4318 69.1023 31.875 68.892 32.4432C68.6818 33.0114 68.5767 33.6676 68.5767 34.4119C68.5767 35.1676 68.6818 35.821 68.892 36.3722C69.108 36.9176 69.4176 37.3409 69.821 37.642C70.2301 37.9375 70.733 38.0852 71.3295 38.0852ZM89.1314 27.9091L91.5348 32.4858L93.9979 27.9091H97.7223L93.9297 34.4545L97.8246 41H94.1172L91.5348 36.4744L88.995 41H85.245L89.1314 34.4545L85.3814 27.9091H89.1314ZM105.376 41.2557C104.029 41.2557 102.87 40.983 101.898 40.4375C100.933 39.8864 100.188 39.108 99.6655 38.1023C99.1428 37.0909 98.8814 35.8949 98.8814 34.5142C98.8814 33.1676 99.1428 31.9858 99.6655 30.9688C100.188 29.9517 100.924 29.1591 101.873 28.5909C102.827 28.0227 103.947 27.7386 105.231 27.7386C106.094 27.7386 106.898 27.8778 107.643 28.1562C108.393 28.429 109.046 28.8409 109.603 29.392C110.165 29.9432 110.603 30.6364 110.915 31.4716C111.228 32.3011 111.384 33.2727 111.384 34.3864V35.3835H100.33V33.1335H107.967C107.967 32.6108 107.853 32.1477 107.626 31.7443C107.398 31.3409 107.083 31.0256 106.68 30.7983C106.282 30.5653 105.819 30.4489 105.29 30.4489C104.739 30.4489 104.251 30.5767 103.825 30.8324C103.404 31.0824 103.075 31.4205 102.836 31.8466C102.597 32.267 102.475 32.7358 102.469 33.2528V35.392C102.469 36.0398 102.589 36.5994 102.827 37.071C103.072 37.5426 103.415 37.9062 103.859 38.1619C104.302 38.4176 104.827 38.5455 105.435 38.5455C105.839 38.5455 106.208 38.4886 106.543 38.375C106.879 38.2614 107.165 38.0909 107.404 37.8636C107.643 37.6364 107.825 37.358 107.95 37.0284L111.308 37.25C111.137 38.0568 110.788 38.7614 110.259 39.3636C109.737 39.9602 109.06 40.4261 108.231 40.7614C107.407 41.0909 106.455 41.2557 105.376 41.2557ZM113.754 41V27.9091H117.214V30.2188H117.367C117.64 29.4517 118.094 28.8466 118.731 28.4034C119.367 27.9602 120.129 27.7386 121.015 27.7386C121.913 27.7386 122.677 27.9631 123.308 28.4119C123.938 28.8551 124.359 29.4574 124.569 30.2188H124.705C124.972 29.4688 125.455 28.8693 126.154 28.4205C126.859 27.9659 127.691 27.7386 128.651 27.7386C129.873 27.7386 130.864 28.1278 131.626 28.9062C132.393 29.679 132.776 30.7756 132.776 32.196V41H129.154V32.9119C129.154 32.1847 128.961 31.6392 128.575 31.2756C128.188 30.9119 127.705 30.7301 127.126 30.7301C126.467 30.7301 125.952 30.9403 125.583 31.3608C125.214 31.7756 125.029 32.3239 125.029 33.0057V41H121.509V32.8352C121.509 32.1932 121.325 31.6818 120.955 31.3011C120.592 30.9205 120.112 30.7301 119.515 30.7301C119.112 30.7301 118.748 30.8324 118.424 31.0369C118.106 31.2358 117.853 31.517 117.665 31.8807C117.478 32.2386 117.384 32.6591 117.384 33.142V41H113.754ZM147.114 41.2557C145.773 41.2557 144.619 40.9716 143.653 40.4034C142.693 39.8295 141.955 39.0341 141.438 38.017C140.926 37 140.67 35.8295 140.67 34.5057C140.67 33.1648 140.929 31.9886 141.446 30.9773C141.969 29.9602 142.71 29.1676 143.67 28.5994C144.631 28.0256 145.773 27.7386 147.097 27.7386C148.239 27.7386 149.239 27.946 150.097 28.3608C150.955 28.7756 151.634 29.358 152.134 30.108C152.634 30.858 152.909 31.7386 152.96 32.75H149.534C149.438 32.0966 149.182 31.571 148.767 31.1733C148.358 30.7699 147.821 30.5682 147.156 30.5682C146.594 30.5682 146.102 30.7216 145.682 31.0284C145.267 31.3295 144.943 31.7699 144.71 32.3494C144.477 32.929 144.361 33.6307 144.361 34.4545C144.361 35.2898 144.474 36 144.702 36.5852C144.935 37.1705 145.261 37.6165 145.682 37.9233C146.102 38.2301 146.594 38.3835 147.156 38.3835C147.571 38.3835 147.943 38.2983 148.273 38.1278C148.608 37.9574 148.884 37.7102 149.099 37.3864C149.321 37.0568 149.466 36.6619 149.534 36.2017H152.96C152.903 37.2017 152.631 38.0824 152.142 38.8438C151.659 39.5994 150.991 40.1903 150.139 40.6165C149.287 41.0426 148.278 41.2557 147.114 41.2557ZM159.018 41.2472C158.183 41.2472 157.438 41.1023 156.785 40.8125C156.131 40.517 155.614 40.0824 155.234 39.5085C154.859 38.929 154.671 38.2074 154.671 37.3438C154.671 36.6165 154.805 36.0057 155.072 35.5114C155.339 35.017 155.702 34.6193 156.163 34.3182C156.623 34.017 157.146 33.7898 157.731 33.6364C158.322 33.483 158.941 33.375 159.589 33.3125C160.35 33.233 160.964 33.1591 161.43 33.0909C161.896 33.017 162.234 32.9091 162.444 32.767C162.654 32.625 162.759 32.4148 162.759 32.1364V32.0852C162.759 31.5455 162.589 31.1278 162.248 30.8324C161.913 30.5369 161.435 30.3892 160.816 30.3892C160.163 30.3892 159.643 30.5341 159.256 30.8239C158.87 31.108 158.614 31.4659 158.489 31.8977L155.131 31.625C155.302 30.8295 155.637 30.142 156.137 29.5625C156.637 28.9773 157.282 28.5284 158.072 28.2159C158.867 27.8977 159.788 27.7386 160.833 27.7386C161.56 27.7386 162.256 27.8239 162.921 27.9943C163.592 28.1648 164.185 28.429 164.702 28.7869C165.225 29.1449 165.637 29.6051 165.938 30.1676C166.239 30.7244 166.39 31.392 166.39 32.1705V41H162.947V39.1847H162.844C162.634 39.5938 162.353 39.9545 162.001 40.267C161.648 40.5739 161.225 40.8153 160.731 40.9915C160.237 41.1619 159.665 41.2472 159.018 41.2472ZM160.058 38.7415C160.592 38.7415 161.063 38.6364 161.472 38.4261C161.881 38.2102 162.202 37.9205 162.435 37.5568C162.668 37.1932 162.785 36.7812 162.785 36.321V34.9318C162.671 35.0057 162.515 35.0739 162.316 35.1364C162.123 35.1932 161.904 35.2472 161.66 35.2983C161.415 35.3437 161.171 35.3864 160.927 35.4261C160.683 35.4602 160.461 35.4915 160.262 35.5199C159.836 35.5824 159.464 35.6818 159.146 35.8182C158.827 35.9545 158.58 36.1392 158.404 36.3722C158.228 36.5994 158.14 36.8835 158.14 37.2244C158.14 37.7188 158.319 38.0966 158.677 38.358C159.04 38.6136 159.501 38.7415 160.058 38.7415ZM159.665 26.2216L161.472 22.3438H164.83L162.231 26.2216H159.665ZM175.121 41.2557C173.781 41.2557 172.627 40.9716 171.661 40.4034C170.701 39.8295 169.962 39.0341 169.445 38.017C168.934 37 168.678 35.8295 168.678 34.5057C168.678 33.1648 168.937 31.9886 169.454 30.9773C169.977 29.9602 170.718 29.1676 171.678 28.5994C172.638 28.0256 173.781 27.7386 175.104 27.7386C176.246 27.7386 177.246 27.946 178.104 28.3608C178.962 28.7756 179.641 29.358 180.141 30.108C180.641 30.858 180.917 31.7386 180.968 32.75H177.542C177.445 32.0966 177.19 31.571 176.775 31.1733C176.366 30.7699 175.829 30.5682 175.164 30.5682C174.602 30.5682 174.11 30.7216 173.69 31.0284C173.275 31.3295 172.951 31.7699 172.718 32.3494C172.485 32.929 172.369 33.6307 172.369 34.4545C172.369 35.2898 172.482 36 172.71 36.5852C172.942 37.1705 173.269 37.6165 173.69 37.9233C174.11 38.2301 174.602 38.3835 175.164 38.3835C175.579 38.3835 175.951 38.2983 176.281 38.1278C176.616 37.9574 176.891 37.7102 177.107 37.3864C177.329 37.0568 177.474 36.6619 177.542 36.2017H180.968C180.911 37.2017 180.638 38.0824 180.15 38.8438C179.667 39.5994 178.999 40.1903 178.147 40.6165C177.295 41.0426 176.286 41.2557 175.121 41.2557ZM188.915 41V23.5455H192.546V30.108H192.657C192.816 29.7557 193.046 29.3977 193.347 29.0341C193.654 28.6648 194.052 28.358 194.54 28.1136C195.035 27.8636 195.648 27.7386 196.381 27.7386C197.336 27.7386 198.217 27.9886 199.023 28.4886C199.83 28.983 200.475 29.7301 200.958 30.7301C201.441 31.7244 201.683 32.9716 201.683 34.4716C201.683 35.9318 201.447 37.1648 200.975 38.1705C200.509 39.1705 199.873 39.929 199.066 40.446C198.265 40.9574 197.367 41.2131 196.373 41.2131C195.668 41.2131 195.069 41.0966 194.575 40.8636C194.086 40.6307 193.685 40.3381 193.373 39.9858C193.06 39.6278 192.822 39.267 192.657 38.9034H192.495V41H188.915ZM192.469 34.4545C192.469 35.233 192.577 35.9119 192.793 36.4915C193.009 37.071 193.322 37.5227 193.731 37.8466C194.14 38.1648 194.637 38.3239 195.222 38.3239C195.813 38.3239 196.313 38.1619 196.722 37.8381C197.131 37.5085 197.441 37.054 197.651 36.4744C197.867 35.8892 197.975 35.2159 197.975 34.4545C197.975 33.6989 197.87 33.0341 197.66 32.4602C197.45 31.8864 197.14 31.4375 196.731 31.1136C196.322 30.7898 195.819 30.6278 195.222 30.6278C194.631 30.6278 194.131 30.7841 193.722 31.0966C193.319 31.4091 193.009 31.8523 192.793 32.4261C192.577 33 192.469 33.6761 192.469 34.4545ZM207.838 41.2472C207.003 41.2472 206.259 41.1023 205.605 40.8125C204.952 40.517 204.435 40.0824 204.054 39.5085C203.679 38.929 203.491 38.2074 203.491 37.3438C203.491 36.6165 203.625 36.0057 203.892 35.5114C204.159 35.017 204.523 34.6193 204.983 34.3182C205.443 34.017 205.966 33.7898 206.551 33.6364C207.142 33.483 207.761 33.375 208.409 33.3125C209.17 33.233 209.784 33.1591 210.25 33.0909C210.716 33.017 211.054 32.9091 211.264 32.767C211.474 32.625 211.58 32.4148 211.58 32.1364V32.0852C211.58 31.5455 211.409 31.1278 211.068 30.8324C210.733 30.5369 210.256 30.3892 209.636 30.3892C208.983 30.3892 208.463 30.5341 208.077 30.8239C207.69 31.108 207.435 31.4659 207.31 31.8977L203.952 31.625C204.122 30.8295 204.457 30.142 204.957 29.5625C205.457 28.9773 206.102 28.5284 206.892 28.2159C207.688 27.8977 208.608 27.7386 209.653 27.7386C210.381 27.7386 211.077 27.8239 211.741 27.9943C212.412 28.1648 213.006 28.429 213.523 28.7869C214.045 29.1449 214.457 29.6051 214.759 30.1676C215.06 30.7244 215.21 31.392 215.21 32.1705V41H211.767V39.1847H211.665C211.455 39.5938 211.173 39.9545 210.821 40.267C210.469 40.5739 210.045 40.8153 209.551 40.9915C209.057 41.1619 208.486 41.2472 207.838 41.2472ZM208.878 38.7415C209.412 38.7415 209.884 38.6364 210.293 38.4261C210.702 38.2102 211.023 37.9205 211.256 37.5568C211.489 37.1932 211.605 36.7812 211.605 36.321V34.9318C211.491 35.0057 211.335 35.0739 211.136 35.1364C210.943 35.1932 210.724 35.2472 210.48 35.2983C210.236 35.3437 209.991 35.3864 209.747 35.4261C209.503 35.4602 209.281 35.4915 209.082 35.5199C208.656 35.5824 208.284 35.6818 207.966 35.8182C207.648 35.9545 207.401 36.1392 207.224 36.3722C207.048 36.5994 206.96 36.8835 206.96 37.2244C206.96 37.7188 207.139 38.0966 207.497 38.358C207.861 38.6136 208.321 38.7415 208.878 38.7415ZM208.528 26.2216L205.929 22.3438H209.278L211.094 26.2216H208.528ZM223.582 41V27.9091H227.042V30.2188H227.195C227.468 29.4517 227.923 28.8466 228.559 28.4034C229.195 27.9602 229.957 27.7386 230.843 27.7386C231.741 27.7386 232.505 27.9631 233.136 28.4119C233.766 28.8551 234.187 29.4574 234.397 30.2188H234.533C234.8 29.4688 235.283 28.8693 235.982 28.4205C236.687 27.9659 237.519 27.7386 238.479 27.7386C239.701 27.7386 240.692 28.1278 241.454 28.9062C242.221 29.679 242.604 30.7756 242.604 32.196V41H238.982V32.9119C238.982 32.1847 238.789 31.6392 238.403 31.2756C238.016 30.9119 237.533 30.7301 236.954 30.7301C236.295 30.7301 235.781 30.9403 235.411 31.3608C235.042 31.7756 234.857 32.3239 234.857 33.0057V41H231.337V32.8352C231.337 32.1932 231.153 31.6818 230.783 31.3011C230.42 30.9205 229.94 30.7301 229.343 30.7301C228.94 30.7301 228.576 30.8324 228.252 31.0369C227.934 31.2358 227.681 31.517 227.494 31.8807C227.306 32.2386 227.212 32.6591 227.212 33.142V41H223.582ZM251.438 41.2557C250.092 41.2557 248.933 40.983 247.961 40.4375C246.995 39.8864 246.251 39.108 245.728 38.1023C245.205 37.0909 244.944 35.8949 244.944 34.5142C244.944 33.1676 245.205 31.9858 245.728 30.9688C246.251 29.9517 246.987 29.1591 247.935 28.5909C248.89 28.0227 250.009 27.7386 251.293 27.7386C252.157 27.7386 252.961 27.8778 253.705 28.1562C254.455 28.429 255.109 28.8409 255.665 29.392C256.228 29.9432 256.665 30.6364 256.978 31.4716C257.29 32.3011 257.447 33.2727 257.447 34.3864V35.3835H246.393V33.1335H254.029C254.029 32.6108 253.915 32.1477 253.688 31.7443C253.461 31.3409 253.146 31.0256 252.742 30.7983C252.344 30.5653 251.881 30.4489 251.353 30.4489C250.802 30.4489 250.313 30.5767 249.887 30.8324C249.467 31.0824 249.137 31.4205 248.898 31.8466C248.66 32.267 248.538 32.7358 248.532 33.2528V35.392C248.532 36.0398 248.651 36.5994 248.89 37.071C249.134 37.5426 249.478 37.9062 249.921 38.1619C250.364 38.4176 250.89 38.5455 251.498 38.5455C251.901 38.5455 252.271 38.4886 252.606 38.375C252.941 38.2614 253.228 38.0909 253.467 37.8636C253.705 37.6364 253.887 37.358 254.012 37.0284L257.37 37.25C257.2 38.0568 256.85 38.7614 256.322 39.3636C255.799 39.9602 255.123 40.4261 254.293 40.7614C253.469 41.0909 252.518 41.2557 251.438 41.2557ZM251.217 45.9006C250.677 45.9006 250.214 45.7216 249.827 45.3636C249.441 45.0057 249.248 44.5739 249.248 44.0682C249.248 43.5625 249.441 43.1307 249.827 42.7727C250.214 42.4148 250.677 42.2358 251.217 42.2358C251.756 42.2358 252.217 42.4148 252.597 42.7727C252.984 43.1307 253.177 43.5625 253.177 44.0682C253.177 44.5739 252.984 45.0057 252.597 45.3636C252.217 45.7216 251.756 45.9006 251.217 45.9006ZM268.661 37.233L268.669 32.8778H269.197L273.391 27.9091H277.558L271.925 34.4886H271.064L268.661 37.233ZM265.371 41V23.5455H269.001V41H265.371ZM273.553 41L269.7 35.2983L272.121 32.733L277.805 41H273.553ZM282.97 33.4318V41H279.339V23.5455H282.868V30.2188H283.021C283.317 29.446 283.794 28.8409 284.453 28.4034C285.112 27.9602 285.939 27.7386 286.933 27.7386C287.842 27.7386 288.635 27.9375 289.311 28.3352C289.993 28.7273 290.521 29.2926 290.896 30.0312C291.277 30.7642 291.464 31.642 291.459 32.6648V41H287.828V33.3125C287.834 32.5057 287.629 31.8778 287.214 31.429C286.805 30.9801 286.232 30.7557 285.493 30.7557C284.999 30.7557 284.561 30.8608 284.18 31.071C283.805 31.2812 283.51 31.5881 283.294 31.9915C283.084 32.3892 282.976 32.8693 282.97 33.4318ZM298.049 41.2472C297.214 41.2472 296.469 41.1023 295.816 40.8125C295.163 40.517 294.646 40.0824 294.265 39.5085C293.89 38.929 293.702 38.2074 293.702 37.3438C293.702 36.6165 293.836 36.0057 294.103 35.5114C294.37 35.017 294.734 34.6193 295.194 34.3182C295.654 34.017 296.177 33.7898 296.762 33.6364C297.353 33.483 297.972 33.375 298.62 33.3125C299.381 33.233 299.995 33.1591 300.461 33.0909C300.927 33.017 301.265 32.9091 301.475 32.767C301.685 32.625 301.79 32.4148 301.79 32.1364V32.0852C301.79 31.5455 301.62 31.1278 301.279 30.8324C300.944 30.5369 300.467 30.3892 299.847 30.3892C299.194 30.3892 298.674 30.5341 298.288 30.8239C297.901 31.108 297.646 31.4659 297.521 31.8977L294.163 31.625C294.333 30.8295 294.668 30.142 295.168 29.5625C295.668 28.9773 296.313 28.5284 297.103 28.2159C297.898 27.8977 298.819 27.7386 299.864 27.7386C300.592 27.7386 301.288 27.8239 301.952 27.9943C302.623 28.1648 303.217 28.429 303.734 28.7869C304.256 29.1449 304.668 29.6051 304.969 30.1676C305.271 30.7244 305.421 31.392 305.421 32.1705V41H301.978V39.1847H301.876C301.665 39.5938 301.384 39.9545 301.032 40.267C300.68 40.5739 300.256 40.8153 299.762 40.9915C299.268 41.1619 298.697 41.2472 298.049 41.2472ZM299.089 38.7415C299.623 38.7415 300.094 38.6364 300.504 38.4261C300.913 38.2102 301.234 37.9205 301.467 37.5568C301.7 37.1932 301.816 36.7812 301.816 36.321V34.9318C301.702 35.0057 301.546 35.0739 301.347 35.1364C301.154 35.1932 300.935 35.2472 300.691 35.2983C300.447 35.3437 300.202 35.3864 299.958 35.4261C299.714 35.4602 299.492 35.4915 299.293 35.5199C298.867 35.5824 298.495 35.6818 298.177 35.8182C297.859 35.9545 297.612 36.1392 297.435 36.3722C297.259 36.5994 297.171 36.8835 297.171 37.2244C297.171 37.7188 297.35 38.0966 297.708 38.358C298.072 38.6136 298.532 38.7415 299.089 38.7415ZM298.697 26.2216L300.504 22.3438H303.862L301.262 26.2216H298.697ZM314.153 41.2557C312.812 41.2557 311.658 40.9716 310.692 40.4034C309.732 39.8295 308.994 39.0341 308.477 38.017C307.965 37 307.71 35.8295 307.71 34.5057C307.71 33.1648 307.968 31.9886 308.485 30.9773C309.008 29.9602 309.749 29.1676 310.71 28.5994C311.67 28.0256 312.812 27.7386 314.136 27.7386C315.278 27.7386 316.278 27.946 317.136 28.3608C317.994 28.7756 318.673 29.358 319.173 30.108C319.673 30.858 319.948 31.7386 319.999 32.75H316.573C316.477 32.0966 316.221 31.571 315.806 31.1733C315.397 30.7699 314.86 30.5682 314.195 30.5682C313.633 30.5682 313.141 30.7216 312.721 31.0284C312.306 31.3295 311.982 31.7699 311.749 32.3494C311.516 32.929 311.4 33.6307 311.4 34.4545C311.4 35.2898 311.513 36 311.741 36.5852C311.974 37.1705 312.3 37.6165 312.721 37.9233C313.141 38.2301 313.633 38.3835 314.195 38.3835C314.61 38.3835 314.982 38.2983 315.312 38.1278C315.647 37.9574 315.923 37.7102 316.138 37.3864C316.36 37.0568 316.505 36.6619 316.573 36.2017H319.999C319.942 37.2017 319.67 38.0824 319.181 38.8438C318.698 39.5994 318.031 40.1903 317.178 40.6165C316.326 41.0426 315.317 41.2557 314.153 41.2557ZM22.2727 73.2131C21.2784 73.2131 20.3778 72.9574 19.571 72.446C18.7699 71.929 18.1335 71.1705 17.6619 70.1705C17.196 69.1648 16.9631 67.9318 16.9631 66.4716C16.9631 64.9716 17.2045 63.7244 17.6875 62.7301C18.1705 61.7301 18.8125 60.983 19.6136 60.4886C20.4205 59.9886 21.304 59.7386 22.2642 59.7386C22.9972 59.7386 23.608 59.8636 24.0966 60.1136C24.5909 60.358 24.9886 60.6648 25.2898 61.0341C25.5966 61.3977 25.8295 61.7557 25.9886 62.108H26.0994V55.5455H29.7216V73H26.142V70.9034H25.9886C25.8182 71.267 25.5767 71.6278 25.2642 71.9858C24.9574 72.3381 24.5568 72.6307 24.0625 72.8636C23.5739 73.0966 22.9773 73.2131 22.2727 73.2131ZM23.4233 70.3239C24.0085 70.3239 24.5028 70.1648 24.9062 69.8466C25.3153 69.5227 25.6278 69.071 25.8438 68.4915C26.0653 67.9119 26.1761 67.233 26.1761 66.4545C26.1761 65.6761 26.0682 65 25.8523 64.4261C25.6364 63.8523 25.3239 63.4091 24.9148 63.0966C24.5057 62.7841 24.0085 62.6278 23.4233 62.6278C22.8267 62.6278 22.3239 62.7898 21.9148 63.1136C21.5057 63.4375 21.196 63.8864 20.9858 64.4602C20.7756 65.0341 20.6705 65.6989 20.6705 66.4545C20.6705 67.2159 20.7756 67.8892 20.9858 68.4744C21.2017 69.054 21.5114 69.5085 21.9148 69.8381C22.3239 70.1619 22.8267 70.3239 23.4233 70.3239ZM22.7074 59.0142V56.875H31.2131V59.0142H22.7074ZM36.4396 73.2472C35.6044 73.2472 34.8601 73.1023 34.2067 72.8125C33.5533 72.517 33.0362 72.0824 32.6555 71.5085C32.2805 70.929 32.093 70.2074 32.093 69.3438C32.093 68.6165 32.2266 68.0057 32.4936 67.5114C32.7607 67.017 33.1243 66.6193 33.5845 66.3182C34.0447 66.017 34.5675 65.7898 35.1527 65.6364C35.7436 65.483 36.3629 65.375 37.0107 65.3125C37.772 65.233 38.3857 65.1591 38.8516 65.0909C39.3175 65.017 39.6555 64.9091 39.8658 64.767C40.076 64.625 40.1811 64.4148 40.1811 64.1364V64.0852C40.1811 63.5455 40.0107 63.1278 39.6697 62.8324C39.3345 62.5369 38.8572 62.3892 38.2379 62.3892C37.5845 62.3892 37.0646 62.5341 36.6783 62.8239C36.2919 63.108 36.0362 63.4659 35.9112 63.8977L32.5533 63.625C32.7237 62.8295 33.0589 62.142 33.5589 61.5625C34.0589 60.9773 34.7038 60.5284 35.4936 60.2159C36.2891 59.8977 37.2095 59.7386 38.255 59.7386C38.9822 59.7386 39.6783 59.8239 40.343 59.9943C41.0135 60.1648 41.6072 60.429 42.1243 60.7869C42.647 61.1449 43.0589 61.6051 43.3601 62.1676C43.6612 62.7244 43.8118 63.392 43.8118 64.1705V73H40.3686V71.1847H40.2663C40.0561 71.5938 39.7749 71.9545 39.4226 72.267C39.0703 72.5739 38.647 72.8153 38.1527 72.9915C37.6584 73.1619 37.0874 73.2472 36.4396 73.2472ZM37.4794 70.7415C38.0135 70.7415 38.4851 70.6364 38.8942 70.4261C39.3033 70.2102 39.6243 69.9205 39.8572 69.5568C40.0902 69.1932 40.2067 68.7812 40.2067 68.321V66.9318C40.093 67.0057 39.9368 67.0739 39.7379 67.1364C39.5447 67.1932 39.326 67.2472 39.0817 67.2983C38.8374 67.3437 38.593 67.3864 38.3487 67.4261C38.1044 67.4602 37.8828 67.4915 37.6839 67.5199C37.2578 67.5824 36.8857 67.6818 36.5675 67.8182C36.2493 67.9545 36.0021 68.1392 35.826 68.3722C35.6499 68.5994 35.5618 68.8835 35.5618 69.2244C35.5618 69.7188 35.7408 70.0966 36.0987 70.358C36.4624 70.6136 36.9226 70.7415 37.4794 70.7415ZM50.2592 65.4318V73H46.6286V59.9091H50.0888V62.2188H50.2422C50.532 61.4574 51.0178 60.8551 51.6996 60.4119C52.3814 59.9631 53.2081 59.7386 54.1797 59.7386C55.0888 59.7386 55.8814 59.9375 56.5575 60.3352C57.2337 60.733 57.7592 61.3011 58.1342 62.0398C58.5092 62.7727 58.6967 63.6477 58.6967 64.6648V73H55.0661V65.3125C55.0717 64.5114 54.8672 63.8864 54.4524 63.4375C54.0376 62.983 53.4666 62.7557 52.7393 62.7557C52.2507 62.7557 51.8189 62.8608 51.4439 63.071C51.0746 63.2812 50.7848 63.5881 50.5746 63.9915C50.37 64.3892 50.2649 64.8693 50.2592 65.4318ZM67.456 78.1818C66.2798 78.1818 65.2713 78.0199 64.4304 77.696C63.5952 77.3778 62.9304 76.9432 62.4361 76.392C61.9418 75.8409 61.6207 75.2216 61.473 74.5341L64.831 74.0824C64.9332 74.3438 65.0952 74.5881 65.3168 74.8153C65.5384 75.0426 65.831 75.2244 66.1946 75.3608C66.5639 75.5028 67.0128 75.5739 67.5412 75.5739C68.331 75.5739 68.9815 75.3807 69.4929 74.9943C70.0099 74.6136 70.2685 73.9744 70.2685 73.0767V70.6818H70.1151C69.956 71.0455 69.7173 71.3892 69.3991 71.7131C69.081 72.0369 68.6719 72.3011 68.1719 72.5057C67.6719 72.7102 67.0753 72.8125 66.3821 72.8125C65.3991 72.8125 64.5043 72.5852 63.6974 72.1307C62.8963 71.6705 62.2571 70.9687 61.7798 70.0256C61.3082 69.0767 61.0724 67.8778 61.0724 66.429C61.0724 64.946 61.3139 63.7074 61.7969 62.7131C62.2798 61.7187 62.9219 60.9744 63.723 60.4801C64.5298 59.9858 65.4134 59.7386 66.3736 59.7386C67.1065 59.7386 67.7202 59.8636 68.2145 60.1136C68.7088 60.358 69.1065 60.6648 69.4077 61.0341C69.7145 61.3977 69.9503 61.7557 70.1151 62.108H70.2514V59.9091H73.8565V73.1278C73.8565 74.2415 73.5838 75.1733 73.0384 75.9233C72.4929 76.6733 71.7372 77.2358 70.7713 77.6108C69.8111 77.9915 68.706 78.1818 67.456 78.1818ZM67.5327 70.0852C68.1179 70.0852 68.6122 69.9403 69.0156 69.6506C69.4247 69.3551 69.7372 68.9347 69.9531 68.3892C70.1747 67.8381 70.2855 67.179 70.2855 66.4119C70.2855 65.6449 70.1776 64.9801 69.9616 64.4176C69.7457 63.8494 69.4332 63.4091 69.0241 63.0966C68.6151 62.7841 68.1179 62.6278 67.5327 62.6278C66.9361 62.6278 66.4332 62.7898 66.0241 63.1136C65.6151 63.4318 65.3054 63.875 65.0952 64.4432C64.8849 65.0114 64.7798 65.6676 64.7798 66.4119C64.7798 67.1676 64.8849 67.821 65.0952 68.3722C65.3111 68.9176 65.6207 69.3409 66.0241 69.642C66.4332 69.9375 66.9361 70.0852 67.5327 70.0852ZM85.9311 65.4318V73H82.3004V59.9091H85.7607V62.2188H85.9141C86.2038 61.4574 86.6896 60.8551 87.3714 60.4119C88.0533 59.9631 88.88 59.7386 89.8516 59.7386C90.7607 59.7386 91.5533 59.9375 92.2294 60.3352C92.9055 60.733 93.4311 61.3011 93.8061 62.0398C94.1811 62.7727 94.3686 63.6477 94.3686 64.6648V73H90.7379V65.3125C90.7436 64.5114 90.5391 63.8864 90.1243 63.4375C89.7095 62.983 89.1385 62.7557 88.4112 62.7557C87.9226 62.7557 87.4908 62.8608 87.1158 63.071C86.7464 63.2812 86.4567 63.5881 86.2464 63.9915C86.0419 64.3892 85.9368 64.8693 85.9311 65.4318ZM103.128 78.1818C101.952 78.1818 100.943 78.0199 100.102 77.696C99.267 77.3778 98.6023 76.9432 98.108 76.392C97.6136 75.8409 97.2926 75.2216 97.1449 74.5341L100.503 74.0824C100.605 74.3438 100.767 74.5881 100.989 74.8153C101.21 75.0426 101.503 75.2244 101.866 75.3608C102.236 75.5028 102.685 75.5739 103.213 75.5739C104.003 75.5739 104.653 75.3807 105.165 74.9943C105.682 74.6136 105.94 73.9744 105.94 73.0767V70.6818H105.787C105.628 71.0455 105.389 71.3892 105.071 71.7131C104.753 72.0369 104.344 72.3011 103.844 72.5057C103.344 72.7102 102.747 72.8125 102.054 72.8125C101.071 72.8125 100.176 72.5852 99.3693 72.1307C98.5682 71.6705 97.929 70.9687 97.4517 70.0256C96.9801 69.0767 96.7443 67.8778 96.7443 66.429C96.7443 64.946 96.9858 63.7074 97.4688 62.7131C97.9517 61.7187 98.5938 60.9744 99.3949 60.4801C100.202 59.9858 101.085 59.7386 102.045 59.7386C102.778 59.7386 103.392 59.8636 103.886 60.1136C104.381 60.358 104.778 60.6648 105.08 61.0341C105.386 61.3977 105.622 61.7557 105.787 62.108H105.923V59.9091H109.528V73.1278C109.528 74.2415 109.256 75.1733 108.71 75.9233C108.165 76.6733 107.409 77.2358 106.443 77.6108C105.483 77.9915 104.378 78.1818 103.128 78.1818ZM103.205 70.0852C103.79 70.0852 104.284 69.9403 104.688 69.6506C105.097 69.3551 105.409 68.9347 105.625 68.3892C105.847 67.8381 105.957 67.179 105.957 66.4119C105.957 65.6449 105.849 64.9801 105.634 64.4176C105.418 63.8494 105.105 63.4091 104.696 63.0966C104.287 62.7841 103.79 62.6278 103.205 62.6278C102.608 62.6278 102.105 62.7898 101.696 63.1136C101.287 63.4318 100.977 63.875 100.767 64.4432C100.557 65.0114 100.452 65.6676 100.452 66.4119C100.452 67.1676 100.557 67.821 100.767 68.3722C100.983 68.9176 101.293 69.3409 101.696 69.642C102.105 69.9375 102.608 70.0852 103.205 70.0852ZM116.048 65.4318V73H112.418V55.5455H115.946V62.2188H116.099C116.395 61.446 116.872 60.8409 117.531 60.4034C118.19 59.9602 119.017 59.7386 120.011 59.7386C120.92 59.7386 121.713 59.9375 122.389 60.3352C123.071 60.7273 123.599 61.2926 123.974 62.0312C124.355 62.7642 124.543 63.642 124.537 64.6648V73H120.906V65.3125C120.912 64.5057 120.707 63.8778 120.293 63.429C119.884 62.9801 119.31 62.7557 118.571 62.7557C118.077 62.7557 117.639 62.8608 117.259 63.071C116.884 63.2812 116.588 63.5881 116.372 63.9915C116.162 64.3892 116.054 64.8693 116.048 65.4318ZM127.599 73V59.9091H131.229V73H127.599ZM126.985 58.2983L124.965 58.2727C124.965 57.1875 125.235 56.3551 125.775 55.7756C126.309 55.196 126.962 54.9034 127.735 54.8977C128.133 54.8977 128.474 54.9631 128.758 55.0938C129.048 55.2188 129.306 55.3665 129.533 55.5369C129.766 55.7074 129.988 55.858 130.198 55.9886C130.408 56.1136 130.636 56.1761 130.88 56.1761C131.21 56.1705 131.46 56.0483 131.63 55.8097C131.806 55.5653 131.894 55.2472 131.894 54.8551L133.88 54.9148C133.869 55.9886 133.596 56.8182 133.062 57.4034C132.528 57.983 131.877 58.2756 131.11 58.2812C130.684 58.2812 130.326 58.2188 130.036 58.0938C129.752 57.9631 129.502 57.8153 129.286 57.6506C129.07 57.4801 128.86 57.3295 128.656 57.1989C128.451 57.0682 128.221 57.0028 127.965 57.0028C127.67 57.0028 127.431 57.1193 127.249 57.3523C127.073 57.5852 126.985 57.9006 126.985 58.2983ZM145.784 78.1818C144.608 78.1818 143.599 78.0199 142.759 77.696C141.923 77.3778 141.259 76.9432 140.764 76.392C140.27 75.8409 139.949 75.2216 139.801 74.5341L143.159 74.0824C143.261 74.3438 143.423 74.5881 143.645 74.8153C143.866 75.0426 144.159 75.2244 144.523 75.3608C144.892 75.5028 145.341 75.5739 145.869 75.5739C146.659 75.5739 147.31 75.3807 147.821 74.9943C148.338 74.6136 148.597 73.9744 148.597 73.0767V70.6818H148.443C148.284 71.0455 148.045 71.3892 147.727 71.7131C147.409 72.0369 147 72.3011 146.5 72.5057C146 72.7102 145.403 72.8125 144.71 72.8125C143.727 72.8125 142.832 72.5852 142.026 72.1307C141.224 71.6705 140.585 70.9687 140.108 70.0256C139.636 69.0767 139.401 67.8778 139.401 66.429C139.401 64.946 139.642 63.7074 140.125 62.7131C140.608 61.7187 141.25 60.9744 142.051 60.4801C142.858 59.9858 143.741 59.7386 144.702 59.7386C145.435 59.7386 146.048 59.8636 146.543 60.1136C147.037 60.358 147.435 60.6648 147.736 61.0341C148.043 61.3977 148.278 61.7557 148.443 62.108H148.58V59.9091H152.185V73.1278C152.185 74.2415 151.912 75.1733 151.366 75.9233C150.821 76.6733 150.065 77.2358 149.099 77.6108C148.139 77.9915 147.034 78.1818 145.784 78.1818ZM145.861 70.0852C146.446 70.0852 146.94 69.9403 147.344 69.6506C147.753 69.3551 148.065 68.9347 148.281 68.3892C148.503 67.8381 148.614 67.179 148.614 66.4119C148.614 65.6449 148.506 64.9801 148.29 64.4176C148.074 63.8494 147.761 63.4091 147.352 63.0966C146.943 62.7841 146.446 62.6278 145.861 62.6278C145.264 62.6278 144.761 62.7898 144.352 63.1136C143.943 63.4318 143.634 63.875 143.423 64.4432C143.213 65.0114 143.108 65.6676 143.108 66.4119C143.108 67.1676 143.213 67.821 143.423 68.3722C143.639 68.9176 143.949 69.3409 144.352 69.642C144.761 69.9375 145.264 70.0852 145.861 70.0852ZM155.074 73V59.9091H158.705V73H155.074ZM155.636 58.2216L153.037 54.3438H156.386L158.202 58.2216H155.636Z" fill="white"/>
<rect x="178" y="216" width="8" height="8" rx="4" fill="white"/>
<g opacity="0.3">
<rect x="194" y="216" width="8" height="8" rx="4" fill="white"/>
</g>
<g opacity="0.3">
<rect x="210" y="216" width="8" height="8" rx="4" fill="white"/>
</g>
</g>
<defs>
<linearGradient id="paint0_linear_133_6683" x1="199" y1="0" x2="199" y2="240" gradientUnits="userSpaceOnUse">
<stop stop-color="#42A5F5"/>
<stop offset="1" stop-color="#90CAF9"/>
</linearGradient>
<clipPath id="clip0_133_6683">
<path d="M0 16C0 7.16344 7.16344 0 16 0H382C390.837 0 398 7.16344 398 16V224C398 232.837 390.837 240 382 240H16C7.16345 240 0 232.837 0 224V16Z" fill="white"/>
</clipPath>
</defs>
</svg>
