<svg width="430" height="247" viewBox="0 0 430 247" fill="none" xmlns="http://www.w3.org/2000/svg">
<g clip-path="url(#clip0_253_8515)">
<rect width="430" height="246.806" fill="url(#paint0_linear_253_8515)"/>
<path d="M243.339 190.503C230.526 196.507 205.091 165.296 208.634 150.735C213.492 130.774 244.952 137.712 244.952 137.712L246.975 148.993C246.975 148.993 226.747 152.454 226.938 155.387C227.163 158.871 237.478 166.859 241.384 170.627C249.048 178.028 249.086 187.807 243.339 190.503Z" fill="#FFBE9D"/>
<path opacity="0.15" d="M243.339 190.503C230.526 196.507 205.091 165.296 208.634 150.735C213.492 130.774 244.952 137.712 244.952 137.712L246.975 148.993C246.975 148.993 226.747 152.454 226.938 155.387C227.163 158.871 237.478 166.859 241.384 170.627C249.048 178.028 249.086 187.807 243.339 190.503Z" fill="black"/>
<path d="M238.056 141.112L239.267 139.95C240.226 139.028 241.391 138.349 242.664 137.966C243.938 137.584 245.284 137.51 246.591 137.751L253.241 138.988C254.127 139.155 254.94 139.588 255.573 140.229C255.952 140.596 256.258 141.03 256.477 141.51L258.088 144.994C258.452 145.742 258.59 146.581 258.485 147.406C258.379 148.232 258.036 149.009 257.496 149.642L254.323 153.184C253.845 153.724 253.217 154.11 252.52 154.294C251.822 154.477 251.085 154.45 250.403 154.215C250.032 154.089 249.681 153.91 249.361 153.683C249.251 153.598 249.141 153.514 249.034 153.42L247.223 151.855C247.223 151.855 246.559 151.415 245.537 150.551C245.498 150.512 245.454 150.476 245.408 150.445C245.343 150.398 245.282 150.345 245.226 150.288C245.067 150.142 244.885 150 244.716 149.835C242.511 147.9 239.429 144.733 238.056 141.112Z" fill="#FFBE9D"/>
<path opacity="0.15" d="M238.056 141.112L239.268 139.95C240.226 139.028 241.391 138.348 242.664 137.966C243.938 137.584 245.284 137.51 246.591 137.751L253.241 138.988C253.891 139.116 254.507 139.383 255.044 139.772C254.395 139.754 253.754 139.917 253.192 140.241C252.518 140.831 250.677 142.84 250.501 143.032C250.583 142.843 251.456 140.911 249.896 140.724C249.536 140.686 249.171 140.727 248.827 140.844C248.483 140.96 248.169 141.15 247.906 141.4C247.642 141.649 247.436 141.953 247.301 142.29C247.166 142.627 247.106 142.989 247.124 143.351C247.271 144.682 247.51 146 247.841 147.297C247.841 147.297 250.686 148.508 250.839 150.605C250.906 151.826 250.756 153.049 250.397 154.218C250.026 154.092 249.675 153.913 249.355 153.686C249.779 152.991 250.62 151.397 250.337 150.285C250.001 148.944 248.137 147.473 247.451 148.158C247.193 148.422 247.023 148.758 246.962 149.122C246.902 149.486 246.955 149.859 247.113 150.192C247.113 150.192 243.837 146.667 246.091 144.842C246.091 144.842 245.201 142.288 247.256 140.924C247.256 140.924 244.699 140.037 243.595 141.382C243.279 141.829 243.08 142.348 243.017 142.892C242.954 143.436 243.028 143.987 243.234 144.494C243.234 144.494 241.233 146.638 244.71 149.839C242.511 147.9 239.429 144.733 238.056 141.112Z" fill="black"/>
<path d="M192.76 203.145C193.581 203.181 194.391 203.197 195.188 203.189L196.074 173.333C200.123 169.37 203.635 164.893 206.519 160.017C206.877 159.406 207.227 158.767 207.554 158.116L207.774 157.709C208.087 157.106 208.385 156.488 208.675 155.841C211.609 149.44 213.218 141.764 210.68 133.919C208.019 125.669 198.665 108.841 172.187 120.816C168.879 122.33 165.678 124.068 162.608 126.018C156.225 130.056 150.155 134.568 144.449 139.516C133.763 140.304 131.69 139.186 129.985 139.735C127.715 139.894 126.508 142.865 127.336 145.26C128.283 148.007 129.512 146.907 129.904 146.197C129.904 146.197 130.553 147.968 133.586 148.757C135.219 149.203 136.719 150.038 137.96 151.19C138.565 151.951 139.181 152.73 139.799 153.484C139.866 153.608 139.886 153.645 139.869 153.614C142.682 157.023 145.658 159.95 149.316 159.205C153.546 158.334 155.76 152.894 156.611 150.212L158.048 150.289L159.645 150.383L162.279 150.556L162.781 150.579L168.248 150.88C152.465 167.824 165.445 197.746 188.114 202.543C189.644 202.868 191.198 203.069 192.76 203.145Z" fill="#FFBE9D"/>
<path opacity="0.15" d="M192.76 203.145C193.581 203.181 194.391 203.197 195.188 203.189L196.074 173.333C200.123 169.37 203.635 164.893 206.519 160.017C206.877 159.406 207.227 158.767 207.554 158.116L207.774 157.709C208.087 157.106 208.385 156.488 208.675 155.841C211.609 149.44 213.218 141.764 210.68 133.919C208.019 125.669 198.665 108.841 172.187 120.816C168.879 122.33 165.678 124.068 162.608 126.018C156.225 130.056 150.155 134.568 144.449 139.516C133.763 140.304 131.69 139.186 129.985 139.735C127.715 139.894 126.508 142.865 127.336 145.26C128.283 148.007 129.512 146.907 129.904 146.197C129.904 146.197 130.553 147.968 133.586 148.757C135.219 149.203 136.719 150.038 137.96 151.19C138.565 151.951 139.181 152.73 139.799 153.484C139.866 153.608 139.886 153.645 139.869 153.614C142.682 157.023 145.658 159.95 149.316 159.205C153.546 158.334 155.76 152.894 156.611 150.212L158.048 150.289L159.645 150.383L162.279 150.556L162.781 150.579L168.248 150.88C152.465 167.824 165.445 197.746 188.114 202.543C189.644 202.868 191.198 203.069 192.76 203.145Z" fill="black"/>
<path d="M244.37 209.43C236.021 207.041 237.385 210.29 229.994 214.032C222.264 217.917 197.001 215.602 173.103 198.804C142.359 177.19 189.346 145.464 204.34 152.418C219.334 159.372 228.025 171.495 245.447 173.653C262.868 175.811 244.37 209.43 244.37 209.43Z" fill="#FFBE9D"/>
<path d="M226.157 167.51C218.567 171.239 210.268 166.522 207.374 164.04C207.049 163.735 206.855 163.317 206.831 162.872C206.808 162.428 206.957 161.991 207.248 161.654C207.539 161.317 207.949 161.106 208.392 161.064C208.836 161.022 209.278 161.153 209.627 161.43C209.721 161.515 219.59 169.641 227.319 162.552C233.471 156.911 230.69 152.292 222.891 143.081C219.833 139.47 211.741 125.955 214.151 116.657C214.542 115.066 215.323 113.597 216.424 112.384C217.525 111.17 218.911 110.251 220.457 109.707C220.671 109.615 220.902 109.566 221.135 109.565C221.369 109.564 221.6 109.611 221.815 109.701C222.03 109.792 222.224 109.926 222.386 110.094C222.548 110.262 222.674 110.461 222.756 110.679C222.839 110.897 222.877 111.13 222.867 111.363C222.857 111.596 222.8 111.825 222.699 112.035C222.598 112.246 222.456 112.434 222.281 112.587C222.105 112.741 221.9 112.858 221.679 112.93C220.642 113.278 219.711 113.885 218.975 114.695C218.239 115.504 217.722 116.488 217.474 117.553C215.653 124.528 221.759 136.436 225.521 140.884C232.094 148.637 238.891 156.652 229.636 165.092C228.596 166.058 227.425 166.872 226.157 167.51Z" fill="#EC407A"/>
<g opacity="0.2">
<path d="M226.157 167.51C218.567 171.239 210.268 166.522 207.374 164.04C207.049 163.735 206.855 163.317 206.831 162.872C206.808 162.428 206.957 161.991 207.248 161.654C207.539 161.317 207.949 161.106 208.392 161.064C208.836 161.022 209.278 161.153 209.627 161.43C209.721 161.515 219.59 169.641 227.319 162.552C233.471 156.911 230.69 152.292 222.891 143.081C219.833 139.47 211.741 125.955 214.151 116.657C214.542 115.066 215.323 113.597 216.424 112.384C217.525 111.17 218.911 110.251 220.457 109.707C220.671 109.615 220.902 109.566 221.135 109.565C221.369 109.564 221.6 109.611 221.815 109.701C222.03 109.792 222.224 109.926 222.386 110.094C222.548 110.262 222.674 110.461 222.756 110.679C222.839 110.897 222.877 111.13 222.867 111.363C222.857 111.596 222.8 111.825 222.699 112.035C222.598 112.246 222.456 112.434 222.281 112.587C222.105 112.741 221.9 112.858 221.679 112.93C220.642 113.278 219.711 113.885 218.975 114.695C218.239 115.504 217.722 116.488 217.474 117.553C215.653 124.528 221.759 136.436 225.521 140.884C232.094 148.637 238.891 156.652 229.636 165.092C228.596 166.058 227.425 166.872 226.157 167.51Z" fill="white"/>
</g>
<path d="M230.981 131.477C230.77 131.591 230.554 131.709 230.335 131.763C222.089 135.023 204.744 126.085 198.306 112.474C194.107 103.592 187.777 101.452 183.232 102.422C177.569 103.622 173.781 109.454 173.589 117.274C173.258 129.946 167.851 140.911 160.034 144.755L159.706 144.933C157.552 145.988 155.135 146.386 152.756 146.076C150.378 145.766 148.143 144.762 146.332 143.19C139.82 137.912 141.368 131.526 142.741 125.909C144 120.762 145.188 115.91 141.319 111.176C141.166 111.002 141.05 110.799 140.978 110.58C140.905 110.36 140.877 110.128 140.896 109.897C140.915 109.666 140.98 109.442 141.088 109.237C141.195 109.032 141.343 108.851 141.522 108.704C141.701 108.557 141.908 108.448 142.13 108.383C142.352 108.318 142.585 108.298 142.815 108.325C143.045 108.351 143.267 108.424 143.468 108.539C143.67 108.653 143.846 108.807 143.986 108.991C148.946 115.055 147.439 121.25 146.093 126.725C144.747 132.199 143.676 136.603 148.5 140.514C149.814 141.676 151.445 142.42 153.184 142.649C154.923 142.878 156.691 142.582 158.261 141.8C163.95 139.159 169.791 130.57 170.146 117.205C170.373 107.723 175.237 100.61 182.519 99.0592C189.802 97.5083 197.233 102.207 201.404 111.024C207.615 124.157 223.539 130.758 229.046 128.577C232.63 127.152 231.784 123.292 230.93 121.144C229.032 116.173 224.248 111.952 221.673 112.95C221.251 113.087 220.793 113.057 220.392 112.866C219.992 112.674 219.681 112.336 219.524 111.921C219.367 111.506 219.375 111.047 219.548 110.638C219.721 110.229 220.044 109.903 220.452 109.727C225.311 107.889 231.686 113.578 234.144 119.919C236.18 125.144 234.96 129.524 230.981 131.477Z" fill="#EC407A"/>
<g opacity="0.4">
<path d="M230.981 131.477C230.77 131.591 230.554 131.709 230.335 131.763C222.089 135.023 204.744 126.085 198.306 112.474C194.107 103.592 187.777 101.452 183.232 102.422C177.569 103.622 173.781 109.454 173.589 117.274C173.258 129.946 167.851 140.911 160.034 144.755L159.706 144.933C157.552 145.988 155.135 146.386 152.756 146.076C150.378 145.766 148.143 144.762 146.332 143.19C139.82 137.912 141.368 131.526 142.741 125.909C144 120.762 145.188 115.91 141.319 111.176C141.166 111.002 141.05 110.799 140.978 110.58C140.905 110.36 140.877 110.128 140.896 109.897C140.915 109.666 140.98 109.442 141.088 109.237C141.195 109.032 141.343 108.851 141.522 108.704C141.701 108.557 141.908 108.448 142.13 108.383C142.352 108.318 142.585 108.298 142.815 108.325C143.045 108.351 143.267 108.424 143.468 108.539C143.67 108.653 143.846 108.807 143.986 108.991C148.946 115.055 147.439 121.25 146.093 126.725C144.747 132.199 143.676 136.603 148.5 140.514C149.814 141.676 151.445 142.42 153.184 142.649C154.923 142.878 156.691 142.582 158.261 141.8C163.95 139.159 169.791 130.57 170.146 117.205C170.373 107.723 175.237 100.61 182.519 99.0592C189.802 97.5083 197.233 102.207 201.404 111.024C207.615 124.157 223.539 130.758 229.046 128.577C232.63 127.152 231.784 123.292 230.93 121.144C229.032 116.173 224.248 111.952 221.673 112.95C221.251 113.087 220.793 113.057 220.392 112.866C219.992 112.674 219.681 112.336 219.524 111.921C219.367 111.506 219.375 111.047 219.548 110.638C219.721 110.229 220.044 109.903 220.452 109.727C225.311 107.889 231.686 113.578 234.144 119.919C236.18 125.144 234.96 129.524 230.981 131.477Z" fill="white"/>
</g>
<path d="M175.131 200.178C148.637 184.117 144.776 155.14 173.372 146.903L168.61 144.273L168.174 144.029L165.881 142.758L164.481 141.98L159.5 139.196L156.88 126.316C164.189 124.34 171.635 122.915 179.157 122.055C182.774 121.652 186.414 121.493 190.053 121.579C219.105 122.341 220.184 141.563 218.984 150.155C217.848 158.288 213.047 164.469 207.62 168.978C207.068 169.438 206.543 169.859 206.006 170.271L205.628 170.549C205.063 170.984 204.484 171.394 203.896 171.786C199.179 174.919 194.074 177.422 188.708 179.232L175.131 200.178Z" fill="#FFBE9D"/>
<path opacity="0.2" d="M173.286 146.878C176.377 148.821 181.078 150.483 183.071 150.435C181.189 151.151 179.124 151.228 177.195 150.652C174.381 149.881 173.286 146.878 173.286 146.878Z" fill="black"/>
<path d="M152.728 146.174C158.309 147.599 164.238 140.101 164.238 140.101L157.139 126.439C146.943 122.417 145.551 120.489 143.768 120.231C141.65 119.386 139.275 121.533 138.972 124.045C138.629 126.94 140.214 126.48 140.851 126.03C140.851 126.03 140.653 127.908 143.038 129.938C144.317 131.048 145.305 132.453 145.918 134.031C146.133 134.988 146.351 135.951 146.569 136.883C146.574 137.025 146.584 137.059 146.602 137.033C147.693 141.329 149.096 145.254 152.728 146.174Z" fill="#FFBE9D"/>
<path opacity="0.15" d="M240.834 208.674C234.084 202.308 220.675 186.512 229.835 168.381C234.667 171.135 239.99 172.918 245.506 173.629C262.921 175.79 244.391 209.411 244.391 209.411C243.228 209.067 242.038 208.821 240.834 208.674Z" fill="black"/>
<path d="M274.079 172.079C274.079 172.079 278.193 174.741 282.514 173.108C286.835 171.474 290.097 177.804 294.759 172.756C299.422 167.708 290.91 159.839 287.239 160.205C287.462 159.819 287.546 159.368 287.476 158.928C287.406 158.487 287.186 158.084 286.854 157.786C286.854 157.786 285.443 160.219 284.677 159.089C283.911 157.958 280.028 154.586 275.724 156.899C271.419 159.213 267.889 166.154 274.079 172.079Z" fill="#FFBE9D"/>
<path opacity="0.2" d="M274.079 172.079C274.079 172.079 278.193 174.741 282.514 173.108C286.835 171.474 290.097 177.804 294.759 172.756C299.422 167.708 290.91 159.839 287.239 160.205C287.462 159.819 287.546 159.368 287.476 158.928C287.406 158.487 287.186 158.084 286.854 157.786C286.854 157.786 285.443 160.219 284.677 159.089C283.911 157.958 280.028 154.586 275.724 156.899C271.419 159.213 267.889 166.154 274.079 172.079Z" fill="black"/>
<path d="M276.191 218.729C274.311 218.963 272.419 219.08 270.525 219.081C269.938 219.079 269.349 219.071 268.756 219.04C263.789 218.856 258.873 217.97 254.154 216.409C250.676 215.277 247.367 213.681 244.317 211.663C242.812 210.66 241.405 209.52 240.111 208.257C234.409 202.612 231.003 194.774 230.139 186.854C229.042 176.865 232.263 166.285 240.662 160.21C244.413 157.532 248.722 155.74 253.265 154.969C262.426 153.335 274.543 154.592 284.119 160.024C290.387 163.568 295.568 168.903 298.139 176.369C298.642 177.728 299.027 179.128 299.289 180.552C301.003 189.182 299.646 198.139 295.452 205.874C293.48 209.381 290.707 212.374 287.36 214.608C284.013 216.841 280.186 218.253 276.191 218.729Z" fill="#FFBE9D"/>
<path d="M271.057 183.792C271.221 183.663 271.418 183.581 271.625 183.556C271.76 183.562 271.892 183.594 272.014 183.651C272.136 183.709 272.246 183.789 272.336 183.889C272.427 183.989 272.497 184.106 272.543 184.233C272.588 184.359 272.608 184.494 272.601 184.629C272.593 186.211 272.2 187.768 271.457 189.166C270.714 190.563 269.643 191.759 268.335 192.65C268.224 192.718 268.1 192.763 267.972 192.783C267.843 192.803 267.711 192.797 267.585 192.766C267.459 192.735 267.34 192.679 267.235 192.602C267.13 192.524 267.042 192.427 266.975 192.315C266.848 192.087 266.812 191.82 266.873 191.567C266.935 191.314 267.09 191.093 267.307 190.949C268.334 190.217 269.168 189.246 269.738 188.12C270.307 186.995 270.595 185.748 270.576 184.486C270.604 184.344 270.661 184.208 270.744 184.089C270.826 183.969 270.933 183.869 271.057 183.792Z" fill="#263238"/>
<path d="M270.626 161.102C270.684 160.901 270.797 160.721 270.952 160.58C271.173 160.437 271.442 160.385 271.701 160.436C271.96 160.487 272.189 160.635 272.341 160.851C273.265 162.137 273.863 163.626 274.084 165.193C274.306 166.76 274.144 168.358 273.613 169.848C273.564 169.971 273.49 170.083 273.397 170.176C273.304 170.27 273.193 170.344 273.071 170.394C272.948 170.444 272.817 170.469 272.685 170.467C272.553 170.466 272.422 170.437 272.301 170.384C272.063 170.275 271.874 170.079 271.774 169.836C271.673 169.594 271.668 169.322 271.759 169.076C272.161 167.881 272.266 166.606 272.063 165.361C271.861 164.117 271.358 162.94 270.597 161.935C270.547 161.801 270.524 161.658 270.528 161.515C270.533 161.372 270.567 161.232 270.626 161.102Z" fill="#263238"/>
<path d="M255.295 171.839L251.716 166.723C251.716 166.723 249.651 167.909 248.914 172.587L255.295 171.839Z" fill="#DE5753"/>
<path d="M259.837 182.313C259.837 182.313 256.737 183.54 258.741 188.101C258.741 188.101 252.964 184.074 259.292 180.262L259.837 182.313Z" fill="#263238"/>
<path d="M260.351 164.166C260.351 164.166 257.251 165.392 259.249 169.956C259.249 169.956 253.478 165.926 259.799 162.117L260.351 164.166Z" fill="#263238"/>
<path opacity="0.1" d="M280.897 156.51C280.954 156.615 281.131 156.719 281.434 156.835C281.263 156.714 281.084 156.605 280.897 156.51Z" fill="black"/>
<path d="M247.846 179.666C247.701 179.744 247.532 179.765 247.373 179.723C241.94 178.306 242.654 173.527 242.655 173.47C242.682 173.301 242.775 173.149 242.914 173.048C243.053 172.947 243.227 172.905 243.396 172.932C243.566 172.959 243.718 173.052 243.819 173.191C243.92 173.33 243.962 173.503 243.935 173.673C243.909 173.831 243.423 177.348 247.695 178.458C247.821 178.491 247.933 178.561 248.019 178.659C248.104 178.757 248.158 178.878 248.173 179.007C248.189 179.135 248.165 179.266 248.106 179.381C248.046 179.497 247.954 179.591 247.84 179.653L247.846 179.666Z" fill="#263238"/>
<path opacity="0.15" d="M268.756 219.04C263.789 218.856 258.873 217.97 254.154 216.409C250.676 215.277 247.367 213.681 244.317 211.663C246.633 208.314 251.431 206.084 260.348 210.553C263.927 212.49 266.852 215.444 268.756 219.04Z" fill="black"/>
<path d="M279.251 206.394C279.251 206.394 274.559 204.983 270.865 207.743C267.171 210.502 262.306 205.363 259.205 211.487C256.103 217.61 266.498 222.822 269.911 221.45C269.806 221.883 269.853 222.338 270.044 222.741C270.235 223.143 270.558 223.468 270.96 223.661C270.96 223.661 271.616 220.9 272.687 221.809C273.757 222.718 278.398 224.846 281.896 221.416C285.394 217.986 286.847 210.362 279.251 206.394Z" fill="#FFBE9D"/>
<path opacity="0.2" d="M279.251 206.394C279.251 206.394 274.559 204.983 270.865 207.743C267.171 210.502 262.306 205.363 259.205 211.487C256.103 217.61 266.498 222.822 269.911 221.45C269.806 221.883 269.853 222.338 270.044 222.741C270.235 223.143 270.558 223.468 270.96 223.661C270.96 223.661 271.616 220.9 272.687 221.809C273.757 222.718 278.398 224.846 281.896 221.416C285.394 217.986 286.847 210.362 279.251 206.394Z" fill="black"/>
<path d="M276.827 211.549C272.061 213.632 270.729 209.571 272.378 206.913C272.423 206.848 272.715 211.738 276.781 208.528C276.849 208.491 277.272 203.294 280.034 201.858C280.102 201.821 278.822 196.675 281.041 194.565C283.26 192.454 278.777 191.339 278.783 191.351C278.79 191.364 280.733 189.452 282.65 191.094C282.684 191.156 285.329 186.908 281.799 184.554C278.382 182.29 279.675 177.854 281.34 177.143C281.34 177.143 280.543 179.01 281.997 179.414C282.058 179.381 281.773 173.646 285.236 173.649C285.321 173.658 284.404 167.69 288.187 168.224C288.187 168.224 286.216 169.743 288.661 171.797C288.661 171.797 291.202 170.898 289.286 167.267C287.37 163.635 285.281 164.097 285.306 164.083C285.331 164.07 287.235 161.321 290.441 164.332C290.511 164.358 290.101 158.659 293.82 159.428C294.845 159.605 295.769 160.154 296.415 160.97C297.061 161.786 297.382 162.812 297.319 163.85C297.319 163.85 296.027 162.284 295.198 162.999C295.198 162.999 297.287 166.448 298.873 166.195C300.459 165.943 303.438 168.051 303.021 171.916C303.021 171.916 305.58 174.18 305.728 170.998C305.759 170.982 307.385 175.171 304.892 177.133C304.852 177.059 309.396 181.635 306.913 187.11C306.913 187.11 309.587 188.021 309.737 192.178C309.887 196.336 307.685 197.636 307.703 197.626C307.722 197.616 308.672 195.602 307.413 194.346C307.45 194.414 303.203 198.723 305.023 201.75C306.984 204.859 304.775 210.987 300.692 211.481C300.692 211.481 301.603 214.456 304.253 212.593C304.29 212.661 300.825 218.661 297.133 214.857C297.109 214.813 297.36 218.331 292.311 221.722C287.235 224.991 283.987 222.476 283.998 222.526C284.009 222.576 282.846 227.31 278.075 226.744C278.709 226.544 279.25 226.123 279.599 225.556C279.948 224.99 280.081 224.318 279.975 223.661C279.975 223.661 276.528 225.902 273.347 225.193C272.514 225.04 271.771 224.575 271.27 223.891C270.769 223.208 270.549 222.359 270.654 221.519C270.654 221.519 268.11 223.133 268.83 224.505C268.83 224.505 266.988 222.869 269.098 220.409C269.098 220.409 266.506 220.535 267.138 218.348C267.77 216.162 270.695 216.753 270.71 216.737C270.725 216.721 270.607 215.455 268.489 215.067C268.489 215.067 270.264 213.053 273.36 214.697C273.36 214.697 273.026 214.598 274.052 213.36C274.82 212.544 275.771 211.923 276.827 211.549Z" fill="#FFBE9D"/>
<path opacity="0.4" d="M297.315 163.844C297.315 163.844 296.024 162.278 295.194 162.993C295.194 162.993 297.284 166.441 298.869 166.189C300.455 165.937 303.435 168.045 303.017 171.909C303.017 171.909 305.577 174.173 305.724 170.992C305.755 170.975 307.381 175.165 304.889 177.127C304.849 177.053 309.393 181.628 306.909 187.104C306.909 187.104 309.584 188.015 309.734 192.172C309.884 196.33 307.682 197.63 307.7 197.62C307.719 197.61 308.668 195.596 307.41 194.34C307.446 194.408 303.2 198.717 305.02 201.744C306.981 204.853 304.771 210.981 300.689 211.475C300.689 211.475 301.599 214.45 304.249 212.587C304.286 212.655 300.822 218.655 297.129 214.85C297.106 214.807 297.357 218.324 292.308 221.716C287.232 224.985 283.983 222.47 283.994 222.52C284.006 222.57 282.842 227.304 278.072 226.738C278.706 226.538 279.247 226.116 279.596 225.55C279.945 224.984 280.078 224.311 279.971 223.655C279.971 223.655 276.525 225.895 273.343 225.187C272.51 225.034 271.767 224.568 271.267 223.885C270.766 223.202 270.546 222.353 270.651 221.513C270.651 221.513 268.106 223.127 268.827 224.499C268.827 224.499 266.985 222.863 269.095 220.403C269.095 220.403 266.503 220.528 267.134 218.342C267.766 216.156 270.691 216.747 270.707 216.731C270.722 216.715 270.603 215.449 268.485 215.061C268.485 215.061 270.261 213.047 273.357 214.691C273.357 214.691 273.023 214.592 274.049 213.354C274.734 212.61 275.583 212.036 276.529 211.678C272.047 213.415 270.809 209.512 272.419 206.915C272.464 206.85 272.756 211.74 276.822 208.53C276.89 208.493 277.313 203.296 280.075 201.86C280.143 201.823 278.863 196.677 281.082 194.566C283.301 192.456 278.818 191.341 278.824 191.353C278.831 191.366 280.774 189.453 282.691 191.096C282.725 191.158 285.37 186.909 281.843 184.562C278.423 182.292 279.716 177.856 281.381 177.144C281.381 177.144 280.584 179.011 282.038 179.416C282.1 179.382 281.814 173.648 285.277 173.651C285.362 173.66 284.445 167.692 288.228 168.226C288.228 168.226 286.257 169.745 288.702 171.798C288.702 171.798 291.243 170.9 289.327 167.268C287.411 163.637 285.322 164.099 285.347 164.085C285.372 164.072 287.276 161.323 290.482 164.334C290.552 164.36 290.142 158.661 293.861 159.43C294.877 159.616 295.789 160.168 296.425 160.982C297.062 161.795 297.379 162.813 297.315 163.844Z" fill="black"/>
<path d="M260.368 210.574C260.368 210.574 269.952 217.157 265.585 221.908C261.218 226.659 243.943 222.13 245.539 214.092C247.136 206.053 255.456 205.822 260.368 210.574Z" fill="#FFBE9D"/>
<path opacity="0.15" d="M186.769 179.083C184.319 179.208 181.864 179.041 179.454 178.584C182.529 178.286 185.559 177.631 188.482 176.631C189.976 176.114 191.442 175.519 192.873 174.847C192.938 174.435 193.028 174.01 193.127 173.587C193.452 172.192 193.953 170.843 194.617 169.573C197.848 163.379 202.845 158.342 208.186 154.352C211.662 151.776 215.352 149.503 219.218 147.56C219.164 148.495 219.074 149.361 218.962 150.143C218.514 153.321 217.486 156.389 215.928 159.194L217.597 160.364C218.81 161.211 220.019 162.061 221.224 162.913L222.567 163.85C223.109 164.229 223.667 164.607 224.222 164.979C221.091 168.746 218.098 172.663 217.019 175.044C214.405 180.766 230.782 193.011 230.762 199.024C230.742 205.036 217.995 211.045 217.995 211.045C217.995 211.045 193.288 195.206 192.659 178.2C191.813 178.427 190.978 178.601 190.157 178.758C189.035 178.928 187.903 179.037 186.769 179.083Z" fill="black"/>
<path d="M226.999 156.636C225.693 156.418 224.459 155.891 223.399 155.097L222.054 154.097C223.577 147.885 229.793 142.29 229.793 142.29L231.387 140.503C231.702 140.126 232.089 139.814 232.525 139.587C232.961 139.359 233.438 139.22 233.928 139.178C234.417 139.135 234.911 139.19 235.38 139.338C235.848 139.487 236.283 139.727 236.659 140.044L240.243 143.162C240.859 143.721 241.299 144.448 241.509 145.254C241.718 146.059 241.689 146.908 241.424 147.697L240.262 151.357C240.046 152.037 239.671 152.655 239.168 153.161C238.665 153.667 238.049 154.046 237.37 154.265L230.93 156.336C229.664 156.754 228.314 156.857 226.999 156.636Z" fill="#FFBE9D"/>
<path d="M230.408 213.334C217.595 219.338 192.768 188.286 195.707 173.572C198.647 158.859 229.171 144.655 229.171 144.655L235.462 151.519C235.462 151.519 213.62 171.794 213.783 174.75C214.008 178.234 227.621 193.814 231.526 197.583C239.185 204.986 236.153 210.647 230.408 213.334Z" fill="#FFBE9D"/>
<path d="M404.26 96.9069C402.793 96.3699 401.246 96.0842 399.684 96.0619C398.193 95.9479 397.728 95.6536 397.443 95.3308C396.022 93.285 393.945 91.7852 391.556 91.0792C389.167 90.3731 386.608 90.5031 384.303 91.4476C383.43 87.8967 379.129 84.8015 374.4 85.8554C374.562 81.2317 368.704 76.2756 363.368 75.1458C358.288 74.0634 353.874 74.5191 350.959 77.8611C347.854 71.7942 335.692 70.0852 329.122 73.2944C325.324 75.1363 322.124 77.0351 320.577 80.5006C319.542 82.646 319.053 85.0137 319.153 87.3935C316.589 85.1338 311.453 84.5452 308.025 85.8459C304.332 87.2796 304.047 90.0614 303.867 92.8908C301.676 92.2535 299.355 92.2142 297.145 92.7768C294.809 93.4604 293.47 95.2928 293.793 96.7645C291.951 96.66 287.565 98.1506 288.097 100.097C288.666 102.281 293.67 102.062 295.54 101.996C297.305 101.858 299.057 101.585 300.781 101.179C301.653 101.505 302.575 101.678 303.506 101.692C306.696 101.692 308.044 100.306 308.557 99.1191C310.114 102.395 315.659 104.892 319.57 105.898C326.948 107.797 337.382 106.629 341.93 101.151C342.463 102.189 343.211 103.101 344.123 103.828C346.079 105.397 348.453 106.358 350.949 106.591C353.978 106.876 362.105 107.265 364.393 102.442C366.017 105.651 373.252 107.104 378.758 106.325C380.892 105.99 382.967 105.35 384.92 104.426C386.141 103.787 387.324 103.077 388.462 102.3C389.544 101.654 390.038 101.664 391.481 102.1C395.279 103.23 399.646 103.695 403.501 102.1C406.51 100.79 407.147 98.2171 404.26 96.9069Z" fill="white"/>
<path d="M130.081 110.778C128.745 110.278 127.331 110.018 125.904 110.009C124.546 109.895 124.119 109.629 123.863 109.335C122.564 107.47 120.669 106.102 118.489 105.458C116.309 104.815 113.975 104.933 111.871 105.794C111.074 102.556 107.124 99.7362 102.833 100.686C102.985 96.4701 97.6012 91.9508 92.7686 90.9159C88.1353 89.9664 84.0907 90.3462 81.4513 93.3939C78.6029 87.8682 67.523 86.3111 61.513 89.2354C58.0666 90.9159 55.1328 92.6439 53.6992 95.8055C52.7571 97.7657 52.3105 99.9272 52.3984 102.1C50.0628 100.03 45.3726 99.4798 42.2489 100.686C38.8784 101.986 38.6221 104.483 38.4512 107.113C36.4525 106.535 34.3366 106.496 32.3178 106.999C30.2006 107.635 28.9758 109.297 29.2606 110.645C27.5801 110.55 23.564 111.908 24.0387 113.683C24.5609 115.677 29.0992 115.459 30.8367 115.459C32.4357 115.329 34.0226 115.078 35.5839 114.709C36.3807 115.005 37.2215 115.166 38.0714 115.184C40.9862 115.184 42.211 113.911 42.6857 112.829C44.1003 115.82 49.1609 118.098 52.7307 119.01C59.4812 120.69 68.9756 119.636 73.1532 114.604C73.6399 115.554 74.3227 116.389 75.1565 117.054C76.9405 118.486 79.1067 119.361 81.3848 119.57C84.1477 119.836 91.5628 120.187 93.6515 115.772C95.1327 118.696 101.731 120.026 106.754 119.314C108.699 119.019 110.592 118.447 112.374 117.614C113.489 117.043 114.57 116.409 115.612 115.715C116.561 115.117 117.046 115.127 118.365 115.525C121.812 116.56 125.809 116.987 129.322 115.525C132.132 114.32 132.711 111.965 130.081 110.778Z" fill="white"/>
<path d="M379.11 151.167C378.198 150.828 377.234 150.651 376.261 150.645C375.312 150.569 375.046 150.389 374.866 150.18C373.98 148.909 372.688 147.977 371.202 147.539C369.716 147.101 368.125 147.182 366.691 147.768C366.289 146.52 365.432 145.468 364.291 144.823C363.149 144.177 361.806 143.985 360.529 144.284C360.624 141.436 356.959 138.321 353.655 137.638C350.494 136.964 347.74 137.249 345.936 139.328C344.037 135.53 336.442 134.495 332.331 136.479C329.976 137.628 327.982 138.806 327.004 140.961C326.36 142.297 326.054 143.77 326.112 145.252C324.517 143.847 321.317 143.467 319.191 144.303C316.893 145.186 316.713 146.923 316.599 148.689C315.234 148.295 313.789 148.269 312.412 148.613C310.968 149.041 310.133 150.18 310.332 151.101C309.183 151.034 306.459 151.955 306.772 153.171C307.123 154.528 310.237 154.386 311.405 154.348C312.502 154.259 313.591 154.087 314.662 153.835C315.205 154.04 315.78 154.149 316.361 154.158C318.346 154.158 319.21 153.294 319.504 152.553C320.453 154.595 323.919 156.152 326.359 156.769C330.954 157.946 337.448 157.234 340.278 153.797C340.608 154.446 341.074 155.016 341.645 155.468C342.86 156.445 344.336 157.043 345.889 157.187C347.788 157.367 352.829 157.604 354.263 154.604C355.269 156.598 359.77 157.51 363.197 157.025C364.511 156.818 365.789 156.429 366.995 155.867C367.756 155.47 368.492 155.027 369.197 154.538C369.473 154.346 369.795 154.234 370.13 154.212C370.464 154.19 370.799 154.26 371.096 154.414C373.516 155.274 376.158 155.274 378.578 154.414C380.505 153.588 380.904 151.984 379.11 151.167Z" fill="white"/>
<path opacity="0.8" d="M404.26 96.9069C402.793 96.3699 401.246 96.0842 399.684 96.0619C398.193 95.9479 397.728 95.6536 397.443 95.3308C396.022 93.285 393.945 91.7852 391.556 91.0792C389.167 90.3731 386.608 90.5031 384.303 91.4476C383.43 87.8967 379.129 84.8015 374.4 85.8554C374.562 81.2317 368.704 76.2756 363.368 75.1458C358.288 74.0634 353.874 74.5191 350.959 77.8611C347.854 71.7942 335.692 70.0852 329.122 73.2944C325.324 75.1363 322.124 77.0351 320.577 80.5006C319.542 82.646 319.053 85.0137 319.153 87.3935C316.589 85.1338 311.453 84.5452 308.025 85.8459C304.332 87.2796 304.047 90.0614 303.867 92.8908C301.676 92.2535 299.355 92.2142 297.145 92.7768C294.809 93.4604 293.47 95.2928 293.793 96.7645C291.951 96.66 287.565 98.1506 288.097 100.097C288.666 102.281 293.67 102.062 295.54 101.996C297.305 101.858 299.057 101.585 300.781 101.179C301.653 101.505 302.575 101.678 303.506 101.692C306.696 101.692 308.044 100.306 308.557 99.1191C310.114 102.395 315.659 104.892 319.57 105.898C326.948 107.797 337.382 106.629 341.93 101.151C342.463 102.189 343.211 103.101 344.123 103.828C346.079 105.397 348.453 106.358 350.949 106.591C353.978 106.876 362.105 107.265 364.393 102.442C366.017 105.651 373.252 107.104 378.758 106.325C380.892 105.99 382.967 105.35 384.92 104.426C386.141 103.787 387.324 103.077 388.462 102.3C389.544 101.654 390.038 101.664 391.481 102.1C395.279 103.23 399.646 103.695 403.501 102.1C406.51 100.79 407.147 98.2171 404.26 96.9069Z" fill="white"/>
<path opacity="0.8" d="M130.081 110.778C128.745 110.278 127.331 110.018 125.904 110.009C124.546 109.895 124.119 109.629 123.863 109.335C122.564 107.47 120.669 106.102 118.489 105.458C116.309 104.815 113.975 104.933 111.871 105.794C111.074 102.556 107.124 99.7362 102.833 100.686C102.985 96.4701 97.6012 91.9508 92.7686 90.9159C88.1353 89.9664 84.0907 90.3462 81.4513 93.3939C78.6029 87.8682 67.523 86.3111 61.513 89.2354C58.0666 90.9159 55.1328 92.6439 53.6992 95.8055C52.7571 97.7657 52.3105 99.9272 52.3984 102.1C50.0628 100.03 45.3726 99.4798 42.2489 100.686C38.8784 101.986 38.6221 104.483 38.4512 107.113C36.4525 106.535 34.3366 106.496 32.3178 106.999C30.2006 107.635 28.9758 109.297 29.2606 110.645C27.5801 110.55 23.564 111.908 24.0387 113.683C24.5609 115.677 29.0992 115.459 30.8367 115.459C32.4357 115.329 34.0226 115.078 35.5839 114.709C36.3807 115.005 37.2215 115.166 38.0714 115.184C40.9862 115.184 42.211 113.911 42.6857 112.829C44.1003 115.82 49.1609 118.098 52.7307 119.01C59.4812 120.69 68.9756 119.636 73.1532 114.604C73.6399 115.554 74.3227 116.389 75.1565 117.054C76.9405 118.486 79.1067 119.361 81.3848 119.57C84.1477 119.836 91.5628 120.187 93.6515 115.772C95.1327 118.696 101.731 120.026 106.754 119.314C108.699 119.019 110.592 118.447 112.374 117.614C113.489 117.043 114.57 116.409 115.612 115.715C116.561 115.117 117.046 115.127 118.365 115.525C121.812 116.56 125.809 116.987 129.322 115.525C132.132 114.32 132.711 111.965 130.081 110.778Z" fill="white"/>
<path opacity="0.8" d="M379.11 151.167C378.198 150.828 377.234 150.651 376.261 150.645C375.312 150.569 375.046 150.389 374.866 150.18C373.98 148.909 372.688 147.977 371.202 147.539C369.716 147.101 368.125 147.182 366.691 147.768C366.289 146.52 365.432 145.468 364.291 144.823C363.149 144.177 361.806 143.985 360.529 144.284C360.624 141.436 356.959 138.321 353.655 137.638C350.494 136.964 347.74 137.249 345.936 139.328C344.037 135.53 336.442 134.495 332.331 136.479C329.976 137.628 327.982 138.806 327.004 140.961C326.36 142.297 326.054 143.77 326.112 145.252C324.517 143.847 321.317 143.467 319.191 144.303C316.893 145.186 316.713 146.923 316.599 148.689C315.234 148.295 313.789 148.269 312.412 148.613C310.968 149.041 310.133 150.18 310.332 151.101C309.183 151.034 306.459 151.955 306.772 153.171C307.123 154.528 310.237 154.386 311.405 154.348C312.502 154.259 313.591 154.087 314.662 153.835C315.205 154.04 315.78 154.149 316.361 154.158C318.346 154.158 319.21 153.294 319.504 152.553C320.453 154.595 323.919 156.152 326.359 156.769C330.954 157.946 337.448 157.234 340.278 153.797C340.608 154.446 341.074 155.016 341.645 155.468C342.86 156.445 344.336 157.043 345.889 157.187C347.788 157.367 352.829 157.604 354.263 154.604C355.269 156.598 359.77 157.51 363.197 157.025C364.511 156.818 365.789 156.429 366.995 155.867C367.756 155.47 368.492 155.027 369.197 154.538C369.473 154.346 369.795 154.234 370.13 154.212C370.464 154.19 370.799 154.26 371.096 154.414C373.516 155.274 376.158 155.274 378.578 154.414C380.505 153.588 380.904 151.984 379.11 151.167Z" fill="white"/>
</g>
<defs>
<linearGradient id="paint0_linear_253_8515" x1="215" y1="0" x2="215" y2="246.806" gradientUnits="userSpaceOnUse">
<stop stop-color="#90CAF9"/>
<stop offset="1" stop-color="#FAFAFA" stop-opacity="0"/>
</linearGradient>
<clipPath id="clip0_253_8515">
<rect width="430" height="246.806" fill="white"/>
</clipPath>
</defs>
</svg>
