<svg width="430" height="384" viewBox="0 0 430 384" fill="none" xmlns="http://www.w3.org/2000/svg">
<rect width="430" height="384" fill="url(#paint0_linear_493_4143)"/>
<path d="M404.26 96.9069C402.793 96.3699 401.246 96.0842 399.684 96.0619C398.193 95.9479 397.728 95.6536 397.443 95.3308C396.022 93.285 393.945 91.7852 391.556 91.0792C389.167 90.3731 386.608 90.5031 384.303 91.4476C383.43 87.8967 379.129 84.8015 374.4 85.8554C374.562 81.2317 368.704 76.2756 363.368 75.1458C358.288 74.0634 353.874 74.5191 350.959 77.8611C347.854 71.7942 335.692 70.0852 329.122 73.2944C325.324 75.1363 322.124 77.0351 320.577 80.5006C319.542 82.646 319.053 85.0137 319.153 87.3935C316.589 85.1338 311.453 84.5452 308.025 85.8459C304.332 87.2796 304.047 90.0614 303.867 92.8908C301.676 92.2535 299.355 92.2142 297.145 92.7768C294.809 93.4604 293.47 95.2928 293.793 96.7645C291.951 96.66 287.565 98.1506 288.096 100.097C288.666 102.281 293.67 102.062 295.54 101.996C297.305 101.858 299.057 101.585 300.781 101.179C301.653 101.505 302.575 101.678 303.506 101.692C306.696 101.692 308.044 100.306 308.557 99.1191C310.114 102.395 315.659 104.892 319.57 105.898C326.948 107.797 337.382 106.629 341.93 101.151C342.463 102.189 343.21 103.101 344.123 103.828C346.079 105.397 348.453 106.358 350.949 106.591C353.978 106.876 362.105 107.265 364.393 102.442C366.017 105.651 373.252 107.104 378.758 106.325C380.892 105.99 382.967 105.35 384.92 104.426C386.141 103.787 387.324 103.077 388.462 102.3C389.544 101.654 390.038 101.664 391.481 102.1C395.279 103.23 399.646 103.695 403.501 102.1C406.51 100.79 407.147 98.2171 404.26 96.9069Z" fill="white"/>
<path d="M130.081 110.778C128.745 110.278 127.331 110.018 125.904 110.009C124.546 109.895 124.119 109.629 123.863 109.335C122.564 107.47 120.669 106.102 118.489 105.458C116.309 104.815 113.975 104.933 111.871 105.794C111.074 102.556 107.124 99.7362 102.833 100.686C102.985 96.4701 97.6012 91.9508 92.7686 90.9159C88.1353 89.9664 84.0907 90.3462 81.4513 93.3939C78.6029 87.8682 67.523 86.3111 61.513 89.2354C58.0666 90.9159 55.1328 92.6439 53.6992 95.8055C52.7571 97.7657 52.3105 99.9272 52.3984 102.1C50.0628 100.03 45.3726 99.4798 42.2489 100.686C38.8784 101.986 38.6221 104.483 38.4512 107.113C36.4525 106.535 34.3366 106.496 32.3178 106.999C30.2006 107.635 28.9758 109.297 29.2606 110.645C27.5801 110.55 23.564 111.908 24.0387 113.683C24.5609 115.677 29.0992 115.459 30.8367 115.459C32.4357 115.329 34.0226 115.078 35.5839 114.709C36.3807 115.005 37.2215 115.166 38.0714 115.184C40.9862 115.184 42.211 113.911 42.6857 112.829C44.1003 115.82 49.1609 118.098 52.7307 119.01C59.4812 120.69 68.9756 119.636 73.1532 114.604C73.6399 115.554 74.3227 116.389 75.1565 117.054C76.9405 118.486 79.1067 119.361 81.3848 119.57C84.1477 119.836 91.5628 120.187 93.6515 115.772C95.1327 118.696 101.731 120.026 106.754 119.314C108.699 119.019 110.592 118.447 112.374 117.614C113.489 117.043 114.57 116.409 115.612 115.715C116.561 115.117 117.046 115.127 118.365 115.525C121.812 116.56 125.809 116.987 129.322 115.525C132.132 114.32 132.711 111.965 130.081 110.778Z" fill="white"/>
<path d="M379.11 151.167C378.198 150.828 377.234 150.651 376.261 150.645C375.312 150.569 375.046 150.389 374.866 150.18C373.98 148.909 372.688 147.977 371.202 147.539C369.716 147.101 368.125 147.181 366.691 147.768C366.289 146.52 365.432 145.468 364.291 144.823C363.149 144.177 361.806 143.985 360.529 144.284C360.624 141.435 356.959 138.321 353.655 137.638C350.493 136.964 347.74 137.248 345.936 139.328C344.037 135.53 336.442 134.495 332.331 136.479C329.976 137.628 327.982 138.805 327.004 140.961C326.36 142.297 326.054 143.77 326.112 145.252C324.517 143.847 321.317 143.467 319.191 144.303C316.893 145.186 316.712 146.923 316.599 148.689C315.234 148.295 313.789 148.269 312.412 148.613C310.968 149.04 310.133 150.18 310.332 151.101C309.183 151.034 306.459 151.955 306.772 153.17C307.123 154.528 310.237 154.386 311.405 154.348C312.502 154.259 313.591 154.087 314.662 153.835C315.205 154.039 315.78 154.149 316.361 154.158C318.346 154.158 319.209 153.294 319.504 152.553C320.453 154.595 323.919 156.152 326.359 156.769C330.954 157.946 337.448 157.234 340.278 153.797C340.608 154.446 341.074 155.016 341.645 155.468C342.86 156.445 344.336 157.043 345.889 157.187C347.788 157.367 352.829 157.604 354.263 154.604C355.269 156.598 359.77 157.509 363.197 157.025C364.511 156.818 365.789 156.428 366.995 155.867C367.756 155.47 368.492 155.026 369.197 154.538C369.473 154.346 369.795 154.234 370.13 154.212C370.464 154.19 370.799 154.26 371.096 154.414C373.516 155.274 376.158 155.274 378.578 154.414C380.505 153.588 380.904 151.984 379.11 151.167Z" fill="white"/>
<path opacity="0.8" d="M404.26 96.9069C402.793 96.3699 401.246 96.0842 399.684 96.0619C398.193 95.9479 397.728 95.6536 397.443 95.3308C396.022 93.285 393.945 91.7852 391.556 91.0792C389.167 90.3731 386.608 90.5031 384.303 91.4476C383.43 87.8967 379.129 84.8015 374.4 85.8554C374.562 81.2317 368.704 76.2756 363.368 75.1458C358.288 74.0634 353.874 74.5191 350.959 77.8611C347.854 71.7942 335.692 70.0852 329.122 73.2944C325.324 75.1363 322.124 77.0351 320.577 80.5006C319.542 82.646 319.053 85.0137 319.153 87.3935C316.589 85.1338 311.453 84.5452 308.025 85.8459C304.332 87.2796 304.047 90.0614 303.867 92.8908C301.676 92.2535 299.355 92.2142 297.145 92.7768C294.809 93.4604 293.47 95.2928 293.793 96.7645C291.951 96.66 287.565 98.1506 288.096 100.097C288.666 102.281 293.67 102.062 295.54 101.996C297.305 101.858 299.057 101.585 300.781 101.179C301.653 101.505 302.575 101.678 303.506 101.692C306.696 101.692 308.044 100.306 308.557 99.1191C310.114 102.395 315.659 104.892 319.57 105.898C326.948 107.797 337.382 106.629 341.93 101.151C342.463 102.189 343.21 103.101 344.123 103.828C346.079 105.397 348.453 106.358 350.949 106.591C353.978 106.876 362.105 107.265 364.393 102.442C366.017 105.651 373.252 107.104 378.758 106.325C380.892 105.99 382.967 105.35 384.92 104.426C386.141 103.787 387.324 103.077 388.462 102.3C389.544 101.654 390.038 101.664 391.481 102.1C395.279 103.23 399.646 103.695 403.501 102.1C406.51 100.79 407.147 98.2171 404.26 96.9069Z" fill="white"/>
<path opacity="0.8" d="M130.081 110.778C128.745 110.278 127.331 110.018 125.904 110.009C124.546 109.895 124.119 109.629 123.863 109.335C122.564 107.47 120.669 106.102 118.489 105.458C116.309 104.815 113.975 104.933 111.871 105.794C111.074 102.556 107.124 99.7362 102.833 100.686C102.985 96.4701 97.6012 91.9508 92.7686 90.9159C88.1353 89.9664 84.0907 90.3462 81.4513 93.3939C78.6029 87.8682 67.523 86.3111 61.513 89.2354C58.0666 90.9159 55.1328 92.6439 53.6992 95.8055C52.7571 97.7657 52.3105 99.9272 52.3984 102.1C50.0628 100.03 45.3726 99.4798 42.2489 100.686C38.8784 101.986 38.6221 104.483 38.4512 107.113C36.4525 106.535 34.3366 106.496 32.3178 106.999C30.2006 107.635 28.9758 109.297 29.2606 110.645C27.5801 110.55 23.564 111.908 24.0387 113.683C24.5609 115.677 29.0992 115.459 30.8367 115.459C32.4357 115.329 34.0226 115.078 35.5839 114.709C36.3807 115.005 37.2215 115.166 38.0714 115.184C40.9862 115.184 42.211 113.911 42.6857 112.829C44.1003 115.82 49.1609 118.098 52.7307 119.01C59.4812 120.69 68.9756 119.636 73.1532 114.604C73.6399 115.554 74.3227 116.389 75.1565 117.054C76.9405 118.486 79.1067 119.361 81.3848 119.57C84.1477 119.836 91.5628 120.187 93.6515 115.772C95.1327 118.696 101.731 120.026 106.754 119.314C108.699 119.019 110.592 118.447 112.374 117.614C113.489 117.043 114.57 116.409 115.612 115.715C116.561 115.117 117.046 115.127 118.365 115.525C121.812 116.56 125.809 116.987 129.322 115.525C132.132 114.32 132.711 111.965 130.081 110.778Z" fill="white"/>
<path opacity="0.8" d="M379.11 151.167C378.198 150.828 377.234 150.651 376.261 150.645C375.312 150.569 375.046 150.389 374.866 150.18C373.98 148.909 372.688 147.977 371.202 147.539C369.716 147.101 368.125 147.181 366.691 147.768C366.289 146.52 365.432 145.468 364.291 144.823C363.149 144.177 361.806 143.985 360.529 144.284C360.624 141.435 356.959 138.321 353.655 137.638C350.493 136.964 347.74 137.248 345.936 139.328C344.037 135.53 336.442 134.495 332.331 136.479C329.976 137.628 327.982 138.805 327.004 140.961C326.36 142.297 326.054 143.77 326.112 145.252C324.517 143.847 321.317 143.467 319.191 144.303C316.893 145.186 316.712 146.923 316.599 148.689C315.234 148.295 313.789 148.269 312.412 148.613C310.968 149.04 310.133 150.18 310.332 151.101C309.183 151.034 306.459 151.955 306.772 153.17C307.123 154.528 310.237 154.386 311.405 154.348C312.502 154.259 313.591 154.087 314.662 153.835C315.205 154.039 315.78 154.149 316.361 154.158C318.346 154.158 319.209 153.294 319.504 152.553C320.453 154.595 323.919 156.152 326.359 156.769C330.954 157.946 337.448 157.234 340.278 153.797C340.608 154.446 341.074 155.016 341.645 155.468C342.86 156.445 344.336 157.043 345.889 157.187C347.788 157.367 352.829 157.604 354.263 154.604C355.269 156.598 359.77 157.509 363.197 157.025C364.511 156.818 365.789 156.428 366.995 155.867C367.756 155.47 368.492 155.026 369.197 154.538C369.473 154.346 369.795 154.234 370.13 154.212C370.464 154.19 370.799 154.26 371.096 154.414C373.516 155.274 376.158 155.274 378.578 154.414C380.505 153.588 380.904 151.984 379.11 151.167Z" fill="white"/>
<path d="M55.3421 287.51C55.52 288.755 52.1392 289.577 49.4109 290.052C49.6312 292.314 51.1055 294.593 53.2153 296.729C55.8335 295.263 59.5617 293.339 60.248 293.788C60.9343 294.238 57.1807 296.779 54.7913 298.228C56.4972 299.721 58.3065 301.092 60.2056 302.329C61.3749 301.236 62.7476 300.279 63.5949 300.796C64.4422 301.313 64.2134 303.033 63.7982 304.541C66.5859 306.185 68.7465 307.227 68.7465 307.227C69.5738 304.585 70.2081 301.886 70.6445 299.152C70.5005 298.864 70.3564 298.584 70.2293 298.305C69.7718 297.245 70.2293 296.796 70.9749 296.61C71.178 294.675 71.178 292.724 70.9749 290.789C67.7636 290.12 63.8491 288.866 65.3149 286.934C66.1622 285.773 67.8568 285.637 69.5006 285.934C69.2691 285.549 69.0025 285.186 68.7042 284.849C62.8492 278.393 58.7567 284.849 58.7567 284.849C55.3675 282.011 50.5717 282.782 49.538 287.213C51.4614 286.696 55.1218 285.968 55.3421 287.51Z" fill="#EC407A"/>
<path opacity="0.3" d="M55.3421 287.51C55.52 288.755 52.1392 289.577 49.4109 290.052C49.6312 292.314 51.1055 294.593 53.2153 296.729C55.8335 295.263 59.5617 293.339 60.248 293.788C60.9343 294.238 57.1807 296.779 54.7913 298.228C56.4972 299.721 58.3065 301.092 60.2056 302.329C61.3749 301.236 62.7476 300.279 63.5949 300.796C64.4422 301.313 64.2134 303.033 63.7982 304.541C66.5859 306.185 68.7465 307.227 68.7465 307.227C69.5738 304.585 70.2081 301.886 70.6445 299.152C70.5005 298.864 70.3564 298.584 70.2293 298.305C69.7718 297.245 70.2293 296.796 70.9749 296.61C71.178 294.675 71.178 292.724 70.9749 290.789C67.7636 290.12 63.8491 288.866 65.3149 286.934C66.1622 285.773 67.8568 285.637 69.5006 285.934C69.2691 285.549 69.0025 285.186 68.7042 284.849C62.8492 278.393 58.7567 284.849 58.7567 284.849C55.3675 282.011 50.5717 282.782 49.538 287.213C51.4614 286.696 55.1218 285.968 55.3421 287.51Z" fill="white"/>
<path d="M62.6459 334.942L61.7986 334.875C61.7986 334.442 65.2726 291.221 55.5709 287.146C55.1091 286.927 54.6024 286.82 54.0917 286.834C53.581 286.847 53.0806 286.98 52.6307 287.222C49.1229 289.044 47.4452 296.61 47.4282 296.686L46.5809 296.508C46.7165 296.212 48.4111 288.476 52.241 286.468C52.8023 286.171 53.4245 286.007 54.0593 285.99C54.6941 285.972 55.3244 286.101 55.9014 286.366C66.2046 290.67 62.8154 333.138 62.6459 334.942Z" fill="#EC407A"/>
<path d="M63.866 334.01C63.6966 332.061 59.7396 286.332 67.1451 281.477C68.916 280.316 70.5344 280.07 71.8477 280.748C75.3386 282.511 75.8046 289.992 75.8216 290.306L74.9743 290.357C74.9743 290.281 74.5252 283.045 71.4579 281.502C70.4073 280.977 69.1109 281.197 67.6027 282.189C60.6208 286.764 64.671 333.459 64.7133 333.934L63.866 334.01Z" fill="#EC407A"/>
<path d="M64.9845 337.73C64.9252 336.247 63.705 301.236 70.4496 298.169C71.0771 297.876 71.7611 297.724 72.4535 297.724C73.146 297.724 73.83 297.876 74.4574 298.169C79.0837 300.202 81.9392 308.82 82.0832 309.184L81.2359 309.447C81.2359 309.353 78.3805 300.813 74.1015 298.931C73.5827 298.685 73.0154 298.556 72.4408 298.556C71.8662 298.556 71.2989 298.685 70.7801 298.931C65.6115 301.279 65.442 327.698 65.8148 337.687L64.9845 337.73Z" fill="#EC407A"/>
<path d="M63.2644 336.103L62.4171 336.01C63.6033 325.588 65.8741 297.83 62.1629 294.492C61.9821 294.276 61.7427 294.117 61.4735 294.034C61.2044 293.952 60.917 293.949 60.6462 294.026C58.1636 294.975 56.6469 304.007 56.2741 307.405L55.4268 307.312C55.5623 306.007 56.918 294.543 60.3327 293.229C60.7489 293.091 61.1963 293.077 61.6205 293.188C62.0448 293.299 62.4275 293.531 62.7221 293.856C67.5348 298.161 63.4423 334.561 63.2644 336.103Z" fill="#EC407A"/>
<path d="M49.1312 316.352H79.5666L77.0247 350.457H51.6732L49.1312 316.352Z" fill="#263238"/>
<path d="M53.2746 303.837C52.9611 304.685 50.5971 304.015 48.733 303.354C48.0975 304.829 48.2416 306.744 48.7923 308.786C50.9106 308.786 53.8762 308.854 54.1388 309.379C54.4015 309.904 51.2241 310.167 49.2499 310.226C49.7931 311.731 50.4386 313.198 51.1817 314.615C52.2832 314.344 53.461 314.217 53.783 314.819C54.1049 315.42 53.4017 316.412 52.6222 317.2C53.8084 319.199 54.7743 320.546 54.7743 320.546C56.1897 319.199 57.5064 317.752 58.7143 316.217C58.7143 315.996 58.7143 315.768 58.7143 315.539C58.7991 314.691 59.2227 314.607 59.7396 314.768C60.5398 313.654 61.2187 312.458 61.7646 311.201C60.0107 309.675 58.028 307.566 59.5955 306.879C60.536 306.464 61.5782 306.939 62.5187 307.727C62.5137 307.41 62.474 307.094 62.4001 306.786C61.0021 300.796 56.2656 303.397 56.2656 303.397C55.1387 300.482 51.9274 299.313 49.7667 301.702C51.1563 302.016 53.6643 302.821 53.2746 303.837Z" fill="#EC407A"/>
<path opacity="0.3" d="M53.2746 303.837C52.9611 304.685 50.5971 304.015 48.733 303.354C48.0975 304.829 48.2416 306.744 48.7923 308.786C50.9106 308.786 53.8762 308.854 54.1388 309.379C54.4015 309.904 51.2241 310.167 49.2499 310.226C49.7931 311.731 50.4386 313.198 51.1817 314.615C52.2832 314.344 53.461 314.217 53.783 314.819C54.1049 315.42 53.4017 316.412 52.6222 317.2C53.8084 319.199 54.7743 320.546 54.7743 320.546C56.1897 319.199 57.5064 317.752 58.7143 316.217C58.7143 315.996 58.7143 315.768 58.7143 315.539C58.7991 314.691 59.2227 314.607 59.7396 314.768C60.5398 313.654 61.2187 312.458 61.7646 311.201C60.0107 309.675 58.028 307.566 59.5955 306.879C60.536 306.464 61.5782 306.939 62.5187 307.727C62.5137 307.41 62.474 307.094 62.4001 306.786C61.0021 300.796 56.2656 303.397 56.2656 303.397C55.1387 300.482 51.9274 299.313 49.7667 301.702C51.1563 302.016 53.6643 302.821 53.2746 303.837Z" fill="white"/>
<path d="M75.8809 307.888C74.9322 307.974 73.9968 308.171 73.0932 308.472C72.8518 307.829 72.7145 307.151 72.6865 306.464C72.4916 300.321 76.9231 302.914 79.2108 301.109C79.7357 300.645 80.3526 300.296 81.0212 300.086C81.6898 299.876 82.3952 299.808 83.0915 299.889C82.8945 300.228 82.719 300.579 82.5662 300.94C82.5122 301.074 82.4893 301.219 82.4991 301.364C82.5089 301.509 82.5512 301.65 82.6228 301.776C82.6944 301.902 82.7936 302.01 82.9128 302.093C83.0321 302.176 83.1685 302.23 83.3118 302.253C83.8841 302.362 84.4761 302.291 85.0064 302.05C85.1598 301.958 85.307 301.856 85.447 301.745C85.8207 302.387 86.1058 303.077 86.2943 303.795C86.5285 304.652 86.6621 305.534 86.6926 306.422C86.3453 306.497 86.0029 306.593 85.6673 306.71C85.5331 306.766 85.4136 306.853 85.3182 306.963C85.2227 307.073 85.1539 307.204 85.1171 307.344C85.0802 307.485 85.0763 307.633 85.1056 307.776C85.1349 307.918 85.1966 308.052 85.286 308.167C85.6476 308.536 86.0723 308.838 86.54 309.057C86.3834 310.041 86.125 311.007 85.769 311.938L85.4555 311.98C85.2352 312.031 85.0149 312.082 84.7946 312.15C84.6683 312.181 84.5461 312.226 84.4302 312.285C84.2766 312.349 84.1422 312.451 84.0407 312.583C83.9391 312.714 83.8739 312.87 83.8516 313.035C83.8293 313.2 83.8507 313.368 83.9135 313.521C83.9764 313.675 84.0786 313.81 84.2099 313.912C84.3555 314.016 84.5084 314.11 84.6675 314.192C84.0864 315.21 83.2477 316.057 82.2357 316.649C81.3641 316.241 80.5155 315.785 79.6938 315.285C79.8802 315.039 80.0581 314.793 80.2361 314.539C80.4313 314.257 80.5212 313.915 80.4903 313.573C80.4444 313.237 80.2678 312.932 79.9988 312.726C79.7257 312.514 79.3795 312.418 79.0364 312.461C78.6932 312.504 78.3811 312.682 78.1686 312.955C77.9653 313.26 77.7365 313.548 77.5162 313.802C76.3438 312.94 75.2947 311.923 74.3981 310.777H74.4913C75.0459 310.628 75.6133 310.532 76.1859 310.489C76.5297 310.445 76.8421 310.266 77.0542 309.992C77.2663 309.718 77.3609 309.371 77.3171 309.027C77.2732 308.683 77.0946 308.371 76.8205 308.159C76.5464 307.947 76.1993 307.852 75.8555 307.896L75.8809 307.888Z" fill="#EC407A"/>
<path opacity="0.5" d="M75.8809 307.888C74.9322 307.974 73.9968 308.171 73.0932 308.472C72.8518 307.829 72.7145 307.151 72.6865 306.464C72.4916 300.321 76.9231 302.914 79.2108 301.109C79.7357 300.645 80.3526 300.296 81.0212 300.086C81.6898 299.876 82.3952 299.808 83.0915 299.889C82.8945 300.228 82.719 300.579 82.5662 300.94C82.5122 301.074 82.4893 301.219 82.4991 301.364C82.5089 301.509 82.5512 301.65 82.6228 301.776C82.6944 301.902 82.7936 302.01 82.9128 302.093C83.0321 302.176 83.1685 302.23 83.3118 302.253C83.8841 302.362 84.4761 302.291 85.0064 302.05C85.1598 301.958 85.307 301.856 85.447 301.745C85.8207 302.387 86.1058 303.077 86.2943 303.795C86.5285 304.652 86.6621 305.534 86.6926 306.422C86.3453 306.497 86.0029 306.593 85.6673 306.71C85.5331 306.766 85.4136 306.853 85.3182 306.963C85.2227 307.073 85.1539 307.204 85.1171 307.344C85.0802 307.485 85.0763 307.633 85.1056 307.776C85.1349 307.918 85.1966 308.052 85.286 308.167C85.6476 308.536 86.0723 308.838 86.54 309.057C86.3834 310.041 86.125 311.007 85.769 311.938L85.4555 311.98C85.2352 312.031 85.0149 312.082 84.7946 312.15C84.6683 312.181 84.5461 312.226 84.4302 312.285C84.2766 312.349 84.1422 312.451 84.0407 312.583C83.9391 312.714 83.8739 312.87 83.8516 313.035C83.8293 313.2 83.8507 313.368 83.9135 313.521C83.9764 313.675 84.0786 313.81 84.2099 313.912C84.3555 314.016 84.5084 314.11 84.6675 314.192C84.0864 315.21 83.2477 316.057 82.2357 316.649C81.3641 316.241 80.5155 315.785 79.6938 315.285C79.8802 315.039 80.0581 314.793 80.2361 314.539C80.4313 314.257 80.5212 313.915 80.4903 313.573C80.4444 313.237 80.2678 312.932 79.9988 312.726C79.7257 312.514 79.3795 312.418 79.0364 312.461C78.6932 312.504 78.3811 312.682 78.1686 312.955C77.9653 313.26 77.7365 313.548 77.5162 313.802C76.3438 312.94 75.2947 311.923 74.3981 310.777H74.4913C75.0459 310.628 75.6133 310.532 76.1859 310.489C76.5297 310.445 76.8421 310.266 77.0542 309.992C77.2663 309.718 77.3609 309.371 77.3171 309.027C77.2732 308.683 77.0946 308.371 76.8205 308.159C76.5464 307.947 76.1993 307.852 75.8555 307.896L75.8809 307.888Z" fill="white"/>
<path d="M77.6349 286.722C78.1627 286.353 78.7313 286.046 79.3295 285.807C79.1726 285.362 78.9467 284.944 78.6601 284.57C76.0673 281.265 74.8896 284.57 72.8815 284.62C72.4066 284.61 71.9349 284.7 71.497 284.884C71.0591 285.068 70.6648 285.342 70.3395 285.688C70.5925 285.778 70.8388 285.885 71.0767 286.01C71.1643 286.057 71.2401 286.123 71.2987 286.203C71.3572 286.283 71.3969 286.376 71.4148 286.473C71.4327 286.571 71.4284 286.672 71.4021 286.767C71.3759 286.863 71.3283 286.952 71.2631 287.027C71.0086 287.344 70.6577 287.57 70.2633 287.671C70.1422 287.684 70.02 287.684 69.8989 287.671C69.9841 288.172 70.1381 288.66 70.3565 289.12C70.6059 289.684 70.9186 290.219 71.2885 290.713C71.5005 290.594 71.7215 290.492 71.9494 290.408C72.0454 290.379 72.1465 290.373 72.2452 290.389C72.3439 290.406 72.4376 290.445 72.5192 290.502C72.6008 290.56 72.6682 290.636 72.7163 290.724C72.7643 290.812 72.7918 290.909 72.7967 291.009C72.7648 291.365 72.6701 291.712 72.5171 292.034C73.042 292.479 73.6096 292.871 74.2117 293.204L74.3981 293.094C74.5351 293.017 74.6766 292.949 74.8218 292.89C74.9001 292.85 74.9825 292.819 75.0675 292.797C75.175 292.765 75.2888 292.761 75.3983 292.785C75.5079 292.808 75.6097 292.859 75.6945 292.933C75.781 293.01 75.8455 293.108 75.8812 293.218C75.917 293.329 75.9227 293.446 75.8979 293.56C75.8673 293.678 75.8276 293.794 75.7793 293.907C76.5315 294.186 77.3439 294.262 78.1348 294.127C78.4231 293.526 78.6777 292.909 78.8974 292.28L78.2873 292.119C78.0591 292.063 77.8598 291.924 77.7281 291.729C77.662 291.631 77.6173 291.52 77.5969 291.403C77.5764 291.286 77.5807 291.167 77.6095 291.052C77.6608 290.821 77.8009 290.62 77.9992 290.492C78.1991 290.369 78.4385 290.327 78.6686 290.374C78.9143 290.45 79.1516 290.501 79.3973 290.552C79.635 289.585 79.7404 288.59 79.7108 287.594H79.643C79.2811 287.767 78.9351 287.971 78.6093 288.205C78.5102 288.267 78.3998 288.31 78.2843 288.33C78.1687 288.351 78.0503 288.348 77.9358 288.322C77.8214 288.297 77.713 288.249 77.617 288.181C77.5211 288.114 77.4393 288.028 77.3764 287.929C77.3136 287.83 77.2708 287.72 77.2506 287.604C77.2305 287.489 77.2332 287.37 77.2588 287.256C77.2844 287.141 77.3322 287.033 77.3997 286.937C77.4671 286.841 77.5528 286.759 77.6518 286.696L77.6349 286.722Z" fill="#EC407A"/>
<path opacity="0.3" d="M77.6349 286.722C78.1627 286.353 78.7313 286.046 79.3295 285.807C79.1726 285.362 78.9467 284.944 78.6601 284.57C76.0673 281.265 74.8896 284.57 72.8815 284.62C72.4066 284.61 71.9349 284.7 71.497 284.884C71.0591 285.068 70.6648 285.342 70.3395 285.688C70.5925 285.778 70.8388 285.885 71.0767 286.01C71.1643 286.057 71.2401 286.123 71.2987 286.203C71.3572 286.283 71.3969 286.376 71.4148 286.473C71.4327 286.571 71.4284 286.672 71.4021 286.767C71.3759 286.863 71.3283 286.952 71.2631 287.027C71.0086 287.344 70.6577 287.57 70.2633 287.671C70.1422 287.684 70.02 287.684 69.8989 287.671C69.9841 288.172 70.1381 288.66 70.3565 289.12C70.6059 289.684 70.9186 290.219 71.2885 290.713C71.5005 290.594 71.7215 290.492 71.9494 290.408C72.0454 290.379 72.1465 290.373 72.2452 290.389C72.3439 290.406 72.4376 290.445 72.5192 290.502C72.6008 290.56 72.6682 290.636 72.7163 290.724C72.7643 290.812 72.7918 290.909 72.7967 291.009C72.7648 291.365 72.6701 291.712 72.5171 292.034C73.042 292.479 73.6096 292.871 74.2117 293.204L74.3981 293.094C74.5351 293.017 74.6766 292.949 74.8218 292.89C74.9001 292.85 74.9825 292.819 75.0675 292.797C75.175 292.765 75.2888 292.761 75.3983 292.785C75.5079 292.808 75.6097 292.859 75.6945 292.933C75.781 293.01 75.8455 293.108 75.8812 293.218C75.917 293.329 75.9227 293.446 75.8979 293.56C75.8673 293.678 75.8276 293.794 75.7793 293.907C76.5315 294.186 77.3439 294.262 78.1348 294.127C78.4231 293.526 78.6777 292.909 78.8974 292.28L78.2873 292.119C78.0591 292.063 77.8598 291.924 77.7281 291.729C77.662 291.631 77.6173 291.52 77.5969 291.403C77.5764 291.286 77.5807 291.167 77.6095 291.052C77.6608 290.821 77.8009 290.62 77.9992 290.492C78.1991 290.369 78.4385 290.327 78.6686 290.374C78.9143 290.45 79.1516 290.501 79.3973 290.552C79.635 289.585 79.7404 288.59 79.7108 287.594H79.643C79.2811 287.767 78.9351 287.971 78.6093 288.205C78.5102 288.267 78.3998 288.31 78.2843 288.33C78.1687 288.351 78.0503 288.348 77.9358 288.322C77.8214 288.297 77.713 288.249 77.617 288.181C77.5211 288.114 77.4393 288.028 77.3764 287.929C77.3136 287.83 77.2708 287.72 77.2506 287.604C77.2305 287.489 77.2332 287.37 77.2588 287.256C77.2844 287.141 77.3322 287.033 77.3997 286.937C77.4671 286.841 77.5528 286.759 77.6518 286.696L77.6349 286.722Z" fill="white"/>
<path d="M52.834 292.865C52.6561 294.11 56.0284 294.932 58.7652 295.407C58.5449 297.669 57.0706 299.957 54.9608 302.092C52.3511 300.618 48.6144 298.703 47.9281 299.143C47.2418 299.584 50.9954 302.134 53.3848 303.592C51.6784 305.084 49.8691 306.454 47.9705 307.693C46.8012 306.6 45.4285 305.634 44.5812 306.159C43.7339 306.684 43.9627 308.388 44.3779 309.904C41.5394 311.556 39.4041 312.565 39.4041 312.565C38.5769 309.923 37.9426 307.224 37.5062 304.49C37.6502 304.21 37.7943 303.922 37.9214 303.643C38.3789 302.583 37.9214 302.134 37.1757 301.948C36.9727 300.016 36.9727 298.068 37.1757 296.135C40.3955 295.458 44.3101 294.212 42.8442 292.28C41.9969 291.111 40.3023 290.984 38.65 291.272C38.8816 290.889 39.1483 290.529 39.4465 290.196C45.3099 283.739 49.3939 290.196 49.3939 290.196C52.7832 287.357 57.579 288.12 58.6127 292.56C56.7062 292.06 53.0543 291.331 52.834 292.865Z" fill="#EC407A"/>
<path opacity="0.5" d="M52.834 292.865C52.6561 294.11 56.0284 294.932 58.7652 295.407C58.5449 297.669 57.0706 299.957 54.9608 302.092C52.3511 300.618 48.6144 298.703 47.9281 299.143C47.2418 299.584 50.9954 302.134 53.3848 303.592C51.6784 305.084 49.8691 306.454 47.9705 307.693C46.8012 306.6 45.4285 305.634 44.5812 306.159C43.7339 306.684 43.9627 308.388 44.3779 309.904C41.5394 311.556 39.4041 312.565 39.4041 312.565C38.5769 309.923 37.9426 307.224 37.5062 304.49C37.6502 304.21 37.7943 303.922 37.9214 303.643C38.3789 302.583 37.9214 302.134 37.1757 301.948C36.9727 300.016 36.9727 298.068 37.1757 296.135C40.3955 295.458 44.3101 294.212 42.8442 292.28C41.9969 291.111 40.3023 290.984 38.65 291.272C38.8816 290.889 39.1483 290.529 39.4465 290.196C45.3099 283.739 49.3939 290.196 49.3939 290.196C52.7832 287.357 57.579 288.12 58.6127 292.56C56.7062 292.06 53.0543 291.331 52.834 292.865Z" fill="white"/>
<path d="M279.727 224.266V257.108H302.842V224.266H279.727ZM297.817 241.213C296.131 242.71 294.257 243.98 292.242 244.992C290.227 243.979 288.353 242.709 286.666 241.213C283.692 238.442 285.387 234.434 288.319 232.697C288.461 232.61 288.612 232.536 288.768 232.477C289.67 232.872 290.461 233.483 291.072 234.256C291.419 233.836 291.815 233.457 292.25 233.129C292.712 232.713 293.28 232.432 293.891 232.317C294.503 232.202 295.134 232.257 295.716 232.477C295.874 232.538 296.027 232.612 296.173 232.697C299.096 234.358 300.8 238.416 297.817 241.187V241.213Z" fill="#EC407A"/>
<path d="M292.242 244.966C291.894 245.153 291.589 245.297 291.394 245.407L291.115 245.534L290.844 245.407C288.495 244.311 286.315 242.884 284.37 241.17C281.396 238.4 283.099 234.392 286.023 232.655C286.437 232.401 286.906 232.249 287.39 232.211C287.874 232.172 288.361 232.249 288.81 232.434C288.654 232.494 288.504 232.568 288.361 232.655C285.429 234.349 283.735 238.4 286.709 241.17C288.381 242.669 290.241 243.945 292.242 244.966Z" fill="#EC407A"/>
<path opacity="0.2" d="M292.242 244.966C291.894 245.153 291.589 245.297 291.394 245.407L291.115 245.534L290.844 245.407C288.495 244.311 286.315 242.884 284.37 241.17C281.396 238.4 283.099 234.392 286.023 232.655C286.437 232.401 286.906 232.249 287.39 232.211C287.874 232.172 288.361 232.249 288.81 232.434C288.654 232.494 288.504 232.568 288.361 232.655C285.429 234.349 283.735 238.4 286.709 241.17C288.381 242.669 290.241 243.945 292.242 244.966Z" fill="black"/>
<path d="M283.031 207.837H275.982V257.151H283.031V207.837Z" fill="#EC407A"/>
<path opacity="0.2" d="M283.031 207.837V214.489C281.95 215.066 280.745 215.377 279.519 215.394C278.293 215.412 277.08 215.136 275.982 214.59V207.812L283.031 207.837Z" fill="black"/>
<path d="M306.146 207.837H299.096V257.151H306.146V207.837Z" fill="#EC407A"/>
<path opacity="0.2" d="M306.146 207.837V214.489C305.064 215.066 303.86 215.377 302.634 215.394C301.407 215.412 300.195 215.136 299.096 214.59V207.812L306.146 207.837Z" fill="black"/>
<path d="M329.269 206.159H252.766V211.362H329.269V206.159Z" fill="#EC407A"/>
<path opacity="0.2" d="M263.162 202.067C262.991 203.046 262.612 203.976 262.05 204.796C261.489 205.616 260.759 206.306 259.908 206.82V209.252C258.85 209.898 257.638 210.248 256.399 210.268C255.159 210.287 253.937 209.974 252.859 209.362V206.939C251.962 206.43 251.189 205.729 250.595 204.887C250 204.045 249.598 203.082 249.419 202.067C249.708 200.455 250.555 198.997 251.811 197.946C253.068 196.896 254.653 196.32 256.29 196.32C257.928 196.32 259.513 196.896 260.769 197.946C262.025 198.997 262.872 200.455 263.162 202.067Z" fill="black"/>
<path d="M259.908 201.779H252.859V257.151H259.908V201.779Z" fill="#EC407A"/>
<path d="M263.272 200.864C263.274 201.267 263.237 201.67 263.162 202.067C262.882 203.687 262.039 205.156 260.782 206.214C259.525 207.273 257.934 207.854 256.29 207.854C254.647 207.854 253.056 207.273 251.798 206.214C250.541 205.156 249.698 203.687 249.419 202.067C249.343 201.67 249.306 201.267 249.308 200.864C249.308 199.012 250.044 197.236 251.353 195.927C252.663 194.617 254.439 193.882 256.29 193.882C258.142 193.882 259.918 194.617 261.227 195.927C262.537 197.236 263.272 199.012 263.272 200.864Z" fill="#EC407A"/>
<path d="M329.261 201.779H322.211V257.151H329.261V201.779Z" fill="#EC407A"/>
<path opacity="0.2" d="M332.523 202.067C332.35 203.045 331.97 203.975 331.409 204.795C330.848 205.614 330.119 206.305 329.269 206.82V209.252C328.209 209.898 326.996 210.248 325.755 210.268C324.514 210.287 323.291 209.974 322.211 209.362V206.939C321.315 206.431 320.542 205.73 319.949 204.888C319.355 204.045 318.956 203.082 318.78 202.067C319.069 200.455 319.916 198.997 321.172 197.946C322.428 196.896 324.014 196.32 325.651 196.32C327.289 196.32 328.874 196.896 330.13 197.946C331.386 198.997 332.233 200.455 332.523 202.067Z" fill="black"/>
<path d="M332.624 200.864C332.625 201.267 332.591 201.669 332.523 202.067C332.243 203.687 331.4 205.156 330.143 206.214C328.886 207.273 327.295 207.854 325.651 207.854C324.007 207.854 322.417 207.273 321.159 206.214C319.902 205.156 319.059 203.687 318.779 202.067C318.704 201.67 318.667 201.267 318.669 200.864C318.637 199.927 318.793 198.993 319.129 198.118C319.465 197.243 319.974 196.445 320.625 195.77C321.276 195.096 322.056 194.56 322.919 194.194C323.782 193.827 324.71 193.639 325.647 193.639C326.584 193.639 327.512 193.827 328.375 194.194C329.238 194.56 330.018 195.096 330.669 195.77C331.32 196.445 331.829 197.243 332.165 198.118C332.501 198.993 332.657 199.927 332.624 200.864Z" fill="#EC407A"/>
<path d="M101.588 257.151H328.812L328.727 246.585L324.024 245.881C251.47 235 177.694 235.054 105.155 246.042L101.588 246.585V257.151Z" fill="#EC407A"/>
<path d="M101.588 257.151H328.812L328.727 246.585L324.024 245.881C251.47 235 177.694 235.054 105.155 246.042L101.588 246.585V257.151Z" fill="#EC407A"/>
<g opacity="0.2">
<path d="M101.588 257.151H328.812L328.727 246.585L324.024 245.881C251.47 235 177.694 235.054 105.155 246.042L101.588 246.585V257.151Z" fill="black"/>
</g>
<path d="M131.753 207.837H124.703V257.151H131.753V207.837Z" fill="#EC407A"/>
<path opacity="0.2" d="M131.753 207.837V214.489C130.642 215.089 129.398 215.401 128.135 215.395C126.944 215.399 125.768 215.123 124.703 214.59V207.812L131.753 207.837Z" fill="black"/>
<path d="M154.867 207.837H147.818V257.151H154.867V207.837Z" fill="#EC407A"/>
<path opacity="0.2" d="M154.867 207.837V214.489C153.756 215.089 152.512 215.401 151.249 215.395C150.058 215.396 148.884 215.121 147.818 214.59V207.812L154.867 207.837Z" fill="black"/>
<path d="M328.829 207.837H321.779V257.151H328.829V207.837Z" fill="#EC407A"/>
<path opacity="0.2" d="M328.871 207.837V214.489C327.76 215.089 326.516 215.401 325.253 215.395C324.062 215.399 322.887 215.123 321.821 214.59V207.812L328.871 207.837Z" fill="black"/>
<path d="M177.999 207.837H170.949V257.151H177.999V207.837Z" fill="#EC407A"/>
<path opacity="0.2" d="M177.999 207.837V214.489C176.885 215.09 175.638 215.402 174.372 215.395C173.196 215.392 172.036 215.116 170.983 214.59V207.812L177.999 207.837Z" fill="black"/>
<path d="M215.704 207.837H208.655V257.151H215.704V207.837Z" fill="#EC407A"/>
<path opacity="0.2" d="M215.704 207.837V214.489C214.622 215.066 213.418 215.377 212.192 215.394C210.965 215.412 209.753 215.136 208.655 214.59V207.812L215.704 207.837Z" fill="black"/>
<path d="M253.409 207.837H246.36V257.151H253.409V207.837Z" fill="#EC407A"/>
<path opacity="0.2" d="M253.409 207.837V214.489C252.328 215.066 251.123 215.377 249.897 215.394C248.671 215.412 247.458 215.136 246.36 214.59V207.812L253.409 207.837Z" fill="black"/>
<path d="M291.106 207.837H284.057V257.151H291.106V207.837Z" fill="#EC407A"/>
<path opacity="0.2" d="M291.106 207.837V214.489C289.995 215.089 288.751 215.401 287.488 215.395C286.297 215.399 285.122 215.123 284.057 214.59V207.812L291.106 207.837Z" fill="black"/>
<path d="M328.812 207.837H321.762V257.151H328.812V207.837Z" fill="#EC407A"/>
<path opacity="0.2" d="M328.812 207.837V214.489C327.701 215.089 326.457 215.401 325.194 215.395C324.003 215.399 322.827 215.123 321.762 214.59V207.812L328.812 207.837Z" fill="black"/>
<path d="M328.727 206.159H173.127V211.362H328.727V206.159Z" fill="#EC407A"/>
<path d="M177.99 206.159H101.487V211.362H177.99V206.159Z" fill="#EC407A"/>
<path d="M108.638 201.779H101.588V257.151H108.638V201.779Z" fill="#EC407A"/>
<path opacity="0.2" d="M111.892 202.067C111.719 203.045 111.339 203.975 110.778 204.795C110.217 205.614 109.487 206.305 108.638 206.82V209.252C107.58 209.898 106.368 210.248 105.128 210.268C103.889 210.287 102.666 209.974 101.588 209.362V206.939C100.69 206.433 99.9147 205.733 99.3197 204.89C98.7248 204.048 98.3246 203.083 98.1483 202.067C98.438 200.455 99.285 198.997 100.541 197.946C101.797 196.896 103.383 196.32 105.02 196.32C106.657 196.32 108.243 196.896 109.499 197.946C110.755 198.997 111.602 200.455 111.892 202.067Z" fill="black"/>
<path d="M111.959 200.864C111.96 201.267 111.926 201.669 111.858 202.067C111.578 203.687 110.735 205.156 109.478 206.214C108.221 207.273 106.63 207.854 104.986 207.854C103.342 207.854 101.751 207.273 100.494 206.214C99.2369 205.156 98.3941 203.687 98.1144 202.067C98.0392 201.67 98.0023 201.267 98.0042 200.864C97.9716 199.927 98.1279 198.993 98.4639 198.118C98.7998 197.243 99.3085 196.445 99.9597 195.77C100.611 195.096 101.391 194.56 102.254 194.194C103.117 193.827 104.045 193.639 104.982 193.639C105.919 193.639 106.847 193.827 107.71 194.194C108.573 194.56 109.353 195.096 110.004 195.77C110.655 196.445 111.164 197.243 111.5 198.118C111.836 198.993 111.992 199.927 111.959 200.864Z" fill="#EC407A"/>
<path d="M177.99 201.779H170.941V257.151H177.99V201.779Z" fill="#EC407A"/>
<path opacity="0.2" d="M181.244 202.067C181.073 203.046 180.694 203.976 180.132 204.796C179.571 205.616 178.841 206.306 177.99 206.82V209.252C176.932 209.898 175.72 210.248 174.481 210.268C173.241 210.287 172.019 209.974 170.941 209.362V206.939C170.043 206.431 169.269 205.731 168.674 204.889C168.079 204.046 167.679 203.083 167.501 202.067C167.79 200.455 168.637 198.997 169.893 197.946C171.149 196.896 172.735 196.32 174.372 196.32C176.01 196.32 177.595 196.896 178.851 197.946C180.107 198.997 180.954 200.455 181.244 202.067Z" fill="black"/>
<path d="M181.354 200.864C181.356 201.267 181.319 201.67 181.244 202.067C180.964 203.687 180.121 205.156 178.864 206.214C177.607 207.273 176.016 207.854 174.372 207.854C172.729 207.854 171.138 207.273 169.88 206.214C168.623 205.156 167.78 203.687 167.501 202.067C167.425 201.67 167.389 201.267 167.39 200.864C167.39 199.012 168.126 197.236 169.435 195.927C170.745 194.617 172.521 193.882 174.372 193.882C176.224 193.882 178 194.617 179.309 195.927C180.619 197.236 181.354 199.012 181.354 200.864Z" fill="#EC407A"/>
<path d="M128.228 224.266V257.15H151.351V224.266H128.228ZM146.318 241.213C144.633 242.711 142.759 243.982 140.743 244.992C138.728 243.979 136.854 242.709 135.167 241.213C132.193 238.442 133.888 234.434 136.862 232.697C137.007 232.61 137.161 232.536 137.319 232.477C138.22 232.875 139.011 233.485 139.624 234.256C139.966 233.833 140.358 233.455 140.793 233.129C141.256 232.713 141.823 232.432 142.435 232.317C143.046 232.202 143.677 232.257 144.259 232.477C144.418 232.536 144.571 232.61 144.716 232.697C147.597 234.358 149.3 238.416 146.318 241.187V241.213Z" fill="#EC407A"/>
<path d="M140.768 244.966C140.421 245.153 140.116 245.297 139.878 245.407L139.607 245.534L139.328 245.407C136.98 244.309 134.8 242.882 132.854 241.17C129.88 238.4 131.583 234.392 134.549 232.655C134.965 232.401 135.435 232.249 135.92 232.211C136.406 232.172 136.894 232.249 137.345 232.435C137.186 232.494 137.033 232.568 136.887 232.655C133.956 234.349 132.261 238.4 135.193 241.17C136.878 242.672 138.753 243.948 140.768 244.966Z" fill="#EC407A"/>
<path opacity="0.2" d="M140.768 244.966C140.421 245.153 140.116 245.297 139.878 245.407L139.607 245.534L139.328 245.407C136.98 244.309 134.8 242.882 132.854 241.17C129.88 238.4 131.583 234.392 134.549 232.655C134.965 232.401 135.435 232.249 135.92 232.211C136.406 232.172 136.894 232.249 137.345 232.435C137.186 232.494 137.033 232.568 136.887 232.655C133.956 234.349 132.261 238.4 135.193 241.17C136.878 242.672 138.753 243.948 140.768 244.966Z" fill="black"/>
<path d="M326.481 284.197C330.009 290.815 331.62 298.286 331.133 305.769C330.667 313.395 328.066 320.733 323.923 326.105C322.592 327.842 323.923 332.036 325.355 333.637C326.786 335.239 328.591 336.179 330.023 337.755C331.455 339.331 332.387 342.254 331.286 344.254C328.447 349.423 322.38 348.347 319.567 343.161C316.754 337.975 316.178 330.968 314.212 325.308C317.347 323.554 319.296 317.564 319.093 313.107C318.89 308.65 317.5 304.456 316.602 300.152C315.704 295.847 315.356 290.975 317.102 287.137C318.847 283.299 324.473 280.596 326.481 284.197Z" fill="#EC407A"/>
<path d="M252.799 284.197C249.272 290.815 247.661 298.286 248.148 305.769C248.614 313.395 251.215 320.733 255.358 326.105C256.689 327.842 255.358 332.036 253.926 333.637C252.494 335.239 250.69 336.179 249.258 337.755C247.826 339.331 246.894 342.254 247.995 344.254C250.834 349.423 256.9 348.347 259.713 343.161C262.527 337.975 263.103 330.968 265.068 325.308C261.933 323.554 259.985 317.564 260.196 313.107C260.408 308.65 261.781 304.456 262.679 300.152C263.577 295.847 263.925 290.975 262.179 287.137C260.434 283.299 254.808 280.596 252.799 284.197Z" fill="#EC407A"/>
<path opacity="0.2" d="M252.799 284.197C249.272 290.815 247.661 298.286 248.148 305.769C248.614 313.395 251.215 320.733 255.358 326.105C256.689 327.842 255.358 332.036 253.926 333.637C252.494 335.239 250.69 336.179 249.258 337.755C247.826 339.331 246.894 342.254 247.995 344.254C250.834 349.423 256.9 348.347 259.713 343.161C262.527 337.975 263.103 330.968 265.068 325.308C261.933 323.554 259.985 317.564 260.196 313.107C260.408 308.65 261.781 304.456 262.679 300.152C263.577 295.847 263.925 290.975 262.179 287.137C260.434 283.299 254.808 280.596 252.799 284.197Z" fill="black"/>
<path d="M104.376 284.197C100.848 290.815 99.2374 298.286 99.7243 305.769C100.19 313.395 102.792 320.733 106.935 326.105C108.265 327.842 106.935 332.036 105.503 333.637C104.071 335.239 102.266 336.179 100.834 337.755C99.4023 339.331 98.4703 342.254 99.5718 344.254C102.41 349.423 108.477 348.347 111.29 343.161C114.103 337.975 114.679 330.968 116.645 325.308C113.51 323.554 111.561 317.564 111.765 313.107C111.968 308.65 113.358 304.456 114.256 300.152C115.154 295.847 115.501 290.975 113.756 287.137C112.01 283.299 106.384 280.596 104.376 284.197Z" fill="#EC407A"/>
<path opacity="0.2" d="M104.376 284.197C100.848 290.815 99.2374 298.286 99.7243 305.769C100.19 313.395 102.792 320.733 106.935 326.105C108.265 327.842 106.935 332.036 105.503 333.637C104.071 335.239 102.266 336.179 100.834 337.755C99.4023 339.331 98.4703 342.254 99.5718 344.254C102.41 349.423 108.477 348.347 111.29 343.161C114.103 337.975 114.679 330.968 116.645 325.308C113.51 323.554 111.561 317.564 111.765 313.107C111.968 308.65 113.358 304.456 114.256 300.152C115.154 295.847 115.501 290.975 113.756 287.137C112.01 283.299 106.384 280.596 104.376 284.197Z" fill="black"/>
<path d="M329.261 257.151H101.487V288.459H329.261V257.151Z" fill="#EC407A"/>
<path d="M176.236 284.197C179.768 290.813 181.379 298.285 180.888 305.769C180.422 313.395 177.821 320.733 173.686 326.105C172.347 327.842 173.686 332.036 175.11 333.637C176.533 335.239 178.355 336.179 179.778 337.755C181.202 339.331 182.142 342.254 181.041 344.254C178.202 349.423 172.135 348.347 169.322 343.161C166.509 337.975 165.933 330.968 163.967 325.308C167.102 323.554 169.051 317.564 168.848 313.107C168.645 308.65 167.263 304.456 166.365 300.152C165.467 295.847 165.111 290.975 166.857 287.137C168.602 283.299 174.228 280.596 176.236 284.197Z" fill="#EC407A"/>
<path opacity="0.2" d="M329.269 257.151H178.355V288.459H329.269V257.151Z" fill="white"/>
<path opacity="0.3" d="M329.269 206.973C330.119 206.458 330.848 205.767 331.409 204.948C331.97 204.128 332.35 203.198 332.523 202.22C332.591 201.822 332.625 201.42 332.625 201.017C332.657 200.08 332.501 199.146 332.165 198.271C331.829 197.396 331.32 196.597 330.669 195.923C330.018 195.249 329.238 194.713 328.375 194.346C327.512 193.98 326.584 193.792 325.647 193.792C324.71 193.792 323.782 193.98 322.919 194.346C322.056 194.713 321.276 195.249 320.625 195.923C319.974 196.597 319.465 197.396 319.129 198.271C318.793 199.146 318.637 200.08 318.669 201.017C318.667 201.42 318.704 201.823 318.78 202.22C319.058 203.815 319.885 205.263 321.118 206.312H260.815C262.052 205.263 262.884 203.816 263.171 202.22C263.239 201.822 263.273 201.42 263.272 201.017C263.305 200.08 263.149 199.146 262.813 198.271C262.477 197.396 261.968 196.597 261.317 195.923C260.666 195.249 259.885 194.713 259.023 194.346C258.16 193.98 257.232 193.792 256.295 193.792C255.357 193.792 254.43 193.98 253.567 194.346C252.704 194.713 251.924 195.249 251.272 195.923C250.621 196.597 250.113 197.396 249.777 198.271C249.441 199.146 249.284 200.08 249.317 201.017C249.315 201.42 249.352 201.823 249.427 202.22C249.705 203.815 250.533 205.263 251.766 206.312H178.897C180.134 205.263 180.966 203.816 181.253 202.22C181.321 201.822 181.355 201.42 181.354 201.017C181.387 200.08 181.231 199.146 180.895 198.271C180.559 197.396 180.05 196.597 179.399 195.923C178.748 195.249 177.967 194.713 177.105 194.346C176.242 193.98 175.314 193.792 174.377 193.792C173.439 193.792 172.512 193.98 171.649 194.346C170.786 194.713 170.006 195.249 169.354 195.923C168.703 196.597 168.195 197.396 167.859 198.271C167.523 199.146 167.366 200.08 167.399 201.017C167.397 201.42 167.434 201.823 167.509 202.22C167.787 203.815 168.615 205.263 169.848 206.312H109.545C110.779 205.262 111.609 203.815 111.892 202.22C111.967 201.823 112.004 201.42 112.002 201.017C112.002 199.165 111.266 197.389 109.957 196.08C108.648 194.77 106.872 194.035 105.02 194.035C103.168 194.035 101.392 194.77 100.083 196.08C98.7737 197.389 98.0382 199.165 98.0382 201.017C98.0362 201.42 98.0731 201.823 98.1483 202.22C98.3277 203.22 98.7241 204.168 99.3097 204.998C99.8953 205.828 100.656 206.52 101.538 207.024V211.481H101.631V257.236H101.538V288.586H102.436C100.32 294.099 99.4126 300.003 99.7751 305.897C100.233 313.522 102.842 320.86 106.977 326.232C108.308 327.969 106.977 332.163 105.545 333.765C104.113 335.366 102.309 336.307 100.885 337.883C99.4616 339.459 98.5211 342.382 99.6142 344.382C102.453 349.55 108.528 348.474 111.341 343.288C114.154 338.103 114.73 331.096 116.687 325.436C113.552 323.682 111.604 317.691 111.815 313.234C112.027 308.778 113.4 304.583 114.298 300.279C115.095 296.449 115.459 292.187 114.298 288.586H166.357C165.204 292.187 165.569 296.449 166.357 300.279C167.255 304.583 168.653 308.752 168.839 313.234C169.026 317.717 167.145 323.682 163.967 325.436C165.933 331.096 166.569 338.213 169.314 343.288C172.059 348.364 178.202 349.55 181.041 344.382C182.134 342.382 181.202 339.484 179.77 337.883C178.338 336.281 176.508 335.408 175.11 333.765C173.711 332.121 172.347 327.969 173.678 326.232C177.812 320.86 180.456 313.522 180.88 305.897C181.245 300.003 180.341 294.1 178.228 288.586H250.817C248.705 294.1 247.798 300.003 248.156 305.897C248.614 313.522 251.223 320.86 255.358 326.232C256.689 327.969 255.358 332.163 253.926 333.765C252.494 335.366 250.69 336.307 249.266 337.883C247.843 339.459 246.902 342.382 247.995 344.382C250.834 349.55 256.909 348.474 259.722 343.288C262.535 338.103 263.111 331.096 265.069 325.436C261.933 323.682 259.985 317.691 260.196 313.234C260.408 308.778 261.781 304.583 262.679 300.279C263.476 296.449 263.84 292.187 262.679 288.586H316.593C315.441 292.187 315.805 296.449 316.593 300.279C317.492 304.583 318.881 308.752 319.076 313.234C319.271 317.717 317.381 323.682 314.204 325.436C316.17 331.096 316.805 338.213 319.551 343.288C322.296 348.364 328.439 349.55 331.277 344.382C332.37 342.382 331.438 339.484 330.006 337.883C328.574 336.281 326.744 335.408 325.346 333.765C323.948 332.121 322.584 327.969 323.914 326.232C328.049 320.86 330.65 313.522 331.116 305.897C331.48 300.004 330.579 294.102 328.473 288.586H329.269V206.973ZM124.712 243.509C119.345 244.17 113.979 244.896 108.613 245.687V211.481H124.712V243.509ZM147.826 238.595C147.667 239.545 147.21 240.42 146.521 241.094C143.064 241.416 139.61 241.767 136.159 242.145C135.82 241.874 135.489 241.603 135.176 241.298C132.202 238.527 133.896 234.519 136.828 232.782C136.971 232.695 137.121 232.622 137.277 232.562C138.179 232.957 138.971 233.568 139.582 234.341C139.934 233.935 140.332 233.571 140.768 233.257C141.23 232.84 141.798 232.559 142.409 232.444C143.021 232.329 143.652 232.385 144.234 232.604C144.391 232.667 144.544 232.741 144.691 232.825C145.499 233.288 146.198 233.919 146.741 234.677C147.283 235.434 147.656 236.299 147.835 237.214L147.826 238.595ZM147.826 224.385H131.727V211.481H147.826V224.385ZM170.941 239.213C165.586 239.547 160.219 239.931 154.842 240.366V211.481H170.941V239.213ZM208.655 237.908C198.436 237.999 188.217 238.304 177.999 238.824V211.481H208.655V237.908ZM246.36 238.552C236.147 238.112 225.928 237.889 215.704 237.883V211.481H246.36V238.552ZM276.016 240.408C270.661 239.956 265.294 239.572 259.917 239.256V211.481H276.016V240.408ZM284.099 224.385H283.031V211.481H284.065L284.099 224.385ZM299.096 239.442C298.822 240.158 298.384 240.799 297.817 241.315C297.402 241.702 296.966 242.067 296.512 242.408L291.115 241.831V234.358C291.448 233.952 291.829 233.588 292.25 233.274C292.712 232.857 293.28 232.576 293.891 232.461C294.503 232.346 295.134 232.402 295.716 232.621C295.875 232.681 296.028 232.754 296.173 232.842C297.533 233.631 298.569 234.877 299.096 236.358V239.442ZM299.096 224.394H291.115V211.481H299.096V224.394ZM321.771 245.678C316.568 244.916 311.36 244.21 306.146 243.56V211.481H321.771V245.678Z" fill="white"/>
<path d="M218.915 183.46L200.613 261.269L180.829 322.978L172.966 321.504C172.966 321.504 173.72 297.584 179.032 274.902C180.253 269.674 183.269 264.056 183.896 259.828C184.464 256.125 183.71 253.482 184.133 244.839C184.633 234.392 186.023 220.589 189.683 210.625C189.683 210.625 182.498 196.627 189.581 182.579L218.915 183.46Z" fill="#FFBE9D"/>
<path d="M177.151 341.322H171.008L172.72 323.343L173.703 314.361L182.642 315.344L180.1 325.825L177.151 341.322Z" fill="#FFBE9D"/>
<path d="M236.912 259.15L236.209 333.553L235.946 341.322L230.252 341L228.041 327.443C228.041 327.443 221.508 301.66 220.119 278.41C219.805 273.055 221.076 266.81 220.483 262.582C219.966 258.871 218.5 256.549 216.424 248.178C213.925 238.01 211.34 224.402 211.976 213.794C211.976 213.794 201.096 202.431 203.884 186.942L232.252 179.401L236.912 259.15Z" fill="#FFBE9D"/>
<path d="M235.853 339.738H230.405C230.269 339.74 230.138 339.789 230.034 339.877C229.931 339.965 229.861 340.087 229.837 340.221L228.465 346.635C228.405 346.901 228.446 347.179 228.581 347.416C228.716 347.653 228.934 347.83 229.193 347.915C229.261 347.923 229.329 347.923 229.397 347.915C231.939 347.915 233.184 347.762 236.395 347.813C238.37 347.813 243.487 348.169 246.216 348.211C248.944 348.254 249.342 345.263 248.232 344.966C243.225 343.661 237.938 341.323 235.853 339.738Z" fill="#FFBE9D"/>
<path d="M176.906 339.738H171.449C171.314 339.742 171.185 339.792 171.083 339.88C170.982 339.968 170.913 340.088 170.89 340.221L169.517 346.635C169.455 346.901 169.496 347.18 169.631 347.417C169.766 347.655 169.986 347.832 170.246 347.915C170.313 347.923 170.382 347.923 170.449 347.915C172.991 347.915 174.237 347.762 177.448 347.813C179.422 347.813 184.54 348.169 187.268 348.211C189.997 348.254 190.395 345.263 189.285 344.966C184.277 343.661 178.982 341.323 176.906 339.738Z" fill="#FFBE9D"/>
<path d="M240.064 242.179V243.348C240.064 243.348 221.932 248.288 209.925 248.322C197.919 248.356 178.549 243.678 178.549 243.678C178.549 243.678 176.635 203.558 184.531 187.442C192.428 171.327 191.429 170.683 191.429 170.683C191.429 170.683 230.659 168.471 230.659 170.683L236.59 206.151C238.587 218.065 239.748 230.103 240.064 242.179Z" fill="#263238"/>
<path d="M229.736 110.956C229.6 111.117 229.456 111.278 229.303 111.43C232.396 115.184 227.914 118.327 226.668 118.7C225.719 118.997 224.731 119.151 223.737 119.158C219.034 119.225 215.645 115.912 213.806 114.243C211.162 111.837 212.501 105.558 211.425 101.932C210.019 97.1868 208.29 85.8328 213.179 78.6137C215.509 75.2245 217.289 74.0806 217.289 74.0806C219.5 72.5724 222.372 72.8605 224.686 74.2162C226.999 75.5719 228.702 77.8596 230.117 80.2914C232.689 84.6144 234.22 89.4759 234.591 94.4923C234.896 99.2288 233.243 100.424 231.769 103.076C231.769 103.076 231.769 103.135 231.769 103.169C232.023 105.948 231.43 108.956 229.736 110.956Z" fill="#263238"/>
<path d="M237.624 154.406C232.252 145.085 226.855 135.765 222.957 125.741C222.203 123.792 221.491 121.683 221.949 119.641C222.406 117.599 223.313 116.023 225.338 116.666C231.549 118.658 234.658 125.538 238.404 131.918C241.691 137.544 242.344 140.696 246.521 145.704C246.487 145.704 242.039 154.296 237.624 154.406Z" fill="#FFBE9D"/>
<g opacity="0.1">
<path d="M237.624 154.406C232.252 145.085 226.855 135.765 222.957 125.741C222.203 123.792 221.491 121.683 221.949 119.641C222.406 117.599 223.313 116.023 225.338 116.666C231.549 118.658 234.658 125.538 238.404 131.918C241.691 137.544 242.344 140.696 246.521 145.704C246.487 145.704 242.039 154.296 237.624 154.406Z" fill="black"/>
</g>
<path d="M193.183 156.211L191.954 169.717H229.236C229.236 169.717 235.472 167.742 227.499 149.661C228.295 146.111 229.405 142.365 230.524 138.061C231.591 132.13 226.067 116.878 224.897 116.607C223.728 116.336 217.653 113.675 216.424 113.506C212.424 112.951 208.396 112.612 204.359 112.489C203.579 112.489 202.8 112.421 202.029 112.405C202.029 112.405 186.87 113.091 186.777 119.293C186.743 119.641 193.183 136.587 193.183 156.211Z" fill="#EC407A"/>
<path d="M230.905 173.242L191.929 169.717V169.505C195.964 169.902 200.005 168.801 203.283 166.412C207.256 163.599 210.061 159.439 212.112 155.092C214.162 150.745 215.662 146.153 217.585 141.747C219.509 137.341 221.94 133.02 225.592 129.808C226.647 128.852 227.831 128.047 229.109 127.419C229.109 127.419 234.65 128.495 234.599 135.46C234.548 142.425 229.168 143.933 229.168 143.933C237.649 166.573 230.905 173.242 230.905 173.242Z" fill="#FFBE9D"/>
<path opacity="0.1" d="M231.964 135.951C231.964 136.372 231.839 136.783 231.606 137.133C231.372 137.483 231.04 137.755 230.651 137.916C230.262 138.077 229.835 138.119 229.422 138.037C229.01 137.955 228.631 137.752 228.333 137.455C228.036 137.158 227.833 136.779 227.751 136.366C227.669 135.954 227.711 135.526 227.872 135.137C228.033 134.749 228.306 134.417 228.656 134.183C229.005 133.949 229.417 133.824 229.837 133.824C230.117 133.823 230.394 133.878 230.652 133.984C230.911 134.091 231.146 134.247 231.344 134.445C231.541 134.643 231.698 134.877 231.804 135.136C231.911 135.395 231.965 135.672 231.964 135.951Z" fill="black"/>
<path d="M193.708 171.428C193.051 171.428 192.394 171.386 191.742 171.301C191.497 171.283 191.258 171.214 191.04 171.101C190.821 170.987 190.629 170.83 190.473 170.639C190.317 170.449 190.202 170.229 190.135 169.992C190.067 169.756 190.048 169.508 190.079 169.264C190.11 169.02 190.19 168.784 190.315 168.572C190.44 168.36 190.607 168.176 190.805 168.031C191.004 167.885 191.23 167.782 191.469 167.726C191.709 167.671 191.958 167.665 192.2 167.708C195.783 168.042 199.365 167.057 202.274 164.938C205.494 162.658 208.205 159.184 210.519 154.312C211.688 151.881 212.688 149.288 213.654 146.78C214.382 144.89 215.136 142.933 215.967 141.018C218.424 135.367 221.118 131.376 224.44 128.444C225.623 127.379 226.949 126.483 228.38 125.783C228.596 125.669 228.833 125.599 229.077 125.579C229.321 125.558 229.566 125.587 229.798 125.664C230.03 125.741 230.245 125.864 230.428 126.025C230.612 126.187 230.761 126.384 230.866 126.605C230.971 126.826 231.031 127.066 231.041 127.31C231.051 127.555 231.011 127.799 230.925 128.027C230.838 128.256 230.706 128.465 230.537 128.642C230.367 128.818 230.164 128.958 229.939 129.054C228.816 129.616 227.773 130.325 226.838 131.164C223.931 133.706 221.542 137.315 219.297 142.467C218.492 144.306 217.755 146.229 217.043 148.085C216.051 150.627 215.026 153.313 213.798 155.88C211.188 161.32 208.112 165.251 204.384 167.895C201.272 170.14 197.545 171.373 193.708 171.428Z" fill="#EC407A"/>
<g opacity="0.2">
<path d="M193.708 171.428C193.051 171.428 192.394 171.386 191.742 171.301C191.497 171.283 191.258 171.214 191.04 171.101C190.821 170.987 190.629 170.83 190.473 170.639C190.317 170.449 190.202 170.229 190.135 169.992C190.067 169.756 190.048 169.508 190.079 169.264C190.11 169.02 190.19 168.784 190.315 168.572C190.44 168.36 190.607 168.176 190.805 168.031C191.004 167.885 191.23 167.782 191.469 167.726C191.709 167.671 191.958 167.665 192.2 167.708C195.783 168.042 199.365 167.057 202.274 164.938C205.494 162.658 208.205 159.184 210.519 154.312C211.688 151.881 212.688 149.288 213.654 146.78C214.382 144.89 215.136 142.933 215.967 141.018C218.424 135.367 221.118 131.376 224.44 128.444C225.623 127.379 226.949 126.483 228.38 125.783C228.596 125.669 228.833 125.599 229.077 125.579C229.321 125.558 229.566 125.587 229.798 125.664C230.03 125.741 230.245 125.864 230.428 126.025C230.612 126.187 230.761 126.384 230.866 126.605C230.971 126.826 231.031 127.066 231.041 127.31C231.051 127.555 231.011 127.799 230.925 128.027C230.838 128.256 230.706 128.465 230.537 128.642C230.367 128.818 230.164 128.958 229.939 129.054C228.816 129.616 227.773 130.325 226.838 131.164C223.931 133.706 221.542 137.315 219.297 142.467C218.492 144.306 217.755 146.229 217.043 148.085C216.051 150.627 215.026 153.313 213.798 155.88C211.188 161.32 208.112 165.251 204.384 167.895C201.272 170.14 197.545 171.373 193.708 171.428Z" fill="white"/>
</g>
<path d="M219.449 116.455C219.449 116.455 213.298 114.48 206.74 113.159C202.961 112.396 204.867 108.481 199.707 110.735C198.673 107.397 200.241 103.813 202.63 101.254C203.133 100.707 203.702 100.226 204.325 99.8219C204.785 99.5214 205.273 99.2661 205.782 99.0594C206.059 98.9471 206.342 98.851 206.629 98.7713C207.382 98.5348 208.163 98.398 208.951 98.3646C210.27 98.3049 211.587 98.5243 212.815 99.0085C214.569 99.7452 216.11 100.911 217.297 102.398C217.87 103.099 218.37 103.857 218.788 104.66C219.003 105.055 219.198 105.471 219.373 105.906C219.597 106.458 219.787 107.024 219.941 107.6C219.945 107.654 219.945 107.708 219.941 107.761C220.239 109.576 220.111 111.435 219.568 113.193C219.246 114.302 219.797 115.557 219.449 116.455Z" fill="#263238"/>
<path d="M214.331 123.36C212.721 124.47 211.595 123.767 209.959 122.682C200.122 116.751 204.282 112.26 204.282 112.26C206.765 110.303 207.417 107.499 207.544 103.05C207.555 102.922 207.575 102.794 207.604 102.669C207.726 102.096 208.022 101.575 208.451 101.178C208.724 100.911 209.046 100.702 209.399 100.56C209.753 100.418 210.131 100.348 210.512 100.353C210.893 100.357 211.269 100.437 211.619 100.588C211.969 100.738 212.286 100.956 212.552 101.228L217.026 103.533C217.026 103.601 217.026 103.669 217.026 103.745C216.568 106.1 216.136 107.914 215.865 109.354C215.865 109.532 215.797 109.71 215.772 109.88C215.772 110.057 215.721 110.244 215.687 110.413C215.407 112.404 215.619 113.54 216.839 114.497C217.568 115.133 219.788 119.624 214.331 123.36Z" fill="#FFBE9D"/>
<path opacity="0.2" d="M217.026 103.516C217.014 103.589 217.014 103.663 217.026 103.736C216.568 106.092 216.136 107.905 215.865 109.346C215.821 109.518 215.79 109.694 215.772 109.871C215.745 110.056 215.731 110.243 215.729 110.43C212.32 108.729 209.513 106.023 207.688 102.677C207.806 102.112 208.086 101.594 208.493 101.186C209.038 100.644 209.775 100.339 210.544 100.339C211.312 100.339 212.05 100.644 212.594 101.186L217.026 103.516Z" fill="black"/>
<path d="M207.231 85.9855C205.791 94.1366 205.003 97.5428 207.977 102.72C212.459 110.498 222.533 110.676 226.363 103.16C229.753 96.382 231.574 84.2231 224.669 78.9697C217.763 73.7164 208.68 77.8259 207.231 85.9855Z" fill="#FFBE9D"/>
<path d="M216.179 88.5103C213.885 89.2606 211.835 90.6159 210.247 92.4334L209.976 92.7215C209.62 93.1282 209.273 93.5518 208.934 93.9924C208.367 94.7561 207.851 95.5572 207.392 96.3903C207.155 96.8225 206.926 97.2376 206.723 97.7376C206.519 98.2375 206.223 98.8899 206.011 99.483C205.943 99.6779 205.875 99.8728 205.816 100.068C204.737 103.471 204.577 107.098 205.35 110.583C205.346 110.608 205.346 110.634 205.35 110.659L205.206 110.549C204.553 110.041 201.376 109.473 199.681 110.735C199.681 110.735 196.292 113.159 193.987 113.616C185.514 115.311 184.472 107.405 188.963 102.466C189.37 102.016 191.691 100.407 191.895 100.263C191.303 100.139 190.751 99.8736 190.286 99.489C189.82 99.1044 189.455 98.6122 189.222 98.0549C188.99 97.4977 188.896 96.8921 188.95 96.2906C189.004 95.6891 189.203 95.1097 189.531 94.6025C190.785 92.2046 193.03 90.4676 195.267 89.0611C195.674 88.8069 196.114 88.5781 196.496 88.3493C196.216 88.4046 195.928 88.4046 195.648 88.3493C195.097 88.2548 194.585 88.0042 194.172 87.6273C193.759 87.2503 193.462 86.7628 193.318 86.2226C192.522 82.0369 199.385 85.2143 206.816 73.5638C209.654 69.0985 214.077 71.454 218.28 73.2503L218.492 73.3435C222.889 75.2753 225.008 77.758 225.202 80.2067C225.558 83.5366 222.228 86.8242 216.179 88.5103Z" fill="#263238"/>
<path d="M210.137 86.7819C211.611 87.9342 209.824 95.5092 205.977 94.4077C202.13 93.3062 205.299 83.0029 210.137 86.7819Z" fill="#263238"/>
<path d="M203.147 92.5182C203.147 94.2681 203.824 95.9501 205.036 97.2123C206.663 98.9069 208.561 97.6868 209.019 95.5176C209.442 93.5434 209.095 90.4338 207.028 89.5865C204.96 88.7392 203.155 90.366 203.147 92.5182Z" fill="#FFBE9D"/>
<path d="M223.093 93.5518C223.499 95.3426 224.14 97.0719 224.999 98.6949C224.59 98.8994 224.14 99.0101 223.683 99.0189C223.226 99.0277 222.772 98.9344 222.355 98.7458L223.093 93.5518Z" fill="#ED893E"/>
<path d="M217.873 91.3573C217.712 92.0097 217.873 92.6283 218.339 92.7384C218.805 92.8486 219.229 92.4079 219.381 91.7555C219.534 91.1031 219.381 90.4761 218.915 90.3744C218.449 90.2727 218.043 90.6964 217.873 91.3573Z" fill="#263238"/>
<path d="M226.041 93.5434C225.88 94.1958 226.041 94.8143 226.516 94.9245C226.99 95.0346 227.363 94.6025 227.558 93.9501C227.753 93.2977 227.516 92.6791 227.083 92.569C226.651 92.4588 226.202 92.8571 226.041 93.5434Z" fill="#263238"/>
<path d="M226.889 92.5521L228.532 92.5012C228.532 92.5012 227.448 93.518 226.889 92.5521Z" fill="#263238"/>
<path d="M218.72 90.3576L220.415 90.3152C220.415 90.3152 219.297 91.332 218.72 90.3576Z" fill="#263238"/>
<path d="M213.196 75.4533C211.806 77.9444 209.451 77.3428 207.485 79.4102C205.519 81.4777 204.003 84.5449 205.214 87.1208C205.641 87.8218 206.029 88.546 206.375 89.2899C207.087 91.4505 205.358 93.6027 204.867 95.8226C204.418 97.8901 203.808 100.313 205.257 101.754C205.852 102.348 206.294 103.078 206.547 103.881C206.799 104.683 206.854 105.535 206.706 106.363C206.617 106.889 206.478 107.406 206.29 107.905C206.181 108.21 206.181 108.544 206.291 108.849C206.4 109.154 206.612 109.411 206.89 109.577C207.168 109.743 207.495 109.808 207.815 109.759C208.136 109.711 208.429 109.553 208.646 109.312C208.707 109.242 208.764 109.168 208.815 109.092C209.705 107.974 210.337 106.674 210.667 105.284C210.996 103.894 211.015 102.449 210.722 101.051C210.375 99.4491 209.951 97.8731 209.603 96.2717C209.167 94.678 209.217 92.99 209.747 91.4251C211.171 87.9511 221.39 81.52 215.865 73.5384C215.792 73.4294 215.68 73.3533 215.552 73.3265C215.257 73.2868 214.957 73.3227 214.679 73.4309C214.402 73.5391 214.157 73.716 213.967 73.9451C213.655 74.4176 213.396 74.9235 213.196 75.4533Z" fill="#263238"/>
<path opacity="0.2" d="M193.013 152.592C192.822 152.565 192.627 152.612 192.469 152.724C192.312 152.836 192.203 153.004 192.166 153.194C192.471 153.779 192.581 154.609 193.174 154.889C194.987 155.821 197.106 154.567 198.817 153.457C200.647 156.846 204.265 163.285 206.502 166.387C206.967 166.952 207.543 167.417 208.195 167.752C208.846 168.088 209.559 168.286 210.29 168.335C210.946 168.359 211.599 168.239 212.204 167.982C212.809 167.726 213.35 167.341 213.789 166.853C219.458 160.15 223.677 154.99 230.735 152.991C222.771 151.711 214.433 150.449 206.468 149.203C204.098 148.717 201.673 148.548 199.258 148.703C196.752 149.144 194.514 150.538 193.013 152.592Z" fill="black"/>
<path d="M212.145 162.531C211.425 162.664 210.686 162.652 209.97 162.497C209.254 162.341 208.577 162.045 207.977 161.625C206.778 160.783 205.715 159.763 204.825 158.6C203.13 156.532 200.588 153.041 199.105 150.788C197.927 152.364 195.148 153.101 194.996 153.152C192.959 153.943 190.87 154.592 188.743 155.092C188.464 154.977 188.218 154.794 188.027 154.56C187.836 154.327 187.707 154.049 187.65 153.753C187.553 153.403 187.566 153.031 187.685 152.687C187.805 152.344 188.026 152.045 188.319 151.83C191.812 149.717 195.173 147.394 198.385 144.873C198.784 144.58 199.256 144.404 199.749 144.365C200.822 144.392 201.861 144.75 202.723 145.39C204.833 146.653 207.587 148.407 209.62 149.779C210.436 149.726 211.218 149.431 211.866 148.932C214.191 152.203 215.649 156.01 216.102 159.998C215.019 161.164 213.658 162.036 212.145 162.531Z" fill="#EC407A"/>
<path opacity="0.6" d="M212.145 162.531C211.425 162.664 210.686 162.652 209.97 162.497C209.254 162.341 208.577 162.045 207.977 161.625C206.778 160.783 205.715 159.763 204.825 158.6C203.13 156.532 200.588 153.041 199.105 150.788C197.927 152.364 195.148 153.101 194.996 153.152C192.959 153.943 190.87 154.592 188.743 155.092C188.464 154.977 188.218 154.794 188.027 154.56C187.836 154.327 187.707 154.049 187.65 153.753C187.553 153.403 187.566 153.031 187.685 152.687C187.805 152.344 188.026 152.045 188.319 151.83C191.812 149.717 195.173 147.394 198.385 144.873C198.784 144.58 199.256 144.404 199.749 144.365C200.822 144.392 201.861 144.75 202.723 145.39C204.833 146.653 207.587 148.407 209.62 149.779C210.436 149.726 211.218 149.431 211.866 148.932C214.191 152.203 215.649 156.01 216.102 159.998C215.019 161.164 213.658 162.036 212.145 162.531Z" fill="black"/>
<path opacity="0.2" d="M200.139 150.084L200.851 153.491L204.265 157.914L200.139 150.084Z" fill="black"/>
<path d="M193.598 134.918C194.445 135.121 194.886 133.731 195.165 132.884C196.521 128.792 195.962 121.098 193.869 117.48C193.369 116.633 191.937 115.133 190.963 115.345C190.2 115.523 189.675 133.969 193.598 134.918Z" fill="#FFBE9D"/>
<path opacity="0.2" d="M193.598 134.918C194.445 135.121 194.886 133.731 195.165 132.884C196.521 128.792 195.962 121.098 193.869 117.48C193.369 116.633 191.937 115.133 190.963 115.345C190.2 115.523 189.675 133.969 193.598 134.918Z" fill="black"/>
<path d="M179.024 153.16C184.396 143.84 195.894 126.656 195.894 126.656C195.889 124.51 195.587 122.374 194.996 120.31C193.149 115.345 191.31 114.557 188.938 115.65C183.515 118.192 174.533 137.349 171.78 142.323C170.948 143.837 170.726 145.612 171.159 147.285C171.592 148.957 172.648 150.401 174.11 151.322C175.562 152.348 177.255 152.982 179.024 153.16Z" fill="#FFBE9D"/>
<path d="M174.923 142.848C184.032 144.823 190.259 153.635 199.139 156.405C198.809 157.931 199.139 161.769 196.902 161.769C196.902 161.769 177.041 157.143 170.636 149.729C169.416 148.322 170.059 145.958 170.932 144.314C171.805 142.671 173.101 142.442 174.923 142.848Z" fill="#FFBE9D"/>
<path d="M233.481 131.833C233.355 131.542 233.25 131.242 233.167 130.935C233.154 130.888 233.16 130.838 233.184 130.795C233.208 130.752 233.247 130.72 233.294 130.706C233.319 130.7 233.344 130.699 233.369 130.703C233.394 130.707 233.418 130.716 233.44 130.729C233.461 130.743 233.479 130.761 233.494 130.781C233.508 130.802 233.518 130.826 233.523 130.85C233.921 132.418 233.887 132.113 235.379 132.723C235.402 132.731 235.424 132.743 235.443 132.759C235.461 132.775 235.477 132.795 235.488 132.817C235.499 132.839 235.505 132.863 235.507 132.888C235.509 132.912 235.505 132.937 235.497 132.96C235.482 133.008 235.448 133.048 235.404 133.071C235.36 133.095 235.308 133.101 235.26 133.087C233.972 132.571 233.701 132.418 233.481 131.833Z" fill="#263238"/>
<path d="M234.252 132.147C232.981 132.241 231.703 132.155 230.456 131.893C230.4 132.214 230.413 132.543 230.495 132.859C230.577 133.175 230.725 133.469 230.93 133.723L234.252 132.147Z" fill="#ED893E"/>
<path d="M236.641 132.74C236.613 132.718 236.59 132.689 236.574 132.657C236.558 132.625 236.549 132.59 236.548 132.554C236.502 132.133 236.357 131.729 236.124 131.375C235.891 131.022 235.578 130.729 235.209 130.52C235.129 130.478 235.068 130.408 235.039 130.323C235.009 130.238 235.012 130.145 235.048 130.062C235.088 129.983 235.157 129.923 235.241 129.893C235.324 129.863 235.416 129.866 235.497 129.901C235.962 130.159 236.358 130.524 236.653 130.967C236.948 131.409 237.133 131.915 237.192 132.443C237.204 132.53 237.183 132.617 237.133 132.688C237.082 132.759 237.006 132.808 236.921 132.825C236.871 132.835 236.819 132.833 236.77 132.818C236.721 132.803 236.677 132.776 236.641 132.74Z" fill="#263238"/>
<path opacity="0.2" d="M228.151 142.069C228.314 142.658 228.544 143.227 228.837 143.763C229.08 144.221 229.363 144.654 229.685 145.06L231.244 142.764C230.711 142.917 230.149 142.934 229.608 142.812C229.068 142.691 228.567 142.435 228.151 142.069Z" fill="black"/>
<path d="M245.19 142.925C241.844 145.695 239.793 147.687 236.861 148.009C236.3 148.082 235.732 148.096 235.167 148.051C234.088 147.966 233.038 147.657 232.086 147.143C231.133 146.63 230.298 145.923 229.634 145.068C229.308 144.667 229.024 144.232 228.787 143.772C228.493 143.235 228.263 142.667 228.1 142.077C226.465 140.73 226.592 137.688 228.363 135.494C230.447 132.901 234.294 130.139 238.243 129.563C239.773 129.329 241.337 129.571 242.725 130.257C248.139 132.935 249.139 139.646 245.19 142.925Z" fill="#FFBE9D"/>
<path d="M235.98 145.856C233.599 147.246 231.117 149.246 231.074 151.542C231.074 151.542 228.176 152.533 224.253 147.365C219.949 141.662 224.516 142.874 224.516 142.874C227.363 144.729 230.074 144.433 231.447 142.535L235.743 143.738C236.038 143.832 236.284 144.038 236.427 144.313C236.57 144.588 236.598 144.908 236.505 145.204C236.421 145.481 236.233 145.715 235.98 145.856Z" fill="#FFBE9D"/>
<path opacity="0.2" d="M245.19 142.925C241.844 145.695 239.793 147.686 236.861 148.008C236.156 147.971 235.47 147.769 234.857 147.417C234.245 147.065 233.724 146.574 233.337 145.983C231.54 143.001 231.489 138.688 234.497 137.129C235.521 135.44 236.342 133.637 236.946 131.757C238.556 131.189 241.293 129.486 242.767 130.215C248.139 132.935 249.139 139.646 245.19 142.925Z" fill="black"/>
<path d="M236.726 136.832C235.801 137.438 234.702 137.721 233.599 137.637C232.15 137.519 232.057 136.299 232.998 135.367C233.938 134.435 235.607 133.57 236.828 134.172C238.048 134.773 237.836 136.07 236.726 136.832Z" fill="#FFBE9D"/>
<path d="M219.102 133.528L222.55 131.91C223.573 131.953 224.566 132.262 225.431 132.808C225.711 132.969 225.533 135.172 225.152 135.35C224.471 135.653 223.753 135.863 223.016 135.977L220 135.57C220 135.57 219.407 134.308 219.102 133.528Z" fill="#FFBE9D"/>
<path d="M209.12 158.803C208.39 158.856 207.656 158.762 206.962 158.528C206.269 158.293 205.628 157.923 205.079 157.439C203.979 156.459 203.036 155.316 202.283 154.05C200.8 151.796 198.716 148.042 197.47 145.636C196.123 147.076 193.276 147.492 193.115 147.525C191.005 148.091 188.859 148.51 186.692 148.78C186.405 148.614 186.165 148.376 185.997 148.09C185.828 147.805 185.737 147.48 185.731 147.148C185.725 146.817 185.805 146.489 185.963 146.197C186.121 145.905 186.352 145.66 186.633 145.483C190.341 143.777 193.94 141.844 197.411 139.696C197.84 139.449 198.33 139.326 198.826 139.34C199.89 139.489 200.883 139.959 201.673 140.688C203.63 142.179 206.163 144.238 208.036 145.831C208.853 145.863 209.661 145.65 210.358 145.221C212.305 148.734 213.328 152.685 213.332 156.702C212.129 157.748 210.68 158.471 209.12 158.803Z" fill="#EC407A"/>
<path opacity="0.6" d="M209.12 158.803C208.39 158.856 207.656 158.762 206.962 158.528C206.269 158.293 205.628 157.923 205.079 157.439C203.979 156.459 203.036 155.316 202.283 154.05C200.8 151.796 198.716 148.042 197.47 145.636C196.123 147.076 193.276 147.492 193.115 147.525C191.005 148.091 188.859 148.51 186.692 148.78C186.405 148.614 186.165 148.376 185.997 148.09C185.828 147.805 185.737 147.48 185.731 147.148C185.725 146.817 185.805 146.489 185.963 146.197C186.121 145.905 186.352 145.66 186.633 145.483C190.341 143.777 193.94 141.844 197.411 139.696C197.84 139.449 198.33 139.326 198.826 139.34C199.89 139.489 200.883 139.959 201.673 140.688C203.63 142.179 206.163 144.238 208.036 145.831C208.853 145.863 209.661 145.65 210.358 145.221C212.305 148.734 213.328 152.685 213.332 156.702C212.129 157.748 210.68 158.471 209.12 158.803Z" fill="black"/>
<path d="M215.857 160.167C212.273 156.109 209.273 151.076 208.231 145.763C210.612 143.331 216.704 143.602 216.704 143.602C219.424 142.094 223.338 138.654 226.194 139.891C226.194 139.891 231.456 145.339 232.972 149.754C233.303 150.711 230.507 153.008 229.583 153.431C224.033 156.016 215.857 160.167 215.857 160.167Z" fill="#EC407A"/>
<g opacity="0.6">
<path d="M215.857 160.167C212.273 156.109 209.273 151.076 208.231 145.763C210.612 143.331 216.704 143.602 216.704 143.602C219.424 142.094 223.338 138.654 226.194 139.891C226.194 139.891 231.456 145.339 232.972 149.754C233.303 150.711 230.507 153.008 229.583 153.431C224.033 156.016 215.857 160.167 215.857 160.167Z" fill="black"/>
</g>
<path d="M216.263 138.612H216.017C218.315 138.109 220.678 137.98 223.016 138.231C223.653 138.273 224.28 138.416 224.872 138.654C225.468 138.892 225.952 139.346 226.228 139.925C226.761 141.171 224.923 142.569 223.686 143.179C222.439 143.713 221.094 143.982 219.737 143.967C218.39 144.026 213.315 144.162 212.205 143.772C211.497 143.621 210.834 143.311 210.264 142.865C209.942 142.467 210.213 141.544 210.332 141.061C210.654 139.839 211.255 138.708 212.086 137.756C213.738 135.999 215.765 134.638 218.017 133.774L218.432 133.613C218.775 133.53 219.135 133.572 219.449 133.731C219.776 133.855 220.047 134.093 220.212 134.401C220.346 134.743 220.401 135.111 220.373 135.477C219.115 136.661 217.738 137.712 216.263 138.612Z" fill="#EC407A"/>
<path opacity="0.6" d="M216.263 138.612H216.017C218.315 138.109 220.678 137.98 223.016 138.231C223.653 138.273 224.28 138.416 224.872 138.654C225.468 138.892 225.952 139.346 226.228 139.925C226.761 141.171 224.923 142.569 223.686 143.179C222.439 143.713 221.094 143.982 219.737 143.967C218.39 144.026 213.315 144.162 212.205 143.772C211.497 143.621 210.834 143.311 210.264 142.865C209.942 142.467 210.213 141.544 210.332 141.061C210.654 139.839 211.255 138.708 212.086 137.756C213.738 135.999 215.765 134.638 218.017 133.774L218.432 133.613C218.775 133.53 219.135 133.572 219.449 133.731C219.776 133.855 220.047 134.093 220.212 134.401C220.346 134.743 220.401 135.111 220.373 135.477C219.115 136.661 217.738 137.712 216.263 138.612Z" fill="black"/>
<path d="M183.667 148.373C183.184 146.958 182.701 145.534 182.21 144.136C181.981 143.45 181.786 142.569 182.337 142.094C182.888 141.62 183.828 141.959 184.438 142.442C185.913 143.594 188.251 146.483 187.633 148.576C186.946 150.839 184.362 150.398 183.667 148.373Z" fill="#EC407A"/>
<path d="M185.582 145.39C185.582 145.39 185.235 148.085 186.531 149.22L190.598 148.11C190.598 148.11 188.904 145.678 189.463 144.094L185.582 145.39Z" fill="#EC407A"/>
<path d="M188.065 146.636C188.113 147.072 188.261 147.492 188.496 147.864C188.73 148.235 189.047 148.548 189.42 148.779C189.946 148.779 190.708 148.635 190.912 148.076C190.434 147.625 190.058 147.076 189.81 146.466C189.637 145.645 189.637 144.797 189.81 143.975C189.585 143.903 189.348 143.876 189.112 143.896C188.876 143.917 188.647 143.984 188.438 144.094C188.438 144.094 187.599 144.755 188.065 146.636Z" fill="#EC407A"/>
<path d="M196.69 156.117C197.656 155.702 199.614 154.779 201.02 154.101C202.076 153.599 203.273 153.476 204.409 153.753L209.883 155.075C210.16 155.143 210.414 155.282 210.621 155.478C210.827 155.674 210.979 155.921 211.061 156.194L211.908 158.913C212.03 159.314 211.992 159.745 211.802 160.118C211.613 160.491 211.286 160.776 210.891 160.913L206.579 162.447C205.826 162.709 205.022 162.794 204.232 162.692L196.233 161.642C196.233 161.642 192.217 158.015 196.69 156.117Z" fill="#FFBE9D"/>
<path d="M245.945 142.611C237.692 142.552 230.608 148.958 222.381 149.661C222.381 151.05 221.898 153.398 222.627 154.575C234.014 155.778 242.86 154.77 247.08 152.389C250.469 150.449 250.003 147.865 249.571 146.272C249.139 144.679 247.597 142.62 245.945 142.611Z" fill="#FFBE9D"/>
<path d="M222.313 149.144C220.737 148.398 216.475 146.094 216.475 146.094L210.544 146.382C209.99 146.407 209.456 146.599 209.012 146.931C208.568 147.263 208.234 147.721 208.053 148.246L207.358 150.262C207.124 150.935 207.158 151.672 207.453 152.321C207.748 152.969 208.281 153.479 208.943 153.745L213.315 155.507L222.567 154.66C222.567 154.66 226.711 151.237 222.313 149.144Z" fill="#FFBE9D"/>
<path d="M199.834 112.481C200.676 115.461 202.352 118.138 204.666 120.196C206.979 122.254 209.833 123.608 212.891 124.097C215.077 124.411 217.356 123.004 218.915 121.445C220.495 119.855 221.448 117.75 221.601 115.514C214.23 111.633 206.934 111.294 199.834 112.481Z" fill="#FFBE9D"/>
<path d="M227.897 88.6205C227.838 88.6079 227.778 88.6079 227.719 88.6205C227.674 88.6286 227.631 88.6456 227.593 88.6707C227.555 88.6957 227.522 88.7282 227.497 88.7661C227.471 88.8041 227.454 88.8468 227.446 88.8917C227.437 88.9366 227.438 88.9827 227.448 89.0272C227.546 89.5818 227.778 90.1037 228.126 90.547C228.473 90.9903 228.924 91.3414 229.439 91.5692C229.482 91.5851 229.527 91.5923 229.573 91.5902C229.619 91.5882 229.663 91.5769 229.704 91.5571C229.746 91.5373 229.782 91.5094 229.812 91.4751C229.842 91.4408 229.865 91.4007 229.88 91.3573C229.896 91.3134 229.903 91.2667 229.901 91.2199C229.899 91.1731 229.888 91.1271 229.869 91.0846C229.849 91.0421 229.821 91.0039 229.787 90.9722C229.752 90.9405 229.712 90.9159 229.668 90.8998C229.262 90.7204 228.906 90.4443 228.631 90.0958C228.357 89.7472 228.171 89.3367 228.092 88.9001C228.088 88.8402 228.067 88.7825 228.033 88.7333C227.999 88.684 227.952 88.645 227.897 88.6205Z" fill="#263238"/>
<path d="M221.186 86.9258C221.133 86.9009 221.075 86.8879 221.017 86.8879C220.958 86.8879 220.9 86.9009 220.847 86.9258C220.491 87.2009 220.077 87.3912 219.637 87.4823C219.196 87.5733 218.741 87.5627 218.305 87.4511C218.261 87.4349 218.215 87.4275 218.168 87.4294C218.121 87.4313 218.075 87.4424 218.033 87.462C217.99 87.4817 217.952 87.5096 217.92 87.5441C217.888 87.5785 217.864 87.619 217.848 87.663C217.819 87.7519 217.825 87.8482 217.865 87.933C217.904 88.0177 217.973 88.0846 218.06 88.1205C218.61 88.2827 219.191 88.3104 219.754 88.2013C220.318 88.0921 220.846 87.8494 221.296 87.4935C221.335 87.4665 221.368 87.432 221.393 87.3921C221.418 87.3523 221.435 87.3078 221.443 87.2613C221.451 87.2147 221.45 87.1671 221.439 87.1212C221.428 87.0752 221.409 87.0318 221.381 86.9936C221.323 86.9553 221.256 86.932 221.186 86.9258Z" fill="#263238"/>
<path d="M217.67 99.3389C217.423 99.0332 217.202 98.7072 217.009 98.3645C216.977 98.3138 216.966 98.2525 216.979 98.1939C216.991 98.1352 217.027 98.0839 217.077 98.051C217.133 98.0236 217.198 98.0189 217.258 98.0378C217.318 98.0567 217.368 98.0978 217.399 98.1527C217.877 99.0229 218.554 99.7685 219.374 100.329C220.193 100.89 221.134 101.25 222.118 101.381C222.18 101.385 222.237 101.413 222.278 101.459C222.319 101.505 222.341 101.565 222.338 101.627C222.334 101.689 222.306 101.747 222.261 101.79C222.215 101.832 222.155 101.856 222.093 101.855C221.225 101.752 220.387 101.476 219.627 101.044C218.867 100.612 218.202 100.032 217.67 99.3389Z" fill="#263238"/>
<path opacity="0.2" d="M228.346 125.623C227.499 124.775 226.109 124.674 224.88 124.775C219.182 125.151 213.72 127.2 209.18 130.664C214.509 128.342 220.195 125.97 225.94 126.682C226.736 126.258 227.549 126.004 228.346 125.623Z" fill="black"/>
<defs>
<linearGradient id="paint0_linear_493_4143" x1="215" y1="0" x2="215" y2="384" gradientUnits="userSpaceOnUse">
<stop stop-color="#42A5F5"/>
<stop offset="1" stop-color="white" stop-opacity="0"/>
</linearGradient>
</defs>
</svg>
