<svg width="360" height="289" viewBox="0 0 360 289" fill="none" xmlns="http://www.w3.org/2000/svg">
<path d="M360 255.567H0V255.747H360V255.567Z" fill="#EBEBEB"/>
<path d="M61.6176 262.422H37.7712V262.602H61.6176V262.422Z" fill="#EBEBEB"/>
<path d="M129.478 260.47H98.1576V260.65H129.478V260.47Z" fill="#EBEBEB"/>
<path d="M86.6376 266.136H58.7376V266.316H86.6376V266.136Z" fill="#EBEBEB"/>
<path d="M323.928 267.9H292.831V268.08H323.928V267.9Z" fill="#EBEBEB"/>
<path d="M286.416 267.9H272.88V268.08H286.416V267.9Z" fill="#EBEBEB"/>
<path d="M198 264.862H171.677V265.042H198V264.862Z" fill="#EBEBEB"/>
<path d="M170.64 223.455H31.6152C30.5261 223.453 29.4822 223.019 28.7128 222.248C27.9433 221.478 27.5112 220.433 27.5112 219.344V23.9143C27.5207 22.8314 27.957 21.7961 28.7254 21.033C29.4938 20.27 30.5323 19.841 31.6152 19.8391H170.64C171.73 19.8391 172.776 20.2723 173.547 21.0433C174.318 21.8143 174.751 22.86 174.751 23.9503V219.344C174.751 220.434 174.318 221.48 173.547 222.251C172.776 223.022 171.73 223.455 170.64 223.455ZM31.6152 19.9831C30.5738 19.985 29.5757 20.4 28.84 21.1371C28.1044 21.8741 27.6912 22.8729 27.6912 23.9143V219.344C27.6912 220.385 28.1044 221.384 28.84 222.121C29.5757 222.858 30.5738 223.273 31.6152 223.275H170.64C171.682 223.273 172.681 222.858 173.418 222.122C174.154 221.385 174.569 220.386 174.571 219.344V23.9143C174.569 22.8723 174.154 21.8735 173.418 21.1366C172.681 20.3998 171.682 19.985 170.64 19.9831H31.6152Z" fill="#EBEBEB"/>
<path d="M326.383 223.455H187.351C186.261 223.453 185.217 223.019 184.446 222.249C183.676 221.478 183.242 220.434 183.24 219.344V23.9143C183.251 22.8308 183.689 21.7954 184.459 21.0326C185.228 20.2697 186.268 19.8409 187.351 19.8391H326.383C327.465 19.8429 328.501 20.2727 329.268 21.0356C330.035 21.7984 330.471 22.8327 330.48 23.9143V219.344C330.48 220.432 330.049 221.475 329.281 222.246C328.513 223.016 327.471 223.451 326.383 223.455ZM187.351 19.9831C186.309 19.985 185.31 20.3998 184.574 21.1366C183.837 21.8735 183.422 22.8723 183.42 23.9143V219.344C183.422 220.386 183.837 221.385 184.574 222.122C185.31 222.858 186.309 223.273 187.351 223.275H326.383C327.425 223.273 328.424 222.858 329.161 222.122C329.898 221.385 330.312 220.386 330.314 219.344V23.9143C330.312 22.8723 329.898 21.8735 329.161 21.1366C328.424 20.3998 327.425 19.985 326.383 19.9831H187.351Z" fill="#EBEBEB"/>
<path d="M242.734 166.438H227.75V255.567H242.734V166.438Z" fill="#E6E6E6"/>
<path d="M239.89 255.567H242.734V247.474H236.909L239.89 255.567Z" fill="#F0F0F0"/>
<path d="M167.429 166.438H152.446V255.567H167.429V166.438Z" fill="#E6E6E6"/>
<path d="M242.741 166.438H164.945V250.599H242.741V166.438Z" fill="#F0F0F0"/>
<path d="M240.53 168.648H167.148V184.589H240.53V168.648Z" fill="#E6E6E6"/>
<path d="M240.53 186.418H204.797V240.483H240.53V186.418Z" fill="#E6E6E6"/>
<path d="M202.882 186.418H167.148V240.483H202.882V186.418Z" fill="#E6E6E6"/>
<path d="M194.89 192.128C194.888 192.63 195.036 193.121 195.314 193.539C195.592 193.956 195.987 194.282 196.451 194.475C196.914 194.668 197.424 194.719 197.917 194.621C198.409 194.523 198.861 194.282 199.216 193.927C199.571 193.572 199.812 193.12 199.91 192.628C200.008 192.135 199.957 191.625 199.764 191.162C199.571 190.698 199.245 190.303 198.828 190.025C198.41 189.747 197.919 189.599 197.417 189.601C196.747 189.602 196.105 189.869 195.632 190.343C195.158 190.816 194.891 191.458 194.89 192.128Z" fill="#FAFAFA"/>
<path d="M210.254 194.655C211.65 194.655 212.782 193.524 212.782 192.128C212.782 190.732 211.65 189.601 210.254 189.601C208.859 189.601 207.727 190.732 207.727 192.128C207.727 193.524 208.859 194.655 210.254 194.655Z" fill="#FAFAFA"/>
<path d="M167.789 255.567H164.945V247.474H170.77L167.789 255.567Z" fill="#F0F0F0"/>
<path d="M201.643 176.734C201.643 177.236 201.792 177.726 202.071 178.143C202.35 178.56 202.746 178.885 203.209 179.077C203.673 179.268 204.183 179.318 204.675 179.22C205.167 179.121 205.618 178.879 205.972 178.524C206.326 178.169 206.567 177.716 206.664 177.224C206.761 176.732 206.71 176.222 206.517 175.759C206.324 175.296 205.998 174.901 205.58 174.624C205.163 174.346 204.672 174.199 204.17 174.2C203.838 174.2 203.509 174.266 203.202 174.393C202.895 174.52 202.616 174.707 202.381 174.943C202.146 175.178 201.96 175.458 201.834 175.765C201.707 176.072 201.642 176.402 201.643 176.734Z" fill="#FAFAFA"/>
<path d="M161.482 166.438H146.498V255.567H161.482V166.438Z" fill="#E6E6E6"/>
<path d="M158.638 255.567H161.482V247.474H155.657L158.638 255.567Z" fill="#F0F0F0"/>
<path d="M86.1696 166.438H71.1864V255.567H86.1696V166.438Z" fill="#E6E6E6"/>
<path d="M161.482 166.438H83.6856V250.599H161.482V166.438Z" fill="#F0F0F0"/>
<path d="M159.278 168.648H123.538V240.483H159.278V168.648Z" fill="#E6E6E6"/>
<path d="M121.63 168.648H85.896V240.483H121.63V168.648Z" fill="#E6E6E6"/>
<path d="M113.638 174.358C113.636 174.86 113.784 175.351 114.062 175.769C114.34 176.187 114.735 176.513 115.199 176.706C115.662 176.898 116.172 176.949 116.665 176.852C117.157 176.754 117.609 176.512 117.964 176.158C118.319 175.803 118.56 175.35 118.658 174.858C118.756 174.366 118.705 173.856 118.512 173.392C118.319 172.929 117.993 172.533 117.576 172.255C117.158 171.977 116.667 171.83 116.165 171.831C115.495 171.833 114.853 172.1 114.38 172.573C113.906 173.047 113.639 173.689 113.638 174.358Z" fill="#FAFAFA"/>
<path d="M126.475 174.358C126.474 174.86 126.621 175.351 126.899 175.769C127.177 176.187 127.573 176.513 128.036 176.706C128.5 176.898 129.01 176.949 129.502 176.852C129.995 176.754 130.447 176.512 130.802 176.158C131.157 175.803 131.398 175.35 131.496 174.858C131.593 174.366 131.542 173.856 131.35 173.392C131.157 172.929 130.831 172.533 130.413 172.255C129.995 171.977 129.504 171.83 129.002 171.831C128.333 171.833 127.691 172.1 127.218 172.573C126.744 173.047 126.477 173.689 126.475 174.358Z" fill="#FAFAFA"/>
<path d="M86.5368 255.567H83.6856V247.474H89.5176L86.5368 255.567Z" fill="#F0F0F0"/>
<path d="M258.631 37.5149H198.187V103.877H258.631V37.5149Z" fill="#E6E6E6"/>
<path d="M263.808 37.5149H198.994V103.877H263.808V37.5149Z" fill="#F5F5F5"/>
<path d="M259.668 99.7445V41.6477H203.119V99.7445H259.668Z" fill="white"/>
<path d="M222.934 91.3564C219.709 88.1179 217.898 83.7337 217.898 79.1632C217.898 74.5928 219.709 70.2086 222.934 66.97L239.868 50.0356C243.093 53.2742 244.904 57.6584 244.904 62.2288C244.904 66.7993 243.093 71.1835 239.868 74.422L222.934 91.3564Z" fill="#F5F5F5"/>
<path d="M309.953 82.9614H274.183V123.332H309.953V82.9614Z" fill="#E6E6E6"/>
<path d="M315.122 82.9614H275.054V123.332H315.122V82.9614Z" fill="#F5F5F5"/>
<path d="M310.997 119.199V87.0945H279.194V119.199H310.997Z" fill="white"/>
<path d="M297.963 109.67L301.608 106.025C303.197 104.436 303.197 101.861 301.608 100.272L297.963 96.6267C296.374 95.038 293.798 95.038 292.21 96.6266L288.565 100.272C286.976 101.861 286.976 104.436 288.565 106.025L292.21 109.67C293.798 111.259 296.374 111.259 297.963 109.67Z" fill="#F5F5F5"/>
<path d="M298.8 241.261H299.866C299.866 236.725 299.866 235.198 299.974 208.81C300.168 160.981 300.535 158.065 300.535 158.065L298.001 180.147C296.381 204.598 298.454 219.171 298.8 241.261Z" fill="#F0F0F0"/>
<path d="M303.984 255.567H293.112C286.193 255.567 285.79 250.707 284.364 244.133C284.025 242.391 283.531 240.683 282.888 239.029L282.78 238.762H314.316L314.208 239.029C313.58 240.685 313.099 242.393 312.768 244.133C311.314 250.707 310.903 255.567 303.984 255.567Z" fill="#FAFAFA"/>
<path d="M315.086 240.361H282.017C281.663 240.363 281.321 240.235 281.055 240.002C280.79 239.768 280.619 239.445 280.577 239.093L279.943 234.291C279.913 234.085 279.928 233.875 279.987 233.676C280.045 233.476 280.147 233.292 280.283 233.135C280.42 232.978 280.589 232.853 280.779 232.768C280.969 232.683 281.175 232.64 281.383 232.642H315.72C315.928 232.64 316.134 232.683 316.324 232.768C316.514 232.853 316.683 232.978 316.82 233.135C316.957 233.292 317.058 233.476 317.117 233.676C317.175 233.875 317.19 234.085 317.16 234.291L316.526 239.093C316.484 239.445 316.314 239.768 316.048 240.002C315.783 240.235 315.44 240.363 315.086 240.361Z" fill="#F0F0F0"/>
<path d="M297.878 196.894C304.099 186.051 287.964 182.17 282.758 172.508C276.48 180.14 290.585 209.595 297.878 196.894Z" fill="#F0F0F0"/>
<path d="M299.074 184.64C296.676 179.175 308.232 172.544 310.723 163.659C315.36 168.793 306.18 200.818 299.074 184.64Z" fill="#F0F0F0"/>
<path d="M299.7 169.376C301.248 156.776 293.04 157.856 289.62 150.325C284.522 155.71 298.498 179.103 299.7 169.376Z" fill="#F0F0F0"/>
<path d="M299.232 164.868C297.137 155.271 304.142 156.776 303.228 147.308C311.393 154.479 301.73 176.309 299.232 164.868Z" fill="#F0F0F0"/>
<path d="M298.987 204.022C300.938 197.132 312.127 202.1 317.837 189.161C323.906 207.435 293.558 223.145 298.987 204.022Z" fill="#F0F0F0"/>
<path d="M299.52 213.346C299.354 206.794 292.284 212.626 279.36 200.948C277.049 212.979 299.887 229.532 299.52 213.346Z" fill="#F0F0F0"/>
<path d="M153.353 37.5149H45.9V149.604H153.353V37.5149Z" fill="#E6E6E6"/>
<path d="M156.362 37.5149H48.9096V149.604H156.362V37.5149Z" fill="#F5F5F5"/>
<path d="M150.962 144.557V42.562L54.3168 42.562V144.557H150.962Z" fill="white"/>
<path d="M150.962 144.557V42.562H148.687V144.557H150.962Z" fill="#E6E6E6"/>
<path d="M154.13 114.267H51.1488V121.042H154.13V114.267Z" fill="#F5F5F5"/>
<path d="M154.13 51.4614H51.1488V58.2366H154.13V51.4614Z" fill="#F5F5F5"/>
<path d="M180 288.082C257.099 288.082 319.601 284.433 319.601 279.932C319.601 275.43 257.099 271.781 180 271.781C102.901 271.781 40.3992 275.43 40.3992 279.932C40.3992 284.433 102.901 288.082 180 288.082Z" fill="#F5F5F5"/>
<path d="M73.0944 105.432C70.7152 104.652 68.1727 104.51 65.7216 105.022C64.0728 105.281 61.2504 103.805 59.3424 101.472C59.2602 101.972 59.2817 102.483 59.4055 102.973C59.5294 103.464 59.7529 103.924 60.0623 104.325C60.3716 104.725 60.7602 105.058 61.2036 105.302C61.6471 105.545 62.136 105.695 62.64 105.742C60.0984 107.542 55.368 105.548 54.828 102.228C54.288 98.9092 57.9168 98.938 55.6992 93.1204C53.4816 87.3028 59.3784 89.8876 61.272 81.2332C63.1656 72.5788 72.4896 73.3132 74.0376 76.5172C79.3872 74.314 82.044 77.554 84.1176 82.4356C85.9248 86.7556 85.5576 90.1324 88.2288 97.2892C90.72 104.079 80.7408 107.592 73.0944 105.432Z" fill="#263238"/>
<path d="M63.36 105.079C63.0278 105.072 62.6992 105.009 62.388 104.892C61.4614 104.482 60.6355 103.874 59.9677 103.112C59.2999 102.35 58.8064 101.451 58.5216 100.479C58.5082 100.433 58.5136 100.384 58.5366 100.342C58.5595 100.3 58.5982 100.269 58.644 100.255C58.6898 100.242 58.7391 100.248 58.781 100.27C58.8228 100.293 58.8538 100.332 58.8672 100.378C59.135 101.304 59.6025 102.161 60.2369 102.887C60.8713 103.614 61.6572 104.193 62.5392 104.583C62.7926 104.699 63.0694 104.754 63.3479 104.746C63.6264 104.737 63.8992 104.664 64.1448 104.532C64.1641 104.518 64.186 104.509 64.2092 104.503C64.2324 104.498 64.2564 104.497 64.2798 104.501C64.3032 104.505 64.3256 104.514 64.3457 104.527C64.3658 104.539 64.3832 104.556 64.3968 104.575C64.4103 104.595 64.4197 104.618 64.4244 104.641C64.4292 104.664 64.4292 104.689 64.4245 104.712C64.4198 104.736 64.4105 104.758 64.3971 104.778C64.3837 104.797 64.3664 104.814 64.3464 104.827C64.0528 105.014 63.7072 105.103 63.36 105.079Z" fill="#263238"/>
<path d="M85.5792 91.4935C85.5321 91.4847 85.4901 91.4581 85.462 91.4193C85.4338 91.3804 85.4217 91.3322 85.428 91.2847C86.436 85.5247 85.5144 81.0247 82.8432 78.5767C82.0347 77.8268 81.0492 77.2942 79.979 77.0285C78.9087 76.7628 77.7886 76.7728 76.7232 77.0575C76.7001 77.064 76.6758 77.0658 76.6519 77.0627C76.6281 77.0597 76.6051 77.0519 76.5842 77.0398C76.5634 77.0278 76.5453 77.0116 76.5308 76.9924C76.5163 76.9732 76.5059 76.9512 76.5 76.9279C76.4936 76.9052 76.4919 76.8814 76.495 76.858C76.4981 76.8346 76.506 76.8121 76.5181 76.7919C76.5302 76.7716 76.5464 76.7541 76.5656 76.7403C76.5848 76.7266 76.6066 76.7169 76.6296 76.7119C77.7567 76.4076 78.9426 76.3946 80.0761 76.6741C81.2095 76.9537 82.2534 77.5167 83.1096 78.3103C84.7152 79.7503 87.192 83.4223 85.8096 91.3423C85.8054 91.3678 85.796 91.3923 85.7818 91.414C85.7677 91.4357 85.7493 91.4542 85.7276 91.4685C85.7059 91.4827 85.6816 91.4922 85.656 91.4965C85.6305 91.5008 85.6043 91.4998 85.5792 91.4935Z" fill="#263238"/>
<path d="M88.128 151.225C88.128 151.225 88.128 190.105 85.7664 211.172C85.5216 230.943 81.0072 275.612 81.0072 275.612H76.0176C75.1824 253.45 69.0048 232.757 73.1376 213.209C63.54 174.819 67.9968 151.289 67.9968 151.289L88.128 151.225Z" fill="#FFBE9D"/>
<path d="M82.692 151.253C82.692 151.253 74.5416 194.381 71.7264 212.799C68.7672 232.102 64.3536 269.557 64.5264 275.648H60.2064C60.2064 275.648 53.0064 237.761 59.6736 213.469C54.144 158.849 65.6496 151.289 65.6496 151.289L82.692 151.253Z" fill="#FFBE9D"/>
<path d="M92.0304 116.751C91.98 118.652 91.8792 120.553 91.8 122.453C91.7208 124.354 91.6056 126.255 91.4904 128.156C91.26 131.95 90.9864 135.752 90.6912 139.546L90.612 138.704L91.008 141.109C91.1448 141.908 91.2456 142.721 91.368 143.535C91.4904 144.349 91.584 145.169 91.6704 145.99C91.7568 146.811 91.836 147.639 91.872 148.474C91.8865 148.844 91.7765 149.207 91.5597 149.506C91.3429 149.806 91.0319 150.023 90.6764 150.125C90.321 150.226 89.9419 150.205 89.5999 150.065C89.2578 149.925 88.9728 149.674 88.7904 149.353C88.38 148.633 88.0272 147.848 87.66 147.092C87.2928 146.336 86.9832 145.573 86.6592 144.802C86.3352 144.032 86.04 143.254 85.7592 142.477C85.4784 141.699 85.1904 140.907 84.9312 140.108C84.8744 139.924 84.8453 139.732 84.8448 139.539V139.265C84.888 135.457 84.9528 131.655 85.068 127.853C85.1184 125.953 85.1904 124.052 85.2696 122.151C85.3488 120.25 85.428 118.357 85.5504 116.456C85.5895 115.597 85.9684 114.788 86.6037 114.208C87.239 113.628 88.0787 113.324 88.938 113.363C89.7973 113.403 90.6058 113.782 91.1858 114.417C91.7657 115.052 92.0695 115.892 92.0304 116.751Z" fill="#FFBE9D"/>
<path d="M88.128 108.723C92.6712 111.776 94.608 118.464 94.7088 122.662C92.6712 127.018 85.3488 127.702 85.3488 127.702C85.3488 127.702 83.2392 119.861 83.4192 116.038C83.5992 112.215 85.5072 106.959 88.128 108.723Z" fill="#263238"/>
<path d="M91.9152 115.736C91.9133 113.591 91.0924 111.529 89.6202 109.969C88.1481 108.41 86.1359 107.472 83.9952 107.348C82.764 107.268 81.4752 107.204 80.2296 107.189C76.374 107.197 72.524 107.483 68.7096 108.046C67.6224 108.176 66.5496 108.341 65.5488 108.521C64.6605 108.678 63.8141 109.016 63.0625 109.514C62.3109 110.013 61.6704 110.662 61.1811 111.419C60.6917 112.177 60.3641 113.027 60.2187 113.918C60.0733 114.808 60.1132 115.718 60.336 116.592C64.512 132.339 65.0952 143.859 63.504 150.922C63.504 150.922 58.464 157.625 56.2032 172.99C54.252 186.411 56.16 209.465 54 221.619C61.8192 227.213 85.2336 226.45 88.9056 223.174C87.8688 198.593 92.8944 166.388 89.0712 151.52C90.6048 143.276 90.9936 134.24 91.3032 129.2C96.588 124.664 91.908 121.589 91.9152 115.736Z" fill="#EC407A"/>
<path d="M88.452 151.671C86.292 150.735 87.1272 147.408 87.1272 147.408L86.6304 145.529C86.5717 145.362 86.5517 145.184 86.5719 145.009C86.5921 144.833 86.652 144.664 86.747 144.515C86.842 144.366 86.9697 144.24 87.1204 144.148C87.2711 144.055 87.4408 143.998 87.6168 143.981L88.8552 143.823C89.323 143.793 89.7891 143.904 90.1933 144.141C90.5975 144.379 90.9214 144.732 91.1232 145.155L91.404 145.767C91.8719 146.741 91.9987 147.844 91.764 148.899L91.44 150.375C91.3643 150.701 91.2167 151.006 91.008 151.267C90.6847 151.595 90.2652 151.811 89.8105 151.884C89.3559 151.956 88.89 151.882 88.4808 151.671H88.452Z" fill="#FFBE9D"/>
<path opacity="0.2" d="M74.592 202.308C73.908 192.416 74.592 177.62 80.64 169.325C79.056 179.844 74.592 202.308 74.592 202.308Z" fill="black"/>
<path d="M69.2136 95.05C70.1352 98.65 71.208 105.389 68.7456 108.01C74.7651 109.935 80.0449 113.668 83.8656 118.702C86.5656 110.062 80.2224 107.182 80.2224 107.182C76.0536 106.505 76.0032 103.445 76.572 100.529L69.2136 95.05Z" fill="#FFBE9D"/>
<path opacity="0.2" d="M72.216 97.2893L76.536 100.529C76.3919 101.207 76.31 101.896 76.2912 102.588C74.7 102.48 72.4536 100.918 72.2016 99.2837C72.0832 98.6237 72.0881 97.9475 72.216 97.2893Z" fill="black"/>
<path d="M64.9656 88.5775C66.7224 94.4671 67.3416 97.0015 71.0352 99.3127C76.5864 102.797 83.3472 99.2191 83.3688 92.8903C83.3688 87.1879 80.4888 78.4903 74.1888 77.5975C67.8888 76.7047 63.216 82.6879 64.9656 88.5775Z" fill="#FFBE9D"/>
<path d="M73.908 76.9708C78.4296 82.7308 66.9672 81.1252 68.0472 85.9636C69.1272 90.802 63.2016 91.9396 64.5984 95.6404C57.4056 94.4452 60.984 73.954 73.908 76.9708Z" fill="#263238"/>
<path d="M72.6192 77.5109C73.6848 81.2405 78.5376 79.6061 81.1944 81.7733C80.676 77.5109 73.9512 75.8693 72.6192 77.5109Z" fill="#263238"/>
<path d="M73.5192 88.0229C73.6344 88.5125 73.9872 88.8437 74.304 88.7429C74.6208 88.6421 74.7936 88.2029 74.6784 87.7205C74.5632 87.2381 74.2176 86.8997 73.8936 87.0005C73.5696 87.1013 73.44 87.5189 73.5192 88.0229Z" fill="#263238"/>
<path d="M79.5672 86.5826C79.6752 87.0722 80.028 87.3962 80.352 87.3026C80.676 87.209 80.8416 86.7626 80.7264 86.273C80.6112 85.7834 80.2584 85.4594 79.9416 85.553C79.6248 85.6466 79.452 86.0786 79.5672 86.5826Z" fill="#263238"/>
<path d="M79.8048 85.6181L80.9064 84.9773C80.9064 84.9773 80.5104 86.0789 79.8048 85.6181Z" fill="#263238"/>
<path d="M78.4296 87.375C79.123 88.3751 79.9544 89.272 80.8992 90.039C80.6921 90.2795 80.4358 90.4727 80.1477 90.6056C79.8595 90.7385 79.5462 90.808 79.2288 90.8094L78.4296 87.375Z" fill="#BA4D3C"/>
<path d="M64.9368 94.4884C65.2969 94.9152 65.7455 95.2586 66.2515 95.4949C66.7575 95.7311 67.3088 95.8545 67.8672 95.8564C69.3072 95.8204 69.5376 94.1788 68.7528 92.8324C68.0328 91.6156 66.456 90.1756 65.2104 90.8668C63.9648 91.558 63.9648 93.3796 64.9368 94.4884Z" fill="#FFBE9D"/>
<path d="M72.3744 85.9349C72.4482 85.8973 72.5049 85.8329 72.5328 85.7549C72.643 85.397 72.8341 85.0693 73.0913 84.7971C73.3485 84.5249 73.6649 84.3156 74.016 84.1853C74.0913 84.165 74.1555 84.1158 74.1946 84.0483C74.2337 83.9809 74.2446 83.9007 74.2248 83.8253C74.2157 83.7876 74.199 83.7522 74.1756 83.7212C74.1522 83.6903 74.1227 83.6646 74.0889 83.6457C74.0551 83.6267 74.0177 83.615 73.9791 83.6112C73.9406 83.6074 73.9016 83.6117 73.8648 83.6237C73.4174 83.7782 73.0127 84.0361 72.6837 84.3763C72.3547 84.7166 72.1106 85.1297 71.9712 85.5821C71.9589 85.6184 71.954 85.6569 71.9568 85.6952C71.9595 85.7335 71.97 85.7709 71.9874 85.8051C72.0049 85.8393 72.029 85.8697 72.0583 85.8944C72.0877 85.9192 72.1217 85.9378 72.1584 85.9493C72.2298 85.97 72.3063 85.9649 72.3744 85.9349Z" fill="#263238"/>
<path d="M81.7776 83.674C81.8351 83.6737 81.8913 83.6571 81.9396 83.6261C81.988 83.5951 82.0265 83.5509 82.0507 83.4988C82.0749 83.4467 82.0837 83.3887 82.0761 83.3318C82.0686 83.2748 82.045 83.2212 82.008 83.1772C81.703 82.8269 81.3179 82.5555 80.8853 82.3863C80.4528 82.217 79.9857 82.1549 79.524 82.2052C79.4462 82.2176 79.3763 82.26 79.3292 82.3232C79.2822 82.3864 79.2616 82.4654 79.272 82.5436C79.2844 82.6195 79.326 82.6875 79.3879 82.7333C79.4497 82.779 79.527 82.7988 79.6032 82.7884C79.9705 82.751 80.3414 82.8036 80.6839 82.9415C81.0263 83.0795 81.33 83.2988 81.5688 83.5804C81.5945 83.6105 81.6265 83.6345 81.6627 83.6507C81.6988 83.6669 81.738 83.6749 81.7776 83.674Z" fill="#263238"/>
<path d="M73.7568 87.0582L74.8584 86.4246C74.8584 86.4246 74.4696 87.519 73.7568 87.0582Z" fill="#263238"/>
<path d="M71.7696 152.636L76.7664 154.961L72.576 159.677C72.576 159.677 69.3864 157.143 68.58 154.227L68.8896 153.428C69.9048 152.513 70.4448 152.319 71.7696 152.636Z" fill="#FFBE9D"/>
<path d="M77.868 159.073L75.7944 160.851C75.4918 161.116 75.0991 161.255 74.6971 161.239C74.2952 161.223 73.9148 161.053 73.6344 160.765L72.54 159.677L76.7304 154.961L78.1128 157.013C78.3324 157.327 78.4288 157.71 78.3837 158.09C78.3385 158.47 78.1549 158.82 77.868 159.073Z" fill="#FFBE9D"/>
<path d="M66.3552 116.585C65.1672 120.236 63.9576 123.944 62.8344 127.616C62.28 129.459 61.7544 131.302 61.272 133.124C61.0344 134.031 60.8112 134.938 60.6312 135.824C60.4471 136.623 60.3172 137.434 60.2424 138.25C60.1272 139.201 60.66 140.684 61.5384 142.095C62.4844 143.594 63.577 144.995 64.8 146.278C66.0754 147.657 67.4263 148.965 68.8464 150.195C70.2864 151.455 71.7264 152.693 73.2312 153.845H73.2816C73.6051 154.088 73.8249 154.444 73.8971 154.842C73.9694 155.24 73.8888 155.651 73.6714 155.992C73.4539 156.333 73.1158 156.58 72.7245 156.682C72.3332 156.785 71.9176 156.736 71.5608 156.545C67.9291 154.69 64.5207 152.426 61.4016 149.799C59.7611 148.413 58.2807 146.848 56.988 145.133C56.2831 144.184 55.6798 143.163 55.188 142.088C54.6276 140.837 54.3334 139.484 54.324 138.113C54.335 136.974 54.4362 135.838 54.6264 134.715C54.792 133.671 54.9864 132.656 55.1952 131.662C55.6128 129.675 56.1168 127.731 56.6352 125.809C57.6864 121.957 58.86 118.198 60.192 114.433C60.4844 113.64 61.0745 112.994 61.8366 112.63C62.5987 112.267 63.4726 112.215 64.2722 112.486C65.0718 112.758 65.734 113.33 66.1177 114.082C66.5013 114.835 66.5762 115.707 66.3264 116.513L66.3552 116.585Z" fill="#FFBE9D"/>
<path d="M63.2808 109.4C59.6808 111.092 58.032 113.655 55.296 120.718C56.2536 125.427 64.5984 128.213 64.5984 128.213C65.8355 125.318 66.8207 122.321 67.5432 119.256C68.2704 115.498 66.96 107.679 63.2808 109.4Z" fill="#263238"/>
<path d="M75.636 275.648C75.669 275.558 75.7306 275.482 75.8114 275.431C75.8921 275.381 75.9874 275.358 76.0824 275.367L80.7192 275.302C81.2035 275.265 81.6883 275.367 82.116 275.597C84.2372 276.916 86.6161 277.766 89.0928 278.089C90.0792 278.24 89.6328 279.903 87.3144 279.925C83.4768 279.968 82.7856 279.68 79.5168 279.716C76.716 279.716 78.0768 279.874 75.8304 279.925C75.2976 279.925 74.8584 279.593 74.9304 279.205L75.636 275.648Z" fill="#263238"/>
<path d="M59.6592 275.648C59.6945 275.559 59.7577 275.483 59.8395 275.432C59.9212 275.382 60.0171 275.359 60.1128 275.367L63.8856 275.302C64.3677 275.264 64.8505 275.366 65.2752 275.598C66.6288 276.541 66.456 277.621 69.5952 278.089C70.5816 278.24 70.0992 279.903 67.7736 279.925C63.9432 279.968 64.1736 279.716 62.6184 279.716C61.0632 279.716 62.0136 279.874 59.7888 279.925C59.256 279.925 58.8312 279.594 58.9104 279.205L59.6592 275.648Z" fill="#263238"/>
<path d="M81.36 115.786C79.596 115.332 75.8376 115.642 73.9008 117.896C70.1784 116.456 66.6144 111.329 66.7008 108.104C67.4632 107.388 68.451 106.96 69.4944 106.894C69.4944 106.894 77.904 110.962 81.36 115.786Z" fill="#FAFAFA"/>
<path d="M84.5136 115.513C84.5136 115.513 85.032 111.257 79.884 107.125C80.4024 106.7 82.44 107.182 82.44 107.182C82.44 107.182 88.4592 109.767 88.2792 116.47C87.1966 115.673 85.8456 115.329 84.5136 115.513Z" fill="#FAFAFA"/>
<path d="M74.8008 92.6883C74.5038 92.5587 74.2194 92.4021 73.9512 92.2203C73.9355 92.2055 73.923 92.1876 73.9144 92.1678C73.9059 92.148 73.9015 92.1267 73.9015 92.1051C73.9015 92.0835 73.9059 92.0622 73.9144 92.0424C73.923 92.0226 73.9355 92.0047 73.9512 91.9899C73.9796 91.954 74.0203 91.9298 74.0654 91.9218C74.1105 91.9138 74.157 91.9227 74.196 91.9467C74.8043 92.3584 75.4978 92.6273 76.2247 92.7333C76.9516 92.8392 77.693 92.7796 78.3936 92.5587C78.4143 92.5492 78.4367 92.5442 78.4594 92.5438C78.4822 92.5434 78.5048 92.5476 78.5258 92.5564C78.5468 92.5651 78.5658 92.578 78.5816 92.5944C78.5974 92.6108 78.6096 92.6303 78.6176 92.6516C78.6255 92.6729 78.629 92.6956 78.6277 92.7184C78.6265 92.7411 78.6206 92.7633 78.6104 92.7836C78.6001 92.804 78.5859 92.822 78.5684 92.8365C78.5509 92.8511 78.5306 92.8619 78.5088 92.8683C77.2931 93.2695 75.9719 93.2053 74.8008 92.6883Z" fill="#263238"/>
<path d="M140.652 105.432C138.273 104.652 135.73 104.51 133.279 105.022C131.63 105.281 128.808 103.805 126.9 101.472C126.818 101.972 126.839 102.483 126.963 102.973C127.087 103.464 127.311 103.924 127.62 104.325C127.929 104.725 128.318 105.058 128.761 105.302C129.205 105.545 129.694 105.695 130.198 105.742C127.656 107.542 122.926 105.548 122.386 102.228C121.846 98.9092 125.474 98.938 123.257 93.1204C121.039 87.3028 126.936 89.8876 128.83 81.2332C130.723 72.5788 140.047 73.3132 141.595 76.5172C146.945 74.314 149.602 77.554 151.675 82.4356C153.482 86.7556 153.115 90.1324 155.786 97.2892C158.306 104.079 148.32 107.592 140.652 105.432Z" fill="#263238"/>
<path d="M130.946 105.079C130.614 105.072 130.286 105.009 129.974 104.892C129.039 104.482 128.206 103.872 127.533 103.104C126.86 102.337 126.363 101.43 126.079 100.45C126.073 100.427 126.071 100.403 126.073 100.38C126.076 100.356 126.083 100.334 126.094 100.313C126.106 100.292 126.121 100.274 126.139 100.259C126.158 100.244 126.179 100.233 126.202 100.227C126.224 100.22 126.248 100.218 126.272 100.221C126.295 100.223 126.318 100.23 126.339 100.242C126.359 100.253 126.378 100.268 126.392 100.287C126.407 100.305 126.418 100.326 126.425 100.349C126.693 101.276 127.16 102.132 127.795 102.859C128.429 103.585 129.215 104.164 130.097 104.554C130.35 104.67 130.627 104.726 130.906 104.717C131.184 104.708 131.457 104.635 131.702 104.503C131.722 104.49 131.744 104.48 131.767 104.475C131.79 104.469 131.814 104.469 131.837 104.473C131.861 104.477 131.883 104.485 131.903 104.498C131.923 104.511 131.941 104.527 131.954 104.547C131.968 104.566 131.977 104.589 131.982 104.612C131.987 104.636 131.987 104.66 131.982 104.683C131.977 104.707 131.968 104.729 131.955 104.749C131.941 104.769 131.924 104.786 131.904 104.799C131.622 104.99 131.287 105.088 130.946 105.079Z" fill="#263238"/>
<path d="M153.137 91.4935C153.09 91.4847 153.048 91.4581 153.02 91.4193C152.991 91.3804 152.979 91.3322 152.986 91.2847C153.994 85.5247 153.072 81.0247 150.401 78.5767C149.592 77.8268 148.607 77.2942 147.537 77.0285C146.466 76.7628 145.346 76.7728 144.281 77.0575C144.258 77.064 144.233 77.0658 144.209 77.0627C144.186 77.0597 144.163 77.0519 144.142 77.0398C144.121 77.0278 144.103 77.0116 144.088 76.9924C144.074 76.9732 144.063 76.9512 144.058 76.9279C144.051 76.9052 144.049 76.8814 144.053 76.858C144.056 76.8346 144.064 76.8121 144.076 76.7919C144.088 76.7716 144.104 76.7541 144.123 76.7403C144.142 76.7266 144.164 76.7169 144.187 76.7119C145.314 76.4076 146.5 76.3946 147.634 76.6741C148.767 76.9537 149.811 77.5167 150.667 78.3103C152.273 79.7503 154.75 83.4223 153.367 91.3423C153.363 91.3678 153.354 91.3923 153.339 91.414C153.325 91.4357 153.307 91.4542 153.285 91.4685C153.264 91.4827 153.239 91.4922 153.214 91.4965C153.188 91.5008 153.162 91.4998 153.137 91.4935Z" fill="#263238"/>
<path d="M156.694 151.225C156.694 151.225 156.694 190.105 154.325 211.172C154.087 230.943 149.573 275.612 149.573 275.612H144.583C143.741 253.45 137.57 232.757 141.667 213.209C132.077 174.819 136.526 151.289 136.526 151.289L156.694 151.225Z" fill="#FFBE9D"/>
<path d="M150.25 151.253C150.25 151.253 142.099 194.381 139.284 212.763C136.325 232.066 131.911 269.521 132.12 275.612H127.8C127.8 275.612 120.564 237.725 127.267 213.433C121.738 158.813 133.243 151.253 133.243 151.253H150.25Z" fill="#FFBE9D"/>
<path d="M159.588 116.542C159.66 118.436 159.667 120.308 159.689 122.194C159.71 124.081 159.689 125.953 159.689 127.839C159.631 131.605 159.509 135.363 159.221 139.201L159.142 138.358C159.25 138.992 159.365 139.647 159.538 140.317C159.71 140.986 159.89 141.663 160.121 142.34C160.351 143.017 160.567 143.715 160.841 144.406C161.114 145.097 161.359 145.846 161.561 146.48L161.611 146.624C161.729 146.968 161.728 147.342 161.61 147.686C161.491 148.03 161.261 148.324 160.956 148.522C160.651 148.721 160.288 148.812 159.926 148.781C159.563 148.75 159.221 148.599 158.954 148.352C158.339 147.771 157.759 147.153 157.219 146.501C156.686 145.852 156.189 145.174 155.729 144.471C154.769 143.012 154.004 141.434 153.454 139.777C153.397 139.6 153.368 139.415 153.367 139.229V138.927C153.403 135.291 153.317 131.554 153.266 127.839L153.18 122.252L153.13 116.665C153.12 116.239 153.194 115.816 153.347 115.419C153.501 115.022 153.731 114.659 154.025 114.351C154.319 114.044 154.671 113.797 155.06 113.625C155.449 113.453 155.869 113.359 156.294 113.349C156.719 113.339 157.143 113.413 157.54 113.567C157.937 113.72 158.299 113.951 158.607 114.245C158.915 114.538 159.162 114.89 159.334 115.279C159.506 115.669 159.6 116.088 159.61 116.513L159.588 116.542Z" fill="#FFBE9D"/>
<path d="M155.686 108.723C160.229 111.776 162.166 118.464 162.266 122.662C160.229 127.018 152.906 127.702 152.906 127.702C152.906 127.702 150.797 119.861 150.977 116.038C151.157 112.215 153.065 106.959 155.686 108.723Z" fill="#263238"/>
<path d="M159.473 115.736C159.471 113.591 158.65 111.529 157.178 109.969C155.706 108.41 153.693 107.472 151.553 107.348C150.322 107.268 149.033 107.204 147.787 107.189C143.944 107.199 140.106 107.485 136.303 108.046C135.216 108.176 134.143 108.341 133.142 108.521C132.254 108.678 131.408 109.016 130.656 109.514C129.905 110.013 129.264 110.662 128.775 111.419C128.285 112.177 127.958 113.027 127.812 113.918C127.667 114.808 127.707 115.718 127.93 116.592C132.106 132.339 132.689 143.859 131.098 150.922C131.098 150.922 126.058 157.625 123.797 172.99C121.81 186.411 123.732 209.465 121.558 221.619C129.377 227.213 154.03 226.45 157.702 223.174C156.665 198.593 162.072 167.936 158.256 153.068C162.086 147.308 159.235 134.564 158.256 129.308C163.534 124.772 159.466 121.589 159.473 115.736Z" fill="#EC407A"/>
<path opacity="0.2" d="M154.922 153.622C152.06 154.346 149.112 154.673 146.16 154.594C146.16 154.594 152.942 156.264 154.922 153.622Z" fill="black"/>
<path d="M158.839 148.719C156.679 147.783 157.514 144.457 157.514 144.457L157.018 142.571C156.959 142.404 156.939 142.227 156.959 142.051C156.979 141.876 157.039 141.708 157.134 141.559C157.229 141.41 157.357 141.286 157.508 141.194C157.659 141.102 157.828 141.046 158.004 141.03L159.242 140.864C159.711 140.836 160.177 140.948 160.581 141.187C160.985 141.426 161.309 141.779 161.51 142.203L161.791 142.808C162.258 143.783 162.385 144.885 162.151 145.94L161.798 147.416C161.718 147.743 161.571 148.049 161.366 148.316C161.043 148.644 160.624 148.86 160.169 148.932C159.714 149.005 159.248 148.93 158.839 148.719Z" fill="#FFBE9D"/>
<path opacity="0.2" d="M143.093 202.308C142.373 192.416 143.093 177.62 149.134 169.325C147.557 179.844 143.093 202.308 143.093 202.308Z" fill="black"/>
<path d="M136.8 95.05C137.722 98.65 138.794 105.389 136.332 108.01C142.352 109.935 147.631 113.668 151.452 118.702C154.152 110.062 147.809 107.182 147.809 107.182C143.64 106.505 143.59 103.445 144.158 100.529L136.8 95.05Z" fill="#FFBE9D"/>
<path opacity="0.2" d="M139.774 97.2893L144.13 100.529C143.989 101.207 143.907 101.896 143.885 102.588C142.294 102.48 140.047 100.918 139.795 99.2837C139.665 98.6259 139.658 97.9497 139.774 97.2893Z" fill="black"/>
<path d="M132.523 88.5775C134.28 94.4671 134.899 97.0015 138.593 99.3127C144.144 102.797 150.905 99.2191 150.926 92.8903C150.926 87.1879 148.046 78.4903 141.746 77.5975C135.446 76.7047 130.774 82.6879 132.523 88.5775Z" fill="#FFBE9D"/>
<path d="M141.466 76.9708C145.987 82.7308 134.525 81.1252 135.605 85.9636C136.685 90.802 130.759 91.9396 132.156 95.6404C124.963 94.4452 128.542 73.954 141.466 76.9708Z" fill="#263238"/>
<path d="M140.177 77.5109C141.242 81.2405 146.095 79.6061 148.752 81.7733C148.234 77.5109 141.509 75.8693 140.177 77.5109Z" fill="#263238"/>
<path d="M141.077 88.0229C141.192 88.5125 141.545 88.8437 141.862 88.7429C142.178 88.6421 142.351 88.2029 142.236 87.7205C142.121 87.2381 141.775 86.8997 141.451 87.0005C141.127 87.1013 140.962 87.5189 141.077 88.0229Z" fill="#263238"/>
<path d="M147.125 86.5826C147.233 87.0722 147.586 87.3962 147.91 87.3026C148.234 87.209 148.399 86.7626 148.284 86.273C148.169 85.7834 147.816 85.4594 147.499 85.553C147.182 85.6466 147.01 86.0786 147.125 86.5826Z" fill="#263238"/>
<path d="M147.362 85.6181L148.464 84.9773C148.464 84.9773 148.068 86.0789 147.362 85.6181Z" fill="#263238"/>
<path d="M145.987 87.375C146.681 88.3751 147.512 89.272 148.457 90.039C148.25 90.2795 147.993 90.4727 147.705 90.6056C147.417 90.7385 147.104 90.808 146.786 90.8094L145.987 87.375Z" fill="#BA4D3C"/>
<path d="M132.48 94.4884C132.84 94.9152 133.289 95.2586 133.795 95.4949C134.301 95.7311 134.852 95.8545 135.41 95.8564C136.85 95.8204 137.081 94.1788 136.296 92.8324C135.576 91.6156 133.999 90.1756 132.754 90.8668C131.508 91.558 131.522 93.3796 132.48 94.4884Z" fill="#FFBE9D"/>
<path d="M139.932 85.9349C140.006 85.8973 140.063 85.8329 140.09 85.7549C140.201 85.397 140.392 85.0693 140.649 84.7971C140.906 84.5249 141.223 84.3156 141.574 84.1853C141.649 84.165 141.713 84.1158 141.752 84.0483C141.791 83.9809 141.802 83.9007 141.782 83.8253C141.773 83.7876 141.757 83.7522 141.733 83.7212C141.71 83.6903 141.68 83.6646 141.647 83.6457C141.613 83.6267 141.575 83.615 141.537 83.6112C141.498 83.6074 141.459 83.6117 141.422 83.6237C140.975 83.7782 140.57 84.0361 140.241 84.3763C139.912 84.7166 139.668 85.1297 139.529 85.5821C139.517 85.6184 139.512 85.6569 139.514 85.6952C139.517 85.7335 139.528 85.7709 139.545 85.8051C139.563 85.8393 139.587 85.8697 139.616 85.8944C139.645 85.9192 139.679 85.9378 139.716 85.9493C139.787 85.97 139.864 85.9649 139.932 85.9349Z" fill="#263238"/>
<path d="M149.335 83.674C149.393 83.6737 149.449 83.6571 149.497 83.6261C149.546 83.5951 149.584 83.5509 149.608 83.4988C149.632 83.4467 149.641 83.3887 149.634 83.3318C149.626 83.2748 149.603 83.2212 149.566 83.1772C149.261 82.8269 148.875 82.5555 148.443 82.3863C148.01 82.217 147.543 82.1549 147.082 82.2052C147.004 82.2176 146.934 82.26 146.887 82.3232C146.84 82.3864 146.819 82.4654 146.83 82.5436C146.842 82.6195 146.884 82.6875 146.945 82.7333C147.007 82.779 147.085 82.7988 147.161 82.7884C147.528 82.751 147.899 82.8036 148.241 82.9415C148.584 83.0795 148.888 83.2988 149.126 83.5804C149.152 83.6105 149.184 83.6345 149.22 83.6507C149.256 83.6669 149.296 83.6749 149.335 83.674Z" fill="#263238"/>
<path d="M141.314 87.0582L142.416 86.4246C142.416 86.4246 142.027 87.519 141.314 87.0582Z" fill="#263238"/>
<path d="M141.444 151.678L146.902 152.456L144.252 158.18C144.252 158.18 140.465 156.675 138.852 154.112L138.917 153.262C139.63 152.096 140.076 151.729 141.444 151.678Z" fill="#FFBE9D"/>
<path d="M149.148 156.084L147.672 158.381C147.457 158.711 147.127 158.948 146.746 159.047C146.365 159.146 145.961 159.098 145.613 158.914L144.252 158.194L146.902 152.47L148.817 154.04C149.111 154.282 149.307 154.623 149.368 155C149.429 155.376 149.35 155.761 149.148 156.084Z" fill="#FFBE9D"/>
<path d="M133.963 116.42C132.962 120.156 131.94 123.944 130.99 127.688C130.529 129.567 130.082 131.446 129.679 133.304C129.478 134.225 129.305 135.154 129.154 136.047C129.082 136.493 129.017 136.933 128.966 137.35C128.92 137.713 128.893 138.079 128.887 138.444C128.83 139.366 129.463 140.77 130.486 142.088C131.601 143.478 132.85 144.757 134.215 145.904C135.647 147.136 137.145 148.289 138.701 149.36C140.256 150.454 141.898 151.52 143.496 152.499L143.554 152.535C143.936 152.726 144.226 153.061 144.361 153.466C144.496 153.871 144.465 154.313 144.274 154.695C144.083 155.077 143.748 155.367 143.343 155.502C142.938 155.637 142.496 155.606 142.114 155.415C138.28 153.965 134.625 152.081 131.22 149.799C129.422 148.594 127.77 147.186 126.295 145.601C125.482 144.727 124.774 143.76 124.186 142.721C123.501 141.503 123.093 140.148 122.99 138.754C122.954 138.138 122.954 137.52 122.99 136.904C122.99 136.342 123.062 135.802 123.12 135.269C123.235 134.211 123.386 133.196 123.552 132.188C123.876 130.172 124.272 128.206 124.718 126.255C125.582 122.338 126.562 118.508 127.699 114.663C127.949 113.855 128.504 113.177 129.246 112.773C129.989 112.369 130.86 112.272 131.673 112.501C132.487 112.73 133.179 113.268 133.601 114C134.024 114.732 134.143 115.601 133.934 116.42H133.963Z" fill="#FFBE9D"/>
<path d="M130.838 109.4C127.238 111.092 125.59 113.655 122.854 120.718C123.811 125.427 132.156 128.213 132.156 128.213C133.393 125.318 134.378 122.321 135.101 119.256C135.828 115.498 134.496 107.679 130.838 109.4Z" fill="#263238"/>
<path d="M144.194 275.648C144.23 275.558 144.293 275.483 144.375 275.432C144.456 275.382 144.552 275.359 144.648 275.367L149.285 275.302C149.769 275.266 150.254 275.368 150.682 275.597C152.802 276.917 155.181 277.767 157.658 278.089C158.645 278.24 158.198 279.903 155.88 279.925C152.042 279.968 151.351 279.68 148.075 279.716C145.282 279.716 146.635 279.874 144.389 279.925C143.856 279.925 143.424 279.593 143.496 279.205L144.194 275.648Z" fill="#263238"/>
<path d="M127.217 275.648C127.252 275.559 127.315 275.483 127.397 275.432C127.479 275.382 127.575 275.359 127.67 275.367L131.443 275.302C131.925 275.264 132.408 275.366 132.833 275.598C134.186 276.541 134.014 277.621 137.153 278.089C138.139 278.24 137.657 279.903 135.331 279.925C131.501 279.968 131.731 279.716 130.176 279.716C128.621 279.716 129.571 279.874 127.346 279.925C126.814 279.925 126.389 279.594 126.468 279.205L127.217 275.648Z" fill="#263238"/>
<path d="M148.925 115.786C147.161 115.332 143.402 115.642 141.466 117.896C137.743 116.456 134.179 111.329 134.266 108.104C135.028 107.388 136.016 106.96 137.059 106.894C137.059 106.894 145.44 110.962 148.925 115.786Z" fill="#FAFAFA"/>
<path d="M152.071 115.513C152.071 115.513 152.59 111.257 147.442 107.125C147.96 106.7 149.998 107.182 149.998 107.182C149.998 107.182 156.017 109.767 155.837 116.47C154.754 115.673 153.403 115.329 152.071 115.513Z" fill="#FAFAFA"/>
<path d="M142.358 92.6883C142.061 92.5587 141.777 92.4021 141.509 92.2203C141.493 92.2055 141.481 92.1876 141.472 92.1678C141.464 92.148 141.459 92.1267 141.459 92.1051C141.459 92.0835 141.464 92.0622 141.472 92.0424C141.481 92.0226 141.493 92.0047 141.509 91.9899C141.537 91.954 141.578 91.9298 141.623 91.9218C141.668 91.9138 141.715 91.9227 141.754 91.9467C142.362 92.3584 143.055 92.6273 143.782 92.7333C144.509 92.8392 145.251 92.7796 145.951 92.5587C145.972 92.5492 145.994 92.5442 146.017 92.5438C146.04 92.5434 146.062 92.5476 146.083 92.5564C146.104 92.5651 146.123 92.578 146.139 92.5944C146.155 92.6108 146.167 92.6303 146.175 92.6516C146.183 92.6729 146.187 92.6956 146.185 92.7184C146.184 92.7411 146.178 92.7633 146.168 92.7836C146.158 92.804 146.144 92.822 146.126 92.8365C146.109 92.8511 146.088 92.8619 146.066 92.8683C144.851 93.2695 143.53 93.2053 142.358 92.6883Z" fill="#263238"/>
<path d="M207.95 105.432C205.569 104.652 203.024 104.51 200.57 105.022C198.929 105.281 196.099 103.805 194.191 101.472C194.109 101.972 194.131 102.484 194.255 102.975C194.379 103.466 194.603 103.926 194.914 104.327C195.224 104.728 195.613 105.06 196.057 105.304C196.502 105.547 196.991 105.696 197.496 105.742C194.947 107.542 190.217 105.548 189.677 102.228C189.137 98.9092 192.773 98.938 190.555 93.1204C188.338 87.3028 194.234 89.8876 196.128 81.2332C198.022 72.5788 207.346 73.3132 208.894 76.5172C214.243 74.314 216.9 77.554 218.938 82.4356C220.745 86.7556 220.378 90.1324 223.042 97.2892C225.605 104.079 215.59 107.592 207.95 105.432Z" fill="#263238"/>
<path d="M198.245 105.079C197.913 105.073 197.584 105.009 197.273 104.892C196.337 104.484 195.503 103.874 194.829 103.106C194.156 102.338 193.66 101.431 193.378 100.45C193.364 100.404 193.37 100.355 193.393 100.313C193.416 100.271 193.454 100.24 193.5 100.227C193.546 100.213 193.595 100.219 193.637 100.242C193.679 100.265 193.71 100.303 193.723 100.349C193.989 101.277 194.455 102.134 195.09 102.861C195.725 103.588 196.512 104.166 197.395 104.554C197.649 104.67 197.925 104.726 198.204 104.717C198.482 104.708 198.755 104.635 199.001 104.503C199.02 104.49 199.041 104.48 199.063 104.475C199.086 104.47 199.11 104.469 199.132 104.473C199.155 104.477 199.177 104.486 199.196 104.498C199.216 104.511 199.233 104.527 199.246 104.547C199.259 104.566 199.269 104.588 199.275 104.611C199.28 104.634 199.281 104.658 199.277 104.682C199.273 104.705 199.264 104.728 199.251 104.748C199.238 104.768 199.222 104.785 199.202 104.799C198.92 104.989 198.585 105.087 198.245 105.079Z" fill="#263238"/>
<path d="M220.435 91.4934H220.399C220.353 91.483 220.313 91.4558 220.286 91.4171C220.26 91.3784 220.249 91.3311 220.255 91.2846C221.263 85.5246 220.342 81.0246 217.67 78.5766C216.86 77.8267 215.874 77.2941 214.802 77.0284C213.731 76.7628 212.61 76.7727 211.543 77.0574C211.499 77.0645 211.454 77.0551 211.417 77.0309C211.379 77.0068 211.352 76.9697 211.341 76.9267C211.329 76.8838 211.334 76.8381 211.354 76.7984C211.374 76.7587 211.408 76.7278 211.45 76.7118C212.577 76.4088 213.762 76.3965 214.896 76.676C216.029 76.9556 217.073 77.5178 217.93 78.3102C219.528 79.7502 222.012 83.4222 220.622 91.3422C220.615 91.386 220.592 91.4257 220.558 91.4537C220.523 91.4816 220.48 91.4957 220.435 91.4934Z" fill="#263238"/>
<path d="M225.828 151.225C225.828 151.225 225.828 190.105 223.466 211.172C223.222 230.943 218.707 275.612 218.707 275.612H213.718C212.875 253.45 206.705 232.757 210.838 213.209C201.24 174.819 205.69 151.289 205.69 151.289L225.828 151.225Z" fill="#FFBE9D"/>
<path d="M217.548 151.253C217.548 151.253 209.398 194.381 206.575 212.763C203.616 232.066 199.21 269.521 199.375 275.612H195.055C195.055 275.612 187.819 237.725 194.515 213.433C188.993 158.813 200.498 151.253 200.498 151.253H217.548Z" fill="#FFBE9D"/>
<path d="M226.886 116.542C226.958 118.436 226.958 120.308 226.987 122.194C227.016 124.08 226.987 125.952 226.987 127.839C226.93 131.604 226.807 135.363 226.519 139.2L226.433 138.358C226.433 138.473 226.433 138.459 226.26 138.293C226.046 138.093 225.768 137.976 225.475 137.962C225.281 137.962 225.338 138.048 225.475 138.056C225.695 138.053 225.913 138.019 226.123 137.955C226.728 137.787 227.317 137.563 227.88 137.285C228.499 137.026 229.147 136.659 229.745 136.364L229.896 136.292C230.222 136.132 230.591 136.085 230.946 136.158C231.301 136.231 231.622 136.42 231.858 136.695C232.094 136.971 232.232 137.317 232.249 137.679C232.267 138.042 232.163 138.399 231.955 138.696C231.466 139.388 230.925 140.04 230.335 140.648C229.705 141.291 229.005 141.861 228.247 142.347C227.795 142.638 227.312 142.879 226.807 143.067C226.097 143.328 225.334 143.417 224.582 143.326C224.078 143.261 223.591 143.105 223.142 142.865C222.677 142.618 222.26 142.289 221.911 141.893C221.387 141.283 221.004 140.565 220.788 139.791C220.728 139.61 220.699 139.42 220.702 139.229V138.941C220.702 135.305 220.651 131.568 220.594 127.853L220.514 122.266L220.464 116.679C220.444 115.819 220.766 114.987 221.36 114.366C221.953 113.744 222.769 113.383 223.628 113.363C224.488 113.343 225.32 113.665 225.942 114.259C226.563 114.852 226.924 115.668 226.944 116.528L226.886 116.542Z" fill="#FFBE9D"/>
<path d="M222.977 108.723C227.527 111.776 229.457 118.464 229.565 122.662C227.527 127.018 220.205 127.702 220.205 127.702C220.205 127.702 218.095 119.861 218.275 116.038C218.455 112.215 220.363 106.959 222.977 108.723Z" fill="#263238"/>
<path d="M226.8 115.736C226.798 113.591 225.977 111.529 224.505 109.969C223.033 108.41 221.021 107.472 218.88 107.348C217.649 107.268 216.36 107.204 215.114 107.189C211.259 107.197 207.409 107.483 203.594 108.046C202.5 108.176 201.434 108.341 200.434 108.521C199.545 108.678 198.699 109.016 197.947 109.514C197.195 110.013 196.554 110.661 196.064 111.419C195.574 112.176 195.246 113.027 195.099 113.917C194.953 114.807 194.992 115.718 195.214 116.592C199.39 132.339 199.973 143.859 198.389 150.922C198.389 150.922 193.349 157.625 191.088 172.99C189.094 186.411 191.023 209.465 188.849 221.619C196.668 227.213 221.796 226.364 225.569 223.174C225.115 198.579 232.769 168.051 228.924 153.183C232.762 147.423 232.452 134.744 225.569 129.279C230.832 124.772 226.8 121.589 226.8 115.736Z" fill="#EC407A"/>
<path opacity="0.2" d="M227.03 153.759C222.48 154.688 217.823 154.983 213.192 154.637C213.192 154.637 223.718 157.74 227.03 153.759Z" fill="black"/>
<path d="M230.602 139.827C228.283 139.488 228.204 136.061 228.204 136.061L227.225 134.376C227.124 134.231 227.057 134.065 227.031 133.89C227.004 133.715 227.019 133.537 227.072 133.368C227.126 133.2 227.217 133.046 227.34 132.919C227.463 132.791 227.613 132.694 227.779 132.634L228.96 132.159C229.406 132.01 229.886 132 230.338 132.128C230.79 132.257 231.193 132.518 231.494 132.879L231.926 133.39C232.633 134.208 233.043 135.24 233.093 136.32L233.143 137.84C233.15 138.175 233.089 138.508 232.963 138.819C232.736 139.218 232.387 139.535 231.968 139.723C231.548 139.911 231.08 139.96 230.63 139.863L230.602 139.827Z" fill="#FFBE9D"/>
<path opacity="0.2" d="M211.205 202.308C210.521 192.416 211.205 177.62 217.246 169.325C215.669 179.844 211.205 202.308 211.205 202.308Z" fill="black"/>
<path d="M204.07 95.05C204.984 98.65 206.057 105.389 203.602 108.01C209.62 109.937 214.899 113.67 218.722 118.702C221.422 110.062 215.078 107.182 215.078 107.182C210.902 106.505 210.852 103.445 211.421 100.529L204.07 95.05Z" fill="#FFBE9D"/>
<path opacity="0.2" d="M207.072 97.2893L211.392 100.529C211.249 101.207 211.165 101.896 211.14 102.588C209.556 102.48 207.302 100.918 207.05 99.2837C206.937 98.623 206.944 97.9474 207.072 97.2893Z" fill="black"/>
<path d="M199.822 88.5775C201.571 94.4671 202.19 97.0015 205.884 99.3127C211.442 102.797 218.203 99.2191 218.225 92.8903C218.225 87.1879 215.345 78.4903 209.045 77.5975C202.745 76.7047 198.072 82.6879 199.822 88.5775Z" fill="#FFBE9D"/>
<path d="M208.8 76.9708C213.322 82.7308 201.859 81.1252 202.939 85.9636C204.019 90.802 198.094 91.9396 199.49 95.6404C192.24 94.4452 195.84 73.954 208.8 76.9708Z" fill="#263238"/>
<path d="M207.475 77.5109C208.541 81.2405 213.394 79.6061 216.05 81.7733C215.532 77.5109 208.8 75.8693 207.475 77.5109Z" fill="#263238"/>
<path d="M208.375 88.0229C208.483 88.5125 208.836 88.8437 209.16 88.7429C209.484 88.6421 209.65 88.2029 209.534 87.7205C209.419 87.2381 209.066 86.8997 208.75 87.0005C208.433 87.1013 208.26 87.5189 208.375 88.0229Z" fill="#263238"/>
<path d="M214.416 86.5826C214.531 87.0722 214.884 87.3962 215.201 87.3026C215.518 87.209 215.69 86.7626 215.575 86.273C215.46 85.7834 215.114 85.4594 214.79 85.553C214.466 85.6466 214.308 86.0786 214.416 86.5826Z" fill="#263238"/>
<path d="M214.661 85.6181L215.755 84.9773C215.755 84.9773 215.366 86.0789 214.661 85.6181Z" fill="#263238"/>
<path d="M213.286 87.375C213.979 88.3751 214.81 89.272 215.755 90.039C215.548 90.2791 215.291 90.472 215.003 90.6049C214.715 90.7378 214.402 90.8075 214.085 90.8094L213.286 87.375Z" fill="#BA4D3C"/>
<path d="M199.793 94.4884C200.153 94.9152 200.601 95.2586 201.107 95.4949C201.613 95.7311 202.165 95.8545 202.723 95.8564C204.163 95.8204 204.394 94.1788 203.609 92.8324C202.889 91.6156 201.305 90.1756 200.066 90.8668C198.828 91.558 198.814 93.3796 199.793 94.4884Z" fill="#FFBE9D"/>
<path d="M207.23 85.9349C207.304 85.8973 207.361 85.8329 207.389 85.7549C207.496 85.4019 207.68 85.0775 207.93 84.8058C208.179 84.534 208.486 84.3219 208.829 84.1853C208.904 84.1649 208.969 84.116 209.009 84.0488C209.05 83.9817 209.062 83.9016 209.045 83.8253C209.036 83.7876 209.019 83.7522 208.996 83.7212C208.972 83.6903 208.943 83.6646 208.909 83.6457C208.875 83.6267 208.838 83.615 208.799 83.6112C208.761 83.6074 208.722 83.6117 208.685 83.6237C208.237 83.7772 207.832 84.0347 207.502 84.3751C207.173 84.7155 206.93 85.1292 206.791 85.5821C206.779 85.6184 206.774 85.6569 206.777 85.6952C206.78 85.7335 206.79 85.7709 206.807 85.8051C206.825 85.8393 206.849 85.8697 206.878 85.8944C206.908 85.9192 206.942 85.9378 206.978 85.9493C207.019 85.9643 207.063 85.9707 207.106 85.9682C207.149 85.9658 207.192 85.9544 207.23 85.9349Z" fill="#263238"/>
<path d="M216.634 83.674C216.671 83.6752 216.708 83.6688 216.743 83.6552C216.777 83.6415 216.809 83.621 216.835 83.5948C216.863 83.5673 216.884 83.5348 216.899 83.499C216.914 83.4631 216.922 83.4247 216.922 83.386C216.922 83.3472 216.914 83.3088 216.899 83.273C216.884 83.2371 216.863 83.2046 216.835 83.1772C216.529 82.8258 216.143 82.5538 215.709 82.3845C215.275 82.2152 214.807 82.1537 214.344 82.2052C214.27 82.2202 214.204 82.2631 214.161 82.3249C214.118 82.3868 214.1 82.463 214.111 82.5377C214.122 82.6125 214.161 82.6801 214.221 82.7268C214.28 82.7734 214.355 82.7954 214.43 82.7884C214.798 82.7522 215.168 82.8054 215.51 82.9433C215.853 83.0812 216.156 83.2997 216.396 83.5804C216.424 83.6151 216.461 83.642 216.502 83.6584C216.544 83.6749 216.589 83.6802 216.634 83.674Z" fill="#263238"/>
<path d="M208.613 87.0582L209.714 86.4246C209.714 86.4246 209.318 87.519 208.613 87.0582Z" fill="#263238"/>
<path d="M211.68 148.208L217.102 147.243L216.382 153.507C216.382 153.507 212.314 153.262 209.981 151.347L209.779 150.519C210.074 149.173 210.391 148.719 211.68 148.208Z" fill="#FFBE9D"/>
<path d="M220.363 149.979L219.679 152.622C219.582 153.003 219.344 153.334 219.012 153.548C218.681 153.761 218.282 153.842 217.894 153.774L216.374 153.507L217.094 147.243L219.406 148.129C219.765 148.265 220.061 148.53 220.238 148.871C220.415 149.212 220.459 149.607 220.363 149.979Z" fill="#FFBE9D"/>
<path d="M201.262 116.42C200.261 120.149 199.238 123.936 198.288 127.68C197.827 129.552 197.381 131.432 196.978 133.282C196.776 134.211 196.603 135.132 196.452 136.025C196.38 136.472 196.315 136.911 196.265 137.328C196.214 137.746 196.186 138.149 196.178 138.437V138.768C196.191 138.873 196.211 138.976 196.236 139.078C196.307 139.33 196.408 139.571 196.538 139.798C196.897 140.403 197.349 140.947 197.878 141.411C199.195 142.543 200.646 143.51 202.198 144.291C203.854 145.179 205.563 145.962 207.317 146.638C209.074 147.358 210.917 147.999 212.695 148.582H212.76C213.155 148.695 213.492 148.956 213.7 149.31C213.909 149.665 213.974 150.085 213.882 150.486C213.789 150.886 213.547 151.236 213.204 151.464C212.862 151.691 212.445 151.778 212.04 151.707C207.975 151.206 203.986 150.215 200.16 148.755C198.105 147.965 196.167 146.9 194.4 145.587C193.388 144.822 192.501 143.904 191.772 142.865C191.356 142.268 191.02 141.619 190.771 140.936C190.643 140.57 190.537 140.198 190.454 139.82C190.454 139.625 190.39 139.431 190.361 139.236L190.31 138.689C190.278 138.075 190.278 137.46 190.31 136.846C190.346 136.284 190.39 135.752 190.447 135.219C190.562 134.16 190.714 133.145 190.879 132.144C191.203 130.128 191.599 128.163 192.046 126.212C192.91 122.302 193.882 118.472 195.019 114.634C195.135 114.224 195.33 113.841 195.593 113.506C195.856 113.172 196.183 112.893 196.555 112.684C196.926 112.476 197.335 112.343 197.758 112.293C198.18 112.242 198.609 112.276 199.019 112.391C199.429 112.507 199.812 112.702 200.146 112.965C200.481 113.228 200.76 113.555 200.969 113.927C201.177 114.298 201.31 114.707 201.36 115.13C201.41 115.552 201.377 115.981 201.262 116.391V116.42Z" fill="#FFBE9D"/>
<path d="M198.137 109.4C194.537 111.092 192.888 113.655 190.152 120.718C191.11 125.427 199.454 128.213 199.454 128.213C200.691 125.318 201.677 122.321 202.399 119.256C203.126 115.498 201.794 107.679 198.137 109.4Z" fill="#263238"/>
<path d="M213.329 275.648C213.364 275.558 213.427 275.483 213.509 275.432C213.591 275.382 213.687 275.359 213.782 275.367L218.419 275.302C218.903 275.266 219.388 275.368 219.816 275.597C221.937 276.917 224.316 277.767 226.793 278.089C227.779 278.24 227.333 279.903 225.014 279.925C221.177 279.968 220.486 279.68 217.21 279.716C214.416 279.716 215.77 279.874 213.53 279.925C212.998 279.925 212.558 279.593 212.63 279.205L213.329 275.648Z" fill="#263238"/>
<path d="M194.508 275.648C194.546 275.559 194.61 275.483 194.693 275.433C194.776 275.383 194.872 275.36 194.969 275.367L198.742 275.302C199.224 275.264 199.706 275.366 200.131 275.598C201.485 276.541 201.312 277.621 204.451 278.089C205.43 278.24 204.948 279.903 202.63 279.925C198.792 279.968 199.03 279.716 197.474 279.716C195.919 279.716 196.87 279.874 194.645 279.925C194.112 279.925 193.68 279.594 193.766 279.205L194.508 275.648Z" fill="#263238"/>
<path d="M216.223 115.786C214.459 115.332 210.701 115.642 208.764 117.896C205.034 116.456 201.47 111.329 201.564 108.104C202.324 107.389 203.309 106.961 204.35 106.894C204.35 106.894 212.753 110.962 216.223 115.786Z" fill="#FAFAFA"/>
<path d="M219.362 115.513C219.362 115.513 219.888 111.257 214.74 107.125C215.258 106.7 217.289 107.182 217.289 107.182C217.289 107.182 223.308 109.767 223.135 116.47C222.05 115.672 220.697 115.329 219.362 115.513Z" fill="#FAFAFA"/>
<path d="M209.657 92.6883C209.357 92.5588 209.071 92.4022 208.8 92.2203C208.784 92.2055 208.772 92.1876 208.763 92.1678C208.755 92.148 208.75 92.1267 208.75 92.1051C208.75 92.0835 208.755 92.0622 208.763 92.0424C208.772 92.0226 208.784 92.0047 208.8 91.9899C208.828 91.954 208.869 91.9298 208.914 91.9218C208.959 91.9138 209.006 91.9227 209.045 91.9467C209.653 92.3584 210.347 92.6273 211.074 92.7333C211.8 92.8392 212.542 92.7796 213.242 92.5587C213.284 92.542 213.331 92.5424 213.373 92.5599C213.415 92.5774 213.448 92.6106 213.466 92.6523C213.479 92.6953 213.476 92.7419 213.456 92.7823C213.435 92.8227 213.4 92.8535 213.358 92.8683C212.144 93.2676 210.826 93.2035 209.657 92.6883Z" fill="#263238"/>
<path d="M274.982 106.354C272.844 105.049 270.402 104.324 267.898 104.252C266.242 104.129 263.83 102.041 262.512 99.334C262.317 99.8006 262.219 100.303 262.227 100.808C262.234 101.314 262.345 101.813 262.554 102.274C262.763 102.735 263.065 103.148 263.44 103.487C263.816 103.826 264.257 104.084 264.737 104.244C261.857 105.411 257.702 102.38 257.947 99.0243C258.192 95.6691 261.713 96.5403 260.892 90.3843C260.071 84.2283 265.212 88.0948 269.057 80.11C272.902 72.1252 281.794 74.9979 282.571 78.4611C288.281 77.5539 290.124 81.3411 290.981 86.5324C291.737 91.1476 290.578 94.3444 291.55 101.933C292.478 109.119 281.923 110.22 274.982 106.354Z" fill="#263238"/>
<path d="M265.421 102.833C265.086 102.826 264.754 102.76 264.442 102.639C263.507 102.231 262.674 101.622 262.002 100.856C261.33 100.089 260.835 99.1834 260.554 98.2035C260.546 98.1809 260.543 98.1569 260.545 98.133C260.547 98.1092 260.554 98.086 260.566 98.0651C260.577 98.0441 260.593 98.0257 260.612 98.0111C260.631 97.9965 260.653 97.9861 260.676 97.9803C260.699 97.9737 260.722 97.9716 260.746 97.9742C260.769 97.9768 260.792 97.984 260.813 97.9953C260.834 98.0067 260.852 98.022 260.867 98.0404C260.882 98.0589 260.893 98.08 260.899 98.1027C261.164 99.029 261.629 99.8855 262.263 100.611C262.896 101.337 263.682 101.913 264.564 102.3C264.817 102.418 265.093 102.475 265.372 102.468C265.651 102.46 265.924 102.388 266.17 102.257C266.189 102.243 266.211 102.234 266.234 102.228C266.257 102.223 266.281 102.223 266.305 102.227C266.328 102.231 266.35 102.239 266.37 102.252C266.39 102.264 266.408 102.281 266.422 102.3C266.435 102.32 266.445 102.342 266.45 102.365C266.456 102.388 266.456 102.412 266.452 102.435C266.448 102.459 266.44 102.481 266.427 102.501C266.414 102.521 266.398 102.539 266.378 102.552C266.095 102.742 265.761 102.84 265.421 102.833Z" fill="#263238"/>
<path d="M289.57 95.813C289.544 95.8194 289.516 95.8194 289.49 95.813C289.448 95.79 289.417 95.7519 289.402 95.7064C289.387 95.6608 289.391 95.6114 289.411 95.5682C292.039 90.3554 292.464 85.7762 290.614 82.6586C290.055 81.7077 289.265 80.9134 288.317 80.3494C287.369 79.7855 286.294 79.4703 285.192 79.433C285.144 79.433 285.099 79.414 285.065 79.3803C285.031 79.3465 285.012 79.3007 285.012 79.253C285.012 79.2053 285.031 79.1595 285.065 79.1257C285.099 79.092 285.144 79.073 285.192 79.073C286.355 79.1111 287.49 79.4435 288.489 80.0391C289.489 80.6346 290.322 81.474 290.909 82.4786C292.018 84.3434 293.335 88.5482 289.721 95.7338C289.704 95.758 289.681 95.7779 289.655 95.7916C289.629 95.8054 289.599 95.8127 289.57 95.813Z" fill="#263238"/>
<path d="M290.477 151.225C290.477 151.225 290.477 190.105 288.108 211.172C287.87 230.943 283.356 275.612 283.356 275.612H278.366C277.524 253.45 271.354 232.757 275.45 213.209C265.86 174.819 270.31 151.289 270.31 151.289L290.477 151.225Z" fill="#FFBE9D"/>
<path d="M285.041 151.253C285.041 151.253 276.89 194.381 274.068 212.763C271.109 232.066 266.702 269.52 266.904 275.612H262.584C262.584 275.612 255.384 237.725 262.044 213.432C256.522 158.813 268.027 151.253 268.027 151.253H285.041Z" fill="#FFBE9D"/>
<path d="M294.314 117.255C294.012 118.947 293.695 120.747 293.45 122.496C293.206 124.246 292.961 126.024 292.766 127.781C292.572 129.538 292.45 131.28 292.399 132.987C292.329 134.613 292.408 136.242 292.637 137.854L292.342 137.062C292.27 136.968 292.054 136.853 292.104 136.932C292.3 137.063 292.531 137.133 292.766 137.134C293.677 137.198 294.593 137.14 295.488 136.961C296.503 136.796 297.554 136.536 298.606 136.241C299.657 135.946 300.766 135.622 301.766 135.305H301.846C302.22 135.168 302.631 135.173 303.002 135.32C303.372 135.467 303.675 135.745 303.854 136.101C304.032 136.458 304.072 136.867 303.968 137.252C303.863 137.636 303.62 137.969 303.286 138.185C302.294 138.897 301.26 139.549 300.19 140.136C299.098 140.738 297.965 141.26 296.798 141.699C295.497 142.2 294.129 142.504 292.738 142.599C291.815 142.65 290.891 142.523 290.016 142.224C288.837 141.808 287.845 140.986 287.215 139.906C287.093 139.679 287.001 139.437 286.942 139.186V139.1C286.491 137.105 286.25 135.068 286.222 133.023C286.171 131.057 286.222 129.142 286.38 127.263C286.538 125.384 286.733 123.483 286.992 121.611C287.251 119.739 287.554 117.917 287.971 116.002C288.152 115.174 288.65 114.451 289.358 113.986C290.066 113.521 290.928 113.351 291.759 113.514C292.591 113.677 293.325 114.159 293.805 114.857C294.286 115.555 294.474 116.413 294.329 117.248L294.314 117.255Z" fill="#FFBE9D"/>
<path d="M290.47 108.723C295.02 111.776 296.95 118.464 297.058 122.662C295.02 127.018 287.698 127.702 287.698 127.702C287.698 127.702 285.588 119.861 285.768 116.038C285.948 112.215 287.856 106.959 290.47 108.723Z" fill="#263238"/>
<path d="M294.264 115.736C294.26 113.592 293.439 111.53 291.967 109.971C290.495 108.413 288.484 107.474 286.344 107.348C285.113 107.268 283.824 107.204 282.578 107.189C278.723 107.197 274.873 107.483 271.058 108.046C269.964 108.176 268.898 108.341 267.898 108.521C267.009 108.678 266.163 109.016 265.411 109.514C264.659 110.013 264.018 110.661 263.528 111.419C263.038 112.176 262.71 113.027 262.563 113.917C262.417 114.807 262.456 115.718 262.678 116.592C266.854 132.339 267.437 143.859 265.853 150.922C265.853 150.922 260.813 157.625 258.545 172.99C256.558 186.411 258.48 209.465 256.313 221.619C264.132 227.213 287.546 226.45 291.211 223.174C290.182 198.593 295.2 166.388 291.384 151.52C292.91 143.276 293.299 134.24 293.609 129.2C298.93 124.664 294.257 121.589 294.264 115.736Z" fill="#EC407A"/>
<path d="M272.592 145.623C273.082 139.683 286.625 116.362 295.524 116.693C304.423 117.024 306.814 123.828 303.905 132.238C300.996 140.647 292.824 150.043 283.234 151.26C273.643 152.477 272.304 149.043 272.592 145.623Z" fill="#EC407A"/>
<path opacity="0.8" d="M272.592 145.623C273.082 139.683 286.625 116.362 295.524 116.693C304.423 117.024 306.814 123.828 303.905 132.238C300.996 140.647 292.824 150.043 283.234 151.26C273.643 152.477 272.304 149.043 272.592 145.623Z" fill="white"/>
<path d="M288.324 124.037C290.65 119.501 295.524 118.5 298.67 120.192C301.817 121.884 300.197 127.637 297.878 129.185C295.56 130.733 285.07 130.395 288.324 124.037Z" fill="#FFBE9D"/>
<path opacity="0.3" d="M288.77 134.571C284.256 134.571 280.548 133.923 279.526 132.756C279.384 132.613 279.291 132.429 279.26 132.23C279.229 132.031 279.261 131.827 279.353 131.647C279.361 131.623 279.374 131.601 279.391 131.582C279.408 131.564 279.429 131.549 279.452 131.539C279.476 131.529 279.501 131.524 279.526 131.524C279.552 131.524 279.577 131.53 279.6 131.541C279.623 131.552 279.643 131.567 279.66 131.586C279.677 131.606 279.689 131.628 279.696 131.652C279.703 131.677 279.705 131.702 279.702 131.728C279.699 131.753 279.69 131.777 279.677 131.799C279.615 131.915 279.593 132.049 279.615 132.179C279.637 132.31 279.702 132.429 279.799 132.519C281.534 134.499 293.63 135.118 302.472 132.238C302.495 132.226 302.521 132.219 302.547 132.218C302.573 132.217 302.599 132.222 302.623 132.232C302.647 132.242 302.669 132.257 302.687 132.276C302.704 132.296 302.717 132.318 302.725 132.343C302.733 132.368 302.736 132.395 302.732 132.42C302.729 132.446 302.72 132.471 302.707 132.493C302.693 132.516 302.674 132.534 302.652 132.549C302.631 132.563 302.606 132.572 302.58 132.576C298.102 133.924 293.447 134.596 288.77 134.571Z" fill="#EC407A"/>
<path opacity="0.3" d="M292.536 144.636C291.04 144.612 289.559 144.342 288.151 143.837C285.939 143.104 283.904 141.915 282.179 140.348C280.454 138.78 279.077 136.869 278.136 134.736C278.119 134.692 278.119 134.643 278.136 134.599C278.153 134.555 278.187 134.519 278.23 134.499C278.252 134.489 278.276 134.485 278.3 134.485C278.324 134.485 278.348 134.49 278.37 134.499C278.392 134.508 278.412 134.522 278.429 134.539C278.445 134.557 278.459 134.577 278.467 134.6C279.389 136.685 280.737 138.554 282.425 140.087C284.112 141.619 286.102 142.782 288.266 143.499C291.204 144.514 293.969 144.543 295.668 143.578C295.688 143.563 295.712 143.553 295.736 143.547C295.761 143.542 295.786 143.542 295.811 143.547C295.836 143.553 295.859 143.563 295.879 143.578C295.9 143.592 295.917 143.611 295.929 143.633C295.942 143.655 295.95 143.679 295.953 143.704C295.956 143.729 295.953 143.754 295.945 143.778C295.938 143.802 295.925 143.824 295.908 143.843C295.891 143.862 295.871 143.877 295.848 143.887C294.827 144.418 293.686 144.676 292.536 144.636Z" fill="#EC407A"/>
<path d="M293.702 123.051C293.202 123.207 292.72 123.414 292.262 123.67C292.173 123.722 292.098 123.796 292.046 123.886C291.995 123.976 291.967 124.078 291.967 124.181C291.967 124.285 291.995 124.387 292.046 124.476C292.098 124.566 292.173 124.641 292.262 124.692C292.443 124.793 292.634 124.875 292.831 124.937L293.702 123.051Z" fill="#BA4D3C"/>
<path d="M295.322 123.238C295.369 123.241 295.413 123.261 295.445 123.296C295.58 123.461 295.752 123.592 295.947 123.679C296.142 123.765 296.355 123.804 296.568 123.792C296.614 123.788 296.659 123.802 296.695 123.83C296.731 123.858 296.755 123.898 296.762 123.944C296.765 123.965 296.764 123.988 296.759 124.009C296.753 124.03 296.743 124.05 296.73 124.067C296.716 124.085 296.7 124.099 296.68 124.11C296.661 124.121 296.64 124.128 296.618 124.131C296.347 124.146 296.075 124.098 295.826 123.991C295.576 123.883 295.354 123.719 295.178 123.512C295.16 123.486 295.149 123.456 295.147 123.425C295.144 123.393 295.15 123.362 295.164 123.334C295.178 123.305 295.2 123.282 295.226 123.265C295.253 123.248 295.284 123.239 295.315 123.238H295.322Z" fill="#263238"/>
<path d="M292.356 122.374C292.39 122.404 292.413 122.445 292.421 122.489C292.424 122.511 292.423 122.533 292.417 122.554C292.411 122.576 292.401 122.596 292.388 122.613C292.375 122.63 292.358 122.645 292.339 122.656C292.32 122.667 292.299 122.674 292.277 122.676C292.016 122.721 291.747 122.7 291.496 122.616C291.245 122.532 291.018 122.387 290.837 122.194C290.821 122.179 290.808 122.16 290.8 122.14C290.791 122.119 290.787 122.097 290.787 122.075C290.787 122.053 290.791 122.031 290.8 122.011C290.808 121.99 290.821 121.972 290.837 121.956C290.87 121.928 290.912 121.912 290.956 121.912C290.999 121.912 291.042 121.928 291.074 121.956C291.22 122.108 291.4 122.221 291.6 122.286C291.8 122.352 292.012 122.367 292.219 122.331C292.269 122.327 292.318 122.343 292.356 122.374Z" fill="#263238"/>
<path d="M294.408 126.507C294.612 126.468 294.812 126.41 295.006 126.334C295.019 126.328 295.031 126.32 295.041 126.31C295.051 126.3 295.06 126.288 295.065 126.274C295.07 126.261 295.073 126.246 295.073 126.232C295.072 126.217 295.069 126.203 295.063 126.19C295.048 126.165 295.025 126.145 294.998 126.135C294.97 126.124 294.94 126.123 294.912 126.132C294.473 126.306 294.001 126.379 293.53 126.347C293.059 126.314 292.601 126.177 292.19 125.945C292.17 125.925 292.143 125.914 292.115 125.914C292.087 125.914 292.059 125.925 292.039 125.945C292.025 125.97 292.021 126 292.028 126.028C292.035 126.056 292.051 126.08 292.075 126.096C292.776 126.516 293.606 126.662 294.408 126.507Z" fill="#263238"/>
<path d="M295.142 119.249C292.414 119.76 292.982 121.892 295.517 122.367C298.051 122.842 296.741 121.388 296.741 121.388C297.05 122.021 295.754 122.064 295.373 121.388C294.833 120.372 300.751 121.712 299.614 120.502C298.476 119.292 295.61 119.156 295.142 119.249Z" fill="#263238"/>
<path d="M300.629 137.523C299.153 135.708 301.421 133.131 301.421 133.131L301.838 131.23C301.863 131.055 301.928 130.888 302.027 130.742C302.127 130.596 302.258 130.474 302.412 130.387C302.565 130.299 302.737 130.248 302.913 130.237C303.09 130.226 303.266 130.255 303.43 130.323L304.603 130.74C305.033 130.93 305.395 131.244 305.644 131.642C305.893 132.04 306.017 132.503 306 132.972L305.964 133.642C305.936 134.723 305.54 135.762 304.841 136.587L303.847 137.739C303.629 137.992 303.359 138.196 303.055 138.336C302.617 138.477 302.145 138.474 301.709 138.327C301.272 138.181 300.894 137.899 300.629 137.523Z" fill="#FFBE9D"/>
<path opacity="0.2" d="M276.941 202.308C276.257 192.415 276.941 177.619 282.982 169.325C281.398 179.844 276.941 202.308 276.941 202.308Z" fill="black"/>
<path d="M271.562 95.05C272.477 98.65 273.55 105.389 271.094 108.01C277.114 109.935 282.394 113.668 286.214 118.702C288.922 110.062 282.614 107.182 282.614 107.182C278.438 106.505 278.388 103.445 278.957 100.529L271.562 95.05Z" fill="#FFBE9D"/>
<path opacity="0.2" d="M274.565 97.2893L278.921 100.529C278.778 101.207 278.694 101.896 278.669 102.588C277.085 102.48 274.831 100.918 274.579 99.2837C274.454 98.6252 274.449 97.9495 274.565 97.2893Z" fill="black"/>
<path d="M270.634 87.0508C270.634 93.1996 270.468 95.7988 273.334 99.082C277.654 104.028 285.149 102.552 287.014 96.5044C288.684 91.054 288.454 81.9244 282.658 79.2244C276.862 76.5244 270.662 80.9092 270.634 87.0508Z" fill="#FFBE9D"/>
<path d="M282.557 78.5261C285.206 85.3733 276.617 82.1765 276.257 87.1157C275.897 92.0549 267.97 89.7581 268.236 93.7037C261.698 90.4781 271.058 71.9021 282.557 78.5261Z" fill="#263238"/>
<path d="M281.167 78.6699C281.102 82.5507 286.207 82.3923 288.137 85.2363C288.878 81.0387 282.91 77.4891 281.167 78.6699Z" fill="#263238"/>
<path d="M279.36 90.9531C279.36 91.4571 279.569 91.8675 279.9 91.8891C280.231 91.9107 280.526 91.5075 280.555 91.0107C280.584 90.5139 280.346 90.0963 280.015 90.0819C279.684 90.0675 279.36 90.4563 279.36 90.9531Z" fill="#263238"/>
<path d="M285.559 91.3201C285.523 91.8241 285.768 92.2417 286.099 92.2561C286.43 92.2705 286.718 91.8745 286.754 91.3777C286.79 90.8809 286.546 90.4633 286.214 90.4489C285.883 90.4345 285.588 90.8233 285.559 91.3201Z" fill="#263238"/>
<path d="M286.07 90.471L287.302 90.1758C287.302 90.1758 286.618 91.119 286.07 90.471Z" fill="#263238"/>
<path d="M284.242 91.7522C284.618 92.9102 285.154 94.0103 285.833 95.021C285.565 95.1908 285.264 95.3012 284.949 95.3447C284.635 95.3882 284.315 95.3637 284.011 95.273L284.242 91.7522Z" fill="#BA4D3C"/>
<path d="M268.898 92.7028C269.119 93.2153 269.449 93.6738 269.864 94.0467C270.279 94.4196 270.77 94.698 271.303 94.8628C272.678 95.2372 273.384 93.7396 273.024 92.2204C272.7 90.8524 271.584 89.0092 270.209 89.3404C268.834 89.6716 268.286 91.3564 268.898 92.7028Z" fill="#FFBE9D"/>
<path d="M278.863 88.6203C278.903 88.6145 278.942 88.6006 278.976 88.5796C279.011 88.5586 279.041 88.5308 279.065 88.4979C279.273 88.1868 279.55 87.9281 279.875 87.742C280.2 87.5559 280.563 87.4474 280.937 87.4251C281.015 87.4253 281.091 87.3957 281.148 87.3422C281.206 87.2887 281.241 87.2154 281.246 87.1371C281.247 87.0983 281.241 87.0598 281.227 87.0236C281.213 86.9874 281.192 86.9543 281.165 86.9262C281.138 86.8982 281.106 86.8756 281.071 86.8599C281.035 86.8442 280.997 86.8357 280.958 86.8347C280.486 86.8565 280.025 86.9883 279.613 87.2195C279.2 87.4508 278.848 87.7751 278.582 88.1667C278.544 88.212 278.522 88.2681 278.517 88.3271C278.513 88.386 278.528 88.4449 278.559 88.4951C278.59 88.5454 278.636 88.5846 278.691 88.6071C278.745 88.6295 278.806 88.6342 278.863 88.6203Z" fill="#263238"/>
<path d="M288.518 89.182C288.553 89.1963 288.589 89.2036 288.626 89.2036C288.664 89.2036 288.7 89.1963 288.734 89.182C288.807 89.149 288.863 89.089 288.891 89.015C288.919 88.9409 288.917 88.8587 288.886 88.786C288.695 88.3605 288.405 87.9874 288.038 87.699C287.672 87.4105 287.242 87.2153 286.783 87.13C286.705 87.1234 286.627 87.1463 286.564 87.1942C286.501 87.2421 286.459 87.3117 286.445 87.3892C286.44 87.4271 286.442 87.4656 286.452 87.5025C286.462 87.5393 286.48 87.5738 286.503 87.604C286.526 87.6341 286.556 87.6593 286.589 87.6781C286.622 87.6968 286.659 87.7088 286.697 87.7132C287.058 87.7882 287.396 87.9481 287.682 88.1798C287.969 88.4114 288.197 88.7081 288.346 89.0452C288.383 89.1114 288.445 89.1604 288.518 89.182Z" fill="#263238"/>
<path d="M279.864 90.0964L281.095 89.8083C281.095 89.8083 280.411 90.7156 279.864 90.0964Z" fill="#263238"/>
<path d="M275.328 143.261L280.836 143.038L279.281 149.151C279.281 149.151 275.278 148.359 273.226 146.134L273.132 145.284C273.6 144.003 273.996 143.564 275.328 143.261Z" fill="#FFBE9D"/>
<path d="M283.68 146.192L282.672 148.719C282.522 149.082 282.242 149.376 281.886 149.543C281.53 149.71 281.125 149.737 280.75 149.619L279.31 149.151L280.865 143.038L283.025 144.226C283.355 144.417 283.604 144.723 283.725 145.085C283.846 145.447 283.83 145.841 283.68 146.192Z" fill="#FFBE9D"/>
<path d="M268.697 116.585C267.574 120.02 266.443 123.519 265.37 126.982C264.83 128.717 264.348 130.46 263.866 132.18C263.383 133.901 262.973 135.644 262.714 137.22C262.678 137.415 262.649 137.609 262.634 137.782C262.62 137.955 262.634 138.135 262.584 138.279C262.557 138.489 262.557 138.702 262.584 138.912C262.652 139.303 262.832 139.666 263.102 139.956C264.122 140.909 265.357 141.601 266.702 141.972C268.329 142.488 269.996 142.869 271.685 143.11C273.413 143.376 275.234 143.549 276.962 143.657H277.02C277.412 143.685 277.781 143.856 278.056 144.137C278.332 144.418 278.495 144.79 278.515 145.182C278.536 145.575 278.412 145.962 278.167 146.27C277.922 146.578 277.573 146.785 277.186 146.854C276.185 147.02 275.256 147.12 274.306 147.2C273.355 147.279 272.376 147.329 271.426 147.329C269.43 147.355 267.437 147.177 265.478 146.796C263.19 146.42 261.043 145.441 259.258 143.96C258.165 142.986 257.375 141.719 256.982 140.309C256.797 139.621 256.705 138.912 256.709 138.2C256.709 137.883 256.709 137.58 256.709 137.314C256.709 137.048 256.745 136.76 256.774 136.493C256.992 134.535 257.331 132.592 257.789 130.676C258.199 128.811 258.696 126.996 259.193 125.182C260.194 121.582 261.31 118.018 262.57 114.468C262.862 113.676 263.452 113.03 264.214 112.666C264.976 112.303 265.85 112.251 266.65 112.522C267.449 112.794 268.112 113.366 268.495 114.118C268.879 114.87 268.954 115.743 268.704 116.549L268.697 116.585Z" fill="#FFBE9D"/>
<path d="M265.622 109.4C262.022 111.092 260.381 113.655 257.645 120.718C258.602 125.427 266.947 128.213 266.947 128.213C268.184 125.318 269.17 122.321 269.892 119.256C270.612 115.498 269.28 107.679 265.622 109.4Z" fill="#263238"/>
<path d="M277.978 275.648C278.013 275.558 278.076 275.483 278.158 275.432C278.24 275.381 278.335 275.358 278.431 275.367L283.068 275.302C283.552 275.265 284.037 275.368 284.465 275.597C286.585 276.917 288.965 277.767 291.442 278.088C292.428 278.24 291.982 279.903 289.663 279.924C285.826 279.968 285.134 279.68 281.858 279.716C279.065 279.716 280.418 279.874 278.172 279.924C277.639 279.924 277.207 279.593 277.279 279.204L277.978 275.648Z" fill="#263238"/>
<path d="M262.001 275.648C262.037 275.558 262.102 275.482 262.185 275.432C262.268 275.381 262.365 275.358 262.462 275.367L266.234 275.302C266.716 275.264 267.199 275.366 267.624 275.598C268.978 276.541 268.805 277.621 271.944 278.089C272.923 278.24 272.441 279.903 270.122 279.925C266.285 279.968 266.522 279.716 264.967 279.716C263.412 279.716 264.362 279.874 262.138 279.925C261.605 279.925 261.173 279.594 261.259 279.205L262.001 275.648Z" fill="#263238"/>
<path d="M283.716 115.786C281.952 115.332 278.194 115.642 276.257 117.896C272.527 116.456 268.963 111.329 269.057 108.104C269.817 107.389 270.802 106.961 271.843 106.894C271.843 106.894 280.246 110.962 283.716 115.786Z" fill="#FAFAFA"/>
<path d="M286.855 115.512C286.855 115.512 287.381 111.257 282.233 107.124C282.751 106.699 284.782 107.182 284.782 107.182C284.782 107.182 290.801 109.767 290.621 116.47C289.538 115.672 288.187 115.329 286.855 115.512Z" fill="#FAFAFA"/>
<path d="M279.23 95.7914C278.984 95.57 278.755 95.3292 278.546 95.0714C278.533 95.0542 278.523 95.0344 278.517 95.0132C278.512 94.9921 278.51 94.9699 278.514 94.9483C278.517 94.9266 278.525 94.9059 278.537 94.8874C278.549 94.869 278.564 94.8532 278.582 94.841C278.617 94.8096 278.662 94.7922 278.708 94.7922C278.755 94.7922 278.8 94.8096 278.834 94.841C279.298 95.4098 279.884 95.8669 280.548 96.1785C281.212 96.4901 281.938 96.6482 282.672 96.641C282.717 96.6369 282.761 96.6504 282.796 96.6786C282.831 96.7069 282.854 96.7476 282.859 96.7922C282.86 96.8145 282.857 96.8368 282.849 96.8578C282.841 96.8787 282.829 96.8978 282.813 96.914C282.798 96.9301 282.779 96.943 282.759 96.9517C282.738 96.9605 282.716 96.965 282.694 96.965C281.434 97.0121 280.202 96.5944 279.23 95.7914Z" fill="#263238"/>
<path d="M203.904 52.1886L153.77 59.799C152.199 59.9923 150.611 59.6183 149.291 58.7445C147.971 57.8707 147.006 56.5544 146.57 55.0326L138.01 22.575C137.808 21.8686 137.76 21.127 137.871 20.4007C137.981 19.6743 138.246 18.9802 138.648 18.3654C139.051 17.7507 139.581 17.2297 140.202 16.838C140.824 16.4462 141.522 16.1928 142.25 16.095L192.384 8.46304C193.955 8.26982 195.544 8.64376 196.864 9.51756C198.184 10.3914 199.148 11.7076 199.584 13.2294L208.145 45.687C208.35 46.3948 208.4 47.1387 208.292 47.8677C208.184 48.5966 207.919 49.2936 207.516 49.9109C207.114 50.5282 206.582 51.0513 205.959 51.4444C205.336 51.8375 204.635 52.0914 203.904 52.1886Z" fill="#EC407A"/>
<path opacity="0.3" d="M203.904 52.1886L153.77 59.799C152.199 59.9923 150.611 59.6183 149.291 58.7445C147.971 57.8707 147.006 56.5544 146.57 55.0326L138.01 22.575C137.808 21.8686 137.76 21.127 137.871 20.4007C137.981 19.6743 138.246 18.9802 138.648 18.3654C139.051 17.7507 139.581 17.2297 140.202 16.838C140.824 16.4462 141.522 16.1928 142.25 16.095L192.384 8.46304C193.955 8.26982 195.544 8.64376 196.864 9.51756C198.184 10.3914 199.148 11.7076 199.584 13.2294L208.145 45.687C208.35 46.3948 208.4 47.1387 208.292 47.8677C208.184 48.5966 207.919 49.2936 207.516 49.9109C207.114 50.5282 206.582 51.0513 205.959 51.4444C205.336 51.8375 204.635 52.0914 203.904 52.1886Z" fill="black"/>
<path d="M211.73 50.9068L211.162 50.5324C211.697 49.712 212.052 48.7864 212.201 47.8178C212.35 46.8493 212.29 45.86 212.026 44.9164L206.942 25.5988L207.598 25.426L212.688 44.7292C212.977 45.7678 213.041 46.8561 212.876 47.9214C212.711 48.9868 212.32 50.0046 211.73 50.9068Z" fill="#EC407A"/>
<path d="M206.392 53.5227L199.658 54.5471L199.761 55.2233L206.495 54.1989L206.392 53.5227Z" fill="#EC407A"/>
<path d="M206.136 51.8503L156.002 59.4391C154.431 59.6338 152.842 59.2605 151.522 58.3864C150.201 57.5124 149.237 56.1953 148.802 54.6727L140.242 22.2367C140.038 21.5302 139.99 20.7883 140.1 20.0614C140.209 19.3346 140.475 18.64 140.877 18.0249C141.28 17.4099 141.81 16.8889 142.432 16.4974C143.054 16.106 143.754 15.8533 144.482 15.7567L194.616 8.12466C196.187 7.93144 197.776 8.30538 199.096 9.17919C200.415 10.053 201.38 11.3693 201.816 12.8911L210.362 45.3487C210.568 46.0554 210.618 46.7981 210.511 47.5262C210.403 48.2543 210.14 48.9507 209.739 49.5678C209.338 50.1848 208.808 50.7082 208.186 51.1021C207.565 51.496 206.865 51.7512 206.136 51.8503Z" fill="#EC407A"/>
<path d="M200.275 47.5445L159.228 53.7725L150.343 20.0405L191.39 13.8125L200.275 47.5445Z" fill="white"/>
<path opacity="0.2" d="M200.275 47.5445L159.228 53.7725L150.343 20.0405L191.39 13.8125L200.275 47.5445Z" fill="#EC407A"/>
<path opacity="0.2" d="M162.936 53.211L159.228 53.7726L152.453 28.047L156.154 27.4854L162.936 53.211Z" fill="#EC407A"/>
<path opacity="0.4" d="M154.051 19.4788L150.343 20.0404L152.453 28.0468L156.154 27.4852L154.051 19.4788Z" fill="#EC407A"/>
<path opacity="0.2" d="M154.051 19.4789L191.39 13.8125L193.5 21.8189L156.154 27.4853L154.051 19.4789Z" fill="#EC407A"/>
<path d="M218.916 39.9125L184.219 52.7069C169.344 48.2213 156.946 29.6669 156.01 20.4725L193.061 13.7837C193.997 22.9493 204.041 35.4269 218.916 39.9125Z" fill="white"/>
<path opacity="0.05" d="M218.916 39.9125L184.219 52.7069C169.344 48.2213 156.946 29.6669 156.01 20.4725L193.061 13.7837C193.997 22.9493 204.041 35.4269 218.916 39.9125Z" fill="#EC407A"/>
<path opacity="0.4" d="M193.061 13.7837L174.535 17.1245L156.01 20.4725C156.276 23.0717 157.45 26.4269 159.365 30.0053L196.085 22.3013C194.492 19.705 193.462 16.8032 193.061 13.7837Z" fill="#EC407A"/>
<path d="M184.874 41.1941L189.144 39.6029C189.606 40.0079 190.145 40.3164 190.728 40.5101C191.167 40.646 191.635 40.6609 192.082 40.5533C192.232 40.5408 192.378 40.4968 192.511 40.4242C192.643 40.3517 192.759 40.2521 192.851 40.132C192.942 40.0119 193.008 39.8739 193.043 39.727C193.078 39.58 193.081 39.4274 193.054 39.2789C192.972 38.7989 192.382 37.8389 191.282 36.3989C191.144 36.94 190.845 37.4268 190.426 37.7957C189.898 38.1853 189.286 38.4465 188.64 38.5589C186.993 38.9193 185.278 38.8146 183.686 38.2565C182.002 37.7551 180.484 36.8072 179.294 35.5133C178.602 34.8193 178.14 33.9297 177.97 32.9645C177.902 32.573 177.933 32.171 178.059 31.7942C178.184 31.4174 178.401 31.0774 178.69 30.8045C179.557 30.0845 180.596 29.603 181.706 29.4077C183.226 28.9789 184.817 28.867 186.381 29.0788C187.945 29.2906 189.449 29.8216 190.8 30.6389C192.452 31.5866 193.934 32.8033 195.185 34.2389C197.297 36.5717 198.199 38.4413 197.892 39.8477C197.585 41.2541 196.294 42.2309 194.018 42.7781C192.876 43.0852 191.695 43.2258 190.512 43.1957C189.529 43.1505 188.558 42.9588 187.632 42.6269C186.656 42.2684 185.729 41.7869 184.874 41.1941ZM188.316 33.2741C187.729 32.6196 186.986 32.1243 186.156 31.8341C185.449 31.5535 184.675 31.4883 183.931 31.6469C183.312 31.7981 182.959 32.1005 182.866 32.5613C182.772 33.0221 183.06 33.6125 183.708 34.3325C184.293 35.0046 185.035 35.5216 185.868 35.8373C186.54 36.1058 187.277 36.1685 187.985 36.0173C188.647 35.8589 189.029 35.5349 189.13 35.0597C189.23 34.5845 188.942 33.9941 188.316 33.3029V33.2741Z" fill="#263238"/>
<path d="M159.365 23.2015L159.17 22.4815C160.29 22.3321 161.364 21.9423 162.319 21.3388C163.274 20.7352 164.087 19.9324 164.703 18.9851C165.318 18.0379 165.722 16.9688 165.885 15.851C166.049 14.7333 165.969 13.5934 165.65 12.5095C164.989 10.1683 163.508 8.1427 161.478 6.8014C159.448 5.4601 157.004 4.89234 154.591 5.20151C153.472 5.35208 152.399 5.74263 151.444 6.34644C150.49 6.95025 149.677 7.75308 149.062 8.69998C148.447 9.64689 148.043 10.7155 147.879 11.8328C147.715 12.9501 147.794 14.0897 148.111 15.1735L147.391 15.2887C147.047 14.1131 146.962 12.877 147.141 11.6653C147.32 10.4536 147.759 9.29493 148.428 8.2689C149.097 7.24286 149.98 6.37375 151.016 5.72123C152.053 5.06871 153.218 4.64825 154.433 4.48871C157.046 4.15653 159.692 4.7732 161.889 6.22661C164.087 7.68001 165.689 9.87365 166.406 12.4087C166.75 13.5839 166.836 14.8195 166.657 16.0309C166.478 17.2422 166.039 18.4004 165.37 19.4259C164.701 20.4514 163.817 21.3198 162.781 21.9716C161.744 22.6233 160.579 23.0429 159.365 23.2015Z" fill="#263238"/>
<path d="M173.866 21.0053L173.678 20.2853C174.798 20.1347 175.871 19.7442 176.825 19.1404C177.78 18.5365 178.592 17.7337 179.208 16.7868C179.823 15.8399 180.226 14.7713 180.391 13.654C180.555 12.5367 180.475 11.3972 180.158 10.3133C179.495 7.97974 178.017 5.96083 175.994 4.62175C173.971 3.28267 171.535 2.71183 169.128 3.0125C168.008 3.16192 166.934 3.55176 165.979 4.15526C165.024 4.75876 164.211 5.56165 163.596 6.50887C162.98 7.4561 162.577 8.52524 162.413 9.64298C162.25 10.7607 162.33 11.9006 162.648 12.9845L161.928 13.0925C161.583 11.9164 161.497 10.6794 161.675 9.46674C161.854 8.2541 162.294 7.09462 162.964 6.06815C163.634 5.04168 164.518 4.17262 165.556 3.52081C166.594 2.86901 167.761 2.44995 168.977 2.2925C171.59 1.95604 174.237 2.5711 176.434 4.02526C178.631 5.47943 180.232 7.67562 180.943 10.2125C181.286 11.3903 181.369 12.6283 181.188 13.8414C181.006 15.0546 180.564 16.2139 179.891 17.2396C179.219 18.2654 178.332 19.1332 177.291 19.7833C176.251 20.4333 175.082 20.8502 173.866 21.0053Z" fill="#263238"/>
<path d="M188.374 18.8021L188.186 18.0821C189.306 17.9327 190.38 17.5428 191.335 16.9393C192.29 16.3358 193.103 15.5329 193.719 14.5857C194.334 13.6385 194.738 12.5693 194.901 11.4516C195.065 10.3339 194.985 9.19396 194.666 8.11009C194.004 5.76808 192.522 3.74215 190.491 2.40189C188.459 1.06164 186.014 0.496397 183.6 0.809285C182.481 0.959859 181.407 1.35041 180.453 1.95422C179.499 2.55803 178.686 3.36085 178.071 4.30776C177.456 5.25467 177.052 6.32332 176.888 7.4406C176.724 8.55788 176.803 9.69743 177.12 10.7813L176.4 10.8893C176.055 9.71368 175.968 8.47724 176.147 7.26506C176.325 6.05287 176.764 4.89371 177.433 3.86736C178.102 2.84101 178.986 1.97182 180.023 1.31962C181.06 0.667411 182.227 0.247673 183.442 0.0892846C186.055 -0.245947 188.703 0.369481 190.901 1.82334C193.099 3.2772 194.701 5.47263 195.415 8.00929C195.759 9.18443 195.845 10.4201 195.666 11.6314C195.487 12.8427 195.048 14.0009 194.379 15.0264C193.709 16.0519 192.826 16.9204 191.79 17.5722C190.753 18.2239 189.588 18.6435 188.374 18.8021Z" fill="#263238"/>
</svg>
