<svg width="360" height="269" viewBox="0 0 360 269" fill="none" xmlns="http://www.w3.org/2000/svg">
<path d="M360 235.729H0V235.909H360V235.729Z" fill="#EBEBEB"/>
<path d="M323.928 247.312H300.082V247.492H323.928V247.312Z" fill="#EBEBEB"/>
<path d="M238.478 249.271H232.222V249.451H238.478V249.271Z" fill="#EBEBEB"/>
<path d="M299.362 240.631H285.545V240.811H299.362V240.631Z" fill="#EBEBEB"/>
<path d="M68.868 241.841H37.7712V242.021H68.868V241.841Z" fill="#EBEBEB"/>
<path d="M79.8408 241.841H75.2832V242.021H79.8408V241.841Z" fill="#EBEBEB"/>
<path d="M162.108 244.879H94.6584V245.059H162.108V244.879Z" fill="#EBEBEB"/>
<path d="M170.64 203.616H31.6152C30.5261 203.614 29.4823 203.18 28.7128 202.409C27.9434 201.639 27.5112 200.594 27.5112 199.505V4.0752C27.5207 2.99234 27.957 1.95694 28.7255 1.19392C29.4939 0.43089 30.5323 0.001855 31.6152 0H170.64C171.73 0 172.776 0.433143 173.547 1.20414C174.318 1.97514 174.751 3.02084 174.751 4.1112V199.505C174.751 200.595 174.318 201.641 173.547 202.412C172.776 203.183 171.73 203.616 170.64 203.616ZM31.6152 0.144001C30.5739 0.145908 29.5758 0.560927 28.8401 1.29796C28.1044 2.035 27.6912 3.03383 27.6912 4.0752V199.505C27.6912 200.546 28.1044 201.545 28.8401 202.282C29.5758 203.019 30.5739 203.434 31.6152 203.436H170.64C171.682 203.434 172.681 203.019 173.418 202.282C174.155 201.546 174.569 200.547 174.571 199.505V4.0752C174.569 3.03316 174.155 2.03435 173.418 1.29752C172.681 0.560693 171.682 0.145904 170.64 0.144001H31.6152Z" fill="#EBEBEB"/>
<path d="M326.383 203.616H187.351C186.261 203.614 185.217 203.18 184.446 202.41C183.676 201.639 183.242 200.595 183.24 199.505V4.0752C183.251 2.99168 183.689 1.9563 184.459 1.19347C185.228 0.430638 186.268 0.00183477 187.351 0H326.383C327.465 0.00374724 328.501 0.433619 329.268 1.19644C330.035 1.95927 330.471 2.99358 330.48 4.0752V199.505C330.48 200.593 330.049 201.636 329.281 202.407C328.513 203.177 327.471 203.612 326.383 203.616ZM187.351 0.144001C186.309 0.145904 185.31 0.560693 184.574 1.29752C183.837 2.03435 183.422 3.03316 183.42 4.0752V199.505C183.422 200.547 183.837 201.546 184.574 202.282C185.31 203.019 186.309 203.434 187.351 203.436H326.383C327.425 203.434 328.424 203.019 329.161 202.282C329.898 201.546 330.312 200.547 330.314 199.505V4.0752C330.312 3.03316 329.898 2.03435 329.161 1.29752C328.424 0.560693 327.425 0.145904 326.383 0.144001H187.351Z" fill="#EBEBEB"/>
<path d="M118.454 195.537H62.0424V235.072H118.454V195.537Z" fill="#E0E0E0"/>
<path d="M101.578 195.537H62.0424V235.072H101.578V195.537Z" fill="#F0F0F0"/>
<path d="M91.8792 219.694C91.8792 224.014 88.4304 228.334 80.3592 228.334C76.9357 228.386 73.55 227.613 70.488 226.081L73.368 219.838C75.4223 221.018 77.7458 221.647 80.1144 221.667C82.0152 221.667 83.376 221.019 83.376 219.73C83.376 218.65 82.5552 218.009 80.4024 218.009H77.04V212.804L80.7408 209.038H71.784V202.652H90.504V207.85L85.8384 212.588C89.7912 213.524 91.8792 216.209 91.8792 219.694Z" fill="#E0E0E0"/>
<path d="M124.358 117.115H67.9464V156.65H124.358V117.115Z" fill="#E0E0E0"/>
<path d="M107.482 117.115H67.9464V156.65H107.482V117.115Z" fill="#F0F0F0"/>
<path d="M93.1679 124.192V149.305H84.7007V130.585H80.3807V124.199L93.1679 124.192Z" fill="#E0E0E0"/>
<path d="M76.1401 195.862H132.552V156.327H76.1401V195.862Z" fill="#E0E0E0"/>
<path d="M93.0239 195.862H132.559V156.327H93.0239V195.862Z" fill="#EBEBEB"/>
<path d="M123.185 182.672V189.238H103.025V184.04L112.133 175.68C113.854 174.068 114.106 173.096 114.106 172.232C114.106 171.015 113.278 170.259 111.665 170.259C110.892 170.26 110.135 170.48 109.482 170.893C108.828 171.306 108.305 171.894 107.971 172.592L101.585 169.402C103.414 165.953 107.035 163.584 112.457 163.584C118.411 163.584 122.609 166.673 122.609 171.447C122.609 173.924 121.961 176.148 118.289 179.446L114.689 182.708L123.185 182.672Z" fill="#FAFAFA"/>
<path d="M294.595 225.72H236.52L238.594 222.415C245.707 211.061 254.254 197.359 262.073 184.73L238.205 148.918L241.805 146.52L264.578 180.72C275.53 163.022 284.515 148.32 285.206 146.628C285.126 146.837 285.087 147.059 285.091 147.283H289.411C289.411 148.176 289.411 148.831 267.206 184.673L294.595 225.72ZM244.318 221.4H286.56L264.744 188.676C256.32 202.169 248.062 215.424 244.318 221.4Z" fill="#E0E0E0"/>
<path d="M218.297 119.908C254.398 118.641 258.012 150.011 258.012 150.011L274.932 147.851C274.932 147.851 264.96 191.714 245.261 194.752C225.562 197.79 205.855 188.409 198.05 151.595C197.453 148.794 197.359 120.642 218.297 119.908Z" fill="#F0F0F0"/>
<path d="M201.348 153.137C201.348 153.137 209.772 191.297 226.404 191.506C243.036 191.715 245.261 151.596 245.261 151.596L201.348 153.137Z" fill="#E6E6E6"/>
<path d="M291.413 155.996H181.397C180.246 155.996 179.107 155.769 178.045 155.328C176.982 154.888 176.017 154.242 175.203 153.429C174.39 152.615 173.746 151.649 173.306 150.586C172.866 149.523 172.641 148.384 172.642 147.233C172.642 144.911 173.564 142.684 175.206 141.042C176.848 139.4 179.075 138.478 181.397 138.478H291.413C293.736 138.478 295.963 139.4 297.606 141.042C299.249 142.684 300.173 144.911 300.175 147.233C300.175 148.384 299.949 149.523 299.508 150.586C299.068 151.65 298.422 152.616 297.609 153.429C296.795 154.243 295.829 154.888 294.766 155.329C293.703 155.769 292.564 155.996 291.413 155.996Z" fill="#E0E0E0"/>
<path d="M291.701 226.259H181.109C180.202 226.259 179.332 225.899 178.69 225.257C178.049 224.616 177.689 223.746 177.689 222.839C177.689 221.932 178.049 221.062 178.69 220.421C179.332 219.779 180.202 219.419 181.109 219.419H291.701C292.15 219.418 292.595 219.506 293.011 219.677C293.426 219.849 293.803 220.101 294.121 220.419C294.439 220.736 294.691 221.114 294.862 221.529C295.034 221.944 295.122 222.39 295.121 222.839C295.121 223.746 294.76 224.616 294.119 225.257C293.478 225.899 292.608 226.259 291.701 226.259Z" fill="#E0E0E0"/>
<path d="M236.952 225.72H178.884L180.95 222.415C188.071 211.061 196.618 197.359 204.437 184.73L180.569 148.918L184.169 146.52L206.942 180.72C217.894 163.022 226.879 148.32 227.57 146.628C227.49 146.837 227.451 147.059 227.455 147.283H231.775C231.775 148.176 231.775 148.831 209.57 184.673L236.952 225.72ZM186.682 221.4H228.888L207.072 188.676C198.72 202.169 190.426 215.424 186.682 221.4Z" fill="#E0E0E0"/>
<path d="M181.728 237.413C185.005 237.413 187.661 234.595 187.661 231.12C187.661 227.645 185.005 224.827 181.728 224.827C178.451 224.827 175.795 227.645 175.795 231.12C175.795 234.595 178.451 237.413 181.728 237.413Z" fill="#E0E0E0"/>
<path d="M180.101 234.835C182.037 234.835 183.607 233.171 183.607 231.119C183.607 229.068 182.037 227.404 180.101 227.404C178.164 227.404 176.594 229.068 176.594 231.119C176.594 233.171 178.164 234.835 180.101 234.835Z" fill="#EBEBEB"/>
<path d="M229.997 237.413C233.273 237.413 235.93 234.595 235.93 231.12C235.93 227.645 233.273 224.827 229.997 224.827C226.72 224.827 224.064 227.645 224.064 231.12C224.064 234.595 226.72 237.413 229.997 237.413Z" fill="#E0E0E0"/>
<path d="M228.377 234.835C230.313 234.835 231.883 233.171 231.883 231.119C231.883 229.068 230.313 227.404 228.377 227.404C226.44 227.404 224.87 229.068 224.87 231.119C224.87 233.171 226.44 234.835 228.377 234.835Z" fill="#EBEBEB"/>
<path d="M291.233 237.413C294.509 237.413 297.166 234.595 297.166 231.12C297.166 227.645 294.509 224.827 291.233 224.827C287.956 224.827 285.3 227.645 285.3 231.12C285.3 234.595 287.956 237.413 291.233 237.413Z" fill="#E0E0E0"/>
<path d="M293.119 231.119C293.078 231.803 292.839 232.459 292.429 233.007C292.02 233.556 291.459 233.973 290.816 234.206C290.173 234.44 289.476 234.48 288.81 234.322C288.144 234.164 287.539 233.815 287.069 233.317C286.599 232.82 286.285 232.195 286.166 231.522C286.047 230.848 286.128 230.154 286.398 229.525C286.668 228.896 287.117 228.361 287.688 227.984C288.259 227.607 288.928 227.406 289.613 227.404C290.087 227.416 290.555 227.522 290.989 227.716C291.422 227.909 291.813 228.187 292.139 228.532C292.465 228.877 292.719 229.284 292.888 229.728C293.056 230.172 293.135 230.645 293.119 231.119Z" fill="#EBEBEB"/>
<path d="M242.964 237.413C246.241 237.413 248.897 234.595 248.897 231.12C248.897 227.645 246.241 224.827 242.964 224.827C239.687 224.827 237.031 227.645 237.031 231.12C237.031 234.595 239.687 237.413 242.964 237.413Z" fill="#E0E0E0"/>
<path d="M244.843 231.119C244.802 231.803 244.563 232.459 244.153 233.008C243.743 233.557 243.182 233.974 242.539 234.207C241.895 234.44 241.197 234.48 240.531 234.322C239.865 234.163 239.26 233.813 238.791 233.315C238.321 232.816 238.008 232.191 237.89 231.517C237.771 230.843 237.853 230.149 238.124 229.52C238.396 228.892 238.845 228.356 239.417 227.98C239.99 227.604 240.659 227.404 241.344 227.404C241.818 227.417 242.285 227.524 242.718 227.718C243.15 227.912 243.541 228.189 243.866 228.535C244.191 228.88 244.445 229.286 244.612 229.73C244.78 230.173 244.859 230.646 244.843 231.119Z" fill="#EBEBEB"/>
<path d="M87.7392 10.2749H86.7312V66.2837H87.7392V10.2749Z" fill="#E0E0E0"/>
<path d="M139.45 10.2749H138.442V61.3301H139.45V10.2749Z" fill="#E0E0E0"/>
<path d="M184.608 10.2749H183.6V72.5837H184.608V10.2749Z" fill="#E0E0E0"/>
<path d="M230.854 10.2749H229.846V66.2837H230.854V10.2749Z" fill="#E0E0E0"/>
<path d="M275.998 10.2749H274.99V69.7469H275.998V10.2749Z" fill="#E0E0E0"/>
<path d="M98.7831 53.5853L61.8804 66.7983L75.0935 103.701L111.996 90.4879L98.7831 53.5853Z" fill="#E0E0E0"/>
<path d="M93.3768 64.0796L101.16 85.8092L95.04 88.0124L92.0088 79.538L83.628 82.5404L86.6592 91.0148L80.5104 93.218L72.72 71.4884L78.8616 69.2852L81.7848 77.45L90.1728 74.4476L87.2496 66.2828L93.3768 64.0796Z" fill="#F5F5F5"/>
<path d="M161.238 48.5597L122.906 40.3701L114.717 78.7018L153.048 86.8914L161.238 48.5597Z" fill="#F5F5F5"/>
<path d="M141.214 71.5328L131.666 69.4952L128.959 73.4984L122.443 72.1088L137.232 51.668L143.518 53.0072L148.694 77.7176L142.049 76.2776L141.214 71.5328ZM140.35 66.428L138.96 58.58L134.518 65.1824L140.35 66.428Z" fill="#E0E0E0"/>
<path d="M199.483 53.4147L161.056 61.1421L168.783 99.5696L207.211 91.8422L199.483 53.4147Z" fill="#E0E0E0"/>
<path d="M193.738 71.5104C194.774 76.6512 191.534 80.6328 185.357 81.8712L181.418 82.6632L182.606 88.5816L176.206 89.8632L171.655 67.2336L182.002 65.16C188.172 63.9144 192.701 66.3336 193.738 71.5104ZM187.258 72.8064C186.833 70.704 185.263 69.7464 182.614 70.2792L179.057 70.9992L180.389 77.6304L183.946 76.9104C186.61 76.3704 187.69 74.88 187.272 72.8064H187.258Z" fill="#F5F5F5"/>
<path d="M252.247 44.8416L213.09 43.0771L211.325 82.2342L250.483 83.9986L252.247 44.8416Z" fill="#F5F5F5"/>
<path d="M242.316 61.0133C242.078 66.2477 237.996 69.3365 231.689 69.0485L227.664 68.8685L227.398 74.8949L220.874 74.6069L221.911 51.5669L232.452 52.0421C238.745 52.3013 242.554 55.7429 242.316 61.0133ZM235.728 60.7181C235.822 58.5581 234.526 57.2621 231.826 57.1181L228.226 56.9525L227.923 63.7061L231.523 63.8717C234.223 64.0157 235.627 62.8277 235.728 60.7181Z" fill="#E0E0E0"/>
<path d="M294.19 56.7156L255.192 60.6562L259.133 99.6545L298.131 95.7138L294.19 56.7156Z" fill="#E0E0E0"/>
<path d="M280.217 81.1145L281.052 89.3513L274.572 90.0065L273.73 81.6761L263.498 67.9313L270.353 67.2113L276.718 75.7865L281.246 66.1169L287.546 65.4761L280.217 81.1145Z" fill="#F5F5F5"/>
<path d="M180 268.243C257.099 268.243 319.601 264.594 319.601 260.092C319.601 255.591 257.099 251.942 180 251.942C102.901 251.942 40.3991 255.591 40.3991 260.092C40.3991 264.594 102.901 268.243 180 268.243Z" fill="#F5F5F5"/>
<path d="M299.5 243.38L309.62 223.268C309.993 222.525 309.694 221.621 308.952 221.247L279.655 206.506C278.913 206.132 278.008 206.431 277.635 207.174L267.515 227.286C267.141 228.028 267.44 228.933 268.183 229.306L297.479 244.047C298.222 244.421 299.126 244.122 299.5 243.38Z" fill="#EC407A"/>
<path opacity="0.2" d="M299.5 243.38L309.62 223.268C309.993 222.525 309.694 221.621 308.952 221.247L279.655 206.506C278.913 206.132 278.008 206.431 277.635 207.174L267.515 227.286C267.141 228.028 267.44 228.933 268.183 229.306L297.479 244.047C298.222 244.421 299.126 244.122 299.5 243.38Z" fill="white"/>
<path opacity="0.2" d="M304.755 232.926L309.613 223.272C309.986 222.53 309.687 221.625 308.945 221.252L279.648 206.511C278.906 206.137 278.001 206.436 277.628 207.179L272.77 216.833C272.397 217.575 272.696 218.48 273.438 218.853L302.735 233.594C303.477 233.968 304.382 233.669 304.755 232.926Z" fill="white"/>
<path d="M304.855 221.09C305.042 220.715 306.259 218.303 306.446 217.922C307.037 216.763 305.258 214.682 302.486 213.285C299.714 211.888 296.986 211.701 296.402 212.867L294.811 216.035C294.221 217.202 295.999 219.275 298.771 220.672C301.543 222.069 304.272 222.256 304.855 221.09Z" fill="#EC407A"/>
<path opacity="0.1" d="M304.855 221.09C305.042 220.715 306.259 218.303 306.446 217.922C307.037 216.763 305.258 214.682 302.486 213.285C299.714 211.888 296.986 211.701 296.402 212.867L294.811 216.035C294.221 217.202 295.999 219.275 298.771 220.672C301.543 222.069 304.272 222.256 304.855 221.09Z" fill="white"/>
<path opacity="0.2" d="M300.362 217.505C297.59 216.108 295.812 214.035 296.402 212.868C296.993 211.702 299.714 211.896 302.486 213.286C305.258 214.676 307.037 216.764 306.446 217.923C305.856 219.082 303.12 218.88 300.362 217.505Z" fill="white"/>
<path d="M292.32 214.776C292.514 214.394 293.724 211.982 293.918 211.608C294.502 210.441 292.723 208.368 289.951 206.971C287.179 205.574 284.45 205.387 283.867 206.553C283.68 206.928 282.427 209.34 282.276 209.721C281.686 210.881 283.464 212.961 286.236 214.358C289.008 215.755 291.715 215.935 292.32 214.776Z" fill="#EC407A"/>
<path opacity="0.1" d="M292.32 214.776C292.514 214.394 293.724 211.982 293.918 211.608C294.502 210.441 292.723 208.368 289.951 206.971C287.179 205.574 284.45 205.387 283.867 206.553C283.68 206.928 282.427 209.34 282.276 209.721C281.686 210.881 283.464 212.961 286.236 214.358C289.008 215.755 291.715 215.935 292.32 214.776Z" fill="white"/>
<path opacity="0.2" d="M287.806 211.19C285.034 209.793 283.262 207.72 283.846 206.553C284.429 205.387 287.158 205.574 289.93 206.971C292.702 208.368 294.48 210.441 293.897 211.608C293.314 212.774 290.585 212.587 287.806 211.19Z" fill="white"/>
<path d="M301.176 228.406C301.363 228.024 302.58 225.612 302.767 225.238C303.358 224.071 301.579 221.998 298.807 220.601C296.035 219.204 293.306 219.017 292.723 220.183C292.529 220.558 291.319 222.97 291.132 223.351C290.542 224.518 292.32 226.591 295.092 227.988C297.864 229.385 300.593 229.572 301.176 228.406Z" fill="#EC407A"/>
<path opacity="0.1" d="M301.176 228.406C301.363 228.024 302.58 225.612 302.767 225.238C303.358 224.071 301.579 221.998 298.807 220.601C296.035 219.204 293.306 219.017 292.723 220.183C292.529 220.558 291.319 222.97 291.132 223.351C290.542 224.518 292.32 226.591 295.092 227.988C297.864 229.385 300.593 229.572 301.176 228.406Z" fill="white"/>
<path opacity="0.2" d="M296.683 224.82C293.911 223.423 292.133 221.35 292.723 220.183C293.314 219.017 296.028 219.204 298.807 220.601C301.586 221.998 303.358 224.071 302.767 225.238C302.177 226.404 299.462 226.217 296.683 224.82Z" fill="white"/>
<path d="M288.619 222.092L290.21 218.924C290.801 217.757 289.022 215.684 286.25 214.287C283.478 212.89 280.75 212.703 280.166 213.869C279.979 214.244 278.762 216.656 278.575 217.037C277.985 218.196 279.763 220.27 282.535 221.667C285.307 223.064 288.036 223.251 288.619 222.092Z" fill="#EC407A"/>
<path opacity="0.1" d="M288.619 222.092L290.21 218.924C290.801 217.757 289.022 215.684 286.25 214.287C283.478 212.89 280.75 212.703 280.166 213.869C279.979 214.244 278.762 216.656 278.575 217.037C277.985 218.196 279.763 220.27 282.535 221.667C285.307 223.064 288.036 223.251 288.619 222.092Z" fill="white"/>
<path opacity="0.2" d="M284.126 218.505C281.354 217.108 279.583 215.027 280.166 213.868C280.75 212.709 283.478 212.889 286.25 214.285C289.022 215.682 290.801 217.756 290.21 218.922C289.62 220.089 286.906 219.894 284.126 218.505Z" fill="white"/>
<path d="M277.013 224.504H245.282C244.157 224.504 243.245 225.416 243.245 226.542V258.272C243.245 259.397 244.157 260.31 245.282 260.31H277.013C278.138 260.31 279.05 259.397 279.05 258.272V226.542C279.05 225.416 278.138 224.504 277.013 224.504Z" fill="#263238"/>
<path opacity="0.3" d="M277.013 224.504H245.282C244.157 224.504 243.245 225.416 243.245 226.542V258.272C243.245 259.397 244.157 260.31 245.282 260.31H277.013C278.138 260.31 279.05 259.397 279.05 258.272V226.542C279.05 225.416 278.138 224.504 277.013 224.504Z" fill="white"/>
<path opacity="0.2" d="M266.71 224.504H245.282C244.157 224.504 243.245 225.416 243.245 226.542V258.272C243.245 259.397 244.157 260.31 245.282 260.31H266.71C267.835 260.31 268.747 259.397 268.747 258.272V226.542C268.747 225.416 267.835 224.504 266.71 224.504Z" fill="white"/>
<path d="M248.602 229.752H244.318C241.913 229.752 239.962 232.272 239.962 235.376C239.962 238.479 241.913 240.999 244.318 240.999H248.602C251.006 240.999 252.958 238.486 252.958 235.376C252.958 232.265 251.006 229.752 248.602 229.752Z" fill="#263238"/>
<path opacity="0.2" d="M248.602 229.752H244.318C241.913 229.752 239.962 232.272 239.962 235.376C239.962 238.479 241.913 240.999 244.318 240.999H248.602C251.006 240.999 252.958 238.486 252.958 235.376C252.958 232.265 251.006 229.752 248.602 229.752Z" fill="white"/>
<path opacity="0.2" d="M244.318 240.999C246.723 240.999 248.674 238.481 248.674 235.376C248.674 232.27 246.723 229.752 244.318 229.752C241.912 229.752 239.962 232.27 239.962 235.376C239.962 238.481 241.912 240.999 244.318 240.999Z" fill="white"/>
<path d="M248.602 243.806H244.318C241.913 243.806 239.962 246.326 239.962 249.429C239.962 252.533 241.913 255.053 244.318 255.053H248.602C251.006 255.053 252.958 252.54 252.958 249.429C252.958 246.319 251.006 243.806 248.602 243.806Z" fill="#263238"/>
<path opacity="0.2" d="M248.602 243.806H244.318C241.913 243.806 239.962 246.326 239.962 249.429C239.962 252.533 241.913 255.053 244.318 255.053H248.602C251.006 255.053 252.958 252.54 252.958 249.429C252.958 246.319 251.006 243.806 248.602 243.806Z" fill="white"/>
<path opacity="0.2" d="M244.318 255.053C246.723 255.053 248.674 252.535 248.674 249.429C248.674 246.324 246.723 243.806 244.318 243.806C241.912 243.806 239.962 246.324 239.962 249.429C239.962 252.535 241.912 255.053 244.318 255.053Z" fill="white"/>
<path d="M261.454 229.752H257.17C254.765 229.752 252.814 232.272 252.814 235.376C252.814 238.479 254.765 240.999 257.17 240.999H261.454C263.858 240.999 265.81 238.486 265.81 235.376C265.81 232.265 263.858 229.752 261.454 229.752Z" fill="#263238"/>
<path opacity="0.2" d="M261.454 229.752H257.17C254.765 229.752 252.814 232.272 252.814 235.376C252.814 238.479 254.765 240.999 257.17 240.999H261.454C263.858 240.999 265.81 238.486 265.81 235.376C265.81 232.265 263.858 229.752 261.454 229.752Z" fill="white"/>
<path opacity="0.2" d="M257.17 240.999C259.575 240.999 261.526 238.481 261.526 235.376C261.526 232.27 259.575 229.752 257.17 229.752C254.764 229.752 252.814 232.27 252.814 235.376C252.814 238.481 254.764 240.999 257.17 240.999Z" fill="white"/>
<path d="M261.454 243.806H257.17C254.765 243.806 252.814 246.326 252.814 249.429C252.814 252.533 254.765 255.053 257.17 255.053H261.454C263.858 255.053 265.81 252.54 265.81 249.429C265.81 246.319 263.858 243.806 261.454 243.806Z" fill="#263238"/>
<path opacity="0.2" d="M261.454 243.806H257.17C254.765 243.806 252.814 246.326 252.814 249.429C252.814 252.533 254.765 255.053 257.17 255.053H261.454C263.858 255.053 265.81 252.54 265.81 249.429C265.81 246.319 263.858 243.806 261.454 243.806Z" fill="white"/>
<path opacity="0.2" d="M257.17 255.053C259.575 255.053 261.526 252.535 261.526 249.429C261.526 246.324 259.575 243.806 257.17 243.806C254.764 243.806 252.814 246.324 252.814 249.429C252.814 252.535 254.764 255.053 257.17 255.053Z" fill="white"/>
<path d="M310.399 258.804V236.29C310.399 235.459 309.725 234.785 308.894 234.785H276.098C275.267 234.785 274.594 235.459 274.594 236.29V258.804C274.594 259.635 275.267 260.309 276.098 260.309H308.894C309.725 260.309 310.399 259.635 310.399 258.804Z" fill="#EC407A"/>
<path opacity="0.6" d="M310.399 258.804V236.29C310.399 235.459 309.725 234.785 308.894 234.785H276.098C275.267 234.785 274.594 235.459 274.594 236.29V258.804C274.594 259.635 275.267 260.309 276.098 260.309H308.894C309.725 260.309 310.399 259.635 310.399 258.804Z" fill="white"/>
<path opacity="0.2" d="M310.406 247.089V236.282C310.406 235.451 309.733 234.777 308.902 234.777H276.106C275.274 234.777 274.601 235.451 274.601 236.282V247.089C274.601 247.92 275.274 248.594 276.106 248.594H308.902C309.733 248.594 310.406 247.92 310.406 247.089Z" fill="white"/>
<path d="M305.15 236.462V232.92C305.15 231.617 302.638 230.558 299.527 230.558C296.417 230.558 293.904 231.617 293.904 232.92V236.462C293.904 237.765 296.424 238.824 299.527 238.824C302.63 238.824 305.15 237.765 305.15 236.462Z" fill="#EC407A"/>
<path opacity="0.5" d="M305.15 236.462V232.92C305.15 231.617 302.638 230.558 299.527 230.558C296.417 230.558 293.904 231.617 293.904 232.92V236.462C293.904 237.765 296.424 238.824 299.527 238.824C302.63 238.824 305.15 237.765 305.15 236.462Z" fill="white"/>
<path opacity="0.2" d="M299.52 235.281C296.417 235.281 293.897 234.223 293.897 232.92C293.897 231.617 296.417 230.558 299.52 230.558C302.623 230.558 305.143 231.617 305.143 232.92C305.143 234.223 302.638 235.281 299.52 235.281Z" fill="white"/>
<path d="M291.096 236.462V232.92C291.096 231.617 288.576 230.558 285.473 230.558C282.37 230.558 279.85 231.617 279.85 232.92V236.462C279.85 237.765 282.37 238.824 285.473 238.824C288.576 238.824 291.096 237.765 291.096 236.462Z" fill="#EC407A"/>
<path opacity="0.5" d="M291.096 236.462V232.92C291.096 231.617 288.576 230.558 285.473 230.558C282.37 230.558 279.85 231.617 279.85 232.92V236.462C279.85 237.765 282.37 238.824 285.473 238.824C288.576 238.824 291.096 237.765 291.096 236.462Z" fill="white"/>
<path opacity="0.2" d="M285.473 235.281C282.37 235.281 279.85 234.223 279.85 232.92C279.85 231.617 282.37 230.558 285.473 230.558C288.576 230.558 291.096 231.617 291.096 232.92C291.096 234.223 288.576 235.281 285.473 235.281Z" fill="white"/>
<path d="M305.15 244.648V241.106C305.15 239.803 302.638 238.744 299.527 238.744C296.417 238.744 293.904 239.803 293.904 241.106V244.648C293.904 245.951 296.424 247.01 299.527 247.01C302.63 247.01 305.15 245.951 305.15 244.648Z" fill="#EC407A"/>
<path opacity="0.5" d="M305.15 244.648V241.106C305.15 239.803 302.638 238.744 299.527 238.744C296.417 238.744 293.904 239.803 293.904 241.106V244.648C293.904 245.951 296.424 247.01 299.527 247.01C302.63 247.01 305.15 245.951 305.15 244.648Z" fill="white"/>
<path opacity="0.2" d="M299.52 243.467C296.417 243.467 293.897 242.409 293.897 241.106C293.897 239.803 296.417 238.744 299.52 238.744C302.623 238.744 305.143 239.803 305.143 241.106C305.143 242.409 302.638 243.467 299.52 243.467Z" fill="white"/>
<path d="M291.096 244.648V241.106C291.096 239.803 288.576 238.744 285.473 238.744C282.37 238.744 279.85 239.803 279.85 241.106V244.648C279.85 245.951 282.37 247.01 285.473 247.01C288.576 247.01 291.096 245.951 291.096 244.648Z" fill="#EC407A"/>
<path opacity="0.5" d="M291.096 244.648V241.106C291.096 239.803 288.576 238.744 285.473 238.744C282.37 238.744 279.85 239.803 279.85 241.106V244.648C279.85 245.951 282.37 247.01 285.473 247.01C288.576 247.01 291.096 245.951 291.096 244.648Z" fill="white"/>
<path opacity="0.2" d="M285.473 243.467C282.37 243.467 279.85 242.409 279.85 241.106C279.85 239.803 282.37 238.744 285.473 238.744C288.576 238.744 291.096 239.803 291.096 241.106C291.096 242.409 288.576 243.467 285.473 243.467Z" fill="white"/>
<path d="M103.118 255.924V260.309H48.1752V255.924L62.1072 250.409H89.1864L103.118 255.924Z" fill="#263238"/>
<path opacity="0.2" d="M103.118 255.924V255.968H48.1752V255.924L62.1072 250.409H89.1864L103.118 255.924Z" fill="white"/>
<path d="M74.5271 191.657C78.6311 191.24 77.2271 187.813 78.9407 185.53C80.6543 183.248 84.9239 183.111 85.7735 187.813C86.6231 192.514 85.7735 204.517 75.5135 204.927C65.2535 205.337 64.2455 189.807 64.2455 189.807C64.2455 189.807 67.5431 192.37 74.5271 191.657Z" fill="#EC407A"/>
<path opacity="0.5" d="M74.5271 191.657C78.6311 191.24 77.2271 187.813 78.9407 185.53C80.6543 183.248 84.9239 183.111 85.7735 187.813C86.6231 192.514 85.7735 204.517 75.5135 204.927C65.2535 205.337 64.2455 189.807 64.2455 189.807C64.2455 189.807 67.5431 192.37 74.5271 191.657Z" fill="white"/>
<path d="M85.6008 187.072C85.6008 187.072 88.4808 187.669 88.6248 188.512C88.7688 189.354 85.6008 190.053 85.6008 190.053C85.6008 190.053 83.3544 189.023 83.3544 188.555C83.3544 188.087 85.6008 187.072 85.6008 187.072Z" fill="#EC407A"/>
<path d="M82.2527 187.403C82.2527 187.534 82.2139 187.662 82.1411 187.771C82.0683 187.88 81.9649 187.964 81.8438 188.015C81.7228 188.065 81.5896 188.078 81.4611 188.052C81.3326 188.027 81.2146 187.964 81.122 187.871C81.0293 187.778 80.9662 187.66 80.9407 187.532C80.9151 187.403 80.9282 187.27 80.9784 187.149C81.0285 187.028 81.1134 186.925 81.2223 186.852C81.3313 186.779 81.4593 186.74 81.5903 186.74C81.766 186.74 81.9345 186.81 82.0587 186.934C82.183 187.058 82.2527 187.227 82.2527 187.403Z" fill="#EC407A"/>
<path d="M94.2048 253.383H56.8368C55.7495 253.38 54.7079 252.946 53.939 252.177C53.1702 251.408 52.7366 250.367 52.7328 249.279C52.7366 248.192 53.1702 247.15 53.939 246.382C54.7079 245.613 55.7495 245.179 56.8368 245.175H94.2048C95.2921 245.179 96.3338 245.613 97.1026 246.382C97.8714 247.15 98.305 248.192 98.3088 249.279C98.305 250.367 97.8714 251.408 97.1026 252.177C96.3338 252.946 95.2921 253.38 94.2048 253.383Z" fill="#EC407A"/>
<path d="M91.3176 245.188H59.7168C58.6295 245.185 57.5878 244.751 56.819 243.982C56.0502 243.213 55.6166 242.172 55.6128 241.084C55.6147 239.997 56.0477 238.954 56.8169 238.185C57.5862 237.415 58.6289 236.982 59.7168 236.98H91.3176C92.4055 236.982 93.4482 237.415 94.2175 238.185C94.9867 238.954 95.4197 239.997 95.4216 241.084C95.4178 242.172 94.9842 243.213 94.2154 243.982C93.4465 244.751 92.4049 245.185 91.3176 245.188Z" fill="#263238"/>
<path d="M88.4304 236.988H62.5968C61.5102 236.986 60.4685 236.554 59.6995 235.787C58.9304 235.019 58.4966 233.978 58.4928 232.892C58.4947 231.804 58.9277 230.761 59.6969 229.992C60.4662 229.222 61.5089 228.79 62.5968 228.788H88.4304C89.5183 228.79 90.561 229.222 91.3303 229.992C92.0995 230.761 92.5325 231.804 92.5344 232.892C92.5306 233.978 92.0968 235.019 91.3277 235.787C90.5587 236.554 89.517 236.986 88.4304 236.988Z" fill="#EC407A"/>
<path d="M85.5504 228.796H65.4696C64.3829 228.794 63.3413 228.362 62.5722 227.594C61.8032 226.826 61.3694 225.785 61.3656 224.699C61.3694 223.611 61.803 222.57 62.5718 221.801C63.3406 221.032 64.3823 220.599 65.4696 220.595H85.5504C86.6376 220.599 87.6793 221.032 88.4481 221.801C89.217 222.57 89.6506 223.611 89.6544 224.699C89.6506 225.785 89.2167 226.826 88.4477 227.594C87.6787 228.362 86.637 228.794 85.5504 228.796Z" fill="#263238"/>
<path d="M82.6631 220.601H68.3495C67.2623 220.597 66.2206 220.164 65.4518 219.395C64.6829 218.626 64.2493 217.584 64.2455 216.497C64.2493 215.411 64.6832 214.37 65.4522 213.602C66.2212 212.834 67.2629 212.402 68.3495 212.4H82.6631C83.7498 212.402 84.7914 212.834 85.5605 213.602C86.3295 214.37 86.7633 215.411 86.7671 216.497C86.7633 217.584 86.3297 218.626 85.5609 219.395C84.7921 220.164 83.7504 220.597 82.6631 220.601Z" fill="#EC407A"/>
<path d="M79.7759 212.401H71.2295C70.1417 212.399 69.0989 211.966 68.3297 211.197C67.5604 210.427 67.1275 209.385 67.1255 208.297C67.1293 207.21 67.5629 206.168 68.3318 205.399C69.1006 204.63 70.1423 204.197 71.2295 204.193H79.7759C80.8632 204.197 81.9049 204.63 82.6737 205.399C83.4425 206.168 83.8762 207.21 83.8799 208.297C83.878 209.385 83.445 210.427 82.6758 211.197C81.9066 211.966 80.8638 212.399 79.7759 212.401Z" fill="#263238"/>
<path opacity="0.2" d="M91.3176 245.188H59.7168C58.6295 245.185 57.5878 244.751 56.819 243.982C56.0502 243.213 55.6166 242.172 55.6128 241.084C55.6147 239.997 56.0477 238.954 56.8169 238.185C57.5862 237.415 58.6289 236.982 59.7168 236.98H91.3176C92.4055 236.982 93.4482 237.415 94.2175 238.185C94.9867 238.954 95.4197 239.997 95.4216 241.084C95.4178 242.172 94.9842 243.213 94.2154 243.982C93.4465 244.751 92.4049 245.185 91.3176 245.188Z" fill="white"/>
<path opacity="0.2" d="M88.4304 236.988H62.5968C61.5102 236.986 60.4685 236.554 59.6995 235.787C58.9304 235.019 58.4966 233.978 58.4928 232.892C58.4947 231.804 58.9277 230.761 59.6969 229.992C60.4662 229.222 61.5089 228.79 62.5968 228.788H88.4304C89.5183 228.79 90.561 229.222 91.3303 229.992C92.0995 230.761 92.5325 231.804 92.5344 232.892C92.5306 233.978 92.0968 235.019 91.3277 235.787C90.5587 236.554 89.517 236.986 88.4304 236.988Z" fill="white"/>
<path opacity="0.4" d="M85.5504 228.796H65.4696C64.3829 228.794 63.3413 228.362 62.5722 227.594C61.8032 226.826 61.3694 225.785 61.3656 224.699C61.3694 223.611 61.803 222.57 62.5718 221.801C63.3406 221.032 64.3823 220.599 65.4696 220.595H85.5504C86.6376 220.599 87.6793 221.032 88.4481 221.801C89.217 222.57 89.6506 223.611 89.6544 224.699C89.6506 225.785 89.2167 226.826 88.4477 227.594C87.6787 228.362 86.637 228.794 85.5504 228.796Z" fill="white"/>
<path opacity="0.4" d="M82.6631 220.601H68.3495C67.2623 220.597 66.2206 220.164 65.4518 219.395C64.6829 218.626 64.2493 217.584 64.2455 216.497C64.2493 215.411 64.6832 214.37 65.4522 213.602C66.2212 212.834 67.2629 212.402 68.3495 212.4H82.6631C83.7498 212.402 84.7914 212.834 85.5605 213.602C86.3295 214.37 86.7633 215.411 86.7671 216.497C86.7633 217.584 86.3297 218.626 85.5609 219.395C84.7921 220.164 83.7504 220.597 82.6631 220.601Z" fill="white"/>
<path opacity="0.6" d="M79.7759 212.401H71.2295C70.1417 212.399 69.0989 211.966 68.3297 211.197C67.5604 210.427 67.1275 209.385 67.1255 208.297C67.1293 207.21 67.5629 206.168 68.3318 205.399C69.1006 204.63 70.1423 204.197 71.2295 204.193H79.7759C80.8632 204.197 81.9049 204.63 82.6737 205.399C83.4425 206.168 83.8762 207.21 83.8799 208.297C83.878 209.385 83.445 210.427 82.6758 211.197C81.9066 211.966 80.8638 212.399 79.7759 212.401Z" fill="white"/>
<path d="M111.672 60.1492L138.312 54.3892C139.388 54.1552 140.5 54.1355 141.583 54.3313C142.667 54.5271 143.701 54.9345 144.627 55.5303C145.554 56.1261 146.353 56.8985 146.981 57.8035C147.608 58.7084 148.051 59.7282 148.284 60.8044L153.324 83.9668C153.787 86.1398 153.369 88.4079 152.16 90.2724C150.952 92.137 149.053 93.4454 146.88 93.91L142.848 94.7884L145.361 101.902L137.282 95.998L120.269 99.6988C119.192 99.9329 118.08 99.9527 116.996 99.757C115.912 99.5613 114.877 99.1539 113.95 98.5582C113.024 97.9625 112.224 97.19 111.595 96.285C110.967 95.38 110.524 94.3601 110.29 93.2836L105.25 70.1284C105.016 69.0514 104.996 67.9389 105.192 66.8544C105.388 65.7699 105.796 64.7347 106.393 63.8079C106.989 62.8812 107.763 62.081 108.668 61.4532C109.574 60.8255 110.595 60.3823 111.672 60.1492Z" fill="#EC407A"/>
<path opacity="0.7" d="M111.672 60.1492L138.312 54.3892C139.388 54.1552 140.5 54.1355 141.583 54.3313C142.667 54.5271 143.701 54.9345 144.627 55.5303C145.554 56.1261 146.353 56.8985 146.981 57.8035C147.608 58.7084 148.051 59.7282 148.284 60.8044L153.324 83.9668C153.787 86.1398 153.369 88.4079 152.16 90.2724C150.952 92.137 149.053 93.4454 146.88 93.91L142.848 94.7884L145.361 101.902L137.282 95.998L120.269 99.6988C119.192 99.9329 118.08 99.9527 116.996 99.757C115.912 99.5613 114.877 99.1539 113.95 98.5582C113.024 97.9625 112.224 97.19 111.595 96.285C110.967 95.38 110.524 94.3601 110.29 93.2836L105.25 70.1284C105.016 69.0514 104.996 67.9389 105.192 66.8544C105.388 65.7699 105.796 64.7347 106.393 63.8079C106.989 62.8812 107.763 62.081 108.668 61.4532C109.574 60.8255 110.595 60.3823 111.672 60.1492Z" fill="white"/>
<path d="M128.261 72.3392C121.709 67.94 116.215 71.5328 117.389 76.9472C118.562 82.3616 131.537 87.3872 131.537 87.3872C131.537 87.3872 141.242 77.4296 140.069 72.0152C138.895 66.6008 132.401 65.6144 128.261 72.3392Z" fill="#EC407A"/>
<path d="M167.537 142.518C166.889 142.957 166.342 143.295 165.737 143.655C165.132 144.015 164.542 144.375 163.937 144.678C162.727 145.34 161.489 145.952 160.207 146.535C158.926 147.119 157.615 147.673 156.218 148.177C154.722 148.722 153.193 149.172 151.639 149.523C150.644 149.747 149.633 149.896 148.615 149.97C148.097 149.97 147.593 149.97 147.096 149.97L145.757 149.847C144.204 149.635 142.674 149.283 141.185 148.796C139.815 148.349 138.473 147.82 137.167 147.212C135.861 146.611 134.6 145.916 133.394 145.131C132.723 144.694 132.201 144.061 131.901 143.318C131.601 142.575 131.537 141.758 131.717 140.977C131.896 140.195 132.312 139.489 132.907 138.952C133.502 138.415 134.248 138.074 135.043 137.975H135.353C137.873 137.672 140.458 137.622 142.776 137.406C143.838 137.336 144.896 137.209 145.944 137.024L146.542 136.88L146.959 136.722C147.2 136.565 147.455 136.432 147.722 136.326C148.478 135.966 149.436 135.469 150.408 134.936C151.38 134.403 152.41 133.835 153.432 133.237L156.557 131.437L158.134 130.544C158.652 130.256 159.221 129.947 159.682 129.709L159.898 129.601C161.609 128.703 163.601 128.498 165.459 129.028C167.318 129.557 168.902 130.781 169.884 132.446C170.865 134.111 171.169 136.09 170.732 137.973C170.295 139.855 169.151 141.498 167.537 142.561V142.518Z" fill="#FFBE9D"/>
<path opacity="0.1" d="M167.537 142.518C166.889 142.957 166.342 143.295 165.737 143.655C165.132 144.015 164.542 144.375 163.937 144.678C162.727 145.34 161.489 145.952 160.207 146.535C158.926 147.119 157.615 147.673 156.218 148.177C154.722 148.722 153.193 149.172 151.639 149.523C150.644 149.747 149.633 149.896 148.615 149.97C148.097 149.97 147.593 149.97 147.096 149.97L145.757 149.847C144.204 149.635 142.674 149.283 141.185 148.796C139.815 148.349 138.473 147.82 137.167 147.212C135.861 146.611 134.6 145.916 133.394 145.131C132.723 144.694 132.201 144.061 131.901 143.318C131.601 142.575 131.537 141.758 131.717 140.977C131.896 140.195 132.312 139.489 132.907 138.952C133.502 138.415 134.248 138.074 135.043 137.975H135.353C137.873 137.672 140.458 137.622 142.776 137.406C143.838 137.336 144.896 137.209 145.944 137.024L146.542 136.88L146.959 136.722C147.2 136.565 147.455 136.432 147.722 136.326C148.478 135.966 149.436 135.469 150.408 134.936C151.38 134.403 152.41 133.835 153.432 133.237L156.557 131.437L158.134 130.544C158.652 130.256 159.221 129.947 159.682 129.709L159.898 129.601C161.609 128.703 163.601 128.498 165.459 129.028C167.318 129.557 168.902 130.781 169.884 132.446C170.865 134.111 171.169 136.09 170.732 137.973C170.295 139.855 169.151 141.498 167.537 142.561V142.518Z" fill="black"/>
<path d="M132.862 130.091L134.035 131.711C134.035 131.711 138.722 136.887 139.457 142.179L138.254 142.899C137.301 143.471 136.224 143.806 135.114 143.876C134.004 143.946 132.893 143.75 131.875 143.303L129.924 142.453L126.706 141.013C126.161 140.773 125.681 140.407 125.306 139.945C124.93 139.483 124.67 138.938 124.546 138.356L123.89 135.21C123.741 134.532 123.791 133.826 124.033 133.175C124.276 132.525 124.701 131.959 125.258 131.545L128.232 129.457L128.513 129.263C128.852 129.029 129.234 128.865 129.637 128.78C130.04 128.695 130.456 128.691 130.86 128.768C131.265 128.845 131.65 129.001 131.994 129.228C132.337 129.456 132.632 129.749 132.862 130.091Z" fill="#FFBE9D"/>
<path d="M158.479 145.808L149.04 132.776C149.04 132.776 163.908 124.136 169.726 130.796C175.543 137.456 158.479 145.808 158.479 145.808Z" fill="#EC407A"/>
<path opacity="0.5" d="M164.693 142.042C162.721 143.455 160.644 144.714 158.479 145.808L155.729 141.999L149.04 132.776C149.04 132.776 163.908 124.136 169.733 130.796C173.095 134.641 168.883 139.011 164.693 142.042Z" fill="white"/>
<path opacity="0.1" d="M164.693 142.043C162.721 143.456 160.644 144.715 158.479 145.809L155.729 142C157.355 139.31 159.45 136.933 161.914 134.98C163.416 137.065 164.372 139.493 164.693 142.043Z" fill="black"/>
<path opacity="0.1" d="M132.862 130.091L134.035 131.711C134.035 131.711 138.722 136.887 139.457 142.179L138.254 142.899C137.301 143.471 136.224 143.806 135.114 143.876C134.004 143.946 132.893 143.75 131.875 143.303L129.924 142.453L126.706 141.013C126.161 140.773 125.681 140.407 125.306 139.945C124.93 139.483 124.67 138.938 124.546 138.356L123.89 135.21C123.741 134.532 123.791 133.826 124.033 133.175C124.276 132.525 124.701 131.959 125.258 131.545L128.232 129.457L128.513 129.263C128.852 129.029 129.234 128.865 129.637 128.78C130.04 128.695 130.456 128.691 130.86 128.768C131.265 128.845 131.65 129.001 131.994 129.228C132.337 129.456 132.632 129.749 132.862 130.091Z" fill="black"/>
<path d="M126.259 218.946C126.259 218.946 117.979 193.746 130.91 180.657C143.842 167.567 212.227 177.373 212.227 177.373L207.778 207.426C207.778 207.426 154.08 197.404 149.832 199.729C145.584 202.055 142.135 224.742 142.135 224.742L126.259 218.946Z" fill="#FFBE9D"/>
<path d="M139.572 176.335C139.572 176.335 146.124 192.852 149.832 199.728C152.107 203.955 176.357 205.819 194.71 206.626C197.882 206.763 201.04 206.135 203.918 204.795C206.797 203.454 209.31 201.44 211.245 198.924C213.181 196.407 214.482 193.461 215.039 190.335C215.596 187.209 215.392 183.995 214.445 180.965C213.413 177.672 211.961 174.526 210.125 171.605C210.125 171.605 155.52 172.275 139.572 176.335Z" fill="#263238"/>
<path d="M137.765 221.66C137.765 221.66 138.722 229.58 134.597 232.064C130.471 234.548 125.237 229.717 120.55 227.269C115.862 224.821 109.922 223.403 111.031 218.377C112.14 213.351 116.352 221.855 125.482 217.844L137.765 221.66Z" fill="#FFBE9D"/>
<path d="M116.446 238.486C116.446 238.486 112.716 251.885 116.446 256.608C118.116 258.725 127.966 259.366 130.378 257.782C135.122 254.679 133.798 241.049 133.798 241.049L116.446 238.486Z" fill="#263238"/>
<path d="M237.089 245.226C237.089 245.226 153.734 253.945 106.769 245.226C106.769 245.226 108.086 234.181 110.902 227.802C111.262 226.966 111.696 226.164 112.198 225.405C113.342 223.932 114.824 222.757 116.518 221.977C116.935 221.761 117.36 221.56 117.799 221.373C121.731 219.772 125.84 218.649 130.039 218.025C130.039 218.025 134.906 202.689 139.399 196.77C139.816 196.197 140.3 195.675 140.839 195.215C145.678 191.233 204.919 193.933 213.041 199.636C214.942 200.968 217.03 203.718 218.952 206.757C221.466 210.838 223.726 215.07 225.72 219.429C225.72 219.429 235.08 219.493 237.24 226.175C239.4 232.857 237.089 245.226 237.089 245.226Z" fill="#EC407A"/>
<path d="M132.372 218.161C149.222 217.706 166.084 218.187 182.88 219.601C182.88 219.601 183.773 207.772 183.55 206.188C183.326 204.604 159.689 200.708 159.689 200.708C159.689 200.708 155.707 197.476 153.994 196.057C152.28 194.639 140.314 198.901 140.314 198.901C140.314 198.901 134.366 209.471 132.372 218.161Z" fill="white"/>
<path d="M168.674 213.251C168.604 213.566 168.446 213.855 168.218 214.084C167.991 214.313 167.703 214.473 167.388 214.546C167.074 214.619 166.745 214.601 166.44 214.495C166.135 214.389 165.866 214.199 165.664 213.947C165.462 213.695 165.336 213.391 165.3 213.07C165.263 212.749 165.318 212.425 165.458 212.134C165.598 211.843 165.818 211.597 166.091 211.425C166.365 211.254 166.681 211.163 167.004 211.163C167.5 211.225 167.952 211.477 168.264 211.867C168.576 212.257 168.723 212.754 168.674 213.251Z" fill="#263238"/>
<path d="M145.152 212.4C145.081 212.715 144.923 213.004 144.696 213.233C144.468 213.462 144.18 213.622 143.866 213.695C143.551 213.768 143.222 213.75 142.917 213.644C142.612 213.538 142.343 213.348 142.142 213.096C141.94 212.844 141.814 212.54 141.777 212.219C141.741 211.898 141.796 211.573 141.936 211.282C142.076 210.991 142.295 210.746 142.569 210.574C142.842 210.403 143.159 210.312 143.482 210.312C143.977 210.373 144.429 210.626 144.741 211.016C145.054 211.406 145.201 211.903 145.152 212.4Z" fill="#263238"/>
<path d="M160.733 231.314C160.55 231.759 160.336 232.19 160.092 232.603C159.475 233.679 158.752 234.69 157.932 235.62C154.764 239.292 148.464 243.958 137.009 243.72C132.185 243.619 128.599 242.755 125.935 241.524C118.21 237.96 118.21 231.314 118.21 231.314C118.21 231.314 119.088 231.588 120.686 231.955C133.903 234.868 147.617 234.648 160.733 231.314Z" fill="#263238"/>
<path d="M157.946 235.62C154.778 239.292 148.478 243.958 137.023 243.72C132.199 243.62 128.614 242.756 125.95 241.524C135.883 236.693 146.943 234.652 157.946 235.62Z" fill="#DE5753"/>
<path d="M160.733 231.314C160.55 231.759 160.336 232.19 160.092 232.603C140.278 238.09 120.701 233.41 120.701 233.41V231.97C133.913 234.875 147.622 234.651 160.733 231.314Z" fill="white"/>
<path d="M184.889 260.028C189.605 260.028 193.428 254.861 193.428 248.486C193.428 242.112 189.605 236.945 184.889 236.945C180.173 236.945 176.35 242.112 176.35 248.486C176.35 254.861 180.173 260.028 184.889 260.028Z" fill="#263238"/>
<path opacity="0.2" d="M186.725 255.018C189.58 255.018 191.894 251.891 191.894 248.034C191.894 244.177 189.58 241.05 186.725 241.05C183.87 241.05 181.555 244.177 181.555 248.034C181.555 251.891 183.87 255.018 186.725 255.018Z" fill="white"/>
<path d="M176.443 246.788C175.327 248.948 168.674 249.063 168.674 249.063C168.674 249.063 169.013 255.593 173.095 258.423C177.178 261.252 184.889 260.014 184.889 260.014L176.443 246.788Z" fill="#263238"/>
<path d="M224.381 258.193C229.097 258.193 232.92 253.026 232.92 246.651C232.92 240.277 229.097 235.11 224.381 235.11C219.665 235.11 215.842 240.277 215.842 246.651C215.842 253.026 219.665 258.193 224.381 258.193Z" fill="#263238"/>
<path opacity="0.2" d="M226.217 253.181C229.072 253.181 231.386 250.055 231.386 246.197C231.386 242.34 229.072 239.213 226.217 239.213C223.362 239.213 221.047 242.34 221.047 246.197C221.047 250.055 223.362 253.181 226.217 253.181Z" fill="white"/>
<path d="M215.942 244.953C214.819 247.113 208.174 247.221 208.174 247.221C208.174 247.221 208.512 253.751 212.594 256.581C216.677 259.41 224.381 258.172 224.381 258.172L215.942 244.953Z" fill="#263238"/>
<path d="M107.561 239.926L105.12 242.086C105.12 242.086 106.006 252.202 107.561 252.692C109.116 253.181 156.146 256.616 160.733 256.04C165.319 255.464 171.108 253.88 172.483 252.872C173.858 251.864 172.483 243.699 172.483 243.699C172.483 243.699 157.363 246.406 146.707 246.183C136.051 245.96 111.766 245.794 110.059 243.699C109.089 242.538 108.251 241.273 107.561 239.926Z" fill="#EC407A"/>
<path opacity="0.7" d="M173.095 222.768C172.678 222.696 164.131 224.784 162.85 226.159C161.568 227.534 165.334 234.173 165.334 234.173C165.334 234.173 166.889 235.109 167.004 234.173C167.119 233.237 171.238 226.541 173.095 225.259C174.953 223.978 173.095 222.768 173.095 222.768Z" fill="white"/>
<path opacity="0.7" d="M114.79 232.158H112.795L110.88 227.802C111.24 226.966 111.674 226.164 112.176 225.404C113.32 223.932 114.802 222.757 116.496 221.977C116.496 221.977 114.293 228.81 114.79 232.158Z" fill="white"/>
<path opacity="0.2" d="M182.786 220.321C165.413 221.12 157.946 228.579 157.946 228.579C157.946 228.579 117.706 228.5 117.137 226.131C116.755 224.562 117.353 222.531 117.799 221.336C121.731 219.736 125.84 218.612 130.039 217.988C124.222 219.86 123.674 221.941 123.674 221.941C125.266 220.083 130.63 218.96 130.63 218.96C145.44 217.988 182.786 220.321 182.786 220.321Z" fill="white"/>
<path opacity="0.2" d="M219.031 206.742C215.236 204.921 211.175 203.718 207 203.178C196.603 202.04 187.2 204.316 185.918 204.035C184.637 203.754 160.718 198.62 160.718 198.62C160.718 198.62 156.398 194.207 154.858 193.782C153.317 193.357 142.186 195.776 139.464 196.756C139.881 196.182 140.365 195.66 140.904 195.2C145.742 191.219 204.984 193.919 213.106 199.621C215.021 200.953 217.109 203.704 219.031 206.742Z" fill="white"/>
<path d="M186.725 218.881C186.725 218.881 186.775 207.743 187.632 206.979C188.489 206.216 199.274 205.82 200.592 206.259C201.91 206.699 204.293 218.881 204.293 218.881H186.725Z" fill="white"/>
<path d="M207 218.88L203.76 206.194C203.76 206.194 216.432 206.078 217.44 207.691C218.448 209.304 224.424 219.607 224.424 219.607L207 218.88Z" fill="white"/>
<path opacity="0.7" d="M107.561 239.926L105.12 242.086C105.12 242.086 106.006 252.202 107.561 252.692C109.116 253.181 156.146 256.616 160.733 256.04C165.319 255.464 171.108 253.88 172.483 252.872C173.858 251.864 172.483 243.699 172.483 243.699C172.483 243.699 157.363 246.406 146.707 246.183C136.051 245.96 111.766 245.794 110.059 243.699C109.089 242.538 108.251 241.273 107.561 239.926Z" fill="white"/>
<path opacity="0.2" d="M155.873 249.107L156.866 253.549L148.039 253.182V250.475L155.873 249.107Z" fill="black"/>
<path opacity="0.2" d="M109.145 246.198L115.135 248.488V251.325L109.145 250.475V246.198Z" fill="black"/>
<path opacity="0.2" d="M154.318 252.67C155.053 252.67 155.65 252.074 155.65 251.338C155.65 250.603 155.053 250.006 154.318 250.006C153.582 250.006 152.986 250.603 152.986 251.338C152.986 252.074 153.582 252.67 154.318 252.67Z" fill="white"/>
<path opacity="0.2" d="M110.873 249.905C111.608 249.905 112.205 249.308 112.205 248.573C112.205 247.837 111.608 247.241 110.873 247.241C110.137 247.241 109.541 247.837 109.541 248.573C109.541 249.308 110.137 249.905 110.873 249.905Z" fill="white"/>
<path opacity="0.2" d="M151.042 251.339C151.043 251.565 150.977 251.788 150.852 251.977C150.727 252.166 150.549 252.314 150.34 252.402C150.131 252.489 149.9 252.513 149.678 252.47C149.455 252.426 149.251 252.318 149.09 252.158C148.929 251.998 148.819 251.794 148.775 251.572C148.73 251.35 148.752 251.119 148.838 250.91C148.925 250.7 149.072 250.521 149.26 250.395C149.448 250.269 149.67 250.201 149.897 250.201C150.199 250.201 150.489 250.321 150.704 250.534C150.918 250.747 151.04 251.036 151.042 251.339Z" fill="white"/>
<path opacity="0.2" d="M114.833 249.624C114.834 249.851 114.768 250.073 114.643 250.263C114.518 250.452 114.339 250.6 114.129 250.687C113.92 250.775 113.689 250.798 113.466 250.754C113.244 250.71 113.039 250.601 112.879 250.441C112.718 250.28 112.609 250.075 112.565 249.853C112.521 249.63 112.544 249.399 112.632 249.19C112.719 248.98 112.867 248.802 113.056 248.676C113.246 248.551 113.468 248.485 113.695 248.486C113.996 248.488 114.285 248.609 114.498 248.822C114.71 249.035 114.831 249.323 114.833 249.624Z" fill="white"/>
<path d="M166.565 230.883C167.869 230.883 168.926 229.826 168.926 228.522C168.926 227.218 167.869 226.16 166.565 226.16C165.26 226.16 164.203 227.218 164.203 228.522C164.203 229.826 165.26 230.883 166.565 230.883Z" fill="white"/>
<path d="M114.876 228.506C114.502 229.752 113.63 230.594 112.932 230.386C112.234 230.177 111.967 228.996 112.342 227.743C112.716 226.49 113.587 225.655 114.286 225.864C114.984 226.073 115.25 227.254 114.876 228.506Z" fill="white"/>
<path d="M171.36 225.742C171.36 226.004 171.282 226.26 171.137 226.478C170.991 226.696 170.784 226.866 170.542 226.966C170.3 227.067 170.034 227.093 169.777 227.042C169.52 226.991 169.284 226.864 169.098 226.679C168.913 226.494 168.787 226.258 168.736 226.001C168.685 225.744 168.711 225.477 168.811 225.235C168.911 224.993 169.081 224.786 169.299 224.641C169.517 224.495 169.773 224.417 170.035 224.417C170.387 224.417 170.723 224.557 170.972 224.805C171.22 225.054 171.36 225.391 171.36 225.742Z" fill="white"/>
<path d="M115.387 224.562C114.998 225.181 114.401 225.505 114.055 225.282C113.71 225.058 113.746 224.389 114.134 223.77C114.523 223.15 115.121 222.826 115.466 223.05C115.812 223.273 115.776 223.921 115.387 224.562Z" fill="white"/>
<path d="M197.777 202.933C192.614 202.674 182.786 199.297 180.497 191.507C176.177 176.682 210.319 171.21 214.034 179.778C219.326 191.96 214.423 203.761 197.777 202.933Z" fill="#263238"/>
<path d="M213.725 220.075C213.725 220.075 220.097 224.878 219.017 229.572C217.937 234.266 210.823 234.691 205.819 236.354C200.815 238.018 195.667 241.33 192.809 237.074C189.95 232.819 199.008 235.634 202.457 226.274L213.725 220.075Z" fill="#FFBE9D"/>
<path d="M202.428 226.858C202.428 226.858 169.841 194.199 184.14 183.788C199.303 172.736 210.881 207.678 215.496 224.05L202.428 226.858Z" fill="#FFBE9D"/>
<path d="M155.729 136.304C153.684 128.708 147.017 125.382 138.816 126.152C135.374 126.476 124.042 131.631 125.006 144.67C125.834 155.787 138.154 161.41 147.103 157.234C156.053 153.058 157.774 143.907 155.729 136.304ZM147.55 142.561C147.425 144.6 146.594 146.532 145.2 148.026C143.806 149.52 141.936 150.482 139.91 150.747C136.159 151.114 130.946 144.894 135.792 137.463C137.419 134.965 141.062 134.36 143.222 135.008C145.382 135.656 147.766 138.111 147.55 142.561Z" fill="#263238"/>
<path opacity="0.2" d="M155.729 136.304C153.684 128.708 147.017 125.382 138.816 126.152C135.374 126.476 124.042 131.631 125.006 144.67C125.834 155.787 138.154 161.41 147.103 157.234C156.053 153.058 157.774 143.907 155.729 136.304ZM147.55 142.561C147.425 144.6 146.594 146.532 145.2 148.026C143.806 149.52 141.936 150.482 139.91 150.747C136.159 151.114 130.946 144.894 135.792 137.463C137.419 134.965 141.062 134.36 143.222 135.008C145.382 135.656 147.766 138.111 147.55 142.561Z" fill="white"/>
<path d="M154.361 145.253C154.269 144.797 154.216 144.335 154.202 143.87C154.253 143.15 154.742 142.488 154.656 141.768C154.523 141.302 154.362 140.846 154.174 140.4C154.012 139.777 154.012 139.122 154.174 138.499C154.337 138.119 154.425 137.71 154.433 137.297C154.393 137.072 154.309 136.858 154.185 136.666C154.062 136.474 153.901 136.309 153.713 136.181C153.144 135.72 152.734 135.597 152.626 134.741C152.575 134.381 152.575 134.021 152.518 133.661C152.498 133.5 152.449 133.343 152.374 133.2C152.057 132.653 151.43 132.566 151.236 131.918C151.114 131.544 151.092 131.155 150.948 130.802C148.688 128.326 145.63 126.721 142.308 126.266C141.531 126.158 140.745 126.117 139.961 126.144C138.384 126.439 136.555 126.864 134.863 127.267C132.263 128.413 130.006 130.216 128.313 132.498C126.62 134.78 125.55 137.464 125.208 140.285C124.921 142.42 125.033 144.591 125.539 146.685C126.382 147.758 127.375 148.543 127.606 150.105C127.608 150.526 127.723 150.939 127.937 151.301C128.29 151.747 128.952 151.718 129.377 152.021C129.953 152.417 130.097 153.23 130.414 153.864C130.946 154.879 131.854 154.85 132.617 155.513C133.183 156.169 133.974 156.591 134.834 156.693C135.236 156.625 135.649 156.675 136.022 156.837C136.4 157.133 136.833 157.349 137.297 157.471C137.545 157.478 137.791 157.429 138.017 157.327C138.245 157.229 138.489 157.175 138.737 157.169C139.097 157.169 139.514 157.593 139.867 157.752C140.136 157.908 140.435 158.004 140.745 158.034C141.054 158.064 141.366 158.027 141.66 157.925C142.243 157.622 142.596 156.967 143.186 156.679C143.61 156.504 144.068 156.426 144.526 156.449C145.012 156.471 145.497 156.394 145.952 156.223C146.408 156.052 146.824 155.791 147.175 155.455C147.311 155.267 147.463 155.091 147.629 154.929C147.914 154.712 148.243 154.56 148.594 154.483C148.978 154.381 149.332 154.186 149.623 153.914C149.97 153.429 150.227 152.885 150.379 152.309C150.463 152.078 150.6 151.871 150.779 151.703C150.958 151.536 151.174 151.413 151.409 151.344C151.79 151.243 152.028 151.293 152.28 150.883C152.741 150.127 152.539 149.083 153 148.298C153.598 147.261 154.49 146.707 154.361 145.253ZM144 149.378C143.496 149.969 143.064 150.098 142.337 150.955C142.143 151.249 141.864 151.476 141.537 151.605C141.209 151.734 140.85 151.758 140.508 151.675C140.083 151.589 139.702 151.574 139.298 151.531C138.895 151.488 138.506 151.005 138.074 150.811C137.589 150.642 137.064 150.627 136.57 150.768C136.325 150.837 136.067 150.848 135.817 150.801C135.568 150.753 135.332 150.648 135.13 150.494C134.934 150.236 134.76 149.961 134.611 149.673C134.129 148.953 133.214 148.673 132.682 147.981C132.682 147.737 131.962 146.873 131.89 146.541C131.828 145.943 131.875 145.338 132.026 144.756C132.052 144.657 132.052 144.553 132.026 144.453C131.974 144.356 131.9 144.273 131.81 144.209C131.48 143.899 131.251 143.498 131.15 143.056C131.05 142.615 131.085 142.154 131.249 141.732C131.429 141.293 131.746 140.933 131.969 140.508C132.458 139.586 132.062 137.894 132.818 137.174C133.032 137.027 133.259 136.9 133.495 136.793C134.143 136.361 134.143 135.309 134.734 134.791C134.965 134.602 135.244 134.48 135.54 134.438C136.26 134.301 136.894 134.546 137.534 134.287C138.103 134.025 138.647 133.715 139.162 133.358C139.557 133.054 140.046 132.897 140.544 132.912C141.055 132.998 141.451 133.452 141.984 133.538C142.517 133.625 142.855 133.423 143.266 133.538C143.95 133.704 144.029 134.352 144.367 134.87C144.748 135.338 145.244 135.698 145.807 135.914C146.786 136.346 148.061 136.49 147.715 137.93C147.593 138.427 147.463 138.873 147.37 139.327C147.839 140.638 147.985 142.044 147.794 143.424C147.628 144.631 147.203 145.788 146.548 146.816C145.893 147.844 145.024 148.718 144 149.378Z" fill="#EC407A"/>
<g opacity="0.5">
<path d="M128.081 140.07C128.045 140.065 128.011 140.052 127.981 140.032C127.951 140.012 127.926 139.986 127.908 139.955L127.246 138.853C127.208 138.793 127.195 138.721 127.208 138.652C127.222 138.582 127.261 138.521 127.318 138.479C127.346 138.46 127.377 138.448 127.411 138.442C127.444 138.436 127.478 138.436 127.511 138.444C127.544 138.451 127.575 138.465 127.602 138.485C127.63 138.504 127.653 138.529 127.67 138.558L128.333 139.652C128.368 139.713 128.379 139.785 128.364 139.854C128.35 139.923 128.31 139.985 128.254 140.027C128.203 140.062 128.142 140.077 128.081 140.07Z" fill="white"/>
<path d="M129.139 136.981H129.089C128.523 136.778 127.989 136.495 127.505 136.139C127.449 136.096 127.411 136.033 127.399 135.964C127.387 135.895 127.402 135.823 127.44 135.764C127.457 135.735 127.481 135.71 127.508 135.691C127.536 135.671 127.567 135.658 127.601 135.651C127.634 135.644 127.668 135.644 127.701 135.651C127.734 135.659 127.765 135.672 127.793 135.692C128.233 136.019 128.718 136.281 129.233 136.47C129.296 136.498 129.347 136.55 129.375 136.614C129.403 136.677 129.406 136.749 129.384 136.815C129.365 136.865 129.331 136.907 129.287 136.937C129.244 136.966 129.192 136.982 129.139 136.981Z" fill="white"/>
<path d="M131.04 135.282C130.991 135.275 130.945 135.252 130.91 135.217C130.861 135.167 130.833 135.1 130.833 135.03C130.833 134.96 130.861 134.892 130.91 134.843L132.041 133.482C132.063 133.457 132.09 133.437 132.121 133.424C132.151 133.41 132.184 133.403 132.217 133.403C132.25 133.403 132.283 133.41 132.314 133.424C132.344 133.437 132.371 133.457 132.394 133.482C132.442 133.534 132.468 133.602 132.468 133.673C132.468 133.743 132.442 133.811 132.394 133.863L131.263 135.224C131.234 135.252 131.198 135.273 131.159 135.283C131.12 135.293 131.079 135.293 131.04 135.282Z" fill="white"/>
<path d="M129.737 134.526C129.687 134.519 129.641 134.498 129.604 134.465C129.567 134.431 129.54 134.388 129.528 134.339L129.254 133.396C129.233 133.329 129.239 133.257 129.27 133.194C129.3 133.131 129.354 133.082 129.42 133.058C129.452 133.047 129.486 133.042 129.52 133.045C129.554 133.048 129.587 133.058 129.616 133.074C129.646 133.091 129.672 133.113 129.693 133.14C129.714 133.167 129.729 133.197 129.737 133.23L130.01 134.174C130.031 134.24 130.026 134.313 129.995 134.376C129.964 134.439 129.91 134.488 129.845 134.512C129.811 134.527 129.773 134.532 129.737 134.526Z" fill="white"/>
<path d="M133.618 131.689C133.182 131.63 132.768 131.462 132.415 131.199C132.36 131.158 132.323 131.096 132.312 131.027C132.301 130.959 132.317 130.889 132.358 130.832C132.374 130.803 132.396 130.777 132.423 130.757C132.449 130.737 132.48 130.722 132.513 130.715C132.545 130.708 132.579 130.707 132.612 130.714C132.645 130.72 132.676 130.733 132.703 130.753C133.132 131.069 133.663 131.215 134.194 131.163C134.228 131.16 134.262 131.164 134.294 131.175C134.326 131.186 134.356 131.204 134.381 131.227C134.406 131.25 134.426 131.278 134.44 131.309C134.453 131.34 134.46 131.374 134.46 131.408C134.466 131.476 134.446 131.545 134.403 131.598C134.36 131.652 134.298 131.687 134.23 131.696C134.026 131.719 133.821 131.716 133.618 131.689Z" fill="white"/>
<path d="M135.014 130.443H134.964C134.9 130.417 134.848 130.368 134.82 130.305C134.792 130.241 134.789 130.17 134.813 130.105C134.951 129.683 135.119 129.271 135.317 128.874C135.331 128.843 135.351 128.816 135.375 128.793C135.4 128.771 135.429 128.753 135.461 128.743C135.493 128.732 135.526 128.728 135.56 128.73C135.593 128.733 135.626 128.743 135.655 128.758C135.716 128.793 135.761 128.85 135.781 128.917C135.801 128.984 135.795 129.056 135.763 129.118C135.577 129.493 135.418 129.88 135.288 130.278C135.268 130.332 135.229 130.378 135.18 130.408C135.13 130.438 135.072 130.45 135.014 130.443Z" fill="white"/>
<path d="M138.154 131.264C138.118 131.26 138.085 131.248 138.055 131.23C138.025 131.211 137.999 131.186 137.981 131.156C137.815 130.902 137.629 130.661 137.426 130.436C137.378 130.384 137.352 130.316 137.352 130.245C137.352 130.174 137.378 130.106 137.426 130.054C137.449 130.029 137.477 130.009 137.508 129.996C137.539 129.982 137.573 129.975 137.606 129.975C137.64 129.975 137.674 129.982 137.705 129.996C137.736 130.009 137.764 130.029 137.786 130.054C138.004 130.299 138.203 130.559 138.384 130.832C138.423 130.89 138.439 130.961 138.428 131.03C138.417 131.099 138.381 131.162 138.326 131.206C138.278 131.246 138.216 131.267 138.154 131.264Z" fill="white"/>
<path d="M140.602 129.723C140.571 129.731 140.539 129.731 140.508 129.723C139.971 129.378 139.583 128.844 139.421 128.226C139.402 128.158 139.409 128.086 139.441 128.023C139.473 127.96 139.528 127.912 139.594 127.887C139.626 127.878 139.66 127.875 139.693 127.879C139.726 127.883 139.758 127.893 139.788 127.91C139.817 127.927 139.842 127.95 139.862 127.977C139.882 128.004 139.896 128.035 139.903 128.067C140.037 128.557 140.344 128.982 140.767 129.263C140.826 129.301 140.868 129.361 140.884 129.429C140.9 129.497 140.889 129.569 140.854 129.63C140.824 129.667 140.785 129.695 140.741 129.712C140.696 129.728 140.648 129.732 140.602 129.723Z" fill="white"/>
<path d="M142.56 130.602C142.519 130.594 142.48 130.577 142.446 130.552C142.413 130.527 142.385 130.495 142.366 130.458C142.338 130.393 142.334 130.32 142.355 130.253C142.376 130.185 142.421 130.128 142.481 130.09C142.882 129.876 143.227 129.57 143.489 129.198C143.509 129.17 143.534 129.147 143.563 129.129C143.592 129.112 143.624 129.1 143.658 129.096C143.692 129.091 143.726 129.093 143.759 129.102C143.791 129.111 143.822 129.126 143.849 129.147C143.902 129.193 143.935 129.258 143.941 129.327C143.948 129.397 143.928 129.466 143.885 129.522C143.576 129.957 143.172 130.317 142.704 130.573C142.66 130.597 142.61 130.607 142.56 130.602Z" fill="white"/>
<path d="M146.815 130.94C146.783 130.938 146.753 130.928 146.725 130.912C146.698 130.895 146.674 130.873 146.657 130.847C146.387 130.485 146.18 130.081 146.045 129.651C146.023 129.585 146.026 129.513 146.054 129.449C146.082 129.385 146.132 129.334 146.196 129.306C146.228 129.293 146.262 129.288 146.297 129.29C146.331 129.292 146.364 129.301 146.395 129.316C146.425 129.332 146.452 129.354 146.474 129.381C146.495 129.407 146.511 129.438 146.52 129.471C146.642 129.843 146.822 130.193 147.053 130.508C147.093 130.565 147.111 130.634 147.103 130.704C147.095 130.773 147.062 130.837 147.01 130.883C146.984 130.907 146.953 130.925 146.919 130.935C146.886 130.945 146.85 130.947 146.815 130.94Z" fill="white"/>
<path d="M148.32 133.382C148.279 133.375 148.241 133.358 148.209 133.333C148.176 133.308 148.15 133.275 148.133 133.238C148.103 133.174 148.097 133.101 148.117 133.033C148.137 132.966 148.181 132.908 148.241 132.87C148.567 132.688 148.875 132.475 149.162 132.237C149.188 132.214 149.217 132.198 149.249 132.188C149.281 132.178 149.315 132.175 149.349 132.179C149.382 132.183 149.414 132.194 149.443 132.212C149.471 132.229 149.496 132.252 149.515 132.28C149.556 132.337 149.574 132.406 149.566 132.475C149.558 132.545 149.524 132.608 149.472 132.654C149.163 132.927 148.828 133.168 148.471 133.374C148.422 133.391 148.37 133.393 148.32 133.382Z" fill="white"/>
<path d="M150.293 136.081C150.247 136.075 150.204 136.055 150.17 136.023L148.968 135.03C148.902 135.034 148.838 135.012 148.788 134.969C148.738 134.926 148.707 134.865 148.702 134.799C148.696 134.742 148.705 134.685 148.729 134.633C148.753 134.581 148.791 134.536 148.838 134.504C148.892 134.465 148.956 134.444 149.022 134.444C149.088 134.444 149.152 134.465 149.206 134.504L150.48 135.563C150.534 135.608 150.568 135.671 150.576 135.741C150.584 135.811 150.565 135.881 150.523 135.937C150.503 135.98 150.47 136.017 150.429 136.043C150.388 136.068 150.341 136.081 150.293 136.081Z" fill="white"/>
<path d="M150.898 138.961C150.858 138.956 150.821 138.942 150.788 138.919C150.755 138.896 150.729 138.866 150.71 138.831C150.679 138.767 150.672 138.694 150.691 138.625C150.709 138.556 150.752 138.496 150.811 138.457C151.202 138.218 151.548 137.914 151.834 137.557C151.854 137.529 151.88 137.507 151.909 137.49C151.939 137.473 151.972 137.463 152.006 137.459C152.04 137.456 152.074 137.46 152.106 137.47C152.138 137.481 152.168 137.498 152.194 137.521C152.24 137.573 152.266 137.641 152.266 137.711C152.266 137.782 152.24 137.85 152.194 137.902C151.869 138.308 151.477 138.654 151.034 138.925C150.994 138.952 150.946 138.964 150.898 138.961Z" fill="white"/>
<path d="M149.515 141.251C149.482 141.246 149.45 141.235 149.422 141.218C149.393 141.201 149.369 141.177 149.35 141.15C149.083 140.789 148.869 140.391 148.716 139.969C148.691 139.903 148.692 139.83 148.719 139.765C148.746 139.699 148.796 139.646 148.86 139.616C148.891 139.604 148.924 139.598 148.958 139.599C148.991 139.6 149.024 139.607 149.055 139.622C149.085 139.636 149.112 139.656 149.135 139.681C149.157 139.706 149.174 139.736 149.184 139.767C149.326 140.14 149.515 140.493 149.746 140.819C149.786 140.875 149.804 140.945 149.796 141.014C149.788 141.083 149.755 141.147 149.702 141.193C149.677 141.215 149.647 141.232 149.615 141.242C149.583 141.252 149.549 141.255 149.515 141.251Z" fill="white"/>
<path d="M151.373 144.425C151.316 144.418 151.265 144.39 151.229 144.346C151.181 144.294 151.154 144.226 151.154 144.155C151.154 144.085 151.181 144.016 151.229 143.965L151.798 143.367C151.82 143.342 151.848 143.322 151.879 143.309C151.91 143.295 151.944 143.288 151.978 143.288C152.011 143.288 152.045 143.295 152.076 143.309C152.107 143.322 152.135 143.342 152.158 143.367C152.206 143.419 152.232 143.487 152.232 143.558C152.232 143.629 152.206 143.697 152.158 143.749L151.589 144.339C151.562 144.369 151.528 144.392 151.491 144.407C151.453 144.422 151.413 144.428 151.373 144.425Z" fill="white"/>
<path d="M150.005 146.277H149.94C149.652 146.132 149.403 145.92 149.215 145.658C149.027 145.395 148.905 145.092 148.86 144.772C148.849 144.703 148.864 144.632 148.903 144.573C148.941 144.515 149.001 144.473 149.069 144.455C149.102 144.45 149.137 144.452 149.17 144.461C149.203 144.469 149.234 144.485 149.261 144.505C149.287 144.526 149.31 144.552 149.326 144.582C149.343 144.612 149.353 144.645 149.357 144.679C149.391 144.913 149.481 145.136 149.619 145.329C149.756 145.522 149.938 145.679 150.149 145.787C150.211 145.818 150.259 145.873 150.282 145.939C150.305 146.005 150.301 146.077 150.271 146.14C150.247 146.189 150.208 146.228 150.161 146.252C150.113 146.277 150.058 146.286 150.005 146.277Z" fill="white"/>
<path d="M149.278 149.877C149.238 149.869 149.201 149.853 149.169 149.829C149.136 149.805 149.11 149.775 149.09 149.74C149.058 149.677 149.05 149.604 149.069 149.536C149.088 149.468 149.131 149.41 149.191 149.373L150.48 148.609C150.509 148.592 150.541 148.581 150.575 148.576C150.608 148.572 150.642 148.575 150.675 148.584C150.707 148.593 150.738 148.61 150.763 148.631C150.789 148.653 150.811 148.68 150.826 148.71C150.858 148.773 150.866 148.845 150.847 148.913C150.828 148.981 150.785 149.04 150.725 149.077L149.465 149.841C149.409 149.876 149.342 149.889 149.278 149.877Z" fill="white"/>
<path d="M146.542 150.718C146.479 150.705 146.424 150.67 146.384 150.621C146.345 150.571 146.324 150.508 146.326 150.445C146.35 149.877 146.415 149.312 146.52 148.753C146.524 148.719 146.536 148.686 146.553 148.656C146.57 148.626 146.593 148.6 146.621 148.579C146.648 148.559 146.68 148.543 146.713 148.535C146.746 148.526 146.781 148.525 146.815 148.53C146.883 148.547 146.941 148.589 146.979 148.648C147.016 148.707 147.03 148.778 147.017 148.846C146.915 149.379 146.852 149.918 146.83 150.459C146.83 150.528 146.802 150.594 146.754 150.643C146.705 150.691 146.639 150.718 146.57 150.718H146.542Z" fill="white"/>
<path d="M145.699 152.714C145.557 152.708 145.42 152.661 145.304 152.578C145.189 152.495 145.101 152.379 145.051 152.246C145.024 152.181 145.023 152.108 145.049 152.042C145.074 151.976 145.124 151.923 145.188 151.893C145.219 151.879 145.253 151.872 145.288 151.873C145.322 151.873 145.356 151.88 145.387 151.895C145.418 151.909 145.446 151.93 145.469 151.955C145.492 151.981 145.509 152.011 145.519 152.044C145.562 152.152 145.764 152.202 146.074 152.181L146.794 152.123C146.828 152.121 146.862 152.126 146.894 152.138C146.927 152.15 146.956 152.168 146.981 152.192C147.006 152.215 147.026 152.244 147.04 152.275C147.053 152.307 147.06 152.341 147.06 152.375C147.064 152.444 147.042 152.513 146.998 152.566C146.954 152.62 146.891 152.654 146.822 152.663L146.102 152.714C145.968 152.728 145.833 152.728 145.699 152.714Z" fill="white"/>
<path d="M143.885 154.362C143.846 154.356 143.809 154.341 143.777 154.319L143.302 153.966C143.17 153.868 143.045 153.763 142.927 153.649C142.629 153.289 142.411 152.869 142.286 152.418C142.264 152.351 142.267 152.278 142.295 152.213C142.323 152.148 142.373 152.095 142.438 152.065C142.469 152.054 142.503 152.049 142.536 152.051C142.57 152.053 142.603 152.062 142.633 152.076C142.663 152.091 142.69 152.112 142.712 152.137C142.734 152.162 142.751 152.192 142.762 152.224C142.859 152.602 143.036 152.956 143.28 153.261C143.377 153.355 143.48 153.441 143.59 153.52L144.072 153.873C144.125 153.918 144.16 153.981 144.17 154.05C144.179 154.119 144.162 154.19 144.122 154.247C144.099 154.288 144.064 154.321 144.022 154.342C143.979 154.363 143.931 154.37 143.885 154.362Z" fill="white"/>
<path d="M139.745 156.464C139.711 156.457 139.679 156.443 139.651 156.424C139.622 156.405 139.598 156.38 139.579 156.351C139.56 156.322 139.547 156.29 139.541 156.256C139.535 156.222 139.536 156.188 139.543 156.154C139.658 155.434 139.745 154.714 139.795 153.994C139.797 153.925 139.826 153.859 139.876 153.81C139.925 153.762 139.992 153.735 140.062 153.735C140.096 153.737 140.13 153.747 140.16 153.763C140.191 153.779 140.218 153.802 140.239 153.829C140.261 153.856 140.277 153.887 140.286 153.92C140.295 153.954 140.297 153.989 140.292 154.023C140.242 154.743 140.155 155.528 140.04 156.262C140.023 156.325 139.984 156.381 139.93 156.418C139.876 156.455 139.81 156.471 139.745 156.464Z" fill="white"/>
<path d="M136.433 155.521C136.374 155.51 136.321 155.479 136.282 155.435C136.235 155.382 136.209 155.314 136.209 155.244C136.209 155.174 136.235 155.106 136.282 155.053L137.678 153.714C137.701 153.689 137.728 153.67 137.758 153.656C137.789 153.643 137.822 153.636 137.855 153.636C137.888 153.636 137.921 153.643 137.951 153.656C137.982 153.67 138.009 153.689 138.031 153.714C138.079 153.766 138.106 153.834 138.106 153.905C138.106 153.976 138.079 154.044 138.031 154.096L136.642 155.435C136.616 155.464 136.583 155.487 136.547 155.502C136.511 155.517 136.472 155.524 136.433 155.521Z" fill="white"/>
<path d="M135.713 152.907C135.497 152.887 135.29 152.815 135.108 152.698C135.05 152.662 134.993 152.612 134.928 152.562C134.863 152.511 134.734 152.396 134.698 152.41C134.666 152.424 134.632 152.431 134.598 152.43C134.564 152.429 134.53 152.421 134.499 152.406C134.468 152.391 134.441 152.369 134.42 152.343C134.398 152.316 134.382 152.285 134.374 152.252C134.351 152.186 134.355 152.114 134.382 152.05C134.41 151.986 134.461 151.935 134.525 151.906C134.654 151.874 134.79 151.879 134.917 151.92C135.045 151.96 135.158 152.035 135.245 152.137C135.288 152.173 135.331 152.216 135.374 152.245C135.538 152.328 135.717 152.375 135.9 152.382C135.968 152.394 136.029 152.432 136.069 152.489C136.11 152.545 136.126 152.615 136.116 152.684C136.109 152.752 136.075 152.815 136.023 152.859C135.971 152.903 135.904 152.926 135.835 152.922L135.713 152.907Z" fill="white"/>
<path d="M133.43 154.304C133.236 154.247 133.035 154.216 132.833 154.21C132.799 154.207 132.765 154.198 132.735 154.182C132.705 154.167 132.678 154.145 132.656 154.119C132.633 154.093 132.617 154.063 132.606 154.03C132.596 153.998 132.592 153.963 132.595 153.929C132.594 153.895 132.6 153.861 132.613 153.829C132.626 153.797 132.645 153.768 132.669 153.744C132.693 153.719 132.722 153.7 132.754 153.688C132.786 153.675 132.82 153.669 132.854 153.67C133.098 153.676 133.341 153.714 133.574 153.785C133.641 153.808 133.696 153.857 133.727 153.92C133.758 153.984 133.763 154.057 133.74 154.124C133.732 154.156 133.717 154.186 133.697 154.213C133.677 154.239 133.651 154.261 133.623 154.278C133.594 154.295 133.562 154.306 133.529 154.31C133.496 154.315 133.463 154.312 133.43 154.304Z" fill="white"/>
<path d="M131.76 151.697H131.71C131.323 151.514 130.985 151.243 130.723 150.905C130.56 150.708 130.374 150.532 130.169 150.379C130.113 150.337 130.075 150.274 130.063 150.205C130.051 150.136 130.066 150.064 130.104 150.005C130.122 149.976 130.145 149.951 130.172 149.932C130.2 149.912 130.231 149.898 130.264 149.891C130.297 149.884 130.331 149.883 130.364 149.889C130.397 149.895 130.429 149.907 130.457 149.926C130.686 150.103 130.896 150.303 131.083 150.523C131.298 150.803 131.573 151.03 131.89 151.186C131.953 151.214 132.003 151.266 132.03 151.33C132.057 151.394 132.058 151.466 132.034 151.531C132.013 151.586 131.975 151.631 131.925 151.662C131.876 151.692 131.818 151.704 131.76 151.697Z" fill="white"/>
<path d="M128.966 148.494C128.907 148.485 128.853 148.454 128.815 148.407C128.769 148.355 128.743 148.287 128.743 148.216C128.743 148.146 128.769 148.078 128.815 148.026L129.758 147.061C129.781 147.036 129.808 147.016 129.838 147.003C129.869 146.989 129.901 146.982 129.935 146.982C129.968 146.982 130.001 146.989 130.031 147.003C130.062 147.016 130.089 147.036 130.111 147.061C130.159 147.113 130.186 147.181 130.186 147.252C130.186 147.322 130.159 147.391 130.111 147.442L129.168 148.407C129.143 148.436 129.112 148.459 129.077 148.474C129.042 148.489 129.004 148.496 128.966 148.494Z" fill="white"/>
<path d="M127.944 145.902C127.441 145.799 126.991 145.524 126.67 145.124C126.623 145.071 126.597 145.004 126.597 144.933C126.597 144.863 126.623 144.795 126.67 144.742C126.693 144.718 126.72 144.698 126.751 144.684C126.782 144.671 126.816 144.664 126.85 144.664C126.883 144.664 126.917 144.671 126.948 144.684C126.979 144.698 127.007 144.718 127.03 144.742C127.273 145.055 127.62 145.27 128.009 145.347C128.077 145.363 128.137 145.405 128.175 145.464C128.213 145.523 128.225 145.595 128.21 145.664C128.205 145.73 128.174 145.792 128.125 145.836C128.075 145.88 128.01 145.904 127.944 145.902Z" fill="white"/>
<path d="M129.499 144.549C129.454 144.54 129.412 144.52 129.377 144.491C129.324 144.445 129.291 144.381 129.283 144.312C129.275 144.243 129.293 144.173 129.334 144.117C129.607 143.742 129.825 143.33 129.982 142.893C129.992 142.861 130.009 142.831 130.031 142.806C130.053 142.781 130.08 142.76 130.11 142.745C130.14 142.731 130.173 142.722 130.207 142.72C130.24 142.718 130.274 142.723 130.306 142.734C130.369 142.763 130.419 142.814 130.446 142.879C130.473 142.943 130.474 143.015 130.45 143.08C130.273 143.565 130.031 144.023 129.73 144.441C129.704 144.478 129.67 144.507 129.629 144.526C129.589 144.545 129.544 144.553 129.499 144.549Z" fill="white"/>
<path d="M128.16 142.561C127.679 142.496 127.213 142.345 126.785 142.115C126.724 142.08 126.679 142.023 126.659 141.956C126.639 141.889 126.645 141.817 126.677 141.755C126.691 141.724 126.711 141.697 126.735 141.674C126.76 141.651 126.789 141.634 126.82 141.622C126.852 141.611 126.885 141.606 126.919 141.608C126.952 141.609 126.985 141.618 127.015 141.632C127.402 141.836 127.821 141.97 128.254 142.028C128.289 142.033 128.322 142.045 128.353 142.062C128.383 142.08 128.41 142.104 128.431 142.132C128.453 142.16 128.468 142.192 128.478 142.226C128.487 142.26 128.489 142.296 128.484 142.331C128.479 142.366 128.468 142.399 128.45 142.43C128.432 142.46 128.409 142.487 128.381 142.509C128.352 142.53 128.32 142.546 128.286 142.555C128.252 142.564 128.217 142.566 128.182 142.561H128.16Z" fill="white"/>
</g>
<path d="M205.063 133.583C205.063 133.583 206.179 156.904 210.312 173.003C210.312 173.003 167.89 184.214 154.793 173.932C154.793 173.932 151.661 151.302 163.433 130.797L205.063 133.583Z" fill="#EC407A"/>
<path opacity="0.5" d="M210.319 172.996C210.319 172.996 167.897 184.214 154.793 173.925C154.793 173.925 151.661 151.295 163.433 130.797L184.939 132.237L205.099 133.583C205.099 133.583 205.358 138.911 206.071 146.226C206.827 154.211 208.159 164.586 210.319 172.996Z" fill="white"/>
<path opacity="0.1" d="M206.042 146.219C196.027 153.21 189.763 147.738 189.763 147.738C189.763 147.738 185.818 150.711 184.255 140.077C183.802 136.974 183.067 134.569 184.925 132.229L205.085 133.575C205.085 133.575 205.33 138.903 206.042 146.219Z" fill="black"/>
<path d="M153.965 112.594C154.284 116.43 155.47 120.143 157.435 123.452C161.892 130.875 170.467 134.317 178.862 134.115C185.625 134.028 192.156 131.641 197.381 127.347C200.794 124.286 203.468 120.49 205.2 116.245C207.016 111.974 208.156 107.446 208.577 102.824C208.713 101.246 208.749 99.6616 208.685 98.0793C208.574 94.7205 207.673 91.4351 206.054 88.4901C204.436 85.5451 202.145 83.0236 199.368 81.1305C193.235 77.0743 185.877 75.2913 178.567 76.0905C177.362 76.2072 176.17 76.4288 175.003 76.7529C168.997 78.3117 163.788 82.0548 160.394 87.2505C155.174 94.8609 153.252 104.854 153.965 112.594Z" fill="#FFBE9D"/>
<path d="M179.215 99.8579C179.123 99.7105 179.071 99.5418 179.064 99.3682C179.094 99.1495 179.21 98.9515 179.385 98.8168C179.56 98.6821 179.781 98.6216 180 98.6482C181.315 98.7689 182.581 99.2067 183.689 99.924C184.798 100.641 185.716 101.617 186.365 102.767C186.414 102.864 186.443 102.971 186.451 103.08C186.459 103.189 186.445 103.299 186.41 103.403C186.376 103.507 186.321 103.602 186.248 103.685C186.176 103.767 186.089 103.834 185.99 103.883C185.791 103.968 185.567 103.977 185.361 103.908C185.155 103.839 184.982 103.697 184.874 103.508C184.341 102.6 183.594 101.835 182.698 101.281C181.802 100.726 180.785 100.398 179.734 100.326C179.506 100.243 179.321 100.075 179.215 99.8579Z" fill="#263238"/>
<path d="M160.301 98.5899C160.14 98.5233 159.999 98.4167 159.89 98.2803C159.786 98.0857 159.761 97.8582 159.822 97.6458C159.882 97.4335 160.023 97.253 160.214 97.1427C161.351 96.4665 162.634 96.0754 163.954 96.0026C165.274 95.9299 166.592 96.1778 167.796 96.7251C167.893 96.7758 167.978 96.8452 168.048 96.9293C168.118 97.0133 168.171 97.1103 168.203 97.2147C168.235 97.3191 168.246 97.4289 168.235 97.5376C168.225 97.6463 168.193 97.7519 168.142 97.8483C168.031 98.0357 167.855 98.1755 167.648 98.2407C167.44 98.3059 167.216 98.2918 167.018 98.2011C166.053 97.7813 164.999 97.6033 163.949 97.6823C162.899 97.7614 161.884 98.0951 160.992 98.6547C160.878 98.6906 160.759 98.7033 160.64 98.6922C160.521 98.6811 160.406 98.6463 160.301 98.5899Z" fill="#263238"/>
<path d="M168.142 112.111L163.634 114.739C163.634 114.739 164.47 116.539 168.307 117.49L168.142 112.111Z" fill="#DE5753"/>
<path opacity="0.1" d="M174.96 76.7817C168.954 78.3405 163.744 82.0836 160.351 87.2793C169.812 82.9161 194.306 84.5865 193.327 97.3017C192.449 108.742 196.783 117.397 205.157 116.245C206.973 111.974 208.113 107.446 208.534 102.824C208.669 101.246 208.705 99.6616 208.642 98.0793C208.531 94.7205 207.63 91.4351 206.011 88.4901C204.392 85.5451 202.101 83.0236 199.325 81.1305C193.192 77.0743 185.833 75.2913 178.524 76.0905C177.318 76.2166 176.126 76.4479 174.96 76.7817Z" fill="black"/>
<path opacity="0.1" d="M157.212 89.7051C157.313 89.7051 157.406 89.5323 157.522 89.2803C157.406 89.4243 157.306 89.5611 157.212 89.7051Z" fill="black"/>
<path d="M198.137 111.219C198.137 111.219 202.918 102.766 207.187 106.056C211.457 109.347 208.937 124.056 202.147 123.336C195.358 122.616 194.537 115.647 198.137 111.219Z" fill="#FFBE9D"/>
<path d="M181.066 79.7543C178.743 78.876 176.233 78.6131 173.779 78.9911C173.779 78.9911 176.789 76.7303 182.196 77.8535C188.107 79.0847 188.942 82.3967 188.942 82.3967C187.825 82.8806 186.625 83.147 185.407 83.1815C184.384 83.217 183.36 83.1954 182.34 83.1167C183.139 84.3983 185.371 85.1687 185.371 85.1687C182.405 86.8319 177.667 86.2415 177.667 86.2415C179.734 88.6463 183.427 88.9919 183.427 88.9919C175.579 90.7343 171.986 87.5087 171.986 87.5087C173.333 91.3319 178.524 91.8935 178.524 91.8935C178.524 91.8935 168.494 93.6431 167.465 85.5431C166.795 80.2151 174.528 78.9551 181.066 79.7543Z" fill="#FFBE9D"/>
<path opacity="0.4" d="M181.066 79.7543C178.743 78.876 176.233 78.6131 173.779 78.9911C173.779 78.9911 176.789 76.7303 182.196 77.8535C188.107 79.0847 188.942 82.3967 188.942 82.3967C187.825 82.8806 186.625 83.147 185.407 83.1815C184.384 83.217 183.36 83.1954 182.34 83.1167C183.139 84.3983 185.371 85.1687 185.371 85.1687C182.405 86.8319 177.667 86.2415 177.667 86.2415C179.734 88.6463 183.427 88.9919 183.427 88.9919C175.579 90.7343 171.986 87.5087 171.986 87.5087C173.333 91.3319 178.524 91.8935 178.524 91.8935C178.524 91.8935 168.494 93.6431 167.465 85.5431C166.795 80.2151 174.528 78.9551 181.066 79.7543Z" fill="black"/>
<path d="M182.837 109.793C182.837 110.945 182.052 111.874 181.13 111.853C180.691 111.947 180.234 111.902 179.822 111.724C179.41 111.546 179.063 111.244 178.83 110.86C178.598 110.477 178.49 110.03 178.523 109.582C178.556 109.134 178.728 108.708 179.014 108.362C179.301 108.017 179.688 107.769 180.122 107.653C180.555 107.538 181.014 107.56 181.435 107.718C181.855 107.875 182.216 108.16 182.467 108.532C182.719 108.904 182.848 109.345 182.837 109.793Z" fill="#263238"/>
<path d="M165.298 108.353C165.222 108.667 165.058 108.953 164.827 109.178C164.595 109.403 164.305 109.558 163.989 109.625C163.673 109.693 163.345 109.669 163.042 109.558C162.739 109.447 162.473 109.252 162.276 108.997C162.078 108.741 161.957 108.435 161.926 108.114C161.896 107.792 161.956 107.468 162.101 107.18C162.246 106.891 162.47 106.65 162.746 106.483C163.022 106.316 163.34 106.23 163.663 106.236C164.158 106.306 164.606 106.567 164.911 106.962C165.216 107.357 165.355 107.857 165.298 108.353Z" fill="#263238"/>
<path d="M183.384 121.313C182.664 124.43 180.252 128.081 173.304 128.462C173.304 128.462 173.167 127.908 172.886 127.08C172.224 125.136 170.726 121.716 168.25 120.874C168.25 120.874 169.178 120.91 170.683 120.802C171.626 120.73 172.786 120.6 174.082 120.37C175.223 120.16 176.353 119.888 177.466 119.556C178.616 119.211 179.74 118.782 180.828 118.274C181.776 117.84 182.693 117.34 183.571 116.777C183.804 118.287 183.74 119.827 183.384 121.313Z" fill="#263238"/>
<path d="M183.384 121.314C182.664 124.432 180.252 128.082 173.304 128.464C173.304 128.464 173.167 127.91 172.886 127.082C175.633 124.027 179.333 121.994 183.384 121.314Z" fill="#DE5753"/>
<path d="M204.401 141.164C197.921 147.083 189.778 151.813 180.842 152.612C172.634 153.044 165.002 151.554 157.212 149.279C156.371 149.016 155.648 148.47 155.166 147.733C154.683 146.996 154.471 146.115 154.567 145.239C154.662 144.364 155.058 143.548 155.688 142.933C156.317 142.317 157.141 141.939 158.018 141.863C161.662 141.445 165.377 141.143 168.948 140.826C172.519 140.509 176.537 140.178 179.892 139.192C182.244 138.281 184.485 137.107 186.574 135.692C189.274 133.936 192.002 131.819 194.551 129.803C202.262 124.18 211.025 134.353 204.401 141.164Z" fill="#DC897C"/>
<path d="M184.255 135.102L199.325 149.185C199.325 149.185 213.271 140.545 205.38 130.264C197.489 119.982 184.255 135.102 184.255 135.102Z" fill="#EC407A"/>
<path opacity="0.5" d="M184.255 135.102L199.325 149.185C199.325 149.185 213.271 140.545 205.38 130.264C197.489 119.982 184.255 135.102 184.255 135.102Z" fill="white"/>
<path d="M161.431 144.929C161.841 145.957 161.992 147.069 161.87 148.169L161.734 149.559C156.629 151.136 149.947 149.076 149.947 149.076L147.989 148.702C147.582 148.636 147.193 148.491 146.843 148.274C146.493 148.058 146.19 147.774 145.95 147.439C145.71 147.104 145.539 146.725 145.447 146.324C145.354 145.923 145.342 145.508 145.411 145.102L146.131 141.192C146.272 140.512 146.606 139.887 147.095 139.393C147.583 138.898 148.203 138.555 148.882 138.406L151.999 137.686C152.429 137.586 152.872 137.564 153.31 137.621C154.058 137.709 154.761 138.023 155.326 138.521L159.574 142.244C160.4 142.976 161.037 143.898 161.431 144.929Z" fill="#FFBE9D"/>
</svg>
