<svg width="400" height="403" viewBox="0 0 400 403" fill="none" xmlns="http://www.w3.org/2000/svg">
<path fill-rule="evenodd" clip-rule="evenodd" d="M299.51 61.428C325.209 94.9712 342.749 141.314 347.319 193.503H347.308C376.271 242.581 424.564 338.354 385.148 374.739C359.549 398.37 326.088 406.276 291.848 400.722C276.285 398.199 257.264 391.113 247.093 377.354C234.721 360.616 213.281 300.428 299.58 306.038C295.416 273.941 284.006 245.534 267.894 224.504C273.978 220.432 277.981 213.515 277.981 205.663C277.981 193.136 267.792 182.983 255.221 182.983C246.263 182.983 238.52 188.142 234.804 195.638C223.951 189.902 212.227 186.771 200 186.771C187.773 186.771 176.048 189.902 165.195 195.638C161.482 188.142 153.737 182.983 144.779 182.983C132.208 182.983 122.019 193.136 122.019 205.663C122.019 213.515 126.022 220.432 132.106 224.504C115.994 245.534 104.584 273.941 100.419 306.038C186.719 300.428 165.278 360.616 152.906 377.354C142.738 391.113 123.715 398.199 108.151 400.722C73.9113 406.276 40.4508 398.37 14.8514 374.739C-24.564 338.354 23.7313 242.581 52.6914 193.503C57.2617 141.314 74.8012 94.9712 100.5 61.428C91.5852 55.462 85.7163 45.3222 85.7163 33.8161C85.7163 15.4599 100.651 0.578339 119.072 0.578339C132.2 0.578339 143.55 8.13834 148.994 19.1247C164.902 10.7182 182.084 6.12912 200.005 6.12912C217.926 6.12912 235.108 10.7182 251.016 19.1247C256.46 8.13834 267.811 0.578339 280.938 0.578339C299.36 0.578339 314.294 15.4599 314.294 33.8161C314.294 45.3222 308.425 55.462 299.51 61.428ZM107.087 33.8188C107.087 40.4143 112.453 45.7615 119.072 45.7615C125.691 45.7615 131.057 40.4143 131.057 33.8188C131.057 27.2232 125.691 21.876 119.072 21.876C112.453 21.876 107.087 27.2232 107.087 33.8188ZM152.32 75.4309C152.32 82.0265 157.686 87.3736 164.305 87.3736C170.924 87.3736 176.29 82.0265 176.29 75.4309C176.29 68.8353 170.924 63.4881 164.305 63.4881C157.686 63.4881 152.32 68.8353 152.32 75.4309ZM205.49 117.239L217.644 105.304C222.623 100.415 219.147 91.9681 212.157 91.9681H187.851C180.858 91.9681 177.385 100.415 182.364 105.304L194.518 117.239C197.561 120.226 202.446 120.226 205.49 117.239ZM223.72 75.4309C223.72 82.0265 229.086 87.3736 235.705 87.3736C242.324 87.3736 247.69 82.0265 247.69 75.4309C247.69 68.8353 242.324 63.4881 235.705 63.4881C229.086 63.4881 223.72 68.8353 223.72 75.4309ZM268.953 33.8188C268.953 40.4143 274.319 45.7615 280.938 45.7615C287.557 45.7615 292.923 40.4143 292.923 33.8188C292.923 27.2232 287.557 21.876 280.938 21.876C274.319 21.876 268.953 27.2232 268.953 33.8188ZM144.782 213.812C149.298 213.812 152.96 210.163 152.96 205.663C152.96 201.162 149.298 197.513 144.782 197.513C140.265 197.513 136.603 201.162 136.603 205.663C136.603 210.163 140.265 213.812 144.782 213.812ZM221.234 226.529C225.407 224.807 230.191 226.781 231.919 230.939C233.648 235.098 231.666 239.865 227.493 241.587C223.32 243.309 218.536 241.335 216.808 237.177C215.079 233.018 217.061 228.251 221.234 226.529ZM183.826 234.057C183.826 238.558 180.165 242.206 175.648 242.206C171.131 242.206 167.469 238.558 167.469 234.057C167.469 229.556 171.131 225.908 175.648 225.908C180.165 225.908 183.826 229.556 183.826 234.057ZM263.407 205.663C263.407 210.163 259.745 213.812 255.229 213.812C250.712 213.812 247.05 210.163 247.05 205.663C247.05 201.162 250.712 197.513 255.229 197.513C259.745 197.513 263.407 201.162 263.407 205.663ZM206.084 245.341H193.921C188.34 245.341 185.568 252.084 189.542 255.987L195.623 261.961C198.051 264.345 201.952 264.345 204.382 261.961L210.463 255.987C214.437 252.084 211.665 245.341 206.084 245.341Z" fill="#EC407A"/>
</svg>
