<svg width="80" height="81" viewBox="0 0 80 81" fill="none" xmlns="http://www.w3.org/2000/svg">
<path d="M35.1296 48.497C36.0329 48.497 36.7652 47.7647 36.7652 46.8613C36.7652 45.958 36.0329 45.2257 35.1296 45.2257C34.2262 45.2257 33.4939 45.958 33.4939 46.8613C33.4939 47.7647 34.2262 48.497 35.1296 48.497Z" fill="#EC407A"/>
<path d="M45.4987 48.3727C46.3332 48.027 46.7296 47.0702 46.3839 46.2356C46.0382 45.401 45.0814 45.0047 44.2468 45.3504C43.4122 45.6961 43.0159 46.6529 43.3616 47.4875C43.7073 48.3221 44.6641 48.7184 45.4987 48.3727Z" fill="#EC407A"/>
<path d="M28.9563 42.798C29.8597 42.798 30.592 42.0657 30.592 41.1624C30.592 40.259 29.8597 39.5267 28.9563 39.5267C28.053 39.5267 27.3207 40.259 27.3207 41.1624C27.3207 42.0657 28.053 42.798 28.9563 42.798Z" fill="#EC407A"/>
<path d="M51.0457 42.798C51.9491 42.798 52.6814 42.0657 52.6814 41.1624C52.6814 40.259 51.9491 39.5267 51.0457 39.5267C50.1424 39.5267 49.4101 40.259 49.4101 41.1624C49.4101 42.0657 50.1424 42.798 51.0457 42.798Z" fill="#EC407A"/>
<path d="M41.2173 49.1261H38.7842C37.668 49.1261 37.1136 50.4795 37.9083 51.2629L39.1246 52.4619C39.6101 52.9405 40.3903 52.9405 40.8764 52.4619L42.0926 51.2629C42.8873 50.4795 42.333 49.1261 41.2167 49.1261H41.2173Z" fill="#EC407A"/>
<path d="M69.4638 38.7218C68.5497 28.247 65.0418 18.9455 59.902 12.2131C61.685 11.0157 62.8588 8.98051 62.8588 6.67113C62.8588 2.98687 59.8719 0 56.1877 0C53.5621 0 51.292 1.51736 50.2032 3.72243C47.0217 2.03516 43.5853 1.11409 40.001 1.11409C36.4168 1.11409 32.9804 2.03516 29.7989 3.72243C28.7101 1.51736 26.4399 0 23.8144 0C20.1301 0 17.1433 2.98687 17.1433 6.67113C17.1433 8.98051 18.317 11.0157 20.1 12.2131C14.9602 18.9455 11.4523 28.247 10.5383 38.7218C4.74627 48.5723 -4.9128 67.7947 2.97028 75.0976C8.09017 79.8406 14.7823 81.4273 21.6303 80.3127C24.743 79.8062 28.5477 78.384 30.5812 75.6224C33.0557 72.2629 37.3438 60.1826 20.0839 61.3086C20.9168 54.8665 23.1987 49.1648 26.4211 44.9439C25.2043 44.1267 24.4037 42.7383 24.4037 41.1624C24.4037 38.6481 26.4415 36.6103 28.9558 36.6103C30.7474 36.6103 32.2965 37.6459 33.039 39.1503C35.2097 37.9991 37.5545 37.3706 40 37.3706C42.4454 37.3706 44.7902 37.9991 46.9609 39.1503C47.704 37.6459 49.2525 36.6103 51.0441 36.6103C53.5584 36.6103 55.5962 38.6481 55.5962 41.1624C55.5962 42.7383 54.7956 44.1267 53.5788 44.9439C56.8012 49.1648 59.0831 54.8665 59.916 61.3086C42.6561 60.1826 46.9442 72.2629 49.4187 75.6224C51.4528 78.384 55.2569 79.8062 58.3696 80.3127C65.2176 81.4273 71.9097 79.8406 77.0296 75.0976C84.9127 67.7947 75.2542 48.5723 69.4616 38.7218H69.4638ZM23.8144 9.06869C22.4906 9.06869 21.4174 7.99546 21.4174 6.67166C21.4174 5.34787 22.4906 4.27464 23.8144 4.27464C25.1382 4.27464 26.2114 5.34787 26.2114 6.67166C26.2114 7.99546 25.1382 9.06869 23.8144 9.06869ZM32.861 17.4206C31.5372 17.4206 30.464 16.3474 30.464 15.0236C30.464 13.6998 31.5372 12.6266 32.861 12.6266C34.1848 12.6266 35.2581 13.6998 35.2581 15.0236C35.2581 16.3474 34.1848 17.4206 32.861 17.4206ZM43.5288 21.0194L41.0979 23.4148C40.4893 24.0143 39.5123 24.0143 38.9036 23.4148L36.4727 21.0194C35.4769 20.0381 36.1716 18.3428 37.5701 18.3428H42.4314C43.8294 18.3428 44.5246 20.0381 43.5288 21.0194ZM47.141 17.4206C45.8172 17.4206 44.744 16.3474 44.744 15.0236C44.744 13.6998 45.8172 12.6266 47.141 12.6266C48.4648 12.6266 49.538 13.6998 49.538 15.0236C49.538 16.3474 48.4648 17.4206 47.141 17.4206ZM56.1877 9.06869C54.8639 9.06869 53.7906 7.99546 53.7906 6.67166C53.7906 5.34787 54.8639 4.27464 56.1877 4.27464C57.5115 4.27464 58.5847 5.34787 58.5847 6.67166C58.5847 7.99546 57.5115 9.06869 56.1877 9.06869Z" fill="#EC407A"/>
</svg>
