<svg width="111" height="112" viewBox="0 0 111 112" fill="none" xmlns="http://www.w3.org/2000/svg">
<g clip-path="url(#clip0_84_943)">
<path d="M21.351 19.5496C19.8764 22.8229 16.7706 21.3969 16.144 24.2705C15.5174 27.1441 13.1137 25.5561 11.8552 29.4884C10.5966 33.4207 13.4756 31.8002 13.2163 35.1492C12.9571 38.4981 16.4195 39.6217 19.2066 38.8492C21.9938 38.0768 26.3313 40.1024 29.2319 42.0901C32.1325 44.0779 38.9546 41.4204 37.8149 37.6771C36.6752 33.9338 34.8657 32.8157 36.7346 30.7956C38.6035 28.7754 40.5805 23.2334 36.5563 21.7372C32.2945 20.1654 33.3154 17.8319 30.0745 16.5409C26.8336 15.25 22.8257 16.2763 21.351 19.5496Z" fill="#263238"/>
<path d="M38.9924 51.2511L39.0788 51.7103L39.1869 52.2504C39.2625 52.6177 39.3489 52.9958 39.4353 53.3685C39.6136 54.1193 39.8134 54.8755 40.0241 55.6372C40.4508 57.155 40.9316 58.6728 41.4501 60.1852C41.704 60.9415 41.9903 61.6923 42.2549 62.4485L42.6817 63.5828L42.8977 64.123C42.9679 64.339 43.0436 64.5767 43.1138 64.809C43.2542 65.3193 43.3571 65.8392 43.4217 66.3646C43.4217 66.505 43.4541 66.6509 43.4595 66.8129C43.4649 66.975 43.4595 67.1262 43.4595 67.3045C43.4512 67.7153 43.3839 68.1228 43.2596 68.5144C43.0811 69.0827 42.7323 69.5824 42.2603 69.9458C41.8233 70.2839 41.2895 70.4732 40.7371 70.486C40.3687 70.4864 40.0031 70.4224 39.6568 70.2969C39.3621 70.186 39.0797 70.0448 38.8142 69.8756C38.5402 69.7098 38.3432 69.4421 38.2663 69.1313C38.1893 68.8204 38.2387 68.4918 38.4036 68.2173C38.5534 67.9636 38.7891 67.7719 39.068 67.6772L39.781 67.4503C39.9809 67.3801 40.3536 67.3207 40.3212 67.1964C40.2888 67.0722 40.1483 67.1262 39.9269 67.245C39.7741 67.3448 39.642 67.4732 39.538 67.6231C39.484 67.6934 39.4515 67.6664 39.4137 67.6231L39.2625 67.3423C39.1383 67.11 38.9978 66.8021 38.8196 66.532C38.7385 66.3808 38.6467 66.2404 38.5603 66.0729L38.2848 65.4949L37.7447 64.3444C37.3846 63.5666 37.0461 62.7816 36.7292 61.9894C36.0756 60.4067 35.4868 58.7917 34.9791 57.128C34.7198 56.2961 34.4983 55.4535 34.2931 54.5947C34.1905 54.1679 34.0986 53.7304 34.0122 53.2875C33.969 53.066 33.9312 52.8446 33.8934 52.6123C33.8556 52.38 33.8286 52.1748 33.7908 51.8453C33.7277 51.1765 33.9234 50.5089 34.3376 49.9801C34.7519 49.4512 35.3531 49.1013 36.0175 49.0023C36.682 48.9033 37.3591 49.0628 37.9095 49.448C38.4598 49.8332 38.8416 50.4147 38.9762 51.0729L38.9924 51.2511Z" fill="#EB996E"/>
<path d="M36.5185 45.3689C38.6791 45.6174 41.3151 54.0546 41.3151 54.0546L36.0648 58.7647C36.0648 58.7647 29.3507 50.8028 30.6633 48.2803C32.0083 45.6498 33.3478 45.0016 36.5185 45.3689Z" fill="#263238"/>
<path opacity="0.2" d="M36.5887 47.3242L39.3705 55.81L36.4159 58.446L36.5887 47.3242Z" fill="black"/>
<path d="M38.6359 48.7124C38.7223 52.4178 38.2092 60.1582 35.5786 76.3412H14.718C15.0366 68.5576 15.0744 63.5126 11.9524 49.3336C11.8323 48.7904 11.8259 48.2283 11.9337 47.6826C12.0416 47.1368 12.2612 46.6194 12.5789 46.1627C12.8965 45.706 13.3052 45.3201 13.7794 45.0291C14.2535 44.7382 14.7827 44.5486 15.3337 44.4722C16.7057 44.2886 18.283 44.1211 19.8764 44.0401C23.0305 43.8157 26.1966 43.8157 29.3507 44.0401C31.4141 44.2291 33.6233 44.5802 35.2924 44.8503C36.2101 45.0085 37.0447 45.4797 37.6543 46.1838C38.2639 46.8879 38.6107 47.7814 38.6359 48.7124Z" fill="#263238"/>
<path d="M20.8163 33.3559C21.4158 36.4024 22.01 41.9983 19.8764 44.0185C19.8764 44.0185 20.7082 47.1136 26.3582 47.1136C32.5862 47.1136 29.3345 44.0185 29.3345 44.0185C25.9369 43.2083 26.0233 40.6858 26.6337 38.3199L20.8163 33.3559Z" fill="#EB996E"/>
<path d="M38.2848 48.4747C38.301 47.6104 38.0086 46.7687 37.4602 46.1005C36.9118 45.4323 36.1432 44.9814 35.2924 44.8287C33.6179 44.5424 31.4195 44.2075 29.3507 44.0239C26.1968 43.794 23.0303 43.794 19.8764 44.0239C19.4713 44.0239 19.077 44.0725 18.6827 44.0995H18.6233C21.0485 45.5147 20.2923 49.8683 19.9682 52.272C27.5304 56.1071 33.3154 58.7538 33.3154 58.7538C37.5772 57.6141 38.2254 52.6717 38.2848 48.4747Z" fill="#EB996E"/>
<path opacity="0.2" d="M23.1876 35.3815L26.6283 38.3145C26.4818 38.8666 26.3842 39.4305 26.3366 39.9998C25.0403 39.8107 23.2524 38.3793 23.0957 37.0235C23.0239 36.4752 23.0551 35.9183 23.1876 35.3815Z" fill="black"/>
<path d="M21.4969 24.3083C20.0115 29.1697 19.2769 31.2169 20.7785 34.5712C23.0255 39.6054 29.3399 40.3617 32.2513 36.0242C34.8711 32.1243 36.8588 24.7999 32.8995 21.1646C32.031 20.3582 30.9708 19.7873 29.8195 19.5059C28.6683 19.2246 27.4642 19.2423 26.3217 19.5573C25.1792 19.8723 24.1362 20.4741 23.2917 21.3057C22.4473 22.1372 21.8294 23.1708 21.4969 24.3083Z" fill="#EB996E"/>
<path d="M35.5787 76.3412C35.5787 76.3412 39.6298 115.907 39.2949 131.572C38.9438 147.868 32.9751 185.047 32.9751 185.047H26.0288C26.0288 185.047 27.1091 148.857 26.5149 132.841C25.8451 115.394 20.3032 76.3628 20.3032 76.3628L35.5787 76.3412Z" fill="#80CBC4"/>
<path opacity="0.3" d="M35.5787 76.3412C35.5787 76.3412 39.6298 115.907 39.2949 131.572C38.9438 147.868 32.9751 185.047 32.9751 185.047H26.0288C26.0288 185.047 27.1091 148.857 26.5149 132.841C25.8451 115.394 20.3032 76.3628 20.3032 76.3628L35.5787 76.3412Z" fill="black"/>
<path opacity="0.2" d="M26.5797 86.1828C31.7058 96.4943 27.606 115.297 25.7965 122.292C24.8674 111.786 23.301 98.9412 22.0802 89.5101C22.8581 84.2004 24.2192 81.4295 26.5797 86.1828Z" fill="black"/>
<path d="M29.8098 76.3412C29.8098 76.3412 25.4886 115.907 23.1227 131.572C20.6596 147.868 9.86738 185.047 9.86738 185.047H2.92102C2.92102 185.047 8.71686 148.857 10.1807 132.841C11.7741 115.394 14.5289 76.3628 14.5289 76.3628L29.8098 76.3412Z" fill="#80CBC4"/>
<path opacity="0.3" d="M29.8098 76.3412C29.8098 76.3412 25.4886 115.907 23.1227 131.572C20.6596 147.868 9.86738 185.047 9.86738 185.047H2.92102C2.92102 185.047 8.71686 148.857 10.1807 132.841C11.7741 115.394 14.5289 76.3628 14.5289 76.3628L29.8098 76.3412Z" fill="black"/>
<path d="M28.6485 28.4081C28.5027 28.797 28.5945 29.1859 28.8483 29.2831C29.1022 29.3804 29.4263 29.1373 29.5668 28.743C29.7072 28.3487 29.6262 27.9652 29.3723 27.8679C29.1184 27.7707 28.7727 28.0246 28.6485 28.4081Z" fill="#263238"/>
<path d="M33.0183 30.0447C32.8725 30.4282 32.9589 30.8226 33.2128 30.9144C33.4666 31.0062 33.7907 30.7739 33.9366 30.3742C34.0824 29.9745 33.9906 29.5964 33.7367 29.4992C33.4828 29.402 33.1588 29.645 33.0183 30.0447Z" fill="#263238"/>
<path d="M33.6179 29.4884L34.6496 29.5694C34.6496 29.5694 33.8988 30.1204 33.6179 29.4884Z" fill="#263238"/>
<path d="M31.4033 30.2392C31.4198 31.2529 31.5743 32.2596 31.8624 33.2316C31.6121 33.2992 31.35 33.3115 31.0944 33.2676C30.8389 33.2238 30.5959 33.1249 30.3824 32.9778L31.4033 30.2392Z" fill="#FF5652"/>
<path d="M27.6978 33.707C27.872 33.8037 28.0524 33.8885 28.238 33.9609C28.2527 33.9678 28.2688 33.9714 28.2851 33.9715C28.3014 33.9716 28.3175 33.9683 28.3324 33.9616C28.3472 33.9549 28.3605 33.9451 28.3712 33.9329C28.382 33.9207 28.39 33.9062 28.3946 33.8906C28.4007 33.8758 28.4036 33.8599 28.4033 33.8438C28.4031 33.8278 28.3995 33.812 28.393 33.7973C28.3864 33.7827 28.3769 33.7695 28.3652 33.7587C28.3534 33.7478 28.3395 33.7394 28.3244 33.734C27.8364 33.5677 27.3951 33.2874 27.0372 32.9163C26.6793 32.5452 26.415 32.0941 26.2664 31.6004C26.2587 31.5692 26.2392 31.5422 26.212 31.5251C26.1848 31.508 26.1521 31.502 26.1206 31.5086C26.1048 31.5117 26.0898 31.5181 26.0765 31.5272C26.0632 31.5364 26.052 31.5481 26.0434 31.5618C26.0348 31.5754 26.029 31.5907 26.0265 31.6066C26.024 31.6225 26.0248 31.6388 26.0288 31.6544C26.1558 32.0906 26.369 32.497 26.6557 32.8495C26.9423 33.2021 27.2967 33.4936 27.6978 33.707Z" fill="#263238"/>
<path d="M18.5747 28.1974C18.5787 29.1814 18.9663 30.1251 19.655 30.828C20.5894 31.7408 21.6805 31.0602 21.9506 29.8503C22.1883 28.77 21.9938 26.9767 20.8055 26.5175C20.5448 26.4251 20.2652 26.3987 19.9918 26.4407C19.7184 26.4827 19.4597 26.5918 19.2388 26.7582C19.0178 26.9245 18.8415 27.1431 18.7256 27.3942C18.6097 27.6454 18.5579 27.9213 18.5747 28.1974Z" fill="#EB996E"/>
<path d="M25.2509 18.5719C27.5358 18.9014 27.7032 22.65 26.8012 23.9086C25.8991 25.1672 23.6197 25.5885 24.2192 27.4358C25.1267 30.2284 23.3766 30.2446 23.6359 33.0588C23.8249 35.1222 24.122 37.2882 20.7082 36.9425C15.6092 36.4023 13.8699 37.3692 15.7604 30.2122C16.7867 26.3231 17.4295 23.3468 19.2066 23.1038C20.9837 22.8607 22.7068 18.2046 25.2509 18.5719Z" fill="#263238"/>
<path d="M25.0403 21.1862C26.1206 23.5359 28.8213 24.7188 31.3384 24.708C35.3086 24.708 37.8905 29.3966 36.1998 24.9079C34.5091 20.4192 30.593 18.5719 28.7187 18.3288C26.8444 18.0858 23.7871 18.4693 25.0403 21.1862Z" fill="#263238"/>
<path d="M27.2009 26.8579C27.2452 26.8824 27.2962 26.8925 27.3465 26.8867C27.3969 26.8809 27.4442 26.8595 27.4818 26.8255C28.3082 26.0584 29.7288 26.3501 29.745 26.3555C29.808 26.3683 29.8735 26.3556 29.9272 26.3201C29.9809 26.2847 30.0183 26.2294 30.0313 26.1665C30.0442 26.1042 30.0322 26.0394 29.9979 25.9859C29.9635 25.9323 29.9096 25.8944 29.8476 25.8802C29.7774 25.8802 28.1624 25.5345 27.1469 26.4636C27.102 26.5099 27.0769 26.5719 27.0769 26.6364C27.0769 26.7009 27.102 26.7629 27.1469 26.8093C27.1611 26.8292 27.1796 26.8458 27.2009 26.8579Z" fill="#263238"/>
<path d="M35.0925 28.5053C35.1284 28.5267 35.1695 28.538 35.2113 28.538C35.2532 28.538 35.2942 28.5267 35.3302 28.5053C35.3862 28.4726 35.4271 28.4192 35.4443 28.3566C35.4615 28.294 35.4535 28.2272 35.422 28.1704C35.2357 27.8313 34.9707 27.542 34.6492 27.3267C34.3277 27.1114 33.9592 26.9766 33.5747 26.9335C33.5111 26.9305 33.4489 26.9526 33.4014 26.995C33.3539 27.0375 33.325 27.0968 33.3208 27.1604C33.3178 27.2245 33.3397 27.2874 33.382 27.3357C33.4243 27.384 33.4837 27.4141 33.5477 27.4196C33.8516 27.4572 34.1422 27.5671 34.395 27.74C34.6478 27.9129 34.8555 28.1438 35.0007 28.4135C35.0211 28.4528 35.0532 28.4849 35.0925 28.5053Z" fill="#263238"/>
<path d="M29.2318 27.8571L30.2635 27.9327C30.2635 27.9327 29.5127 28.4837 29.2318 27.8571Z" fill="#263238"/>
<path d="M14.4047 75.115L13.8645 76.984C13.7943 77.1298 13.9617 77.2757 14.2048 77.2757H35.6705C35.8595 77.2757 36.0162 77.1838 36.027 77.065L36.216 75.1961C36.216 75.0664 36.0648 74.9584 35.8595 74.9584H14.745C14.6796 74.9532 14.614 74.9649 14.5544 74.9923C14.4948 75.0198 14.4433 75.062 14.4047 75.115Z" fill="#80CBC4"/>
<path d="M17.2405 77.4755H16.7003C16.5923 77.4755 16.5059 77.4215 16.5113 77.3459L16.7759 74.9206C16.7759 74.8504 16.884 74.791 16.9974 74.791H17.5646C17.6726 74.791 17.759 74.8504 17.7536 74.9206L17.4889 77.3459C17.4511 77.4215 17.3539 77.4755 17.2405 77.4755Z" fill="#80CBC4"/>
<g opacity="0.3">
<path d="M17.2405 77.4755H16.7003C16.5923 77.4755 16.5059 77.4215 16.5113 77.3459L16.7759 74.9206C16.7759 74.8504 16.884 74.791 16.9974 74.791H17.5646C17.6726 74.791 17.759 74.8504 17.7536 74.9206L17.4889 77.3459C17.4511 77.4215 17.3539 77.4755 17.2405 77.4755Z" fill="black"/>
</g>
<path d="M34.0932 77.4755H33.5099C33.3964 77.4755 33.31 77.4215 33.3208 77.3459L33.5855 74.9206C33.5855 74.8504 33.6881 74.791 33.8015 74.791H34.3687C34.4821 74.791 34.5686 74.8504 34.5578 74.9206L34.2931 77.3459C34.3039 77.4215 34.2067 77.4755 34.0932 77.4755Z" fill="#80CBC4"/>
<path opacity="0.3" d="M34.0932 77.4755H33.5099C33.3964 77.4755 33.31 77.4215 33.3208 77.3459L33.5855 74.9206C33.5855 74.8504 33.6881 74.791 33.8015 74.791H34.3687C34.4821 74.791 34.5686 74.8504 34.5578 74.9206L34.2931 77.3459C34.3039 77.4215 34.2067 77.4755 34.0932 77.4755Z" fill="black"/>
<path d="M25.6669 77.4755H25.1267C25.0133 77.4755 24.9268 77.4215 24.9376 77.3459L25.2023 74.9206C25.2023 74.8504 25.3104 74.791 25.4238 74.791H25.9639C26.0774 74.791 26.1638 74.8504 26.1584 74.9206L25.8937 77.3459C25.8775 77.4215 25.7803 77.4755 25.6669 77.4755Z" fill="#80CBC4"/>
<path opacity="0.3" d="M25.6669 77.4755H25.1267C25.0133 77.4755 24.9268 77.4215 24.9376 77.3459L25.2023 74.9206C25.2023 74.8504 25.3104 74.791 25.4238 74.791H25.9639C26.0774 74.791 26.1638 74.8504 26.1584 74.9206L25.8937 77.3459C25.8775 77.4215 25.7803 77.4755 25.6669 77.4755Z" fill="black"/>
<path d="M32.7482 53.4765C32.5052 53.6764 32.2081 53.7088 32.0676 53.5522C31.9272 53.3955 32.0244 53.0984 32.2675 52.8986C32.5106 52.6987 32.8077 52.6609 32.9481 52.823C33.0885 52.985 32.9697 53.2713 32.7482 53.4765Z" fill="#263238"/>
<path d="M31.6571 53.6008C31.2033 53.7509 30.7305 53.8364 30.2527 53.8546C30.2556 54.1157 30.3184 54.3726 30.4364 54.6055L31.6571 53.6008Z" fill="#FFBE9D"/>
<path d="M38.1606 59.9476C35.8541 61.6004 34.5956 62.6969 32.4566 62.3836C29.2157 61.9083 27.7302 58.0624 29.4263 55.6696C30.9496 53.5089 34.4659 51.1863 37.318 52.8716C40.17 54.5568 40.467 58.3001 38.1606 59.9476Z" fill="#FFBE9D"/>
<path d="M25.9477 53.1848L27.5682 51.694L29.1886 53.7898C29.1886 53.7898 27.9517 55.2914 26.8174 54.7675L25.9477 53.1848Z" fill="#FFBE9D"/>
<path d="M29.0644 51.1809L29.9125 52.8878L29.1779 53.7898L27.525 51.6887L29.0644 51.1809Z" fill="#FFBE9D"/>
<path d="M30.7605 63.464L30.4094 63.545L30.1285 63.599L29.5884 63.6638C29.2287 63.6882 28.8678 63.6882 28.5081 63.6638C27.731 63.6229 26.9662 63.4532 26.2448 63.1615C25.4499 62.8431 24.7331 62.3567 24.1436 61.7355C23.5865 61.1326 23.1533 60.426 22.8689 59.6559C22.5675 58.8662 22.4475 58.0189 22.5178 57.1766C22.6008 56.3341 22.9025 55.5279 23.3928 54.8377C23.8093 54.2573 24.3316 53.7606 24.9323 53.3739C25.2038 53.2011 25.4872 53.0477 25.7803 52.9148C26.0835 52.7797 26.3957 52.666 26.7148 52.5745C26.9598 52.4994 27.222 52.501 27.4662 52.5789C27.7104 52.6569 27.9249 52.8075 28.0812 53.0108C28.2374 53.214 28.3279 53.4601 28.3404 53.7161C28.353 53.9721 28.2871 54.2259 28.1516 54.4434L27.8653 54.9079C27.7897 55.0268 27.6168 55.2104 27.5034 55.3617C27.3775 55.5159 27.262 55.6783 27.1577 55.8478C26.981 56.1168 26.853 56.4149 26.7796 56.7283C26.7404 56.91 26.7612 57.0995 26.839 57.2684C26.9144 57.4347 27.0106 57.5908 27.1253 57.7329C27.2343 57.905 27.3872 58.0448 27.5682 58.1381C27.7161 58.2077 27.8722 58.2585 28.0327 58.2893C28.2673 58.3382 28.5061 58.3635 28.7457 58.3649C28.8862 58.3649 29.032 58.3649 29.1833 58.3649H29.3993H29.4966C29.8337 58.2762 30.1851 58.2555 30.5302 58.304C30.8754 58.3525 31.2075 58.4693 31.5071 58.6475C31.8067 58.8257 32.0678 59.0619 32.2751 59.3421C32.4825 59.6223 32.6319 59.941 32.7148 60.2796C32.7976 60.6182 32.8122 60.9699 32.7577 61.3142C32.7032 61.6585 32.5806 61.9885 32.3972 62.2849C32.2138 62.5813 31.9731 62.8383 31.6893 63.0407C31.4056 63.2431 31.0843 63.387 30.7443 63.464H30.7605Z" fill="#FFBE9D"/>
<path d="M10.3373 61.1413C12.4331 58.2623 16.8192 57.4251 21.7292 58.4946C24.5433 59.1104 35.1681 55.1727 39.9917 55.1132C44.8153 55.0538 46.0198 60.2069 44.7666 62.9671C40.8613 71.5663 29.9881 70.6966 27.2225 72.7762C24.4569 74.8558 16.9974 77.724 12.7572 74.3157C8.51702 70.9073 6.67511 66.1594 10.3373 61.1413Z" fill="#80CBC4"/>
<path d="M42.7681 61.352L40.5643 64.9548L41.3313 66.9696C41.3803 67.1019 41.4644 67.2185 41.5746 67.3067C41.6847 67.3949 41.8168 67.4515 41.9567 67.4703C42.0966 67.4892 42.2389 67.4697 42.3686 67.4138C42.4982 67.3579 42.6101 67.2679 42.6925 67.1532L44.8207 64.231C44.9106 64.1096 44.9626 63.9644 44.9703 63.8135C44.978 63.6626 44.941 63.5129 44.8639 63.383L42.7681 61.352Z" fill="#EB996E"/>
<path d="M16.0521 52.8716L15.7442 53.7251C15.6362 54.0275 15.5282 54.33 15.4256 54.6379C15.2203 55.2537 15.042 55.8803 14.853 56.5068C14.4783 57.7507 14.1664 59.0127 13.9185 60.2879C13.6647 61.5573 13.4648 62.832 13.3406 64.1014L13.2757 65.0575V65.2951V65.3437C13.281 65.3043 13.281 65.2643 13.2757 65.2249C13.2596 65.0937 13.2134 64.968 13.1407 64.8576C13.0381 64.7226 13.0651 64.8036 13.1839 64.8954C13.352 65.0268 13.533 65.1408 13.7241 65.2357C14.8216 65.76 15.9713 66.1673 17.154 66.451C18.4234 66.7859 19.7414 67.056 21.0701 67.3153C23.7331 67.8122 26.4717 68.2281 29.1724 68.5955L29.0806 71.1936C26.2468 71.3232 23.4079 71.2853 20.5786 71.0802C19.158 70.9775 17.732 70.8209 16.2574 70.5778C15.5336 70.459 14.799 70.3185 14.059 70.1241C13.2665 69.9311 12.4914 69.6728 11.7417 69.3517C11.2954 69.1608 10.8685 68.9275 10.467 68.6549C9.90097 68.2797 9.42356 67.7857 9.06796 67.2073C8.82216 66.7962 8.65887 66.3412 8.58722 65.8677C8.58722 65.7434 8.58722 65.6138 8.54941 65.4842V64.998V63.8637C8.57381 62.3718 8.69652 60.8832 8.91672 59.4075C9.14571 57.9526 9.44859 56.5103 9.82417 55.0862C10.0132 54.3732 10.2347 53.671 10.467 52.9688C10.6992 52.2666 10.9423 51.6023 11.2772 50.8082L16.0521 52.8716Z" fill="#EB996E"/>
<path d="M13.4594 45.3797C11.369 46.0116 8.8573 53.2119 8.8573 53.2119L13.9509 56.8525C14.3238 57.1196 14.7544 57.2951 15.2077 57.365C15.6611 57.4348 16.1245 57.3969 16.5605 57.2544C16.9965 57.1118 17.3928 56.8687 17.7174 56.5446C18.0419 56.2204 18.2857 55.8245 18.4288 55.3887C19.0122 53.6116 19.4605 51.6076 19.0446 50.3005C18.1317 47.4701 15.8415 44.6505 13.4594 45.3797Z" fill="#263238"/>
<path d="M28.6485 68.5036L34.1743 68.0121L31.1926 72.3171C31.1926 72.3171 27.9139 71.9606 27.1145 69.9782L28.6485 68.5036Z" fill="#EB996E"/>
<path d="M37.8149 70.3618L34.2013 72.9869L31.1926 72.2901L34.1905 68.0121L37.8149 70.3618Z" fill="#EB996E"/>
<path d="M93.7068 20.0483C94.9546 18.3738 91.9567 14.3713 88.6618 16.721C85.2643 19.1409 79.7871 18.2982 76.5354 22.2629C73.2837 26.2277 78.3881 29.5226 77.9992 36.469C77.6967 42.2108 69.2163 43.8582 70.3615 51.5932C71.7767 61.1593 82.7363 74.7064 92.686 70.2069C102.636 65.7074 114.757 52.5547 109.89 43.9933C105.023 35.4319 97.9254 36.6418 100.707 29.8845C102.425 25.6659 100.68 17.3151 93.7068 20.0483Z" fill="#263238"/>
<path d="M75.5415 77.4125C75.5415 77.4125 68.163 105.868 64.4522 125.88C61.5029 141.799 88.651 169.055 88.651 169.055L94.3874 164.058C94.3874 164.058 80.6946 143.354 74.8879 129.073C83.633 107.537 96.6723 87.5458 92.5347 78.0013L75.5415 77.4125Z" fill="#263238"/>
<path d="M77.5293 49.5892C76.8611 49.5737 76.2117 49.8109 75.7109 50.2536C75.2102 50.6963 74.895 51.3117 74.8285 51.9767C74.7367 52.949 74.6232 53.9266 74.4936 54.8827C74.2505 56.676 73.9535 58.4639 73.597 60.2194C73.2405 61.9749 72.7813 63.7088 72.252 65.3887C71.9873 66.2313 71.6794 67.047 71.3553 67.8518C71.1933 68.2515 71.0132 68.6458 70.8152 69.0347C70.7342 69.2292 70.6315 69.4128 70.5397 69.6073V69.6451L70.302 69.6127C69.9077 69.5371 69.0003 69.2886 68.2116 69.0725C67.9469 69.0045 67.6667 69.0316 67.4199 69.1491C67.1731 69.2666 66.9754 69.467 66.8613 69.7153L66.1645 71.2439C66.0494 71.4829 66.0203 71.7543 66.0824 72.0122C66.1444 72.2701 66.2936 72.4986 66.5048 72.6591C67.2902 73.3011 68.18 73.8035 69.1353 74.1446C69.8513 74.3564 70.6021 74.4243 71.3445 74.3444C72.4299 74.2171 73.4224 73.6704 74.1101 72.8212C74.2698 72.6216 74.4142 72.4104 74.5422 72.1892L74.7313 71.8543C74.8555 71.622 74.9906 71.4006 75.104 71.1683C75.3417 70.7146 75.5739 70.2555 75.7846 69.7909C76.2167 68.8673 76.611 67.9328 76.9567 66.9929C77.651 65.1295 78.2212 63.2222 78.6636 61.2835C79.1119 59.366 79.4846 57.443 79.7439 55.5147C79.8789 54.4938 79.9978 53.4945 80.095 52.479C80.1276 52.1185 80.086 51.755 79.9728 51.4112C79.8596 51.0673 79.6772 50.7502 79.4369 50.4795C79.1965 50.2087 78.9032 49.9901 78.5752 49.837C78.2471 49.6839 77.8912 49.5995 77.5293 49.5892Z" fill="#FFBE9D"/>
<path d="M80.149 77.6664C80.149 77.6664 81.9045 111.642 81.332 131.908C83.3305 148.723 83.8328 180.522 83.8328 180.522L91.0169 180.149C91.0169 180.149 94.5873 143.225 92.8102 131.152C96.7425 108.72 102.792 87.9779 96.6723 78.2984L80.149 77.6664Z" fill="#263238"/>
<path d="M98.2873 78.2876C99.0327 68.5216 100.162 57.7131 101.426 51.3556C101.543 50.7543 101.539 50.1357 101.413 49.5361C101.287 48.9366 101.043 48.3683 100.694 47.8648C100.345 47.3613 99.8988 46.9328 99.3815 46.6046C98.8643 46.2765 98.2865 46.0552 97.6824 45.954C96.8721 45.819 96.0025 45.6894 95.1112 45.5813C94.6413 45.5273 94.1768 45.4733 93.7014 45.4301C90.517 45.0737 87.3112 44.9437 84.1083 45.0412C83.5682 45.0682 82.9956 45.106 82.4393 45.1546C81.7857 45.2032 81.1321 45.268 80.5001 45.3383C78.5725 45.5418 76.7748 46.4062 75.4121 47.7846C74.0494 49.163 73.2058 50.9706 73.0244 52.9004C72.6247 57.4215 72.6247 64.935 73.7914 77.3963C73.8292 80.4968 69.8375 91.7265 67.8983 104.944C70.6477 105.695 79.0525 105.857 83.9031 105.538C88.7536 105.22 96.8343 110.059 98.2873 108.498C99.7403 106.937 100.28 85.1637 98.2873 78.2876Z" fill="#80CBC4"/>
<path opacity="0.3" d="M100.232 50.1996C99.8479 50.1297 99.4545 50.1297 99.0705 50.1996L98.8383 50.2428C98.0286 50.4056 97.3116 50.8714 96.8337 51.545C96.3559 52.2186 96.1532 53.0492 96.2671 53.8672C96.3698 54.7585 96.44 55.5741 96.4994 56.3627C96.6506 58.2155 96.7263 59.8521 96.7101 61.3375C96.7101 62.958 96.6669 64.6379 96.4886 66.3124C96.4886 66.5554 96.44 66.8039 96.4076 67.0578C96.3752 67.3116 96.3536 67.4359 96.3374 67.6303C96.2942 67.9976 96.2239 68.3757 96.1699 68.7106C96.1429 68.8619 96.1159 69.0131 96.0835 69.1644C96.0457 69.4182 95.9971 69.6667 95.9538 69.8666L95.8512 70.2879L95.6892 70.7524C95.439 71.3996 95.1317 72.0232 94.7709 72.6159C94.4324 73.1504 94.2975 73.7888 94.3907 74.4146C94.4839 75.0403 94.7991 75.6117 95.2787 76.0243L95.754 76.4186C96.1165 76.7244 96.556 76.9248 97.0246 76.9982C97.4932 77.0715 97.9729 77.0149 98.4115 76.8345C99.1516 67.4683 100.232 57.389 101.436 51.3339C101.48 51.1204 101.505 50.9036 101.512 50.6857C101.123 50.4373 100.688 50.2717 100.232 50.1996Z" fill="black"/>
<path opacity="0.2" d="M71.9063 90.7327L70.4533 91.9372C70.2102 92.9311 69.9725 93.9682 69.7349 95.0323C71.7712 96.7121 78.8148 98.7431 80.1328 97.5926C77.3888 94.3247 71.9063 90.7327 71.9063 90.7327Z" fill="black"/>
<path d="M84.1083 45.0304C84.1083 45.0304 80.781 45.9919 82.207 51.1719C82.384 51.7908 82.7057 52.3587 83.1457 52.8286C83.5856 53.2986 84.131 53.6571 84.7369 53.8745C85.3427 54.092 85.9917 54.1621 86.63 54.0791C87.2683 53.9961 87.8778 53.7625 88.4079 53.3974C93.9229 49.6595 93.7068 45.4247 93.7068 45.4247L84.1083 45.0304Z" fill="#80CBC4"/>
<path d="M92.6751 38.8024C92.3618 41.3843 92.4428 44.0851 93.7068 45.4247C93.7068 45.4247 93.0046 48.3631 88.7752 51.1881C86.0475 53.0084 82.261 50.9612 82.4986 47.6933C82.5165 47.1475 82.6751 46.6155 82.959 46.149C83.2429 45.6824 83.6425 45.2971 84.1191 45.0304C87.6193 44.3498 87.8461 42.0757 87.1764 38.2406L89.9906 37.3008C90.2489 37.0963 90.5621 36.9731 90.8905 36.9468C91.219 36.9206 91.5478 36.9924 91.8353 37.1532C92.1229 37.3141 92.3562 37.5567 92.5057 37.8503C92.6552 38.1439 92.7142 38.4753 92.6751 38.8024Z" fill="#FFBE9D"/>
<path opacity="0.2" d="M89.9798 37.3008C90.2222 37.1074 90.5138 36.9856 90.8217 36.9492C91.1296 36.9127 91.4416 36.963 91.7225 37.0945C92.0033 37.2259 92.2418 37.4332 92.4111 37.693C92.5804 37.9528 92.6737 38.2547 92.6805 38.5647C91.329 40.3447 89.4618 41.665 87.333 42.3458C87.533 40.9735 87.4763 39.576 87.1656 38.2244L89.9798 37.3008Z" fill="black"/>
<path d="M95.5865 27.5726C95.7648 32.7797 95.9485 34.9781 93.6366 37.9381C90.1526 42.3836 83.8382 41.595 82.1367 36.5716C80.6081 32.0559 80.5757 24.2939 85.3777 21.6471C90.1796 19.0004 95.4137 22.3601 95.5865 27.5726Z" fill="#FFBE9D"/>
<path d="M90.9628 21.4635C87.6679 23.5431 92.7507 29.9007 95.6568 31.6238C98.5628 33.3469 99.1029 25.4823 97.8174 23.8078C96.5318 22.1333 94.1281 19.4704 90.9628 21.4635Z" fill="#263238"/>
<path d="M92.8264 21.0962C93.7068 23.986 84.5242 26.4383 80.6297 26.0602C80.7972 21.3123 87.4897 16.6885 92.8264 21.0962Z" fill="#263238"/>
<path d="M97.2178 32.7527C96.8077 33.6762 96.0569 34.4056 95.122 34.7891C93.8851 35.286 93.1613 34.2165 93.4152 32.9796C93.642 31.8615 94.5603 30.2788 95.8458 30.2788C97.1314 30.2788 97.7094 31.6076 97.2178 32.7527Z" fill="#FFBE9D"/>
<path d="M87.0737 29.9871C87.117 30.4085 86.9279 30.7758 86.6578 30.8082C86.3878 30.8406 86.1177 30.5273 86.1177 30.106C86.1177 29.6847 86.2635 29.3174 86.5336 29.2849C86.8037 29.2525 87.0305 29.5874 87.0737 29.9871Z" fill="#263238"/>
<path d="M82.4014 30.5597C82.4393 30.981 82.2556 31.3483 81.9801 31.3807C81.7046 31.4131 81.44 31.0998 81.44 30.6785C81.44 30.2572 81.5858 29.8899 81.8559 29.8575C82.126 29.8251 82.3582 30.1438 82.4014 30.5597Z" fill="#263238"/>
<path d="M81.9585 29.8683L80.9376 29.6901C80.9376 29.6901 81.521 30.4247 81.9585 29.8683Z" fill="#263238"/>
<path d="M84.4324 31.2727C84.0314 32.2391 83.5028 33.1474 82.8606 33.9735C83.0685 34.1302 83.3089 34.2383 83.5641 34.2897C83.8193 34.3411 84.0828 34.3346 84.3352 34.2706L84.4324 31.2727Z" fill="#FF5652"/>
<path d="M86.4904 35.5075C86.4669 35.5018 86.4459 35.4887 86.4304 35.4703C86.4148 35.4518 86.4056 35.4289 86.404 35.4048C86.4008 35.3721 86.4102 35.3393 86.4302 35.3133C86.4503 35.2872 86.4795 35.2697 86.512 35.2644C87.0336 35.2108 87.5356 35.0365 87.9781 34.7552C88.4206 34.474 88.7916 34.0935 89.0615 33.6439C89.0689 33.6294 89.0792 33.6164 89.0916 33.6058C89.1041 33.5952 89.1185 33.5872 89.134 33.5822C89.1496 33.5772 89.166 33.5753 89.1823 33.5766C89.1986 33.5779 89.2144 33.5824 89.229 33.5899C89.2574 33.6058 89.2785 33.6323 89.2876 33.6637C89.2967 33.695 89.2931 33.7287 89.2776 33.7574C88.9917 34.2451 88.5947 34.6584 88.1188 34.9634C87.6428 35.2685 87.1015 35.4568 86.539 35.5129L86.4904 35.5075Z" fill="#263238"/>
<path d="M89.5153 27.7941C89.475 27.781 89.4394 27.7566 89.4126 27.7239C89.2128 27.496 88.9616 27.3188 88.6799 27.2071C88.3982 27.0953 88.0939 27.0522 87.7922 27.0811C87.7609 27.0873 87.7287 27.0872 87.6975 27.0807C87.6663 27.0742 87.6367 27.0616 87.6105 27.0434C87.5843 27.0253 87.562 27.002 87.545 26.9751C87.5279 26.9482 87.5165 26.9181 87.5113 26.8867C87.5015 26.8218 87.5167 26.7556 87.5538 26.7015C87.5909 26.6473 87.6471 26.6093 87.7111 26.595C88.0951 26.5444 88.4857 26.59 88.8477 26.7276C89.2097 26.8653 89.5319 27.0907 89.7853 27.3836C89.8306 27.4308 89.8558 27.4937 89.8558 27.5591C89.8558 27.6246 89.8306 27.6874 89.7853 27.7347C89.7505 27.7691 89.7067 27.7929 89.6589 27.8034C89.6111 27.8139 89.5613 27.8107 89.5153 27.7941Z" fill="#263238"/>
<path d="M80.1328 27.9615L80.1004 27.9237C80.0669 27.8672 80.056 27.8001 80.07 27.736C80.0841 27.6718 80.122 27.6154 80.176 27.578C80.4906 27.3494 80.8562 27.2008 81.2412 27.1453C81.6261 27.0898 82.0188 27.1289 82.3852 27.2593C82.4151 27.2728 82.442 27.2919 82.4644 27.3158C82.4868 27.3396 82.5043 27.3677 82.5158 27.3983C82.5273 27.4289 82.5327 27.4615 82.5316 27.4942C82.5306 27.5269 82.523 27.559 82.5095 27.5888C82.4971 27.6183 82.479 27.645 82.4563 27.6675C82.4335 27.6899 82.4066 27.7077 82.377 27.7197C82.3474 27.7318 82.3157 27.7379 82.2838 27.7376C82.2518 27.7374 82.2202 27.7309 82.1908 27.7185C81.8985 27.6198 81.5866 27.5933 81.2819 27.6413C80.9771 27.6893 80.6885 27.8103 80.4407 27.9939C80.3936 28.0252 80.3371 28.039 80.2809 28.0331C80.2247 28.0272 80.1724 28.0019 80.1328 27.9615Z" fill="#263238"/>
<path d="M86.6362 29.3174L85.6154 29.1391C85.6154 29.1391 86.1987 29.8683 86.6362 29.3174Z" fill="#263238"/>
<path d="M72.8515 63.2443C72.8191 66.334 66.2671 67.9166 64.8843 79.5623C63.5015 91.208 78.3881 101.763 88.1109 97.9545C97.8336 94.1464 89.7313 73.6476 89.7313 73.6476C89.7313 73.6476 72.8948 58.572 72.8515 63.2443Z" fill="#80CBC4"/>
<path d="M72.9164 54.3588C72.8191 58.2263 71.3445 58.7934 70.9556 62.0722C70.5667 65.3509 74.7367 68.3163 77.486 67.2468C80.2354 66.1773 77.9452 60.4139 77.9452 60.4139C77.9452 60.4139 72.9488 53.0462 72.9164 54.3588Z" fill="#80CBC4"/>
<path d="M72.171 68.6026L69.7457 67.3981L68.5303 71.9678C69.6528 71.8104 70.7244 71.3984 71.6632 70.7632L72.171 68.6026Z" fill="#FFBE9D"/>
<path d="M67.45 69.1482L66.5048 72.0164L68.5465 71.9678L69.7619 67.3981L67.45 69.1482Z" fill="#FFBE9D"/>
<path d="M97.3204 47.6123C97.6474 47.4707 98 47.3982 98.3562 47.3993C98.7125 47.4004 99.0646 47.475 99.3907 47.6185C99.7167 47.762 100.01 47.9713 100.251 48.2333C100.492 48.4952 100.677 48.8042 100.794 49.1409C101.085 50.0105 101.366 50.8856 101.62 51.766C102.117 53.5269 102.538 55.3148 102.868 57.1298C103.207 58.9575 103.429 60.8049 103.532 62.6609C103.57 63.1255 103.565 63.6008 103.586 64.0707C103.608 64.5406 103.586 65.0106 103.586 65.4859C103.586 65.9613 103.586 66.4096 103.543 66.9335L103.467 67.7708L103.327 68.5756C102.883 70.5925 102.103 72.5207 101.02 74.2796C100.011 75.91 98.8678 77.453 97.6013 78.8925C96.3536 80.3131 95.041 81.6365 93.6852 82.9058C92.3069 84.1624 90.8646 85.3469 89.364 86.4546L87.6949 84.4615C88.8995 83.2407 90.1364 81.939 91.2653 80.6048C92.3943 79.2706 93.5124 77.931 94.5063 76.532C95.4962 75.1707 96.3827 73.737 97.1584 72.2432C97.5201 71.5428 97.8393 70.8213 98.1145 70.0826C98.3557 69.3883 98.5365 68.6745 98.6546 67.949L98.7195 67.4413V66.9497C98.7195 66.5878 98.7194 66.1395 98.687 65.7398C98.6546 65.3401 98.687 64.989 98.6276 64.6163C98.5682 64.2436 98.5682 63.7196 98.5034 63.2713C98.3251 61.6184 98.0064 59.9764 97.677 58.3289C97.3475 56.6814 96.9045 55.0556 96.413 53.4675C96.1807 52.6573 95.9269 51.8471 95.6622 51.053V51.0098C95.4431 50.3902 95.468 49.7105 95.7318 49.1085C95.9957 48.5066 96.4787 48.0277 97.0828 47.7689L97.3204 47.6123Z" fill="#FFBE9D"/>
<path d="M103.516 57.0434C103.192 55.2717 102.771 53.446 102.252 51.6094C102.004 50.7614 101.534 49.6919 101.172 48.7358C100.973 48.1152 100.569 47.5808 100.026 47.2205C99.4832 46.8601 98.8337 46.6954 98.1847 46.7535C97.7957 46.774 97.4134 46.8637 97.0558 47.0181L96.8397 47.1154C96.0823 47.442 95.478 48.0451 95.1498 48.8018C94.8216 49.5586 94.7943 50.412 95.0734 51.1881C95.3597 52.0416 95.6136 52.8086 95.8242 53.581C96.3644 55.3689 96.7695 56.9461 97.072 58.41C97.3853 59.998 97.7094 61.6509 97.8876 63.3145C97.9254 63.563 97.9416 63.8115 97.9578 64.0599C97.974 64.3084 97.9902 64.4435 98.0118 64.6379C98.0497 65.0052 98.0605 65.3833 98.0659 65.7182V66.1719C98.0659 66.4258 98.0659 66.6851 98.0659 66.8904V67.3225L98.0065 67.8086C97.8922 68.4934 97.7205 69.1674 97.4933 69.8234C97.2322 70.5469 96.9236 71.2524 96.5696 71.9354L101.55 74.5929C102.674 72.7843 103.487 70.7995 103.954 68.7215L104.099 67.8626L104.175 67.0092C104.175 66.6527 104.175 66.3394 104.207 66.0207V65.5508C104.207 65.0106 104.207 64.5137 104.207 64.0816C104.207 63.9249 104.207 63.7683 104.207 63.6062C104.207 63.2875 104.207 62.9634 104.164 62.6664C104.067 60.7802 103.851 58.9021 103.516 57.0434Z" fill="#80CBC4"/>
<path d="M81.2455 87.2163L84.0219 90.1655L87.4087 88.4802L84.5404 83.9484L81.2455 87.2163Z" fill="#FFBE9D"/>
<path d="M89.1912 83.3704L84.5458 83.9483L87.414 88.4802C87.414 88.4802 89.942 86.9732 90.628 84.9098L89.1912 83.3704Z" fill="#FFBE9D"/>
</g>
<defs>
<clipPath id="clip0_84_943">
<rect width="110.554" height="112" fill="white" transform="translate(0.445496)"/>
</clipPath>
</defs>
</svg>
