<svg width="240" height="225" viewBox="0 0 240 225" fill="none" xmlns="http://www.w3.org/2000/svg">
<path d="M195.796 21.0104L198.256 18.376L203.314 22.575L212.637 12.9674L215.091 15.4368L203.119 27.4988L195.796 21.0104Z" fill="#E0E0E0"/>
<path d="M225.659 20.3855C225.659 20.3855 225.659 20.2756 225.634 20.0606C225.609 19.8457 225.599 19.5258 225.569 19.1159C225.569 18.9059 225.544 18.676 225.529 18.421C225.514 18.1661 225.449 17.8862 225.404 17.5862C225.359 17.2863 225.304 16.9614 225.249 16.6165C225.182 16.2505 225.095 15.8883 224.989 15.5317C224.525 13.6668 223.78 11.8834 222.779 10.2431C221.473 8.05907 219.759 6.14652 217.731 4.60948L216.871 3.97464C216.571 3.77469 216.256 3.59473 215.941 3.39978C215.626 3.20483 215.316 2.99488 214.971 2.83992L213.941 2.34004L213.417 2.09511L212.867 1.89516L211.752 1.48526C211.372 1.36029 210.977 1.28031 210.582 1.17534C210.189 1.05954 209.788 0.969372 209.383 0.905404C208.557 0.750108 207.722 0.653225 206.883 0.615476C206.453 0.615476 206.023 0.555491 205.589 0.565489L204.279 0.630472C204.059 0.630472 203.834 0.630472 203.614 0.675461L202.954 0.775436C202.514 0.850418 202.064 0.900405 201.62 0.995382C199.804 1.40577 198.048 2.04752 196.396 2.9049C195.976 3.12985 195.576 3.40478 195.161 3.63972C194.951 3.75908 194.748 3.88922 194.551 4.02962L193.966 4.46451C193.177 5.05238 192.425 5.69019 191.717 6.37404C191.02 7.09671 190.372 7.86488 189.778 8.67346L189.323 9.28331L188.923 9.93315L188.523 10.588L188.323 10.9179L188.158 11.2628L187.483 12.6675L186.943 14.1321C186.3 16.1533 185.963 18.2595 185.944 20.3805C185.963 22.5032 186.3 24.6111 186.943 26.634L187.483 28.1036C187.708 28.5685 187.933 29.0334 188.153 29.4983L188.323 29.8432L188.523 30.1731L188.923 30.8329L189.323 31.4828L189.778 32.0926C190.372 32.8996 191.02 33.6661 191.717 34.387C192.424 35.0739 193.175 35.7134 193.966 36.3016L194.546 36.7365C194.741 36.8814 194.956 36.9964 195.161 37.1213C195.576 37.3713 195.976 37.6212 196.396 37.8612C197.231 38.297 198.094 38.676 198.98 38.9959C199.842 39.3134 200.723 39.5723 201.62 39.7707C202.064 39.8657 202.514 39.9157 202.954 39.9906L203.614 40.0906C203.839 40.1206 204.059 40.1206 204.279 40.1356L205.589 40.2006C206.023 40.2006 206.453 40.1656 206.883 40.1506C207.722 40.1129 208.557 40.016 209.383 39.8607C209.789 39.7962 210.192 39.706 210.587 39.5907C210.977 39.4858 211.372 39.4008 211.752 39.2758L212.872 38.8709L213.422 38.671L213.922 38.421L214.976 37.9312C215.321 37.7762 215.626 37.5562 215.946 37.3763C216.266 37.1963 216.576 37.0014 216.881 36.8014L217.736 36.1616C219.766 34.6289 221.48 32.7175 222.784 30.533C223.779 28.89 224.517 27.1049 224.974 25.2393C225.079 24.8826 225.166 24.5205 225.234 24.1546C225.289 23.8097 225.339 23.4848 225.389 23.1848C225.439 22.8849 225.489 22.605 225.514 22.35C225.539 22.0951 225.544 21.8502 225.554 21.6552C225.584 21.2453 225.604 20.9304 225.619 20.7055C225.634 20.4805 225.644 20.3855 225.644 20.3855C225.644 20.3855 225.644 20.4955 225.644 20.7105C225.644 20.9254 225.644 21.2453 225.609 21.6552L225.579 22.355C225.579 22.615 225.504 22.8899 225.464 23.1948C225.424 23.4998 225.374 23.8247 225.324 24.1946C225.274 24.5645 225.159 24.9044 225.074 25.2893C224.622 27.1699 223.885 28.9703 222.889 30.628C221.587 32.8378 219.869 34.7746 217.831 36.3316L216.976 36.9314C216.671 37.1364 216.351 37.3163 216.036 37.5163C215.721 37.7162 215.406 37.9262 215.061 38.0811L214.021 38.581L213.492 38.8309C213.312 38.9009 213.127 38.9709 212.937 39.0359L211.812 39.4508C211.427 39.5807 211.027 39.6607 210.632 39.7707C210.234 39.8898 209.828 39.9833 209.418 40.0506C208.582 40.2071 207.737 40.3073 206.888 40.3505C206.453 40.3505 206.018 40.4105 205.579 40.4005L204.254 40.3355C204.029 40.3355 203.804 40.3355 203.584 40.2956L202.914 40.1956C202.464 40.1206 202.014 40.0706 201.565 39.9756C200.655 39.7773 199.759 39.5167 198.885 39.1958C197.989 38.8748 197.115 38.4923 196.271 38.0511C195.846 37.8212 195.436 37.5512 195.021 37.3063C194.811 37.1763 194.596 37.0664 194.396 36.9164L193.807 36.4765C193.006 35.8818 192.244 35.2356 191.527 34.542C190.819 33.8134 190.163 33.0367 189.563 32.2176L189.098 31.6027L188.693 30.9429L188.288 30.2781L188.088 29.9431L187.918 29.5932C187.688 29.1234 187.463 28.6485 187.233 28.1786C187.003 27.7087 186.873 27.1788 186.688 26.679C186.028 24.6316 185.679 22.4966 185.654 20.3455C185.68 18.1961 186.028 16.0629 186.688 14.0171L187.233 12.5175C187.463 12.0426 187.693 11.5727 187.918 11.1029L188.088 10.7479L188.293 10.418L188.698 9.75319L189.098 9.09336L189.563 8.47351C190.165 7.6557 190.823 6.8807 191.532 6.15409C192.246 5.45935 193.006 4.81307 193.807 4.21958L194.401 3.77969C194.596 3.62972 194.816 3.51975 195.021 3.38978C195.441 3.13985 195.846 2.88991 196.271 2.64497C197.114 2.20175 197.988 1.81921 198.885 1.50026C199.759 1.17938 200.655 0.918833 201.565 0.72045C202.014 0.625473 202.464 0.575487 202.914 0.500505L203.579 0.40053C203.804 0.370538 204.029 0.375536 204.254 0.36054L205.579 0.290558C206.018 0.290558 206.453 0.330547 206.883 0.345543C207.734 0.388592 208.581 0.488793 209.418 0.645469C209.828 0.712767 210.234 0.806268 210.632 0.925398C211.027 1.03537 211.427 1.11535 211.812 1.24532L212.937 1.66022L213.492 1.86017L214.021 2.1151L215.061 2.61498C215.406 2.77494 215.711 2.99988 216.036 3.18483C216.361 3.36979 216.671 3.56474 216.976 3.76469L217.836 4.41453C219.877 5.97015 221.596 7.90716 222.899 10.1181C223.896 11.7754 224.633 13.5759 225.084 15.4568C225.169 15.8417 225.294 16.1966 225.334 16.5515C225.374 16.9064 225.429 17.2213 225.474 17.5512C225.519 17.8812 225.564 18.1311 225.589 18.386C225.614 18.641 225.589 18.8859 225.619 19.0859C225.619 19.5008 225.644 19.8157 225.654 20.0356C225.664 20.2556 225.659 20.3855 225.659 20.3855Z" fill="#E0E0E0"/>
<path d="M188.853 40.3205C188.828 40.3205 188.828 40.1156 188.728 39.7707C188.587 39.2853 188.29 38.8599 187.883 38.561C187.557 38.3126 187.168 38.1602 186.76 38.1211C186.352 38.082 185.941 38.1577 185.574 38.3396C185.207 38.5215 184.897 38.8025 184.681 39.1507C184.465 39.499 184.351 39.9007 184.351 40.3105C184.351 40.7204 184.465 41.1221 184.681 41.4704C184.897 41.8186 185.207 42.0996 185.574 42.2815C185.941 42.4634 186.352 42.5391 186.76 42.5C187.168 42.4608 187.557 42.3085 187.883 42.0601C188.29 41.7609 188.587 41.3357 188.728 40.8504C188.828 40.5005 188.828 40.2956 188.853 40.2956C188.862 40.3451 188.862 40.396 188.853 40.4455C188.858 40.5899 188.845 40.7345 188.813 40.8754C188.706 41.4112 188.412 41.8914 187.983 42.2301C187.665 42.4797 187.29 42.645 186.891 42.7106C186.493 42.7761 186.084 42.7398 185.703 42.605C185.233 42.4363 184.827 42.1266 184.54 41.7181C184.252 41.3097 184.098 40.8225 184.098 40.323C184.098 39.8236 184.252 39.3364 184.54 38.928C184.827 38.5195 185.233 38.2098 185.703 38.0411C186.085 37.9083 186.495 37.8745 186.893 37.9426C187.292 38.0108 187.667 38.1788 187.983 38.431C188.409 38.7644 188.704 39.2368 188.818 39.7657C188.85 39.9049 188.863 40.0478 188.858 40.1906C188.863 40.2339 188.862 40.2778 188.853 40.3205Z" fill="#E0E0E0"/>
<path d="M14.2514 129.913H0V144.165H14.2514V129.913Z" fill="#F5F5F5"/>
<path d="M14.2514 145.679H0V159.931H14.2514V145.679Z" fill="#F5F5F5"/>
<path d="M14.2514 161.44H0V175.692H14.2514V161.44Z" fill="#F5F5F5"/>
<path d="M30.3723 129.913H16.1208V144.165H30.3723V129.913Z" fill="#F5F5F5"/>
<path d="M30.3723 145.679H16.1208V159.931H30.3723V145.679Z" fill="#F5F5F5"/>
<path d="M30.3723 161.44H16.1208V175.692H30.3723V161.44Z" fill="#F5F5F5"/>
<path d="M46.4983 129.913H32.2468V144.165H46.4983V129.913Z" fill="#F5F5F5"/>
<path d="M46.4983 145.679H32.2468V159.931H46.4983V145.679Z" fill="#F5F5F5"/>
<path d="M46.4983 161.44H32.2468V175.692H46.4983V161.44Z" fill="#F5F5F5"/>
<path d="M62.6242 129.913H48.3728V144.165H62.6242V129.913Z" fill="#F5F5F5"/>
<path d="M62.6242 145.679H48.3728V159.931H62.6242V145.679Z" fill="#F5F5F5"/>
<path d="M62.6242 161.44H48.3728V175.692H62.6242V161.44Z" fill="#F5F5F5"/>
<path d="M78.7502 129.913H64.4988V144.165H78.7502V129.913Z" fill="#F5F5F5"/>
<path d="M78.7502 145.679H64.4988V159.931H78.7502V145.679Z" fill="#F5F5F5"/>
<path d="M78.7502 161.44H64.4988V175.692H78.7502V161.44Z" fill="#F5F5F5"/>
<path d="M94.8762 129.913H80.6248V144.165H94.8762V129.913Z" fill="#F5F5F5"/>
<path d="M94.8762 145.679H80.6248V159.931H94.8762V145.679Z" fill="#F5F5F5"/>
<path d="M94.8762 161.44H80.6248V175.692H94.8762V161.44Z" fill="#F5F5F5"/>
<path d="M110.997 129.913H96.7458V144.165H110.997V129.913Z" fill="#F5F5F5"/>
<path d="M110.997 145.679H96.7458V159.931H110.997V145.679Z" fill="#F5F5F5"/>
<path d="M110.997 161.44H96.7458V175.692H110.997V161.44Z" fill="#F5F5F5"/>
<path d="M127.123 129.913H112.872V144.165H127.123V129.913Z" fill="#F5F5F5"/>
<path d="M127.123 145.679H112.872V159.931H127.123V145.679Z" fill="#F5F5F5"/>
<path d="M127.123 161.44H112.872V175.692H127.123V161.44Z" fill="#F5F5F5"/>
<path d="M143.249 129.913H128.998V144.165H143.249V129.913Z" fill="#F5F5F5"/>
<path d="M143.249 145.679H128.998V159.931H143.249V145.679Z" fill="#F5F5F5"/>
<path d="M143.249 161.44H128.998V175.692H143.249V161.44Z" fill="#F5F5F5"/>
<path d="M159.375 129.913H145.124V144.165H159.375V129.913Z" fill="#F5F5F5"/>
<path d="M159.375 145.679H145.124V159.931H159.375V145.679Z" fill="#F5F5F5"/>
<path d="M159.375 161.44H145.124V175.692H159.375V161.44Z" fill="#F5F5F5"/>
<path d="M175.501 129.913H161.25V144.165H175.501V129.913Z" fill="#F5F5F5"/>
<path d="M175.501 145.679H161.25V159.931H175.501V145.679Z" fill="#F5F5F5"/>
<path d="M175.501 161.44H161.25V175.692H175.501V161.44Z" fill="#F5F5F5"/>
<path d="M191.627 129.913H177.376V144.165H191.627V129.913Z" fill="#F5F5F5"/>
<path d="M191.627 145.679H177.376V159.931H191.627V145.679Z" fill="#F5F5F5"/>
<path d="M191.627 161.44H177.376V175.692H191.627V161.44Z" fill="#F5F5F5"/>
<path d="M207.748 129.913H193.497V144.165H207.748V129.913Z" fill="#F5F5F5"/>
<path d="M207.748 145.679H193.497V159.931H207.748V145.679Z" fill="#F5F5F5"/>
<path d="M207.748 161.44H193.497V175.692H207.748V161.44Z" fill="#F5F5F5"/>
<path d="M223.874 129.913H209.623V144.165H223.874V129.913Z" fill="#F5F5F5"/>
<path d="M223.874 145.679H209.623V159.931H223.874V145.679Z" fill="#F5F5F5"/>
<path d="M223.874 161.44H209.623V175.692H223.874V161.44Z" fill="#F5F5F5"/>
<path d="M240 129.913H225.749V144.165H240V129.913Z" fill="#F5F5F5"/>
<path d="M240 145.679H225.749V159.931H240V145.679Z" fill="#F5F5F5"/>
<path d="M240 161.44H225.749V175.692H240V161.44Z" fill="#F5F5F5"/>
<path d="M126.468 25.0444C126.468 25.0444 121.525 25.8342 118.84 34.542C116.156 43.2498 113.422 57.0364 113.517 57.7262C113.742 59.4058 115.326 59.5757 116.626 60.7604C117.391 61.4653 117.546 61.2603 117.021 64.0946C116.551 66.649 110.177 88.3935 108.873 92.8324C108.844 92.9327 108.836 93.0378 108.85 93.1412C108.864 93.2446 108.899 93.344 108.954 93.4329C109.009 93.5218 109.081 93.5984 109.167 93.6576C109.253 93.7169 109.35 93.7577 109.453 93.7772L114.861 94.7769C114.96 94.7963 115.061 94.7954 115.159 94.7744C115.257 94.7533 115.35 94.7126 115.432 94.6546C115.513 94.5967 115.583 94.5227 115.635 94.4371C115.687 94.3516 115.722 94.2563 115.736 94.1571L120.885 59.7657C120.885 59.7657 127.573 27.3238 127.598 26.7739C127.623 26.2241 127.913 25.0794 126.468 25.0444Z" fill="#E0E0E0"/>
<path d="M27.3981 98.706C26.0284 97.6812 25.5335 93.9921 23.669 91.5778C21.8045 89.1634 9.75748 82.3201 8.85271 81.8152C8.61149 81.659 8.32334 81.5918 8.03791 81.6252C7.9894 81.6355 7.94486 81.6595 7.90953 81.6943C7.8742 81.7291 7.84956 81.7733 7.83853 81.8216C7.82749 81.87 7.83052 81.9205 7.84724 81.9672C7.86397 82.0139 7.89371 82.0548 7.93294 82.0851L18.4303 89.9232C18.5197 89.9866 18.5841 90.0792 18.6124 90.1851C18.6407 90.291 18.6311 90.4035 18.5853 90.503C18.5548 90.5606 18.5122 90.6111 18.4606 90.6508C18.4089 90.6906 18.3493 90.7187 18.2857 90.7334C18.2222 90.7481 18.1563 90.749 18.0924 90.736C18.0285 90.723 17.9681 90.6964 17.9154 90.658L7.31309 83.1299C7.20239 83.0477 7.06357 83.0128 6.92717 83.033C6.79077 83.0531 6.66797 83.1266 6.58577 83.2373C6.50358 83.348 6.46872 83.4869 6.48888 83.6233C6.50903 83.7597 6.58255 83.8825 6.69325 83.9647L17.0257 91.8727C17.1142 91.9368 17.1776 92.0298 17.205 92.1356C17.2324 92.2415 17.222 92.3535 17.1756 92.4525C17.1458 92.5108 17.1035 92.5618 17.0519 92.6021C17.0003 92.6423 16.9405 92.6708 16.8767 92.6856C16.8129 92.7003 16.7467 92.701 16.6826 92.6875C16.6186 92.674 16.5582 92.6467 16.5058 92.6075L5.91344 85.0394C5.79678 84.9545 5.65118 84.9195 5.50869 84.942C5.3662 84.9645 5.23848 85.0427 5.15363 85.1594C5.06878 85.276 5.03376 85.4216 5.05625 85.5641C5.07875 85.7066 5.15693 85.8343 5.2736 85.9192L15.526 93.8222C15.6154 93.8857 15.6794 93.9787 15.7068 94.0847C15.7343 94.1908 15.7234 94.3032 15.676 94.402C15.6461 94.4603 15.6039 94.5113 15.5523 94.5516C15.5006 94.5918 15.4409 94.6203 15.3771 94.6351C15.3133 94.6498 15.2471 94.6505 15.183 94.637C15.1189 94.6235 15.0586 94.5962 15.0062 94.557L4.4738 86.709C4.43043 86.677 4.37875 86.6582 4.32498 86.6549C4.27121 86.6516 4.21762 86.6639 4.17065 86.6903C4.12368 86.7167 4.08533 86.7561 4.06018 86.8037C4.03504 86.8513 4.02418 86.9052 4.02891 86.9589C4.07556 87.2479 4.22459 87.5105 4.44881 87.6987C5.18862 88.4235 15.1911 98.0061 18.0354 99.1059C20.8797 100.206 24.5638 99.6057 25.9334 100.64C27.1881 101.57 53.0866 122.19 57.5905 125.779C57.6779 125.848 57.7781 125.898 57.8852 125.927C57.9923 125.956 58.1042 125.964 58.2142 125.949C58.3242 125.934 58.4301 125.897 58.5256 125.84C58.6211 125.784 58.7043 125.709 58.7702 125.619L60.8747 122.79C60.9422 122.701 60.9911 122.6 61.0181 122.492C61.0452 122.384 61.05 122.272 61.0323 122.162C61.0145 122.052 60.9745 121.947 60.9148 121.853C60.855 121.759 60.7767 121.678 60.6847 121.615C55.9409 118.351 28.6478 99.6357 27.3981 98.706Z" fill="#E0E0E0"/>
<path d="M228.473 224.579C228.473 224.649 179.485 224.709 119.03 224.709C58.5754 224.709 9.55762 224.649 9.55762 224.579C9.55762 224.51 58.5454 224.45 119.03 224.45C179.515 224.45 228.473 224.505 228.473 224.579Z" fill="#263238"/>
<path d="M56.7557 200.196C56.9031 199.239 56.8598 198.263 56.6284 197.324C56.3969 196.384 55.9818 195.5 55.4071 194.722C54.8323 193.944 54.1092 193.287 53.2794 192.789C52.4496 192.292 51.5295 191.963 50.5722 191.823C50.4037 191.785 50.2272 191.806 50.0724 191.883C49.982 191.973 49.9166 192.086 49.8824 192.21C49.8483 192.333 49.8465 192.463 49.8774 192.587C50.0539 194.446 50.8131 196.201 52.0465 197.602C53.28 199.004 54.9246 199.98 56.7457 200.391" fill="#455A64"/>
<path d="M46.4783 213.727C48.3279 217.541 50.9772 220.106 54.2814 220.226C54.9362 220.251 55.4361 219.816 56.0659 219.781C56.4339 219.863 56.7888 219.996 57.1207 220.176C57.2925 220.252 57.4775 220.295 57.6655 220.301C61.0697 220.121 63.969 217.726 65.9235 213.722C68.6428 208.119 67.803 202.095 64.0489 200.266C63.5571 200.019 63.0433 199.818 62.5143 199.666C61.9058 199.499 61.2755 199.425 60.6448 199.446C59.1813 199.539 57.742 199.865 56.3808 200.411L56.1959 200.476C53.1467 199.131 50.6973 199.121 48.3429 200.266C44.5888 202.1 43.754 208.124 46.4783 213.727Z" fill="#EC407A"/>
<path d="M46.5435 208.049C46.3665 207.698 46.2612 207.316 46.2335 206.924C46.1228 205.976 46.2376 205.015 46.5686 204.119C46.8995 203.223 47.4373 202.419 48.1381 201.77C48.414 201.489 48.7438 201.266 49.1078 201.115C49.1078 201.155 48.7579 201.395 48.263 201.9C47.6263 202.561 47.1333 203.346 46.815 204.206C46.4967 205.066 46.36 205.983 46.4135 206.899C46.4635 207.609 46.5884 208.034 46.5435 208.049Z" fill="#FAFAFA"/>
<path d="M47.2332 210.713C47.1632 210.713 47.0432 210.463 46.9632 210.123C46.8833 209.783 46.8783 209.488 46.9632 209.473C47.0482 209.458 47.1532 209.723 47.2332 210.063C47.3132 210.403 47.3032 210.698 47.2332 210.713Z" fill="#FAFAFA"/>
<path d="M64.5139 191.028C64.5139 191.073 63.8091 191.343 62.7493 191.978C62.1319 192.349 61.5437 192.767 60.9898 193.227C60.3201 193.801 59.6997 194.43 59.1352 195.107C58.5735 195.792 58.0717 196.525 57.6356 197.296C57.2926 197.931 56.9985 198.591 56.7558 199.271C56.3459 200.431 56.226 201.195 56.176 201.185C56.1684 201.004 56.1869 200.822 56.231 200.645C56.2595 200.435 56.3013 200.226 56.3559 200.021C56.4209 199.781 56.4759 199.521 56.5809 199.211C56.8049 198.513 57.0875 197.836 57.4257 197.186C58.2633 195.59 59.4163 194.18 60.8148 193.042C61.3838 192.581 61.9927 192.171 62.6344 191.818C62.8766 191.676 63.1269 191.549 63.3842 191.438C63.5736 191.342 63.7689 191.259 63.969 191.188C64.1418 191.108 64.3254 191.054 64.5139 191.028Z" fill="#263238"/>
<path d="M28.3328 215.847V216.556L37.4655 220.815C37.4655 220.815 38.2153 223.075 44.8686 223.19C51.522 223.305 67.533 223.32 67.533 223.32C67.533 223.32 71.9369 223.415 74.7811 220.925L83.509 216.686L83.394 215.797L28.3328 215.847Z" fill="#E0E0E0"/>
<path d="M66.8832 223.245H45.5085V224.19H66.8832V223.245Z" fill="#E0E0E0"/>
<path d="M74.9312 220.885H74.8363H74.5513L73.4616 220.915L69.4626 220.99C66.0685 221.04 61.3846 221.095 56.2159 221.1C51.0472 221.105 46.3534 221.07 42.9642 220.985C41.2697 220.945 39.9 220.905 38.9652 220.855L37.8755 220.805H37.5906H37.4956H37.8755L38.9702 220.83C39.915 220.865 41.2847 220.885 42.9692 220.915C46.3584 220.97 51.0422 220.995 56.2209 220.985C61.3996 220.975 66.0735 220.945 69.4626 220.92L73.4616 220.89H74.9312V220.885Z" fill="#263238"/>
<path d="M66.3835 223.245C66.3835 223.285 61.6396 223.32 55.7961 223.32C49.9526 223.32 45.2087 223.285 45.2087 223.245C45.2087 223.205 49.9476 223.175 55.7961 223.175C61.6446 223.175 66.3835 223.205 66.3835 223.245Z" fill="#263238"/>
<path d="M83.3241 216.686C83.3241 216.726 70.9971 216.756 55.7959 216.756C40.5947 216.756 28.2678 216.726 28.2678 216.686C28.2678 216.646 40.5897 216.616 55.7959 216.616C71.0021 216.616 83.3241 216.646 83.3241 216.686Z" fill="#263238"/>
<path d="M100.965 62.715C100.852 69.4371 98.7486 75.9749 94.9201 81.5015C91.0917 87.0281 85.7103 91.2953 79.4566 93.7634C73.203 96.2315 66.3578 96.7897 59.7869 95.3673C53.2159 93.945 47.2144 90.606 42.5411 85.7727C37.8679 80.9394 34.7329 74.8287 33.5327 68.2136C32.3324 61.5985 33.1208 54.7761 35.7981 48.609C38.4754 42.442 42.9213 37.2074 48.5737 33.5672C54.2261 29.9271 60.831 28.0448 67.5532 28.1586C76.5661 28.3111 85.1493 32.0373 91.4151 38.5178C97.6808 44.9982 101.116 53.702 100.965 62.715Z" fill="#EC407A"/>
<g opacity="0.3">
<path d="M100.965 62.715C100.852 69.4371 98.7486 75.9749 94.9201 81.5015C91.0917 87.0281 85.7103 91.2953 79.4566 93.7634C73.203 96.2315 66.3578 96.7897 59.7869 95.3673C53.2159 93.945 47.2144 90.606 42.5411 85.7727C37.8679 80.9394 34.7329 74.8287 33.5327 68.2136C32.3324 61.5985 33.1208 54.7761 35.7981 48.609C38.4754 42.442 42.9213 37.2074 48.5737 33.5672C54.2261 29.9271 60.831 28.0448 67.5532 28.1586C76.5661 28.3111 85.1493 32.0373 91.4151 38.5178C97.6808 44.9982 101.116 53.702 100.965 62.715Z" fill="black"/>
</g>
<path d="M88.6353 85.2569C102.002 71.8907 102.002 50.2197 88.6353 36.8534C75.269 23.4872 53.598 23.4872 40.2318 36.8534C26.8655 50.2197 26.8655 71.8907 40.2318 85.2569C53.598 98.6232 75.269 98.6232 88.6353 85.2569Z" fill="#EC407A"/>
<path d="M91.8737 74.5426C99.3204 59.3888 93.0726 41.0675 77.9188 33.6207C62.765 26.174 44.4437 32.4218 36.9969 47.5756C29.5502 62.7294 35.798 81.0507 50.9518 88.4975C66.1056 95.9442 84.4269 89.6964 91.8737 74.5426Z" fill="white"/>
<path d="M95.0062 61.5703C95.0062 61.5703 95.0062 61.4003 95.0062 61.0704C95.0062 60.7405 95.0062 60.2556 94.9612 59.6157C94.7416 55.2519 93.5888 50.9859 91.5805 47.1055C89.5722 43.2251 86.755 39.8205 83.3191 37.1214C79.5857 34.1851 75.2169 32.1634 70.5623 31.2178C66.6251 30.4213 62.5703 30.4009 58.6253 31.1579C57.2329 31.4316 55.8603 31.7973 54.5163 32.2526C48.6152 34.3021 43.4859 38.1147 39.8223 43.1745C36.1587 48.2344 34.1376 54.2974 34.0324 60.5434C33.9272 66.7894 35.7428 72.9171 39.2339 78.0975C42.7249 83.2779 47.7228 87.2611 53.5515 89.5083C54.8734 90.0045 56.2259 90.4153 57.6005 90.738C58.942 91.0454 60.3033 91.2592 61.6745 91.3778C64.2972 91.6205 66.9404 91.5214 69.5375 91.0829C74.2157 90.2811 78.642 88.3982 82.4643 85.5843C88.0348 81.4992 92.0602 75.6505 93.8864 68.9884C94.3735 67.1882 94.6981 65.348 94.8562 63.4898C94.9262 62.8549 94.9212 62.3651 94.9512 62.0401C94.9812 61.7152 94.9812 61.5403 94.9812 61.5403C94.9812 61.5403 94.9812 62.2151 94.9062 63.4898C94.7708 65.3476 94.4612 67.1885 93.9814 68.9884C92.1898 75.6964 88.1664 81.594 82.5743 85.7092C78.733 88.5424 74.2821 90.4374 69.5775 91.2428C66.9632 91.6931 64.3013 91.799 61.6595 91.5578C60.2787 91.4367 58.9076 91.2229 57.5555 90.9179C56.1685 90.5966 54.8042 90.1841 53.4715 89.6832C47.582 87.4324 42.5282 83.4229 38.9969 78.1995C35.4657 72.9762 33.6281 66.7923 33.7341 60.4881C33.84 54.184 35.8842 48.0653 39.589 42.9636C43.2938 37.8618 48.4794 34.0244 54.4413 31.9727C55.7974 31.5384 57.1799 31.1912 58.5803 30.9329C62.911 30.0925 67.3723 30.1978 71.6585 31.2418C75.9448 32.2857 79.9548 34.2436 83.4141 36.9814C86.4939 39.4243 89.0795 42.4323 91.0322 45.8442C93.448 50.0489 94.8114 54.7753 95.0062 59.6207C95.0361 60.9254 95.0062 61.5703 95.0062 61.5703Z" fill="#263238"/>
<path d="M50.2975 101.97L51.9371 92.4175L57.3007 94.3671L53.2218 102.915C53.0718 103.234 52.8167 103.493 52.4991 103.646C52.1815 103.8 51.8208 103.84 51.4772 103.76C51.0879 103.671 50.7478 103.435 50.5281 103.102C50.3083 102.768 50.2257 102.363 50.2975 101.97Z" fill="#EC407A"/>
<path d="M97.3807 88.9834L91.937 80.9854L87.863 84.9844L95.1012 91.0629C95.3717 91.2893 95.7113 91.4167 96.064 91.4239C96.4166 91.4312 96.7612 91.3179 97.0407 91.1029C97.3611 90.8626 97.5756 90.5073 97.639 90.1118C97.7024 89.7164 97.6098 89.3118 97.3807 88.9834Z" fill="#EC407A"/>
<path d="M54.7753 22.3612L53.2466 22.8488L55.4248 29.678L56.9535 29.1904L54.7753 22.3612Z" fill="#EC407A"/>
<path d="M54.5993 19.557L51.7608 20.4618C51.2005 20.6404 50.8911 21.2394 51.0697 21.7996L51.308 22.5474C51.4866 23.1076 52.0856 23.417 52.6459 23.2385L55.4844 22.3336C56.0447 22.1551 56.3541 21.5561 56.1755 20.9958L55.9371 20.2481C55.7585 19.6878 55.1596 19.3784 54.5993 19.557Z" fill="#EC407A"/>
<path d="M63.8089 53.9721C63.444 52.8574 64.6337 50.593 64.5487 48.5035C64.4637 46.414 60.4297 37.8062 60.1248 37.1613C60.0491 36.9784 59.9134 36.8268 59.7399 36.7315C59.711 36.7222 59.6801 36.7207 59.6504 36.727C59.6207 36.7333 59.5932 36.7472 59.5705 36.7674C59.5478 36.7875 59.5307 36.8133 59.521 36.842C59.5112 36.8708 59.5092 36.9016 59.5149 36.9314L62.2993 45.4943C62.3232 45.5653 62.3218 45.6424 62.2954 45.7126C62.269 45.7827 62.2191 45.8416 62.1543 45.8792C62.1142 45.9003 62.07 45.9124 62.0247 45.9146C61.9795 45.9168 61.9343 45.9091 61.8923 45.8919C61.8504 45.8747 61.8127 45.8486 61.782 45.8153C61.7512 45.782 61.7282 45.7424 61.7144 45.6992L58.7551 37.2713C58.7253 37.1818 58.6611 37.1079 58.5768 37.0657C58.4924 37.0235 58.3947 37.0165 58.3052 37.0464C58.2158 37.0762 58.1418 37.1404 58.0996 37.2247C58.0574 37.3091 58.0505 37.4068 58.0803 37.4963L60.7096 45.9941C60.7346 46.0651 60.7337 46.1426 60.7072 46.213C60.6807 46.2834 60.6302 46.3422 60.5647 46.379C60.525 46.4002 60.4811 46.4123 60.4361 46.4145C60.3912 46.4166 60.3464 46.4088 60.3048 46.3916C60.2632 46.3744 60.226 46.3483 60.1957 46.315C60.1655 46.2817 60.1429 46.2421 60.1298 46.1991L57.2155 37.7712C57.1788 37.6867 57.1118 37.6189 57.0277 37.5812C56.9436 37.5435 56.8484 37.5385 56.7608 37.5673C56.6733 37.5961 56.5996 37.6565 56.5543 37.7367C56.5089 37.817 56.4952 37.9113 56.5157 38.0011L59.125 46.499C59.149 46.57 59.1476 46.6472 59.1212 46.7173C59.0948 46.7875 59.0449 46.8463 58.9801 46.8839C58.94 46.9051 58.8958 46.9172 58.8505 46.9194C58.8052 46.9216 58.7601 46.9138 58.7181 46.8967C58.6762 46.8795 58.6385 46.8533 58.6078 46.8201C58.577 46.7868 58.554 46.7471 58.5402 46.704L55.7559 38.1361C55.7444 38.1013 55.723 38.0706 55.6944 38.0477C55.6658 38.0248 55.6312 38.0106 55.5948 38.0069C55.5583 38.0032 55.5216 38.0101 55.4889 38.0269C55.4563 38.0436 55.4293 38.0694 55.411 38.1011C55.3215 38.2808 55.3002 38.4868 55.351 38.681C55.481 39.3758 57.2755 48.7085 58.4352 50.453C59.5949 52.1976 61.8844 53.3273 62.2493 54.452C62.5792 55.4518 68.9026 77.2863 70.0023 81.0754C70.0234 81.1484 70.0589 81.2164 70.1069 81.2754C70.1549 81.3343 70.2142 81.383 70.2814 81.4184C70.3486 81.4539 70.4223 81.4755 70.498 81.4818C70.5737 81.4881 70.65 81.4791 70.7221 81.4553L73.0216 80.7105C73.0945 80.6875 73.1621 80.6499 73.2201 80.6C73.2781 80.5501 73.3254 80.4889 73.359 80.4202C73.3927 80.3515 73.412 80.2766 73.4159 80.2002C73.4197 80.1238 73.408 80.0474 73.3815 79.9756C72.0118 76.2866 64.1388 54.9869 63.8089 53.9721Z" fill="#E0E0E0"/>
<path d="M82.8741 39.8457C82.8741 39.8457 79.7549 38.9609 75.8009 43.3448C71.8469 47.7287 66.4882 55.0469 66.3533 55.4867C66.0233 56.5365 66.9081 57.0664 67.353 58.1211C67.6129 58.7409 67.7629 58.651 66.6732 60.1806C65.6984 61.5502 56.0258 72.5675 54.0513 74.8169C54.0096 74.8688 53.9786 74.9285 53.9603 74.9925C53.9419 75.0565 53.9365 75.1236 53.9445 75.1897C53.9524 75.2558 53.9734 75.3197 54.0064 75.3776C54.0393 75.4355 54.0835 75.4862 54.1363 75.5267L57.0306 77.5962C57.1386 77.6685 57.2705 77.6959 57.3983 77.6725C57.5262 77.6492 57.6399 77.577 57.7154 77.4713L70.1173 58.7009C70.1173 58.7009 82.8991 41.5002 83.0691 41.1703C83.239 40.8404 83.7089 40.2606 82.8741 39.8457Z" fill="#E0E0E0"/>
<path d="M75.5862 11.0729C76.058 10.2433 76.7913 9.59346 77.6715 9.22473C78.5517 8.85601 79.5293 8.78919 80.4515 9.03473C81.3737 9.28027 82.1886 9.82433 82.7689 10.5819C83.3492 11.3395 83.6623 12.268 83.6592 13.2223L75.5862 11.0729Z" fill="#EC407A"/>
<path d="M59.7949 19.9356C59.7949 19.9356 66.0134 7.57373 80.0799 11.5227C94.1463 15.4718 93.3715 28.8984 93.3715 28.8984L59.7949 19.9356Z" fill="#EC407A"/>
<path d="M93.6165 29.0784C93.1166 30.8629 85.1736 30.2781 75.8359 27.7687C66.4983 25.2593 59.315 21.7702 59.7949 19.9906C60.2748 18.2111 68.2328 18.7909 77.5755 21.3003C86.9182 23.8097 94.0964 27.2938 93.6165 29.0784Z" fill="#263238"/>
<path d="M74.9411 20.6355L73.1316 28.4385L77.6155 29.3633L79.625 21.8802L74.9411 20.6355Z" fill="#EC407A"/>
<g opacity="0.3">
<path d="M59.8002 20.3705C59.8002 20.3705 68.353 21.0004 71.1324 21.5253C73.9117 22.0501 83.4793 24.5245 86.5735 25.7692C89.6677 27.0139 92.8169 29.7682 92.8169 29.7682L93.6167 29.0834C93.6167 29.0834 93.9316 28.1586 92.0521 27.0389C85.5118 23.424 78.3924 20.9747 71.0124 19.8007C60.3151 18.1611 59.8302 19.5058 59.7102 20.1806" fill="black"/>
</g>
<path d="M85.8535 14.0471C85.8285 14.0871 85.2786 13.6822 84.3289 13.1523C83.0904 12.464 81.7837 11.9061 80.4299 11.4878C79.0774 11.0631 77.6766 10.8112 76.2609 10.7379C75.1762 10.693 74.5013 10.7979 74.4963 10.7379C74.6459 10.6822 74.8022 10.6469 74.9612 10.633C75.1465 10.6021 75.3335 10.582 75.5211 10.573C75.7686 10.5494 76.0173 10.5394 76.2659 10.543C77.7068 10.5669 79.1365 10.801 80.5098 11.2378C81.8833 11.6595 83.1995 12.2488 84.4289 12.9924C84.8036 13.2167 85.1641 13.4637 85.5086 13.7322C85.6364 13.8221 85.7523 13.928 85.8535 14.0471Z" fill="#263238"/>
<g opacity="0.3">
<path d="M76.6108 11.3428C73.9211 11.1177 71.2189 11.5918 68.7665 12.719C66.3141 13.8462 64.1948 15.5883 62.6143 17.7762L66.5433 18.2011C68.4328 14.367 72.3318 11.5277 76.6108 11.3428Z" fill="white"/>
</g>
<g opacity="0.3">
<path d="M80.8446 9.89815C80.2431 9.69375 79.6099 9.59894 78.975 9.61823C78.348 9.7219 77.745 9.9387 77.1955 10.2581C77.1705 10.2581 77.3104 10.0481 77.6104 9.83817C78.0101 9.57053 78.4699 9.40584 78.9486 9.35875C79.4274 9.31165 79.9104 9.38362 80.3547 9.56824C80.6896 9.7182 80.8596 9.86816 80.8446 9.89815Z" fill="white"/>
</g>
<g opacity="0.3">
<path d="M33.8065 72.8624C33.7562 72.7714 33.7144 72.6761 33.6815 72.5775L33.3666 71.7427C33.1931 71.3061 33.0429 70.8606 32.9167 70.408C32.7667 69.8782 32.5568 69.2833 32.4168 68.6035C32.2769 67.9237 32.0769 67.1888 31.9519 66.384C31.827 65.5792 31.702 64.7145 31.602 63.7997C31.4364 61.8153 31.4364 59.8206 31.602 57.8362C31.7892 55.852 32.1437 53.8871 32.6618 51.9626C32.9167 51.0829 33.1616 50.2431 33.4516 49.4633C33.7415 48.6835 34.0214 47.9936 34.2964 47.3538C34.5713 46.714 34.8612 46.1641 35.1012 45.6692C35.3411 45.1743 35.576 44.7594 35.776 44.4295L36.2359 43.6597C36.2848 43.5698 36.3417 43.4845 36.4058 43.4048C36.376 43.5045 36.334 43.6002 36.2809 43.6897L35.866 44.4745C35.681 44.8144 35.4561 45.2293 35.2311 45.7342C35.0062 46.2391 34.7312 46.7839 34.4663 47.4288C34.2014 48.0736 33.9065 48.7634 33.6565 49.5333C33.4066 50.3031 33.1566 51.1279 32.8917 52.0326C31.8643 55.8597 31.5158 59.8373 31.862 63.7847C31.9569 64.6895 32.0369 65.5543 32.1869 66.3491C32.3368 67.1439 32.4668 67.8937 32.6168 68.5635C32.7667 69.2333 32.9367 69.8382 33.0767 70.368C33.2166 70.8979 33.3566 71.3678 33.4816 71.7177L33.7515 72.5625C33.7828 72.6596 33.8013 72.7605 33.8065 72.8624Z" fill="white"/>
</g>
<path d="M80.6648 30.9329C80.557 30.9034 80.453 30.8615 80.3549 30.8079L79.5101 30.373L78.8953 30.0731L78.1404 29.7532L77.2757 29.3883L76.2759 29.0284C72.6452 27.7404 68.8387 27.0155 64.9887 26.8789C63.9891 26.8367 62.988 26.8468 61.9895 26.9089C60.236 26.9643 58.4941 27.2141 56.7958 27.6537C55.4307 27.9796 54.0855 28.3835 52.7668 28.8634C51.8753 29.1733 51.001 29.5304 50.1474 29.9331C49.5576 30.2181 49.2427 30.393 49.2327 30.373C49.3005 30.3169 49.3743 30.2683 49.4526 30.2281C49.5976 30.1381 49.8125 30.0031 50.1074 29.8532C50.9351 29.4141 51.79 29.0284 52.6668 28.6984C53.9858 28.1941 55.3347 27.7718 56.7058 27.4338C57.4856 27.2338 58.3187 27.0672 59.2052 26.9339C60.1152 26.7765 61.0361 26.6896 61.9595 26.674C62.9762 26.607 63.9958 26.5953 65.0137 26.639C68.8881 26.7719 72.7159 27.5263 76.3509 28.8734L77.3506 29.2533L78.2154 29.6432L78.9602 29.9781C79.1902 30.0931 79.3901 30.2081 79.5751 30.303L80.4099 30.7579C80.4988 30.8103 80.584 30.8688 80.6648 30.9329Z" fill="#263238"/>
<path d="M55.2761 22.595C54.9413 22.837 54.5601 23.0071 54.1564 23.0949C53.7794 23.2575 53.3721 23.3376 52.9617 23.3298C53.2957 23.0864 53.6772 22.9161 54.0814 22.8299C54.4583 22.6674 54.8657 22.5872 55.2761 22.595Z" fill="#263238"/>
<path d="M22.6141 30.433C22.1075 29.629 21.8799 28.6804 21.9665 27.734C22.0531 26.7876 22.4491 25.8961 23.0932 25.1973C23.7373 24.4985 24.5937 24.0314 25.53 23.8683C26.4662 23.7051 27.4302 23.8549 28.2727 24.2946L22.6141 30.433Z" fill="#EC407A"/>
<path d="M23.1391 48.5535C23.1391 48.5535 15.0561 37.3113 25.1036 26.674C35.1511 16.0366 46.6632 22.9849 46.6632 22.9849L23.1391 48.5535Z" fill="#EC407A"/>
<path d="M46.8083 22.9899C48.1679 24.2446 43.974 30.9879 37.4456 38.0511C30.9172 45.1144 24.5238 49.8282 23.1692 48.5735C21.8145 47.3188 26.0234 40.5755 32.5218 33.5123C39.0202 26.449 45.4536 21.7352 46.8083 22.9899Z" fill="#263238"/>
<path d="M30.7825 35.4618L36.846 40.6905L39.7552 37.1514L34.0617 31.8927L30.7825 35.4618Z" fill="#EC407A"/>
<g opacity="0.3">
<path d="M23.5241 48.7435C23.5241 48.7435 28.0579 41.4603 29.8125 39.2458C31.5671 37.0314 38.2054 29.7082 40.7498 27.5488C43.2941 25.3893 47.0882 23.7697 47.0882 23.7697L46.9932 23.2198L46.8532 23.0099C46.8532 23.0099 46.1884 22.2651 44.0489 23.5548C42.1794 24.6795 34.6413 29.8582 28.2229 38.551C21.8045 47.2438 22.7643 48.3186 23.3041 48.7335" fill="black"/>
</g>
<path d="M30.0225 22.735C30.0225 22.7749 29.4327 23.0749 28.5229 23.6697C27.3362 24.4459 26.2339 25.3439 25.2337 26.3491C24.2284 27.3485 23.3548 28.4723 22.6344 29.6932C22.0895 30.633 21.8646 31.2728 21.8196 31.2578C21.8414 31.0998 21.8834 30.9453 21.9445 30.7979C22.0026 30.6273 22.0711 30.4604 22.1495 30.2981C22.2445 30.0694 22.3513 29.8458 22.4694 29.6282C23.1559 28.3631 24.025 27.2059 25.0488 26.1941C26.0594 25.1732 27.1928 24.2816 28.4229 23.5398C28.7938 23.3109 29.1796 23.1072 29.5776 22.9299C29.7164 22.8449 29.866 22.7794 30.0225 22.735Z" fill="#263238"/>
<path d="M42.4543 34.572C42.4543 34.607 41.8994 35.0719 41.0046 35.9217C39.8444 37.001 38.7557 38.1549 37.7454 39.3758C36.7397 40.6008 35.8416 41.9103 35.0611 43.2898C34.4613 44.3495 34.1613 45.0444 34.1213 45.0244C34.1583 44.8517 34.2153 44.6839 34.2913 44.5245C34.4688 44.074 34.6707 43.6334 34.8961 43.2048C35.6393 41.7842 36.5271 40.4441 37.5455 39.2058C38.5612 37.9719 39.6781 36.8248 40.8847 35.7767C41.3445 35.3768 41.7344 35.0669 42.0094 34.8669C42.1438 34.7492 42.2934 34.65 42.4543 34.572Z" fill="#263238"/>
<g opacity="0.3">
<path d="M23.7791 29.0684C22.3278 31.3468 21.4901 33.9617 21.3473 36.6593C21.2046 39.3569 21.7616 42.0456 22.9643 44.4645L25.1687 41.1803C22.6544 37.7162 21.9545 32.9324 23.7791 29.0684Z" fill="white"/>
</g>
<g opacity="0.3">
<path d="M23.8339 25.0944C23.3747 25.5334 22.9957 26.0494 22.7142 26.619C22.5176 27.2236 22.4296 27.8582 22.4543 28.4935C22.4243 28.4935 22.3243 28.2986 22.2793 27.9337C22.2268 27.4548 22.2938 26.9703 22.4744 26.5237C22.655 26.077 22.9435 25.6821 23.3141 25.3743C23.599 25.1493 23.8139 25.0694 23.8339 25.0944Z" fill="white"/>
</g>
<path d="M90.9422 64.3595C90.2274 64.2696 89.6625 64.0896 89.6775 63.9597C89.6925 63.8297 90.2874 63.7797 91.0022 63.8497C91.717 63.9197 92.2819 64.1046 92.2669 64.2546C92.2519 64.4045 91.657 64.4495 90.9422 64.3595Z" fill="#263238"/>
<path d="M80.8446 82.1351C80.3997 81.5652 80.1298 81.0404 80.2348 80.9554C80.3398 80.8704 80.7896 81.2603 81.2345 81.8152C81.6794 82.37 81.9594 82.8999 81.8444 82.9949C81.7294 83.0899 81.2845 82.7 80.8446 82.1351Z" fill="#263238"/>
<path d="M61.1297 87.5637C61.2196 86.8489 61.3996 86.2841 61.5346 86.2991C61.6695 86.3141 61.7145 86.9039 61.6395 87.6187C61.5646 88.3336 61.3846 88.8984 61.2346 88.8834C61.0847 88.8684 61.0397 88.2736 61.1297 87.5637Z" fill="#263238"/>
<path d="M43.359 77.4613C43.9239 77.0214 44.4537 76.7465 44.5337 76.8514C44.6137 76.9564 44.2338 77.4063 43.6739 77.8512C43.1141 78.2961 42.5892 78.576 42.4942 78.461C42.3993 78.3461 42.7892 77.9212 43.359 77.4613Z" fill="#263238"/>
<path d="M37.9307 57.7512C38.6455 57.8412 39.2104 58.0211 39.1954 58.1511C39.1804 58.2811 38.5855 58.331 37.8707 58.2561C37.1559 58.1811 36.591 58.0011 36.606 57.8562C36.621 57.7112 37.2159 57.6612 37.9307 57.7512Z" fill="#263238"/>
<path d="M48.018 39.9756C48.4629 40.5455 48.7329 41.0704 48.6279 41.1553C48.5229 41.2403 48.073 40.8504 47.6281 40.2956C47.1833 39.7407 46.9033 39.2058 47.0183 39.1159C47.1333 39.0259 47.5882 39.4308 48.018 39.9756Z" fill="#263238"/>
<path d="M67.743 34.547C67.653 35.2618 67.4731 35.8267 67.3381 35.8117C67.2031 35.7967 67.1582 35.2068 67.2331 34.492C67.3081 33.7772 67.4881 33.2073 67.638 33.2273C67.788 33.2473 67.833 33.8372 67.743 34.547Z" fill="#263238"/>
<path d="M85.5086 44.6495C84.9437 45.0894 84.4138 45.3593 84.3339 45.2593C84.2539 45.1594 84.6338 44.6995 85.1937 44.2596C85.7535 43.8197 86.2784 43.5298 86.3734 43.6497C86.4683 43.7697 86.0834 44.2096 85.5086 44.6495Z" fill="#263238"/>
<path d="M22.0845 20.1756C22.0431 20.2483 21.9927 20.3154 21.9346 20.3755L21.4647 20.9354C21.212 21.2097 20.9734 21.4967 20.7499 21.7952C20.4849 22.1451 20.155 22.525 19.8601 22.9849L19.3602 23.6997C19.1953 23.9497 19.0453 24.2246 18.8603 24.4995C18.5104 25.0494 18.2155 25.6742 17.8606 26.3191C17.1922 27.7475 16.6535 29.2331 16.251 30.758C15.8919 32.2932 15.6694 33.8573 15.5862 35.4318C15.5862 36.1566 15.5312 36.8464 15.5862 37.4963C15.5862 37.8162 15.5862 38.1311 15.6261 38.431C15.6661 38.731 15.6861 39.0159 15.7111 39.2908C15.7511 39.8407 15.8561 40.3256 15.9211 40.7605C15.974 41.1308 16.0474 41.498 16.141 41.8602L16.291 42.555C16.3141 42.6363 16.3259 42.7204 16.326 42.8049C16.2858 42.7314 16.2571 42.6522 16.241 42.57L16.041 41.8852C15.9296 41.5246 15.8411 41.1572 15.7761 40.7854C15.6689 40.2901 15.5871 39.7896 15.5312 39.2858C15.4962 39.0109 15.4612 38.721 15.4262 38.421C15.3912 38.1211 15.3862 37.8062 15.3662 37.4763C15.3162 36.8264 15.3662 36.1266 15.3662 35.3918C15.435 33.803 15.656 32.2245 16.026 30.678C16.4346 29.1302 16.9868 27.6241 17.6756 26.1791C18.0155 25.5293 18.3255 24.9044 18.6754 24.3546C18.8453 24.0796 19.0003 23.8047 19.1753 23.5548L19.6751 22.8449C19.9851 22.385 20.325 22.0101 20.5999 21.6702C20.8353 21.3762 21.0873 21.0958 21.3547 20.8304C21.5597 20.6305 21.7246 20.4605 21.8546 20.3306C21.9241 20.269 22.0014 20.2169 22.0845 20.1756Z" fill="#263238"/>
<path d="M14.3564 27.7487C14.4264 27.7837 13.9465 28.7984 13.5666 30.1131C13.1867 31.4278 13.0667 32.5425 12.9667 32.5375C12.9179 31.6895 13.0368 30.8401 13.3167 30.0381C13.5115 29.2148 13.8646 28.4372 14.3564 27.7487Z" fill="#263238"/>
<path d="M98.8253 24.8194C98.7384 24.5675 98.6748 24.3082 98.6354 24.0446C98.5854 23.7947 98.5254 23.4898 98.4254 23.1399C98.3255 22.7899 98.2455 22.385 98.1005 21.9501C97.9556 21.5153 97.8206 21.0404 97.6006 20.5405C97.3807 20.0406 97.1907 19.5108 96.9508 18.9609C96.3988 17.7757 95.7571 16.6343 95.0313 15.5467C94.2897 14.4726 93.4693 13.455 92.5769 12.5025C92.147 12.0776 91.7521 11.6627 91.3472 11.3128C90.9423 10.9629 90.5674 10.633 90.2125 10.348C89.8576 10.0631 89.5227 9.84817 89.2127 9.60323C88.9028 9.3583 88.6629 9.21333 88.4479 9.07337C88.2175 8.94052 88 8.78657 87.7981 8.61348C88.0404 8.72082 88.2743 8.84614 88.4979 8.98839C88.7714 9.14095 89.0367 9.30781 89.2927 9.48826C89.5926 9.69821 89.9476 9.91815 90.2925 10.2081C90.6374 10.498 91.0573 10.7929 91.4572 11.1578C91.8571 11.5228 92.277 11.9177 92.7119 12.3425C93.6272 13.2941 94.4631 14.3189 95.2112 15.4068C95.9425 16.5066 96.5844 17.6634 97.1308 18.8659C97.3657 19.4258 97.6006 19.9556 97.7656 20.4705C97.9306 20.9854 98.0955 21.4703 98.2155 21.9052C98.3355 22.34 98.4304 22.7549 98.5104 23.1099C98.5904 23.4648 98.6404 23.7797 98.6754 24.0346C98.7462 24.2918 98.7964 24.5542 98.8253 24.8194Z" fill="#263238"/>
<path d="M99.1403 19.5607C98.9979 18.8386 98.8007 18.1284 98.5505 17.4363C98.2193 16.7746 97.84 16.138 97.4158 15.5318C98.0482 15.9781 98.5281 16.608 98.7904 17.3363C99.1304 18.025 99.2525 18.8009 99.1403 19.5607Z" fill="#263238"/>
<path d="M46.1085 94.487C46.0118 94.4712 45.9177 94.4426 45.8285 94.4021L45.0337 94.1121C44.6151 93.9678 44.2046 93.8009 43.804 93.6123C43.3292 93.3923 42.8043 93.1624 42.2094 92.8374L41.3047 92.3376C40.9898 92.1676 40.6798 91.9577 40.3499 91.7577C39.6851 91.3628 39.0202 90.8729 38.3104 90.3731C35.2724 88.1197 32.6705 85.3315 30.6323 82.1451C30.1825 81.4003 29.7376 80.7055 29.3926 80.0107C29.2127 79.6707 29.0277 79.3458 28.8928 79.0109C28.7578 78.676 28.6028 78.3711 28.4629 78.0711C28.178 77.4813 27.988 76.9164 27.798 76.4316C27.6327 76.0178 27.4892 75.5957 27.3682 75.1669L27.1282 74.3521C27.0986 74.2591 27.0768 74.1638 27.0632 74.0671C27.1146 74.151 27.1534 74.2419 27.1782 74.3371L27.4631 75.1319C27.5781 75.4818 27.7281 75.9017 27.933 76.3766C28.138 76.8514 28.3379 77.4113 28.6328 77.9962C28.7728 78.2911 28.9178 78.601 29.0727 78.9209C29.2277 79.2408 29.4176 79.5608 29.5976 79.9207C29.9475 80.6005 30.3974 81.2903 30.8473 82.0252C31.8776 83.577 33.0275 85.0461 34.2864 86.4191C35.5743 87.7774 36.9684 89.0311 38.4554 90.1681C39.1552 90.668 39.81 91.1679 40.4549 91.5628C40.7798 91.7677 41.0847 91.9777 41.3947 92.1576L42.2894 92.6575C42.8493 92.9924 43.3892 93.2324 43.854 93.4673C44.3189 93.7022 44.7238 93.8822 45.0637 94.0222L45.8335 94.3621C45.9291 94.3946 46.0212 94.4364 46.1085 94.487Z" fill="#263238"/>
<path d="M34.7213 92.4825C33.6481 91.6078 32.6298 90.668 31.672 89.6682C30.6544 88.7289 29.6961 87.7272 28.8027 86.669C29.8785 87.5406 30.897 88.4807 31.852 89.4833C32.8696 90.4226 33.8279 91.4243 34.7213 92.4825Z" fill="#263238"/>
<path d="M101.505 46.304C101.565 46.3934 101.615 46.4889 101.655 46.589L102.035 47.4288C102.204 47.7937 102.399 48.2436 102.589 48.7784C102.779 49.3133 103.034 49.9131 103.234 50.598L103.574 51.6727C103.689 52.0476 103.779 52.4425 103.889 52.8524C104.119 53.6622 104.284 54.547 104.474 55.4768C105.22 59.5291 105.328 63.673 104.794 67.7587C104.649 68.6935 104.529 69.5882 104.344 70.408C104.254 70.8229 104.189 71.2228 104.089 71.6027C103.989 71.9826 103.899 72.3425 103.809 72.6924C103.644 73.3873 103.429 74.0021 103.259 74.542C103.089 75.0819 102.924 75.5417 102.759 75.9166L102.424 76.7764C102.389 76.8774 102.344 76.9746 102.289 77.0664C102.305 76.96 102.334 76.856 102.374 76.7564L102.664 75.8867C102.799 75.5067 102.954 75.0469 103.104 74.502C103.254 73.9571 103.464 73.3423 103.604 72.6425C103.689 72.2976 103.779 71.9326 103.869 71.5577C103.959 71.1828 104.024 70.7779 104.109 70.368C104.284 69.5482 104.394 68.6585 104.529 67.7287C104.771 65.6987 104.871 63.6542 104.829 61.6102C104.764 59.5674 104.558 57.5314 104.214 55.5167C104.029 54.592 103.874 53.7122 103.654 52.9024C103.549 52.4975 103.464 52.1026 103.354 51.7277C103.244 51.3528 103.139 50.9979 103.034 50.653C102.844 49.9681 102.609 49.3633 102.429 48.8284C102.249 48.2936 102.07 47.8287 101.93 47.4688C101.79 47.1088 101.685 46.8339 101.595 46.614C101.552 46.5148 101.522 46.4107 101.505 46.304Z" fill="#263238"/>
<path d="M107.503 54.8569C107.58 55.0254 107.634 55.2037 107.663 55.3868C107.748 55.7267 107.853 56.2316 107.958 56.8514C108.5 60.1157 108.491 63.4475 107.933 66.709C107.828 67.3338 107.723 67.8337 107.633 68.1786C107.599 68.3588 107.545 68.5348 107.473 68.7035C107.428 68.7035 107.583 67.9287 107.753 66.704C107.975 65.0786 108.09 63.4405 108.098 61.8002C108.099 60.162 107.992 58.5255 107.778 56.9014C107.593 55.6317 107.443 54.8669 107.503 54.8569Z" fill="#263238"/>
<path d="M49.9726 24.2746C49.9726 24.2746 49.7226 24.1296 49.4727 23.7497C49.1612 23.2492 49.016 22.6631 49.0578 22.0751C49.0972 21.4848 49.3211 20.9218 49.6977 20.4655C49.9826 20.1256 50.2325 19.9656 50.2525 20.0156C50.2725 20.0656 50.0776 20.2256 49.8426 20.5755C49.5307 21.0231 49.3468 21.5473 49.3107 22.0916C49.2746 22.636 49.3876 23.1798 49.6377 23.6647C49.8276 24.0396 50.0176 24.2446 49.9726 24.2746Z" fill="#263238"/>
<path d="M57.3858 23.2898C57.5536 22.7472 57.6576 22.1869 57.6958 21.6202C57.651 21.0516 57.542 20.4898 57.3708 19.9456C57.4008 19.9456 57.5408 20.0806 57.6808 20.3755C57.8635 20.7632 57.9575 21.1867 57.9557 21.6152C57.9632 22.0449 57.8726 22.4706 57.6908 22.8599C57.5508 23.1598 57.4108 23.3098 57.3858 23.2898Z" fill="#263238"/>
<path d="M40.9899 25.6592C40.8254 25.8283 40.6445 25.9806 40.45 26.1141C40.0951 26.389 39.5852 26.7989 38.9504 27.3138C37.3383 28.6616 35.7983 30.0932 34.3366 31.6027C32.622 33.3673 31.1574 35.0519 30.1076 36.2816L28.8729 37.7412C28.7236 37.9243 28.5561 38.0917 28.373 38.2411C28.4864 38.0344 28.6186 37.8386 28.7679 37.6562C29.0379 37.2963 29.4378 36.7764 29.9427 36.1566C30.9424 34.8969 32.402 33.1873 34.1266 31.4178C35.5917 29.8974 37.1564 28.4762 38.8104 27.1638C39.4503 26.664 39.9752 26.2741 40.3501 26.0241C40.5509 25.8819 40.7652 25.7597 40.9899 25.6592Z" fill="#263238"/>
<path d="M85.6886 23.9597C85.5167 23.932 85.3488 23.8833 85.1887 23.8147L83.8291 23.3498C82.6743 22.9499 81.0847 22.415 79.3302 21.8802C77.5756 21.3453 75.926 20.9304 74.7363 20.6605C73.5466 20.3905 72.8168 20.2456 72.8218 20.2056C72.9994 20.1933 73.1779 20.2067 73.3517 20.2456C73.6916 20.2856 74.1765 20.3655 74.7763 20.4805C75.976 20.7055 77.6206 21.1004 79.4002 21.6302C81.1797 22.1601 82.7743 22.735 83.899 23.1748C84.4689 23.3948 84.9238 23.5847 85.2387 23.7197C85.3967 23.7835 85.5476 23.864 85.6886 23.9597Z" fill="#263238"/>
<path d="M164.959 118.816C168.523 101.06 173.378 83.588 179.485 66.539L190.088 52.9574C194.651 51.7477 199.67 53.7622 202.859 57.2413C206.049 60.7204 207.603 65.4393 208.118 70.1331C208.633 74.8269 208.203 79.5607 207.888 84.2746C207.178 95.0019 207.083 105.924 203.914 116.197C202.674 120.226 200.765 124.355 197.186 126.579C193.372 128.948 188.518 128.648 184.079 127.994C178.752 127.208 173.491 126.019 168.343 124.44C167.083 124.055 165.714 123.55 165.079 122.395C164.489 121.325 164.719 120.016 164.959 118.816Z" fill="#263238"/>
<path d="M164.324 38.1161C171.112 37.4063 176.851 40.3705 182.274 44.5195C187.698 48.6685 191.597 54.657 193.652 61.1703C195.816 68.0236 195.966 75.5967 193.527 82.3601C191.087 89.1234 185.978 94.9919 179.37 97.8562C170.372 101.735 159.275 99.4708 151.837 93.0624C144.399 86.654 140.555 76.5665 140.81 66.7739C140.985 60.0106 143.039 53.2123 147.168 47.8537C151.297 42.495 157.581 38.696 164.324 38.1411" fill="#263238"/>
<path d="M181.984 62.1851C181.17 59.5508 181.734 56.6865 181.519 53.9571C181.05 47.9037 176.521 42.7899 171.087 40.0906C166.028 37.5912 159.645 37.6512 153.252 39.2708C148.873 40.3855 144.679 42.545 141.589 45.8492C139.555 48.0677 138.081 50.7409 137.291 53.6454C136.5 56.5499 136.416 59.6014 137.046 62.545L168.013 60.0456C170.732 62.61 173.511 65.2143 176.921 66.7639C177.897 67.2724 178.989 67.5187 180.09 67.4788C180.636 67.4462 181.162 67.258 181.605 66.9365C182.047 66.615 182.389 66.1735 182.589 65.6642C182.929 64.5145 182.314 63.3248 181.984 62.1851Z" fill="#263238"/>
<path d="M147.273 130.718C147.273 130.718 149.093 110.013 149.088 110.063C149.083 110.113 138.215 107.974 136.311 93.6672C135.366 86.554 136.016 74.9469 136.851 65.4643C137.606 56.9314 143.534 46.584 152.032 47.7037L178.455 55.0969C179.701 55.2574 180.84 55.8809 181.647 56.8432C182.454 57.8055 182.869 59.0362 182.809 60.2906L178.255 111.718L176.661 132.772L147.273 130.718Z" fill="#FFBE9D"/>
<path d="M142.18 77.6762C142.163 78.1524 142.333 78.6163 142.653 78.9692C142.973 79.3221 143.419 79.5361 143.894 79.5658C144.126 79.5905 144.361 79.5685 144.584 79.501C144.807 79.4335 145.015 79.3218 145.194 79.1727C145.374 79.0235 145.522 78.8399 145.629 78.6327C145.736 78.4254 145.801 78.1988 145.819 77.9662C145.835 77.4899 145.665 77.0261 145.345 76.6732C145.025 76.3203 144.58 76.1063 144.104 76.0766C143.872 76.0519 143.637 76.0739 143.414 76.1414C143.191 76.2089 142.983 76.3206 142.804 76.4697C142.624 76.6188 142.477 76.8025 142.369 77.0097C142.262 77.217 142.198 77.4436 142.18 77.6762Z" fill="#263238"/>
<path d="M139.22 71.5727C139.44 71.8127 140.85 70.8279 142.819 70.8779C144.789 70.9279 146.199 71.9526 146.419 71.7177C146.528 71.6177 146.309 71.1778 145.689 70.718C144.854 70.1048 143.85 69.7659 142.814 69.7482C141.792 69.7177 140.786 70.0155 139.945 70.598C139.33 71.0379 139.11 71.4628 139.22 71.5727Z" fill="#263238"/>
<path d="M159.915 77.6762C159.898 78.1524 160.068 78.6163 160.388 78.9692C160.709 79.3221 161.154 79.5361 161.629 79.5657C161.862 79.5905 162.096 79.5685 162.319 79.501C162.543 79.4335 162.75 79.3218 162.93 79.1727C163.109 79.0235 163.257 78.8399 163.364 78.6327C163.471 78.4254 163.536 78.1988 163.554 77.9661C163.571 77.4907 163.401 77.0276 163.082 76.6748C162.763 76.3221 162.319 76.1075 161.844 76.0766C161.612 76.0518 161.377 76.0738 161.154 76.1413C160.93 76.2087 160.722 76.3203 160.542 76.4694C160.362 76.6185 160.214 76.8021 160.107 77.0093C159.999 77.2166 159.934 77.4434 159.915 77.6762Z" fill="#263238"/>
<path d="M158.136 71.3778C158.361 71.6227 159.77 70.633 161.735 70.688C163.699 70.7429 165.119 71.7627 165.334 71.5277C165.444 71.4228 165.224 70.9879 164.604 70.528C163.769 69.9166 162.765 69.5795 161.73 69.5632C160.708 69.5337 159.703 69.8295 158.86 70.408C158.246 70.8429 158.031 71.2678 158.136 71.3778Z" fill="#263238"/>
<path d="M151.037 86.8289C151.037 86.714 149.833 86.474 147.858 86.1691C147.358 86.1041 146.858 85.9942 146.808 85.6692C146.758 85.3443 146.923 84.7695 147.178 84.1696C147.678 82.9649 148.208 81.7052 148.763 80.3856C150.962 74.9919 152.567 70.553 152.347 70.468C152.127 70.3831 150.172 74.682 147.973 80.0706C147.443 81.4003 146.933 82.67 146.473 83.8797C146.268 84.4495 145.924 85.0894 146.164 85.8442C146.231 86.0232 146.339 86.1844 146.478 86.3152C146.618 86.4461 146.785 86.5432 146.968 86.599C147.244 86.6838 147.53 86.7309 147.818 86.739C149.788 86.9189 151.022 86.9189 151.037 86.8289Z" fill="#263238"/>
<path d="M149.088 110.063C155.795 110.335 162.445 108.739 168.298 105.454C168.298 105.454 162.88 115.907 148.653 114.217L149.088 110.063Z" fill="#EB996E"/>
<path d="M157.736 63.4248C157.916 63.9646 159.885 63.7597 162.184 64.0946C164.484 64.4295 166.333 65.0944 166.653 64.6345C166.793 64.4095 166.483 63.8997 165.744 63.3648C164.757 62.7029 163.632 62.2755 162.454 62.1152C161.277 61.9549 160.078 62.066 158.95 62.44C158.096 62.7799 157.656 63.1898 157.736 63.4248Z" fill="#263238"/>
<path d="M139.995 62.9849C140.33 63.4398 141.695 63.0149 143.324 63.0299C144.954 63.0449 146.323 63.4098 146.653 62.9499C146.798 62.7249 146.593 62.2751 145.999 61.8352C145.202 61.3081 144.267 61.0296 143.312 61.0349C142.357 61.0403 141.425 61.3292 140.635 61.8652C140.06 62.3101 139.86 62.7649 139.995 62.9849Z" fill="#263238"/>
<path d="M187.138 58.361C184.884 50.0231 173.471 38.1311 164.839 38.366L150.732 45.9991C151.077 48.3628 152.053 50.5897 153.557 52.4451C155.062 54.3005 157.039 55.7157 159.28 56.5415C161.679 57.3913 164.594 57.7212 165.948 59.8757C167.303 62.0301 166.328 65.1443 167.608 67.4038C169.373 70.538 174.581 70.623 175.866 73.9871C176.426 75.4518 176.021 77.1613 176.611 78.621C177.391 80.5655 182.109 83.1898 184.109 82.65C186.108 82.1101 186.288 78.706 187.018 76.9564C188.268 73.9571 187.878 72.3675 187.588 70.653C186.913 66.579 188.213 62.34 187.138 58.361Z" fill="#263238"/>
<path d="M178.17 84.0596C178.2 82.9999 179.49 80.5255 180.54 80.3905C183.349 80.0256 188.388 80.3905 188.253 87.4838C188.073 97.2013 178.355 95.0119 178.345 94.7369C178.335 94.462 178.07 87.7237 178.17 84.0596Z" fill="#FFBE9D"/>
<path d="M181.38 91.1079C181.425 91.0779 181.55 91.2328 181.835 91.3678C182.234 91.5482 182.687 91.5661 183.099 91.4178C184.129 91.0579 185.024 89.4483 185.099 87.6937C185.14 86.8619 184.993 86.0315 184.669 85.2643C184.584 84.9594 184.426 84.6796 184.209 84.4489C183.993 84.2182 183.723 84.0435 183.424 83.9397C183.232 83.8881 183.028 83.9042 182.846 83.9852C182.664 84.0662 182.515 84.2071 182.424 84.3845C182.29 84.6545 182.349 84.8494 182.295 84.8844C182.24 84.9194 182.09 84.7195 182.175 84.3196C182.235 84.0809 182.374 83.8696 182.569 83.7197C182.841 83.523 183.178 83.4405 183.509 83.4898C184.259 83.5547 184.919 84.2546 185.249 85.0294C185.649 85.8778 185.835 86.8117 185.789 87.7487C185.689 89.7032 184.654 91.5178 183.239 91.8977C182.977 91.9686 182.702 91.9798 182.435 91.9305C182.167 91.8811 181.914 91.7726 181.695 91.6127C181.395 91.3478 181.35 91.1279 181.38 91.1079Z" fill="#EB996E"/>
<path d="M153.737 43.2398C152.592 47.1288 146.268 51.8027 143.444 54.702C138.045 60.2406 136.946 62.1201 136.141 75.1968C134.061 70.523 132.527 65.9741 133.037 60.8804C133.547 55.7867 135.756 50.7979 139.535 47.3488C143.314 43.8997 148.723 42.1601 153.732 43.2148" fill="#263238"/>
<path d="M188.548 86.2641C188.921 85.9223 189.248 85.5342 189.523 85.1094C189.885 84.6469 190.219 84.1628 190.522 83.6597L191.682 81.6102C193.287 78.511 194.556 73.7122 194.476 68.3686C194.409 65.8593 194.075 63.3643 193.482 60.9254C192.972 58.9433 192.26 57.0187 191.357 55.1818C190.962 54.402 190.542 53.7272 190.182 53.1374C189.822 52.5475 189.428 52.0876 189.118 51.7127C188.8 51.3177 188.43 50.9679 188.018 50.673C187.893 50.7779 189.483 52.2676 190.867 55.4168C191.679 57.2477 192.323 59.1483 192.792 61.0954C193.337 63.4856 193.65 65.923 193.726 68.3735C193.796 73.5872 192.657 78.2661 191.227 81.3703L190.187 83.4348C189.892 84.0496 189.528 84.5145 189.293 84.9344C188.985 85.3417 188.734 85.7891 188.548 86.2641Z" fill="#455A64"/>
<path d="M157.171 91.3178C157.077 90.8725 156.908 90.4465 156.671 90.0581C156.552 89.8645 156.388 89.7037 156.191 89.5902C155.995 89.4767 155.773 89.4141 155.546 89.4083C155.218 89.4468 154.904 89.569 154.636 89.7632L150.992 91.9176L150.672 92.8074C151.399 93.942 152.348 94.918 153.462 95.6767C153.781 95.9306 154.169 96.0837 154.576 96.1166C155.093 96.0595 155.575 95.8266 155.941 95.4568C156.483 95.088 156.93 94.5965 157.246 94.0221C157.636 93.1923 157.406 92.2126 157.171 91.3178Z" fill="#EB996E"/>
<path d="M154.431 96.4165C154.391 96.3266 155.281 96.1766 156.206 95.2418C156.737 94.7002 157.102 94.0189 157.261 93.2773C157.435 92.3712 157.293 91.4329 156.861 90.618C156.748 90.4059 156.616 90.2051 156.466 90.0181C156.338 89.8437 156.178 89.6946 155.996 89.5783C155.923 89.53 155.839 89.5003 155.752 89.4916C155.665 89.4829 155.577 89.4955 155.496 89.5283C155.303 89.6138 155.117 89.7158 154.941 89.8332C154.171 90.3031 153.477 90.713 152.892 91.0579C151.717 91.7377 150.967 92.1326 150.932 92.0576C150.897 91.9827 151.572 91.4928 152.697 90.728C153.257 90.3481 153.931 89.9032 154.696 89.4133C154.898 89.2699 155.114 89.1476 155.341 89.0484C155.487 88.9917 155.643 88.9686 155.799 88.9807C155.955 88.9928 156.106 89.0398 156.241 89.1184C156.481 89.2646 156.691 89.4545 156.861 89.6782C157.034 89.8897 157.186 90.1173 157.316 90.3581C157.805 91.2771 157.949 92.3413 157.721 93.3573C157.53 94.1811 157.088 94.9252 156.456 95.4868C156.044 95.8623 155.556 96.1452 155.026 96.3166C154.656 96.4415 154.436 96.4415 154.431 96.4165Z" fill="#263238"/>
<path d="M206.158 224.46L199.055 206.169C199.055 206.169 199.555 187.289 201.29 178.676C203.024 170.063 199.15 122.155 199.15 122.155L177.895 116.457C177.895 116.457 172.732 125.184 163.364 124.32C152.367 123.32 148.528 116.457 148.528 116.457L135.426 118.571C135.426 118.571 127.273 147.699 123.774 154.507C120.275 161.315 120 182.295 120 182.295C120 182.295 123.789 194.027 124.724 197.951C124.86 198.519 124.813 199.116 124.589 199.656L115.781 224.46H206.158Z" fill="#EC407A"/>
<g opacity="0.3">
<path d="M190.602 176.616C190.797 179.231 190.252 183.275 190.742 185.849L194.961 186.754C196.563 183.648 197.622 180.29 198.09 176.826C198.09 176.826 190.542 175.897 190.602 176.616Z" fill="black"/>
</g>
<g opacity="0.3">
<path d="M184.619 193.212C184.057 192.6 183.348 192.143 182.559 191.883C181.714 191.764 180.853 191.867 180.06 192.183L167.638 195.927L158.78 193.632C160.534 197.102 163.431 199.862 166.982 201.444C170.534 203.027 174.522 203.336 178.275 202.32C179.805 201.905 181.375 201.265 182.919 201.605C184.379 201.925 185.499 203.04 186.638 204C190.137 206.939 195.441 207.109 199.985 207.499C195.636 201.79 189.877 198.111 184.619 193.212Z" fill="black"/>
</g>
<path d="M191.667 183.16L200.335 184.764L198.835 152.623L199.13 122.13C199.13 122.13 210.087 125.629 215.541 135.927C220.995 146.224 222.034 160.401 222.619 168.049C223.294 176.866 223.869 198.566 223.029 203.815C222.189 209.063 216.231 214.507 206.158 211.273C201.07 209.638 183.089 194.307 183.089 194.307L191.667 183.16Z" fill="#EC407A"/>
<path d="M135.426 118.556C135.426 118.556 117.221 121.975 113.522 129.138C109.823 136.302 92.2571 175.912 94.5265 187.319C96.7959 198.726 110.303 203.815 114.861 199.271C119.42 194.727 123.779 182.06 123.779 182.06L135.426 118.556Z" fill="#EC407A"/>
<path d="M202.205 209.143L202.105 209.083L201.82 208.883L200.74 208.094L196.741 205.094L183.009 194.842L182.909 194.762L182.989 194.662L187.743 188.663C189.283 186.734 190.777 184.859 192.202 183.065L192.252 183.005H192.332L199.72 184.619H199.675C201.971 184.303 204.309 184.494 206.524 185.179C208.235 185.697 209.849 186.492 211.302 187.534C212.238 188.203 213.097 188.974 213.862 189.833C214.132 190.128 214.307 190.378 214.437 190.538L214.577 190.723C214.593 190.743 214.608 190.765 214.621 190.788C214.621 190.788 214.621 190.788 214.562 190.733L214.407 190.563C214.272 190.408 214.082 190.168 213.812 189.883C211.81 187.761 209.279 186.212 206.479 185.394C204.289 184.739 201.983 184.568 199.72 184.894H199.68L192.287 183.305L192.412 183.26L187.958 188.858C186.309 190.933 184.704 192.947 183.194 194.857V194.682L196.851 205.024L200.82 208.064L201.88 208.888L202.15 209.103C202.18 209.113 202.21 209.138 202.205 209.143Z" fill="#263238"/>
<path d="M200.36 155.002C200.38 155.101 200.394 155.201 200.4 155.302C200.4 155.527 200.445 155.802 200.475 156.162C200.53 156.946 200.605 158.021 200.7 159.336C200.87 162.01 201.085 165.714 201.165 169.808C201.245 173.902 201.125 177.621 200.9 180.306C200.85 180.975 200.78 181.575 200.725 182.105C200.67 182.635 200.61 183.105 200.555 183.465L200.42 184.32C200.409 184.42 200.389 184.518 200.36 184.614C200.348 184.515 200.348 184.414 200.36 184.315C200.36 184.09 200.41 183.815 200.44 183.455C200.47 183.095 200.53 182.625 200.57 182.095C200.61 181.565 200.67 180.96 200.705 180.291C200.885 177.616 200.975 173.912 200.895 169.818C200.815 165.724 200.63 162.03 200.505 159.351C200.445 158.036 200.4 156.956 200.365 156.177C200.365 155.822 200.365 155.537 200.34 155.312C200.332 155.208 200.339 155.104 200.36 155.002Z" fill="#263238"/>
<path d="M123.324 144.979C123.33 145.026 123.33 145.073 123.324 145.119L123.224 145.519C123.119 145.884 122.984 146.394 122.804 147.019C122.624 147.644 122.394 148.484 122.154 149.423C121.914 150.363 121.614 151.423 121.345 152.627C120.661 155.408 120.126 158.223 119.74 161.06C119.65 161.865 119.525 162.685 119.455 163.525C119.385 164.365 119.33 165.229 119.265 166.104C119.2 166.979 119.22 167.879 119.2 168.783C119.18 169.688 119.24 170.613 119.255 171.543C119.429 175.051 119.845 178.544 120.5 181.995L121 184.305C121.155 185.054 121.305 185.804 121.5 186.479C121.864 187.869 122.154 189.178 122.499 190.353C122.844 191.528 123.134 192.592 123.404 193.527C123.674 194.462 123.939 195.252 124.144 195.912L124.604 197.411C124.649 197.571 124.684 197.701 124.714 197.801C124.73 197.846 124.74 197.893 124.744 197.941C124.722 197.899 124.704 197.856 124.689 197.811L124.554 197.426C124.429 197.066 124.259 196.567 124.054 195.927C123.849 195.287 123.554 194.477 123.274 193.557C122.994 192.637 122.679 191.558 122.334 190.388C121.989 189.218 121.669 187.889 121.3 186.514C121.105 185.819 120.955 185.089 120.8 184.34C120.645 183.59 120.47 182.84 120.3 182.025C119.626 178.572 119.198 175.076 119.02 171.563C119.02 170.623 118.955 169.698 118.965 168.788C118.975 167.879 119.01 166.979 119.035 166.099C119.06 165.219 119.17 164.355 119.235 163.505C119.3 162.655 119.435 161.84 119.53 161.035C119.926 158.191 120.48 155.37 121.19 152.587C121.475 151.398 121.779 150.328 122.039 149.393C122.299 148.459 122.539 147.649 122.734 146.994C122.929 146.339 123.084 145.849 123.199 145.494C123.249 145.334 123.289 145.204 123.324 145.104C123.32 145.063 123.32 145.021 123.324 144.979Z" fill="#263238"/>
<path d="M121.275 149.088C120.734 148.061 120.27 146.995 119.885 145.899C119.419 144.835 119.033 143.737 118.73 142.615C119.275 143.641 119.741 144.708 120.125 145.804C120.594 146.867 120.978 147.965 121.275 149.088Z" fill="#263238"/>
<path d="M203.814 147.199C203.291 148.566 202.686 149.902 202.004 151.198C201.4 152.533 200.717 153.832 199.96 155.087C200.483 153.719 201.088 152.384 201.77 151.088C202.374 149.752 203.057 148.454 203.814 147.199Z" fill="#263238"/>
<path d="M136.331 118.556L158.475 149.088L190.267 119.481L177.895 116.442H148.528L136.331 118.556Z" fill="#FFBE9D"/>
<g opacity="0.3">
<path d="M119.36 144.21C119.36 150.998 118.805 158.431 117.271 165.044L117.736 172.543C118.011 178.936 116.386 183.465 113.532 189.188C116.186 187.949 117.931 185.239 118.68 182.405C119.43 179.571 119.315 176.582 119.14 173.657C118.88 169.283 118.835 165.029 119.64 160.72C120.105 158.221 120.905 153.427 121.54 151.103C121.535 151.083 121.88 150.058 119.36 144.21Z" fill="black"/>
</g>
<g opacity="0.3">
<path d="M216.976 190.568C216.371 187.309 213.297 184.959 210.068 184.21C206.838 183.46 203.644 184.03 200.385 184.609C207.648 184.29 212.152 187.569 215.286 191.608C215.464 191.915 215.755 192.14 216.096 192.238C216.28 192.244 216.462 192.191 216.614 192.086C216.766 191.982 216.88 191.832 216.941 191.658C217.053 191.305 217.065 190.927 216.976 190.568Z" fill="black"/>
</g>
<path d="M161.21 171.788C161.127 171.319 161.171 170.838 161.337 170.392C161.503 169.946 161.786 169.553 162.154 169.253C162.906 168.658 163.846 168.353 164.804 168.394C165.642 168.393 166.462 168.633 167.168 169.083C167.569 169.332 167.904 169.673 168.147 170.077C168.389 170.482 168.532 170.938 168.563 171.408C168.595 171.879 168.513 172.35 168.326 172.783C168.139 173.215 167.852 173.597 167.488 173.897C166.684 174.587 165.647 174.944 164.589 174.897C163.702 174.904 162.846 174.569 162.199 173.962C161.59 173.332 161.13 172.463 161.2 171.793" fill="#EC407A"/>
<path d="M152.062 174.172C148.483 174.727 145.039 170.673 144.239 168.099C144.179 167.969 144.152 167.827 144.159 167.684C144.166 167.541 144.207 167.402 144.279 167.279C144.395 167.179 144.535 167.11 144.686 167.078C144.836 167.047 144.992 167.054 145.139 167.099C146.897 167.385 148.517 168.225 149.763 169.498C151.008 170.771 151.814 172.409 152.062 174.172Z" fill="#455A64"/>
<path d="M148.098 172.128C148.015 171.659 148.059 171.177 148.226 170.732C148.392 170.286 148.674 169.893 149.043 169.593C149.793 169 150.731 168.695 151.687 168.733C152.525 168.729 153.347 168.969 154.051 169.423C154.454 169.672 154.791 170.013 155.035 170.418C155.279 170.823 155.422 171.281 155.453 171.753C155.485 172.225 155.403 172.697 155.215 173.131C155.026 173.565 154.737 173.948 154.371 174.247C153.567 174.936 152.53 175.294 151.472 175.247C150.585 175.255 149.729 174.92 149.083 174.312C148.468 173.677 148.013 172.812 148.083 172.143" fill="#EC407A"/>
<path d="M184.309 172.128C184.224 171.66 184.267 171.178 184.432 170.732C184.597 170.286 184.879 169.893 185.249 169.593C186 168.998 186.94 168.693 187.898 168.733C188.736 168.73 189.557 168.97 190.262 169.423C190.665 169.672 191.002 170.013 191.246 170.418C191.49 170.823 191.633 171.281 191.664 171.753C191.696 172.225 191.614 172.697 191.426 173.131C191.237 173.565 190.948 173.948 190.582 174.247C189.777 174.936 188.741 175.293 187.683 175.247C186.794 175.255 185.937 174.92 185.289 174.312C184.679 173.677 184.219 172.812 184.289 172.143" fill="#EC407A"/>
<g opacity="0.3">
<path d="M161.21 171.788C161.127 171.319 161.171 170.838 161.337 170.392C161.503 169.946 161.786 169.553 162.154 169.253C162.906 168.658 163.846 168.353 164.804 168.394C165.642 168.393 166.462 168.633 167.168 169.083C167.569 169.332 167.904 169.673 168.147 170.077C168.389 170.482 168.532 170.938 168.563 171.408C168.595 171.879 168.513 172.35 168.326 172.783C168.139 173.215 167.852 173.597 167.488 173.897C166.684 174.587 165.647 174.944 164.589 174.897C163.702 174.904 162.846 174.569 162.199 173.962C161.59 173.332 161.13 172.463 161.2 171.793" fill="black"/>
</g>
<g opacity="0.3">
<path d="M148.098 172.128C148.015 171.659 148.059 171.177 148.226 170.732C148.392 170.286 148.674 169.893 149.043 169.593C149.793 169 150.731 168.695 151.687 168.733C152.525 168.729 153.347 168.969 154.051 169.423C154.454 169.672 154.791 170.013 155.035 170.418C155.279 170.823 155.422 171.281 155.453 171.753C155.485 172.225 155.403 172.697 155.215 173.131C155.026 173.565 154.737 173.948 154.371 174.247C153.567 174.936 152.53 175.294 151.472 175.247C150.585 175.255 149.729 174.92 149.083 174.312C148.468 173.677 148.013 172.812 148.083 172.143" fill="black"/>
</g>
<g opacity="0.3">
<path d="M184.309 172.128C184.224 171.66 184.267 171.178 184.432 170.732C184.597 170.286 184.879 169.893 185.249 169.593C186 168.998 186.94 168.693 187.898 168.733C188.736 168.73 189.557 168.97 190.262 169.423C190.665 169.672 191.002 170.013 191.246 170.418C191.49 170.823 191.633 171.281 191.664 171.753C191.696 172.225 191.614 172.697 191.426 173.131C191.237 173.565 190.948 173.948 190.582 174.247C189.777 174.936 188.741 175.293 187.683 175.247C186.794 175.255 185.937 174.92 185.289 174.312C184.679 173.677 184.219 172.812 184.289 172.143" fill="black"/>
</g>
<path d="M166.489 173.317C166.564 171.463 167.898 169.223 169.023 167.749C170.162 166.258 171.733 165.155 173.522 164.589C173.644 164.543 173.779 164.543 173.902 164.589C173.96 164.626 174.01 164.674 174.049 164.731C174.087 164.788 174.114 164.852 174.127 164.919C174.48 166.016 174.538 167.186 174.295 168.311C174.051 169.437 173.515 170.478 172.74 171.33C171.965 172.183 170.979 172.815 169.881 173.164C168.783 173.513 167.613 173.566 166.489 173.317Z" fill="#455A64"/>
<path d="M179.555 170.433C180.279 169.635 180.93 168.774 181.5 167.859C182.067 166.936 182.366 165.873 182.364 164.789C182.372 164.71 182.361 164.629 182.334 164.554C182.306 164.479 182.262 164.411 182.205 164.355C182.137 164.316 182.062 164.292 181.984 164.285C181.907 164.277 181.829 164.285 181.755 164.31C179.728 164.715 177.88 165.746 176.471 167.259C175.062 168.771 174.163 170.687 173.902 172.737L173.787 173.262C175.463 174.301 177.477 174.649 179.405 174.232C180.961 173.993 182.454 173.444 183.794 172.618C185.143 171.778 186.122 170.458 186.533 168.923C185.331 168.648 184.082 168.641 182.876 168.902C181.67 169.163 180.537 169.685 179.555 170.433Z" fill="#455A64"/>
<path d="M157.42 166.779C155.791 165.029 153.496 164.04 151.182 163.435C151.012 164.612 151.076 165.811 151.372 166.963C151.668 168.116 152.19 169.197 152.906 170.147C153.623 171.096 154.521 171.894 155.548 172.494C156.575 173.094 157.711 173.484 158.89 173.642L159.035 173.392C159.89 171.158 159.05 168.529 157.42 166.779Z" fill="#455A64"/>
<path d="M189.418 174.127C189.488 172.273 190.822 170.033 191.947 168.554C193.09 167.067 194.659 165.964 196.446 165.394C196.568 165.347 196.704 165.347 196.826 165.394C196.883 165.431 196.932 165.48 196.97 165.537C197.008 165.593 197.034 165.657 197.046 165.724C197.403 166.819 197.465 167.99 197.225 169.116C196.985 170.243 196.452 171.287 195.679 172.141C194.907 172.996 193.923 173.631 192.826 173.984C191.729 174.336 190.558 174.392 189.433 174.147" fill="#455A64"/>
<path d="M144.549 172.368C144.549 172.368 149.408 186.839 153.607 189.088C157.806 191.338 167.178 193.467 171.932 193.412C176.686 193.357 179.55 193.242 183.374 191.118L183.489 191.053C188.148 188.428 191.768 184.288 193.747 179.321L196.746 171.823L144.549 172.368Z" fill="#E0E0E0"/>
<path d="M193.377 180.53C192.911 180.949 192.379 181.287 191.802 181.53C191.131 181.831 190.418 182.03 189.688 182.12C188.717 182.246 187.731 182.174 186.788 181.91C185.744 181.63 184.689 181.045 183.454 180.91C182.818 180.868 182.18 180.965 181.585 181.195C180.96 181.41 180.345 181.725 179.69 182.015C179.023 182.336 178.307 182.542 177.571 182.625C176.8 182.677 176.026 182.591 175.286 182.37C173.787 181.97 172.337 181.22 170.742 180.95C169.964 180.815 169.164 180.864 168.408 181.095C167.673 181.353 166.967 181.688 166.304 182.095C165.647 182.486 164.964 182.83 164.259 183.125C163.568 183.415 162.816 183.53 162.07 183.46C160.605 183.26 159.47 182.425 158.266 182.135C157.129 181.911 155.958 181.935 154.831 182.205C153.886 182.416 152.927 182.566 151.962 182.655C151.227 182.713 150.488 182.642 149.778 182.445C149.329 182.317 148.91 182.103 148.543 181.815C148.412 181.719 148.295 181.607 148.193 181.48C148.658 181.89 149.21 182.188 149.808 182.35C150.509 182.523 151.233 182.577 151.952 182.51C152.91 182.401 153.859 182.235 154.796 182.01C155.942 181.725 157.137 181.695 158.296 181.92C159.55 182.215 160.7 183.04 162.08 183.21C162.786 183.275 163.497 183.163 164.149 182.885C164.837 182.596 165.505 182.262 166.149 181.885C166.828 181.474 167.551 181.139 168.303 180.885C169.098 180.641 169.939 180.588 170.757 180.73C172.407 181.015 173.847 181.765 175.321 182.16C176.724 182.613 178.249 182.494 179.565 181.83C180.21 181.55 180.835 181.235 181.48 181.015C182.106 180.776 182.776 180.679 183.444 180.73C184.739 180.87 185.794 181.47 186.808 181.755C187.728 182.023 188.691 182.105 189.643 181.995C190.362 181.918 191.066 181.736 191.732 181.455C192.168 181.274 192.586 181.053 192.982 180.795C193.237 180.62 193.372 180.525 193.377 180.53Z" fill="#263238"/>
<path d="M193.377 178.856C192.905 179.276 192.366 179.614 191.782 179.856C191.102 180.158 190.381 180.358 189.642 180.451C188.662 180.577 187.665 180.504 186.713 180.236C185.658 179.956 184.589 179.371 183.339 179.236C182.696 179.196 182.052 179.293 181.45 179.521C180.815 179.741 180.195 180.056 179.53 180.341C178.857 180.664 178.133 180.87 177.391 180.95C176.61 181.002 175.827 180.917 175.076 180.7C173.577 180.296 172.077 179.551 170.487 179.276C169.698 179.142 168.89 179.192 168.123 179.421C167.378 179.678 166.663 180.013 165.988 180.421C165.325 180.81 164.635 181.154 163.924 181.45C163.224 181.742 162.464 181.855 161.709 181.78C160.21 181.58 159.08 180.745 157.86 180.461C156.711 180.233 155.526 180.255 154.386 180.526C153.432 180.737 152.465 180.887 151.492 180.975C150.749 181.033 150.002 180.963 149.283 180.77C148.83 180.641 148.406 180.427 148.033 180.141C147.902 180.044 147.782 179.931 147.678 179.806C148.151 180.213 148.71 180.509 149.313 180.67C150.021 180.847 150.755 180.901 151.482 180.83C152.448 180.722 153.406 180.555 154.351 180.331C155.517 180.044 156.731 180.011 157.91 180.236C159.18 180.531 160.345 181.355 161.739 181.525C162.453 181.592 163.172 181.482 163.834 181.205C164.534 180.909 165.214 180.567 165.868 180.181C166.557 179.771 167.288 179.436 168.048 179.181C168.857 178.934 169.714 178.881 170.547 179.026C172.212 179.311 173.676 180.061 175.166 180.456C176.583 180.914 178.125 180.796 179.455 180.126C180.11 179.846 180.74 179.531 181.395 179.311C182.033 179.072 182.715 178.975 183.394 179.026C184.704 179.166 185.768 179.766 186.798 180.051C187.728 180.32 188.701 180.403 189.662 180.296C190.389 180.215 191.101 180.034 191.777 179.756C192.205 179.577 192.616 179.361 193.007 179.111C193.124 179.018 193.248 178.932 193.377 178.856Z" fill="#263238"/>
<path d="M174.781 193.392C174.781 193.392 167.578 188.893 165.889 189.438C165.409 189.604 164.99 189.911 164.689 190.32C164.388 190.729 164.219 191.22 164.204 191.728C162.902 190.501 161.512 189.371 160.045 188.349C159.205 187.809 158.176 187.414 157.241 187.849L156.956 188.199L157.081 188.823C157.081 188.823 152.802 187.564 154.746 190.083C156.691 192.602 165.164 197.776 166.554 198.426C167.943 199.076 174.377 200.99 177.351 199.201C179.194 198.703 180.865 197.707 182.18 196.322C184.239 194.052 187.273 190.358 187.273 190.358L187.073 186.659L178.815 192.797L174.781 193.392Z" fill="#FFBE9D"/>
<path d="M192.517 184.485C192.448 183.974 192.234 183.494 191.902 183.1C191.547 182.735 190.682 182.42 190.292 182.755C189.318 183.445 188.178 185.469 188.178 185.469C187.523 185.924 186.678 185.969 186.084 186.494C185.765 186.732 185.504 187.037 185.318 187.388C185.132 187.739 185.027 188.127 185.009 188.524C185.061 188.995 185.25 189.441 185.552 189.806C185.854 190.172 186.256 190.442 186.708 190.583C187.621 190.848 188.582 190.899 189.518 190.733C190.517 190.613 191.612 190.393 192.242 189.608C192.718 188.888 192.927 188.023 192.832 187.164C192.81 186.263 192.704 185.366 192.517 184.485Z" fill="#FFBE9D"/>
<path d="M162.164 195.167C161.752 194.936 161.373 194.652 161.035 194.322C160.183 193.565 159.415 192.719 158.745 191.798C158.071 190.879 157.504 189.886 157.056 188.838C156.967 188.646 156.934 188.433 156.961 188.224C156.986 188.06 157.074 187.913 157.206 187.814C157.436 187.654 157.606 187.749 157.591 187.759C157.471 187.764 157.358 187.812 157.271 187.894C157.173 187.985 157.114 188.11 157.106 188.244C157.099 188.426 157.14 188.607 157.226 188.768C157.717 189.775 158.296 190.737 158.955 191.643C159.617 192.551 160.354 193.403 161.16 194.187C161.513 194.494 161.848 194.821 162.164 195.167Z" fill="#EB996E"/>
<path d="M177.081 198.806C176.88 198.834 176.678 198.843 176.476 198.831C176.239 198.832 176.002 198.821 175.766 198.796C175.491 198.771 175.171 198.756 174.826 198.696C174.016 198.576 173.217 198.391 172.437 198.141C171.48 197.829 170.554 197.433 169.667 196.956C168.784 196.467 167.948 195.898 167.168 195.257C166.539 194.73 165.954 194.154 165.419 193.532C165.209 193.298 165.012 193.052 164.829 192.797C164.68 192.611 164.544 192.416 164.419 192.213C164.297 192.051 164.197 191.875 164.119 191.688C164.159 191.688 164.619 192.388 165.554 193.412C166.102 194.006 166.692 194.561 167.318 195.072C168.091 195.691 168.913 196.244 169.777 196.726C170.65 197.194 171.557 197.591 172.492 197.916C173.26 198.169 174.045 198.368 174.841 198.511C176.221 198.751 177.086 198.751 177.081 198.806Z" fill="#EB996E"/>
<path d="M188.608 190.893C188.505 190.944 188.393 190.973 188.278 190.978C187.968 191.019 187.654 191.007 187.348 190.943C186.889 190.863 186.455 190.675 186.083 190.393C185.623 190.032 185.297 189.527 185.159 188.958C185.011 188.388 185.077 187.784 185.344 187.259C185.574 186.836 185.921 186.489 186.343 186.259C186.619 186.104 186.924 186.007 187.238 185.974C187.458 185.974 187.578 185.974 187.578 185.974C187.178 186.052 186.793 186.194 186.438 186.394C186.072 186.626 185.775 186.952 185.579 187.339C185.348 187.815 185.295 188.357 185.429 188.868C185.558 189.381 185.847 189.84 186.253 190.178C186.592 190.454 186.986 190.653 187.408 190.763C187.803 190.842 188.205 190.886 188.608 190.893Z" fill="#EB996E"/>
<g opacity="0.6">
<path d="M156.681 185.789C156.319 184.647 155.77 183.572 155.056 182.61L150.847 176.212C150.594 175.748 150.23 175.355 149.788 175.067C149.378 174.842 148.183 174.287 147.933 175.287C147.882 175.523 147.9 175.77 147.983 175.997C149.365 179.967 151.732 183.522 154.861 186.329C155.331 186.749 156.061 187.169 156.521 186.619C156.611 186.503 156.672 186.367 156.7 186.223C156.727 186.079 156.721 185.93 156.681 185.789Z" fill="white"/>
</g>
<path d="M99.7752 106.584C98.8454 105.129 97.8907 103.645 96.536 102.585C96.3117 102.372 96.0473 102.205 95.7582 102.094C95.4691 101.983 95.1609 101.931 94.8514 101.94C94.5869 101.985 94.3366 102.091 94.1211 102.251C93.9057 102.411 93.7311 102.62 93.6117 102.86C93.3769 103.345 93.2702 103.882 93.3018 104.42C93.3468 106.289 94.3565 108.004 95.5063 109.483C96.656 110.963 98.0056 112.318 98.8804 113.982H104.489L99.7752 106.584Z" fill="#EB996E"/>
<path d="M135.621 109.303C133.906 107.949 131.702 107.364 129.528 107.139C129.533 108.226 129.754 109.301 130.178 110.303C130.602 111.304 131.221 112.211 131.999 112.97C132.776 113.73 133.697 114.328 134.708 114.729C135.718 115.13 136.798 115.327 137.885 115.307L137.98 115.062C138.445 112.912 137.331 110.663 135.621 109.303Z" fill="#455A64"/>
<path d="M131.902 109.223C132.274 109.419 132.62 109.661 132.932 109.943C133.542 110.443 134.351 111.123 135.201 111.943C136.051 112.762 136.771 113.567 137.266 114.162C137.552 114.467 137.803 114.802 138.016 115.162C137.692 114.895 137.394 114.599 137.126 114.277C136.601 113.717 135.861 112.947 135.021 112.128C134.182 111.308 133.387 110.588 132.812 110.073C132.487 109.814 132.182 109.53 131.902 109.223Z" fill="#263238"/>
<path d="M143.219 108.658C143.069 106.489 142.014 104.475 140.72 102.72C139.925 103.455 139.283 104.341 138.833 105.326C138.383 106.31 138.132 107.375 138.096 108.457C138.059 109.539 138.238 110.618 138.622 111.631C139.005 112.644 139.586 113.57 140.33 114.357L140.58 114.262C142.459 113.172 143.374 110.833 143.219 108.658Z" fill="#455A64"/>
<path d="M140.995 105.054C141.018 105.475 140.996 105.898 140.93 106.314C140.855 107.179 140.765 108.204 140.665 109.313C140.565 110.423 140.495 111.468 140.425 112.338C140.417 112.759 140.37 113.179 140.285 113.592C140.225 113.174 140.211 112.749 140.245 112.328C140.245 111.553 140.305 110.473 140.405 109.288C140.505 108.104 140.635 107.034 140.75 106.264C140.788 105.853 140.87 105.448 140.995 105.054Z" fill="#263238"/>
<path d="M138.97 115.727C140.674 115.727 142.054 114.346 142.054 112.642C142.054 110.939 140.674 109.558 138.97 109.558C137.267 109.558 135.886 110.939 135.886 112.642C135.886 114.346 137.267 115.727 138.97 115.727Z" fill="#EC407A"/>
<g opacity="0.3">
<path d="M138.97 115.727C140.674 115.727 142.054 114.346 142.054 112.642C142.054 110.939 140.674 109.558 138.97 109.558C137.267 109.558 135.886 110.939 135.886 112.642C135.886 114.346 137.267 115.727 138.97 115.727Z" fill="black"/>
</g>
<path d="M126.728 116.711C123.824 116.711 120.85 114.342 118.84 112.318L118.77 112.248C118.693 112.172 118.608 112.105 118.515 112.048C118.263 111.896 117.975 111.812 117.681 111.803C104.584 111.188 87.1883 106.554 87.0134 106.509C86.845 106.464 86.7014 106.354 86.6142 106.203C86.5271 106.052 86.5034 105.873 86.5485 105.704C86.5936 105.536 86.7037 105.392 86.8546 105.305C87.0055 105.218 87.1849 105.194 87.3533 105.239C87.5282 105.289 104.789 109.883 117.741 110.488C118.271 110.506 118.788 110.661 119.24 110.938C119.414 111.047 119.573 111.176 119.715 111.323L119.79 111.398C122.455 114.082 125.009 115.502 126.963 115.397C130.303 115.217 138.715 112.722 138.8 112.697C138.883 112.672 138.969 112.663 139.055 112.672C139.141 112.68 139.224 112.706 139.3 112.747C139.376 112.788 139.443 112.843 139.497 112.91C139.551 112.977 139.591 113.055 139.615 113.137C139.665 113.304 139.647 113.484 139.564 113.638C139.482 113.792 139.342 113.906 139.175 113.957C138.825 114.062 130.527 116.516 127.033 116.706L126.728 116.711Z" fill="#E0E0E0"/>
<path d="M126.728 116.711H127.018C127.208 116.686 127.493 116.671 127.863 116.621C128.608 116.527 129.693 116.327 131.077 116.022C132.462 115.717 134.152 115.292 136.076 114.762C137.046 114.497 138.101 114.202 139.175 113.872C139.295 113.822 139.394 113.732 139.455 113.618C139.517 113.504 139.538 113.372 139.515 113.245C139.492 113.117 139.425 113.001 139.327 112.916C139.229 112.831 139.105 112.782 138.975 112.777C138.833 112.786 138.693 112.816 138.56 112.867L138.116 112.997L137.211 113.257C134.761 113.937 132.072 114.677 129.128 115.232C128.376 115.374 127.617 115.473 126.853 115.527C126.05 115.526 125.256 115.356 124.524 115.027C123.022 114.334 121.646 113.395 120.455 112.248C119.815 111.693 119.305 110.968 118.485 110.748C118.078 110.639 117.658 110.583 117.236 110.583L115.921 110.498C114.167 110.378 112.377 110.188 110.562 109.968C106.928 109.508 103.194 108.878 99.3852 108.119C95.5761 107.359 91.8871 106.529 88.338 105.619L87.6731 105.449L87.3432 105.364C87.2512 105.342 87.1553 105.342 87.0633 105.364C86.9734 105.382 86.8895 105.422 86.8199 105.482C86.7503 105.541 86.6973 105.618 86.6661 105.704C86.6348 105.79 86.6265 105.883 86.6418 105.973C86.6571 106.063 86.6955 106.148 86.7534 106.219C86.8633 106.374 87.0483 106.404 87.2782 106.464L87.9231 106.629L89.2077 106.954C90.9173 107.374 92.5919 107.767 94.2315 108.134C100.031 109.457 105.894 110.488 111.797 111.223C113.057 111.383 114.261 111.478 115.401 111.583L117.061 111.693C117.336 111.718 117.586 111.723 117.861 111.753C118.128 111.787 118.382 111.889 118.6 112.048C118.796 112.202 118.982 112.369 119.155 112.547L119.655 113.047C120 113.362 120.335 113.662 120.655 113.937C121.259 114.44 121.897 114.901 122.564 115.317C123.484 115.905 124.499 116.33 125.564 116.571C125.936 116.64 126.311 116.687 126.688 116.711H126.398C126.115 116.704 125.833 116.676 125.554 116.626C124.478 116.4 123.451 115.986 122.519 115.402C121.844 114.99 121.197 114.533 120.585 114.032C120.245 113.762 119.905 113.462 119.56 113.147L119.06 112.647C118.894 112.467 118.714 112.299 118.52 112.148C118.322 112.003 118.09 111.912 117.846 111.883C117.601 111.858 117.346 111.848 117.056 111.833L115.391 111.728C114.251 111.633 113.042 111.538 111.782 111.388C105.867 110.678 99.9918 109.662 94.1815 108.344C92.5419 107.984 90.8657 107.594 89.1528 107.174L87.8681 106.854L87.2182 106.684C87.1033 106.654 87.0133 106.639 86.8833 106.594C86.7576 106.546 86.6472 106.464 86.5634 106.359C86.4781 106.254 86.4214 106.128 86.399 105.995C86.3766 105.861 86.3891 105.724 86.4354 105.597C86.4817 105.469 86.5602 105.356 86.6632 105.268C86.7662 105.18 86.8903 105.12 87.0233 105.094C87.1534 105.072 87.2869 105.081 87.4132 105.119L87.7431 105.204L88.4029 105.374C91.9471 106.269 95.6411 107.099 99.4452 107.874C103.249 108.648 106.973 109.263 110.597 109.723C112.412 109.948 114.196 110.138 115.946 110.263L117.251 110.348C117.695 110.35 118.136 110.409 118.565 110.523C118.78 110.588 118.987 110.679 119.18 110.793C119.37 110.908 119.53 111.063 119.71 111.198C120.025 111.488 120.31 111.793 120.625 112.073C121.795 113.205 123.147 114.132 124.624 114.817C125.326 115.138 126.087 115.308 126.858 115.317C127.611 115.266 128.361 115.17 129.103 115.032C132.037 114.487 134.726 113.762 137.176 113.092L138.081 112.837L138.525 112.707C138.676 112.651 138.835 112.619 138.995 112.612C139.162 112.622 139.321 112.687 139.446 112.798C139.572 112.908 139.656 113.058 139.686 113.222C139.716 113.387 139.69 113.557 139.612 113.704C139.534 113.852 139.408 113.969 139.255 114.037C138.141 114.372 137.111 114.647 136.131 114.912C134.176 115.412 132.487 115.842 131.092 116.132C129.698 116.422 128.593 116.606 127.868 116.681C127.493 116.721 127.208 116.731 127.018 116.746C126.921 116.74 126.824 116.728 126.728 116.711Z" fill="#263238"/>
<path d="M88.8027 118.141C88.8027 118.141 89.4426 107.644 90.6923 106.594C91.9419 105.544 97.0007 104.295 97.6655 104.595C98.3304 104.894 102.164 106.384 102.299 107.019C102.362 107.227 102.376 107.446 102.341 107.661C102.306 107.875 102.222 108.079 102.096 108.256C101.97 108.433 101.806 108.579 101.615 108.682C101.424 108.786 101.212 108.844 100.995 108.853L97.9954 108.309L94.9962 109.928L94.6413 112.822C94.6413 112.822 97.6955 110.383 98.7203 109.663C99.745 108.943 102.284 108.973 102.384 110.853C102.384 110.853 106.333 111.328 106.453 113.607C106.453 113.607 109.952 116.142 110.147 117.441C110.342 118.741 108.613 121.34 108.613 121.34C108.613 121.34 113.946 126.499 113.801 128.254C113.657 130.008 114.191 135.532 114.191 135.532L102.059 137.031L101.794 132.033C101.794 132.033 89.5925 120.606 88.8027 118.141Z" fill="#FFBE9D"/>
<path d="M108.433 117.721C108.335 118.278 108.095 118.8 107.737 119.238C107.379 119.676 106.915 120.014 106.388 120.221C106.348 120.156 106.978 119.766 107.538 119.071C108.098 118.376 108.363 117.696 108.433 117.721Z" fill="#EB996E"/>
<path d="M109.283 118.766C109.343 118.811 109.048 119.131 108.563 119.111C108.078 119.091 107.808 118.746 107.868 118.706C107.928 118.666 108.193 118.841 108.573 118.851C108.953 118.861 109.238 118.711 109.283 118.766Z" fill="#EB996E"/>
<path d="M106.343 113.742C106.343 113.787 105.929 113.937 105.299 114.312C104.483 114.798 103.766 115.432 103.184 116.182C102.743 116.751 102.389 117.382 102.134 118.056V118.106H102.094C101.517 118.364 100.918 118.569 100.305 118.721C100.846 118.401 101.415 118.13 102.005 117.911L101.945 117.976C102.177 117.265 102.532 116.6 102.994 116.012C103.594 115.234 104.355 114.595 105.224 114.137C105.57 113.939 105.949 113.805 106.343 113.742Z" fill="#EB996E"/>
<path d="M96.3459 116.796C96.3459 116.796 96.3959 116.676 96.5709 116.532C96.8276 116.34 97.1174 116.198 97.4257 116.112C97.8593 115.997 98.269 115.806 98.6354 115.547C99.0462 115.17 99.4288 114.764 99.7801 114.332C100.575 113.427 101.28 112.622 101.84 112.048C102.113 111.717 102.419 111.415 102.754 111.148C102.531 111.507 102.272 111.842 101.98 112.148C101.48 112.752 100.77 113.582 99.98 114.482C99.6196 114.927 99.2215 115.34 98.7903 115.717C98.3953 115.983 97.9522 116.17 97.4857 116.267C97.1883 116.334 96.9021 116.443 96.6359 116.591C96.4509 116.721 96.3609 116.811 96.3459 116.796Z" fill="#EB996E"/>
<path d="M94.5863 112.787C94.3668 113.53 93.9608 114.205 93.4069 114.746C92.853 115.288 92.1698 115.679 91.4221 115.882C92.0615 115.494 92.6654 115.051 93.2267 114.557C93.7302 114.008 94.1851 113.416 94.5863 112.787Z" fill="#EB996E"/>
<path d="M108.743 121.41C108.743 121.45 108.563 121.41 108.293 121.41C107.942 121.405 107.596 121.497 107.293 121.675L107.108 121.785V121.57V121.505C107.104 121.137 107.039 120.773 106.918 120.426C106.818 120.166 106.698 120.031 106.723 120.001C106.748 119.971 106.923 120.071 107.083 120.341C107.269 120.695 107.367 121.09 107.368 121.49V121.555L107.168 121.45C107.51 121.249 107.911 121.171 108.303 121.23C108.603 121.255 108.758 121.365 108.743 121.41Z" fill="#EB996E"/>
<path d="M100.355 135.407C100.355 135.407 92.8569 177.601 93.4617 182.05C94.0666 186.499 95.3462 204.255 108.548 202.305C121.75 200.356 119.46 181.895 119 178.356C118.54 174.817 115.436 151.183 115.436 151.183L114.436 134.652L100.355 135.407Z" fill="#EC407A"/>
<path d="M117.736 171.238C117.7 171.117 117.676 170.993 117.666 170.868C117.636 170.598 117.586 170.248 117.531 169.808C117.416 168.883 117.266 167.549 117.096 165.894C116.756 162.585 116.361 158.011 115.961 152.952C115.561 147.894 115.191 143.32 114.896 140.011C114.751 138.376 114.631 137.046 114.546 136.092C114.513 135.648 114.483 135.293 114.456 135.027C114.45 134.902 114.45 134.777 114.456 134.652C114.493 134.771 114.516 134.893 114.526 135.017C114.56 135.287 114.605 135.642 114.661 136.082C114.776 137.001 114.926 138.341 115.096 139.996C115.436 143.3 115.831 147.879 116.236 152.932C116.641 157.986 117.001 162.565 117.281 165.899C117.426 167.534 117.546 168.868 117.631 169.818C117.666 170.263 117.696 170.618 117.721 170.888C117.731 171.004 117.736 171.121 117.736 171.238Z" fill="#263238"/>
<g opacity="0.6">
<path d="M144.039 184.579H123.609V224.465H144.039V184.579Z" fill="white"/>
</g>
<path d="M139.89 221.885H127.813C127.105 221.885 126.426 221.604 125.926 221.103C125.425 220.603 125.144 219.924 125.144 219.216V195.187L130.797 196.122C132.297 196.366 133.825 196.387 135.331 196.182L142.559 195.182V219.206C142.561 219.557 142.493 219.905 142.359 220.23C142.226 220.555 142.029 220.851 141.781 221.1C141.533 221.349 141.238 221.546 140.914 221.681C140.589 221.816 140.241 221.885 139.89 221.885Z" fill="#EBEBEB"/>
<path d="M143.994 184.804C143.745 184.912 143.487 185.001 143.224 185.069C142.518 185.29 141.8 185.474 141.075 185.619C140.002 185.847 138.917 186.014 137.826 186.119C136.487 186.247 135.141 186.299 133.797 186.274C131.349 186.22 128.913 185.926 126.523 185.394C125.614 185.189 124.879 184.999 124.379 184.844C124.116 184.779 123.858 184.692 123.609 184.585C123.878 184.614 124.144 184.667 124.404 184.744C124.904 184.869 125.649 185.034 126.563 185.214C128.945 185.695 131.363 185.967 133.792 186.029C135.126 186.055 136.461 186.01 137.791 185.894C139.015 185.779 140.115 185.624 141.03 185.444C141.945 185.264 142.684 185.109 143.189 184.979C143.452 184.897 143.721 184.838 143.994 184.804Z" fill="#263238"/>
<path d="M125.179 188.284C125.249 188.284 125.309 195.147 125.309 203.615C125.309 212.083 125.249 218.946 125.179 218.946C125.109 218.946 125.049 212.083 125.049 203.615C125.049 195.147 125.104 188.284 125.179 188.284Z" fill="#263238"/>
<path d="M138.805 222.045C138.805 222.115 136.356 222.175 133.337 222.175C130.317 222.175 127.868 222.115 127.868 222.045C127.868 221.975 130.312 221.915 133.337 221.915C136.361 221.915 138.805 221.975 138.805 222.045Z" fill="#263238"/>
<path d="M125.184 195.287C126.816 197.071 129.036 198.208 131.437 198.491C135.411 198.951 139.235 197.031 142.774 195.167C136.931 195.992 130.857 196.801 125.234 195.027" fill="white"/>
<g opacity="0.6">
<path d="M134.846 205.014C133.042 206.214 131.597 207.919 129.773 209.088C127.948 210.258 125.439 210.803 123.684 209.523V212.278C125.439 213.557 127.948 213.017 129.773 211.843C131.597 210.668 133.042 208.973 134.846 207.769C136.188 206.888 137.699 206.3 139.283 206.041C140.867 205.783 142.487 205.86 144.039 206.269V203.515C142.487 203.105 140.867 203.027 139.283 203.285C137.699 203.543 136.187 204.133 134.846 205.014Z" fill="white"/>
</g>
</svg>
