<svg width="64" height="112" viewBox="0 0 64 112" fill="none" xmlns="http://www.w3.org/2000/svg">
<g clip-path="url(#clip0_126_1898)">
<path d="M52.314 184.587C52.2369 182.88 52.2675 181.17 52.4055 179.466C53.0245 170.906 54.1007 158.912 53.8123 150.732C53.4887 141.215 52.4055 138.338 52.3281 136.495C52.3281 136.495 54.0093 122.258 52.9682 101.493C52.4266 90.7939 47.9107 86.7985 47.0666 82.0645L20.0555 79.6096C18.726 91.5676 16.1445 121.259 16.0179 135.805C15.9616 142.537 15.5536 174.24 15.3145 177.919C15.0753 181.598 14.8854 182.843 14.1187 183.926C12.0999 186.831 8.59687 190.116 5.24862 192.929C4.98133 194.266 7.68243 195.3 9.72233 194.906C10.5859 194.684 11.4013 194.305 12.128 193.788C14.7515 191.957 17.2322 189.93 19.549 187.724C22.3627 184.847 23.9313 184.735 24.072 181.942C24.072 181.59 24.5362 179.424 24.9583 177.511C25.514 174.971 29.7415 155.564 30.5856 150.035C31.0703 146.363 31.101 142.644 30.677 138.964L34.581 123.784C34.581 123.784 34.996 127.871 36.5576 137.515C38.0488 146.659 43.7464 179.529 44.3795 184.221C46.2225 194.772 45.6597 198.1 46.7711 200.491C48.3468 203.896 53.2496 201.195 53.1018 196.763C53.0034 193.105 52.3703 185.987 52.314 184.587Z" fill="#FFBE9D"/>
<path d="M34.5811 123.784L32.2106 106.009C32.2106 106.009 23.3687 103.547 20.2948 100.381C20.2948 100.381 21.8353 105.193 30.0582 107.612L32.8718 123.693L30.7616 138.802L34.5811 123.784Z" fill="#EB996E"/>
<path d="M25.1765 49.5527C20.956 50.3406 18.9372 52.1061 18.3885 57.227C17.8399 62.3478 18.5011 72.9975 18.5011 72.9975L26.2386 72.4067L25.1765 49.5527Z" fill="#EC407A"/>
<path opacity="0.3" d="M25.1765 49.5527C20.956 50.3406 18.9372 52.1061 18.3885 57.227C17.8399 62.3478 18.5011 72.9975 18.5011 72.9975L26.2386 72.4067L25.1765 49.5527Z" fill="black"/>
<path d="M10.3274 87.6989C11.1363 83.7597 16.8832 74.953 18.494 72.9975C20.5269 72.0127 25.2749 72.3504 28.1589 72.6106L16.9043 87.6918L10.3274 87.6989Z" fill="#FFBE9D"/>
<path d="M15.0262 84.5898C15.1453 85.1028 15.4118 85.5698 15.7929 85.9333C16.1517 86.3061 16.5878 86.6367 17.0098 87.0095C16.4452 86.8892 15.9274 86.6083 15.5186 86.2006C15.306 85.9918 15.1446 85.7366 15.0473 85.455C14.9495 85.176 14.9421 84.8732 15.0262 84.5898Z" fill="#EB996E"/>
<path d="M43.3949 21.9508C40.7852 13.8053 30.3114 15.5427 25.9572 18.2719C25.3158 18.6745 24.6981 19.1137 24.1073 19.5873C23.2337 19.5492 22.3654 19.7408 21.589 20.143C20.3874 20.7359 19.3724 21.6486 18.6558 22.7808C18.3024 23.347 18.0793 23.9847 18.0026 24.6477C17.926 25.3108 17.9977 25.9825 18.2126 26.6144C18.6206 27.6766 19.4858 28.4925 20.0837 29.4633C20.2768 29.7464 20.4064 30.0679 20.4636 30.4058C20.488 30.5754 20.47 30.7483 20.411 30.9092C20.3521 31.07 20.2541 31.2137 20.1259 31.3273C19.9977 31.4239 19.8436 31.4802 19.6832 31.489C19.5229 31.4978 19.3636 31.4586 19.2256 31.3765C19.0523 31.2613 18.9296 31.0843 18.8825 30.8817C18.8355 30.679 18.8676 30.466 18.9723 30.2862C18.4729 30.3496 17.9876 31.0952 17.9594 31.5946C17.9527 31.8464 18.0067 32.0961 18.1169 32.3226C18.2271 32.5491 18.3902 32.7458 18.5925 32.8959C19.0044 33.2005 19.49 33.3899 19.9993 33.4446C21.2076 33.6023 22.4309 33.2983 23.4249 32.5934L41.7137 44.875C42.0513 42.8492 44.0561 40.6546 46.1311 37.8972C49.6412 33.1984 49.6271 23.9555 43.3949 21.9508Z" fill="#263238"/>
<path d="M45.5754 31.9252C45.3546 31.6843 45.0809 31.4979 44.7757 31.3808C44.4706 31.2637 44.1424 31.2191 43.8171 31.2504C43.4918 31.2818 43.1782 31.3883 42.9011 31.5616C42.624 31.7348 42.3909 31.9701 42.2202 32.2488C41.9318 32.6286 41.8333 33.4446 41.3057 33.9229C41.1233 34.0696 40.8962 34.1496 40.6621 34.1496C40.428 34.1496 40.2009 34.0696 40.0185 33.9229C39.5613 33.5782 39.6175 32.5161 39.0548 31.0037C38.519 29.4854 37.7884 28.0431 36.8813 26.7129C36.1216 25.6296 35.1157 24.4338 33.7862 24.054C30.8038 23.1958 28.7428 25.6226 27.9901 25.7C27.2375 25.7774 24.9936 23.034 23.2702 24.7996C21.5468 26.5652 21.2444 27.8243 21.8634 34.4505C22.5035 41.3228 23.8751 43.4893 25.7181 44.8188C26.8013 45.5996 28.6302 45.8106 31.1273 45.2267L31.064 49.0041C30.3615 49.8772 29.9272 50.9352 29.8136 52.05C29.7 53.1649 29.912 54.2887 30.4239 55.2856C32.6277 54.8729 34.7601 54.1432 36.7546 53.119C41.1932 50.636 41.6785 47.4917 41.6785 47.4917L41.8333 38.6287C42.3128 38.8174 42.8382 38.8565 43.3404 38.741C43.8425 38.6255 44.298 38.3608 44.6469 37.9816C46.4547 36.1175 47.0245 33.4305 45.5754 31.9252Z" fill="#FFBE9D"/>
<path d="M43.7255 37.3767C43.736 37.4956 43.7111 37.615 43.6539 37.7199C43.5967 37.8247 43.5097 37.9102 43.404 37.9657C43.2982 38.0212 43.1784 38.0442 43.0597 38.0317C42.9409 38.0192 42.8285 37.9719 42.7366 37.8956C42.6447 37.8194 42.5774 37.7176 42.5432 37.6032C42.5091 37.4887 42.5095 37.3668 42.5446 37.2526C42.5796 37.1384 42.6477 37.0372 42.7401 36.9616C42.8326 36.8861 42.9454 36.8396 43.0642 36.828C43.224 36.8161 43.3822 36.8666 43.5055 36.9689C43.6289 37.0713 43.7077 37.2174 43.7255 37.3767Z" fill="#EC407A"/>
<path d="M38.7945 30.3003C39.1213 30.8735 39.2312 31.5451 39.104 32.1925C38.9046 32.6941 38.6397 33.1672 38.3162 33.5993C38.02 34.0242 37.8075 34.5017 37.6902 35.0061C37.6114 35.2639 37.5887 35.5355 37.6238 35.8027C37.6589 36.0699 37.7509 36.3265 37.8936 36.5552C38.0362 36.7839 38.2262 36.9793 38.4508 37.1282C38.6754 37.2772 38.9293 37.3763 39.1955 37.4189C39.0144 37.287 38.8837 37.0974 38.8248 36.8813C38.766 36.6652 38.7826 36.4355 38.8719 36.2301C39.0691 35.8239 39.3857 35.4877 39.7793 35.2664C40.2763 35.0072 40.7474 34.701 41.1861 34.352C41.9669 33.6486 41.974 32.6497 42.2272 32.305L38.7945 30.3003Z" fill="#263238"/>
<path d="M30.9374 32.4528C30.9654 32.7507 31.1034 33.0275 31.3245 33.2291C31.5456 33.4307 31.834 33.5426 32.1332 33.543C32.4421 33.6038 32.7624 33.5592 33.043 33.4164C33.3235 33.2736 33.5481 33.0408 33.6807 32.7552C33.6807 32.4316 33.0758 33.0155 32.1965 32.8889C31.3172 32.7623 30.9796 32.0096 30.9374 32.4528Z" fill="#263238"/>
<path d="M31.6126 33.4938C31.6098 33.6068 31.6407 33.718 31.7013 33.8133C31.7618 33.9087 31.8494 33.9839 31.9528 34.0294C32.0562 34.0749 32.1709 34.0886 32.2821 34.0688C32.3933 34.049 32.4961 33.9965 32.5775 33.9182C32.6589 33.8398 32.7151 33.739 32.739 33.6285C32.763 33.5181 32.7535 33.4031 32.7119 33.298C32.6703 33.193 32.5984 33.1027 32.5054 33.0386C32.4124 32.9745 32.3024 32.9395 32.1894 32.9381C32.04 32.938 31.8964 32.9959 31.7888 33.0995C31.6812 33.2032 31.6181 33.3445 31.6126 33.4938Z" fill="#263238"/>
<path d="M23.3546 32.6849C23.4062 32.9805 23.5657 33.2464 23.8023 33.431C24.0388 33.6155 24.3356 33.7056 24.6348 33.6837C24.9479 33.7187 25.2636 33.6476 25.5314 33.4818C25.7993 33.316 26.0037 33.0651 26.112 32.7693C26.112 32.4457 25.5282 33.0788 24.6489 33.0225C23.7696 32.9662 23.3616 32.2417 23.3546 32.6849Z" fill="#263238"/>
<path d="M24.255 33.5712C24.2457 33.6819 24.2695 33.7929 24.3232 33.8902C24.3769 33.9874 24.4582 34.0666 24.5569 34.1177C24.6556 34.1689 24.7671 34.1896 24.8776 34.1774C24.988 34.1652 25.0924 34.1206 25.1775 34.0492C25.2626 33.9778 25.3247 33.8827 25.3559 33.7761C25.3871 33.6694 25.386 33.5559 25.3528 33.4499C25.3196 33.3439 25.2557 33.25 25.1693 33.1802C25.0828 33.1104 24.9776 33.0678 24.867 33.0577C24.793 33.0509 24.7185 33.0589 24.6476 33.0811C24.5767 33.1033 24.511 33.1393 24.4541 33.187C24.3972 33.2347 24.3503 33.2933 24.3161 33.3592C24.282 33.4251 24.2612 33.4972 24.255 33.5712Z" fill="#263238"/>
<path d="M22.9467 31.1022L25.0569 29.9134C24.9866 29.7706 24.8878 29.6436 24.7666 29.5404C24.6455 29.4371 24.5045 29.3597 24.3523 29.3129C24.2001 29.2661 24.04 29.251 23.8817 29.2684C23.7234 29.2857 23.5704 29.3353 23.432 29.414C23.1524 29.5816 22.9467 29.8491 22.8566 30.1625C22.7665 30.4758 22.7987 30.8117 22.9467 31.1022Z" fill="#263238"/>
<path d="M32.2106 30.04L34.4193 31.06C34.493 30.919 34.5373 30.7644 34.5495 30.6058C34.5617 30.4471 34.5416 30.2876 34.4903 30.137C34.4389 29.9863 34.3576 29.8477 34.2511 29.7295C34.1445 29.6112 34.0151 29.5159 33.8706 29.4492C33.5709 29.3164 33.2316 29.3036 32.9228 29.4136C32.6139 29.5235 32.359 29.7477 32.2106 30.04Z" fill="#263238"/>
<path d="M31.4368 38.7413L29.0171 39.6909C29.0815 39.8614 29.181 40.0164 29.3091 40.146C29.4373 40.2756 29.5912 40.3769 29.761 40.4432C29.9307 40.5095 30.1125 40.5394 30.2946 40.531C30.4767 40.5226 30.6549 40.476 30.8178 40.3943C30.9692 40.329 31.1058 40.2338 31.2195 40.1145C31.3332 39.9951 31.4216 39.854 31.4794 39.6996C31.5372 39.5452 31.5632 39.3808 31.5559 39.2161C31.5486 39.0514 31.5081 38.8899 31.4368 38.7413Z" fill="#B16668"/>
<path d="M30.1003 40.4928C30.1157 40.1538 30.2567 39.8326 30.496 39.592C30.7353 39.3514 31.0557 39.2086 31.3946 39.1915H31.5072C31.5307 39.4367 31.4752 39.6831 31.3486 39.8944C31.222 40.1058 31.0311 40.2711 30.8038 40.3662C30.5819 40.461 30.3414 40.5043 30.1003 40.4928Z" fill="#EB996E"/>
<path d="M28.8905 31.1444L28.785 37.1023L25.4719 36.4341L28.8905 31.1444Z" fill="#EB996E"/>
<path d="M31.1062 45.2267C32.7311 44.9032 35.5588 44.2279 37.5354 42.814C38.5491 41.8923 39.3693 40.778 39.9481 39.5361C39.9481 39.5361 39.6105 42.6382 38.1192 43.8903C36.628 45.1423 31.0851 46.5773 31.0851 46.5773L31.1062 45.2267Z" fill="#EB996E"/>
<path d="M20.1118 71.1053C20.2033 74.5239 19.732 84.3365 19.732 84.3365C30.0792 91.5958 48.3187 86.1443 48.3187 86.1443C47.4535 83.5628 46.6798 81.6636 46.9119 79.272L50.239 66.0126C47.0994 61.3835 45.7472 55.772 46.4336 50.221C42.1709 49.5176 41.6152 48.997 41.6504 47.4777L31.064 47.2948C31.064 47.9138 30.9866 48.5258 29.8189 48.8001C28.3347 49.1518 25.704 49.5598 25.704 49.5598C24.058 50.9103 22.1869 52.9432 19.7179 56.9738C16.7355 61.8836 16.032 67.3843 20.1118 71.1053Z" fill="#FFBE9D"/>
<path d="M54.8323 97.8702C53.341 90.2663 50.6118 85.6941 49.4441 83.3729C48.9594 82.4867 48.6546 81.5135 48.5472 80.5091C48.4397 79.5048 48.5318 78.4891 48.8181 77.5205C49.3034 75.6212 50.5696 66.9693 50.5696 66.9693L46.9822 50.3124L44.3655 49.813C42.0794 55.4895 35.2211 59.9633 27.1178 62.2775C22.7074 59.0699 24.4729 53.4426 27.1811 49.2221L25.1693 49.5457C25.1693 49.5457 19.1762 54.9901 17.474 61.2997C16.9436 63.0299 16.877 64.869 17.2806 66.6331C17.6843 68.3971 18.5441 70.0242 19.7741 71.3515L19.4717 79.5955C19.6335 82.0575 17.9875 87.3331 16.7073 95.4294C14.5337 109.23 9.82788 132.499 9.82085 133.041C9.81342 133.392 9.90667 133.739 10.0896 134.039C10.2725 134.339 10.5374 134.581 10.8532 134.735C11.1689 134.89 11.5222 134.951 11.8715 134.911C12.2208 134.871 12.5514 134.732 12.8244 134.511C12.598 134.817 12.4726 135.186 12.4657 135.566C12.4587 135.925 12.5569 136.278 12.748 136.582C12.939 136.886 13.2148 137.128 13.5413 137.278C13.8679 137.427 14.2309 137.478 14.5859 137.424C14.9409 137.37 15.2724 137.213 15.5396 136.973C15.4635 137.168 15.423 137.375 15.42 137.585C15.4125 137.974 15.5284 138.356 15.7511 138.675C15.9739 138.994 16.292 139.235 16.6599 139.362C17.0278 139.49 17.4265 139.497 17.799 139.384C18.1714 139.27 18.4984 139.042 18.7331 138.732C18.7293 138.804 18.7293 138.877 18.7331 138.95C18.7253 139.36 18.8544 139.761 19.1001 140.089C19.3458 140.417 19.694 140.654 20.0896 140.762C20.4851 140.871 20.9055 140.844 21.2841 140.686C21.6627 140.529 21.9779 140.249 22.1798 139.892C22.1814 140.311 22.3249 140.716 22.5869 141.043C22.8488 141.369 23.2137 141.597 23.622 141.689C24.0302 141.782 24.4577 141.733 24.8346 141.551C25.2115 141.369 25.5154 141.064 25.6969 140.687C25.7201 141.113 25.8906 141.518 26.1791 141.833C26.4676 142.147 26.8564 142.352 27.279 142.411C27.7016 142.471 28.1318 142.382 28.4962 142.16C28.8607 141.938 29.1367 141.596 29.2773 141.193C29.3135 141.619 29.4971 142.019 29.7964 142.324C30.0957 142.629 30.4919 142.819 30.9168 142.864C31.3417 142.908 31.7687 142.802 32.1242 142.566C32.4798 142.329 32.7416 141.975 32.8647 141.566C32.971 141.965 33.2083 142.317 33.5384 142.565C33.8686 142.813 34.2724 142.943 34.6853 142.934C35.0981 142.925 35.496 142.778 35.8151 142.516C36.1342 142.254 36.356 141.892 36.445 141.489C36.5577 141.881 36.7975 142.225 37.1266 142.466C37.4557 142.708 37.8556 142.833 38.2636 142.822C38.6715 142.812 39.0645 142.666 39.3808 142.408C39.6971 142.151 39.9189 141.795 40.0114 141.397C40.1392 141.805 40.4044 142.155 40.7617 142.388C41.119 142.622 41.5462 142.724 41.9704 142.677C42.3946 142.631 42.7896 142.439 43.0879 142.133C43.3861 141.828 43.5692 141.429 43.6058 141.004C43.7787 141.381 44.0739 141.689 44.4435 141.877C44.8132 142.066 45.2356 142.124 45.6425 142.043C46.0494 141.961 46.4169 141.745 46.6856 141.429C46.9542 141.112 47.1083 140.715 47.1229 140.3C47.274 140.595 47.5022 140.844 47.7834 141.02C48.0645 141.196 48.3881 141.292 48.7196 141.299C49.2104 141.305 49.6836 141.117 50.0366 140.775C50.3895 140.434 50.5937 139.968 50.6048 139.477C50.6048 139.414 50.6048 139.358 50.6048 139.301C50.835 139.61 51.156 139.839 51.5229 139.956C51.8898 140.072 52.2841 140.071 52.6504 139.953C53.0167 139.834 53.3366 139.603 53.5652 139.294C53.7937 138.984 53.9195 138.61 53.9249 138.225C53.9289 138.032 53.9004 137.839 53.8405 137.655C54.0077 137.838 54.2107 137.985 54.437 138.087C54.6632 138.189 54.9079 138.243 55.1558 138.246C55.6441 138.256 56.1163 138.072 56.4695 137.734C56.8227 137.397 57.0281 136.934 57.041 136.445C57.0456 136.134 56.9705 135.826 56.8229 135.552C57.1429 135.826 57.5483 135.98 57.9695 135.988C58.2125 135.992 58.4538 135.948 58.6796 135.858C58.9055 135.769 59.1115 135.635 59.2859 135.466C59.4603 135.297 59.5997 135.095 59.6961 134.872C59.7925 134.649 59.8439 134.409 59.8476 134.166C59.8547 133.808 56.3305 105.495 54.8323 97.8702Z" fill="#EC407A"/>
<g opacity="0.15">
<path d="M29.608 102.893C30.5083 103.68 31.8026 103.779 32.9914 103.814C33.9016 103.849 34.8131 103.828 35.7206 103.751C36.1972 103.73 36.6695 103.652 37.1275 103.519C39.2377 102.766 42.0091 100.67 45.1956 97.835C46.9893 96.2313 50.2391 93.8819 53.2286 91.7364C52.1978 88.8555 50.9443 86.0592 49.4794 83.3729L49.3739 83.1267C47.3527 85.4738 45.1411 87.6501 42.7618 89.6332C42.3192 90.0436 41.7856 90.343 41.2047 90.5069C40.6238 90.6708 40.0124 90.6944 39.4206 90.5758C37.3666 90.2804 34.7851 91.5254 32.8859 91.7716C31.3946 91.9615 30.5365 91.7294 30.431 92.0882C30.3254 92.4469 30.7686 93.298 31.9855 93.8396C32.8179 94.2069 33.7207 94.387 34.6303 94.3672C35.0795 94.2994 35.534 94.2735 35.9879 94.2898C36.6421 94.3954 36.2974 94.8526 35.9879 95.148C35.4343 95.6283 34.8193 96.0328 34.159 96.3508C33.2161 96.9449 32.2143 97.4399 31.1695 97.828C29.404 98.4118 27.4555 98.3767 25.7533 99.1223C25.4632 99.2313 25.2029 99.4072 24.9936 99.6358C24.8794 99.461 24.7448 99.3004 24.5926 99.1575C23.7377 98.4794 22.8453 97.8501 21.9197 97.2723C20.0908 95.8655 18.4026 93.9733 17.7976 91.6942C17.7749 91.6534 17.7629 91.6074 17.7629 91.5606C17.7629 91.5138 17.7749 91.4678 17.7976 91.4269C17.868 91.3566 17.9876 91.3847 18.079 91.4269C18.8433 91.7549 19.637 92.0093 20.4495 92.1866C20.8567 92.2733 21.2777 92.2717 21.6842 92.1819C22.0907 92.0922 22.4732 91.9163 22.806 91.6661C23.024 91.4832 23.2069 91.1737 23.0662 90.9205C22.9676 90.7829 22.8228 90.6856 22.6582 90.6462C21.9167 90.3969 21.1909 90.1033 20.4847 89.7669C19.6257 89.241 18.8179 88.6358 18.072 87.9591C17.6288 90.0694 17.1364 92.5805 16.6652 95.4223C16.4049 97.0824 16.1095 98.8831 15.7859 100.761L16.0532 100.86L16.1657 100.902C17.2982 101.317 18.4096 101.788 19.6195 101.331C19.8992 101.183 20.2049 101.09 20.5199 101.057C20.7596 101.084 20.9955 101.139 21.2233 101.218C21.4615 101.275 21.7085 101.283 21.95 101.243C22.1914 101.204 22.4226 101.116 22.6301 100.986C22.8 100.852 22.9839 100.736 23.1788 100.642C23.7204 100.417 24.3816 100.754 24.9162 100.508C24.9797 100.483 25.0355 100.442 25.078 100.388C25.5071 100.67 26.1331 100.642 26.4848 100.993C26.6254 101.155 26.7547 101.327 26.8717 101.507C27.0222 101.701 27.2097 101.863 27.4235 101.984C27.6373 102.104 27.8729 102.182 28.1167 102.21C28.3539 102.215 28.5898 102.245 28.8201 102.302C29.1196 102.444 29.3874 102.645 29.608 102.893Z" fill="black"/>
</g>
<path opacity="0.15" d="M32.2106 72.9975C34.3208 74.334 42.3327 74.7279 44.5906 69.2553C44.4781 75.2484 35.9035 77.4782 32.2106 72.9975Z" fill="black"/>
<path d="M24.1776 99.1645C24.2092 99.258 24.2092 99.3594 24.1776 99.4529C24.1307 99.5306 24.0588 99.5902 23.9736 99.6217C23.439 99.8609 22.7778 99.5303 22.2362 99.7483C22.0426 99.848 21.8589 99.9658 21.6875 100.1C21.4795 100.229 21.2481 100.315 21.0066 100.353C20.7652 100.392 20.5184 100.382 20.2807 100.325C20.0538 100.244 19.8174 100.192 19.5773 100.17C19.2623 100.203 18.9567 100.296 18.6769 100.445C17.467 100.902 16.3556 100.445 15.2231 100.016L15.1106 99.9734C14.5623 99.8121 14.0391 99.5753 13.556 99.27C13.165 98.9669 12.8172 98.6119 12.522 98.2149C12.0373 97.7042 11.5994 97.151 11.2137 96.5619C10.9017 95.9111 10.6657 95.2267 10.5103 94.522C10.1361 93.148 9.9795 91.7239 10.046 90.3015C10.1234 88.6696 10.3696 85.9474 12.0085 85.0681C12.5924 84.7586 13.6475 84.2592 14.2032 84.8289C14.5532 85.2964 14.9543 85.7235 15.399 86.1021C15.9054 86.4468 16.5526 86.6578 17.045 87.0165C17.8285 87.7039 18.6659 88.3272 19.5491 88.8806C20.2336 89.2152 20.9384 89.5065 21.6594 89.7528C21.825 89.794 21.97 89.894 22.0674 90.0342C22.208 90.2804 22.0251 90.5899 21.8071 90.7798C21.4743 91.03 21.0918 91.2059 20.6853 91.2956C20.2788 91.3854 19.8578 91.387 19.4507 91.3003C18.639 91.1197 17.8456 90.8655 17.0802 90.5406C16.9887 90.5055 16.8691 90.4773 16.7988 90.5406C16.776 90.5815 16.764 90.6275 16.764 90.6743C16.764 90.7211 16.776 90.7671 16.7988 90.8079C17.4178 93.08 19.0919 94.9651 20.9208 96.379C21.8449 96.9615 22.7372 97.5932 23.5938 98.2712C23.8738 98.5034 24.0773 98.8147 24.1776 99.1645Z" fill="#FFBE9D"/>
<path d="M52.891 77.5416C51.8218 78.8007 46.9049 84.7727 43.1417 87.7059C42.6988 88.1158 42.1651 88.4149 41.5843 88.5787C41.0036 88.7425 40.3922 88.7665 39.8005 88.6485C37.7395 88.353 35.165 89.5981 33.2587 89.8443C31.7745 90.0342 30.9163 89.8021 30.8038 90.1608C30.6912 90.5195 31.1485 91.3707 32.3654 91.9123C33.1978 92.2795 34.1006 92.4596 35.0102 92.4399C35.4594 92.3721 35.9138 92.3462 36.3678 92.3625C37.0149 92.468 36.6773 92.9252 36.3678 93.2206C35.8176 93.7078 35.2049 94.1194 34.546 94.4446C33.603 95.0386 32.6012 95.5336 31.5564 95.9218C29.7909 96.5056 27.8424 96.4704 26.1331 97.216C25.7921 97.3364 25.4954 97.5571 25.282 97.8491C25.2522 97.886 25.2301 97.9284 25.2168 97.9738C25.2035 98.0193 25.1994 98.067 25.2046 98.1141C25.2098 98.1612 25.2243 98.2067 25.2473 98.2482C25.2702 98.2896 25.3011 98.3261 25.3383 98.3556C25.7533 98.7706 26.4919 98.6862 26.921 99.059C27.0674 99.2137 27.1971 99.3834 27.3078 99.5654C27.4597 99.7597 27.6485 99.9218 27.8634 100.043C28.0783 100.163 28.3151 100.24 28.5599 100.269C28.797 100.273 29.033 100.304 29.2633 100.36C29.5452 100.499 29.7982 100.69 30.0089 100.923C30.9093 101.711 32.1966 101.809 33.3924 101.844C34.3025 101.88 35.214 101.859 36.1216 101.781C36.5839 101.757 37.0419 101.679 37.4862 101.549C39.5965 100.796 42.4101 98.7354 45.5544 95.8655C48.6986 92.9956 56.5065 87.8255 59.278 85.6027C63.7517 82.0012 64.7576 80.9672 63.4985 76.8733C62.6544 74.13 58.6168 62.5377 56.4643 57.6912C53.4396 50.7837 50.3024 51.3605 46.4266 50.1999C45.4348 51.9795 45.0198 59.1614 46.8416 63.6069C49.8663 70.6692 52.891 77.5416 52.891 77.5416Z" fill="#FFBE9D"/>
<path d="M46.4406 50.221C48.1429 50.5094 52.1312 51.2198 53.517 52.5352C55.6975 54.5962 56.8089 57.3606 58.5534 62.0665C60.2979 66.7723 62.999 75.368 62.999 75.368C62.999 75.368 59.4819 73.7642 52.8909 77.5416L47.1159 64.7676C47.1159 64.7676 43.3034 57.3747 46.4406 50.221Z" fill="#EC407A"/>
<path opacity="0.3" d="M46.4406 50.221C48.1429 50.5094 52.1312 51.2198 53.517 52.5352C55.6975 54.5962 56.8089 57.3606 58.5534 62.0665C60.2979 66.7723 62.999 75.368 62.999 75.368C62.999 75.368 59.4819 73.7642 52.8909 77.5416L47.1159 64.7676C47.1159 64.7676 43.3034 57.3747 46.4406 50.221Z" fill="black"/>
</g>
<defs>
<clipPath id="clip0_126_1898">
<rect width="64" height="112" fill="white"/>
</clipPath>
</defs>
</svg>
