<svg width="64" height="112" viewBox="0 0 64 112" fill="none" xmlns="http://www.w3.org/2000/svg">
<g clip-path="url(#clip0_126_2055)">
<path d="M52.3085 184.57C52.2314 182.863 52.262 181.153 52.3999 179.449C53.0189 170.89 54.095 158.898 53.8066 150.718C53.4831 141.202 52.3999 138.318 52.3296 136.483C52.3296 136.483 54.0035 122.247 52.9626 101.485C52.4281 90.7869 47.9056 86.7919 47.0616 82.0514L20.0605 79.6038C18.7242 91.5605 16.1429 121.248 16.0163 135.793C15.9601 142.524 15.5521 174.217 15.313 177.895C15.0739 181.574 14.891 182.818 14.1173 183.909C12.1058 186.813 8.59613 190.098 5.24825 192.904C4.98099 194.241 7.68179 195.282 9.72147 194.888C10.5854 194.667 11.401 194.287 12.1269 193.769C14.7463 191.934 17.2265 189.908 19.5471 187.707C22.3253 184.83 23.9218 184.717 24.0625 181.925C24.0625 181.573 24.5267 179.407 24.9487 177.494C25.5043 174.955 29.7314 155.55 30.5754 150.022C31.0601 146.349 31.0908 142.631 30.6668 138.951L34.5914 123.759C34.5914 123.759 35.0064 127.839 36.5749 137.488C38.0589 146.632 43.7559 179.499 44.3889 184.19C46.2317 194.705 45.669 198.067 46.7803 200.458C48.3628 203.862 53.258 201.126 53.1103 196.73C52.9977 193.087 52.3647 185.969 52.3085 184.57Z" fill="#FFBE9D"/>
<path d="M34.577 123.759L32.1927 105.993C32.1927 105.993 23.3518 103.538 20.2782 100.366C20.2782 100.366 21.8185 105.177 30.0475 107.604L32.8609 123.682L30.6594 138.79L34.577 123.759Z" fill="#EB996E"/>
<path d="M25.0898 49.5432C20.8697 50.3309 18.8512 52.0963 18.3026 57.2236C17.754 62.3509 18.4151 72.9853 18.4151 72.9853L26.1518 72.4016L25.0898 49.5432Z" fill="#7E57C2"/>
<path opacity="0.3" d="M25.0898 49.5432C20.8697 50.3309 18.8512 52.0963 18.3026 57.2236C17.754 62.3509 18.4151 72.9853 18.4151 72.9853L26.1518 72.4016L25.0898 49.5432Z" fill="black"/>
<path d="M10.2632 87.6921C11.072 83.7464 16.8183 74.9406 18.4289 72.9853C20.4616 72.0077 23.2608 72.1413 26.1656 72.4016L16.8816 87.6851L10.2632 87.6921Z" fill="#FFBE9D"/>
<path d="M43.3905 21.9513C40.7811 13.8067 30.3084 15.5439 25.9548 18.2658C25.3152 18.6684 24.6977 19.1051 24.105 19.574C23.2313 19.5417 22.364 19.7355 21.5871 20.1367C20.3858 20.7267 19.3709 21.6369 18.6542 22.7672C18.3012 23.3335 18.0784 23.9711 18.0018 24.634C17.9252 25.2968 17.9966 25.9684 18.2111 26.6003C18.619 27.6694 19.4841 28.4853 20.0819 29.4559C20.279 29.7369 20.4089 30.0593 20.4617 30.3984C20.4856 30.5679 20.4672 30.7406 20.4083 30.9013C20.3494 31.062 20.2518 31.2057 20.1241 31.3197C19.9781 31.4355 19.7958 31.4957 19.6096 31.4898C19.4234 31.4838 19.2454 31.412 19.107 31.2872C18.9687 31.1624 18.8791 30.9926 18.8542 30.808C18.8292 30.6234 18.8705 30.4359 18.9707 30.2788C18.4713 30.3351 17.986 31.0876 17.9579 31.587C17.9517 31.8387 18.006 32.0882 18.1162 32.3146C18.2263 32.5409 18.3891 32.7376 18.5909 32.8882C19.0027 33.1927 19.4882 33.3821 19.9975 33.4368C21.2055 33.5916 22.4277 33.288 23.4228 32.5857L41.7095 44.866C42.0401 42.8404 44.0446 40.646 46.1265 37.8889C49.6502 33.1906 49.6502 23.9488 43.3905 21.9513Z" fill="#263238"/>
<path d="M45.5706 31.9246C45.3498 31.6836 45.0761 31.4973 44.771 31.3802C44.4659 31.2631 44.1378 31.2185 43.8125 31.2499C43.4872 31.2813 43.1737 31.3878 42.8966 31.561C42.6195 31.7342 42.3864 31.9694 42.2157 32.2481C41.9344 32.6279 41.8359 33.4438 41.3014 33.922C41.1184 34.0675 40.8916 34.1467 40.6578 34.1467C40.4241 34.1467 40.1972 34.0675 40.0143 33.922C39.5571 33.5774 39.6134 32.5154 39.0507 31.0032C38.5154 29.4884 37.7874 28.0488 36.8844 26.7199C36.1178 25.6297 35.112 24.434 33.7827 24.0613C30.7795 23.2102 28.7468 25.6508 27.9732 25.7211C27.1995 25.7915 24.977 23.0625 23.2538 24.8279C21.5306 26.5933 21.2282 27.8522 21.8471 34.4777C22.4871 41.3493 23.8586 43.5155 25.7014 44.8448C26.7845 45.6185 28.6132 45.8295 31.11 45.2528L31.0467 49.0297C30.3459 49.9035 29.9127 50.9612 29.7991 52.0756C29.6856 53.1899 29.8966 54.3133 30.4067 55.3105C32.6101 54.8971 34.7421 54.1675 36.7367 53.1442C41.1677 50.6614 41.6601 47.5175 41.6601 47.5175L41.8148 38.6555C42.2943 38.8441 42.8196 38.8832 43.3217 38.7678C43.8239 38.6523 44.2793 38.3876 44.6282 38.0084C46.4568 36.1024 47.0195 33.4297 45.5706 31.9246Z" fill="#FFBE9D"/>
<path d="M43.7211 37.3755C43.7316 37.4944 43.7067 37.6138 43.6495 37.7187C43.5923 37.8235 43.5054 37.909 43.3996 37.9645C43.2939 38.02 43.1741 38.0429 43.0553 38.0305C42.9366 38.018 42.8242 37.9706 42.7323 37.8944C42.6404 37.8181 42.5731 37.7164 42.539 37.602C42.5048 37.4876 42.5053 37.3656 42.5403 37.2514C42.5753 37.1373 42.6434 37.0361 42.7358 36.9605C42.8283 36.8849 42.9411 36.8385 43.0599 36.8269C43.2201 36.8131 43.3792 36.863 43.5029 36.9657C43.6267 37.0683 43.705 37.2155 43.7211 37.3755Z" fill="#7E57C2"/>
<path d="M38.7904 30.2999C39.1183 30.8726 39.2282 31.5445 39.0998 32.1918C38.8978 32.6798 38.6356 33.1405 38.3191 33.5633C38.02 33.9874 37.8051 34.4649 37.6861 34.97C37.6073 35.2277 37.5847 35.4993 37.6198 35.7665C37.6549 36.0337 37.7468 36.2903 37.8895 36.5189C38.0321 36.7475 38.2221 36.9429 38.4467 37.0919C38.6713 37.2409 38.9252 37.3399 39.1913 37.3825C39.0093 37.2514 38.8784 37.0614 38.8207 36.8447C38.763 36.628 38.7821 36.398 38.8748 36.1938C39.0674 35.7869 39.3821 35.4501 39.775 35.2302C40.2734 34.9707 40.7447 34.6621 41.1817 34.3089C41.9695 33.6055 41.9694 32.6138 42.2226 32.2692L38.7904 30.2999Z" fill="#263238"/>
<path d="M30.9344 32.4451C30.9623 32.7436 31.1001 33.0212 31.321 33.2239C31.5419 33.4266 31.8303 33.5401 32.1301 33.5423C32.439 33.6031 32.7593 33.5585 33.0398 33.4156C33.3204 33.2728 33.5449 33.0401 33.6775 32.7546C33.6775 32.431 33.0726 33.0148 32.1934 32.8882C31.3142 32.7616 30.9766 32.009 30.9344 32.4451Z" fill="#263238"/>
<path d="M31.6169 33.4931C31.615 33.5666 31.6278 33.6398 31.6544 33.7084C31.6811 33.777 31.7211 33.8396 31.7721 33.8926C31.8231 33.9456 31.8842 33.9879 31.9517 34.0171C32.0192 34.0463 32.0919 34.0619 32.1655 34.0628C32.2394 34.0646 32.3129 34.0519 32.3819 34.0254C32.4509 33.9988 32.514 33.9589 32.5675 33.908C32.6211 33.857 32.6641 33.796 32.694 33.7284C32.724 33.6609 32.7404 33.5881 32.7422 33.5142C32.7441 33.4397 32.7311 33.3656 32.7041 33.2961C32.6771 33.2267 32.6366 33.1633 32.5849 33.1097C32.5332 33.056 32.4714 33.0132 32.403 32.9836C32.3347 32.954 32.2611 32.9383 32.1866 32.9374C32.1127 32.9365 32.0393 32.9501 31.9707 32.9775C31.9021 33.005 31.8395 33.0456 31.7866 33.0972C31.7337 33.1488 31.6915 33.2103 31.6624 33.2783C31.6333 33.3462 31.6178 33.4192 31.6169 33.4931Z" fill="#263238"/>
<path d="M23.3596 32.6772C23.4065 32.9736 23.5638 33.2413 23.8 33.4266C24.0361 33.6118 24.3336 33.7009 24.6327 33.6759C24.9448 33.7113 25.2598 33.6412 25.5275 33.4768C25.7952 33.3124 26.0001 33.063 26.1097 32.7686C26.1097 32.4451 25.5329 33.0781 24.6467 33.0218C23.7605 32.9655 23.3596 32.2411 23.3596 32.6772Z" fill="#263238"/>
<path d="M24.2531 33.5705C24.2438 33.6812 24.2675 33.7922 24.3212 33.8894C24.375 33.9867 24.4563 34.0658 24.5549 34.1169C24.6536 34.1681 24.7651 34.1888 24.8755 34.1766C24.986 34.1644 25.0903 34.1198 25.1754 34.0484C25.2606 33.977 25.3226 33.882 25.3538 33.7753C25.385 33.6687 25.3839 33.5552 25.3507 33.4492C25.3175 33.3432 25.2537 33.2494 25.1672 33.1796C25.0808 33.1098 24.9756 33.0671 24.865 33.057C24.791 33.0503 24.7165 33.0582 24.6456 33.0804C24.5747 33.1026 24.509 33.1386 24.4521 33.1863C24.3952 33.234 24.3483 33.2926 24.3142 33.3585C24.28 33.4244 24.2592 33.4965 24.2531 33.5705Z" fill="#263238"/>
<path d="M22.9233 31.0947L25.0333 29.9131C24.9637 29.7705 24.8656 29.6436 24.7451 29.5404C24.6246 29.4372 24.4842 29.3598 24.3326 29.313C24.181 29.2662 24.0214 29.251 23.8637 29.2683C23.7059 29.2857 23.5534 29.3351 23.4156 29.4137C23.1327 29.5764 22.9235 29.8421 22.8318 30.1553C22.7401 30.4685 22.7728 30.805 22.9233 31.0947Z" fill="#263238"/>
<path d="M32.2357 30.0326L34.4512 31.0525C34.5236 30.9113 34.5666 30.757 34.5777 30.5988C34.5888 30.4406 34.5678 30.2818 34.5159 30.132C34.464 29.9821 34.3822 29.8444 34.2756 29.727C34.169 29.6095 34.0397 29.5149 33.8956 29.4488C33.5967 29.3155 33.2582 29.3018 32.9495 29.4103C32.6407 29.5189 32.3853 29.7416 32.2357 30.0326Z" fill="#263238"/>
<path d="M31.4336 38.7399L29.0142 39.6894C29.0786 39.8599 29.178 40.0149 29.3062 40.1445C29.4343 40.2741 29.5882 40.3753 29.758 40.4416C29.9277 40.5079 30.1095 40.5378 30.2915 40.5294C30.4736 40.521 30.6518 40.4744 30.8147 40.3927C30.9667 40.3282 31.104 40.2335 31.2182 40.1143C31.3325 39.9951 31.4212 39.8538 31.4791 39.6992C31.537 39.5446 31.5629 39.3798 31.555 39.2149C31.5472 39.0499 31.5059 38.8883 31.4336 38.7399Z" fill="#B16668"/>
<path d="M30.1115 40.4842C30.1268 40.1471 30.2671 39.8278 30.505 39.5885C30.743 39.3492 31.0615 39.2072 31.3986 39.1901H31.5252C31.5494 39.4345 31.4941 39.6802 31.3673 39.8906C31.2406 40.101 31.0492 40.2648 30.8218 40.3576C30.6001 40.4609 30.3552 40.5045 30.1115 40.4842Z" fill="#EB996E"/>
<path d="M28.8875 31.1369L28.789 37.0942L25.4692 36.433L28.8875 31.1369Z" fill="#EB996E"/>
<path d="M31.1032 45.2458C32.7279 44.9152 35.5553 44.247 37.5317 42.8333C38.5402 41.9104 39.3554 40.7963 39.93 39.5558C39.93 39.5558 39.5995 42.6575 38.1014 43.9094C36.6032 45.1614 31.068 46.5962 31.068 46.5962L31.1032 45.2458Z" fill="#EB996E"/>
<path d="M20.11 71.0934C20.2015 74.5186 19.7373 84.3302 19.7373 84.3302C30.0763 91.5886 48.3138 86.1377 48.3138 86.1377C47.4487 83.5565 46.675 81.6575 46.9071 79.2661L50.2269 66.0083C47.0912 61.3781 45.7394 55.7686 46.4218 50.2184C42.1596 49.515 41.604 48.9875 41.6391 47.4753L31.0891 47.2925C31.0891 47.9114 31.0117 48.5163 29.8442 48.7976C28.3602 49.1493 25.7297 49.5572 25.7297 49.5572C24.0839 50.9076 22.213 52.9403 19.7443 56.9704C16.7199 61.8726 16.0025 67.3798 20.11 71.0934Z" fill="#FFBE9D"/>
<path d="M54.8336 97.8624C53.3355 90.2593 50.5784 85.6806 49.4461 83.3596C48.959 82.4757 48.6522 81.504 48.5436 80.5007C48.4349 79.4974 48.5265 78.4825 48.8131 77.5149C49.2984 75.6159 50.5714 66.9648 50.5714 66.9648L46.9773 50.3098L44.3609 49.8105C42.0751 55.4793 35.2176 59.9596 27.1222 62.2736C22.7052 59.0734 24.4917 53.4256 27.1784 49.2267L25.1669 49.5432C25.1669 49.5432 18.6329 54.9729 16.9308 61.2889C16.4221 63.0625 16.4158 64.9426 16.9125 66.7196C17.4092 68.4966 18.3895 70.1009 19.7442 71.3536C19.7442 71.3536 18.1828 76.9803 17.1911 83.1134C16.4455 87.7484 16.7198 89.7178 15.3765 98.1086C13.1609 111.901 9.799 132.495 9.79197 133.036C9.78731 133.279 9.8306 133.52 9.91937 133.746C10.0081 133.972 10.1406 134.178 10.3092 134.352C10.4778 134.527 10.6792 134.666 10.9018 134.762C11.1245 134.859 11.364 134.91 11.6066 134.914C12.0386 134.923 12.4599 134.779 12.7952 134.506C12.568 134.812 12.4425 135.181 12.4365 135.561C12.4318 135.804 12.4751 136.045 12.5639 136.271C12.6527 136.497 12.7851 136.703 12.9537 136.877C13.1223 137.052 13.3237 137.191 13.5464 137.287C13.769 137.384 14.0085 137.435 14.2511 137.439C14.7156 137.449 15.1662 137.28 15.5101 136.968C15.4354 137.163 15.3949 137.37 15.3905 137.58C15.384 137.969 15.5006 138.351 15.7237 138.67C15.9468 138.989 16.265 139.23 16.6329 139.358C17.0009 139.486 17.3998 139.494 17.7728 139.382C18.1458 139.27 18.4739 139.043 18.7103 138.733C18.703 138.806 18.703 138.879 18.7103 138.951C18.7024 139.361 18.8316 139.762 19.0772 140.09C19.3229 140.419 19.671 140.656 20.0666 140.764C20.4621 140.872 20.8824 140.845 21.261 140.688C21.6396 140.53 21.9547 140.251 22.1566 139.894C22.1582 140.312 22.3017 140.718 22.5636 141.044C22.8255 141.371 23.1904 141.599 23.5986 141.691C24.0068 141.783 24.4343 141.734 24.8111 141.552C25.1879 141.37 25.4919 141.066 25.6733 140.689C25.6965 141.115 25.867 141.519 26.1555 141.834C26.444 142.148 26.8327 142.353 27.2552 142.413C27.6777 142.472 28.1079 142.384 28.4723 142.162C28.8367 141.94 29.1128 141.598 29.2533 141.195C29.2895 141.621 29.4731 142.02 29.7723 142.325C30.0716 142.63 30.4677 142.821 30.8926 142.865C31.3175 142.909 31.7444 142.804 32.0999 142.567C32.4555 142.33 32.7173 141.977 32.8403 141.568C32.9466 141.967 33.1839 142.318 33.514 142.566C33.8441 142.814 34.2479 142.944 34.6607 142.935C35.0735 142.926 35.4713 142.779 35.7904 142.517C36.1094 142.255 36.3313 141.894 36.4203 141.49C36.533 141.883 36.7726 142.226 37.1017 142.468C37.4308 142.709 37.8307 142.834 38.2386 142.824C38.6465 142.813 39.0394 142.668 39.3557 142.41C39.672 142.152 39.8937 141.796 39.9862 141.399C40.114 141.806 40.3792 142.156 40.7364 142.39C41.0937 142.623 41.5209 142.725 41.945 142.679C42.3692 142.632 42.7641 142.44 43.0623 142.135C43.3606 141.829 43.5436 141.43 43.5802 141.005C43.7576 141.376 44.0537 141.678 44.4217 141.862C44.7898 142.046 45.2087 142.103 45.6123 142.022C46.0158 141.941 46.381 141.728 46.6499 141.417C46.9188 141.105 47.0761 140.713 47.0969 140.302C47.2742 140.688 47.5796 141.001 47.9613 141.188C48.3431 141.375 48.7777 141.424 49.1915 141.327C49.6054 141.23 49.973 140.993 50.2322 140.657C50.4913 140.32 50.6261 139.904 50.6136 139.479C50.6136 139.415 50.6136 139.359 50.6136 139.296C50.7796 139.524 50.9962 139.709 51.2465 139.839C51.4968 139.968 51.7737 140.038 52.0554 140.041C52.298 140.046 52.5391 140.003 52.765 139.914C52.9908 139.825 53.1968 139.693 53.3713 139.524C53.5458 139.356 53.6852 139.154 53.7817 138.932C53.8781 138.709 53.9297 138.469 53.9333 138.227C53.9374 138.034 53.9088 137.841 53.8489 137.657C54.1006 137.926 54.4267 138.114 54.7856 138.196C55.1446 138.279 55.5199 138.252 55.8637 138.12C56.2074 137.988 56.5038 137.756 56.715 137.454C56.9262 137.152 57.0426 136.795 57.0491 136.426C57.0531 136.117 56.9781 135.812 56.8311 135.54C57.0986 135.767 57.4257 135.913 57.7736 135.96C58.1215 136.007 58.4756 135.954 58.7939 135.806C59.1122 135.658 59.3814 135.421 59.5696 135.125C59.7577 134.829 59.8569 134.484 59.8554 134.133C59.8484 133.796 56.3247 105.465 54.8336 97.8624Z" fill="#7E57C2"/>
<path opacity="0.15" d="M49.4458 83.3596C49.3754 83.233 49.3262 83.1064 49.2699 82.9798C47.2714 85.2932 45.0886 87.4407 42.743 89.4013C42.3005 89.8118 41.7671 90.1119 41.1865 90.2769C40.6059 90.442 39.9944 90.4673 39.4021 90.3508C37.3413 90.0554 34.7671 91.2932 32.8611 91.5394C31.3771 91.7363 30.519 91.5394 30.4065 91.8559C30.2939 92.1724 30.7511 93.0727 31.9679 93.6142C32.7996 93.9826 33.7031 94.1604 34.6124 94.1347C35.0617 94.0692 35.5162 94.0457 35.9698 94.0644C36.6169 94.1699 36.2793 94.6271 35.9698 94.9225C35.4179 95.4072 34.8057 95.8186 34.1482 96.1463C33.2038 96.7375 32.2024 97.2323 31.159 97.6233C29.3937 98.207 27.4454 98.1648 25.7363 98.9104C25.4971 99.0091 25.2761 99.1469 25.0822 99.3183L25.04 99.2691C24.2382 98.5024 23.2324 98.0593 22.3744 97.3841C20.5387 95.9775 18.8577 94.0855 18.2458 91.8137C18.223 91.7729 18.211 91.7269 18.211 91.6801C18.211 91.6333 18.223 91.5873 18.2458 91.5464C18.3161 91.4761 18.4357 91.5042 18.5271 91.5464C19.2924 91.8712 20.0858 92.1255 20.8973 92.306C21.3049 92.3936 21.7265 92.3918 22.1333 92.3008C22.5401 92.2097 22.9223 92.0315 23.2535 91.7785C23.4716 91.5957 23.6544 91.2862 23.5138 91.04C23.4164 90.8999 23.2714 90.7999 23.1058 90.7587C22.3634 90.515 21.6375 90.2236 20.9325 89.8866C20.0491 89.331 19.2118 88.7054 18.4286 88.0157C17.9363 87.657 17.2892 87.446 16.7828 87.1013L16.6984 87.024C16.4452 89.6545 16.2835 92.3904 15.3691 98.1156C15.2566 98.8189 15.137 99.5223 15.0175 100.275C15.4855 100.575 15.9917 100.812 16.5226 100.978L16.6422 101.027C17.7675 101.442 18.8788 101.914 20.0885 101.456C20.3682 101.308 20.6739 101.215 20.9888 101.182C21.2289 101.203 21.4653 101.255 21.6921 101.337C21.9301 101.395 22.1774 101.404 22.4191 101.364C22.6608 101.324 22.892 101.236 23.0988 101.105C23.272 100.975 23.4555 100.86 23.6474 100.76C24.189 100.542 24.8501 100.873 25.3846 100.634C25.4715 100.601 25.5439 100.539 25.5886 100.458C25.5957 100.44 25.5957 100.42 25.5886 100.401C25.9213 100.462 26.2361 100.597 26.51 100.795C26.6549 100.954 26.7844 101.126 26.8968 101.309C27.0486 101.503 27.2374 101.665 27.4523 101.786C27.6672 101.907 27.9039 101.983 28.1487 102.012C28.3856 102.014 28.6215 102.042 28.8521 102.096C29.1327 102.24 29.3853 102.433 29.5976 102.666C30.4979 103.454 31.785 103.552 32.9807 103.581C33.8906 103.622 34.8022 103.603 35.7096 103.524C36.1719 103.5 36.6298 103.422 37.0741 103.292C39.1841 102.54 41.9974 100.437 45.1413 97.6022C46.9278 96.0197 50.1421 93.6916 53.1172 91.5535C52.095 88.7362 50.8679 85.9976 49.4458 83.3596Z" fill="black"/>
<path opacity="0.15" d="M32.2217 71.649C34.3317 72.9783 42.3427 73.3792 44.6074 67.9073C44.5019 73.9208 35.9283 76.1293 32.2217 71.649Z" fill="black"/>
<path d="M24.0978 99.1565C24.1295 99.2476 24.1295 99.3467 24.0978 99.4378C24.0531 99.5189 23.9807 99.5813 23.8939 99.6136C23.3593 99.8528 22.6982 99.5152 22.1566 99.7402C21.9618 99.8349 21.7779 99.9504 21.608 100.085C21.4012 100.216 21.17 100.304 20.9283 100.344C20.6866 100.384 20.4394 100.375 20.2014 100.317C19.9736 100.237 19.7377 100.183 19.498 100.155C19.1838 100.191 18.8788 100.284 18.5978 100.43C17.388 100.887 16.2767 100.43 15.1514 100C15.1102 99.9907 15.0701 99.9765 15.0318 99.9583C14.4836 99.7969 13.9605 99.5602 13.4775 99.2549C13.0867 98.9543 12.7388 98.6018 12.4436 98.207C11.9605 97.6949 11.5228 97.1419 11.1354 96.5541C10.8245 95.903 10.5886 95.2187 10.432 94.5144C10.0591 93.1404 9.90246 91.7167 9.96782 90.2944C10.0452 88.6697 10.2913 85.9408 11.9301 85.0616C12.5139 84.7521 13.5689 84.2528 14.1245 84.8295C14.4746 85.2948 14.8757 85.7194 15.3202 86.0955C15.8266 86.4472 16.4737 86.6582 16.966 87.0098C17.7301 87.6869 18.5462 88.303 19.4066 88.8526C20.1129 89.1867 20.8386 89.4779 21.5799 89.7247C21.7444 89.7641 21.8893 89.8615 21.9878 89.999C22.1285 90.2522 21.9456 90.5617 21.7276 90.7446C21.3954 90.9959 21.0132 91.173 20.6068 91.264C20.2003 91.355 19.779 91.3578 19.3714 91.2721C18.5628 91.0892 17.7719 90.835 17.0082 90.5125C16.9097 90.5125 16.7902 90.4492 16.7198 90.5125C16.697 90.552 16.685 90.5969 16.685 90.6426C16.685 90.6883 16.697 90.7331 16.7198 90.7727C17.4605 93.0274 18.9083 94.9833 20.8484 96.3501C21.7706 96.9296 22.6604 97.5588 23.5141 98.2351C23.8003 98.4735 24.0045 98.7958 24.0978 99.1565Z" fill="#FFBE9D"/>
<path d="M52.8852 77.536C51.8161 78.7879 46.8998 84.7663 43.137 87.6921C42.6956 88.1021 42.1634 88.4019 41.584 88.5669C41.0046 88.7319 40.3944 88.7575 39.8032 88.6416C37.7494 88.3462 35.1682 89.5841 33.2692 89.8373C31.7781 90.0272 30.92 89.7951 30.8145 90.1468C30.6668 90.6039 31.1521 91.3635 32.3689 91.9051C33.2006 92.2734 34.1042 92.4513 35.0134 92.4256C35.4628 92.3601 35.9172 92.3365 36.3709 92.3552C37.0179 92.4607 36.6803 92.9179 36.3709 93.2133C35.819 93.6981 35.2067 94.1094 34.5492 94.4371C33.6064 95.0311 32.6047 95.5261 31.5601 95.9141C29.7947 96.4979 27.8464 96.4557 26.1373 97.2012C25.7988 97.3263 25.5051 97.549 25.2933 97.8413C25.2311 97.9185 25.2008 98.0167 25.2089 98.1156C25.2293 98.2045 25.2758 98.2854 25.3426 98.3477C25.7646 98.7626 26.496 98.6782 26.9251 99.051C27.0701 99.2112 27.2018 99.3829 27.3189 99.5644C27.4694 99.7584 27.6569 99.9205 27.8707 100.041C28.0844 100.162 28.32 100.239 28.5638 100.268C28.8007 100.27 29.0366 100.298 29.2672 100.352C29.5478 100.496 29.8004 100.689 30.0127 100.922C30.913 101.71 32.2001 101.808 33.3958 101.836C34.3057 101.877 35.2173 101.858 36.1247 101.78C36.587 101.756 37.0449 101.678 37.4892 101.548C39.5992 100.795 42.4125 98.7345 45.5564 95.8649C48.7004 92.9953 56.5144 87.8258 59.2785 85.6032C63.7518 82.0021 64.7575 80.9612 63.4986 76.8678C62.6545 74.1318 58.6174 62.5338 56.4652 57.6948C53.4479 50.7881 50.304 51.3296 46.4286 50.1973C45.4369 51.9837 45.0219 59.1578 46.8435 63.6099C49.8609 70.6644 52.8852 77.536 52.8852 77.536Z" fill="#FFBE9D"/>
<path d="M46.4356 50.2184C48.1377 50.5068 52.1256 51.2171 53.5112 52.5253C55.6915 54.5931 56.8028 57.3572 58.5541 62.0626C60.3054 66.7679 63.0132 75.3627 63.0132 75.3627C63.0132 75.3627 59.4965 73.752 52.9063 77.536L47.1319 64.7634C47.1319 64.7634 43.3198 57.3713 46.4356 50.2184Z" fill="#7E57C2"/>
<path opacity="0.3" d="M46.4356 50.2184C48.1377 50.5068 52.1256 51.2171 53.5112 52.5253C55.6915 54.5931 56.8028 57.3572 58.5541 62.0626C60.3054 66.7679 63.0132 75.3627 63.0132 75.3627C63.0132 75.3627 59.4965 73.752 52.9063 77.536L47.1319 64.7634C47.1319 64.7634 43.3198 57.3713 46.4356 50.2184Z" fill="black"/>
<path d="M14.9475 84.5764C15.0691 85.0904 15.3351 85.5589 15.7141 85.9268C16.0728 86.2995 16.5159 86.6301 16.9309 86.9958C16.3668 86.8782 15.8489 86.5997 15.4398 86.194C15.2269 85.9828 15.0656 85.7252 14.9685 85.4415C14.8708 85.1625 14.8634 84.8598 14.9475 84.5764Z" fill="#EB996E"/>
</g>
<defs>
<clipPath id="clip0_126_2055">
<rect width="64" height="112" fill="white"/>
</clipPath>
</defs>
</svg>
