<svg width="112" height="112" viewBox="0 0 112 112" fill="none" xmlns="http://www.w3.org/2000/svg">
<g clip-path="url(#clip0_126_2442)">
<path d="M0.220665 135.938C0.380569 135.268 0.621414 134.621 0.937881 134.01C1.70247 132.528 2.81891 131.54 3.82707 131.621C4.03242 131.637 4.23142 131.699 4.40896 131.804L7.79208 133.752C8.13661 133.963 8.40459 134.278 8.55666 134.652C8.61756 134.788 8.68523 134.923 8.75289 135.045H8.96264C15.9995 133.84 24.9918 130.173 32.6106 125.768C41.2292 120.689 49.2091 114.597 56.3804 107.621C58.1339 105.712 59.4093 103.414 60.1018 100.916C60.3492 100.093 60.7335 99.3176 61.2385 98.6223C62.2129 97.269 63.3428 96.8766 64.148 97.3705C64.4728 97.56 66.9018 98.9335 67.5311 99.3327C67.893 99.5694 68.1665 99.9191 68.3092 100.327C68.8167 101.593 68.6408 103.501 67.9574 105.152C67.883 105.307 67.8153 105.463 67.7409 105.612C67.5599 105.989 67.3447 106.349 67.0981 106.688C66.9521 106.882 66.7939 107.068 66.6244 107.242C57.5509 117.466 46.1769 126.749 36.0005 132.629C25.8241 138.509 14.423 142.366 5.34948 142.603C5.25488 142.61 5.15989 142.61 5.06528 142.603C4.87289 142.585 4.68629 142.527 4.51723 142.434L1.13411 140.485L0.9785 140.383C0.900131 140.33 0.82756 140.269 0.761978 140.201C0.0312195 139.456 -0.225906 137.805 0.220665 135.938Z" fill="#455A64"/>
<path d="M3.62376 137.9C3.77837 137.23 4.01709 136.582 4.33423 135.972C5.09881 134.49 6.222 133.509 7.2234 133.584C7.5266 133.617 7.81434 133.734 8.05367 133.924C8.293 134.113 8.47424 134.365 8.57664 134.653C9.38859 136.432 10.7689 137.264 12.386 136.987C19.4229 135.776 28.4152 132.108 36.0678 127.71C44.6865 122.629 52.6665 116.534 59.8376 109.557C61.5926 107.649 62.8682 105.35 63.559 102.851C63.8069 102.03 64.1887 101.255 64.689 100.558C65.6701 99.2382 66.8 98.8119 67.6052 99.3058C67.9671 99.5426 68.2406 99.8922 68.3833 100.3C68.8908 101.566 68.7149 103.474 68.0315 105.125C67.957 105.28 67.8894 105.436 67.815 105.585C67.634 105.962 67.4188 106.322 67.1722 106.661C67.0262 106.855 66.868 107.041 66.6985 107.216C57.625 117.439 46.251 126.723 36.0746 132.602C25.8982 138.482 14.4971 142.339 5.42358 142.576C5.32898 142.583 5.23401 142.583 5.13941 142.576C4.89471 142.553 4.6608 142.464 4.46279 142.319C4.3831 142.267 4.31033 142.206 4.24626 142.136C3.42755 141.419 3.17719 139.761 3.62376 137.9Z" fill="#37474F"/>
<path d="M45.5545 69.2435C47.2326 47.8757 53.4575 36.1363 55.352 21.4807C55.352 21.386 55.352 21.298 55.352 21.21C55.6295 19.1802 55.6903 17.8878 57.0977 17.0759C57.5375 16.8188 58.2953 16.3993 58.5389 16.5752L61.5364 18.287C61.3701 18.2208 61.1893 18.1996 61.0122 18.2257C60.8352 18.2519 60.6682 18.3244 60.5282 18.4359C59.1208 19.2478 59.0329 21.1424 58.7554 23.1723C58.7554 23.267 58.7555 23.3549 58.7216 23.4497C56.8135 38.1121 50.6022 49.838 48.9106 71.2192C47.219 92.6005 50.548 103.345 55.4535 113.555L52.0704 111.607C47.2326 101.39 43.8494 90.618 45.5545 69.2435Z" fill="#263238"/>
<path d="M48.9576 71.2124C50.6356 49.8379 56.8606 38.1052 58.7686 23.4428C58.7686 23.3481 58.7686 23.2601 58.8025 23.1654C59.0799 21.1355 59.1678 19.2477 60.5752 18.429C60.7152 18.3175 60.8822 18.245 61.0593 18.2189C61.2363 18.1928 61.4171 18.2139 61.5834 18.2802C62.1247 18.5914 62.2126 19.7755 61.9691 21.3317C61.9691 21.5753 61.9149 21.8189 61.8811 22.0693C59.9663 36.7249 53.7616 49.0124 52.0633 70.3869C50.365 91.7614 53.7346 100.442 58.6401 110.653C57.6793 111.573 56.6102 112.54 55.5005 113.542C50.6153 103.338 47.2796 92.5869 48.9576 71.2124Z" fill="#37474F"/>
<path d="M21.5214 114.374L50.0208 97.9187C49.7298 96.5114 49.4794 95.0701 49.2765 93.6086L22.1507 109.313C21.7041 109.516 21.3117 114.51 21.5214 114.374Z" fill="#37474F"/>
<path d="M18.7467 107.324L45.8928 91.6464L49.2827 93.6086L22.1501 109.286L18.7467 107.324Z" fill="#263238"/>
<path d="M16.4928 136.06C21.3984 120.186 23.1102 108.4 23.0696 86.8762C22.0885 87.2145 21.0397 87.5867 20.018 87.9723C20.0586 109.496 18.6648 119.902 13.2518 136.818C14.3276 136.601 15.4305 136.378 16.4928 136.06Z" fill="#37474F"/>
<path d="M13.2592 136.818C18.6721 119.902 20.0254 109.496 20.0254 87.9725L16.6423 86.0103C16.6829 107.534 15.289 117.94 9.87605 134.856L13.2592 136.818Z" fill="#263238"/>
<path d="M48.9782 91.105C49.0459 91.7816 49.1609 92.6815 49.2827 93.6085L23.0704 86.8423L27.1301 85.489L48.9985 91.105" fill="#37474F"/>
<path d="M22.1495 109.286L36.8931 90.4283L35.303 90.0223L22.3998 106.518L22.1495 109.286Z" fill="#37474F"/>
<path d="M22.4 106.519L35.3032 90.0224L31.1961 88.9669L22.8331 99.6576C22.7383 101.872 22.594 104.159 22.4 106.519Z" fill="#263238"/>
<path d="M28.93 84.8666L39.1808 87.4986L38.4703 88.4053L27.1098 85.4891L28.93 84.8666Z" fill="#263238"/>
<path d="M39.1798 87.4987L45.5874 89.1428L48.9773 91.105L38.4693 88.4053L39.1798 87.4987Z" fill="#263238"/>
<path opacity="0.15" d="M39.1798 87.4987L45.5874 89.1428L48.9773 91.105L38.4693 88.4053L39.1798 87.4987Z" fill="black"/>
<path d="M33.4904 86.0372L36.8736 87.9994L44.269 78.5267C41.7829 79.8827 39.2082 81.0695 36.5623 82.079L33.4904 86.0372Z" fill="#263238"/>
<path opacity="0.15" d="M33.4904 86.0372L36.8736 87.9994L44.269 78.5267C41.7829 79.8827 39.2082 81.0695 36.5623 82.079L33.4904 86.0372Z" fill="black"/>
<path d="M36.8863 87.9996L38.4696 88.4055L48.6866 75.34C47.3763 76.6088 45.8934 77.6862 44.2818 78.5404L36.8863 87.9996Z" fill="#37474F"/>
<path d="M11.4798 82.979C21.2434 77.3427 37.7395 76.2804 45.8725 65.7996L49.2556 67.7618C48.985 70.4277 48.782 72.965 48.667 75.3399C43.457 80.665 29.099 84.6029 20.2488 87.8845C18.6584 88.6057 17.3723 89.8631 16.6153 91.4368C16.1654 92.4406 15.3465 93.2329 14.3284 93.6494C14.1415 93.7102 13.9436 93.7296 13.7484 93.7062C13.5533 93.6829 13.3656 93.6173 13.1984 93.514C12.6774 93.2028 10.1604 91.7548 9.81529 91.5789C9.49782 91.358 9.236 91.0664 9.05048 90.7271C8.86495 90.3877 8.76079 90.0099 8.74622 89.6234C8.44173 87.1064 9.78145 83.9601 11.4798 82.979Z" fill="#455A64"/>
<path d="M14.8829 84.9546C24.6466 79.3183 41.1359 78.256 49.2756 67.7751C49.005 70.441 48.802 72.9784 48.687 75.3533C43.477 80.6783 29.119 84.6163 20.2688 87.8979C18.6785 88.6191 17.3923 89.8765 16.6354 91.4502C16.1855 92.454 15.3666 93.2463 14.3484 93.6627C13.2725 93.9672 12.3997 93.135 12.1899 91.599C11.8449 89.0685 13.1846 85.9222 14.8829 84.9546Z" fill="#37474F"/>
<path d="M21.521 114.374L64.879 139.409L65.5015 134.321L22.1976 109.097C21.9743 110.951 21.7443 112.865 21.521 114.374Z" fill="#263238"/>
<path d="M17.921 101.302V103.142C17.9794 104.236 18.3063 105.298 18.8728 106.235C19.4392 107.172 20.2278 107.955 21.1688 108.515L59.2762 130.769C60.2891 131.229 61.3924 131.456 62.5048 131.434C63.6172 131.412 64.7105 131.141 65.7041 130.64L87.9853 117.696C88.9099 117.094 89.6793 116.282 90.2307 115.326C90.7821 114.37 91.1001 113.297 91.1587 112.195V110.355C91.1004 109.262 90.7735 108.201 90.207 107.265C89.6404 106.329 88.8518 105.548 87.9109 104.989L49.9388 85.0154C48.1458 84.0749 46.6775 83.3306 44.8642 84.2373L21.1824 95.9903C20.2366 96.5307 19.4422 97.3005 18.8722 98.2288C18.3022 99.157 17.9751 100.214 17.921 101.302Z" fill="#FFCA28"/>
<path opacity="0.45" d="M17.921 101.302V103.142C17.9794 104.236 18.3063 105.298 18.8728 106.235C19.4392 107.172 20.2278 107.955 21.1688 108.515L59.2762 130.769C60.2891 131.229 61.3924 131.456 62.5048 131.434C63.6172 131.412 64.7105 131.141 65.7041 130.64L87.9853 117.696C88.9099 117.094 89.6793 116.282 90.2307 115.326C90.7821 114.37 91.1001 113.297 91.1587 112.195V110.355C91.1004 109.262 90.7735 108.201 90.207 107.265C89.6404 106.329 88.8518 105.548 87.9109 104.989L49.9388 85.0154C48.1458 84.0749 46.6775 83.3306 44.8642 84.2373L21.1824 95.9903C20.2366 96.5307 19.4422 97.3005 18.8722 98.2288C18.3022 99.157 17.9751 100.214 17.921 101.302Z" fill="black"/>
<path d="M61.6647 131.405C63.0633 131.546 64.4732 131.281 65.7244 130.64L87.9853 117.703C88.9084 117.099 89.6766 116.286 90.2279 115.331C90.7791 114.375 91.098 113.303 91.1587 112.202V110.355C91.1062 109.35 90.8284 108.37 90.3459 107.486C89.8633 106.603 89.1884 105.84 88.371 105.253C89.7243 106.2 89.5686 107.587 87.9853 108.501L65.7041 121.492C64.6918 122.021 63.5648 122.293 62.4225 122.284L61.6647 131.405Z" fill="#FFCA28"/>
<path opacity="0.6" d="M61.6647 131.405C63.0633 131.546 64.4732 131.281 65.7244 130.64L87.9853 117.703C88.9084 117.099 89.6766 116.286 90.2279 115.331C90.7791 114.375 91.098 113.303 91.1587 112.202V110.355C91.1062 109.35 90.8284 108.37 90.3459 107.486C89.8633 106.603 89.1884 105.84 88.371 105.253C89.7243 106.2 89.5686 107.587 87.9853 108.501L65.7041 121.492C64.6918 122.021 63.5648 122.293 62.4225 122.284L61.6647 131.405Z" fill="black"/>
<path d="M59.2766 121.594L21.1692 99.3395C19.3762 98.399 19.3897 96.8969 21.1692 95.9903L44.851 84.2373C46.6644 83.3306 48.1327 84.0749 49.9257 85.0154L87.9045 104.989C89.6976 105.93 89.7314 107.513 87.9789 108.521L65.7045 121.492C64.7088 121.988 63.6145 122.255 62.5021 122.273C61.3897 122.29 60.2875 122.058 59.2766 121.594Z" fill="#FFCA28"/>
<path d="M59.2766 121.594L21.1692 99.3395C19.3762 98.399 19.3897 96.8969 21.1692 95.9903L44.851 84.2373C46.6644 83.3306 48.1327 84.0749 49.9257 85.0154L87.9045 104.989C89.6976 105.93 89.7314 107.513 87.9789 108.521L65.7045 121.492C64.7088 121.988 63.6145 122.255 62.5021 122.273C61.3897 122.29 60.2875 122.058 59.2766 121.594Z" fill="#FFCA28"/>
<path opacity="0.25" d="M59.2766 121.594L21.1692 99.3395C19.3762 98.399 19.3897 96.8969 21.1692 95.9903L44.851 84.2373C46.6644 83.3306 48.1327 84.0749 49.9257 85.0154L87.9045 104.989C89.6976 105.93 89.7314 107.513 87.9789 108.521L65.7045 121.492C64.7088 121.988 63.6145 122.255 62.5021 122.273C61.3897 122.29 60.2875 122.058 59.2766 121.594Z" fill="black"/>
<path d="M51.7252 54.1548C51.0089 53.247 50.5236 52.1789 50.311 51.0423C46.3934 40.7509 48.4368 28.2536 52.828 20.777C52.9025 20.6416 52.9769 20.5063 53.0581 20.3777C54.3388 18.458 56.2555 17.0516 58.4711 16.406C59.1777 16.1809 59.9095 16.0446 60.6498 16L94.8666 35.7506L100.483 38.9849C101.193 39.4085 101.799 39.9866 102.255 40.6764C102.856 41.5962 103.163 42.6771 103.135 43.7754C103.101 44.7971 103.061 45.8458 103 46.5834L99.3323 41.6508C97.8386 42.4022 96.5673 43.5311 95.6447 44.9256C90.6377 53.106 88.4928 67.7616 94.3253 78.7026C82.7348 87.0995 87.4847 108.792 87.4847 108.792L44.8913 84.278C44.8304 83.9735 40.2158 62.4975 51.7252 54.1548Z" fill="#FFCA28"/>
<path opacity="0.45" d="M51.7252 54.1548C51.0089 53.247 50.5236 52.1789 50.311 51.0423C46.3934 40.7509 48.4368 28.2536 52.828 20.777C52.9025 20.6416 52.9769 20.5063 53.0581 20.3777C54.3388 18.458 56.2555 17.0516 58.4711 16.406C59.1777 16.1809 59.9095 16.0446 60.6498 16L94.8666 35.7506L100.483 38.9849C101.193 39.4085 101.799 39.9866 102.255 40.6764C102.856 41.5962 103.163 42.6771 103.135 43.7754C103.101 44.7971 103.061 45.8458 103 46.5834L99.3323 41.6508C97.8386 42.4022 96.5673 43.5311 95.6447 44.9256C90.6377 53.106 88.4928 67.7616 94.3253 78.7026C82.7348 87.0995 87.4847 108.792 87.4847 108.792L44.8913 84.278C44.8304 83.9735 40.2158 62.4975 51.7252 54.1548Z" fill="black"/>
<path d="M54.2826 18.8824C54.4434 18.7159 54.6128 18.5578 54.7901 18.4088H54.8239C56.3092 17.1629 58.1143 16.3589 60.0339 16.088C60.2357 16.0574 60.439 16.0371 60.6428 16.0271L94.8596 35.7777L98.5134 37.882L100.543 39.039C101.37 39.527 102.05 40.2274 102.514 41.0675C102.978 41.9076 103.209 42.8566 103.182 43.816C103.148 44.8377 103.108 45.8865 103.047 46.624L99.3321 41.6508C98.4333 42.1036 97.6113 42.695 96.8963 43.4032L54.269 18.8621L54.2826 18.8824Z" fill="#FFCA28"/>
<path opacity="0.25" d="M54.2826 18.8824C54.4434 18.7159 54.6128 18.5578 54.7901 18.4088H54.8239C56.3092 17.1629 58.1143 16.3589 60.0339 16.088C60.2357 16.0574 60.439 16.0371 60.6428 16.0271L94.8596 35.7777L98.5134 37.882L100.543 39.039C101.37 39.527 102.05 40.2274 102.514 41.0675C102.978 41.9076 103.209 42.8566 103.182 43.816C103.148 44.8377 103.108 45.8865 103.047 46.624L99.3321 41.6508C98.4333 42.1036 97.6113 42.695 96.8963 43.4032L54.269 18.8621L54.2826 18.8824Z" fill="black"/>
<g opacity="0.3">
<path opacity="0.4" d="M60.426 55.3455C60.3381 56.0221 59.7494 56.2454 59.1607 55.8935C58.8544 55.7011 58.605 55.4303 58.4384 55.1091C58.2719 54.7879 58.1942 54.428 58.2135 54.0667C58.3014 53.3901 58.8901 53.1668 59.4788 53.5186C59.7893 53.7067 60.0419 53.9767 60.209 54.299C60.3761 54.6213 60.4512 54.9833 60.426 55.3455Z" fill="black"/>
<path opacity="0.4" d="M66.8538 59.067C66.7659 59.7437 66.1772 59.9669 65.5885 59.6151C65.2809 59.4235 65.0302 59.153 64.8624 58.8318C64.6946 58.5105 64.6159 58.1502 64.6345 57.7882C64.7225 57.1116 65.3111 56.8883 65.9065 57.2402C66.2129 57.4326 66.4623 57.7035 66.6288 58.0247C66.7954 58.3459 66.8731 58.7057 66.8538 59.067Z" fill="black"/>
<path opacity="0.4" d="M73.3166 62.7884C73.2286 63.465 72.64 63.6883 72.0513 63.3364C71.7449 63.144 71.4955 62.8731 71.329 62.5519C71.1624 62.2307 71.0848 61.8709 71.104 61.5096C71.192 60.8329 71.7806 60.6096 72.3693 60.9615C72.6757 61.1539 72.9251 61.4248 73.0916 61.746C73.2582 62.0672 73.3358 62.4271 73.3166 62.7884Z" fill="black"/>
<path opacity="0.4" d="M79.7643 66.5097C79.6763 67.1863 79.0877 67.4096 78.4923 67.0577C78.1859 66.8653 77.9365 66.5944 77.77 66.2732C77.6034 65.952 77.5257 65.5922 77.545 65.2309C77.6329 64.5542 78.2216 64.331 78.8103 64.6828C79.1179 64.8744 79.3686 65.1449 79.5364 65.4662C79.7042 65.7874 79.7829 66.1477 79.7643 66.5097Z" fill="black"/>
</g>
<path d="M94.3113 78.7296C88.4788 67.7886 90.6237 53.133 95.6646 44.9526C96.7032 43.3897 98.1719 42.1607 99.8935 41.4139C100.262 41.2573 100.664 41.1964 101.062 41.2369C101.461 41.2774 101.842 41.4179 102.172 41.6454C102.501 41.873 102.768 42.1801 102.947 42.5383C103.126 42.8964 103.211 43.294 103.195 43.6941C102.471 64.9401 94.6496 79.4942 94.6496 104.692L87.4977 108.819C87.4977 108.819 82.7208 87.1198 94.3113 78.7296Z" fill="#FFCA28"/>
<path opacity="0.6" d="M94.3113 78.7296C88.4788 67.7886 90.6237 53.133 95.6646 44.9526C96.7032 43.3897 98.1719 42.1607 99.8935 41.4139C100.262 41.2573 100.664 41.1964 101.062 41.2369C101.461 41.2774 101.842 41.4179 102.172 41.6454C102.501 41.873 102.768 42.1801 102.947 42.5383C103.126 42.8964 103.211 43.294 103.195 43.6941C102.471 64.9401 94.6496 79.4942 94.6496 104.692L87.4977 108.819C87.4977 108.819 82.7208 87.1198 94.3113 78.7296Z" fill="black"/>
<path d="M49.6617 84.2034C49.6617 84.2034 38.3148 90.6854 32.8341 94.285C27.3535 97.8847 22.157 101.41 21.2368 104.001C20.2625 106.742 21.1353 112.98 22.3059 118.955C23.4764 124.929 25.7634 135.647 25.7634 135.647L40.3582 108.88L56.2859 96.1796L49.6617 84.2034Z" fill="#FFBE9D"/>
<path opacity="0.15" d="M30.1744 112.73C31.4938 108.711 34.9107 105.815 38.0976 103.406C40.6553 101.491 46.7855 97.1945 49.289 95.4217C48.7739 94.18 48.6535 92.8099 48.9439 91.4973C50.1957 94.9887 51.082 95.8142 51.082 95.8142L35.0528 110.179L25.0794 132.507C25.0794 132.507 28.855 116.756 30.1744 112.73Z" fill="black"/>
<path d="M77.5444 88.2023C77.7406 93.1213 77.8353 95.8211 75.4333 100.497C73.1125 105.016 66.6372 108.616 59.6139 111.722C53.7882 114.279 45.1951 117.953 43.4832 118.488C41.7714 119.022 41.4534 119.99 41.3519 123.136C41.2504 126.283 39.5656 131.256 35.3637 137.244C32.3252 141.685 29.5267 146.286 26.9804 151.027C26.9804 151.027 22.0749 151.467 19.9029 148.368C19.9029 148.368 30.6815 114.922 32.5355 111.004C34.3894 107.087 51.2305 95.679 51.2305 95.679C49.6799 92.0564 49.1375 88.082 49.6608 84.1764L77.5444 88.2023Z" fill="#FFBE9D"/>
<path d="M18.6994 116.255C19.5587 110.673 19.6129 104.523 22.7592 100.977C25.9054 97.4315 47.3273 83.8314 47.3273 83.8314L79.7579 90.0225C80.6036 100.585 75.8876 104.813 70.4543 107.804C66.1239 110.193 56.482 114.699 52.7606 116.424C52.3074 116.635 51.9215 116.967 51.6456 117.384C51.3697 117.801 51.2147 118.286 51.1976 118.786L51.0284 124.517C51.0455 124.982 50.8772 125.434 50.5606 125.775C50.244 126.115 49.8051 126.316 49.3403 126.333C48.8755 126.351 48.423 126.182 48.0823 125.866C47.7416 125.549 47.5406 125.11 47.5235 124.645C47.5488 124.95 47.4849 125.256 47.3395 125.525C47.1941 125.794 46.9736 126.015 46.7048 126.161C46.4742 126.298 46.2157 126.381 45.9486 126.404C45.6814 126.426 45.4125 126.389 45.162 126.293C44.9115 126.197 44.6859 126.046 44.502 125.851C44.318 125.656 44.1806 125.422 44.0998 125.166C43.9494 125.549 43.6692 125.867 43.3082 126.064C42.9472 126.261 42.5284 126.324 42.1251 126.244C41.7219 126.163 41.3598 125.943 41.1023 125.623C40.8449 125.302 40.7084 124.901 40.7167 124.49C40.7134 124.431 40.7134 124.372 40.7167 124.314H40.6829C40.6443 124.759 40.4359 125.173 40.101 125.47C39.766 125.767 39.3299 125.923 38.8828 125.908C38.4356 125.892 38.0115 125.705 37.6981 125.386C37.3846 125.067 37.2057 124.639 37.1983 124.192C37.0621 124.568 36.8006 124.887 36.4577 125.093C36.1147 125.3 35.7112 125.382 35.3147 125.327C34.9182 125.271 34.5528 125.081 34.2798 124.788C34.0068 124.496 33.8428 124.118 33.8152 123.718C33.6143 124.043 33.3134 124.293 32.9579 124.431C32.6025 124.569 32.2117 124.589 31.8444 124.485C31.4772 124.382 31.1534 124.163 30.9218 123.86C30.6902 123.556 30.5635 123.186 30.5606 122.805C30.5606 122.805 30.5606 122.751 30.5606 122.724C30.4029 122.947 30.1942 123.13 29.9519 123.257C29.7095 123.384 29.4404 123.452 29.1668 123.454C28.855 123.446 28.5506 123.358 28.2828 123.198C28.015 123.038 27.7929 122.812 27.6376 122.541C27.4158 122.189 27.3382 121.765 27.4211 121.357C27.2621 121.565 27.0575 121.735 26.8229 121.852C26.5884 121.969 26.3301 122.031 26.0678 122.034C25.8478 122.024 25.6316 121.972 25.4319 121.879C25.2322 121.786 25.0528 121.655 24.9041 121.492C24.6581 121.302 24.4746 121.042 24.377 120.747C24.2793 120.452 24.272 120.134 24.356 119.835C24.1542 120.012 23.9143 120.14 23.655 120.209C23.3956 120.278 23.1238 120.287 22.8607 120.234C22.5303 120.159 22.2279 119.992 21.9884 119.753C21.7489 119.513 21.5821 119.211 21.5074 118.88C21.409 118.446 21.4817 117.991 21.7104 117.608C21.5491 117.778 21.3549 117.913 21.1397 118.005C20.9245 118.097 20.6927 118.144 20.4586 118.143C20.2279 118.144 19.9993 118.099 19.7859 118.011C19.5725 117.924 19.3785 117.795 19.2151 117.632C19.0517 117.469 18.922 117.276 18.8335 117.063C18.745 116.85 18.6994 116.621 18.6994 116.39C18.6994 116.33 18.6994 116.275 18.6994 116.215V116.255Z" fill="#FFCA28"/>
<path opacity="0.15" d="M38.5848 103.048C35.8175 104.543 32.7727 106.201 31.142 110.49C30.0563 113.116 29.3566 115.885 29.0648 118.711C28.9565 119.388 30.6819 112.825 33.8011 108.799C36.5617 105.253 43.355 100.47 38.5848 103.048Z" fill="black"/>
<path opacity="0.05" d="M48.6864 91.0441C49.248 93.5476 52.3876 94.4813 56.9142 94.231C61.4408 93.9806 67.3342 93.8724 65.5073 94.8399C63.6804 95.8075 51.5824 98.9606 47.4888 97.8306C45.2898 97.2284 46.3521 90.2119 47.0287 88.6895C47.7053 87.167 48.206 88.8789 48.6864 91.0441Z" fill="black"/>
<path d="M55.1008 50.8933C52.4552 51.1843 51.3591 51.0828 49.1465 54.4524C47.1166 57.5919 43.5035 67.0105 42.3803 71.4491C41.2571 75.8878 41.4669 77.9244 49.5863 82.3969C57.7058 86.8693 55.1008 50.8933 55.1008 50.8933Z" fill="#EB996E"/>
<path d="M55.1688 50.7921C52.8548 51.0357 51.9007 50.8801 50.2024 52.7272C48.5041 54.5744 47.3741 57.1862 46.0276 60.2107C44.6812 63.2352 42.6445 69.0542 42.1912 72.3561C43.378 72.1701 44.5908 72.2399 45.7484 72.5608C46.906 72.8818 47.9816 73.4464 48.9033 74.2168L55.1688 50.7921Z" fill="#FFCA28"/>
<path opacity="0.3" d="M55.1688 50.7921C52.8548 51.0357 51.9007 50.8801 50.2024 52.7272C48.5041 54.5744 47.3741 57.1862 46.0276 60.2107C44.6812 63.2352 42.6445 69.0542 42.1912 72.3561C43.378 72.1701 44.5908 72.2399 45.7484 72.5608C46.906 72.8818 47.9816 73.4464 48.9033 74.2168L55.1688 50.7921Z" fill="black"/>
<path d="M48.8901 32.3606C48.7916 32.5349 48.7641 32.7404 48.8132 32.9345C48.8624 33.1286 48.9844 33.2962 49.154 33.4026C49.2865 33.4809 49.4397 33.517 49.5932 33.5062C49.7467 33.4953 49.8932 33.4379 50.0133 33.3417C50.1357 33.2322 50.2284 33.0935 50.2828 32.9385C50.3372 32.7836 50.3516 32.6174 50.3246 32.4553C50.2687 32.1304 50.139 31.8225 49.9457 31.5554C49.3502 30.6285 48.5044 29.8571 48.0985 28.8489C47.8812 28.245 47.8006 27.6003 47.8626 26.9615C47.9246 26.3226 48.1277 25.7055 48.4571 25.1546C49.1319 24.0587 50.0904 23.1656 51.2312 22.5699C51.9738 22.1736 52.8052 21.9733 53.6468 21.988C54.2092 21.5275 54.7964 21.0983 55.406 20.7024C59.5469 17.9959 69.6151 16.1623 72.2404 23.9502C78.2691 25.7703 78.4382 34.6611 75.1295 39.2351C73.1741 41.9416 71.2796 44.0662 70.9954 46.0013L53.1934 34.4987C52.2486 35.1931 51.0773 35.507 49.9118 35.3784C49.4256 35.3289 48.9599 35.1566 48.5586 34.8777C48.3644 34.733 48.2066 34.5453 48.0974 34.3293C47.9882 34.1132 47.9306 33.8747 47.9293 33.6327C47.9564 33.159 48.4097 32.4283 48.8901 32.3606Z" fill="#263238"/>
<path d="M74.5004 33.5313C74.2836 33.3036 74.017 33.1294 73.7214 33.0224C73.4259 32.9154 73.1095 32.8784 72.7972 32.9145C72.485 32.9506 72.1854 33.0587 71.922 33.2303C71.6587 33.4019 71.4388 33.6323 71.2796 33.9034C71.0158 34.2688 70.9346 35.0537 70.4271 35.5273C70.2516 35.6685 70.0332 35.7454 69.808 35.7454C69.5828 35.7454 69.3644 35.6685 69.1889 35.5273C68.7491 35.2025 68.7829 34.1741 68.2145 32.7329C67.6717 31.2929 66.9463 29.9285 66.0561 28.6731C65.3051 27.6379 64.3172 26.5079 63.0316 26.1696C60.1289 25.3983 58.2141 27.78 57.4765 27.868C56.739 27.9559 54.5468 25.3577 52.9161 27.0831C51.2854 28.8085 51.0216 30.0264 51.7185 36.3866C52.4492 42.9905 53.8092 45.0474 55.6023 46.2924C56.6511 47.0231 58.417 47.1991 60.8123 46.5969V50.2303C60.1462 51.0866 59.743 52.1179 59.6517 53.1989C59.5604 54.2799 59.785 55.3641 60.2981 56.3199C62.4085 55.881 64.4454 55.1428 66.3471 54.1277C70.5692 51.6648 70.9955 48.62 70.9955 48.62V40.0945C71.462 40.2696 71.9707 40.2986 72.4541 40.1778C72.9375 40.0569 73.3727 39.7919 73.7019 39.4179C75.4206 37.5166 75.9213 34.9251 74.5004 33.5313Z" fill="#FFBE9D"/>
<path d="M72.8149 38.7685C72.8273 38.8469 72.8237 38.927 72.8043 39.004C72.785 39.081 72.7502 39.1533 72.7022 39.2165C72.6541 39.2797 72.5938 39.3325 72.5248 39.3718C72.4558 39.4111 72.3796 39.436 72.3007 39.4451C72.2222 39.4585 72.1417 39.4556 72.0643 39.4366C71.9869 39.4176 71.9143 39.383 71.8508 39.3348C71.7874 39.2866 71.7345 39.2258 71.6955 39.1563C71.6565 39.0869 71.6322 39.0101 71.6241 38.9309C71.6147 38.8553 71.6204 38.7785 71.6408 38.7051C71.6613 38.6318 71.6962 38.5631 71.7434 38.5033C71.7906 38.4435 71.8492 38.3937 71.9159 38.3568C71.9825 38.3198 72.0558 38.2965 72.1316 38.2881C72.2081 38.2735 72.2868 38.2745 72.3629 38.2909C72.4391 38.3073 72.5112 38.3389 72.5749 38.3837C72.6386 38.4285 72.6927 38.4856 72.7339 38.5517C72.7752 38.6178 72.8027 38.6915 72.8149 38.7685Z" fill="#FFCA28"/>
<path d="M67.9576 32.0496C68.2785 32.5985 68.3959 33.2429 68.2891 33.8697C68.0997 34.3493 67.852 34.8038 67.5516 35.2229C67.2743 35.6334 67.0769 36.0925 66.9697 36.5762C66.8985 36.8253 66.8815 37.0868 66.9199 37.3431C66.9582 37.5993 67.0511 37.8444 67.1921 38.0617C67.3332 38.2791 67.5192 38.4637 67.7376 38.6031C67.956 38.7425 68.2018 38.8335 68.4583 38.8699C68.2823 38.7462 68.1541 38.5658 68.095 38.359C68.0359 38.1521 68.0495 37.9312 68.1335 37.7332C68.3126 37.3367 68.6105 37.0056 68.9861 36.7859C69.4682 36.5356 69.9219 36.2338 70.3393 35.886C71.0836 35.1688 71.0701 34.2351 71.3069 33.9035L67.9576 32.0496Z" fill="#263238"/>
<path d="M60.4331 34.2483C60.4635 34.536 60.6005 34.8018 60.8172 34.9934C61.0339 35.185 61.3144 35.2886 61.6036 35.2836C61.9008 35.3351 62.2067 35.2858 62.4728 35.1436C62.7388 35.0014 62.9496 34.7744 63.0719 34.4987C63.0719 34.1874 62.4968 34.7626 61.651 34.6543C60.8052 34.5461 60.4669 33.8288 60.4331 34.2483Z" fill="#263238"/>
<path d="M61.1027 35.2432C61.1027 35.3503 61.1345 35.4549 61.1939 35.5439C61.2534 35.633 61.338 35.7023 61.4369 35.7433C61.5358 35.7843 61.6446 35.795 61.7496 35.7741C61.8546 35.7532 61.9511 35.7017 62.0268 35.626C62.1025 35.5503 62.154 35.4538 62.1749 35.3488C62.1958 35.2438 62.1851 35.135 62.1441 35.0361C62.1031 34.9371 62.0337 34.8526 61.9447 34.7931C61.8557 34.7337 61.7511 34.7019 61.644 34.7019C61.5004 34.7019 61.3628 34.7589 61.2613 34.8604C61.1597 34.962 61.1027 35.0996 61.1027 35.2432Z" fill="#263238"/>
<path d="M53.1455 34.6006C53.1983 34.8844 53.3552 35.1382 53.5856 35.3122C53.8159 35.4863 54.103 35.5679 54.3905 35.5411C54.6919 35.5702 54.9944 35.4973 55.2496 35.3342C55.5047 35.171 55.6978 34.927 55.7979 34.6411C55.7979 34.3299 55.243 34.9456 54.3905 34.905C53.5379 34.8644 53.1455 34.2081 53.1455 34.6006Z" fill="#263238"/>
<path d="M53.999 35.4394C53.9934 35.5105 54.002 35.582 54.0242 35.6498C54.0464 35.7176 54.0818 35.7803 54.1283 35.8344C54.1749 35.8885 54.2316 35.9328 54.2954 35.9649C54.3591 35.997 54.4285 36.0161 54.4997 36.0212C54.5708 36.0261 54.6421 36.017 54.7096 35.9943C54.7772 35.9716 54.8396 35.9358 54.8933 35.889C54.9471 35.8422 54.991 35.7853 55.0227 35.7215C55.0545 35.6577 55.0733 35.5882 55.0782 35.5172C55.0831 35.4461 55.0739 35.3747 55.0512 35.3072C55.0285 35.2396 54.9928 35.1772 54.946 35.1235C54.8991 35.0698 54.8422 35.0258 54.7784 34.9941C54.7146 34.9624 54.6452 34.9435 54.5741 34.9387C54.4316 34.9293 54.2911 34.9767 54.1834 35.0705C54.0757 35.1643 54.0094 35.2969 53.999 35.4394Z" fill="#263238"/>
<path d="M52.7261 33.0847L54.756 31.9074C54.6853 31.7721 54.5878 31.6525 54.4696 31.5558C54.3513 31.4592 54.2147 31.3875 54.068 31.3452C53.9213 31.3028 53.7675 31.2906 53.616 31.3093C53.4644 31.328 53.3182 31.3773 53.1862 31.4541C52.9166 31.6165 52.7191 31.8755 52.6336 32.1784C52.5481 32.4813 52.5812 32.8054 52.7261 33.0847Z" fill="#263238"/>
<path d="M61.6441 31.9076L63.789 32.8549C63.8568 32.7187 63.8962 32.5702 63.9048 32.4183C63.9134 32.2664 63.8911 32.1144 63.8393 31.9714C63.7874 31.8284 63.707 31.6975 63.603 31.5865C63.499 31.4755 63.3735 31.3868 63.2342 31.3257C62.9452 31.1993 62.6186 31.1892 62.3224 31.2976C62.0262 31.406 61.7832 31.6245 61.6441 31.9076Z" fill="#263238"/>
<path d="M61.0152 40.2974L58.735 41.2446C58.803 41.4051 58.9035 41.5496 59.0302 41.6692C59.1569 41.7888 59.3071 41.8807 59.4712 41.9392C59.6353 41.9977 59.8097 42.0215 59.9835 42.0091C60.1573 41.9967 60.3266 41.9484 60.4807 41.8671C60.619 41.7994 60.7427 41.7049 60.8445 41.5893C60.9462 41.4737 61.0242 41.3391 61.0739 41.1932C61.1235 41.0474 61.1439 40.8932 61.1339 40.7395C61.1238 40.5857 61.0835 40.4355 61.0152 40.2974Z" fill="#B16668"/>
<path d="M59.7771 41.996C59.785 41.6709 59.9144 41.3606 60.1399 41.1264C60.3654 40.8921 60.6705 40.7509 60.995 40.7307H61.1168C61.1421 40.9679 61.0899 41.2068 60.9679 41.4118C60.8459 41.6167 60.6607 41.7766 60.4402 41.8674C60.2336 41.9656 60.0055 42.0099 59.7771 41.996Z" fill="#EB996E"/>
<path d="M58.4443 33.0237V38.7547L55.2439 38.1728L58.4443 33.0237Z" fill="#EB996E"/>
<path d="M60.8124 46.5359C62.3686 46.1908 65.0751 45.5007 66.9494 44.1068C67.9075 43.2072 68.6739 42.1232 69.2025 40.9199C69.2025 40.9199 68.9386 43.9038 67.5177 45.1353C66.0968 46.3667 60.8124 47.8418 60.8124 47.8418V46.5359Z" fill="#EB996E"/>
<path d="M50.6698 71.605C50.8187 74.8934 50.5345 84.3391 50.5345 84.3391C60.6026 91.1459 78.0527 85.6043 78.0527 85.6043C77.1799 83.1279 76.395 81.3213 76.5912 79.014L79.5684 66.2056C79.5684 66.2056 74.1554 61.0565 75.0282 51.9965C71.6451 50.738 70.9685 50.0072 70.9685 48.5525H60.7853C60.7853 49.1479 60.7312 49.7366 59.608 50.0207C58.1939 50.3861 55.6633 50.8192 55.6633 50.8192C54.107 52.1724 52.3411 54.1346 50.0338 58.0523C47.2326 62.7954 46.6574 68.1001 50.6698 71.605Z" fill="#FFBE9D"/>
<path d="M79.0879 82.9249C78.6549 80.1372 77.958 79.1493 78.4113 77.3089C78.8646 75.4685 79.9202 67.1596 79.9202 67.1596L76.3273 52.4769L73.3163 51.3131C71.212 56.8073 65.0142 60.6708 57.2533 63.0322C52.95 60.028 54.7295 54.6218 57.2533 50.5417L55.1693 50.8259C55.1693 50.8259 48.6196 56.0562 47.0498 62.1593C45.4801 68.2625 50.3179 72.4508 50.3179 72.4508C50.3179 72.4508 49.8375 77.0924 48.87 82.0791L47.6791 81.3484C47.537 82.1468 47.4084 82.9858 47.3069 83.8654C47.3069 83.8654 47.8686 88.8656 59.8786 91.5315C71.8887 94.1974 79.7375 90.0565 79.7375 90.0565C79.6754 87.6678 79.4584 85.2855 79.0879 82.9249Z" fill="#FFCA28"/>
<path opacity="0.15" d="M61.1167 72.7754C63.1466 74.0271 70.8804 74.2707 72.9644 68.9728C72.9441 74.7444 64.7569 77.0178 61.1167 72.7754Z" fill="black"/>
<path d="M45.6624 70.5832C44.9857 71.6252 44.3768 75.4414 48.1659 79.3184C51.955 83.1955 56.8199 86.3959 63.9447 86.7613C71.0695 87.1267 78.1538 84.0074 77.4298 79.2034C76.7058 74.3994 70.4471 73.2559 67.6323 72.1801C64.8176 71.1042 60.7443 65.7454 55.4125 65.9484C50.0807 66.1514 45.6624 70.5832 45.6624 70.5832Z" fill="#FFCA28"/>
<path opacity="0.7" d="M45.6624 70.5832C44.9857 71.6252 44.3768 75.4414 48.1659 79.3184C51.955 83.1955 56.8199 86.3959 63.9447 86.7613C71.0695 87.1267 78.1538 84.0074 77.4298 79.2034C76.7058 74.3994 70.4471 73.2559 67.6323 72.1801C64.8176 71.1042 60.7443 65.7454 55.4125 65.9484C50.0807 66.1514 45.6624 70.5832 45.6624 70.5832Z" fill="white"/>
<path opacity="0.05" d="M45.663 70.583C46.9734 69.3427 48.4516 68.2927 50.0543 67.4637C53.3359 68.005 56.3266 68.8508 55.4672 70.089C53.6877 72.6264 50.3249 72.2948 48.9108 72.5926C47.4966 72.8903 48.4168 75.2584 49.0393 77.2004C49.6618 79.1423 53.4441 80.4414 53.7215 80.0625C53.999 79.6835 53.5456 78.3777 53.2411 77.2004C53.1942 77.0552 53.1797 76.9015 53.1987 76.7501C53.2177 76.5988 53.2697 76.4534 53.351 76.3244C53.4323 76.1953 53.541 76.0857 53.6693 76.0032C53.7976 75.9207 53.9425 75.8674 54.0937 75.8471C54.0937 75.8471 57.037 80.4008 59.7097 80.827C62.3823 81.2533 70.0485 79.3994 71.5912 78.4115C73.1339 77.4236 72.8564 75.1164 71.5912 73.5398C74.2367 74.5615 76.9568 76.1313 77.4236 79.2032C78.1544 84.0072 71.0702 87.1061 63.9386 86.761C56.8069 86.416 51.9488 83.2088 48.1597 79.3182C44.3706 75.4276 44.9863 71.625 45.663 70.583Z" fill="black"/>
<path d="M49.1476 60.9006C49.1476 61.7979 49.504 62.6584 50.1385 63.2928C50.7729 63.9273 51.6334 64.2837 52.5307 64.2837C53.1778 64.2348 53.7872 63.9599 54.2522 63.5072C54.7173 63.0546 55.0084 62.4529 55.0748 61.8073C55.1668 61.0687 55.069 60.3188 54.7906 59.6286C54.5701 58.9484 54.1047 58.3744 53.4847 58.0182C53.1346 57.7789 52.7296 57.6323 52.3074 57.5919C51.7802 57.594 51.2635 57.739 50.8121 58.0114C50.3088 58.3082 49.8909 58.7304 49.5992 59.2367C49.3075 59.743 49.1519 60.3163 49.1476 60.9006Z" fill="#455A64"/>
<path d="M42.7122 65.0956C42.7122 67.1254 43.1791 68.4787 44.7082 69.5545C45.8449 70.3529 47.3741 71.5303 49.6205 71.7468C52.6721 72.0377 55.3786 70.9754 56.6642 68.5058C57.0939 67.6709 57.1953 66.7052 56.9483 65.7993C56.6594 65.0377 56.2654 64.3203 55.7778 63.6679C55.3583 62.9913 55.1824 62.1658 54.8034 61.4418C54.4587 60.7907 54.0005 60.2064 53.4502 59.7164C52.9342 59.2087 52.3192 58.8126 51.6436 58.5526C50.9654 58.3269 50.254 58.2171 49.5393 58.2279C48.6342 58.2092 47.7347 58.3745 46.8953 58.7135C46.0559 59.0526 45.2941 59.5584 44.6558 60.2005C44.0176 60.8425 43.5162 61.6074 43.1822 62.4488C42.8481 63.2902 42.6882 64.1906 42.7122 65.0956Z" fill="#FFBE9D"/>
<path d="M48.9107 65.9414C48.9107 66.0632 49.0731 65.7248 49.4926 65.4542C49.7447 65.29 50.0467 65.2205 50.3452 65.258C50.4163 65.2643 50.4866 65.2779 50.5549 65.2986C50.6699 65.3324 50.6564 65.1768 50.4399 65.0347C50.3114 64.9451 50.1625 64.8893 50.0068 64.8723C49.748 64.8435 49.4882 64.9174 49.2833 65.0781C49.0783 65.2387 48.9446 65.4734 48.9107 65.7316C48.9039 65.8014 48.9039 65.8716 48.9107 65.9414Z" fill="#B16668"/>
<path d="M53.4235 63.8912C53.4235 63.9927 53.5385 63.6747 53.8836 63.3905C54.09 63.2165 54.3511 63.1207 54.6211 63.1198H54.8173C54.9188 63.1198 54.8917 63.0048 54.6887 62.8966C54.5627 62.8336 54.4237 62.8012 54.2828 62.8018C54.1646 62.795 54.0462 62.8132 53.9356 62.8553C53.8249 62.8974 53.7244 62.9624 53.6407 63.0462C53.557 63.1299 53.4919 63.2304 53.4498 63.341C53.4077 63.4517 53.3895 63.57 53.3964 63.6882C53.3978 63.7567 53.4069 63.8248 53.4235 63.8912Z" fill="#B16668"/>
<path d="M53.0376 65.5354C53.403 65.4136 53.9443 65.7316 53.6195 65.9752C53.2947 66.2188 52.3813 66.7127 52.3542 66.4827C52.3842 66.2817 52.4619 66.0908 52.5808 65.926C52.6997 65.7612 52.8563 65.6272 53.0376 65.5354Z" fill="#EB996E"/>
<path d="M53.9986 67.5654L52.5236 67.8834C52.5805 68.0633 52.7025 68.2155 52.8656 68.3102C53.0288 68.4049 53.2214 68.4354 53.4058 68.3956C53.5902 68.3559 53.7532 68.2488 53.8628 68.0952C53.9724 67.9417 54.0209 67.7528 53.9986 67.5654Z" fill="#B16668"/>
<path d="M41.6978 65.7251C41.6989 66.7226 41.9756 67.7004 42.4974 68.5505C43.0192 69.4006 43.7657 70.09 44.6546 70.5426C45.1732 70.7805 45.7183 70.9554 46.2785 71.0636C46.4679 71.0636 46.6371 71.111 46.786 71.1178H46.9822C47.0632 71.1256 47.1447 71.1256 47.2258 71.1178C46.7713 70.582 46.474 69.931 46.3664 69.2367C46.0687 69.7172 45.1215 69.46 44.7629 69.0744C44.5445 68.8793 44.385 68.6269 44.3025 68.346C44.22 68.065 44.2177 67.7665 44.296 67.4843C44.3564 67.3507 44.4448 67.2316 44.5553 67.1352C44.6658 67.0388 44.7958 66.9673 44.9363 66.9256C45.0769 66.8839 45.2248 66.8729 45.37 66.8934C45.5152 66.9139 45.6543 66.9655 45.7778 67.0445C46.0078 67.2204 46.1702 67.5317 46.4544 67.5655C46.529 67.5729 46.6041 67.5588 46.6709 67.5249C46.7555 67.4809 46.8284 67.4175 46.8837 67.3399C46.939 67.2623 46.9751 67.1726 46.989 67.0783C47.0053 66.8135 46.9365 66.5503 46.7927 66.3273C46.6562 66.0981 46.5494 65.8526 46.4747 65.5965C46.3191 64.8455 46.9822 64.0606 46.7183 63.3434C46.61 63.0524 46.3665 62.7412 46.5424 62.4841C46.637 62.3845 46.7597 62.316 46.8942 62.2878C48.0106 61.9631 49.1812 61.8616 50.2773 61.4894L50.3585 61.4556C50.9023 61.2987 51.4035 61.0206 51.8242 60.642C52.245 60.2635 52.5744 59.7944 52.7876 59.2701C52.8584 58.9972 52.906 58.7188 52.9297 58.4379C52.9736 58.1191 52.9736 57.7958 52.9297 57.4771C52.8504 56.9666 52.6139 56.4935 52.2531 56.1238C52.1245 56.002 51.9418 55.887 51.7794 55.9547C51.617 56.0223 51.5697 56.2727 51.5155 56.4689C51.4362 56.8056 51.227 57.0975 50.9337 57.2808C50.8795 57.0914 50.866 56.9019 50.8186 56.7125C50.79 56.5226 50.7131 56.3432 50.5953 56.1915C50.537 56.1152 50.4608 56.0543 50.3736 56.0142C50.2863 55.9741 50.1905 55.956 50.0946 55.9614C49.8578 55.9952 49.8308 56.1577 49.7496 56.3336C49.6815 56.4526 49.607 56.5678 49.5263 56.6786C49.3274 57.007 49.0624 57.2904 48.7482 57.5109C47.8212 58.1334 44.9726 57.8627 43.3352 59.7911C43.0253 60.1812 42.8087 60.6371 42.702 61.1238C42.5953 61.6104 42.6012 62.1151 42.7194 62.5991L42.645 62.6735C42.0243 63.5698 41.6937 64.6349 41.6978 65.7251Z" fill="#455A64"/>
<path opacity="0.5" d="M48.0983 67.5653C48.0423 67.8265 48.0687 68.0987 48.1738 68.3443C48.2789 68.59 48.4575 68.797 48.6851 68.9369C48.9127 69.0768 49.178 69.1428 49.4446 69.1257C49.7112 69.1086 49.966 69.0093 50.1739 68.8414C50.3817 68.6736 50.5324 68.4455 50.6053 68.1884C50.6782 67.9314 50.6696 67.6581 50.5807 67.4062C50.4919 67.1542 50.3271 66.936 50.1092 66.7815C49.8912 66.6271 49.6307 66.544 49.3635 66.5436C49.061 66.515 48.7593 66.6059 48.5228 66.7968C48.2864 66.9877 48.134 67.2635 48.0983 67.5653Z" fill="#EB996E"/>
<path opacity="0.5" d="M54.6755 64.9877C54.7781 65.2362 54.9552 65.4468 55.1826 65.5904C55.4099 65.7339 55.6761 65.8034 55.9446 65.7893C56.2131 65.7752 56.4706 65.6781 56.6816 65.5114C56.8925 65.3448 57.0466 65.1168 57.1225 64.8588C57.1985 64.6009 57.1925 64.3258 57.1055 64.0714C57.0184 63.8171 56.8546 63.5959 56.6366 63.4386C56.4186 63.2812 56.1571 63.1954 55.8883 63.1929C55.6194 63.1904 55.3565 63.2714 55.1356 63.4247C54.8709 63.5744 54.6748 63.8213 54.589 64.113C54.5031 64.4048 54.5341 64.7185 54.6755 64.9877Z" fill="#EB996E"/>
<path d="M76.3266 52.4767C81.002 54.1412 84.3716 55.1832 84.8723 61.4622C85.2715 66.4557 85.3189 76.1314 85.1159 81.9098C84.9941 85.347 84.6219 87.1198 81.3877 87.7693C74.203 88.8907 66.8967 89 59.6816 88.0941C55.994 87.5461 51.6434 85.8207 49.7962 83.8923C48.9788 82.4905 48.4217 80.9523 48.152 79.3521C48.963 80.0644 49.908 80.6077 50.9315 80.9505C51.955 81.2932 53.0366 81.4284 54.113 81.3482C54.2776 81.3361 54.4363 81.2817 54.5737 81.1905C54.7112 81.0992 54.8228 80.9741 54.8979 80.8272C54.9922 80.5126 54.9632 80.1739 54.8167 79.8799C54.3972 78.7702 53.6259 77.7215 53.7477 76.4968C53.7487 76.3738 53.7786 76.2528 53.835 76.1434C53.8915 76.0341 53.9728 75.9396 54.0724 75.8675C54.1794 75.8176 54.297 75.7945 54.415 75.8004C54.5329 75.8063 54.6476 75.841 54.7491 75.9014C55.4798 76.2803 55.764 77.214 56.3797 77.735C57.1479 78.4384 57.7949 79.2637 58.2946 80.1776C58.6058 80.7122 58.7073 81.3482 59.2418 81.7136C59.8394 82.0291 60.5082 82.1852 61.1837 82.1669C64.303 82.3631 75.3049 80.0829 75.3049 80.0829L74.6824 66.5504C74.6824 66.5504 74.026 56.0628 76.3266 52.4767Z" fill="#FFBE9D"/>
<path d="M76.3271 52.4767C80.1161 53.4713 82.3084 54.175 84.1082 57.1116C85.908 60.0481 85.3464 73.9324 85.2314 82.5932C85.2314 82.5932 79.8996 80.2114 75.3121 80.0829L74.216 64.3041C74.216 64.3041 74.2295 55.535 76.3271 52.4767Z" fill="#FFCA28"/>
<path opacity="0.3" d="M76.3271 52.4767C80.1161 53.4713 82.3084 54.175 84.1082 57.1116C85.908 60.0481 85.3464 73.9324 85.2314 82.5932C85.2314 82.5932 79.8996 80.2114 75.3121 80.0829L74.216 64.3041C74.216 64.3041 74.2295 55.535 76.3271 52.4767Z" fill="black"/>
<path d="M88.9117 94.2719C90.5898 72.8974 96.8147 61.158 98.7295 46.5023C98.7295 46.4144 98.7295 46.3196 98.7295 46.2317C99.0002 44.2018 99.0881 42.314 100.502 41.4953C100.641 41.3812 100.808 41.3071 100.986 41.2809C101.163 41.2546 101.345 41.2773 101.51 41.3465L104.894 43.3087C104.728 43.2393 104.547 43.2159 104.37 43.241C104.192 43.266 104.025 43.3385 103.885 43.4508C102.478 44.2627 102.39 46.1573 102.113 48.1871C102.113 48.2819 102.113 48.3766 102.079 48.4645C100.171 63.127 93.9593 74.8528 92.2678 96.2341C90.5762 117.615 93.9052 128.36 98.8107 138.57L95.4276 136.622C90.5897 126.418 87.2405 115.646 88.9117 94.2719Z" fill="#263238"/>
<path d="M92.3154 96.2341C93.9934 74.8596 100.218 63.1269 102.126 48.4645C102.126 48.3766 102.126 48.2818 102.16 48.1871C102.438 46.1572 102.526 44.2695 103.933 43.4507C104.073 43.3384 104.24 43.2659 104.418 43.2409C104.595 43.2159 104.776 43.2393 104.941 43.3087C105.482 43.6199 105.57 44.7972 105.327 46.3535C105.327 46.5971 105.273 46.8474 105.239 47.091C103.331 61.7534 97.1194 74.0409 95.4211 95.4154C93.7228 116.79 97.0924 125.471 101.998 135.681C101.037 136.601 99.968 137.569 98.8583 138.564C93.919 128.36 90.6374 117.609 92.3154 96.2341Z" fill="#37474F"/>
<path d="M59.8514 161.081C64.7569 145.214 66.4687 133.421 66.4281 111.904C65.4448 112.243 64.4276 112.606 63.3766 112.994C63.4172 134.517 62.0233 144.93 56.6103 161.846C57.6862 161.629 58.7349 161.413 59.8514 161.081Z" fill="#37474F"/>
<path d="M56.6167 161.846C62.0297 144.931 63.4168 134.517 63.3829 112.994L59.9998 111.032C60.0404 132.555 58.6466 142.968 53.2336 159.877L56.6167 161.846Z" fill="#263238"/>
<path d="M92.336 116.127C92.4037 116.803 92.5187 117.703 92.6405 118.637L66.4281 111.905L70.4879 110.511L92.3563 116.127" fill="#37474F"/>
<path d="M72.2871 109.888L82.538 112.52L81.8275 113.427L70.467 110.51L72.2871 109.888Z" fill="#263238"/>
<path d="M76.848 111.059L80.2311 113.028L87.6266 103.555C85.1418 104.912 82.5668 106.096 79.9199 107.1L76.848 111.059Z" fill="#263238"/>
<path opacity="0.15" d="M76.848 111.059L80.2311 113.028L87.6266 103.555C85.1418 104.912 82.5668 106.096 79.9199 107.1L76.848 111.059Z" fill="black"/>
<path d="M80.2444 113.028L81.8277 113.434L92.0447 100.368C90.7326 101.635 89.25 102.712 87.6399 103.569L80.2444 113.028Z" fill="#37474F"/>
<path d="M54.8374 108C64.6011 102.364 81.0972 101.302 89.2302 90.8209L92.6133 92.7831C92.3426 95.449 92.1396 97.9863 92.0246 100.368C86.8146 105.693 72.4567 109.624 63.6065 112.906C62.015 113.629 60.7286 114.889 59.973 116.465C59.5234 117.467 58.7041 118.258 57.686 118.671C57.4996 118.733 57.302 118.753 57.1069 118.731C56.9118 118.709 56.7238 118.644 56.556 118.542C56.035 118.224 53.518 116.776 53.1729 116.6C52.8547 116.38 52.5923 116.089 52.4067 115.749C52.2211 115.41 52.1174 115.031 52.1039 114.645C51.7994 112.135 53.1391 108.981 54.8374 108Z" fill="#455A64"/>
<path d="M58.2403 109.99C68.004 104.353 84.4933 103.291 92.6331 92.8102C92.3624 95.4761 92.1594 98.0134 92.0444 100.395C86.8344 105.72 72.4765 109.651 63.6262 112.933C62.0347 113.656 60.7484 114.916 59.9928 116.492C59.5432 117.494 58.7239 118.285 57.7058 118.698C56.63 119.002 55.7571 118.177 55.5474 116.668C55.2023 114.097 56.542 110.944 58.2403 109.99Z" fill="#37474F"/>
</g>
<defs>
<clipPath id="clip0_126_2442">
<rect width="112" height="112" fill="white" transform="matrix(-1 0 0 1 112 0)"/>
</clipPath>
</defs>
</svg>
