<svg width="64" height="112" viewBox="0 0 64 112" fill="none" xmlns="http://www.w3.org/2000/svg">
<g clip-path="url(#clip0_126_2216)">
<path d="M51.09 180.623C51.0147 178.955 51.0446 177.285 51.1793 175.622C51.7838 167.261 52.8349 155.549 52.5532 147.56C52.2372 138.265 51.1793 135.455 51.1106 133.663C51.1106 133.663 52.7456 119.752 51.7289 99.4728C51.1999 89.0311 46.7897 85.1292 45.9653 80.4992L19.6069 78.1017C18.3017 89.7799 15.7806 118.783 15.6569 132.989C15.602 139.557 15.2035 170.518 14.97 174.11C14.7364 177.703 14.5578 178.919 13.8022 179.977C11.8375 182.814 8.40957 186.029 5.13967 188.77C4.87863 190.075 7.51652 191.085 9.50869 190.7C10.3521 190.483 11.1484 190.113 11.8581 189.608C14.4182 187.818 16.8407 185.838 19.1054 183.687C21.8189 180.877 23.3783 180.767 23.5157 178.04C23.5157 177.703 23.9691 175.58 24.3813 173.712C24.9239 171.232 29.0525 152.279 29.8769 146.88C30.3503 143.293 30.3802 139.661 29.9662 136.067L33.7719 121.256C33.7719 121.256 34.1772 125.247 35.7091 134.665C37.1586 143.596 42.7229 175.697 43.3412 180.279C45.141 190.549 44.5914 193.833 45.6768 196.168C47.2156 199.5 52.0037 196.821 51.8594 192.528C51.7632 188.949 51.145 181.99 51.09 180.623Z" fill="#FFBE9D"/>
<path d="M33.7719 121.256L31.4431 103.911C31.4431 103.911 22.8081 101.506 19.8061 98.4149C19.8061 98.4149 21.3105 103.114 29.3479 105.477L32.0613 121.187L30.0005 135.936L33.7719 121.256Z" fill="#EB996E"/>
<path d="M26.078 48.7688C21.9563 49.5451 19.9848 51.2624 19.4489 56.2703C18.9131 61.2782 20.4244 71.5138 20.4244 71.5138L27.0947 71.1085L26.078 48.7688Z" fill="#26A69A"/>
<path opacity="0.3" d="M26.078 48.7688C21.9563 49.5451 19.9848 51.2624 19.4489 56.2703C18.9131 61.2782 20.4244 71.5138 20.4244 71.5138L27.0947 71.1085L26.078 48.7688Z" fill="black"/>
<path d="M7.30354 85.4659C8.09354 81.612 16.3851 74.0281 18.7482 71.6581L26.3047 71.0811L13.3968 85.3628L7.30354 85.4659Z" fill="#FFBE9D"/>
<path d="M20.0259 29.9531C19.9281 30.1065 19.8878 30.2896 19.9122 30.4699C19.9366 30.6503 20.0241 30.8161 20.1592 30.938C20.2942 31.0599 20.4682 31.13 20.6501 31.1358C20.8319 31.1416 21.01 31.0828 21.1526 30.9698C21.2773 30.8584 21.3726 30.7181 21.4301 30.5611C21.4876 30.4041 21.5056 30.2354 21.4823 30.0699C21.4264 29.7399 21.2999 29.4259 21.1113 29.1493C20.5274 28.2013 19.6825 27.4045 19.284 26.3603C19.0742 25.7443 19.0042 25.0894 19.0791 24.443C19.1539 23.7966 19.3718 23.175 19.7168 22.6233C20.4167 21.5176 21.4079 20.6262 22.5814 20.0472C23.3402 19.6553 24.1873 19.466 25.0407 19.4976C25.6194 19.0373 26.2225 18.6084 26.8474 18.213C31.0997 15.5545 41.3284 13.8577 43.877 21.8127C49.9634 23.7636 49.9772 32.8039 46.5355 37.379C44.509 40.0856 42.5512 42.1877 42.2214 44.1936L24.3606 32.1994C23.3899 32.8878 22.1952 33.1846 21.0152 33.0306C20.5177 32.9772 20.0435 32.7923 19.6413 32.4948C19.4442 32.3478 19.2852 32.1557 19.1776 31.9345C19.07 31.7134 19.017 31.4698 19.023 31.2239C19.0642 30.7431 19.5382 30.008 20.0259 29.9531Z" fill="#263238"/>
<path d="M46.0065 31.5605C45.7908 31.3252 45.5235 31.1432 45.2255 31.0289C44.9275 30.9145 44.607 30.8709 44.2893 30.9016C43.9716 30.9322 43.6654 31.0362 43.3947 31.2054C43.1241 31.3746 42.8964 31.6044 42.7297 31.8765C42.4481 32.2475 42.3519 33.0444 41.8367 33.5115C41.658 33.6536 41.4364 33.731 41.2081 33.731C40.9798 33.731 40.7582 33.6536 40.5795 33.5115C40.133 33.1749 40.188 32.1376 39.6384 30.6606C39.1159 29.1745 38.4048 27.7616 37.5226 26.4565C36.7738 25.3917 35.7915 24.2307 34.4931 23.8598C31.5599 23.0286 29.5746 25.4123 28.8189 25.4879C28.0633 25.5634 25.8925 22.8843 24.2094 24.6086C22.5264 26.3328 22.231 27.5625 22.8355 34.0336C23.4607 40.7451 24.8002 42.8609 26.6 44.1593C27.6579 44.9218 29.444 45.1279 31.8827 44.5577L31.8209 48.2466C31.1348 49.0993 30.7106 50.1326 30.5997 51.2213C30.4887 52.3101 30.6958 53.4076 31.1958 54.3811C33.348 53.9782 35.4305 53.2655 37.3783 52.2653C41.713 49.8404 42.187 46.7697 42.187 46.7697L42.3381 38.1141C42.8064 38.2983 43.3195 38.3365 43.81 38.2237C44.3004 38.1109 44.7452 37.8524 45.086 37.4821C46.8652 35.6548 47.4216 33.0306 46.0065 31.5605Z" fill="#FFBE9D"/>
<path d="M44.1998 36.8844C44.2101 37.0006 44.1858 37.1172 44.13 37.2196C44.0741 37.322 43.9892 37.4055 43.8859 37.4597C43.7826 37.5139 43.6656 37.5364 43.5497 37.5242C43.4337 37.512 43.3239 37.4657 43.2341 37.3913C43.1444 37.3168 43.0787 37.2174 43.0453 37.1057C43.0119 36.9939 43.0124 36.8748 43.0466 36.7633C43.0808 36.6518 43.1473 36.5529 43.2376 36.4791C43.3279 36.4053 43.438 36.3599 43.5541 36.3486C43.7105 36.3352 43.866 36.3839 43.9868 36.4842C44.1077 36.5844 44.1842 36.7282 44.1998 36.8844Z" fill="#26A69A"/>
<path d="M39.3842 29.9736C39.704 30.5332 39.8113 31.1893 39.6865 31.8215C39.4922 32.3116 39.2334 32.7737 38.9171 33.1954C38.6298 33.6115 38.4225 34.0774 38.3057 34.5694C38.2288 34.8211 38.2067 35.0863 38.2409 35.3473C38.2752 35.6083 38.365 35.8588 38.5043 36.0822C38.6436 36.3055 38.8292 36.4963 39.0486 36.6418C39.2679 36.7873 39.5159 36.8841 39.7758 36.9256C39.5989 36.7969 39.4713 36.6117 39.4138 36.4006C39.3564 36.1896 39.3726 35.9653 39.4598 35.7647C39.6528 35.3682 39.9619 35.04 40.346 34.8235C40.8314 34.5704 41.2914 34.2713 41.7199 33.9305C42.4824 33.2435 42.4893 32.2681 42.7366 31.9315L39.3842 29.9736Z" fill="#263238"/>
<path d="M31.711 32.0689C31.7367 32.3611 31.8708 32.6331 32.087 32.8314C32.3031 33.0297 32.5855 33.14 32.8789 33.1406C33.1805 33.1999 33.4934 33.1563 33.7674 33.0169C34.0414 32.8774 34.2606 32.65 34.3901 32.3712C34.3901 32.0552 33.7994 32.6253 32.9407 32.5017C32.082 32.378 31.7522 31.643 31.711 32.0689Z" fill="#263238"/>
<path d="M32.3704 33.0925C32.3677 33.2028 32.3979 33.3114 32.4571 33.4046C32.5162 33.4977 32.6017 33.5711 32.7027 33.6155C32.8037 33.66 32.9157 33.6734 33.0243 33.654C33.1329 33.6347 33.2333 33.5835 33.3128 33.5069C33.3922 33.4304 33.4471 33.3319 33.4705 33.2241C33.4939 33.1162 33.4847 33.0039 33.4441 32.9013C33.4034 32.7987 33.3332 32.7105 33.2424 32.648C33.1515 32.5854 33.0441 32.5512 32.9338 32.5498C32.7879 32.5497 32.6476 32.6062 32.5426 32.7074C32.4375 32.8087 32.3758 32.9467 32.3704 33.0925Z" fill="#263238"/>
<path d="M24.3057 32.2956C24.3559 32.5849 24.5115 32.8453 24.7423 33.0267C24.9732 33.2081 25.263 33.2976 25.5559 33.278C25.8617 33.3121 26.17 33.2427 26.4315 33.0807C26.6931 32.9188 26.8928 32.6738 26.9985 32.3849C26.9985 32.0689 26.4284 32.6872 25.5697 32.6322C24.711 32.5773 24.3125 31.8697 24.3057 32.2956Z" fill="#263238"/>
<path d="M25.185 33.168C25.1815 33.275 25.2094 33.3807 25.2652 33.4721C25.321 33.5636 25.4023 33.6367 25.4991 33.6825C25.5959 33.7283 25.7039 33.7449 25.81 33.7301C25.9161 33.7153 26.0155 33.6699 26.0961 33.5994C26.1767 33.5289 26.235 33.4363 26.2637 33.3331C26.2924 33.23 26.2904 33.1207 26.2578 33.0186C26.2252 32.9166 26.1635 32.8263 26.0803 32.7589C25.9971 32.6914 25.8961 32.6498 25.7895 32.639C25.7146 32.6314 25.6388 32.6394 25.5671 32.6623C25.4953 32.6852 25.429 32.7226 25.3724 32.7722C25.3157 32.8218 25.2698 32.8825 25.2376 32.9506C25.2053 33.0187 25.1874 33.0927 25.185 33.168Z" fill="#263238"/>
<path d="M23.9072 30.75L25.968 29.5959C25.8994 29.4564 25.8029 29.3324 25.6846 29.2316C25.5662 29.1307 25.4285 29.0551 25.2799 29.0094C25.1313 28.9637 24.9749 28.9489 24.8203 28.9659C24.6658 28.9829 24.5163 29.0313 24.3812 29.1082C24.1085 29.2706 23.9079 29.5306 23.8199 29.8355C23.7318 30.1403 23.7631 30.4673 23.9072 30.75Z" fill="#263238"/>
<path d="M32.982 29.7126L35.139 30.7087C35.2119 30.5717 35.2559 30.4211 35.2683 30.2664C35.2806 30.1117 35.2611 29.9562 35.2108 29.8093C35.1606 29.6625 35.0807 29.5275 34.9762 29.4128C34.8717 29.2981 34.7447 29.2061 34.6032 29.1424C34.311 29.0139 33.981 29.0013 33.6799 29.1072C33.3789 29.2131 33.1293 29.4295 32.982 29.7126Z" fill="#263238"/>
<path d="M32.1988 38.2172L29.8357 39.1445C29.8995 39.3104 29.9971 39.4611 30.1224 39.5871C30.2477 39.713 30.3979 39.8115 30.5634 39.8761C30.7289 39.9408 30.906 39.9702 31.0835 39.9625C31.2611 39.9548 31.435 39.9102 31.5943 39.8315C31.7421 39.7678 31.8755 39.6748 31.9866 39.5582C32.0976 39.4416 32.1839 39.3038 32.2404 39.1531C32.2968 39.0023 32.3222 38.8417 32.3151 38.6809C32.308 38.5201 32.2684 38.3623 32.1988 38.2172Z" fill="#B16668"/>
<path d="M30.9073 39.9207C30.9207 39.591 31.0572 39.2782 31.29 39.0442C31.5227 38.8102 31.8347 38.6719 32.1644 38.6567H32.288C32.3111 38.8963 32.2568 39.1368 32.1332 39.3433C32.0096 39.5497 31.8231 39.7112 31.6011 39.8039C31.383 39.8995 31.1447 39.9397 30.9073 39.9207Z" fill="#EB996E"/>
<path d="M29.712 30.7911L29.609 36.6096L26.3735 35.9639L29.712 30.7911Z" fill="#EB996E"/>
<path d="M31.8759 44.5509C33.4628 44.2349 36.2243 43.5754 38.1547 42.1946C39.1398 41.2932 39.936 40.205 40.4972 38.9934C40.4972 38.9934 40.1675 42.0229 38.7111 43.2457C37.2548 44.4684 31.8416 45.8698 31.8416 45.8698L31.8759 44.5509Z" fill="#EB996E"/>
<path d="M21.1388 69.817C21.2281 73.1624 20.7679 82.7454 20.7679 82.7454C30.8729 89.8348 48.6856 84.5109 48.6856 84.5109C47.8407 81.9898 47.085 80.135 47.3117 77.7994L50.561 64.8503C47.4949 60.3295 46.1743 54.8493 46.8446 49.4282C42.6817 48.7412 42.139 48.226 42.1733 46.749L31.8347 46.5704C31.8347 47.175 31.7591 47.7657 30.6188 48.0405C29.1693 48.384 26.6001 48.7824 26.6001 48.7824C24.9926 50.1014 23.1653 52.0867 20.7541 56.0229C17.8277 60.8041 17.127 66.1898 21.1388 69.817Z" fill="#FFBE9D"/>
<path d="M13.6166 81.1311C15.334 74.873 20.1014 69.92 20.1014 69.92C20.1014 69.92 14.9699 65.9838 17.072 59.9523C19.174 53.9209 26.0779 48.7687 26.0779 48.7687L28.0426 48.4596C25.4185 52.5813 23.6736 58.077 27.9808 61.2026C35.9082 58.9425 42.5717 54.5529 44.8043 49.016L46.8651 49.4282L50.8976 65.812C50.8976 65.812 49.6611 74.2341 49.1871 76.1164C48.9075 77.0623 48.8175 78.0542 48.9225 79.0351C49.0274 80.0159 49.3251 80.9664 49.7985 81.8318C50.9113 84.0988 53.6042 88.564 55.0605 95.9899C56.5168 103.416 59.9654 131.086 59.9585 131.464C59.9549 131.701 59.9046 131.936 59.8105 132.154C59.7164 132.371 59.5803 132.569 59.41 132.734C59.2396 132.899 59.0384 133.029 58.8178 133.116C58.5973 133.204 58.3616 133.247 58.1243 133.243C57.713 133.236 57.3171 133.085 57.0046 132.818C57.1487 133.085 57.222 133.386 57.2175 133.69C57.2098 134.049 57.0952 134.398 56.8885 134.691C56.6817 134.985 56.3921 135.21 56.0566 135.339C55.7212 135.467 55.3551 135.492 55.0052 135.411C54.6552 135.331 54.3373 135.148 54.0919 134.885C54.1504 135.065 54.1783 135.253 54.1743 135.442C54.1708 135.679 54.1204 135.913 54.0262 136.13C53.932 136.347 53.7958 136.544 53.6254 136.709C53.455 136.874 53.2537 137.003 53.0332 137.09C52.8126 137.176 52.5771 137.219 52.3402 137.214C52.065 137.21 51.7945 137.143 51.5501 137.016C51.3057 136.89 51.094 136.708 50.9319 136.486C50.9319 136.548 50.9319 136.603 50.9319 136.664C50.9441 137.079 50.8125 137.486 50.5594 137.815C50.3063 138.144 49.9472 138.375 49.543 138.47C49.1388 138.564 48.7143 138.516 48.3414 138.334C47.9686 138.151 47.6703 137.845 47.4972 137.468C47.4768 137.87 47.3231 138.253 47.0605 138.557C46.7979 138.861 46.4413 139.07 46.0471 139.148C45.6529 139.227 45.2437 139.172 44.8843 138.992C44.5248 138.813 44.2356 138.518 44.0624 138.155C44.0266 138.57 43.8478 138.96 43.5566 139.258C43.2653 139.557 42.8796 139.744 42.4653 139.79C42.051 139.835 41.6337 139.735 41.2848 139.507C40.9359 139.279 40.6769 138.938 40.552 138.54C40.4618 138.928 40.2452 139.275 39.9363 139.527C39.6273 139.779 39.2436 139.921 38.8452 139.931C38.4467 139.942 38.0562 139.819 37.7348 139.584C37.4134 139.348 37.1793 139.012 37.0692 138.629C36.9823 139.023 36.7656 139.376 36.4539 139.632C36.1423 139.888 35.7537 140.032 35.3506 140.041C34.9474 140.049 34.553 139.922 34.2306 139.68C33.9082 139.438 33.6765 139.094 33.5726 138.705C33.4524 139.104 33.1967 139.449 32.8495 139.681C32.5023 139.912 32.0852 140.015 31.6703 139.972C31.2553 139.929 30.8684 139.742 30.5761 139.444C30.2839 139.147 30.1046 138.756 30.0691 138.341C29.9319 138.734 29.6623 139.068 29.3064 139.285C28.9505 139.502 28.5303 139.588 28.1176 139.53C27.7049 139.472 27.3252 139.272 27.0435 138.965C26.7617 138.658 26.5952 138.262 26.5725 137.846C26.3953 138.214 26.0985 138.512 25.7304 138.69C25.3624 138.867 24.9449 138.915 24.5462 138.825C24.1475 138.735 23.7911 138.512 23.5353 138.193C23.2795 137.875 23.1394 137.479 23.1378 137.07C22.9406 137.418 22.6328 137.691 22.263 137.845C21.8933 137.999 21.4827 138.025 21.0964 137.92C20.7101 137.814 20.37 137.583 20.1301 137.262C19.8901 136.941 19.764 136.55 19.7717 136.149C19.768 136.078 19.768 136.007 19.7717 135.936C19.5106 136.282 19.1335 136.522 18.7096 136.612C18.2857 136.703 17.8435 136.637 17.4643 136.427C17.085 136.218 16.7941 135.878 16.6451 135.471C16.496 135.064 16.4988 134.617 16.6529 134.212C16.3182 134.519 15.8773 134.684 15.4233 134.672C15.0931 134.667 14.7707 134.571 14.4915 134.395C14.2123 134.218 13.9869 133.969 13.8401 133.673C13.6932 133.377 13.6306 133.047 13.659 132.718C13.6875 132.389 13.8059 132.074 14.0013 131.808C13.7347 132.024 13.4118 132.159 13.0707 132.198C12.7296 132.237 12.3845 132.177 12.0762 132.027C11.7678 131.876 11.5091 131.64 11.3304 131.346C11.1518 131.053 11.0607 130.715 11.068 130.372C10.7774 130.552 10.4412 130.645 10.0994 130.64C9.85692 130.644 9.6162 130.598 9.39224 130.505C9.16828 130.412 8.96588 130.274 8.79766 130.099C8.62944 129.925 8.49899 129.717 8.41447 129.49C8.32996 129.263 8.29318 129.02 8.30642 128.778C9.52233 119.058 9.80398 107.022 11.4183 94.9252C12.1328 89.4364 11.8923 87.3893 13.6166 81.1311Z" fill="#26A69A"/>
<path opacity="0.15" d="M29.2242 71.1085C26.2978 69.5216 23.5637 68.4843 20.129 69.8926C20.129 69.8926 16.7766 67.3234 16.6049 63.1536C16.914 65.4068 19.023 68.0584 23.1584 67.7149C27.9053 67.3165 28.9013 69.1438 32.0476 70.6001C35.1938 72.0565 41.9466 73.3892 44.1517 68.0515C44.0899 71.6581 41.6993 73.506 38.553 73.8838C35.4068 74.2616 32.1232 72.716 29.2242 71.1085Z" fill="black"/>
<path opacity="0.15" d="M26.4764 97.2128C28.1457 96.4846 30.0486 96.5258 31.7728 95.9488C32.7928 95.5719 33.7712 95.0908 34.6924 94.513C35.3345 94.193 35.9325 93.7912 36.4716 93.3177C36.7601 93.0223 37.0898 92.5827 36.4716 92.4796C36.0285 92.4614 35.5846 92.4844 35.1458 92.5483C34.258 92.57 33.3762 92.3965 32.5628 92.04C31.3744 91.511 30.9004 90.7691 31.0378 90.3226C31.1477 89.9791 31.9858 90.2058 33.4353 90.0135C35.2969 89.773 37.8111 88.5571 39.8239 88.8457C40.4018 88.9626 40.9993 88.9401 41.5668 88.78C42.1342 88.6199 42.6554 88.3269 43.0869 87.9251C45.4396 85.9549 47.6268 83.7952 49.6268 81.4678C49.6817 81.5846 49.7229 81.6945 49.7779 81.8181C51.195 84.416 52.4099 87.1191 53.4119 89.9036C50.458 92.0194 47.2293 94.355 45.4432 95.935C42.3382 98.6828 39.6453 100.744 37.5639 101.492C37.1304 101.62 36.6827 101.694 36.2312 101.712C35.3452 101.795 34.4546 101.815 33.5658 101.774C32.398 101.774 31.1408 101.65 30.2615 100.881C30.0559 100.652 29.8089 100.463 29.5334 100.325C29.3088 100.268 29.078 100.241 28.8464 100.242C28.3644 100.183 27.9251 99.936 27.6236 99.5553C27.5156 99.3753 27.389 99.2072 27.2458 99.0538C26.8268 98.6622 26.1055 98.7447 25.7001 98.3668C25.6334 98.3044 25.5878 98.2228 25.5696 98.1333C25.5646 98.0381 25.5912 97.9439 25.6452 97.8654C25.8507 97.5695 26.1403 97.3422 26.4764 97.2128ZM12.1603 95.2C12.7099 91.0439 11.9954 88.4884 12.6824 84.7445C13.1893 85.1946 13.7366 85.597 14.3173 85.9467C14.8119 86.2833 15.4439 86.4894 15.9248 86.8397C17.1905 88.114 18.7642 89.0393 20.493 89.5257C20.6538 89.5642 20.7952 89.6593 20.8915 89.7937C21.0289 90.041 20.8434 90.3432 20.6373 90.5218C20.3123 90.7661 19.9388 90.9379 19.5418 91.0256C19.1448 91.1133 18.7336 91.1148 18.336 91.0302C17.5434 90.8538 16.7685 90.6055 16.021 90.2883C15.9317 90.2539 15.8149 90.2264 15.7462 90.2883C15.7226 90.3277 15.7101 90.3728 15.7101 90.4188C15.7101 90.4648 15.7226 90.5099 15.7462 90.5493C16.3507 92.7682 17.9857 94.6092 19.7717 95.9968C20.6757 96.5611 21.5473 97.1757 22.3822 97.8379C22.652 98.0638 22.8482 98.3652 22.9455 98.7034C22.9763 98.7948 22.9763 98.8938 22.9455 98.9851C22.8996 99.061 22.8294 99.1192 22.7463 99.15C22.2173 99.3904 21.5784 99.0607 21.0495 99.2805C20.8592 99.3729 20.6795 99.4858 20.5137 99.6171C20.3105 99.7427 20.0845 99.8268 19.8487 99.8646C19.6129 99.9023 19.3719 99.8929 19.1397 99.8369C18.9169 99.7619 18.6866 99.7113 18.4528 99.6858C18.1353 99.7165 17.8271 99.8099 17.546 99.9606C16.3644 100.407 15.2791 99.9606 14.1731 99.5415L14.0631 99.5003C13.5277 99.3428 13.0168 99.1116 12.545 98.8134C12.2638 98.603 12.0099 98.3584 11.7893 98.0852C11.9267 97.096 12.0504 96.1411 12.1809 95.1862L12.1603 95.2Z" fill="black"/>
<path d="M20.6923 97.1509C20.7203 97.2404 20.7203 97.3362 20.6923 97.4257C20.6459 97.5054 20.573 97.5662 20.4862 97.5974C19.9641 97.831 19.3252 97.5013 18.7894 97.7211C18.6013 97.8136 18.4239 97.9265 18.2605 98.0577C18.058 98.1848 17.8322 98.2704 17.5963 98.3093C17.3604 98.3482 17.1191 98.3398 16.8866 98.2844C16.6641 98.2064 16.4337 98.1535 16.1996 98.1264C15.8927 98.1618 15.5948 98.2526 15.3203 98.3943C14.1387 98.8408 13.0533 98.3943 11.9542 97.9753C11.9131 97.9689 11.8735 97.9549 11.8374 97.9341C11.301 97.7794 10.7896 97.548 10.3193 97.2471C9.9376 96.9535 9.59785 96.6091 9.30946 96.2235C8.83763 95.7234 8.4101 95.1833 8.03172 94.6092C7.72812 93.9733 7.49766 93.3049 7.34476 92.617C6.98007 91.2751 6.82709 89.8844 6.89137 88.4953C6.96694 86.9084 7.20738 84.2431 8.81486 83.3912C9.38503 83.0821 10.4086 82.5944 10.9513 83.1577C11.2952 83.6105 11.6867 84.025 12.1191 84.3942C12.6206 84.7377 13.2457 84.9438 13.7334 85.2872C14.4942 85.9651 15.3099 86.5786 16.1721 87.1214C16.863 87.4454 17.5717 87.7298 18.2948 87.9732C18.4555 88.0117 18.597 88.1068 18.6933 88.2411C18.8306 88.4884 18.652 88.7907 18.4391 88.9693C18.1151 89.2156 17.7418 89.3891 17.3447 89.478C16.9475 89.5669 16.5359 89.5691 16.1378 89.4845C15.3482 89.305 14.5759 89.0567 13.8296 88.7426C13.7334 88.7083 13.6167 88.6808 13.5548 88.7426C13.5311 88.7807 13.5185 88.8248 13.5185 88.8697C13.5185 88.9146 13.5311 88.9586 13.5548 88.9968C14.2634 91.2008 15.6629 93.1182 17.546 94.4649C18.4447 95.0339 19.3137 95.6483 20.1496 96.306C20.4097 96.5281 20.5985 96.822 20.6923 97.1509Z" fill="#FFBE9D"/>
<path d="M12.703 84.7308C12.5263 84.6384 12.3642 84.5203 12.2221 84.3804C12.1001 84.247 12.0108 84.0871 11.9611 83.9133C11.8697 83.5305 11.858 83.133 11.9267 82.7455C11.7916 82.9205 11.6989 83.1246 11.656 83.3415C11.6131 83.5585 11.6211 83.7824 11.6794 83.9957C11.7414 84.2161 11.8765 84.4089 12.0625 84.5425C12.2485 84.6761 12.4743 84.7425 12.703 84.7308Z" fill="#EB996E"/>
<path d="M53.1508 76.1095C52.1067 77.3392 47.3049 83.1714 43.6297 86.0291C43.1975 86.4302 42.6766 86.7232 42.1095 86.8844C41.5423 87.0456 40.9451 87.0703 40.3666 86.9565C38.3539 86.668 35.8396 87.8839 33.978 88.1244C32.5285 88.3098 31.6904 88.0831 31.5805 88.4266C31.4431 88.8731 31.9171 89.6151 33.1055 90.144C33.9179 90.5038 34.8004 90.6774 35.6885 90.6523C36.1273 90.5884 36.5712 90.5654 37.0143 90.5837C37.6463 90.6867 37.3166 91.1332 37.0143 91.4217C36.477 91.8975 35.8787 92.2995 35.2351 92.617C34.3142 93.1972 33.3358 93.6806 32.3155 94.0596C30.5913 94.6298 28.6884 94.5955 27.0191 95.3236C26.6848 95.4388 26.3944 95.6548 26.1879 95.9419C26.1324 96.0197 26.1057 96.1144 26.1123 96.2098C26.1305 96.2974 26.1763 96.3768 26.2429 96.4365C26.6482 96.8418 27.3695 96.7594 27.7885 97.1234C27.9301 97.2782 28.0566 97.4462 28.1663 97.6249C28.3146 97.8146 28.499 97.973 28.7089 98.0909C28.9188 98.2088 29.15 98.2839 29.3891 98.3119C29.6202 98.3173 29.8502 98.3449 30.0761 98.3943C30.3502 98.5347 30.5968 98.7231 30.8042 98.9507C31.6835 99.7201 32.9407 99.8163 34.1085 99.8507C34.9974 99.885 35.8875 99.8643 36.7739 99.7888C37.2254 99.7653 37.6726 99.6892 38.1066 99.5621C40.1674 98.8271 42.8809 96.78 45.9859 94.0115C49.0909 91.2431 56.7024 86.2215 59.3884 84.0232C63.7574 80.506 64.7398 79.4962 63.5101 75.4913C62.6858 72.819 58.7427 61.498 56.6406 56.7649C53.6935 50.019 50.6229 50.548 46.8378 49.4489C45.8691 51.1868 45.4638 58.1938 47.2431 62.5422C50.197 69.398 53.1508 76.1095 53.1508 76.1095Z" fill="#FFBE9D"/>
<path d="M46.8514 49.4282C48.5139 49.7099 52.4089 50.4037 53.7622 51.6883C55.8918 53.7011 56.9771 56.4008 58.6808 60.9965C60.3844 65.5922 63.0223 73.9868 63.0223 73.9868C63.0223 73.9868 59.5876 72.4137 53.1508 76.1095L47.5109 63.6344C47.5109 63.6344 43.7876 56.4145 46.8514 49.4282Z" fill="#26A69A"/>
<path opacity="0.3" d="M46.8514 49.4282C48.5139 49.7099 52.4089 50.4037 53.7622 51.6883C55.8918 53.7011 56.9771 56.4008 58.6808 60.9965C60.3844 65.5922 63.0223 73.9868 63.0223 73.9868C63.0223 73.9868 59.5876 72.4137 53.1508 76.1095L47.5109 63.6344C47.5109 63.6344 43.7876 56.4145 46.8514 49.4282Z" fill="black"/>
</g>
<defs>
<clipPath id="clip0_126_2216">
<rect width="64" height="112" fill="white" transform="matrix(-1 0 0 1 64 0)"/>
</clipPath>
</defs>
</svg>
