<svg width="64" height="112" viewBox="0 0 64 112" fill="none" xmlns="http://www.w3.org/2000/svg">
<g clip-path="url(#clip0_126_2282)">
<path d="M52.3433 184.675C52.2588 182.968 52.287 181.256 52.4277 179.552C53.047 170.987 54.1238 158.988 53.8353 150.803C53.5045 141.28 52.4277 138.395 52.3503 136.558C52.3503 136.558 54.0323 122.314 52.9837 101.538C52.4488 90.8337 47.9306 86.8363 47.086 82.0928L20.061 79.6437C18.7238 91.6079 16.141 121.314 16.0213 135.868C15.965 142.604 15.5568 174.316 15.3175 177.997C15.0783 181.677 14.8882 182.923 14.1211 184.014C12.1013 186.92 8.58942 190.207 5.23944 193.015C4.97904 194.352 7.68156 195.394 9.71547 195C10.5816 194.777 11.3997 194.398 12.1294 193.881C14.7472 192.043 17.2265 190.015 19.5472 187.814C22.3272 184.936 23.9247 184.823 24.0655 182.029C24.0655 181.677 24.53 179.51 24.9522 177.595C25.5082 175.055 29.7379 155.638 30.5825 150.106C31.063 146.431 31.0914 142.71 30.6669 139.028L34.587 123.827C34.587 123.827 35.0022 127.909 36.5716 137.565C38.0566 146.714 43.7572 179.601 44.3976 184.295C46.2345 194.817 45.6714 198.181 46.7834 200.574C48.3669 203.98 53.2652 201.242 53.1174 196.844C53.0329 193.198 52.3925 186.076 52.3433 184.675Z" fill="#FFBE9D"/>
<path d="M34.5869 123.827L32.2011 106.049C32.2011 106.049 23.3546 103.593 20.2791 100.419C20.2791 100.419 21.8204 105.233 30.0546 107.661L32.8345 123.749L30.7232 138.859L34.5869 123.827Z" fill="#EB996E"/>
<path d="M25.1775 49.5642C20.9549 50.3595 18.935 52.1189 18.3861 57.2495C17.8371 62.38 18.4987 73.0281 18.4987 73.0281L26.2402 72.437L25.1775 49.5642Z" fill="#42A5F5"/>
<path opacity="0.3" d="M25.1775 49.5642C20.9549 50.3595 18.935 52.1189 18.3861 57.2495C17.8371 62.38 18.4987 73.0281 18.4987 73.0281L26.2402 72.437L25.1775 49.5642Z" fill="black"/>
<path d="M10.3349 87.7371C11.1442 83.7889 16.0777 75.4562 18.4987 73.0282L26.2402 72.437L15.395 86.1255L10.3349 87.7371Z" fill="#FFBE9D"/>
<path d="M18.9772 30.2877C18.8731 30.4684 18.842 30.6821 18.8905 30.885C18.9389 31.0878 19.0631 31.2644 19.2376 31.3786C19.3749 31.4592 19.533 31.4975 19.692 31.4888C19.8509 31.48 20.0038 31.4246 20.1314 31.3293C20.2592 31.2153 20.3568 31.0715 20.4158 30.9107C20.4747 30.7498 20.4931 30.577 20.4692 30.4074C20.4157 30.0695 20.2883 29.7475 20.0962 29.4643C19.491 28.4931 18.6253 27.6767 18.2171 26.607C18.0045 25.9744 17.9341 25.3027 18.0107 24.6397C18.0873 23.9767 18.3092 23.3388 18.6605 22.7714C19.3796 21.6421 20.3947 20.7317 21.5953 20.1393C22.3752 19.7378 23.2453 19.5439 24.1218 19.5763C24.7124 19.1037 25.3305 18.6666 25.9728 18.2672C30.3221 15.5436 40.8013 13.8053 43.4194 21.955C49.6478 23.9537 49.6689 33.2155 46.143 37.9026C44.0317 40.6755 42.0541 42.8291 41.7233 44.8841L23.4251 32.5961C22.4252 33.2955 21.2014 33.599 19.9907 33.4477C19.4814 33.3917 18.9959 33.2023 18.5831 32.8988C18.3837 32.7458 18.2226 32.5485 18.1127 32.3225C18.0028 32.0965 17.947 31.8481 17.9497 31.5968C17.999 31.0971 18.4775 30.344 18.9772 30.2877Z" fill="#263238"/>
<path d="M45.594 31.9346C45.3731 31.6935 45.0992 31.5071 44.7939 31.3899C44.4886 31.2728 44.1602 31.2281 43.8348 31.2595C43.5093 31.2909 43.1955 31.3975 42.9182 31.5708C42.641 31.7441 42.4077 31.9795 42.237 32.2584C41.9554 32.6384 41.8569 33.4548 41.3221 33.9333C41.139 34.0789 40.912 34.1582 40.6781 34.1582C40.4442 34.1582 40.2172 34.0789 40.0341 33.9333C39.5837 33.5885 39.633 32.5258 39.077 31.0127C38.5361 29.4979 37.8054 28.0577 36.9023 26.7267C36.1423 25.6358 35.1288 24.4394 33.7987 24.0664C30.7935 23.2148 28.7596 25.6569 27.9925 25.7273C27.2254 25.7977 24.9874 23.067 23.2631 24.8335C21.5389 26.6 21.2362 27.8597 21.8556 34.4893C22.489 41.3652 23.8684 43.5329 25.7123 44.863C26.7891 45.6371 28.6189 45.8483 31.1173 45.2712L31.0539 49.0505C30.3527 49.9248 29.9191 50.9832 29.8055 52.0983C29.6919 53.2133 29.903 54.3374 30.4135 55.3352C32.6184 54.9223 34.7519 54.1922 36.7475 53.1676C41.1883 50.6832 41.6739 47.5374 41.6739 47.5374L41.8288 38.6698C42.3085 38.8585 42.8342 38.8977 43.3366 38.7821C43.8391 38.6665 44.2948 38.4017 44.6439 38.0223C46.4807 36.1151 47.0438 33.4407 45.594 31.9346Z" fill="#FFBE9D"/>
<path d="M43.736 37.3889C43.742 37.5436 43.6886 37.6948 43.5865 37.8112C43.4845 37.9277 43.3417 38.0007 43.1876 38.0151C43.0334 38.0295 42.8796 37.9843 42.7577 37.8888C42.6359 37.7932 42.5553 37.6546 42.5325 37.5015C42.5204 37.4201 42.525 37.3372 42.5461 37.2577C42.5671 37.1781 42.6042 37.1038 42.6549 37.039C42.7057 36.9743 42.7691 36.9206 42.8413 36.8812C42.9134 36.8418 42.9929 36.8175 43.0748 36.8099C43.1567 36.8022 43.2393 36.8113 43.3175 36.8367C43.3958 36.862 43.4681 36.903 43.5299 36.9572C43.5918 37.0113 43.642 37.0776 43.6774 37.1518C43.7128 37.226 43.7328 37.3067 43.736 37.3889Z" fill="#42A5F5"/>
<path d="M38.8097 30.3088C39.1313 30.8842 39.2409 31.5542 39.1193 32.202C38.912 32.6891 38.6474 33.1498 38.3311 33.5744C38.0318 33.9987 37.8167 34.4765 37.6977 34.9819C37.6189 35.2398 37.5962 35.5116 37.6313 35.7789C37.6664 36.0463 37.7585 36.303 37.9012 36.5318C38.0439 36.7605 38.234 36.9561 38.4587 37.1051C38.6834 37.2542 38.9375 37.3533 39.2038 37.3959C39.0217 37.2647 38.8907 37.0746 38.833 36.8578C38.7752 36.6409 38.7943 36.4108 38.8871 36.2065C39.0799 35.7993 39.3947 35.4623 39.7879 35.2423C40.2887 34.9861 40.7606 34.6771 41.1955 34.3204C41.9837 33.6166 41.9837 32.6243 42.2371 32.2794L38.8097 30.3088Z" fill="#263238"/>
<path d="M30.9554 32.4554C30.9801 32.7541 31.116 33.0327 31.3363 33.236C31.5565 33.4393 31.8451 33.5525 32.1448 33.5533C32.4539 33.6141 32.7744 33.5694 33.0551 33.4265C33.3358 33.2836 33.5604 33.0507 33.6931 32.765C33.6931 32.4413 33.0879 33.0254 32.2152 32.8987C31.3425 32.7721 30.9906 32.019 30.9554 32.4554Z" fill="#263238"/>
<path d="M31.6312 33.504C31.6312 33.6533 31.6905 33.7965 31.7961 33.9021C31.9016 34.0077 32.0449 34.067 32.1942 34.067C32.3435 34.067 32.4867 34.0077 32.5923 33.9021C32.6979 33.7965 32.7572 33.6533 32.7572 33.504C32.7572 33.3547 32.6979 33.2115 32.5923 33.1059C32.4867 33.0003 32.3435 32.941 32.1942 32.941C32.0449 32.941 31.9016 33.0003 31.7961 33.1059C31.6905 33.2115 31.6312 33.3547 31.6312 33.504Z" fill="#263238"/>
<path d="M23.3687 32.6876C23.4156 32.9843 23.5731 33.2521 23.8093 33.4375C24.0456 33.6229 24.3433 33.712 24.6425 33.687C24.9549 33.7224 25.2701 33.6523 25.538 33.4878C25.8058 33.3232 26.0109 33.0738 26.1205 32.7791C26.1205 32.4554 25.5434 33.0888 24.6566 33.0325C23.7699 32.9762 23.3687 32.2513 23.3687 32.6876Z" fill="#263238"/>
<path d="M24.2626 33.5814C24.2534 33.6922 24.2771 33.8032 24.3309 33.9006C24.3846 33.9979 24.466 34.0771 24.5647 34.1282C24.6634 34.1794 24.775 34.2002 24.8855 34.1879C24.996 34.1757 25.1004 34.1311 25.1856 34.0596C25.2708 33.9882 25.3329 33.8931 25.3641 33.7864C25.3953 33.6797 25.3942 33.5661 25.361 33.4601C25.3278 33.354 25.2639 33.2601 25.1774 33.1903C25.0909 33.1204 24.9856 33.0778 24.8749 33.0676C24.8009 33.0609 24.7263 33.0688 24.6554 33.091C24.5845 33.1132 24.5187 33.1493 24.4618 33.197C24.4049 33.2448 24.358 33.3033 24.3238 33.3693C24.2896 33.4353 24.2688 33.5074 24.2626 33.5814Z" fill="#263238"/>
<path d="M22.9606 31.1041L25.0719 29.9218C25.0023 29.7791 24.9041 29.6522 24.7835 29.5489C24.6629 29.4457 24.5225 29.3682 24.3708 29.3214C24.2191 29.2745 24.0594 29.2593 23.9015 29.2766C23.7437 29.294 23.5911 29.3435 23.4532 29.4221C23.1701 29.5849 22.9608 29.8508 22.8691 30.1642C22.7773 30.4776 22.81 30.8143 22.9606 31.1041Z" fill="#263238"/>
<path d="M32.2575 30.0414L34.4673 31.0619C34.54 30.9211 34.5834 30.7671 34.595 30.6091C34.6066 30.4511 34.5861 30.2924 34.5349 30.1426C34.4836 29.9927 34.4026 29.8547 34.2966 29.737C34.1907 29.6192 34.062 29.5241 33.9184 29.4573C33.6196 29.3221 33.2801 29.3074 32.9708 29.4162C32.6614 29.525 32.4059 29.749 32.2575 30.0414Z" fill="#263238"/>
<path d="M31.4482 38.7542L29.0342 39.7043C29.0979 39.8747 29.1967 40.0297 29.3242 40.1593C29.4518 40.289 29.6052 40.3903 29.7745 40.4567C29.9438 40.523 30.1252 40.553 30.3069 40.5447C30.4885 40.5363 30.6664 40.4898 30.8289 40.4081C30.9817 40.3444 31.1197 40.2501 31.2346 40.1309C31.3495 40.0117 31.4387 39.8703 31.4967 39.7153C31.5548 39.5603 31.5804 39.395 31.5721 39.2297C31.5637 39.0644 31.5216 38.9026 31.4482 38.7542Z" fill="#B16668"/>
<path d="M30.1251 40.4995C30.142 40.1627 30.2829 39.8441 30.5207 39.605C30.7585 39.3659 31.0763 39.2233 31.413 39.2046H31.5397C31.564 39.4492 31.5086 39.695 31.3818 39.9056C31.2549 40.1161 31.0635 40.28 30.8359 40.3729C30.614 40.4762 30.369 40.5198 30.1251 40.4995Z" fill="#EB996E"/>
<path d="M28.9075 31.1464L28.8019 37.1074L25.4801 36.4458L28.9075 31.1464Z" fill="#EB996E"/>
<path d="M31.1173 45.2641C32.7501 44.9333 35.5722 44.2648 37.5498 42.8502C38.5611 41.9285 39.3772 40.8133 39.9497 39.5706C39.9497 39.5706 39.6189 42.6742 38.1269 43.9269C36.6349 45.1797 31.0892 46.6154 31.0892 46.6154L31.1173 45.2641Z" fill="#EB996E"/>
<path d="M20.1174 71.128C20.2089 74.5553 19.7444 84.373 19.7444 84.373C30.0899 91.636 48.3388 86.1817 48.3388 86.1817C47.4732 83.5989 46.699 81.6987 46.9313 79.3058L50.2601 66.0396C47.1182 61.4083 45.7629 55.7945 46.4457 50.2398C42.1808 49.5361 41.6248 49.0082 41.66 47.4951L31.0681 47.3121C31.0681 47.9315 30.9978 48.5367 29.8225 48.8182C28.3445 49.1701 25.7054 49.5783 25.7054 49.5783C24.0656 50.9295 22.1865 52.9635 19.7162 56.9961C16.7252 61.9014 16.0073 67.412 20.1174 71.128Z" fill="#FFBE9D"/>
<path d="M54.8628 97.9137C53.3638 90.3058 50.6402 85.7243 49.4719 83.4018C48.9838 82.5176 48.6771 81.5449 48.5695 80.5407C48.462 79.5365 48.5558 78.5209 48.8456 77.5534C49.3241 75.6532 50.598 66.9968 50.598 66.9968L46.4597 50.2187L44.3484 49.7894C42.0611 55.4689 35.2345 59.966 27.12 62.2814C22.7002 59.0793 24.4949 53.4279 27.1763 49.2264L25.1634 49.5431C25.1634 49.5431 18.2523 54.8636 16.5492 61.1835C14.8461 67.5035 19.7584 71.9513 19.7584 71.9513C19.7584 71.9513 17.4641 73.4011 15.5358 80.7908C15.1132 82.325 14.8445 83.8975 14.7335 85.485C14.3253 89.5035 13.7271 92.9802 12.9811 100.264C11.5735 114.171 9.84221 132.547 9.83517 133.088C9.83051 133.331 9.87384 133.572 9.96266 133.798C10.0515 134.024 10.1841 134.231 10.3528 134.405C10.5215 134.58 10.723 134.719 10.9458 134.816C11.1685 134.912 11.4082 134.964 11.6509 134.968C12.0834 134.978 12.5054 134.833 12.8403 134.559C12.6129 134.865 12.4873 135.234 12.4814 135.615C12.4777 135.858 12.5219 136.1 12.6114 136.326C12.701 136.552 12.8343 136.758 13.0035 136.932C13.1728 137.107 13.3748 137.246 13.598 137.342C13.8211 137.439 14.0611 137.49 14.3042 137.494C14.7667 137.503 15.215 137.334 15.5569 137.023C15.4821 137.218 15.4417 137.425 15.4373 137.635C15.4307 138.025 15.5474 138.406 15.7706 138.726C15.9939 139.045 16.3122 139.286 16.6804 139.414C17.0486 139.542 17.4478 139.551 17.821 139.438C18.1943 139.326 18.5226 139.099 18.7591 138.789C18.7518 138.862 18.7518 138.935 18.7591 139.007C18.7545 139.417 18.8859 139.816 19.1326 140.143C19.3793 140.47 19.7275 140.706 20.1226 140.814C20.5176 140.921 20.9373 140.895 21.3159 140.739C21.6945 140.583 22.0105 140.305 22.2146 139.95C22.209 140.373 22.3486 140.785 22.6103 141.116C22.8719 141.448 23.2397 141.68 23.6519 141.774C24.0641 141.867 24.4958 141.815 24.8748 141.628C25.2537 141.441 25.5569 141.13 25.7335 140.746C25.7568 141.172 25.9273 141.577 26.216 141.892C26.5047 142.206 26.8936 142.411 27.3164 142.471C27.7392 142.531 28.1697 142.442 28.5343 142.22C28.8989 141.997 29.1751 141.655 29.3157 141.252C29.3561 141.676 29.542 142.073 29.842 142.376C30.1419 142.678 30.5374 142.868 30.9611 142.912C31.3849 142.956 31.8107 142.852 32.1664 142.617C32.522 142.382 32.7855 142.032 32.912 141.625C33.0184 142.024 33.2558 142.376 33.5861 142.625C33.9165 142.873 34.3205 143.003 34.7336 142.994C35.1466 142.985 35.5447 142.838 35.864 142.575C36.1832 142.313 36.4052 141.951 36.4943 141.548C36.6013 141.927 36.8274 142.262 37.1391 142.502C37.4509 142.743 37.8318 142.877 38.2256 142.885C38.6458 142.893 39.0563 142.758 39.3899 142.502C39.7235 142.247 39.9606 141.885 40.0624 141.477C40.1868 141.887 40.4507 142.241 40.8083 142.477C41.1659 142.713 41.5947 142.817 42.0206 142.77C42.4465 142.723 42.8426 142.529 43.1405 142.221C43.4383 141.913 43.6192 141.511 43.6517 141.083C43.8291 141.455 44.1254 141.757 44.4937 141.941C44.862 142.125 45.2812 142.182 45.685 142.101C46.0888 142.02 46.4542 141.807 46.7232 141.495C46.9923 141.183 47.1497 140.791 47.1706 140.38C47.3589 140.746 47.6645 141.039 48.0386 141.211C48.4127 141.384 48.8337 141.426 49.2346 141.331C49.6355 141.236 49.9931 141.01 50.2504 140.688C50.5077 140.367 50.6499 139.968 50.6543 139.556C50.6577 139.495 50.6577 139.434 50.6543 139.373C50.8175 139.596 51.0288 139.778 51.2726 139.907C51.5163 140.037 51.7861 140.109 52.0618 140.119C52.3049 140.124 52.5465 140.081 52.7729 139.992C52.9992 139.903 53.2059 139.771 53.381 139.602C53.5562 139.433 53.6964 139.232 53.7937 139.009C53.8909 138.786 53.9434 138.547 53.9479 138.303C53.9461 138.11 53.9153 137.918 53.8565 137.733C54.1082 138.002 54.4346 138.19 54.7938 138.273C55.1529 138.355 55.5285 138.329 55.8724 138.196C56.2164 138.064 56.513 137.832 56.7243 137.53C56.9357 137.228 57.0521 136.87 57.0586 136.502C57.0626 136.192 56.9875 135.887 56.8405 135.615C57.1638 135.884 57.5674 136.037 57.9876 136.051C58.4787 136.057 58.9521 135.869 59.3053 135.528C59.6584 135.186 59.8627 134.72 59.8737 134.229C59.8878 133.87 56.3549 105.522 54.8628 97.9137Z" fill="#42A5F5"/>
<path opacity="0.15" d="M19.7725 72.0076C17.8138 70.0757 16.5725 67.5336 16.2536 64.801C16.2503 64.7871 16.2503 64.7726 16.2536 64.7587C16.4225 67.1727 19.3713 70.4382 21.2926 70.5086C23.2139 70.579 25.0227 71.339 25.6842 72.1062C24.3822 71.4728 20.9408 71.1561 19.7725 72.0076Z" fill="black"/>
<path opacity="0.15" d="M13.0374 99.6027C13.6919 93.3321 14.2338 89.9539 14.6209 86.421C14.7861 86.4536 14.938 86.5344 15.0572 86.6532C15.4075 87.121 15.8088 87.5482 16.2537 87.9271C16.7604 88.2719 17.4079 88.483 17.9005 88.842C18.6842 89.5321 19.522 90.1581 20.4059 90.714C21.1113 91.0513 21.8377 91.3428 22.5806 91.5867C22.7448 91.6313 22.8888 91.7306 22.9888 91.8682C23.1296 92.1145 22.9395 92.4242 22.7284 92.6072C22.3969 92.8603 22.0145 93.0386 21.6075 93.1297C21.2005 93.2209 20.7785 93.2227 20.3707 93.135C19.5587 92.9543 18.7648 92.6999 17.999 92.3749C17.9075 92.3398 17.7879 92.3116 17.7175 92.3749C17.6947 92.4158 17.6827 92.4619 17.6827 92.5087C17.6827 92.5555 17.6947 92.6015 17.7175 92.6424C18.3368 94.9156 20.0118 96.8017 21.8417 98.2163C22.7646 98.7991 23.6572 99.4287 24.516 100.102L24.5582 100.145C24.574 100.101 24.5928 100.059 24.6145 100.018C24.831 99.7288 25.1269 99.5088 25.4661 99.3846C27.1763 98.6386 29.1257 98.6808 30.8922 98.0896C31.9363 97.7103 32.9387 97.2244 33.8833 96.6398C34.5441 96.317 35.1574 95.905 35.7061 95.4153C36.0016 95.1197 36.3395 94.6692 35.7061 94.5566C35.2519 94.5438 34.7975 94.5697 34.3478 94.6341C33.4382 94.6563 32.5349 94.4785 31.7016 94.1133C30.484 93.5643 29.9984 92.8113 30.1462 92.3538C30.294 91.8964 31.1104 92.2342 32.6024 92.0371C34.5026 91.7908 37.0855 90.5451 39.1405 90.8407C39.7326 90.9593 40.3444 90.9357 40.9255 90.7718C41.5067 90.6078 42.0406 90.3082 42.4834 89.8976C44.9587 87.8219 47.2563 85.5431 49.3523 83.0851C49.4086 83.1977 49.4508 83.3103 49.5071 83.4229C50.9657 86.1107 52.2173 88.9058 53.2512 91.7838C50.1757 93.9936 46.7554 96.4498 44.8974 98.1178C41.7163 100.933 38.9575 103.044 36.8251 103.811C36.3809 103.942 35.9224 104.018 35.4597 104.037C34.5521 104.121 33.6397 104.142 32.7291 104.1C31.5327 104.065 30.2447 103.966 29.3439 103.185C29.1333 102.95 28.8802 102.756 28.5979 102.615C28.3674 102.558 28.1314 102.528 27.8941 102.523C27.6501 102.495 27.4142 102.418 27.2003 102.297C26.9863 102.176 26.7987 102.014 26.6484 101.82C26.5348 101.636 26.4027 101.463 26.2543 101.306C25.9236 100.996 25.4168 100.975 25.0087 100.792C25.0431 100.874 25.0713 100.959 25.0931 101.045C25.1253 101.137 25.1253 101.236 25.0931 101.327C25.0483 101.408 24.9759 101.471 24.889 101.503C24.3541 101.742 23.6926 101.411 23.1507 101.63C22.9587 101.73 22.7751 101.845 22.6017 101.974C22.3948 102.106 22.1635 102.194 21.9216 102.234C21.6798 102.274 21.4324 102.265 21.1942 102.207C20.9672 102.125 20.7307 102.073 20.4904 102.052C20.1753 102.085 19.8695 102.178 19.5896 102.326C18.3791 102.784 17.2671 102.326 16.134 101.897L16.0214 101.848C15.4717 101.69 14.9478 101.453 14.4661 101.144C14.0743 100.839 13.7242 100.484 13.4245 100.088C13.2931 99.9054 13.1641 99.7435 13.0374 99.6027Z" fill="black"/>
<path opacity="0.15" d="M30.9625 72.5284C33.0738 73.8656 41.0899 74.2597 43.349 68.7914C43.2434 74.8228 34.6644 77.0185 30.9625 72.5284Z" fill="black"/>
<path d="M24.185 99.2086C24.2137 99.3003 24.2137 99.3985 24.185 99.4901C24.1376 99.5718 24.0628 99.6341 23.9739 99.6661C23.439 99.9054 22.7845 99.5746 22.2356 99.7928C22.0438 99.8892 21.8623 100.005 21.6937 100.138C21.4864 100.268 21.2551 100.356 21.0134 100.396C20.7716 100.436 20.5244 100.427 20.2861 100.37C20.0591 100.288 19.8226 100.236 19.5823 100.215C19.2685 100.25 18.9634 100.34 18.6815 100.482C17.471 100.947 16.359 100.482 15.233 100.053C15.1912 100.045 15.1508 100.031 15.1133 100.011C14.5637 99.8525 14.0399 99.6154 13.558 99.3072C13.167 99.0064 12.8189 98.6536 12.5235 98.2585C12.0401 97.7462 11.6021 97.1928 11.2144 96.6047C10.9034 95.9532 10.6673 95.2685 10.5107 94.5637C10.1391 93.1886 9.98471 91.7638 10.0532 90.341C10.1236 88.7083 10.3699 85.9776 12.0167 85.1049C12.6009 84.7882 13.6565 84.2886 14.2055 84.8657C14.5565 85.3329 14.9603 85.758 15.4089 86.1325C15.9157 86.4843 16.5631 86.6955 17.0558 87.0474C17.8274 87.7306 18.6536 88.3496 19.526 88.8983C20.2296 89.2344 20.9535 89.5258 21.6937 89.771C21.8594 89.8122 22.0045 89.9122 22.1019 90.0525C22.2426 90.2988 22.0596 90.6085 21.8415 90.7915C21.5106 91.0432 21.1294 91.2207 20.7237 91.3117C20.3181 91.4028 19.8976 91.4054 19.4908 91.3193C18.6785 91.1396 17.8846 90.8852 17.1191 90.5592C17.0206 90.5592 16.908 90.4959 16.8376 90.5592C16.8133 90.5983 16.8004 90.6434 16.8004 90.6894C16.8004 90.7354 16.8133 90.7805 16.8376 90.8196C17.581 93.0746 19.0292 95.0311 20.9688 96.4006C21.8906 96.9818 22.7809 97.6113 23.6361 98.2867C23.9095 98.5302 24.1012 98.8522 24.185 99.2086Z" fill="#FFBE9D"/>
<path d="M14.7194 85.5061C14.5227 85.077 14.3626 84.632 14.2408 84.176C14.1108 83.7185 14.0514 83.2438 14.0649 82.7684C13.839 83.2205 13.7961 83.7423 13.9452 84.2253C14.0123 84.4708 14.1091 84.7071 14.2338 84.929C14.3588 85.1496 14.5234 85.3453 14.7194 85.5061Z" fill="#EB996E"/>
<path d="M52.8852 77.5745C51.8084 78.8272 46.889 84.8093 43.1238 87.7371C42.6813 88.1484 42.1476 88.4489 41.5665 88.6141C40.9854 88.7793 40.3735 88.8043 39.7808 88.6872C37.7258 88.3916 35.1429 89.6302 33.2427 89.8836C31.7507 90.0736 30.8992 89.8414 30.7866 90.1932C30.6458 90.6507 31.1314 91.4108 32.3419 91.9527C33.1742 92.3213 34.0783 92.4992 34.9881 92.4735C35.4377 92.408 35.8924 92.3844 36.3464 92.4031C37.0009 92.5087 36.6561 92.9661 36.3464 93.2617C35.7954 93.7484 35.1825 94.1601 34.5236 94.4863C33.5802 95.0806 32.5778 95.5759 31.5326 95.9642C29.7661 96.5483 27.8166 96.5061 26.1135 97.2521C25.7717 97.3753 25.475 97.5984 25.2619 97.8926C25.2026 97.9714 25.1727 98.0685 25.1775 98.167C25.1978 98.2561 25.2444 98.337 25.3112 98.3993C25.7334 98.8145 26.4654 98.7301 26.9017 99.1031C27.0424 99.2652 27.1717 99.4369 27.2888 99.6168C27.4401 99.8117 27.6289 99.9744 27.8441 100.095C28.0592 100.216 28.2963 100.293 28.5415 100.321C28.7785 100.322 29.0146 100.351 29.2453 100.405C29.5272 100.547 29.7802 100.74 29.9913 100.975C30.8921 101.763 32.1871 101.862 33.3765 101.89C34.2869 101.931 35.1991 101.912 36.1071 101.834C36.5721 101.81 37.0327 101.732 37.4795 101.601C39.5908 100.848 42.3637 98.7864 45.5518 95.915C48.7399 93.0435 56.5096 87.8708 59.2755 85.6468C63.7515 82.0435 64.7579 81.0019 63.4981 76.9059C62.6606 74.1682 58.6139 62.5629 56.4955 57.721C53.4763 50.8099 50.3305 51.3518 46.4597 50.2187C45.4603 52.0063 45.0521 59.1848 46.8679 63.6397C49.8871 70.6986 52.8852 77.5745 52.8852 77.5745Z" fill="#FFBE9D"/>
<path d="M46.4597 50.2399C48.1628 50.5284 52.1603 51.2392 53.5397 52.5483C55.7214 54.6174 56.8334 57.3832 58.5858 62.0915C60.3382 66.7997 63.0266 75.3999 63.0266 75.3999C63.0266 75.3999 59.5077 73.7883 52.9204 77.5746L47.1353 64.794C47.1353 64.794 43.3208 57.3973 46.4597 50.2399Z" fill="#42A5F5"/>
<path opacity="0.3" d="M46.4597 50.2399C48.1628 50.5284 52.1603 51.2392 53.5397 52.5483C55.7214 54.6174 56.8334 57.3832 58.5858 62.0915C60.3382 66.7997 63.0266 75.3999 63.0266 75.3999C63.0266 75.3999 59.5077 73.7883 52.9204 77.5746L47.1353 64.794C47.1353 64.794 43.3208 57.3973 46.4597 50.2399Z" fill="black"/>
</g>
<defs>
<clipPath id="clip0_126_2282">
<rect width="64" height="112" fill="white" transform="matrix(-1 0 0 1 64 0)"/>
</clipPath>
</defs>
</svg>
