<svg width="209" height="193" viewBox="0 0 209 193" fill="none" xmlns="http://www.w3.org/2000/svg">
<path d="M128.339 136.503C115.526 142.507 90.0909 111.296 93.6343 96.7352C98.4916 76.7738 129.952 83.7122 129.952 83.7122L131.975 94.9931C131.975 94.9931 111.747 98.4537 111.938 101.387C112.163 104.871 122.478 112.859 126.384 116.627C134.048 124.028 134.086 133.807 128.339 136.503Z" fill="#FFBE9D"/>
<path opacity="0.15" d="M128.339 136.503C115.526 142.507 90.0909 111.296 93.6343 96.7352C98.4916 76.7738 129.952 83.7122 129.952 83.7122L131.975 94.9931C131.975 94.9931 111.747 98.4537 111.938 101.387C112.163 104.871 122.478 112.859 126.384 116.627C134.048 124.028 134.086 133.807 128.339 136.503Z" fill="black"/>
<path d="M123.056 87.1122L124.267 85.9495C125.226 85.0283 126.391 84.3485 127.664 83.9663C128.938 83.584 130.284 83.5103 131.591 83.7512L138.241 84.9882C139.127 85.1545 139.94 85.5876 140.573 86.2295C140.952 86.5961 141.258 87.0303 141.477 87.5096L143.088 90.9935C143.452 91.7421 143.59 92.5805 143.485 93.4061C143.379 94.2318 143.036 95.0088 142.496 95.6422L139.323 99.1841C138.845 99.7242 138.217 100.11 137.52 100.294C136.822 100.477 136.085 100.45 135.403 100.215C135.032 100.089 134.681 99.9098 134.361 99.6829C134.251 99.5984 134.141 99.5139 134.034 99.4198L132.223 97.8552C132.223 97.8552 131.559 97.4145 130.537 96.5511C130.498 96.5119 130.454 96.4764 130.408 96.4452C130.343 96.3977 130.282 96.345 130.226 96.2875C130.067 96.1417 129.885 95.9997 129.716 95.8353C127.511 93.8997 124.429 90.7334 123.056 87.1122Z" fill="#FFBE9D"/>
<path opacity="0.15" d="M123.056 87.1122L124.268 85.9495C125.226 85.0283 126.391 84.3485 127.664 83.9662C128.938 83.584 130.284 83.5103 131.591 83.7512L138.241 84.9882C138.891 85.116 139.507 85.3832 140.044 85.7715C139.395 85.7541 138.754 85.9165 138.192 86.2407C137.518 86.8307 135.677 88.8402 135.501 89.0321C135.583 88.8434 136.456 86.9107 134.896 86.7241C134.536 86.6863 134.171 86.7272 133.827 86.8438C133.483 86.9604 133.169 87.15 132.906 87.3997C132.642 87.6493 132.436 87.953 132.301 88.2898C132.166 88.6267 132.106 88.9888 132.124 89.3512C132.271 90.6816 132.51 92.0002 132.841 93.2971C132.841 93.2971 135.686 94.5084 135.839 96.6048C135.906 97.8259 135.756 99.0491 135.397 100.218C135.026 100.092 134.675 99.9131 134.355 99.6862C134.779 98.9913 135.62 97.3968 135.337 96.2847C135.001 94.9443 133.137 93.4729 132.451 94.1578C132.193 94.4217 132.023 94.7582 131.962 95.1219C131.902 95.4857 131.955 95.8592 132.113 96.1921C132.113 96.1921 128.837 92.6669 131.091 90.8419C131.091 90.8419 130.201 88.2883 132.256 86.9237C132.256 86.9237 129.699 86.0366 128.595 87.3816C128.279 87.8287 128.08 88.348 128.017 88.8919C127.954 89.4358 128.028 89.9868 128.234 90.4943C128.234 90.4943 126.233 92.6385 129.71 95.8387C127.511 93.8997 124.429 90.7334 123.056 87.1122Z" fill="black"/>
<path d="M77.7602 149.145C78.5806 149.181 79.3909 149.197 80.1878 149.189L81.0741 119.333C85.1231 115.37 88.6347 110.893 91.5191 106.017C91.8765 105.406 92.2267 104.767 92.5544 104.116L92.7738 103.709C93.0874 103.106 93.3847 102.488 93.6748 101.841C96.609 95.4404 98.2176 87.7639 95.6803 79.919C93.019 71.6687 83.6648 54.8414 57.1868 66.8161C53.879 68.3297 50.6785 70.0677 47.6077 72.0179C41.2252 76.056 35.1552 80.5683 29.4492 85.5165C18.7629 86.3036 16.6896 85.1859 14.9846 85.7351C12.7151 85.8939 11.508 88.865 12.3358 91.26C13.2827 94.0071 14.5121 92.9067 14.904 92.1971C14.904 92.1971 15.5532 93.968 18.5858 94.7571C20.2187 95.203 21.7194 96.0376 22.9597 97.1896C23.5652 97.9505 24.1808 98.73 24.7987 99.4842C24.8659 99.608 24.886 99.6451 24.8692 99.6142C27.6817 103.023 30.6576 105.95 34.3158 105.205C38.5463 104.334 40.7599 98.8936 41.6113 96.2117L43.0475 96.2891L44.6451 96.3831L47.2787 96.5555L47.7805 96.5795L53.248 96.8797C37.4653 113.824 50.4452 143.746 73.1143 148.543C74.6443 148.868 76.1979 149.069 77.7602 149.145Z" fill="#FFBE9D"/>
<path opacity="0.15" d="M77.7602 149.145C78.5806 149.181 79.3909 149.197 80.1878 149.189L81.0741 119.333C85.1231 115.37 88.6347 110.893 91.5191 106.017C91.8765 105.406 92.2267 104.767 92.5544 104.116L92.7738 103.709C93.0874 103.106 93.3847 102.488 93.6748 101.841C96.609 95.4404 98.2176 87.7639 95.6803 79.919C93.019 71.6687 83.6648 54.8414 57.1868 66.8161C53.879 68.3297 50.6785 70.0677 47.6077 72.0179C41.2252 76.056 35.1552 80.5683 29.4492 85.5165C18.7629 86.3036 16.6896 85.1859 14.9846 85.7351C12.7151 85.8939 11.508 88.865 12.3358 91.26C13.2827 94.0071 14.5121 92.9067 14.904 92.1971C14.904 92.1971 15.5532 93.968 18.5858 94.7571C20.2187 95.203 21.7194 96.0376 22.9597 97.1896C23.5652 97.9505 24.1808 98.73 24.7987 99.4842C24.8659 99.608 24.886 99.6451 24.8692 99.6142C27.6817 103.023 30.6576 105.95 34.3158 105.205C38.5463 104.334 40.7599 98.8936 41.6113 96.2117L43.0475 96.2891L44.6451 96.3831L47.2787 96.5555L47.7805 96.5795L53.248 96.8797C37.4653 113.824 50.4452 143.746 73.1143 148.543C74.6443 148.868 76.1979 149.069 77.7602 149.145Z" fill="black"/>
<path d="M129.37 155.43C121.021 153.041 122.385 156.29 114.994 160.032C107.264 163.917 82.0007 161.602 58.103 144.804C27.3592 123.19 74.3458 91.4644 89.3399 98.4182C104.334 105.372 113.025 117.495 130.447 119.653C147.868 121.811 129.37 155.43 129.37 155.43Z" fill="#FFBE9D"/>
<path d="M111.157 113.51C103.567 117.239 95.2684 112.522 92.3738 110.04C92.049 109.735 91.8546 109.317 91.8312 108.872C91.8077 108.428 91.9571 107.991 92.2481 107.654C92.539 107.317 92.949 107.106 93.3923 107.064C93.8356 107.022 94.2778 107.153 94.6266 107.43C94.7208 107.515 104.59 115.641 112.319 108.552C118.471 102.911 115.69 98.2918 107.891 89.0811C104.833 85.4697 96.7406 71.9554 99.1514 62.6575C99.5421 61.0662 100.323 59.5974 101.424 58.384C102.525 57.1705 103.911 56.2506 105.457 55.7074C105.671 55.6147 105.902 55.5664 106.135 55.5653C106.369 55.5643 106.6 55.6106 106.815 55.7014C107.03 55.7923 107.224 55.9258 107.386 56.0938C107.548 56.2619 107.674 56.461 107.756 56.6792C107.839 56.8973 107.877 57.13 107.867 57.3631C107.857 57.5962 107.8 57.8249 107.699 58.0353C107.598 58.2458 107.456 58.4336 107.281 58.5874C107.105 58.7413 106.9 58.858 106.679 58.9304C105.642 59.2781 104.711 59.8854 103.975 60.6946C103.239 61.5038 102.722 62.4879 102.474 63.5533C100.653 70.528 106.759 82.4364 110.521 86.8842C117.094 94.6366 123.891 102.652 114.636 111.092C113.596 112.058 112.425 112.872 111.157 113.51Z" fill="#EC407A"/>
<g opacity="0.2">
<path d="M111.157 113.51C103.567 117.239 95.2684 112.522 92.3738 110.04C92.049 109.735 91.8546 109.317 91.8312 108.872C91.8077 108.428 91.9571 107.991 92.2481 107.654C92.539 107.317 92.949 107.106 93.3923 107.064C93.8356 107.022 94.2778 107.153 94.6266 107.43C94.7208 107.515 104.59 115.641 112.319 108.552C118.471 102.911 115.69 98.2918 107.891 89.0811C104.833 85.4697 96.7406 71.9554 99.1514 62.6575C99.5421 61.0662 100.323 59.5974 101.424 58.384C102.525 57.1705 103.911 56.2506 105.457 55.7074C105.671 55.6147 105.902 55.5664 106.135 55.5653C106.369 55.5643 106.6 55.6106 106.815 55.7014C107.03 55.7923 107.224 55.9258 107.386 56.0938C107.548 56.2619 107.674 56.461 107.756 56.6792C107.839 56.8973 107.877 57.13 107.867 57.3631C107.857 57.5962 107.8 57.8249 107.699 58.0353C107.598 58.2458 107.456 58.4336 107.281 58.5874C107.105 58.7413 106.9 58.858 106.679 58.9304C105.642 59.2781 104.711 59.8854 103.975 60.6946C103.239 61.5038 102.722 62.4879 102.474 63.5533C100.653 70.528 106.759 82.4364 110.521 86.8842C117.094 94.6366 123.891 102.652 114.636 111.092C113.596 112.058 112.425 112.872 111.157 113.51Z" fill="white"/>
</g>
<path d="M115.981 77.4768C115.77 77.5911 115.554 77.7087 115.335 77.7633C107.089 81.0232 89.7436 72.0852 83.3056 58.4739C79.1074 49.5918 72.7773 47.4524 68.2319 48.4223C62.5694 49.6223 58.7809 55.4536 58.5887 63.2743C58.2583 75.9457 52.8507 86.911 45.0343 90.755L44.7063 90.9331C42.5522 91.9884 40.135 92.3858 37.7564 92.0757C35.3779 91.7657 33.1433 90.7619 31.3317 89.1896C24.8198 83.9118 26.3681 77.5261 27.7408 71.9089C29.0003 66.7618 30.1878 61.9102 26.319 57.1762C26.1663 57.0022 26.0502 56.7993 25.9776 56.5796C25.9049 56.3598 25.8773 56.1276 25.8962 55.8969C25.9152 55.6662 25.9804 55.4417 26.0879 55.2368C26.1955 55.0318 26.3431 54.8506 26.5222 54.7038C26.7012 54.5571 26.908 54.448 27.1301 54.3828C27.3522 54.3177 27.5851 54.2979 27.815 54.3246C28.045 54.3514 28.2671 54.4241 28.4684 54.5386C28.6696 54.653 28.8457 54.8067 28.9863 54.9906C33.9462 61.0552 32.4387 67.2504 31.0926 72.7249C29.7466 78.1995 28.6763 82.6028 33.5003 86.5136C34.8139 87.6762 36.4449 88.4198 38.1841 88.6489C39.9233 88.8781 41.6912 88.5823 43.2611 87.7996C48.9505 85.1588 54.7914 76.5703 55.1456 63.2049C55.3729 53.7225 60.2366 46.6102 67.5194 45.0592C74.8021 43.5083 82.2334 48.2068 86.4043 57.0235C92.6149 70.1573 108.539 76.7582 114.046 74.5773C117.63 73.1515 116.784 69.292 115.93 67.1436C114.032 62.1728 109.248 57.9518 106.673 58.9496C106.251 59.0873 105.793 59.0573 105.392 58.8658C104.992 58.6742 104.681 58.3359 104.524 57.921C104.367 57.5061 104.375 57.0467 104.548 56.638C104.721 56.2293 105.044 55.9029 105.452 55.7266C110.311 53.889 116.686 59.578 119.144 65.9194C121.18 71.144 119.96 75.5241 115.981 77.4768Z" fill="#EC407A"/>
<g opacity="0.4">
<path d="M115.981 77.4768C115.77 77.5911 115.554 77.7087 115.335 77.7633C107.089 81.0232 89.7436 72.0852 83.3056 58.4739C79.1074 49.5918 72.7773 47.4524 68.2319 48.4223C62.5694 49.6223 58.7809 55.4536 58.5887 63.2743C58.2583 75.9457 52.8507 86.911 45.0343 90.755L44.7063 90.9331C42.5522 91.9884 40.135 92.3858 37.7564 92.0757C35.3779 91.7657 33.1433 90.7619 31.3317 89.1896C24.8198 83.9118 26.3681 77.5261 27.7408 71.9089C29.0003 66.7618 30.1878 61.9102 26.319 57.1762C26.1663 57.0022 26.0502 56.7993 25.9776 56.5796C25.9049 56.3598 25.8773 56.1276 25.8962 55.8969C25.9152 55.6662 25.9804 55.4417 26.0879 55.2368C26.1955 55.0318 26.3431 54.8506 26.5222 54.7038C26.7012 54.5571 26.908 54.448 27.1301 54.3828C27.3522 54.3177 27.5851 54.2979 27.815 54.3246C28.045 54.3514 28.2671 54.4241 28.4684 54.5386C28.6696 54.653 28.8457 54.8067 28.9863 54.9906C33.9462 61.0552 32.4387 67.2504 31.0926 72.7249C29.7466 78.1995 28.6763 82.6028 33.5003 86.5136C34.8139 87.6762 36.4449 88.4198 38.1841 88.6489C39.9233 88.8781 41.6912 88.5823 43.2611 87.7996C48.9505 85.1588 54.7914 76.5703 55.1456 63.2049C55.3729 53.7225 60.2366 46.6102 67.5194 45.0592C74.8021 43.5083 82.2334 48.2068 86.4043 57.0235C92.6149 70.1573 108.539 76.7582 114.046 74.5773C117.63 73.1515 116.784 69.292 115.93 67.1436C114.032 62.1728 109.248 57.9518 106.673 58.9496C106.251 59.0873 105.793 59.0573 105.392 58.8658C104.992 58.6742 104.681 58.3359 104.524 57.921C104.367 57.5061 104.375 57.0467 104.548 56.638C104.721 56.2293 105.044 55.9029 105.452 55.7266C110.311 53.889 116.686 59.578 119.144 65.9194C121.18 71.144 119.96 75.5241 115.981 77.4768Z" fill="white"/>
</g>
<path d="M60.1313 146.178C33.637 130.117 29.7763 101.14 58.3722 92.9031L53.6104 90.2726L53.1736 90.029L50.8809 88.758L49.4808 87.9799L44.4995 85.1961L41.88 72.3157C49.1887 70.3397 56.6354 68.9153 64.1574 68.0548C67.7745 67.6524 71.4145 67.4934 75.0528 67.5788C104.105 68.3411 105.184 87.5628 103.984 96.1549C102.848 104.288 98.0471 110.469 92.6196 114.978C92.068 115.438 91.5434 115.859 91.006 116.271L90.6278 116.549C90.0628 116.984 89.4843 117.394 88.8957 117.786C84.1794 120.919 79.0737 123.422 73.7084 125.232L60.1313 146.178Z" fill="#FFBE9D"/>
<path opacity="0.2" d="M58.2864 92.8776C61.377 94.8211 66.0777 96.4832 68.0705 96.4346C66.1893 97.1513 64.1243 97.2278 62.1952 96.6524C59.3806 95.8812 58.2864 92.8776 58.2864 92.8776Z" fill="black"/>
<path d="M37.7282 92.1745C43.3094 93.5988 49.2376 86.1007 49.2376 86.1007L42.1394 72.4393C31.9426 68.4173 30.5508 66.4888 28.7681 66.2309C26.6504 65.3857 24.2749 67.5331 23.9724 70.0451C23.6292 72.9398 25.2143 72.4797 25.8513 72.0296C25.8513 72.0296 25.6533 73.9079 28.038 75.9383C29.3168 77.0479 30.3053 78.453 30.9178 80.0315C31.1329 80.9884 31.3514 81.9514 31.5688 82.883C31.5736 83.0247 31.5842 83.059 31.6023 83.0332C32.6929 87.3287 34.0956 91.2545 37.7282 92.1745Z" fill="#FFBE9D"/>
<path opacity="0.15" d="M125.834 154.674C119.084 148.308 105.675 132.512 114.835 114.381C119.667 117.135 124.99 118.918 130.506 119.629C147.921 121.79 129.391 155.411 129.391 155.411C128.228 155.067 127.038 154.821 125.834 154.674Z" fill="black"/>
<path d="M159.079 118.079C159.079 118.079 163.193 120.741 167.514 119.108C171.835 117.474 175.097 123.804 179.759 118.756C184.422 113.708 175.91 105.839 172.239 106.205C172.462 105.819 172.546 105.368 172.476 104.928C172.406 104.487 172.186 104.084 171.854 103.786C171.854 103.786 170.443 106.219 169.677 105.089C168.911 103.958 165.028 100.586 160.724 102.899C156.419 105.213 152.889 112.154 159.079 118.079Z" fill="#FFBE9D"/>
<path opacity="0.2" d="M159.079 118.079C159.079 118.079 163.193 120.741 167.514 119.108C171.835 117.474 175.097 123.804 179.759 118.756C184.422 113.708 175.91 105.839 172.239 106.205C172.462 105.819 172.546 105.368 172.476 104.928C172.406 104.487 172.186 104.084 171.854 103.786C171.854 103.786 170.443 106.219 169.677 105.089C168.911 103.958 165.028 100.586 160.724 102.899C156.419 105.213 152.889 112.154 159.079 118.079Z" fill="black"/>
<path d="M161.191 164.729C159.311 164.963 157.419 165.08 155.525 165.081C154.938 165.079 154.349 165.071 153.756 165.04C148.789 164.856 143.873 163.97 139.154 162.409C135.676 161.277 132.367 159.681 129.317 157.663C127.812 156.66 126.405 155.52 125.111 154.257C119.409 148.612 116.003 140.774 115.139 132.854C114.042 122.865 117.263 112.285 125.662 106.21C129.413 103.532 133.722 101.74 138.265 100.969C147.426 99.3351 159.543 100.592 169.119 106.024C175.387 109.568 180.568 114.903 183.139 122.369C183.642 123.728 184.027 125.128 184.289 126.552C186.003 135.182 184.646 144.139 180.452 151.874C178.48 155.381 175.707 158.374 172.36 160.608C169.013 162.841 165.186 164.253 161.191 164.729Z" fill="#FFBE9D"/>
<path d="M156.057 129.792C156.221 129.663 156.418 129.581 156.625 129.556C156.76 129.562 156.892 129.594 157.014 129.651C157.136 129.709 157.246 129.789 157.336 129.889C157.427 129.989 157.497 130.106 157.543 130.233C157.588 130.359 157.608 130.494 157.601 130.629C157.593 132.211 157.2 133.768 156.457 135.166C155.714 136.563 154.643 137.759 153.335 138.65C153.224 138.718 153.1 138.763 152.972 138.783C152.843 138.803 152.711 138.797 152.585 138.766C152.459 138.735 152.34 138.679 152.235 138.602C152.13 138.524 152.042 138.427 151.975 138.315C151.848 138.087 151.812 137.82 151.873 137.567C151.935 137.314 152.09 137.093 152.307 136.949C153.334 136.217 154.168 135.246 154.738 134.12C155.307 132.995 155.595 131.748 155.576 130.486C155.604 130.344 155.661 130.208 155.744 130.089C155.826 129.969 155.933 129.869 156.057 129.792Z" fill="#263238"/>
<path d="M155.626 107.102C155.684 106.901 155.797 106.721 155.952 106.58C156.173 106.437 156.442 106.385 156.701 106.436C156.96 106.487 157.189 106.635 157.341 106.851C158.265 108.137 158.863 109.626 159.084 111.193C159.306 112.76 159.144 114.358 158.613 115.848C158.564 115.971 158.49 116.083 158.397 116.176C158.304 116.27 158.193 116.344 158.071 116.394C157.948 116.444 157.817 116.469 157.685 116.467C157.553 116.466 157.422 116.437 157.301 116.384C157.063 116.275 156.874 116.079 156.774 115.836C156.673 115.594 156.668 115.322 156.759 115.076C157.161 113.881 157.266 112.606 157.063 111.361C156.861 110.117 156.358 108.94 155.597 107.935C155.547 107.801 155.524 107.658 155.528 107.515C155.533 107.372 155.567 107.232 155.626 107.102Z" fill="#263238"/>
<path d="M140.295 117.839L136.716 112.723C136.716 112.723 134.651 113.909 133.914 118.587L140.295 117.839Z" fill="#DE5753"/>
<path d="M144.837 128.313C144.837 128.313 141.737 129.54 143.741 134.101C143.741 134.101 137.964 130.074 144.292 126.262L144.837 128.313Z" fill="#263238"/>
<path d="M145.351 110.166C145.351 110.166 142.251 111.392 144.249 115.956C144.249 115.956 138.478 111.926 144.799 108.117L145.351 110.166Z" fill="#263238"/>
<path opacity="0.1" d="M165.897 102.51C165.954 102.615 166.131 102.719 166.434 102.835C166.263 102.714 166.084 102.605 165.897 102.51Z" fill="black"/>
<path d="M132.846 125.666C132.701 125.744 132.532 125.765 132.373 125.723C126.94 124.306 127.654 119.527 127.655 119.47C127.682 119.301 127.775 119.149 127.914 119.048C128.053 118.947 128.227 118.905 128.396 118.932C128.566 118.959 128.718 119.052 128.819 119.191C128.92 119.33 128.962 119.503 128.935 119.673C128.909 119.831 128.423 123.348 132.695 124.458C132.821 124.491 132.933 124.561 133.019 124.659C133.104 124.757 133.158 124.878 133.173 125.007C133.189 125.135 133.165 125.266 133.106 125.381C133.046 125.497 132.954 125.591 132.84 125.653L132.846 125.666Z" fill="#263238"/>
<path opacity="0.15" d="M153.756 165.04C148.789 164.856 143.873 163.97 139.154 162.409C135.676 161.277 132.367 159.681 129.317 157.663C131.633 154.314 136.431 152.084 145.348 156.553C148.927 158.49 151.852 161.444 153.756 165.04Z" fill="black"/>
<path d="M164.251 152.394C164.251 152.394 159.559 150.983 155.865 153.743C152.171 156.502 147.306 151.363 144.205 157.487C141.103 163.61 151.498 168.822 154.911 167.45C154.806 167.883 154.853 168.338 155.044 168.741C155.235 169.143 155.558 169.468 155.96 169.661C155.96 169.661 156.616 166.9 157.687 167.809C158.757 168.718 163.398 170.846 166.896 167.416C170.394 163.986 171.847 156.362 164.251 152.394Z" fill="#FFBE9D"/>
<path opacity="0.2" d="M164.251 152.394C164.251 152.394 159.559 150.983 155.865 153.743C152.171 156.502 147.306 151.363 144.205 157.487C141.103 163.61 151.498 168.822 154.911 167.45C154.806 167.883 154.853 168.338 155.044 168.741C155.235 169.143 155.558 169.468 155.96 169.661C155.96 169.661 156.616 166.9 157.687 167.809C158.757 168.718 163.398 170.846 166.896 167.416C170.394 163.986 171.847 156.362 164.251 152.394Z" fill="black"/>
<path d="M161.827 157.549C157.061 159.632 155.729 155.571 157.378 152.913C157.423 152.848 157.715 157.738 161.781 154.528C161.849 154.491 162.272 149.294 165.034 147.858C165.102 147.821 163.822 142.675 166.041 140.565C168.26 138.454 163.777 137.339 163.783 137.351C163.79 137.364 165.733 135.452 167.65 137.094C167.684 137.156 170.329 132.908 166.799 130.554C163.382 128.29 164.675 123.854 166.34 123.143C166.34 123.143 165.543 125.01 166.997 125.414C167.058 125.381 166.773 119.646 170.236 119.649C170.321 119.658 169.404 113.69 173.187 114.224C173.187 114.224 171.216 115.743 173.661 117.797C173.661 117.797 176.202 116.898 174.286 113.267C172.37 109.635 170.281 110.097 170.306 110.083C170.331 110.07 172.235 107.321 175.441 110.332C175.511 110.358 175.101 104.659 178.82 105.428C179.845 105.605 180.769 106.154 181.415 106.97C182.061 107.786 182.382 108.812 182.319 109.85C182.319 109.85 181.027 108.284 180.198 108.999C180.198 108.999 182.287 112.448 183.873 112.195C185.459 111.943 188.438 114.051 188.021 117.916C188.021 117.916 190.58 120.18 190.728 116.998C190.759 116.982 192.385 121.171 189.892 123.133C189.852 123.059 194.396 127.635 191.913 133.11C191.913 133.11 194.587 134.021 194.737 138.178C194.887 142.336 192.685 143.636 192.703 143.626C192.722 143.616 193.672 141.602 192.413 140.346C192.45 140.414 188.203 144.723 190.023 147.75C191.984 150.859 189.775 156.987 185.692 157.481C185.692 157.481 186.603 160.456 189.253 158.593C189.29 158.661 185.825 164.661 182.133 160.857C182.109 160.813 182.36 164.331 177.311 167.722C172.235 170.991 168.987 168.476 168.998 168.526C169.009 168.576 167.846 173.31 163.075 172.744C163.709 172.544 164.25 172.123 164.599 171.556C164.948 170.99 165.081 170.318 164.975 169.661C164.975 169.661 161.528 171.902 158.347 171.193C157.514 171.04 156.771 170.575 156.27 169.891C155.769 169.208 155.549 168.359 155.654 167.519C155.654 167.519 153.11 169.133 153.83 170.505C153.83 170.505 151.988 168.869 154.098 166.409C154.098 166.409 151.506 166.535 152.138 164.348C152.77 162.162 155.695 162.753 155.71 162.737C155.725 162.721 155.607 161.455 153.489 161.067C153.489 161.067 155.264 159.053 158.36 160.697C158.36 160.697 158.026 160.598 159.052 159.36C159.82 158.544 160.771 157.923 161.827 157.549Z" fill="#FFBE9D"/>
<path opacity="0.4" d="M182.315 109.844C182.315 109.844 181.024 108.278 180.194 108.993C180.194 108.993 182.284 112.441 183.869 112.189C185.455 111.937 188.435 114.045 188.017 117.909C188.017 117.909 190.577 120.173 190.724 116.992C190.755 116.975 192.381 121.165 189.889 123.127C189.849 123.053 194.393 127.628 191.909 133.104C191.909 133.104 194.584 134.015 194.734 138.172C194.884 142.33 192.682 143.63 192.7 143.62C192.719 143.61 193.668 141.596 192.41 140.34C192.446 140.408 188.2 144.717 190.02 147.744C191.981 150.853 189.771 156.981 185.689 157.475C185.689 157.475 186.599 160.45 189.249 158.587C189.286 158.655 185.822 164.655 182.129 160.85C182.106 160.807 182.357 164.324 177.308 167.716C172.232 170.985 168.983 168.47 168.994 168.52C169.006 168.57 167.842 173.304 163.072 172.738C163.706 172.538 164.247 172.116 164.596 171.55C164.945 170.984 165.078 170.311 164.971 169.655C164.971 169.655 161.525 171.895 158.343 171.187C157.51 171.034 156.767 170.568 156.267 169.885C155.766 169.202 155.546 168.353 155.651 167.513C155.651 167.513 153.106 169.127 153.827 170.499C153.827 170.499 151.985 168.863 154.095 166.403C154.095 166.403 151.503 166.528 152.134 164.342C152.766 162.156 155.691 162.747 155.707 162.731C155.722 162.715 155.603 161.449 153.485 161.061C153.485 161.061 155.261 159.047 158.357 160.691C158.357 160.691 158.023 160.592 159.049 159.354C159.734 158.61 160.583 158.036 161.529 157.678C157.047 159.415 155.809 155.512 157.419 152.915C157.464 152.85 157.756 157.74 161.822 154.53C161.89 154.493 162.313 149.296 165.075 147.86C165.143 147.823 163.863 142.677 166.082 140.566C168.301 138.456 163.818 137.341 163.824 137.353C163.831 137.366 165.774 135.453 167.691 137.096C167.725 137.158 170.37 132.909 166.843 130.562C163.423 128.292 164.716 123.856 166.381 123.144C166.381 123.144 165.584 125.011 167.038 125.416C167.1 125.382 166.814 119.648 170.277 119.651C170.362 119.66 169.445 113.692 173.228 114.226C173.228 114.226 171.257 115.745 173.702 117.798C173.702 117.798 176.243 116.9 174.327 113.268C172.411 109.637 170.322 110.099 170.347 110.085C170.372 110.072 172.276 107.323 175.482 110.334C175.552 110.36 175.142 104.661 178.861 105.43C179.877 105.616 180.789 106.168 181.425 106.982C182.062 107.795 182.379 108.813 182.315 109.844Z" fill="black"/>
<path d="M145.368 156.574C145.368 156.574 154.952 163.157 150.585 167.908C146.218 172.659 128.943 168.13 130.539 160.092C132.136 152.053 140.456 151.822 145.368 156.574Z" fill="#FFBE9D"/>
<path opacity="0.15" d="M71.7687 125.083C69.3194 125.208 66.864 125.041 64.4544 124.584C67.5291 124.286 70.5587 123.631 73.4817 122.631C74.9762 122.114 76.4422 121.519 77.8735 120.847C77.9383 120.435 78.0279 120.01 78.127 119.587C78.4521 118.192 78.9528 116.843 79.617 115.573C82.8481 109.379 87.8451 104.342 93.1863 100.352C96.6616 97.7755 100.352 95.5032 104.218 93.5602C104.164 94.4947 104.074 95.3611 103.962 96.1432C103.514 99.3208 102.486 102.389 100.928 105.194L102.597 106.364C103.81 107.211 105.019 108.061 106.224 108.913L107.567 109.85C108.109 110.229 108.667 110.607 109.222 110.979C106.091 114.746 103.098 118.663 102.019 121.044C99.4053 126.766 115.782 139.011 115.762 145.024C115.742 151.036 102.995 157.045 102.995 157.045C102.995 157.045 78.2885 141.206 77.6593 124.2C76.8131 124.427 75.9777 124.601 75.1575 124.758C74.0347 124.928 72.9034 125.037 71.7687 125.083Z" fill="black"/>
<path d="M111.999 102.636C110.693 102.418 109.459 101.891 108.399 101.097L107.054 100.097C108.577 93.8851 114.793 88.2899 114.793 88.2899L116.387 86.5029C116.702 86.1256 117.089 85.8142 117.525 85.5868C117.961 85.3594 118.438 85.2203 118.928 85.1777C119.417 85.1351 119.911 85.1896 120.38 85.3383C120.848 85.487 121.283 85.7269 121.659 86.0441L125.243 89.1619C125.859 89.7212 126.299 90.4481 126.509 91.2535C126.718 92.059 126.689 92.9081 126.424 93.697L125.262 97.3567C125.046 98.0367 124.671 98.6555 124.168 99.1614C123.665 99.6673 123.049 100.046 122.37 100.265L115.93 102.336C114.664 102.754 113.314 102.857 111.999 102.636Z" fill="#FFBE9D"/>
<path d="M115.408 159.334C102.595 165.338 77.7677 134.286 80.7073 119.572C83.6469 104.859 114.171 90.6552 114.171 90.6552L120.462 97.5191C120.462 97.5191 98.6197 117.794 98.7828 120.75C99.0079 124.234 112.621 139.814 116.526 143.583C124.185 150.986 121.153 156.647 115.408 159.334Z" fill="#FFBE9D"/>
</svg>
